<svg width="6" height="24" viewBox="0 0 6 24" fill="none" xmlns="http://www.w3.org/2000/svg">
<path d="M0.0423809 21.0796L0.0423809 20.4421C0.0564438 20.3906 0.0798813 20.3437 0.0892559 20.2921C0.295506 18.9515 1.41113 17.8921 2.71892 17.8031C4.18142 17.6999 5.41892 18.5343 5.82205 19.8937C5.87361 20.0718 5.91111 20.2593 5.95798 20.4421L5.95798 21.0796C5.94392 21.1218 5.92048 21.1593 5.9158 21.2062C5.71423 22.4437 4.82361 23.3858 3.60486 23.653C3.51111 23.6718 3.41736 23.6999 3.32361 23.7233L2.68611 23.7233C2.64392 23.7093 2.60173 23.6858 2.55954 23.6812C1.34079 23.4843 0.412694 22.6171 0.131421 21.4124C0.103296 21.2952 0.0705061 21.1874 0.0423809 21.0796ZM5.95801 3.06091L5.95798 3.69846C5.94392 3.75002 5.92048 3.7969 5.9158 3.84846C5.70486 5.19846 4.58455 6.25315 3.26267 6.33752C1.80486 6.43127 0.572046 5.58752 0.173608 4.22346C0.122046 4.05 0.0845464 3.8719 0.0423587 3.69844L0.0423588 3.06094C0.0564216 3.01875 0.0798591 2.98125 0.0892338 2.93906C0.314234 1.72031 1.02205 0.923437 2.2033 0.54375C2.35798 0.492187 2.52205 0.464062 2.68142 0.421875L3.31892 0.421875C3.36111 0.435937 3.4033 0.459375 3.44548 0.464062C4.66892 0.665625 5.59236 1.52812 5.87361 2.73281C5.90176 2.84531 5.92988 2.95312 5.95801 3.06091ZM5.95798 11.7516L5.95798 12.3891C5.94392 12.4406 5.92048 12.4875 5.91111 12.5391C5.70017 13.8844 4.53767 14.9672 3.22517 15.0234C1.74861 15.0891 0.497045 14.1984 0.145483 12.825C0.107983 12.6797 0.0751709 12.5344 0.0423584 12.3891L0.0423584 11.7516C0.0564213 11.7 0.0798588 11.6531 0.0892334 11.6016C0.295484 10.2562 1.46267 9.17341 2.77517 9.1125C4.25173 9.04219 5.5033 9.9375 5.85486 11.3109C5.89236 11.4609 5.92517 11.6062 5.95798 11.7516Z" fill="#777B82"/>
</svg>
