<?xml version="1.0" standalone="no"?>
<!DOCTYPE svg PUBLIC "-//W3C//DTD SVG 20010904//EN"
 "http://www.w3.org/TR/2001/REC-SVG-20010904/DTD/svg10.dtd">
<svg version="1.0" xmlns="http://www.w3.org/2000/svg"
 width="980.000000pt" height="980.000000pt" viewBox="0 0 980.000000 980.000000"
 preserveAspectRatio="xMidYMid meet">

<g transform="translate(0.000000,980.000000) scale(0.100000,-0.100000)"
fill="#000000" stroke="none">
<path d="M0 8808 c0 -546 5 -2751 12 -4900 l12 -3908 4888 0 4888 0 0 305 0
305 -4579 0 -4579 0 -6 643 c-6 676 -26 6668 -26 7855 l0 692 -305 0 -305 0 0
-992z"/>
<path d="M9005 8316 c-668 -317 -2360 -1139 -2374 -1152 -15 -14 129 -121 499
-374 124 -84 285 -196 358 -247 l133 -94 -19 -32 c-11 -18 -98 -165 -195 -327
-200 -339 -1234 -2067 -1359 -2272 -45 -76 -85 -138 -88 -138 -9 0 -343 187
-877 491 -1968 1119 -1888 1075 -1908 1059 -60 -50 -1750 -2164 -1750 -2189 0
-5 95 -84 210 -176 116 -92 216 -172 223 -178 28 -22 119 84 752 873 656 817
715 885 755 878 11 -3 641 -359 1400 -792 1040 -594 1383 -786 1395 -779 45
28 240 344 1250 2028 392 655 716 1194 721 1199 4 5 216 -130 474 -303 257
-172 469 -310 472 -307 3 2 11 78 19 168 36 434 177 2388 189 2618 3 63 8 130
11 148 3 17 1 32 -3 32 -4 0 -134 -60 -288 -134z m-409 -1118 c-9 -123 -21
-306 -27 -408 -7 -102 -15 -189 -20 -194 -12 -13 -97 38 -369 222 -255 172
-353 242 -347 248 8 8 456 228 591 291 171 79 180 83 184 72 2 -4 -4 -108 -12
-231z"/>
</g>
</svg>
