<svg width="16" height="13" viewBox="0 0 16 13" fill="none" xmlns="http://www.w3.org/2000/svg">
<path d="M15 5.75C15.4142 5.75 15.75 6.08579 15.75 6.5C15.75 6.91421 15.4142 7.25 15 7.25V5.75ZM0.46967 7.03033C0.176777 6.73744 0.176777 6.26256 0.46967 5.96967L5.24264 1.1967C5.53553 0.903806 6.01041 0.903806 6.3033 1.1967C6.59619 1.48959 6.59619 1.96447 6.3033 2.25736L2.06066 6.5L6.3033 10.7426C6.59619 11.0355 6.59619 11.5104 6.3033 11.8033C6.01041 12.0962 5.53553 12.0962 5.24264 11.8033L0.46967 7.03033ZM15 7.25L1 7.25V5.75L15 5.75V7.25Z" fill="white"/>
</svg>
