<svg version="1.0" xmlns="http://www.w3.org/2000/svg" width="1024.000000pt" height="1024.000000pt" viewBox="0 0 1024.000000 1024.000000" preserveAspectRatio="xMidYMid meet">

    <g transform="translate(0.000000,1024.000000) scale(0.100000,-0.100000)" fill="#000000" stroke="none">
        <path d="M7285 9591 c-68 -18 -124 -60 -322 -244 -114 -106 -1128 -1047 -2253
-2090 -1125 -1044 -2061 -1918 -2082 -1944 -98 -124 -87 -303 26 -418 96 -98
4492 -4173 4529 -4198 92 -62 207 -71 310 -24 74 34 109 67 148 139 31 57 34
71 34 148 0 158 200 -41 -2192 2180 -1168 1084 -2123 1975 -2123 1980 0 5 944
885 2098 1956 1153 1070 2112 1962 2131 1982 18 21 45 62 60 92 36 76 36 191
1 265 -31 64 -92 124 -155 154 -54 25 -157 36 -210 22z" />
    </g>
</svg>