<svg width="10" height="10" viewBox="0 0 10 10" fill="none" xmlns="http://www.w3.org/2000/svg">
<path fill-rule="evenodd" clip-rule="evenodd" d="M7.35124e-07 4.99985C7.20036e-07 5.34503 0.279823 5.62485 0.625001 5.62485L7.86627 5.62485L4.55806 8.93306C4.31398 9.17714 4.31398 9.57286 4.55806 9.81694C4.80214 10.061 5.19786 10.061 5.44194 9.81694L9.81694 5.44194C9.89263 5.36626 9.94484 5.27599 9.97359 5.18019C9.99077 5.12309 10 5.06255 10 4.99985C10 4.82307 9.92661 4.66344 9.80864 4.54975L5.44194 0.183058C5.19786 -0.0610196 4.80214 -0.0610196 4.55806 0.183058C4.31398 0.427136 4.31398 0.822864 4.55806 1.06694L7.86596 4.37485L0.625001 4.37485C0.279823 4.37485 7.50212e-07 4.65467 7.35124e-07 4.99985Z" fill="#325ECD"/>
</svg>
