<svg version="1.0" xmlns="http://www.w3.org/2000/svg"
    width="900.000000pt" height="980.000000pt" viewBox="0 0 900.000000 980.000000"
    preserveAspectRatio="xMidYMid meet">

    <g transform="translate(0.000000,980.000000) scale(0.100000,-0.100000)"
        fill="#000000" stroke="none">
        <path d="M4375 9790 c-328 -52 -606 -294 -704 -613 -26 -87 -43 -260 -39 -404
l3 -112 -130 -46 c-168 -60 -438 -192 -589 -289 -387 -248 -738 -612 -965
-999 -180 -308 -306 -653 -366 -1004 -36 -211 -38 -253 -44 -1323 -7 -1039 -8
-1079 -29 -1196 -46 -261 -108 -453 -217 -679 -110 -226 -177 -324 -477 -688
-104 -125 -198 -247 -210 -270 -18 -33 -23 -59 -23 -117 0 -89 19 -134 80
-196 79 -79 -4 -74 1292 -74 634 0 1153 -3 1153 -7 -1 -5 -7 -37 -16 -73 -8
-36 -17 -135 -21 -220 -6 -179 14 -327 66 -488 138 -421 480 -768 898 -911
172 -59 268 -74 468 -74 201 0 309 17 472 74 418 148 758 490 891 899 50 153
63 231 69 405 5 159 -9 316 -33 379 -6 15 85 16 1157 17 865 0 1172 4 1196 12
60 22 117 72 148 128 25 46 29 64 29 129 0 87 -20 135 -88 209 -70 77 -320
383 -394 482 -206 279 -360 619 -427 945 -48 235 -48 219 -55 1349 -7 1159 -6
1140 -66 1414 -182 842 -719 1561 -1479 1979 -121 67 -310 151 -451 201 l-92
33 -4 201 c-4 166 -9 216 -27 282 -102 378 -422 634 -811 650 -58 2 -132 0
-165 -5z m250 -558 c37 -11 66 -31 111 -76 78 -78 95 -124 101 -274 l6 -112
-59 7 c-77 10 -506 10 -563 0 l-43 -8 4 123 c4 117 6 126 38 186 51 96 133
155 240 171 54 9 98 4 165 -17z m195 -1007 c520 -67 1009 -307 1386 -680 389
-385 622 -857 705 -1430 8 -54 14 -427 19 -1155 7 -1151 6 -1115 61 -1381 85
-416 278 -840 534 -1179 23 -30 45 -61 49 -67 6 -10 -611 -13 -3069 -13
l-3077 0 36 48 c67 87 204 296 257 392 205 373 330 809 358 1250 6 94 11 554
11 1073 0 568 4 944 11 1005 45 417 217 853 469 1187 475 630 1226 994 2000
969 80 -3 192 -11 250 -19z m537 -6512 c79 -250 49 -514 -84 -735 -56 -94
-171 -217 -258 -275 -368 -247 -850 -197 -1151 118 -228 240 -306 570 -208
879 l25 80 827 0 828 0 21 -67z" />
    </g>
</svg>