<svg width="56" height="57" viewBox="0 0 56 57" fill="none" xmlns="http://www.w3.org/2000/svg">
    <rect y="7" width="50" height="50" rx="8" fill="#F6F6F7" />
    <path fill-rule="evenodd" clip-rule="evenodd" d="M26 22H24V22.5759C23.8186 22.6043 23.6123 22.6433 23.3867 22.697C22.5882 22.8872 21.5234 23.267 20.456 24.0294C18.2532 25.6028 16.3442 28.5802 16.328 33.9311L16.3132 33.947C16.2672 33.9958 16.2183 34.0435 16.1399 34.12L16.1398 34.12L16.1397 34.1201L16.0892 34.1694C15.6317 34.6164 14.9728 35.2985 14.6083 36.6184C14.3038 37.7212 14.6724 38.7451 15.3252 39.4373C15.9572 40.1072 16.8718 40.5 17.8272 40.5H20.2953C20.5305 41.7801 21.652 42.75 23 42.75H26C27.348 42.75 28.4695 41.7801 28.7047 40.5H31.8285C32.784 40.5 33.6986 40.1072 34.3305 39.4373C34.9834 38.7451 35.3519 37.7212 35.0474 36.6184C34.6829 35.2985 34.024 34.6164 33.5666 34.1694L33.516 34.1201C33.4375 34.0435 33.3886 33.9958 33.3426 33.947L33.3278 33.9311C33.3115 28.5802 31.4026 25.6028 29.1997 24.0294C28.1324 23.267 27.0676 22.8872 26.2691 22.697C26.1759 22.6749 26.0861 22.6552 26 22.6378V22ZM24.8281 23H24.8276C24.8278 23.2211 24.8279 23.54 24.8279 24C24.8279 24 17.8279 24 17.8279 34C17.8279 34.5696 17.5393 34.8508 17.1813 35.1996C16.7943 35.5767 16.3262 36.0327 16.0542 37.0177C15.7603 38.0821 16.7229 39 17.8272 39H31.8285C32.9328 39 33.8955 38.0821 33.6015 37.0177C33.3295 36.0327 32.8615 35.5767 32.4745 35.1996C32.1165 34.8508 31.8279 34.5696 31.8279 34C31.8279 24 24.8279 24 24.8279 24C24.8279 23.54 24.828 23.2211 24.8281 23ZM21.854 40.5H27.146C26.9531 40.9415 26.5126 41.25 26 41.25H23C22.4874 41.25 22.0469 40.9415 21.854 40.5Z" fill="#282F38" />
    <rect x="32" width="24" height="24" rx="12" fill="#E9573F" />
    <path d="M43.5234 16H38.1387V14.7754C38.5254 14.4082 38.8906 14.0566 39.2344 13.7207C39.5781 13.3848 39.9141 13.0352 40.2422 12.6719C40.9062 11.9414 41.3594 11.3574 41.6016 10.9199C41.8438 10.4785 41.9648 10.0234 41.9648 9.55469C41.9648 9.3125 41.9258 9.09961 41.8477 8.91602C41.7734 8.73242 41.6699 8.58008 41.5371 8.45898C41.4004 8.3418 41.2422 8.25391 41.0625 8.19531C40.8828 8.13672 40.6855 8.10742 40.4707 8.10742C40.2637 8.10742 40.0527 8.13477 39.8379 8.18945C39.627 8.24023 39.4238 8.30469 39.2285 8.38281C39.0645 8.44922 38.9062 8.5293 38.7539 8.62305C38.6016 8.7168 38.4785 8.79688 38.3848 8.86328H38.3203V7.62109C38.5625 7.5 38.8984 7.38281 39.3281 7.26953C39.7617 7.15234 40.1719 7.09375 40.5586 7.09375C41.3711 7.09375 42.0078 7.31055 42.4688 7.74414C42.9297 8.17383 43.1602 8.75781 43.1602 9.49609C43.1602 9.83594 43.1191 10.1504 43.0371 10.4395C42.959 10.7285 42.8496 10.9961 42.709 11.2422C42.5645 11.4961 42.3906 11.748 42.1875 11.998C41.9844 12.248 41.7695 12.4941 41.543 12.7363C41.1758 13.1348 40.7656 13.5488 40.3125 13.9785C39.8633 14.4082 39.5039 14.748 39.2344 14.998H43.5234V16ZM47.0449 8.10742C46.834 8.10742 46.623 8.13281 46.4121 8.18359C46.2012 8.23438 45.9941 8.30078 45.791 8.38281C45.6035 8.46094 45.4395 8.54297 45.2988 8.62891C45.1621 8.71484 45.0391 8.79492 44.9297 8.86914H44.8594V7.63281C45.1133 7.49609 45.457 7.37305 45.8906 7.26367C46.3281 7.15039 46.7441 7.09375 47.1387 7.09375C47.5332 7.09375 47.877 7.13477 48.1699 7.2168C48.4668 7.29492 48.7344 7.41797 48.9727 7.58594C49.2305 7.77344 49.4238 8 49.5527 8.26562C49.6855 8.53125 49.752 8.8418 49.752 9.19727C49.752 9.67773 49.5938 10.0996 49.2773 10.4629C48.9609 10.8262 48.582 11.0566 48.1406 11.1543V11.2363C48.3242 11.2715 48.5195 11.332 48.7266 11.418C48.9375 11.5039 49.1328 11.6309 49.3125 11.7988C49.4922 11.9668 49.6387 12.1836 49.752 12.4492C49.8652 12.7109 49.9219 13.0312 49.9219 13.4102C49.9219 13.8047 49.8535 14.168 49.7168 14.5C49.584 14.8281 49.3945 15.1191 49.1484 15.373C48.8945 15.6387 48.5879 15.8398 48.2285 15.9766C47.8691 16.1133 47.4609 16.1816 47.0039 16.1816C46.5664 16.1816 46.1328 16.1289 45.7031 16.0234C45.2734 15.918 44.9121 15.791 44.6191 15.6426V14.4062H44.7012C44.9473 14.5859 45.2773 14.7578 45.6914 14.9219C46.1055 15.0859 46.5195 15.168 46.9336 15.168C47.1719 15.168 47.4102 15.1309 47.6484 15.0566C47.8906 14.9785 48.0918 14.8535 48.252 14.6816C48.4082 14.5098 48.5273 14.3203 48.6094 14.1133C48.6914 13.9062 48.7324 13.6445 48.7324 13.3281C48.7324 13.0117 48.6855 12.752 48.5918 12.5488C48.502 12.3457 48.375 12.1855 48.2109 12.0684C48.0469 11.9512 47.8516 11.8711 47.625 11.8281C47.4023 11.7812 47.1602 11.7578 46.8984 11.7578H46.4004V10.7852H46.7871C47.3145 10.7852 47.7422 10.6602 48.0703 10.4102C48.4023 10.1602 48.5684 9.79688 48.5684 9.32031C48.5684 9.10156 48.5254 8.91406 48.4395 8.75781C48.3535 8.59766 48.2441 8.4707 48.1113 8.37695C47.9629 8.27539 47.7988 8.20508 47.6191 8.16602C47.4395 8.12695 47.248 8.10742 47.0449 8.10742Z" fill="white" />
</svg>
    