<svg width="14" height="11" viewBox="0 0 14 11" fill="none" xmlns="http://www.w3.org/2000/svg">
<path d="M13.6223 2.28275C14.0202 1.89966 14.064 1.23866 13.7203 0.806358C13.3766 0.374059 12.7755 0.334164 12.3777 0.717252L13.6223 2.28275ZM4.06997 8.71725C3.67215 9.10034 3.62828 9.76134 3.97199 10.1936C4.3157 10.6259 4.91682 10.6658 5.31465 10.2827L4.06997 8.71725ZM12.3777 0.717252L4.06997 8.71725L5.31465 10.2827L13.6223 2.28275L12.3777 0.717252Z" fill="#147AD6"/>
<path d="M4.00442 10.2257C4.40524 10.6057 5.03818 10.5888 5.41813 10.188C5.79808 9.78714 5.78116 9.1542 5.38034 8.77425L4.00442 10.2257ZM1.68808 5.27425C1.28726 4.8943 0.654322 4.91122 0.274373 5.31204C-0.105577 5.71286 -0.0886571 6.3458 0.312163 6.72575L1.68808 5.27425ZM5.38034 8.77425L1.68808 5.27425L0.312163 6.72575L4.00442 10.2257L5.38034 8.77425Z" fill="#147AD6"/>
</svg>
