<svg width="22" height="23" viewBox="0 0 22 23" fill="none" xmlns="http://www.w3.org/2000/svg">
<path d="M14.8889 1.28418H15.6389C15.6389 0.869966 15.3031 0.53418 14.8889 0.53418V1.28418ZM13.9555 9.51416L13.4764 10.0912L13.4815 10.0954L13.9555 9.51416ZM11.3778 7.37421L10.8912 7.94497L10.8987 7.95127L11.3778 7.37421ZM10.6222 7.37421L11.1013 7.95132L11.1088 7.94492L10.6222 7.37421ZM8.04447 9.51416L8.51853 10.0954L8.52354 10.0912L8.04447 9.51416ZM7.11111 1.28418V0.53418C6.6969 0.53418 6.36111 0.869966 6.36111 1.28418L7.11111 1.28418ZM12.3889 12.5342C11.9747 12.5342 11.6389 12.87 11.6389 13.2842C11.6389 13.6984 11.9747 14.0342 12.3889 14.0342V12.5342ZM17.1111 14.0342C17.5253 14.0342 17.8611 13.6984 17.8611 13.2842C17.8611 12.87 17.5253 12.5342 17.1111 12.5342V14.0342ZM7.66667 16.5342C7.25245 16.5342 6.91667 16.87 6.91667 17.2842C6.91667 17.6984 7.25245 18.0342 7.66667 18.0342V16.5342ZM17.1111 18.0342C17.5253 18.0342 17.8611 17.6984 17.8611 17.2842C17.8611 16.87 17.5253 16.5342 17.1111 16.5342V18.0342ZM20.25 6.28418V16.2842H21.75V6.28418H20.25ZM20.25 16.2842C20.25 17.6489 19.8732 18.678 19.1586 19.3706C18.4408 20.0663 17.2674 20.5342 15.4444 20.5342V22.0342C17.5104 22.0342 19.1148 21.502 20.2025 20.4477C21.2934 19.3904 21.75 17.9194 21.75 16.2842H20.25ZM15.4444 20.5342H6.55556V22.0342H15.4444V20.5342ZM6.55556 20.5342C4.73258 20.5342 3.55921 20.0663 2.84142 19.3706C2.12676 18.678 1.75 17.6489 1.75 16.2842H0.25C0.25 17.9194 0.70657 19.3904 1.79746 20.4477C2.88523 21.502 4.48964 22.0342 6.55556 22.0342V20.5342ZM1.75 16.2842V6.28418H0.25V16.2842H1.75ZM1.75 6.28418C1.75 4.91941 2.12676 3.8904 2.84142 3.19773C3.55921 2.50203 4.73258 2.03418 6.55556 2.03418V0.53418C4.48964 0.53418 2.88523 1.06633 1.79746 2.12063C0.70657 3.17796 0.25 4.64895 0.25 6.28418H1.75ZM6.55556 2.03418H15.4444V0.53418H6.55556V2.03418ZM15.4444 2.03418C17.2674 2.03418 18.4408 2.50203 19.1586 3.19773C19.8732 3.8904 20.25 4.91941 20.25 6.28418H21.75C21.75 4.64895 21.2934 3.17796 20.2025 2.12063C19.1148 1.06633 17.5104 0.53418 15.4444 0.53418V2.03418ZM14.1389 1.28418V9.14417H15.6389V1.28418H14.1389ZM14.1389 9.14417C14.1389 9.08197 14.1617 9.01931 14.1977 8.9723C14.23 8.93013 14.2635 8.91179 14.2828 8.90427C14.3135 8.89226 14.3723 8.88623 14.4296 8.93296L13.4815 10.0954C13.8943 10.4321 14.4197 10.4611 14.8283 10.3016C15.2412 10.1403 15.6389 9.73632 15.6389 9.14417H14.1389ZM14.4346 8.9371L11.8569 6.79714L10.8987 7.95127L13.4765 10.0912L14.4346 8.9371ZM11.8644 6.80349C11.3729 6.38444 10.6271 6.38444 10.1356 6.80349L11.1088 7.94492C11.0658 7.98154 11.0247 7.98921 11 7.98921C10.9753 7.98921 10.9342 7.98154 10.8912 7.94492L11.8644 6.80349ZM10.1431 6.79714L7.56541 8.9371L8.52354 10.0912L11.1013 7.95127L10.1431 6.79714ZM7.57044 8.93296C7.62773 8.88623 7.68646 8.89226 7.71722 8.90427C7.73648 8.91179 7.77003 8.93013 7.80234 8.9723C7.83835 9.01931 7.86111 9.08197 7.86111 9.14417H6.36111C6.36111 9.73632 6.75877 10.1403 7.1717 10.3016C7.58025 10.4611 8.10566 10.4321 8.51851 10.0954L7.57044 8.93296ZM7.86111 9.14417V1.28418H6.36111V9.14417H7.86111ZM7.11111 2.03418H14.8889V0.53418H7.11111V2.03418ZM12.3889 14.0342H17.1111V12.5342H12.3889V14.0342ZM7.66667 18.0342H17.1111V16.5342H7.66667V18.0342Z" fill="#1E2D56"/>
</svg>
