<svg width="22" height="20" viewBox="0 0 22 20" fill="none" xmlns="http://www.w3.org/2000/svg">
<path d="M16 18.25H6V19.75H16V18.25ZM6 18.25C3.99464 18.25 3.04182 17.9812 2.53033 17.4697C2.01884 16.9582 1.75 16.0054 1.75 14H0.25C0.25 15.9946 0.481164 17.5418 1.46967 18.5303C2.45818 19.5188 4.00536 19.75 6 19.75V18.25ZM1.75 14V6H0.25V14H1.75ZM1.75 6C1.75 3.99464 2.01884 3.04182 2.53033 2.53033C3.04182 2.01884 3.99464 1.75 6 1.75V0.25C4.00536 0.25 2.45818 0.481164 1.46967 1.46967C0.481164 2.45818 0.25 4.00536 0.25 6H1.75ZM6 1.75H16V0.25H6V1.75ZM16 1.75C18.0054 1.75 18.9582 2.01884 19.4697 2.53033C19.9812 3.04182 20.25 3.99464 20.25 6H21.75C21.75 4.00536 21.5188 2.45818 20.5303 1.46967C19.5418 0.481164 17.9946 0.25 16 0.25V1.75ZM20.25 6V14H21.75V6H20.25ZM20.25 14C20.25 16.0054 19.9812 16.9582 19.4697 17.4697C18.9582 17.9812 18.0054 18.25 16 18.25V19.75C17.9946 19.75 19.5418 19.5188 20.5303 18.5303C21.5188 17.5418 21.75 15.9946 21.75 14H20.25Z" fill="white"/>
<path fill-rule="evenodd" clip-rule="evenodd" d="M8.03371 3.96665C7.85315 3.82622 7.60032 3.82622 7.41977 3.96665L4.05439 6.58417C3.88578 6.71531 3.8191 6.93907 3.88842 7.14111C3.95774 7.34315 4.14776 7.47885 4.36136 7.47885H5.73101V11.0921C5.73101 11.3682 5.95487 11.5921 6.23101 11.5921H9.22246C9.49843 11.5921 9.72221 11.3685 9.72246 11.0925L9.72575 7.47885H11.0921C11.3057 7.47885 11.4957 7.34315 11.5651 7.14111C11.6344 6.93907 11.5677 6.71531 11.3991 6.58417L8.03371 3.96665ZM6.23101 6.47885H5.81863L7.72674 4.99476L9.63485 6.47885H9.2262C8.95024 6.47885 8.72645 6.70243 8.7262 6.97839L8.72292 10.5921H6.73101V6.97885C6.73101 6.7027 6.50716 6.47885 6.23101 6.47885ZM18.4459 13.3162L15.0806 15.9337C14.9 16.0742 14.6472 16.0742 14.4666 15.9337L11.1012 13.3162C10.9326 13.1851 10.8659 12.9613 10.9353 12.7593C11.0046 12.5572 11.1946 12.4215 11.4082 12.4215H12.7779V8.8083C12.7779 8.53216 13.0017 8.3083 13.2779 8.3083H16.2693C16.5453 8.3083 16.7691 8.53189 16.7693 8.80785L16.7726 12.4215H18.139C18.3526 12.4215 18.5426 12.5572 18.6119 12.7593C18.6812 12.9613 18.6145 13.1851 18.4459 13.3162ZM13.2779 13.4215H12.8655L14.7736 14.9056L16.6817 13.4215H16.273C15.9971 13.4215 15.7733 13.198 15.773 12.922L15.7698 9.3083H13.7779V12.9215C13.7779 13.1977 13.554 13.4215 13.2779 13.4215Z" fill="white"/>
</svg>
