<?xml version="1.0" standalone="no"?>
<!DOCTYPE svg PUBLIC "-//W3C//DTD SVG 20010904//EN"
 "http://www.w3.org/TR/2001/REC-SVG-20010904/DTD/svg10.dtd">
<svg version="1.0" xmlns="http://www.w3.org/2000/svg"
 width="128.000000pt" height="128.000000pt" viewBox="0 0 128.000000 128.000000"
 preserveAspectRatio="xMidYMid meet">

<g transform="translate(0.000000,128.000000) scale(0.100000,-0.100000)"
fill="#000000" stroke="none">
<path d="M316 1254 c-9 -8 -16 -32 -16 -53 l0 -38 -78 -6 c-83 -5 -123 -20
-159 -59 -52 -55 -53 -66 -53 -510 0 -247 4 -428 10 -449 13 -47 86 -116 132
-124 18 -3 249 -5 514 -3 l480 3 36 24 c19 13 46 40 59 59 l24 36 3 425 c3
453 1 476 -44 531 -39 45 -78 61 -166 67 l-78 6 0 41 c0 47 -13 66 -45 66 -32
0 -45 -20 -45 -67 l0 -43 -250 0 -250 0 0 43 c0 63 -37 88 -74 51z m-16 -238
c6 -61 33 -85 67 -61 16 11 23 28 25 63 l3 47 245 0 245 0 3 -47 c2 -35 9 -52
25 -63 34 -24 61 0 67 61 4 42 8 49 29 52 51 8 114 -9 143 -38 28 -28 28 -29
28 -159 l0 -131 -541 0 -541 0 4 134 c3 115 6 137 22 155 25 27 69 40 126 38
l45 -2 5 -49z m878 -601 c2 -157 -1 -239 -9 -258 -24 -57 -26 -57 -528 -57
-335 0 -467 3 -486 12 -51 23 -55 47 -55 296 0 126 3 232 7 235 3 4 245 6 537
5 l531 -3 3 -230z"/>
</g>
</svg>
