<svg width="15" height="21" viewBox="0 0 15 21" fill="none" xmlns="http://www.w3.org/2000/svg">
<path d="M14 10.65V14.35C14 17.47 11.09 20 7.5 20C3.91 20 1 17.47 1 14.35V10.65M14 10.65C14 13.77 11.09 16 7.5 16C3.91 16 1 13.77 1 10.65M14 10.65V6.65M1 10.65V6.65M14 6.65C14 7.56 13.75 8.4 13.31 9.12C12.24 10.88 10.04 12 7.5 12C4.96 12 2.76 10.88 1.69 9.12C1.25 8.4 1 7.56 1 6.65M14 6.65C14 5.09 13.27 3.68 12.1 2.65C10.92 1.63 9.3 1 7.5 1M1 6.65C1 5.09 1.72999 3.68 2.89999 2.66C4.07999 1.63 5.7 1 7.5 1M1 6.65C1 3.53 3.91 1 7.5 1" stroke="white" stroke-width="1.5" stroke-linecap="round" stroke-linejoin="round"/>
</svg>
