<svg width="22" height="22" viewBox="0 0 22 22" fill="none" xmlns="http://www.w3.org/2000/svg">
<path d="M16 9.75H18V8.25H16V9.75ZM18 9.75C19.1156 9.75 20.0901 9.47059 20.7803 8.78033C21.4706 8.09007 21.75 7.11561 21.75 6H20.25C20.25 6.88439 20.0294 7.40993 19.7197 7.71967C19.4099 8.02941 18.8844 8.25 18 8.25V9.75ZM21.75 6V4H20.25V6H21.75ZM21.75 4C21.75 2.88439 21.4706 1.90993 20.7803 1.21967C20.0901 0.52941 19.1156 0.25 18 0.25V1.75C18.8844 1.75 19.4099 1.97059 19.7197 2.28033C20.0294 2.59007 20.25 3.11561 20.25 4H21.75ZM18 0.25H16V1.75H18V0.25ZM16 0.25C14.8844 0.25 13.9099 0.52941 13.2197 1.21967C12.5294 1.90993 12.25 2.88439 12.25 4H13.75C13.75 3.11561 13.9706 2.59007 14.2803 2.28033C14.5901 1.97059 15.1156 1.75 16 1.75V0.25ZM12.25 4V6H13.75V4H12.25ZM12.25 6C12.25 7.11561 12.5294 8.09007 13.2197 8.78033C13.9099 9.47059 14.8844 9.75 16 9.75V8.25C15.1156 8.25 14.5901 8.02941 14.2803 7.71967C13.9706 7.40993 13.75 6.88439 13.75 6H12.25ZM4 21.75H6V20.25H4V21.75ZM6 21.75C7.11561 21.75 8.09007 21.4706 8.78033 20.7803C9.47059 20.0901 9.75 19.1156 9.75 18H8.25C8.25 18.8844 8.02941 19.4099 7.71967 19.7197C7.40993 20.0294 6.88439 20.25 6 20.25V21.75ZM9.75 18V16H8.25V18H9.75ZM9.75 16C9.75 14.8844 9.47059 13.9099 8.78033 13.2197C8.09007 12.5294 7.11561 12.25 6 12.25V13.75C6.88439 13.75 7.40993 13.9706 7.71967 14.2803C8.02941 14.5901 8.25 15.1156 8.25 16H9.75ZM6 12.25H4V13.75H6V12.25ZM4 12.25C2.88439 12.25 1.90993 12.5294 1.21967 13.2197C0.52941 13.9099 0.25 14.8844 0.25 16H1.75C1.75 15.1156 1.97059 14.5901 2.28033 14.2803C2.59007 13.9706 3.11561 13.75 4 13.75V12.25ZM0.25 16V18H1.75V16H0.25ZM0.25 18C0.25 19.1156 0.52941 20.0901 1.21967 20.7803C1.90993 21.4706 2.88439 21.75 4 21.75V20.25C3.11561 20.25 2.59007 20.0294 2.28033 19.7197C1.97059 19.4099 1.75 18.8844 1.75 18H0.25ZM8.25 5C8.25 6.79493 6.79493 8.25 5 8.25V9.75C7.62335 9.75 9.75 7.62335 9.75 5H8.25ZM5 8.25C3.20507 8.25 1.75 6.79493 1.75 5H0.25C0.25 7.62335 2.37665 9.75 5 9.75V8.25ZM1.75 5C1.75 3.20507 3.20507 1.75 5 1.75V0.25C2.37665 0.25 0.25 2.37665 0.25 5H1.75ZM5 1.75C6.79493 1.75 8.25 3.20507 8.25 5H9.75C9.75 2.37665 7.62335 0.25 5 0.25V1.75ZM20.25 17C20.25 18.7949 18.7949 20.25 17 20.25V21.75C19.6234 21.75 21.75 19.6234 21.75 17H20.25ZM17 20.25C15.2051 20.25 13.75 18.7949 13.75 17H12.25C12.25 19.6234 14.3766 21.75 17 21.75V20.25ZM13.75 17C13.75 15.2051 15.2051 13.75 17 13.75V12.25C14.3766 12.25 12.25 14.3766 12.25 17H13.75ZM17 13.75C18.7949 13.75 20.25 15.2051 20.25 17H21.75C21.75 14.3766 19.6234 12.25 17 12.25V13.75Z" fill="#282F38"/>
</svg>
