<svg width="20" height="20" viewBox="0 0 20 20" fill="none" xmlns="http://www.w3.org/2000/svg">
<path d="M14.5 11.26V13.96C14.5 17.56 13.06 19 9.46 19H6.04C2.44 19 1 17.56 1 13.96V10.54C1 6.94 2.44 5.5 6.04 5.5H8.74" stroke="#282F38" stroke-width="1.5" stroke-linecap="round" stroke-linejoin="round"/>
<path d="M14.5015 11.26H11.6215C9.46145 11.26 8.74146 10.54 8.74146 8.38V5.5L14.5015 11.26Z" stroke="#282F38" stroke-width="1.5" stroke-linecap="round" stroke-linejoin="round"/>
<path d="M9.64136 1H13.2414" stroke="#282F38" stroke-width="1.5" stroke-linecap="round" stroke-linejoin="round"/>
<path d="M5.5 3.7C5.5 2.206 6.706 1 8.2 1H10.558" stroke="#282F38" stroke-width="1.5" stroke-linecap="round" stroke-linejoin="round"/>
<path d="M18.9977 6.3999V11.9709C18.9977 13.3659 17.8638 14.4999 16.4688 14.4999" stroke="#282F38" stroke-width="1.5" stroke-linecap="round" stroke-linejoin="round"/>
<path d="M19 6.4H16.3C14.275 6.4 13.6 5.725 13.6 3.7V1L19 6.4Z" stroke="#282F38" stroke-width="1.5" stroke-linecap="round" stroke-linejoin="round"/>
</svg>
