<svg width="22" height="23" viewBox="0 0 22 23" fill="none" xmlns="http://www.w3.org/2000/svg">
<path d="M0.25 8.71362C0.25 9.12784 0.585786 9.46362 1 9.46362C1.41421 9.46362 1.75 9.12784 1.75 8.71362H0.25ZM8 2.46362C8.41421 2.46362 8.75 2.12784 8.75 1.71362C8.75 1.29941 8.41421 0.963623 8 0.963623V2.46362ZM14 0.963623C13.5858 0.963623 13.25 1.29941 13.25 1.71362C13.25 2.12784 13.5858 2.46362 14 2.46362V0.963623ZM20.25 8.71362C20.25 9.12784 20.5858 9.46362 21 9.46362C21.4142 9.46362 21.75 9.12784 21.75 8.71362H20.25ZM21.75 15.7136C21.75 15.2994 21.4142 14.9636 21 14.9636C20.5858 14.9636 20.25 15.2994 20.25 15.7136H21.75ZM15 20.9636C14.5858 20.9636 14.25 21.2994 14.25 21.7136C14.25 22.1278 14.5858 22.4636 15 22.4636V20.9636ZM8 22.4636C8.41421 22.4636 8.75 22.1278 8.75 21.7136C8.75 21.2994 8.41421 20.9636 8 20.9636V22.4636ZM1.75 14.7136C1.75 14.2994 1.41421 13.9636 1 13.9636C0.585786 13.9636 0.25 14.2994 0.25 14.7136H1.75ZM1.75 8.71362V6.21362H0.25V8.71362H1.75ZM1.75 6.21362C1.75 4.13784 3.42421 2.46362 5.5 2.46362V0.963623C2.59579 0.963623 0.25 3.30941 0.25 6.21362H1.75ZM5.5 2.46362H8V0.963623H5.5V2.46362ZM14 2.46362H16.5V0.963623H14V2.46362ZM16.5 2.46362C18.5758 2.46362 20.25 4.13784 20.25 6.21362H21.75C21.75 3.30941 19.4042 0.963623 16.5 0.963623V2.46362ZM20.25 6.21362V8.71362H21.75V6.21362H20.25ZM20.25 15.7136V17.2136H21.75V15.7136H20.25ZM20.25 17.2136C20.25 19.2894 18.5758 20.9636 16.5 20.9636V22.4636C19.4042 22.4636 21.75 20.1178 21.75 17.2136H20.25ZM16.5 20.9636H15V22.4636H16.5V20.9636ZM8 20.9636H5.5V22.4636H8V20.9636ZM5.5 20.9636C3.42421 20.9636 1.75 19.2894 1.75 17.2136H0.25C0.25 20.1178 2.59579 22.4636 5.5 22.4636V20.9636ZM1.75 17.2136V14.7136H0.25V17.2136H1.75ZM8.75 6.71362V8.71362H10.25V6.71362H8.75ZM8.75 8.71362C8.75 9.09801 8.65441 9.24855 8.59467 9.30829C8.53493 9.36803 8.38439 9.46362 8 9.46362V10.9636C8.61561 10.9636 9.21507 10.8092 9.65533 10.369C10.0956 9.92869 10.25 9.32923 10.25 8.71362H8.75ZM8 9.46362H6V10.9636H8V9.46362ZM6 9.46362C5.61561 9.46362 5.46507 9.36803 5.40533 9.30829C5.34559 9.24855 5.25 9.09801 5.25 8.71362H3.75C3.75 9.32923 3.90441 9.92869 4.34467 10.369C4.78493 10.8092 5.38439 10.9636 6 10.9636V9.46362ZM5.25 8.71362V6.71362H3.75V8.71362H5.25ZM5.25 6.71362C5.25 6.32923 5.34559 6.17869 5.40533 6.11895C5.46507 6.05921 5.61561 5.96362 6 5.96362V4.46362C5.38439 4.46362 4.78493 4.61803 4.34467 5.05829C3.90441 5.49855 3.75 6.09801 3.75 6.71362H5.25ZM6 5.96362H8V4.46362H6V5.96362ZM8 5.96362C8.38439 5.96362 8.53493 6.05921 8.59467 6.11895C8.65441 6.17869 8.75 6.32923 8.75 6.71362H10.25C10.25 6.09801 10.0956 5.49855 9.65533 5.05829C9.21507 4.61803 8.61561 4.46362 8 4.46362V5.96362ZM16.75 6.71362V8.71362H18.25V6.71362H16.75ZM16.75 8.71362C16.75 9.09801 16.6544 9.24855 16.5947 9.30829C16.5349 9.36803 16.3844 9.46362 16 9.46362V10.9636C16.6156 10.9636 17.2151 10.8092 17.6553 10.369C18.0956 9.92869 18.25 9.32923 18.25 8.71362H16.75ZM16 9.46362H14V10.9636H16V9.46362ZM14 9.46362C13.6156 9.46362 13.4651 9.36803 13.4053 9.30829C13.3456 9.24855 13.25 9.09801 13.25 8.71362H11.75C11.75 9.32923 11.9044 9.92869 12.3447 10.369C12.7849 10.8092 13.3844 10.9636 14 10.9636V9.46362ZM13.25 8.71362V6.71362H11.75V8.71362H13.25ZM13.25 6.71362C13.25 6.32923 13.3456 6.17869 13.4053 6.11895C13.4651 6.05921 13.6156 5.96362 14 5.96362V4.46362C13.3844 4.46362 12.7849 4.61803 12.3447 5.05829C11.9044 5.49855 11.75 6.09801 11.75 6.71362H13.25ZM14 5.96362H16V4.46362H14V5.96362ZM16 5.96362C16.3844 5.96362 16.5349 6.05921 16.5947 6.11895C16.6544 6.17869 16.75 6.32923 16.75 6.71362H18.25C18.25 6.09801 18.0956 5.49855 17.6553 5.05829C17.2151 4.61803 16.6156 4.46362 16 4.46362V5.96362ZM8.75 14.7136V16.7136H10.25V14.7136H8.75ZM8.75 16.7136C8.75 17.098 8.65441 17.2486 8.59467 17.3083C8.53493 17.368 8.38439 17.4636 8 17.4636V18.9636C8.61561 18.9636 9.21507 18.8092 9.65533 18.369C10.0956 17.9287 10.25 17.3292 10.25 16.7136H8.75ZM8 17.4636H6V18.9636H8V17.4636ZM6 17.4636C5.61561 17.4636 5.46507 17.368 5.40533 17.3083C5.34559 17.2486 5.25 17.098 5.25 16.7136H3.75C3.75 17.3292 3.90441 17.9287 4.34467 18.369C4.78493 18.8092 5.38439 18.9636 6 18.9636V17.4636ZM5.25 16.7136V14.7136H3.75V16.7136H5.25ZM5.25 14.7136C5.25 14.3292 5.34559 14.1787 5.40533 14.119C5.46507 14.0592 5.61561 13.9636 6 13.9636V12.4636C5.38439 12.4636 4.78493 12.618 4.34467 13.0583C3.90441 13.4986 3.75 14.098 3.75 14.7136H5.25ZM6 13.9636H8V12.4636H6V13.9636ZM8 13.9636C8.38439 13.9636 8.53493 14.0592 8.59467 14.119C8.65441 14.1787 8.75 14.3292 8.75 14.7136H10.25C10.25 14.098 10.0956 13.4986 9.65533 13.0583C9.21507 12.618 8.61561 12.4636 8 12.4636V13.9636ZM16.75 14.7136V16.7136H18.25V14.7136H16.75ZM16.75 16.7136C16.75 17.098 16.6544 17.2486 16.5947 17.3083C16.5349 17.368 16.3844 17.4636 16 17.4636V18.9636C16.6156 18.9636 17.2151 18.8092 17.6553 18.369C18.0956 17.9287 18.25 17.3292 18.25 16.7136H16.75ZM16 17.4636H14V18.9636H16V17.4636ZM14 17.4636C13.6156 17.4636 13.4651 17.368 13.4053 17.3083C13.3456 17.2486 13.25 17.098 13.25 16.7136H11.75C11.75 17.3292 11.9044 17.9287 12.3447 18.369C12.7849 18.8092 13.3844 18.9636 14 18.9636V17.4636ZM13.25 16.7136V14.7136H11.75V16.7136H13.25ZM13.25 14.7136C13.25 14.3292 13.3456 14.1787 13.4053 14.119C13.4651 14.0592 13.6156 13.9636 14 13.9636V12.4636C13.3844 12.4636 12.7849 12.618 12.3447 13.0583C11.9044 13.4986 11.75 14.098 11.75 14.7136H13.25ZM14 13.9636H16V12.4636H14V13.9636ZM16 13.9636C16.3844 13.9636 16.5349 14.0592 16.5947 14.119C16.6544 14.1787 16.75 14.3292 16.75 14.7136H18.25C18.25 14.098 18.0956 13.4986 17.6553 13.0583C17.2151 12.618 16.6156 12.4636 16 12.4636V13.9636Z" fill="#1E2D56"/>
</svg>
