<svg version="1.0" xmlns="http://www.w3.org/2000/svg"
    width="900.000000pt" height="900.000000pt" viewBox="0 0 900.000000 900.000000"
    preserveAspectRatio="xMidYMid meet">

    <g transform="translate(0.000000,900.000000) scale(0.100000,-0.100000)"
        fill="#000000" stroke="none">
        <path d="M4420 8978 c-37 -19 -82 -69 -245 -273 -185 -232 -435 -545 -2060
-2579 -329 -412 -611 -768 -627 -790 -60 -86 -42 -191 45 -260 l39 -31 2927 0
2928 0 37 29 c70 53 98 129 75 204 -6 22 -49 87 -98 149 -79 99 -506 636
-1586 1989 -220 276 -581 728 -802 1005 -221 277 -412 514 -425 526 -31 29
-90 53 -131 53 -18 0 -53 -10 -77 -22z" />
        <path d="M1565 3946 c-40 -17 -90 -75 -105 -121 -17 -50 -5 -115 29 -162 15
-21 342 -432 726 -913 384 -481 872 -1093 1084 -1359 1063 -1333 1073 -1345
1121 -1368 56 -29 104 -29 160 0 48 23 62 41 1141 1393 223 280 648 813 944
1184 296 371 608 762 693 869 85 106 163 214 174 238 34 78 9 161 -68 219
l-37 29 -2916 2 c-2395 2 -2921 0 -2946 -11z" />
    </g>
</svg>