<svg width="22" height="23" viewBox="0 0 22 23" fill="none" xmlns="http://www.w3.org/2000/svg">
<path d="M19.75 9.71533C19.75 9.30112 19.4142 8.96533 19 8.96533C18.5858 8.96533 18.25 9.30112 18.25 9.71533H19.75ZM14 2.46533C14.4142 2.46533 14.75 2.12955 14.75 1.71533C14.75 1.30112 14.4142 0.965332 14 0.965332V2.46533ZM18.14 2.30076L18.6704 2.83105L18.6704 2.83105L18.14 2.30076ZM14.5116 5.92968L13.9812 5.39939L14.5116 5.92968ZM14.2077 6.53757L14.9502 6.64362L14.9505 6.64121L14.2077 6.53757ZM14.0097 7.92375L14.7517 8.03266L14.7522 8.0298L14.0097 7.92375ZM14.7925 8.70664L14.8947 9.44964L14.8986 9.4491L14.7925 8.70664ZM16.1784 8.50861L16.0724 7.76615L16.1784 8.50861ZM16.7863 8.20467L17.3079 8.74365L17.3166 8.73496L16.7863 8.20467ZM20.4147 4.57575L20.945 5.10604L20.4147 4.57575ZM18.3418 2.61873C18.2301 2.21989 17.8161 1.98719 17.4173 2.09899C17.0184 2.21078 16.7857 2.62473 16.8975 3.02357L18.3418 2.61873ZM19.6899 5.81772C20.0884 5.93065 20.503 5.69914 20.6159 5.30062C20.7289 4.90209 20.4973 4.48748 20.0988 4.37455L19.6899 5.81772ZM6 11.9653C5.58579 11.9653 5.25 12.3011 5.25 12.7153C5.25 13.1295 5.58579 13.4653 6 13.4653V11.9653ZM10 13.4653C10.4142 13.4653 10.75 13.1295 10.75 12.7153C10.75 12.3011 10.4142 11.9653 10 11.9653V13.4653ZM6 15.9653C5.58579 15.9653 5.25 16.3011 5.25 16.7153C5.25 17.1295 5.58579 17.4653 6 17.4653V15.9653ZM14 17.4653C14.4142 17.4653 14.75 17.1295 14.75 16.7153C14.75 16.3011 14.4142 15.9653 14 15.9653V17.4653ZM18.25 9.71533V16.7153H19.75V9.71533H18.25ZM18.25 16.7153C18.25 18.1004 17.9036 19.14 17.2629 19.83C16.6315 20.5099 15.607 20.9653 14 20.9653V22.4653C15.893 22.4653 17.3685 21.9207 18.3621 20.8507C19.3464 19.7907 19.75 18.3303 19.75 16.7153H18.25ZM14 20.9653H6V22.4653H14V20.9653ZM6 20.9653C4.39295 20.9653 3.36848 20.5099 2.7371 19.83C2.09637 19.14 1.75 18.1004 1.75 16.7153H0.25C0.25 18.3303 0.653634 19.7907 1.6379 20.8507C2.63152 21.9207 4.10705 22.4653 6 22.4653V20.9653ZM1.75 16.7153V6.71533H0.25V16.7153H1.75ZM1.75 6.71533C1.75 5.3303 2.09637 4.29069 2.7371 3.60067C3.36848 2.92072 4.39295 2.46533 6 2.46533V0.965332C4.10705 0.965332 2.63152 1.50995 1.6379 2.57999C0.653634 3.63998 0.25 5.10036 0.25 6.71533H1.75ZM6 2.46533H14V0.965332H6V2.46533ZM17.6096 1.77047L13.9812 5.39939L15.042 6.45998L18.6704 2.83105L17.6096 1.77047ZM13.9812 5.39939C13.8385 5.54216 13.7266 5.71822 13.6481 5.8744C13.5697 6.03038 13.4936 6.22829 13.4649 6.43394L14.9505 6.64121C14.9493 6.65005 14.9494 6.64346 14.957 6.62141C14.964 6.60084 14.9746 6.57532 14.9883 6.54795C15.0021 6.52061 15.0164 6.49664 15.0289 6.47834C15.0423 6.45871 15.0479 6.45408 15.042 6.45997L13.9812 5.39939ZM13.4652 6.43152L13.2672 7.8177L14.7522 8.0298L14.9502 6.64362L13.4652 6.43152ZM13.2676 7.81484C13.2012 8.26769 13.323 8.72906 13.656 9.0607C13.9875 9.39096 14.4467 9.5113 14.8947 9.44963L14.6902 7.96364C14.6615 7.96759 14.6547 7.96299 14.6645 7.96595C14.6749 7.9691 14.6947 7.9782 14.7145 7.99797C14.7345 8.01785 14.7447 8.03875 14.7487 8.05189C14.7524 8.06431 14.7477 8.05989 14.7517 8.03266L13.2676 7.81484ZM14.8986 9.4491L16.2845 9.25107L16.0724 7.76615L14.6864 7.96418L14.8986 9.4491ZM16.2845 9.25107C16.4883 9.22196 16.6847 9.14537 16.8382 9.06818C16.9934 8.99016 17.1663 8.8806 17.3079 8.74358L16.2646 7.66575C16.2674 7.66309 16.2598 7.67065 16.2384 7.68511C16.2182 7.69876 16.1927 7.7138 16.1645 7.72799C16.1362 7.74222 16.1102 7.75302 16.0897 7.76013C16.0675 7.76781 16.0618 7.76766 16.0724 7.76615L16.2845 9.25107ZM17.3166 8.73496L20.945 5.10604L19.8843 4.04545L16.2559 7.67437L17.3166 8.73496ZM20.945 5.10604C21.3011 4.74994 21.679 4.25634 21.7412 3.62204C21.8074 2.94841 21.5019 2.32744 20.945 1.77047L19.8843 2.83105C20.2483 3.19513 20.256 3.3985 20.2484 3.47552C20.237 3.59187 20.1545 3.77524 19.8843 4.04545L20.945 5.10604ZM20.945 1.77047C20.3881 1.21352 19.7672 0.907955 19.0935 0.974092C18.4592 1.03636 17.9657 1.41439 17.6096 1.77047L18.6704 2.83105C18.9406 2.56082 19.1239 2.47833 19.2401 2.46692C19.317 2.45937 19.5202 2.46696 19.8843 2.83105L20.945 1.77047ZM16.8975 3.02357C17.2769 4.37707 18.3351 5.43382 19.6899 5.81772L20.0988 4.37455C19.2434 4.13214 18.5795 3.46653 18.3418 2.61873L16.8975 3.02357ZM6 13.4653H10V11.9653H6V13.4653ZM6 17.4653H14V15.9653H6V17.4653Z" fill="#1E2D56"/>
</svg>
