<svg width="20" height="20" viewBox="0 0 20 20" fill="none" xmlns="http://www.w3.org/2000/svg">
<path d="M12.6423 20H7.12564C2.13309 20 0 17.8669 0 12.8744V7.35774C0 2.3652 2.13309 0.232104 7.12564 0.232104H8.96451C9.34148 0.232104 9.65409 0.544713 9.65409 0.921682C9.65409 1.29865 9.34148 1.61126 8.96451 1.61126H7.12564C2.88703 1.61126 1.37916 3.11914 1.37916 7.35774V12.8744C1.37916 17.113 2.88703 18.6208 7.12564 18.6208H12.6423C16.8809 18.6208 18.3887 17.113 18.3887 12.8744V11.0355C18.3887 10.6585 18.7013 10.3459 19.0783 10.3459C19.4553 10.3459 19.7679 10.6585 19.7679 11.0355V12.8744C19.7679 17.8669 17.6348 20 12.6423 20Z" fill="#147AD6"/>
<path d="M6.66532 15.3477C6.10446 15.3477 5.58958 15.1454 5.21261 14.7777C4.76208 14.3271 4.569 13.6743 4.67014 12.9847L5.0655 10.2172C5.13905 9.68397 5.48844 8.99439 5.86541 8.61742L13.1106 1.37226C14.9403 -0.45742 16.7975 -0.45742 18.6272 1.37226C19.6294 2.37445 20.0799 3.39502 19.988 4.4156C19.9052 5.24309 19.4639 6.05219 18.6272 6.87969L11.382 14.1249C11.0051 14.5018 10.3155 14.8512 9.78221 14.9248L7.0147 15.3201C6.89518 15.3477 6.77565 15.3477 6.66532 15.3477ZM14.0852 2.34686L6.84001 9.59203C6.66532 9.76672 6.46304 10.1713 6.42626 10.4103L6.03091 13.1778C5.99413 13.4445 6.0493 13.6651 6.18721 13.803C6.32513 13.941 6.54579 13.9961 6.81243 13.9594L9.57993 13.564C9.81899 13.5272 10.2327 13.3249 10.3982 13.1502L17.6434 5.90508C18.241 5.30745 18.5536 4.77418 18.5996 4.27768C18.6548 3.68005 18.3422 3.04564 17.6434 2.33767C16.1723 0.866569 15.1609 1.28032 14.0852 2.34686Z" fill="#147AD6"/>
<path d="M17.1011 8.12067C17.0368 8.12067 16.9724 8.11148 16.9172 8.09309C14.4991 7.41271 12.5775 5.49108 11.8971 3.07296C11.796 2.70519 12.0074 2.32822 12.3752 2.21789C12.743 2.11675 13.12 2.32822 13.2211 2.696C13.7728 4.6544 15.3266 6.20825 17.285 6.75991C17.6528 6.86105 17.8643 7.24721 17.7631 7.61498C17.6804 7.92759 17.4045 8.12067 17.1011 8.12067Z" fill="#147AD6"/>
</svg>
