<svg width="20" height="20" viewBox="0 0 20 20" fill="none" xmlns="http://www.w3.org/2000/svg">
<path d="M5.90424 14.2929C5.85676 13.7427 6.26433 13.2581 6.81457 13.2106C7.36481 13.1632 7.84936 13.5707 7.89684 14.121L5.90424 14.2929ZM7.90568 5.81045C7.85431 6.36034 7.36689 6.76447 6.817 6.7131C6.26711 6.66173 5.86298 6.17432 5.91435 5.62442L7.90568 5.81045ZM13.4227 10L14.0687 9.23668C14.2932 9.42668 14.4227 9.70588 14.4227 10C14.4227 10.2941 14.2932 10.5733 14.0687 10.7633L13.4227 10ZM1.89926 11.0095C1.34697 11.0099 0.898892 10.5626 0.898439 10.0103C0.897986 9.45799 1.34533 9.00991 1.89762 9.00945L1.89926 11.0095ZM10.3266 13.9303C9.905 14.2871 9.27401 14.2346 8.91723 13.813C8.56044 13.3915 8.61296 12.7605 9.03454 12.4037L10.3266 13.9303ZM9.03453 7.59631C8.61296 7.23952 8.56044 6.60854 8.91723 6.18697C9.27401 5.76539 9.905 5.71287 10.3266 6.06966L9.03453 7.59631ZM7.89684 14.121C8.03075 15.6728 8.47804 16.5644 9.14272 17.1026C9.83544 17.6635 10.9565 18 12.7837 18L12.7837 20C10.7741 20 9.10038 19.6417 7.88415 18.6569C6.63989 17.6494 6.06402 16.1444 5.90424 14.2929L7.89684 14.121ZM12.7837 18L12.9069 18L12.9069 20L12.7837 20L12.7837 18ZM12.9069 18C14.9258 18 16.0797 17.5905 16.7538 16.9178C17.4273 16.2457 17.8374 15.0955 17.8374 13.0819L19.8374 13.0819C19.8374 15.2942 19.3995 17.1031 18.1665 18.3335C16.934 19.5634 15.1227 20 12.9069 20L12.9069 18ZM17.8374 13.0819L17.8374 6.91807L19.8374 6.91807L19.8374 13.0819L17.8374 13.0819ZM17.8374 6.91807C17.8374 4.9045 17.4273 3.75434 16.7538 3.0822C16.0797 2.40953 14.9258 2 12.9069 2L12.9069 9.62387e-07C15.1227 1.1561e-06 16.934 0.436584 18.1665 1.66649C19.3995 2.89692 19.8374 4.7058 19.8374 6.91807L17.8374 6.91807ZM12.9069 2L12.7837 2L12.7837 9.5162e-07L12.9069 9.62387e-07L12.9069 2ZM12.7837 2C10.9704 2 9.85298 2.33188 9.15983 2.88524C8.496 3.41518 8.04769 4.2903 7.90568 5.81045L5.91435 5.62442C6.08498 3.79793 6.66929 2.31433 7.91204 1.32222C9.12547 0.35352 10.7885 7.77198e-07 12.7837 9.5162e-07L12.7837 2ZM13.4235 11L1.89926 11.0095L1.89762 9.00945L13.4218 9L13.4235 11ZM9.03454 12.4037L12.7766 9.23668L14.0687 10.7633L10.3266 13.9303L9.03454 12.4037ZM12.7766 10.7633L9.03453 7.59631L10.3266 6.06966L14.0687 9.23668L12.7766 10.7633Z" fill="white"/>
</svg>
