<svg width="20" height="22" viewBox="0 0 20 22" fill="none" xmlns="http://www.w3.org/2000/svg">
<path d="M3.33228 1H16.6677C17.7789 1 18.6882 1.90923 18.6882 3.02051V5.24308C18.6882 6.05128 18.183 7.06154 17.6779 7.56667L13.3338 11.4056C12.7277 11.9108 12.3236 12.921 12.3236 13.7292V18.0733C12.3236 18.6795 11.9195 19.4877 11.4143 19.7908L9.99997 20.7C8.68664 21.5082 6.86818 20.599 6.86818 18.9826V13.6282C6.86818 12.921 6.46407 12.0118 6.05997 11.5067L2.221 7.46564C1.71587 6.96051 1.31177 6.05128 1.31177 5.44513V3.12154C1.31177 1.90923 2.221 1 3.33228 1Z" stroke="white" stroke-width="1.5" stroke-linecap="round" stroke-linejoin="round"/>
</svg>
