<svg width="22" height="22" viewBox="0 0 22 22" fill="none" xmlns="http://www.w3.org/2000/svg">
<path d="M20.9823 13.1451L20.2368 13.0628L20.2357 13.0731L20.2348 13.0835L20.9823 13.1451ZM20.5693 18.1526L21.3156 18.2281L21.3168 18.2143L20.5693 18.1526ZM1.42778 18.1526L0.68019 18.2143L0.681581 18.228L1.42778 18.1526ZM1.0148 13.1451L1.76237 13.0835L1.76113 13.071L1.0148 13.1451ZM1.68589 10.9518L1.16369 10.4135L1.13322 10.443L1.10629 10.4758L1.68589 10.9518ZM1.70654 10.9318L2.22874 11.4701L2.25522 11.4445L2.27905 11.4163L1.70654 10.9318ZM20.2699 10.9118L19.7003 11.3996L19.7228 11.426L19.7477 11.4501L20.2699 10.9118ZM20.2905 10.9418H19.5405V11.219L19.7208 11.4296L20.2905 10.9418ZM1.47276 10.2708C1.47276 10.685 1.80855 11.0208 2.22276 11.0208C2.63698 11.0208 2.97276 10.685 2.97276 10.2708H1.47276ZM10.028 1.87822L10.6223 1.4206L10.6214 1.41947L10.028 1.87822ZM11.3392 3.58078L10.745 4.03842L10.7494 4.04404L11.3392 3.58078ZM19.014 10.3109C19.014 10.7251 19.3498 11.0609 19.764 11.0609C20.1782 11.0609 20.514 10.7251 20.514 10.3109H19.014ZM8.34516 15.0992C7.93095 15.0992 7.59516 15.435 7.59516 15.8492C7.59516 16.2634 7.93095 16.5992 8.34516 16.5992V15.0992ZM13.6519 16.5992C14.0661 16.5992 14.4019 16.2634 14.4019 15.8492C14.4019 15.435 14.0661 15.0992 13.6519 15.0992V16.5992ZM20.2348 13.0835L19.8218 18.091L21.3168 18.2143L21.7297 13.2068L20.2348 13.0835ZM19.8231 18.0772C19.739 18.9094 19.6705 19.3272 19.4438 19.6017C19.2613 19.8227 18.8212 20.1067 17.4926 20.1067V21.6067C18.962 21.6067 19.9828 21.3048 20.6004 20.5568C21.1739 19.8624 21.2447 18.9281 21.3155 18.228L19.8231 18.0772ZM17.4926 20.1067H4.50447V21.6067H17.4926V20.1067ZM4.50447 20.1067C3.17588 20.1067 2.7358 19.8227 2.55328 19.6017C2.32661 19.3272 2.25809 18.9094 2.17398 18.0772L0.681581 18.228C0.752339 18.9281 0.823198 19.8624 1.39667 20.5568C2.0143 21.3048 3.03512 21.6067 4.50447 21.6067V20.1067ZM2.17524 18.091L1.76226 13.0835L0.26734 13.2068L0.680318 18.2143L2.17524 18.091ZM1.76113 13.071C1.69956 12.4514 1.89785 11.8755 2.26549 11.4278L1.10629 10.4758C0.503437 11.2099 0.164849 12.1764 0.268477 13.2193L1.76113 13.071ZM2.20809 11.4902C2.21325 11.4852 2.21583 11.4827 2.2184 11.4802C2.22099 11.4777 2.22357 11.4752 2.22874 11.4701L1.18434 10.3935C1.17918 10.3985 1.17661 10.401 1.17403 10.4035C1.17144 10.406 1.16886 10.4085 1.16369 10.4135L2.20809 11.4902ZM2.27905 11.4163C2.70599 10.9118 3.35437 10.5902 4.09149 10.5902V9.09016C2.90826 9.09016 1.84278 9.6098 1.13403 10.4473L2.27905 11.4163ZM4.09149 10.5902H17.9056V9.09016H4.09149V10.5902ZM17.9056 10.5902C18.6426 10.5902 19.2825 10.9119 19.7003 11.3996L20.8395 10.4239C20.1422 9.60971 19.0889 9.09016 17.9056 9.09016V10.5902ZM19.7477 11.4501C19.763 11.4649 19.726 11.4312 19.6908 11.3855C19.6626 11.3491 19.5405 11.1888 19.5405 10.9418H21.0405C21.0405 10.6848 20.9133 10.5145 20.8774 10.468C20.8522 10.4354 20.8293 10.411 20.8168 10.3981C20.8045 10.3854 20.793 10.3743 20.7921 10.3734L19.7477 11.4501ZM19.7208 11.4296C20.1036 11.8767 20.305 12.4451 20.2368 13.0628L21.7278 13.2275C21.8454 12.1626 21.4892 11.1887 20.8603 10.454L19.7208 11.4296ZM2.97276 10.2708V5.11307H1.47276V10.2708H2.97276ZM2.97276 5.11307C2.97276 3.40819 3.21044 2.64606 3.62254 2.2463C4.04267 1.83876 4.84735 1.60669 6.61065 1.60669V0.106689C4.86364 0.106689 3.47438 0.300253 2.57814 1.16963C1.67388 2.04679 1.47276 3.41285 1.47276 5.11307H2.97276ZM6.61065 1.60669H7.92186V0.106689H6.61065V1.60669ZM7.92186 1.60669C8.51283 1.60669 8.76427 1.69412 8.90314 1.77507C9.05678 1.86461 9.1713 1.99629 9.43471 2.33697L10.6214 1.41947C10.3892 1.11919 10.1062 0.740105 9.65848 0.479125C9.19595 0.209539 8.64209 0.106689 7.92186 0.106689V1.60669ZM9.43384 2.33584L10.745 4.0384L11.9335 3.12315L10.6223 1.4206L9.43384 2.33584ZM10.7494 4.04404C10.8951 4.22948 11.1117 4.523 11.4558 4.72546C11.8175 4.9382 12.2374 5.0118 12.7434 5.0118V3.5118C12.3717 3.5118 12.2548 3.4552 12.2164 3.43258C12.1605 3.3997 12.1138 3.3527 11.9291 3.11751L10.7494 4.04404ZM12.7434 5.0118H15.3761V3.5118H12.7434V5.0118ZM15.3761 5.0118C17.1394 5.0118 17.9441 5.24387 18.3642 5.65141C18.7763 6.05117 19.014 6.8133 19.014 8.51818H20.514C20.514 6.81796 20.3129 5.4519 19.4086 4.57474C18.5124 3.70536 17.1231 3.5118 15.3761 3.5118V5.0118ZM19.014 8.51818V10.3109H20.514V8.51818H19.014ZM8.34516 16.5992H13.6519V15.0992H8.34516V16.5992Z" fill="#1E2D56"/>
</svg>
