<svg width="16" height="14" viewBox="0 0 16 14" fill="none" xmlns="http://www.w3.org/2000/svg">
<path d="M0.789063 0.168762C0.59015 0.168762 0.399385 0.24778 0.258732 0.388432C0.11808 0.529084 0.0390625 0.71985 0.0390625 0.918762V5.04376C0.0390625 6.31126 0.811563 7.39126 1.91406 7.83376V12.5438C1.91406 12.8421 2.03259 13.1283 2.24357 13.3393C2.45455 13.5502 2.74069 13.6688 3.03906 13.6688C3.33743 13.6688 3.62358 13.5502 3.83456 13.3393C4.04554 13.1283 4.16406 12.8421 4.16406 12.5438V7.83376C5.26656 7.39126 6.03906 6.31126 6.03906 5.04376V0.918762C6.03906 0.71985 5.96005 0.529084 5.81939 0.388432C5.67874 0.24778 5.48798 0.168762 5.28906 0.168762C5.09015 0.168762 4.89939 0.24778 4.75873 0.388432C4.61808 0.529084 4.53906 0.71985 4.53906 0.918762V3.91876C4.53906 4.01822 4.49955 4.1136 4.42923 4.18393C4.3589 4.25425 4.26352 4.29376 4.16406 4.29376C4.06461 4.29376 3.96922 4.25425 3.8989 4.18393C3.82857 4.1136 3.78906 4.01822 3.78906 3.91876V0.918762C3.78906 0.71985 3.71005 0.529084 3.56939 0.388432C3.42874 0.24778 3.23798 0.168762 3.03906 0.168762C2.84015 0.168762 2.64939 0.24778 2.50873 0.388432C2.36808 0.529084 2.28906 0.71985 2.28906 0.918762V3.91876C2.28906 4.01822 2.24955 4.1136 2.17923 4.18393C2.1089 4.25425 2.01352 4.29376 1.91406 4.29376C1.81461 4.29376 1.71922 4.25425 1.6489 4.18393C1.57857 4.1136 1.53906 4.01822 1.53906 3.91876V0.918762C1.53906 0.71985 1.46005 0.529084 1.31939 0.388432C1.17874 0.24778 0.987975 0.168762 0.789063 0.168762ZM13.4491 0.168762C13.3516 0.168762 13.2541 0.236262 13.1641 0.288762L10.5391 1.85626V4.66876H7.53906V6.16876H8.28906L9.03906 13.6688H13.5391L14.2891 6.16876H15.0391V4.66876H12.0391V2.67376L13.9141 1.54876C14.2891 1.33876 14.3866 0.918762 14.1691 0.543762C14.0116 0.273762 13.7341 0.131262 13.4491 0.168762Z" fill="white"/>
</svg>
