<svg width="22" height="20" viewBox="0 0 22 20" fill="none" xmlns="http://www.w3.org/2000/svg">
<path d="M16 18.2495H6V19.7495H16V18.2495ZM6 18.2495C3.99464 18.2495 3.04182 17.9807 2.53033 17.4692C2.01884 16.9577 1.75 16.0049 1.75 13.9995H0.25C0.25 15.9942 0.481164 17.5413 1.46967 18.5298C2.45818 19.5183 4.00536 19.7495 6 19.7495V18.2495ZM1.75 13.9995V5.99951H0.25V13.9995H1.75ZM1.75 5.99951C1.75 3.99415 2.01884 3.04134 2.53033 2.52984C3.04182 2.01835 3.99464 1.74951 6 1.74951V0.249512C4.00536 0.249512 2.45818 0.480676 1.46967 1.46918C0.481164 2.45769 0.25 4.00487 0.25 5.99951H1.75ZM6 1.74951H16V0.249512H6V1.74951ZM16 1.74951C18.0054 1.74951 18.9582 2.01835 19.4697 2.52984C19.9812 3.04134 20.25 3.99415 20.25 5.99951H21.75C21.75 4.00487 21.5188 2.45769 20.5303 1.46918C19.5418 0.480676 17.9946 0.249512 16 0.249512V1.74951ZM20.25 5.99951V13.9995H21.75V5.99951H20.25ZM20.25 13.9995C20.25 16.0049 19.9812 16.9577 19.4697 17.4692C18.9582 17.9807 18.0054 18.2495 16 18.2495V19.7495C17.9946 19.7495 19.5418 19.5183 20.5303 18.5298C21.5188 17.5413 21.75 15.9942 21.75 13.9995H20.25Z" fill="white"/>
<path fill-rule="evenodd" clip-rule="evenodd" d="M8.03175 3.96616C7.8512 3.82573 7.59837 3.82573 7.41781 3.96616L4.05243 6.58368C3.88383 6.71482 3.81715 6.93858 3.88647 7.14062C3.95579 7.34267 4.1458 7.47836 4.3594 7.47836H5.72906V11.0916C5.72906 11.3677 5.95292 11.5916 6.22906 11.5916H9.22051C9.49647 11.5916 9.72026 11.368 9.72051 11.0921L9.72379 7.47836H11.0902C11.3038 7.47836 11.4938 7.34267 11.5631 7.14062C11.6324 6.93858 11.5657 6.71482 11.3971 6.58368L8.03175 3.96616ZM6.22906 6.47836H5.81667L7.72478 4.99427L9.63289 6.47836H9.22425C8.94828 6.47836 8.7245 6.70194 8.72425 6.9779L8.72096 10.5916H6.72906V6.97836C6.72906 6.70221 6.5052 6.47836 6.22906 6.47836ZM18.444 13.3157L15.0786 15.9333C14.898 16.0737 14.6452 16.0737 14.4647 15.9333L11.0993 13.3157C10.9307 13.1846 10.864 12.9608 10.9333 12.7588C11.0026 12.5567 11.1926 12.4211 11.4062 12.4211H12.7759V8.80782C12.7759 8.53167 12.9998 8.30782 13.2759 8.30782H16.2674C16.5433 8.30782 16.7671 8.5314 16.7674 8.80736L16.7706 12.4211H18.137C18.3506 12.4211 18.5406 12.5567 18.6099 12.7588C18.6793 12.9608 18.6126 13.1846 18.444 13.3157ZM13.2759 13.4211H12.8635L14.7716 14.9051L16.6797 13.4211H16.2711C15.9951 13.4211 15.7713 13.1975 15.7711 12.9215L15.7678 9.30782H13.7759V12.9211C13.7759 13.1972 13.552 13.4211 13.2759 13.4211Z" fill="white"/>
</svg>
