<?xml version="1.0" standalone="no"?>
<!DOCTYPE svg PUBLIC "-//W3C//DTD SVG 20010904//EN"
 "http://www.w3.org/TR/2001/REC-SVG-20010904/DTD/svg10.dtd">
<svg version="1.0" xmlns="http://www.w3.org/2000/svg"
 width="768.000000pt" height="768.000000pt" viewBox="0 0 768.000000 768.000000"
 preserveAspectRatio="xMidYMid meet">

<g transform="translate(0.000000,768.000000) scale(0.100000,-0.100000)"
fill="#000000" stroke="none">
<path d="M3636 6294 c-408 -81 -735 -388 -843 -792 -24 -87 -27 -115 -27 -267
0 -153 3 -180 27 -270 85 -316 311 -584 603 -716 694 -311 1487 177 1521 936
23 538 -350 1009 -880 1110 -98 18 -306 18 -401 -1z m404 -315 c222 -61 393
-202 490 -403 59 -123 80 -213 80 -343 0 -300 -159 -557 -425 -688 -129 -64
-196 -80 -345 -80 -149 0 -216 16 -345 80 -207 102 -349 278 -406 506 -18 71
-21 102 -16 214 9 224 77 377 235 526 162 154 354 225 575 212 49 -2 119 -13
157 -24z"/>
<path d="M1555 5993 c-280 -39 -540 -236 -664 -505 -61 -131 -76 -201 -76
-363 1 -115 5 -154 23 -220 71 -248 232 -443 457 -555 113 -56 184 -77 302
-89 430 -44 831 242 935 667 27 110 29 285 4 386 -84 349 -347 604 -694 672
-68 13 -216 17 -287 7z m291 -324 c338 -103 498 -478 342 -797 -21 -44 -58
-92 -104 -139 -176 -180 -436 -221 -663 -106 -135 68 -247 208 -286 359 -19
73 -19 212 0 284 51 190 211 355 396 404 83 23 233 20 315 -5z"/>
<path d="M5830 5985 c-348 -75 -602 -322 -686 -670 -26 -103 -23 -296 5 -400
43 -161 125 -298 247 -416 171 -163 363 -241 599 -241 648 -1 1070 677 782
1257 -107 216 -314 388 -548 455 -96 28 -304 36 -399 15z m315 -310 c147 -39
293 -159 358 -295 233 -492 -268 -994 -759 -759 -83 40 -205 156 -247 236 -37
69 -67 192 -67 272 1 250 176 480 416 546 68 18 227 18 299 0z"/>
<path d="M902 4095 c-161 -121 -310 -332 -380 -540 -55 -164 -57 -186 -57
-797 0 -557 0 -567 21 -594 11 -15 33 -37 48 -48 27 -21 36 -21 771 -21 735 0
744 0 771 21 51 38 69 71 69 129 0 58 -18 91 -69 129 -27 21 -39 21 -667 24
l-640 3 3 472 4 472 28 85 c44 133 91 217 180 323 46 55 43 55 153 9 165 -70
337 -102 542 -102 214 0 375 31 564 107 l88 35 22 -20 c27 -25 88 -52 119 -52
71 0 148 79 148 153 0 55 -16 85 -78 144 -132 128 -181 139 -320 69 -194 -97
-335 -130 -547 -129 -201 1 -349 36 -524 125 -128 65 -166 65 -249 3z"/>
<path d="M5265 4130 c-39 -16 -172 -138 -188 -173 -31 -64 -20 -131 28 -180
58 -58 146 -58 214 -1 l30 25 89 -35 c107 -43 248 -81 360 -97 120 -17 403 -6
512 19 93 22 238 70 288 96 17 9 37 16 44 16 33 0 171 -198 209 -299 54 -145
53 -135 57 -633 l3 -467 -640 -3 c-628 -3 -640 -3 -667 -24 -51 -38 -69 -71
-69 -129 0 -58 18 -91 69 -129 27 -21 36 -21 771 -21 735 0 744 0 771 21 15
11 37 33 48 48 21 27 21 40 24 556 3 586 -1 647 -57 821 -71 218 -216 428
-382 554 -84 62 -123 62 -245 0 -175 -89 -332 -128 -529 -129 -204 -1 -356 34
-537 125 -99 50 -153 60 -203 39z"/>
<path d="M2884 3888 c-70 -47 -229 -210 -297 -305 -116 -163 -203 -360 -249
-561 -21 -94 -22 -119 -25 -817 -4 -690 -3 -721 15 -755 11 -19 34 -45 52 -57
l33 -23 1427 0 1427 0 33 23 c18 12 41 38 52 57 18 34 19 65 15 755 -3 698 -4
723 -25 817 -65 288 -199 532 -402 738 -183 184 -215 192 -391 102 -128 -65
-290 -122 -424 -149 -127 -25 -443 -25 -570 1 -139 27 -293 81 -421 146 -141
73 -175 76 -250 28z m205 -347 c276 -123 596 -178 894 -153 220 19 428 71 611
155 l89 41 69 -72 c151 -159 254 -365 293 -586 12 -73 15 -192 15 -672 l0
-584 -1220 0 -1220 0 0 584 c0 621 3 666 51 821 47 153 141 314 254 434 37 39
70 71 72 71 3 0 44 -17 92 -39z"/>
</g>
</svg>
