<svg width="14" height="14" viewBox="0 0 14 14" fill="none" xmlns="http://www.w3.org/2000/svg">
<path d="M2.05013 2.04991C-0.683377 4.78342 -0.683377 9.21643 2.05013 11.9504C4.78364 14.6844 9.21572 14.683 11.9492 11.9495C14.6827 9.21597 14.6841 4.78388 11.9502 2.05037C9.21665 -0.683133 4.78457 -0.683133 2.05013 2.05037V2.04991ZM11.622 2.37849C11.9976 2.75894 12.3254 3.18378 12.598 3.64361L10.7045 5.5371C10.5052 5.02937 10.2031 4.56832 9.81719 4.18288C9.43159 3.79659 8.97019 3.49431 8.46204 3.29507L10.3555 1.40157C10.8161 1.67436 11.2416 2.00243 11.6225 2.37849H11.622ZM4.51214 9.48839C3.85246 8.82821 3.48182 7.93317 3.48165 6.99989C3.48147 6.0666 3.85178 5.17142 4.51122 4.51099C5.17176 3.85189 6.06678 3.48173 6.99991 3.48173C7.93304 3.48173 8.82807 3.85189 9.48861 4.51099C10.1472 5.1717 10.5171 6.06656 10.5171 6.99946C10.5171 7.93237 10.1472 8.82722 9.48861 9.48793C8.82833 10.1472 7.93343 10.5176 7.00034 10.5178C6.06724 10.518 5.1722 10.1479 4.51168 9.48886L4.51214 9.48839ZM2.37778 11.6223C2.00186 11.2412 1.6738 10.8158 1.40086 10.3553L3.29436 8.46182C3.49467 8.96924 3.79707 9.43011 4.18282 9.81586C4.56856 10.2016 5.02944 10.504 5.53686 10.7043L3.64243 12.5978C3.19226 12.3286 2.7653 12.0084 2.37732 11.6218L2.37778 11.6223ZM3.64383 1.40018L5.53825 3.29461C5.03052 3.49426 4.56936 3.79637 4.18354 4.18211C3.79772 4.56785 3.49551 5.02895 3.29576 5.53664L1.40133 3.64314C1.6705 3.19297 1.99073 2.76601 2.37824 2.3771C2.75907 2.0013 3.18421 1.67325 3.64429 1.40018H3.64383ZM10.3565 12.5978L8.46204 10.7034C8.96985 10.504 9.4311 10.202 9.81694 9.81635C10.2028 9.43067 10.5049 8.96955 10.7045 8.46182L12.599 10.3553C12.3298 10.8055 12.0096 11.2334 11.622 11.6223C11.2412 11.9978 10.8161 12.3255 10.356 12.5983L10.3565 12.5978Z" fill="white"/>
</svg>
