<svg width="14" height="14" viewBox="0 0 14 14" fill="none" xmlns="http://www.w3.org/2000/svg">
<path d="M13.5004 7.04628L7.25312 0.803555C7.20814 0.758485 7.15471 0.722728 7.09589 0.698331C7.03707 0.673935 6.97402 0.661377 6.91034 0.661377C6.84667 0.661377 6.78362 0.673935 6.7248 0.698331C6.66598 0.722728 6.61255 0.758485 6.56757 0.803555L0.320295 7.04628C0.138292 7.22828 0.0351562 7.47551 0.0351562 7.73335C0.0351562 8.26874 0.470448 8.70403 1.00584 8.70403H1.66409V13.1586C1.66409 13.427 1.88098 13.6439 2.14943 13.6439H5.93966V10.2465H7.63836V13.6439H11.6713C11.9397 13.6439 12.1566 13.427 12.1566 13.1586V8.70403H12.8148C13.0727 8.70403 13.3199 8.60241 13.5019 8.41889C13.8796 8.03972 13.8796 7.42546 13.5004 7.04628Z" fill="white"/>
</svg>
