<?xml version="1.0" standalone="no"?>
<!DOCTYPE svg PUBLIC "-//W3C//DTD SVG 20010904//EN"
 "http://www.w3.org/TR/2001/REC-SVG-20010904/DTD/svg10.dtd">
<svg version="1.0" xmlns="http://www.w3.org/2000/svg"
 width="920.000000pt" height="800.000000pt" viewBox="0 0 920.000000 800.000000"
 preserveAspectRatio="xMidYMid meet">

<g transform="translate(0.000000,800.000000) scale(0.100000,-0.100000)"
fill="#000000" stroke="none">
<path d="M4375 7994 c-22 -2 -96 -9 -165 -15 -170 -14 -393 -53 -583 -100
-1425 -358 -2548 -1481 -2906 -2906 -43 -172 -84 -402 -103 -583 -16 -148 -16
-632 0 -780 122 -1138 688 -2137 1596 -2816 565 -424 1229 -686 1951 -770 209
-25 661 -25 870 0 922 108 1742 502 2390 1151 649 648 1044 1468 1151 2390 25
209 25 661 0 870 -57 487 -183 916 -396 1343 -381 764 -991 1384 -1745 1774
-447 230 -931 375 -1430 428 -103 11 -558 21 -630 14z m512 -475 c832 -68
1614 -430 2203 -1019 567 -567 901 -1247 1016 -2070 23 -159 26 -674 6 -820
-42 -301 -91 -519 -171 -752 -352 -1030 -1169 -1847 -2199 -2199 -233 -80
-451 -129 -752 -171 -146 -20 -661 -17 -820 6 -817 114 -1500 448 -2060 1006
-466 465 -785 1029 -940 1665 -338 1386 188 2829 1342 3681 501 370 1116 607
1741 669 165 16 466 18 634 4z"/>
<path d="M4832 6450 c-117 -31 -198 -76 -278 -155 -80 -80 -119 -148 -136
-245 -32 -186 84 -383 283 -479 322 -154 717 -45 856 237 110 222 3 477 -252
599 -135 64 -326 81 -473 43z"/>
<path d="M4890 5020 c-333 -21 -668 -42 -744 -46 l-139 -9 -23 -80 c-13 -44
-22 -80 -21 -81 1 -1 71 -6 155 -12 232 -15 282 -49 282 -190 0 -56 -27 -144
-224 -740 -498 -1503 -526 -1594 -526 -1713 0 -221 119 -356 390 -444 156 -51
304 -34 479 54 153 78 376 254 550 436 184 193 398 456 386 475 -4 6 -34 24
-68 41 -57 29 -62 30 -72 14 -34 -58 -211 -300 -254 -348 -96 -104 -229 -197
-283 -197 -41 0 -66 27 -78 83 -26 113 -21 130 440 1506 237 705 430 1285 430
1287 0 6 -18 5 -680 -36z"/>
</g>
</svg>
