<svg width="14" height="15" viewBox="0 0 14 15" fill="none" xmlns="http://www.w3.org/2000/svg">
<path d="M1.70711 0.792893C1.31658 0.402369 0.683418 0.402369 0.292893 0.792893C-0.0976311 1.18342 -0.0976311 1.81658 0.292893 2.20711L1.70711 0.792893ZM12.2929 14.2071C12.6834 14.5976 13.3166 14.5976 13.7071 14.2071C14.0976 13.8166 14.0976 13.1834 13.7071 12.7929L12.2929 14.2071ZM0.292893 2.20711L12.2929 14.2071L13.7071 12.7929L1.70711 0.792893L0.292893 2.20711Z" fill="#E5E6ED"/>
<path d="M0.292893 12.7929C-0.0976311 13.1834 -0.0976311 13.8166 0.292893 14.2071C0.683418 14.5976 1.31658 14.5976 1.70711 14.2071L0.292893 12.7929ZM13.7071 2.20711C14.0976 1.81658 14.0976 1.18342 13.7071 0.792894C13.3166 0.40237 12.6834 0.40237 12.2929 0.792894L13.7071 2.20711ZM1.70711 14.2071L13.7071 2.20711L12.2929 0.792894L0.292893 12.7929L1.70711 14.2071Z" fill="#E5E6ED"/>
</svg>
