<svg width="17" height="16" viewBox="0 0 17 16" fill="none" xmlns="http://www.w3.org/2000/svg">
<path d="M5.5 1.25H6.25C4.7875 5.63 4.7875 10.37 6.25 14.75H5.5M10.75 1.25C12.2125 5.63 12.2125 10.37 10.75 14.75M1.75 11V10.25C6.13 11.7125 10.87 11.7125 15.25 10.25V11M1.75 5.75C6.13 4.2875 10.87 4.2875 15.25 5.75M16 8C16 12.1421 12.6421 15.5 8.5 15.5C4.35786 15.5 1 12.1421 1 8C1 3.85786 4.35786 0.5 8.5 0.5C12.6421 0.5 16 3.85786 16 8Z" stroke="#147AD6" stroke-linecap="round" stroke-linejoin="round"/>
</svg>
