<svg width="22" height="23" viewBox="0 0 22 23" fill="none" xmlns="http://www.w3.org/2000/svg">
<path d="M12.1223 1.52758L18.6779 4.33765C20.5667 5.14206 20.5667 6.47202 18.6779 7.27643L12.1223 10.0865C11.3779 10.4083 10.1556 10.4083 9.41119 10.0865L2.85563 7.27643C0.966743 6.47202 0.966743 5.14206 2.85563 4.33765L9.41119 1.52758C10.1556 1.20581 11.3779 1.20581 12.1223 1.52758Z" stroke="#1E2D56" stroke-width="1.5" stroke-linecap="round" stroke-linejoin="round"/>
<path d="M1 10.1935C1 11.0944 1.7 12.1348 2.55556 12.4995L10.1 15.7386C10.6778 15.9852 11.3333 15.9852 11.9 15.7386L19.4444 12.4995C20.3 12.1348 21 11.0944 21 10.1935" stroke="#1E2D56" stroke-width="1.5" stroke-linecap="round" stroke-linejoin="round"/>
<path d="M1 15.5558C1 16.5533 1.61111 17.4542 2.55556 17.8618L10.1 21.1009C10.6778 21.3475 11.3333 21.3475 11.9 21.1009L19.4444 17.8618C20.3889 17.4542 21 16.5533 21 15.5558" stroke="#1E2D56" stroke-width="1.5" stroke-linecap="round" stroke-linejoin="round"/>
</svg>
