<svg width="16" height="18" viewBox="0 0 16 18" fill="none" xmlns="http://www.w3.org/2000/svg">
<path d="M4.13743 12.8195C4.09326 12.269 4.50373 11.7869 5.05425 11.7427C5.60476 11.6985 6.08685 12.109 6.13102 12.6595L4.13743 12.8195ZM6.13831 5.27981C6.09051 5.83002 5.60574 6.23732 5.05552 6.18952C4.50531 6.14173 4.09802 5.65696 4.14581 5.10674L6.13831 5.27981ZM10.5247 9L11.1979 8.26047C11.4061 8.44998 11.5247 8.71847 11.5247 9C11.5247 9.28153 11.4061 9.55002 11.1979 9.73953L10.5247 9ZM1.00088 10.0084C0.448598 10.0089 0.000488335 9.56157 1.1158e-06 9.00928C-0.000486104 8.457 0.446834 8.00889 0.999118 8.0084L1.00088 10.0084ZM8.10502 12.5547C7.69659 12.9264 7.06412 12.8967 6.69237 12.4883C6.32061 12.0798 6.35034 11.4474 6.75877 11.0756L8.10502 12.5547ZM6.75877 6.9244C6.35034 6.55264 6.32061 5.92018 6.69237 5.51175C7.06412 5.10332 7.69659 5.07359 8.10502 5.44534L6.75877 6.9244ZM6.13102 12.6595C6.24186 14.0409 6.61217 14.8043 7.124 15.2501C7.6487 15.707 8.51508 16 9.99664 16L9.99664 18C8.30706 18 6.8636 17.6754 5.81056 16.7583C4.74465 15.8301 4.26933 14.4633 4.13743 12.8195L6.13102 12.6595ZM9.99664 16L10.0984 16L10.0984 18L9.99664 18L9.99664 16ZM10.0984 16C11.7335 16 12.6192 15.6449 13.1301 15.0967C13.6576 14.5305 14 13.5328 14 11.7395L16 11.7395C16 13.7025 15.6416 15.335 14.5933 16.4601C13.5284 17.603 11.9633 18 10.0984 18L10.0984 16ZM14 11.7395L14 6.2605L16 6.2605L16 11.7395L14 11.7395ZM14 6.2605C14 4.46721 13.6576 3.4695 13.1301 2.90334C12.6192 2.35508 11.7336 2 10.0984 2L10.0984 -1.11194e-06C11.9633 -9.48905e-07 13.5284 0.397016 14.5933 1.53993C15.6416 2.66495 16 4.2975 16 6.2605L14 6.2605ZM10.0984 2L9.99664 2L9.99664 -1.12084e-06L10.0984 -1.11194e-06L10.0984 2ZM9.99664 2C8.52635 2 7.66236 2.28899 7.1373 2.73981C6.62668 3.17821 6.25583 3.92683 6.13831 5.27981L4.14581 5.10674C4.28668 3.48494 4.76929 2.13691 5.83446 1.22237C6.88517 0.320248 8.31928 -1.26748e-06 9.99664 -1.12084e-06L9.99664 2ZM10.5256 10L1.00088 10.0084L0.999118 8.0084L10.5239 8L10.5256 10ZM6.75877 11.0756L9.85161 8.26047L11.1979 9.73953L8.10502 12.5547L6.75877 11.0756ZM9.85161 9.73953L6.75877 6.9244L8.10502 5.44534L11.1979 8.26047L9.85161 9.73953Z" fill="white"/>
</svg>
