<svg width="22" height="22" viewBox="0 0 22 22" fill="none" xmlns="http://www.w3.org/2000/svg">
<path d="M15.2595 15.7603C15.3069 15.2101 14.8994 14.7256 14.3491 14.6781C13.7989 14.6306 13.3143 15.0382 13.2669 15.5884L15.2595 15.7603ZM13.257 6.33461C13.3083 6.8845 13.7958 7.28863 14.3456 7.23726C14.8955 7.18589 15.2997 6.69848 15.2483 6.14858L13.257 6.33461ZM7.8421 10.0105C7.28982 10.0105 6.8421 10.4582 6.8421 11.0105C6.8421 11.5628 7.28982 12.0105 7.8421 12.0105L7.8421 10.0105ZM19.8211 12.0105C20.3733 12.0105 20.8211 11.5628 20.8211 11.0105C20.8211 10.4582 20.3733 10.0105 19.8211 10.0105L19.8211 12.0105ZM16.7673 13.8216C16.3764 14.2117 16.3757 14.8448 16.7658 15.2358C17.1559 15.6267 17.7891 15.6274 18.18 15.2373L16.7673 13.8216ZM21 11.0105L21.7064 11.7184C21.8944 11.5308 22 11.2761 22 11.0105C22 10.7449 21.8944 10.4903 21.7064 10.3027L21 11.0105ZM18.18 6.78375C17.7891 6.39363 17.1559 6.3943 16.7658 6.78523C16.3757 7.17617 16.3764 7.80933 16.7673 8.19945L18.18 6.78375ZM13.2669 15.5884C13.1166 17.3293 12.6125 18.354 11.8418 18.9781C11.043 19.6249 9.76667 20 7.72632 20L7.72632 22C9.94912 22 11.7781 21.6031 13.1003 20.5324C14.4507 19.4391 15.0834 17.8009 15.2595 15.7603L13.2669 15.5884ZM7.72632 20L7.58947 20L7.58947 22L7.72632 22L7.72632 20ZM7.58947 20C5.3353 20 4.01663 19.5435 3.23663 18.7651C2.45714 17.9873 2 16.6727 2 14.4244L-5.7486e-07 14.4244C-3.60933e-07 16.8714 0.484962 18.8447 1.8239 20.1808C3.16232 21.5164 5.13839 22 7.58947 22L7.58947 20ZM2 14.4244L2 7.57563L-1.1736e-06 7.57563L-5.7486e-07 14.4244L2 14.4244ZM2 7.57563C2 5.32729 2.45714 4.01274 3.23662 3.2349C4.01662 2.45654 5.3353 2 7.58947 2L7.58947 1.17239e-06C5.13838 1.38667e-06 3.16232 0.483591 1.8239 1.8192C0.484961 3.15532 -1.38752e-06 5.12859 -1.1736e-06 7.57563L2 7.57563ZM7.58947 2L7.72631 2L7.72631 1.16042e-06L7.58947 1.17239e-06L7.58947 2ZM7.72631 2C9.75116 2 11.0231 2.36996 11.8222 3.00787C12.5919 3.62238 13.0976 4.62854 13.257 6.33461L15.2483 6.14858C15.0603 4.13617 14.4186 2.52153 13.0699 1.44486C11.7506 0.391597 9.93305 9.67503e-07 7.72631 1.16042e-06L7.72631 2ZM7.8421 12.0105L19.8211 12.0105L19.8211 10.0105L7.8421 10.0105L7.8421 12.0105ZM18.18 15.2373L21.7064 11.7184L20.2936 10.3027L16.7673 13.8216L18.18 15.2373ZM21.7064 10.3027L18.18 6.78375L16.7673 8.19945L20.2936 11.7184L21.7064 10.3027Z" fill="#D36377"/>
</svg>
