<svg width="22" height="22" viewBox="0 0 22 22" fill="none" xmlns="http://www.w3.org/2000/svg">
<path d="M8.92833 1.53297L9.32117 2.17186L9.32317 2.17062L8.92833 1.53297ZM2.53683 5.46297L2.14399 4.82408L2.14398 4.82408L2.53683 5.46297ZM2.53683 10.803L2.14398 11.4418L2.14399 11.4419L2.53683 10.803ZM8.92833 14.733L9.32317 14.0953L9.32117 14.0941L8.92833 14.733ZM13.1115 14.733L12.7172 14.095L12.7166 14.0953L13.1115 14.733ZM19.4711 10.803L19.8654 11.441L19.8655 11.4409L19.4711 10.803ZM19.4711 5.47297L19.8655 4.835L19.8654 4.83496L19.4711 5.47297ZM13.1115 1.54297L12.7126 2.17815L12.7172 2.18098L13.1115 1.54297ZM4.98557 12.0847C4.9865 11.6705 4.65148 11.3339 4.23727 11.333C3.82305 11.332 3.48651 11.6671 3.48557 12.0813L4.98557 12.0847ZM4.22495 16.773L3.47495 16.7713V16.773H4.22495ZM6.53948 19.803L6.31483 20.5185L6.31547 20.5187L6.53948 19.803ZM9.92634 20.863L9.70233 21.5787L9.70541 21.5797L9.92634 20.863ZM12.071 20.863L12.2883 21.5808L12.295 21.5787L12.071 20.863ZM15.4579 19.803L15.6819 20.5187L15.6825 20.5185L15.4579 19.803ZM18.5224 12.133C18.5224 11.7188 18.1866 11.383 17.7724 11.383C17.3582 11.383 17.0224 11.7188 17.0224 12.133H18.5224ZM20.2288 14.003C20.2288 14.4172 20.5646 14.753 20.9788 14.753C21.393 14.753 21.7288 14.4172 21.7288 14.003H20.2288ZM21.7288 8.00297C21.7288 7.58875 21.393 7.25297 20.9788 7.25297C20.5646 7.25297 20.2288 7.58875 20.2288 8.00297H21.7288ZM8.5355 0.894078L2.14399 4.82408L2.92967 6.10185L9.32117 2.17185L8.5355 0.894078ZM2.14398 4.82408C-0.381326 6.3769 -0.381326 9.88903 2.14398 11.4418L2.92968 10.1641C1.35677 9.1969 1.35677 7.06903 2.92968 6.10185L2.14398 4.82408ZM2.14399 11.4419L8.5355 15.3719L9.32117 14.0941L2.92967 10.1641L2.14399 11.4419ZM8.5335 15.3706C9.25299 15.8161 10.1577 16.0155 11.0199 16.0155C11.8821 16.0155 12.7868 15.8161 13.5063 15.3706L12.7166 14.0953C12.2895 14.3598 11.676 14.5155 11.0199 14.5155C10.3639 14.5155 9.75033 14.3598 9.32317 14.0953L8.5335 15.3706ZM13.5057 15.371L19.8654 11.441L19.0769 10.165L12.7172 14.095L13.5057 15.371ZM19.8655 11.4409C22.3782 9.88781 22.3782 6.38812 19.8655 4.835L19.0768 6.11093C20.6411 7.07781 20.6411 9.19812 19.0768 10.165L19.8655 11.4409ZM19.8654 4.83496L13.5057 0.904956L12.7172 2.18098L19.0769 6.11097L19.8654 4.83496ZM13.5103 0.907801C12.7902 0.45561 11.8842 0.253138 11.0211 0.251717C10.158 0.250295 9.25304 0.449776 8.5335 0.895309L9.32317 2.17062C9.75028 1.90616 10.3635 1.75064 11.0187 1.75171C11.6738 1.75279 12.2861 1.91032 12.7126 2.17813L13.5103 0.907801ZM3.48557 12.0813L3.47495 16.7713L4.97495 16.7747L4.98557 12.0847L3.48557 12.0813ZM3.47495 16.773C3.47495 17.6061 3.81168 18.4195 4.30854 19.0696C4.80662 19.7214 5.5079 20.2652 6.31483 20.5185L6.76414 19.0874C6.29701 18.9407 5.84102 18.6046 5.50035 18.1588C5.15846 17.7114 4.97495 17.2099 4.97495 16.773H3.47495ZM6.31547 20.5187L9.70233 21.5787L10.1504 20.1472L6.7635 19.0872L6.31547 20.5187ZM9.70541 21.5797C10.0923 21.6989 10.5601 21.748 10.9947 21.748C11.4299 21.748 11.8985 21.6988 12.2883 21.5808L11.8537 20.1451C11.6489 20.2071 11.3372 20.248 10.9947 20.248C10.6516 20.248 10.3443 20.207 10.1473 20.1462L9.70541 21.5797ZM12.295 21.5787L15.6819 20.5187L15.2338 19.0872L11.847 20.1472L12.295 21.5787ZM15.6825 20.5185C16.4894 20.2652 17.1907 19.7214 17.6888 19.0696C18.1857 18.4195 18.5224 17.6061 18.5224 16.773H17.0224C17.0224 17.2099 16.8389 17.7114 16.497 18.1588C16.1563 18.6046 15.7003 18.9407 15.2332 19.0874L15.6825 20.5185ZM18.5224 16.773V12.133H17.0224V16.773H18.5224ZM21.7288 14.003V8.00297H20.2288V14.003H21.7288Z" fill="#1E2D56"/>
</svg>
