
<svg version="1.0" xmlns="http://www.w3.org/2000/svg"
 width="1089.000000pt" height="600.000000pt" viewBox="0 0 1089.000000 600.000000"
 preserveAspectRatio="xMidYMid meet">

<g transform="translate(0.000000,600.000000) scale(0.100000,-0.100000)"
fill="#000000" stroke="none">
<path d="M0 3020 l0 -2960 5445 0 5445 0 0 2960 0 2960 -5445 0 -5445 0 0
-2960z m8910 2155 c0 -50 4 -85 10 -85 6 0 10 -28 10 -65 0 -37 4 -65 10 -65
6 0 10 -16 10 -35 0 -24 5 -35 15 -35 10 0 15 -10 15 -30 0 -16 5 -30 10 -30
6 0 10 -13 10 -30 0 -16 5 -30 10 -30 6 0 10 -11 10 -25 0 -14 5 -25 10 -25 6
0 10 -9 10 -20 0 -11 5 -20 10 -20 6 0 10 -9 10 -20 0 -11 5 -20 10 -20 6 0
10 -8 10 -18 0 -10 9 -24 20 -32 11 -8 20 -25 20 -37 0 -13 5 -23 11 -23 14 0
39 -26 39 -40 0 -7 14 -25 30 -40 17 -15 30 -31 30 -34 0 -8 67 -76 75 -76 4
0 24 -18 45 -40 21 -22 46 -40 54 -40 9 0 16 -5 16 -10 0 -19 48 -60 70 -60
11 0 20 -4 20 -10 0 -5 8 -10 18 -10 10 0 24 -9 32 -20 8 -11 22 -20 32 -20
10 0 18 -4 18 -10 0 -5 11 -10 25 -10 14 0 25 -4 25 -10 0 -5 14 -10 30 -10
20 0 30 -5 30 -15 0 -10 10 -15 30 -15 17 0 30 -4 30 -10 0 -5 16 -10 35 -10
19 0 35 -4 35 -10 0 -5 18 -10 40 -10 22 0 40 -4 40 -10 0 -6 38 -10 95 -10
57 0 95 -4 95 -10 0 -5 16 -10 35 -10 l35 0 0 -960 0 -960 -35 0 c-19 0 -35
-4 -35 -10 0 -6 -38 -10 -95 -10 -57 0 -95 -4 -95 -10 0 -5 -18 -10 -40 -10
-22 0 -40 -4 -40 -10 0 -5 -16 -10 -35 -10 -19 0 -35 -4 -35 -10 0 -5 -13 -10
-30 -10 -16 0 -30 -4 -30 -10 0 -5 -13 -10 -30 -10 -16 0 -30 -4 -30 -10 0 -5
-11 -10 -25 -10 -14 0 -25 -4 -25 -10 0 -5 -9 -10 -20 -10 -11 0 -20 -5 -20
-11 0 -16 -26 -39 -44 -39 -9 0 -16 -4 -16 -10 0 -5 -9 -10 -21 -10 -12 0 -34
-13 -49 -30 -15 -16 -33 -30 -39 -30 -12 0 -61 -44 -61 -55 0 -8 -27 -35 -35
-35 -13 0 -115 -111 -115 -125 0 -18 -43 -65 -60 -65 -5 0 -10 -8 -10 -18 0
-10 -9 -24 -20 -32 -11 -8 -20 -25 -20 -37 0 -13 -4 -23 -10 -23 -5 0 -10 -9
-10 -20 0 -11 -4 -20 -10 -20 -5 0 -10 -9 -10 -20 0 -11 -4 -20 -10 -20 -5 0
-10 -9 -10 -20 0 -11 -4 -20 -10 -20 -5 0 -10 -16 -10 -35 0 -19 -4 -35 -10
-35 -5 0 -10 -9 -10 -20 0 -11 -7 -20 -15 -20 -11 0 -15 -11 -15 -40 0 -22 -4
-40 -10 -40 -6 0 -10 -28 -10 -65 0 -37 -4 -65 -10 -65 -6 0 -10 -35 -10 -85
l0 -85 -3465 0 -3465 0 0 85 c0 50 -4 85 -10 85 -6 0 -10 28 -10 65 0 51 -3
65 -15 65 -10 0 -15 10 -15 30 0 17 -4 30 -10 30 -5 0 -10 14 -10 30 0 17 -4
30 -10 30 -5 0 -10 16 -10 35 0 19 -4 35 -10 35 -5 0 -10 9 -10 20 0 11 -4 20
-10 20 -5 0 -10 9 -10 20 0 11 -4 20 -10 20 -5 0 -10 9 -10 20 0 11 -4 20 -10
20 -5 0 -10 9 -10 21 0 22 -22 49 -39 49 -6 0 -11 8 -11 18 0 10 -9 24 -20 32
-11 8 -20 23 -20 32 0 16 -101 128 -115 128 -8 0 -55 47 -55 55 0 12 -49 55
-62 55 -8 0 -20 9 -28 20 -8 11 -20 20 -27 20 -7 0 -13 5 -13 10 0 6 -9 10
-20 10 -11 0 -20 5 -20 10 0 6 -7 10 -16 10 -18 0 -44 23 -44 39 0 6 -9 11
-20 11 -11 0 -20 5 -20 10 0 6 -11 10 -25 10 -14 0 -25 5 -25 10 0 6 -13 10
-30 10 -16 0 -30 5 -30 10 0 6 -13 10 -30 10 -16 0 -30 5 -30 10 0 6 -16 10
-35 10 -19 0 -35 5 -35 10 0 6 -18 10 -40 10 -22 0 -40 5 -40 10 0 6 -38 10
-95 10 -57 0 -95 4 -95 10 0 6 -16 10 -35 10 l-35 0 0 960 0 960 35 0 c19 0
35 5 35 10 0 6 38 10 95 10 57 0 95 4 95 10 0 6 18 10 40 10 22 0 40 5 40 10
0 6 16 10 35 10 19 0 35 5 35 10 0 6 14 10 30 10 20 0 30 5 30 15 0 10 10 15
30 15 17 0 30 5 30 10 0 6 11 10 25 10 14 0 25 5 25 10 0 6 8 10 18 10 10 0
24 9 32 20 8 11 22 20 32 20 10 0 18 5 18 10 0 6 9 10 20 10 11 0 20 5 20 10
0 6 5 10 11 10 14 0 39 25 39 39 0 6 7 11 16 11 8 0 37 23 64 50 27 28 51 50
55 50 9 0 55 48 55 57 0 5 9 15 20 23 11 8 20 21 20 28 0 8 14 27 30 42 17 15
30 37 30 49 0 12 5 21 11 21 16 0 39 26 39 44 0 9 5 16 10 16 6 0 10 9 10 20
0 11 5 20 10 20 6 0 10 9 10 20 0 11 5 20 10 20 6 0 10 11 10 25 0 14 5 25 10
25 6 0 10 14 10 30 0 17 5 30 10 30 6 0 10 9 10 20 0 11 5 20 10 20 6 0 10 20
10 45 0 33 4 45 15 45 12 0 15 14 15 65 0 37 4 65 10 65 6 0 10 35 10 85 l0
85 3465 0 3465 0 0 -85z"/>
<path d="M5300 4610 c0 -5 -25 -10 -55 -10 -30 0 -55 -4 -55 -10 0 -5 -20 -10
-45 -10 -33 0 -45 -4 -45 -15 0 -10 -10 -15 -30 -15 -16 0 -30 -4 -30 -10 0
-5 -9 -10 -20 -10 -11 0 -20 -4 -20 -10 0 -5 -9 -10 -20 -10 -11 0 -20 -4 -20
-10 0 -5 -11 -10 -25 -10 -14 0 -25 -4 -25 -10 0 -5 -9 -10 -20 -10 -11 0 -20
-4 -20 -10 0 -5 -9 -10 -20 -10 -11 0 -20 -4 -20 -10 0 -5 -9 -10 -20 -10 -11
0 -20 -7 -20 -15 0 -8 -6 -15 -13 -15 -7 0 -19 -9 -27 -20 -8 -11 -21 -20 -28
-20 -7 0 -31 -18 -52 -40 -21 -22 -41 -40 -45 -40 -8 0 -35 -27 -35 -35 0 -3
-27 -33 -60 -65 -33 -32 -60 -66 -60 -74 0 -9 -7 -16 -15 -16 -8 0 -15 -6 -15
-13 0 -7 -9 -19 -20 -27 -11 -8 -20 -21 -20 -30 0 -9 -9 -22 -20 -30 -11 -8
-20 -22 -20 -32 0 -10 -4 -18 -10 -18 -5 0 -10 -11 -10 -25 0 -14 -4 -25 -10
-25 -5 0 -10 -9 -10 -20 0 -11 -4 -20 -10 -20 -5 0 -10 -9 -10 -20 0 -11 -7
-20 -15 -20 -8 0 -15 -9 -15 -20 0 -11 -4 -20 -10 -20 -5 0 -10 -11 -10 -25 0
-14 -4 -25 -10 -25 -5 0 -10 -13 -10 -30 0 -16 -4 -30 -10 -30 -5 0 -10 -9
-10 -20 0 -11 -4 -20 -10 -20 -5 0 -10 -20 -10 -45 0 -25 -4 -45 -10 -45 -5 0
-10 -13 -10 -30 0 -16 -4 -30 -10 -30 -5 0 -10 -25 -10 -55 0 -30 -4 -55 -10
-55 -6 0 -10 -32 -10 -75 0 -60 -3 -75 -15 -75 -13 0 -15 -28 -15 -190 0 -162
2 -190 15 -190 12 0 15 -15 15 -75 0 -43 4 -75 10 -75 6 0 10 -22 10 -50 0
-27 5 -50 10 -50 6 0 10 -16 10 -35 0 -19 5 -35 10 -35 6 0 10 -18 10 -40 0
-22 5 -40 10 -40 6 0 10 -11 10 -25 0 -14 5 -25 10 -25 6 0 10 -13 10 -30 0
-16 5 -30 10 -30 6 0 10 -9 10 -20 0 -11 5 -20 10 -20 6 0 10 -11 10 -25 0
-16 6 -25 15 -25 8 0 15 -9 15 -20 0 -11 5 -20 10 -20 6 0 10 -9 10 -20 0 -11
5 -20 10 -20 6 0 10 -9 10 -20 0 -11 5 -20 10 -20 6 0 10 -10 10 -23 0 -12 9
-29 20 -37 11 -8 20 -20 20 -28 0 -15 45 -62 60 -62 5 0 10 -9 10 -20 0 -11 5
-20 10 -20 6 0 10 -5 10 -10 0 -11 125 -140 136 -140 7 0 34 -27 34 -35 0 -11
49 -55 62 -55 8 0 20 -9 28 -20 8 -11 20 -20 27 -20 7 0 13 -4 13 -10 0 -5 9
-10 20 -10 11 0 20 -4 20 -10 0 -5 9 -10 20 -10 11 0 20 -4 20 -10 0 -5 9 -10
20 -10 11 0 20 -7 20 -15 0 -9 9 -15 25 -15 14 0 25 -4 25 -10 0 -5 9 -10 20
-10 11 0 20 -4 20 -10 0 -5 9 -10 20 -10 11 0 20 -4 20 -10 0 -5 14 -10 30
-10 17 0 30 -4 30 -10 0 -5 20 -10 45 -10 25 0 45 -4 45 -10 0 -5 25 -10 55
-10 30 0 55 -4 55 -10 0 -6 55 -10 145 -10 90 0 145 4 145 10 0 6 25 10 55 10
30 0 55 5 55 10 0 6 18 10 40 10 22 0 40 5 40 10 0 6 16 10 35 10 19 0 35 5
35 10 0 6 9 10 20 10 11 0 20 5 20 10 0 6 9 10 20 10 11 0 20 5 20 10 0 6 11
10 25 10 16 0 25 6 25 15 0 8 9 15 20 15 11 0 20 5 20 10 0 6 9 10 20 10 11 0
20 5 20 10 0 6 9 10 20 10 11 0 20 5 20 10 0 6 6 10 13 10 7 0 19 9 27 20 8
11 20 20 28 20 13 0 62 43 62 55 0 8 47 55 55 55 10 0 115 109 115 120 0 5 5
10 10 10 6 0 10 7 10 16 0 15 23 44 35 44 12 0 35 28 35 42 0 8 9 20 20 28 11
8 20 25 20 37 0 13 5 23 10 23 6 0 10 9 10 20 0 11 5 20 10 20 6 0 10 9 10 20
0 11 5 20 10 20 6 0 10 9 10 20 0 11 5 20 10 20 6 0 10 11 10 25 0 16 6 25 15
25 8 0 15 9 15 20 0 11 5 20 10 20 6 0 10 14 10 30 0 17 5 30 10 30 6 0 10 11
10 25 0 14 5 25 10 25 6 0 10 18 10 40 0 22 5 40 10 40 6 0 10 20 10 45 0 25
5 45 10 45 6 0 10 18 10 40 0 22 5 40 10 40 6 0 10 32 10 75 0 43 4 75 10 75
6 0 10 67 10 180 0 113 -4 180 -10 180 -6 0 -10 35 -10 85 0 50 -4 85 -10 85
-5 0 -10 25 -10 55 0 30 -4 55 -10 55 -5 0 -10 14 -10 30 0 17 -4 30 -10 30
-5 0 -10 20 -10 45 0 25 -4 45 -10 45 -5 0 -10 9 -10 20 0 11 -4 20 -10 20 -5
0 -10 14 -10 30 0 17 -4 30 -10 30 -5 0 -10 11 -10 25 0 16 -6 25 -15 25 -8 0
-15 9 -15 20 0 11 -4 20 -10 20 -5 0 -10 9 -10 20 0 11 -4 20 -10 20 -5 0 -10
9 -10 20 0 11 -4 20 -10 20 -5 0 -10 11 -10 25 0 14 -4 25 -10 25 -5 0 -10 8
-10 18 0 10 -9 24 -20 32 -11 8 -20 20 -20 28 0 16 -24 42 -39 42 -6 0 -11 7
-11 15 0 8 -4 15 -10 15 -5 0 -10 7 -10 16 0 8 -27 42 -60 74 -33 32 -60 64
-60 69 0 6 -5 11 -11 11 -6 0 -32 23 -59 50 -27 28 -55 50 -62 50 -8 0 -20 9
-28 20 -8 11 -20 20 -27 20 -7 0 -13 7 -13 15 0 8 -9 15 -20 15 -11 0 -20 5
-20 10 0 6 -9 10 -20 10 -11 0 -20 5 -20 10 0 6 -9 10 -20 10 -11 0 -20 5 -20
10 0 6 -11 10 -25 10 -14 0 -25 5 -25 10 0 6 -9 10 -20 10 -11 0 -20 5 -20 10
0 6 -9 10 -20 10 -11 0 -20 5 -20 10 0 6 -16 10 -35 10 -24 0 -35 5 -35 15 0
11 -11 15 -40 15 -22 0 -40 5 -40 10 0 6 -25 10 -55 10 -30 0 -55 5 -55 10 0
6 -55 10 -145 10 -90 0 -145 -4 -145 -10z"/>
</g>
</svg>
