<svg width="22" height="23" viewBox="0 0 22 23" fill="none" xmlns="http://www.w3.org/2000/svg">
<path d="M5.44 16.6391V15.8891L5.43789 15.8891L5.44 16.6391ZM11.75 16.6491C11.75 16.2349 11.4142 15.8991 11 15.8991C10.5858 15.8991 10.25 16.2349 10.25 16.6491H11.75ZM10.25 21.4291C10.25 21.8433 10.5858 22.1791 11 22.1791C11.4142 22.1791 11.75 21.8433 11.75 21.4291H10.25ZM1 11.6791C0.585786 11.6791 0.25 12.0149 0.25 12.4291C0.25 12.8433 0.585786 13.1791 1 13.1791V11.6791ZM21 13.1791C21.4142 13.1791 21.75 12.8433 21.75 12.4291C21.75 12.0149 21.4142 11.6791 21 11.6791V13.1791ZM6.5 20.6791C6.08579 20.6791 5.75 21.0149 5.75 21.4291C5.75 21.8433 6.08579 22.1791 6.5 22.1791V20.6791ZM15.5 22.1791C15.9142 22.1791 16.25 21.8433 16.25 21.4291C16.25 21.0149 15.9142 20.6791 15.5 20.6791V22.1791ZM5.44 2.17908H16.55V0.679077H5.44V2.17908ZM16.55 2.17908C18.3353 2.17908 19.1511 2.42036 19.5802 2.84865C20.0088 3.27644 20.25 4.08908 20.25 5.86908H21.75C21.75 4.09908 21.5462 2.69172 20.6398 1.787C19.7339 0.88279 18.3247 0.679077 16.55 0.679077V2.17908ZM20.25 5.86908V12.1991H21.75V5.86908H20.25ZM20.25 12.1991C20.25 13.9847 20.0085 14.7969 19.5814 15.2232C19.1539 15.65 18.3414 15.8891 16.56 15.8891V17.3891C18.3286 17.3891 19.7361 17.1882 20.6411 16.2849C21.5465 15.3812 21.75 13.9734 21.75 12.1991H20.25ZM16.56 15.8891H5.44V17.3891H16.56V15.8891ZM5.43789 15.8891C3.65785 15.8941 2.8456 15.6545 2.41858 15.2282C1.99134 14.8018 1.75 13.9894 1.75 12.2091H0.25C0.25 13.9788 0.453661 15.3863 1.35892 16.2899C2.2644 17.1937 3.67215 17.3941 5.44211 17.3891L5.43789 15.8891ZM1.75 12.2091V5.86908H0.25V12.2091H1.75ZM1.75 5.86908C1.75 4.08915 1.9912 3.27604 2.41908 2.84816C2.84696 2.42028 3.66007 2.17908 5.44 2.17908V0.679077C3.66993 0.679077 2.26304 0.882876 1.35842 1.7875C0.453799 2.69212 0.25 4.09901 0.25 5.86908H1.75ZM10.25 16.6491V21.4291H11.75V16.6491H10.25ZM1 13.1791H21V11.6791H1V13.1791ZM6.5 22.1791H15.5V20.6791H6.5V22.1791Z" fill="#1E2D56"/>
</svg>
