<svg width="20" height="19" viewBox="0 0 20 19" fill="none" xmlns="http://www.w3.org/2000/svg">
<path fill-rule="evenodd" clip-rule="evenodd" d="M7.19042 0.120667C7.06261 0.134509 6.94185 0.1776 6.82828 0.23783C6.30017 0.517906 5.9197 0.797983 5.59899 1.07806C5.19083 1.4345 4.84916 1.89652 4.6753 2.40976C4.51663 2.87819 4.35966 3.5715 4.35966 4.5254V7.30938C4.35966 7.8469 3.92935 8.28549 3.39193 8.29574C2.38154 8.31502 2.26679 8.33144 1.81815 8.521C1.33359 8.72572 0.812655 9.14128 0.537196 9.54287C0.362145 9.79804 0.193936 10.1504 0.0916505 10.4762C0.030905 10.6696 0 10.8712 0 11.074V13.4659V15.8382C0 16.0542 0.030459 16.2691 0.0904775 16.4766C0.244258 17.0081 0.459504 17.366 0.879751 17.7887C1.19787 18.1088 1.30453 18.1886 1.62265 18.3449C2.29482 18.6752 1.64521 18.6506 9.63484 18.6476C13.6714 18.6461 16.8335 18.6297 16.9569 18.6096C17.7362 18.4828 18.3599 18.1727 18.9179 17.6346C19.269 17.2961 19.6049 16.7898 19.7567 16.3703C20.0138 15.6597 19.9997 16.1442 19.9997 8.02544C19.9997 5.66758 19.8975 4.11453 19.7585 3.0927C19.582 1.79513 18.3212 0.514222 17.0305 0.293009C16.0447 0.124053 14.5276 0 12.1628 0C8.76546 0.00196103 7.58608 0.0778142 7.19042 0.120667ZM18.3966 8.51802V15.1701C18.3966 15.3466 18.3658 15.5218 18.3055 15.6878C18.0677 16.3428 17.6275 16.7731 16.989 16.9746C16.7891 17.0376 16.3812 17.0425 11.2078 17.043C5.92166 17.0436 5.64304 17.0402 5.67021 16.9752C5.78255 16.7067 5.88553 16.3418 5.921 16.0869C5.94935 15.8831 5.96276 13.5087 5.96276 8.69292V4.59908C5.96276 2.94222 7.3059 1.59907 8.96276 1.59907H12.1797H15.3966C17.0534 1.59907 18.3966 2.94222 18.3966 4.59908V8.51802ZM8.56342 5.00602C8.20503 5.08989 7.98697 5.35002 7.9657 5.71901C7.94802 6.02485 8.05895 6.25827 8.30235 6.42742C8.41273 6.50412 8.54392 6.54523 8.67834 6.54523H11.2217H13.7678C13.9004 6.54523 14.0297 6.50426 14.1381 6.42793C14.71 6.02508 14.5413 5.15034 13.8636 5.005C13.6119 4.951 8.7945 4.95194 8.56342 5.00602ZM8.58641 8.83524C8.23416 8.90562 7.99389 9.16849 7.96515 9.51496C7.93465 9.88312 8.09825 10.1838 8.40491 10.3231C8.5545 10.391 8.75485 10.3949 12.1654 10.3957L15.5329 10.3965C15.6873 10.3966 15.8394 10.3592 15.9763 10.2877C16.145 10.1996 16.2055 10.1392 16.2936 9.97043C16.5133 9.54984 16.3789 9.1265 15.9528 8.89722C15.8501 8.84195 15.7354 8.81293 15.6188 8.81273L12.2774 8.80693C10.342 8.80361 8.68099 8.81632 8.58641 8.83524ZM4.35078 12.9683L4.34111 15.7569C4.34045 15.9486 4.29608 16.1377 4.21139 16.3097C4.06574 16.6055 3.85554 16.8103 3.55232 16.9517C3.39173 17.0267 3.27705 17.0475 2.98537 17.0544C2.66095 17.0622 2.59542 17.0516 2.40465 16.9605C2.08567 16.8083 1.87868 16.608 1.73182 16.3096C1.64714 16.1376 1.6031 15.9484 1.6031 15.7567V13.4668V11.1013C1.6031 10.9592 1.63573 10.819 1.69847 10.6915C1.86656 10.35 2.17001 10.0737 2.51765 9.94576C2.61798 9.90881 2.90506 9.89302 3.51013 9.89102C3.9794 9.88951 4.36016 10.2704 4.35853 10.7396L4.35078 12.9683ZM8.58641 12.433C8.23244 12.5025 7.99393 12.7651 7.96472 13.1176C7.93215 13.5102 8.14994 13.8549 8.49382 13.9549C8.59603 13.9846 9.45693 13.9941 11.3063 13.986L13.7652 13.9752C13.8996 13.9746 14.0307 13.9332 14.1411 13.8564C14.3855 13.6865 14.4954 13.4541 14.4775 13.1448C14.466 12.9449 14.4427 12.8761 14.3457 12.7564C14.1742 12.5445 14.0627 12.4745 13.8263 12.4301C13.5675 12.3817 8.83485 12.3842 8.58641 12.433Z" fill="white"/>
</svg>
