<svg version="1.0" xmlns="http://www.w3.org/2000/svg"
 width="1200.000000pt" height="1200.000000pt" viewBox="0 0 1200.000000 1200.000000"
 preserveAspectRatio="xMidYMid meet">

<g transform="translate(0.000000,1200.000000) scale(0.100000,-0.100000)"
fill="#000000" stroke="none">
<path d="M2750 11889 c-94 -24 -214 -82 -305 -146 -38 -28 -167 -135 -286
-239 -119 -104 -265 -227 -325 -274 -125 -99 -337 -305 -446 -435 -480 -575
-756 -1243 -833 -2014 -29 -296 -17 -733 30 -1047 211 -1424 1076 -2969 2609
-4664 195 -216 781 -800 971 -970 988 -878 1908 -1422 2828 -1674 407 -112
724 -155 1128 -156 343 0 600 30 906 105 253 63 454 136 698 255 328 159 614
356 860 591 55 52 190 174 300 270 110 97 233 210 272 253 325 348 308 741
-52 1191 -152 189 -272 305 -720 691 -358 308 -466 393 -649 515 -264 176
-522 288 -746 324 -285 45 -557 -23 -807 -201 -115 -83 -567 -479 -633 -555
-270 -311 -485 -430 -775 -431 -176 0 -319 34 -520 125 -466 210 -1052 717
-1700 1472 -662 772 -1025 1359 -1156 1870 -32 123 -33 140 -34 305 0 199 10
250 76 387 77 161 194 281 441 451 151 104 611 503 698 605 191 225 270 434
270 716 0 269 -79 543 -256 886 -76 147 -136 249 -361 603 -322 509 -438 666
-633 863 -197 199 -361 300 -548 338 -82 17 -217 12 -302 -10z"/>
</g>
</svg>
