<svg width="22" height="22" viewBox="0 0 22 22" fill="none" xmlns="http://www.w3.org/2000/svg">
<path d="M16.5 16.9712C16.9142 16.9712 17.25 16.6354 17.25 16.2212C17.25 15.807 16.9142 15.4712 16.5 15.4712V16.9712ZM14.65 15.4712C14.2358 15.4712 13.9 15.807 13.9 16.2212C13.9 16.6354 14.2358 16.9712 14.65 16.9712V15.4712ZM11.97 16.9712C12.3842 16.9712 12.72 16.6354 12.72 16.2212C12.72 15.807 12.3842 15.4712 11.97 15.4712V16.9712ZM5.5 15.4712C5.08579 15.4712 4.75 15.807 4.75 16.2212C4.75 16.6354 5.08579 16.9712 5.5 16.9712V15.4712ZM16.5 13.2114C16.9142 13.2114 17.25 12.8756 17.25 12.4614C17.25 12.0472 16.9142 11.7114 16.5 11.7114V13.2114ZM10.97 11.7114C10.5558 11.7114 10.22 12.0472 10.22 12.4614C10.22 12.8756 10.5558 13.2114 10.97 13.2114V11.7114ZM8.27 13.2114C8.68421 13.2114 9.02 12.8756 9.02 12.4614C9.02 12.0472 8.68421 11.7114 8.27 11.7114V13.2114ZM5.5 11.7114C5.08579 11.7114 4.75 12.0472 4.75 12.4614C4.75 12.8756 5.08579 13.2114 5.5 13.2114V11.7114ZM10.5 5.218L10.7688 4.5178C10.7 4.4914 10.6277 4.47528 10.5542 4.46996L10.5 5.218ZM12.6351 6.03749L13.0751 5.43015C13.0223 5.39188 12.9647 5.36067 12.9038 5.3373L12.6351 6.03749ZM10.5 8.76914L10.5542 9.51719C10.5874 9.51478 10.6204 9.51017 10.653 9.50337L10.5 8.76914ZM8 21.8911H14V20.3911H8V21.8911ZM14 21.8911C16.574 21.8911 18.5709 21.3809 19.9053 20.0464C21.2398 18.712 21.75 16.7151 21.75 14.1411H20.25C20.25 16.5671 19.7602 18.0703 18.8447 18.9858C17.9291 19.9013 16.426 20.3911 14 20.3911V21.8911ZM21.75 14.1411V8.14111H20.25V14.1411H21.75ZM21.75 8.14111C21.75 5.56714 21.2398 3.57025 19.9053 2.23578C18.5709 0.901314 16.574 0.391113 14 0.391113V1.89111C16.426 1.89111 17.9291 2.38091 18.8447 3.29644C19.7602 4.21197 20.25 5.71509 20.25 8.14111H21.75ZM14 0.391113H8V1.89111H14V0.391113ZM8 0.391113C5.42603 0.391113 3.42914 0.901314 2.09467 2.23578C0.760201 3.57025 0.25 5.56714 0.25 8.14111H1.75C1.75 5.71509 2.2398 4.21197 3.15533 3.29644C4.07086 2.38091 5.57397 1.89111 8 1.89111V0.391113ZM0.25 8.14111V14.1411H1.75V8.14111H0.25ZM0.25 14.1411C0.25 16.7151 0.760201 18.712 2.09467 20.0464C3.42914 21.3809 5.42603 21.8911 8 21.8911V20.3911C5.57397 20.3911 4.07086 19.9013 3.15533 18.9858C2.2398 18.0703 1.75 16.5671 1.75 14.1411H0.25ZM16.5 15.4712H14.65V16.9712H16.5V15.4712ZM11.97 15.4712H5.5V16.9712H11.97V15.4712ZM16.5 11.7114H10.97V13.2114H16.5V11.7114ZM8.27 11.7114H5.5V13.2114H8.27V11.7114ZM9.9294 6.17408C9.9294 6.12216 9.93732 6.09733 9.93992 6.09027C9.94227 6.0839 9.94384 6.08204 9.94567 6.07999C9.95275 6.07204 9.98522 6.04304 10.072 6.01476C10.1567 5.98717 10.2539 5.97325 10.3388 5.96813C10.379 5.9657 10.4115 5.96554 10.4316 5.96585C10.4416 5.96601 10.4482 5.96627 10.4508 5.96639C10.4521 5.96645 10.4524 5.96648 10.4516 5.96643C10.4512 5.96641 10.4506 5.96636 10.4496 5.9663C10.4491 5.96627 10.4486 5.96623 10.4479 5.96619C10.4476 5.96617 10.4473 5.96614 10.4469 5.96612C10.4468 5.96611 10.4465 5.96609 10.4464 5.96608C10.4461 5.96606 10.4458 5.96604 10.5 5.218C10.5542 4.46996 10.5539 4.46993 10.5536 4.46991C10.5535 4.4699 10.5531 4.46988 10.5529 4.46987C10.5525 4.46984 10.5521 4.46981 10.5516 4.46977C10.5506 4.46971 10.5496 4.46964 10.5485 4.46956C10.5463 4.46942 10.5437 4.46925 10.5408 4.46908C10.535 4.46874 10.5279 4.46835 10.5195 4.46797C10.5028 4.4672 10.481 4.46644 10.4549 4.46603C10.4028 4.46523 10.3321 4.46581 10.2485 4.47085C10.0858 4.48067 9.85283 4.50858 9.60738 4.58854C9.36403 4.66782 9.06635 4.81212 8.82581 5.08203C8.57184 5.36702 8.4294 5.73912 8.4294 6.17408H9.9294ZM12.195 6.64484C12.3975 6.79154 12.4294 6.92684 12.4294 6.99357C12.4294 7.0603 12.3975 7.1956 12.195 7.3423L13.0751 8.557C13.5984 8.17785 13.9294 7.62 13.9294 6.99357C13.9294 6.36714 13.5984 5.80929 13.0751 5.43015L12.195 6.64484ZM10.5 8.76914C10.4458 8.0211 10.4461 8.02108 10.4464 8.02106C10.4465 8.02106 10.4468 8.02104 10.4469 8.02102C10.4473 8.021 10.4476 8.02098 10.4479 8.02095C10.4486 8.02091 10.4491 8.02087 10.4496 8.02084C10.4506 8.02078 10.4512 8.02074 10.4516 8.02071C10.4524 8.02067 10.4521 8.02069 10.4508 8.02075C10.4482 8.02087 10.4416 8.02113 10.4316 8.02129C10.4115 8.0216 10.379 8.02144 10.3388 8.01901C10.2539 8.01389 10.1567 7.99997 10.072 7.97238C9.98522 7.9441 9.95275 7.9151 9.94567 7.90716C9.94384 7.9051 9.94227 7.90324 9.93992 7.89687C9.93732 7.88982 9.9294 7.86499 9.9294 7.81307H8.4294C8.4294 8.24802 8.57184 8.62012 8.82581 8.90511C9.06635 9.17503 9.36403 9.31932 9.60738 9.3986C9.85283 9.47856 10.0858 9.50647 10.2485 9.51629C10.3321 9.52133 10.4028 9.52192 10.4549 9.52111C10.481 9.5207 10.5028 9.51994 10.5195 9.51917C10.5279 9.51879 10.535 9.5184 10.5408 9.51806C10.5437 9.51789 10.5463 9.51772 10.5485 9.51758C10.5496 9.5175 10.5506 9.51743 10.5516 9.51737C10.5521 9.51734 10.5525 9.5173 10.5529 9.51727C10.5531 9.51726 10.5535 9.51724 10.5536 9.51723C10.5539 9.51721 10.5542 9.51719 10.5 8.76914ZM9.9294 7.81307V6.17408H8.4294V7.81307H9.9294ZM10.2312 5.91819L12.3663 6.73769L12.9038 5.3373L10.7688 4.5178L10.2312 5.91819ZM12.195 7.3423C11.936 7.52995 11.5009 7.70591 11.0706 7.84105C10.8667 7.9051 10.6828 7.95426 10.5502 7.9873C10.4842 8.00375 10.4315 8.01605 10.3962 8.02406C10.3785 8.02806 10.3653 8.03097 10.3569 8.03279C10.3527 8.0337 10.3498 8.03433 10.3481 8.03469C10.3472 8.03486 10.3467 8.03497 10.3466 8.03501C10.3465 8.03503 10.3465 8.03503 10.3465 8.03501C10.3466 8.03501 10.3466 8.03499 10.3467 8.03498C10.3467 8.03497 10.3468 8.03495 10.3468 8.03495C10.3469 8.03493 10.347 8.03491 10.5 8.76914C10.653 9.50337 10.6531 9.50335 10.6532 9.50333C10.6532 9.50332 10.6533 9.5033 10.6534 9.50328C10.6536 9.50325 10.6538 9.50321 10.654 9.50317C10.6544 9.50308 10.6549 9.50297 10.6555 9.50285C10.6567 9.5026 10.6582 9.50228 10.66 9.50189C10.6638 9.5011 10.6688 9.50002 10.6751 9.49865C10.6877 9.49591 10.7055 9.492 10.7278 9.48694C10.7724 9.47683 10.8355 9.46208 10.9129 9.44279C11.0672 9.40434 11.281 9.34722 11.5201 9.27213C11.9759 9.12898 12.6083 8.89519 13.0751 8.557L12.195 7.3423Z" fill="#1E2D56"/>
</svg>
