<svg width="22" height="22" viewBox="0 0 22 22" fill="none" xmlns="http://www.w3.org/2000/svg">
<path d="M19.7008 17.43L20.4466 17.5099L20.4475 17.5L19.7008 17.43ZM20.4508 9.43L19.7052 9.3475L19.7041 9.35999L20.4508 9.43ZM1.0508 9.43L1.79763 9.35999L1.79625 9.34751L1.0508 9.43ZM1.8008 17.43L1.05401 17.5L1.05507 17.5099L1.8008 17.43ZM6.0008 5C6.0008 5.41421 6.33659 5.75 6.7508 5.75C7.16502 5.75 7.5008 5.41421 7.5008 5H6.0008ZM14.0008 5C14.0008 5.41421 14.3366 5.75 14.7508 5.75C15.165 5.75 15.5008 5.41421 15.5008 5H14.0008ZM20.8419 10.6066C21.1769 10.3629 21.251 9.89386 21.0074 9.55887C20.7637 9.22388 20.2947 9.14982 19.9597 9.39345L20.8419 10.6066ZM1.79441 9.65109C1.4526 9.41713 0.985844 9.50457 0.75189 9.84639C0.517936 10.1882 0.605375 10.655 0.947192 10.8889L1.79441 9.65109ZM6.7508 21.75H14.7508V20.25H6.7508V21.75ZM14.7508 21.75C16.8377 21.75 18.2493 21.3361 19.1604 20.5037C20.0784 19.6651 20.3364 18.538 20.4465 17.5099L18.9551 17.3501C18.8552 18.282 18.6483 18.9399 18.1487 19.3963C17.6423 19.8589 16.684 20.25 14.7508 20.25V21.75ZM20.4475 17.5L21.1975 9.50001L19.7041 9.35999L18.9541 17.36L20.4475 17.5ZM21.1963 9.51249C21.3378 8.23371 21.2555 6.8614 20.3773 5.81723C19.4919 4.76457 17.9738 4.25 15.7508 4.25V5.75C17.7978 5.75 18.7648 6.23043 19.2293 6.78277C19.7011 7.3436 19.8339 8.18629 19.7054 9.34751L21.1963 9.51249ZM15.7508 4.25H5.7508V5.75H15.7508V4.25ZM5.7508 4.25C3.52777 4.25 2.00975 4.76457 1.12434 5.81723C0.246069 6.8614 0.163849 8.23371 0.305353 9.51249L1.79625 9.34751C1.66776 8.18629 1.80054 7.3436 2.27226 6.78277C2.73685 6.23043 3.70384 5.75 5.7508 5.75V4.25ZM0.304078 9.50001L1.05408 17.5L2.54753 17.36L1.79753 9.35999L0.304078 9.50001ZM1.05507 17.5099C1.16522 18.538 1.42325 19.6651 2.34119 20.5037C3.25233 21.3361 4.66395 21.75 6.7508 21.75V20.25C4.81765 20.25 3.85927 19.8589 3.35292 19.3963C2.85335 18.9399 2.64638 18.282 2.54654 17.3501L1.05507 17.5099ZM7.5008 5V4.2H6.0008V5H7.5008ZM7.5008 4.2C7.5008 3.74554 7.50201 3.37577 7.54449 3.05038C7.58609 2.73174 7.66095 2.51724 7.76778 2.36267C7.95105 2.09751 8.42129 1.75 9.9508 1.75V0.25C8.28031 0.25 7.15056 0.617491 6.53382 1.50983C6.24065 1.93401 6.11551 2.40889 6.05711 2.85619C5.9996 3.29673 6.0008 3.76946 6.0008 4.2H7.5008ZM9.9508 1.75H11.5508V0.25H9.9508V1.75ZM11.5508 1.75C13.0803 1.75 13.5506 2.09751 13.7338 2.36267C13.8407 2.51724 13.9155 2.73174 13.9571 3.05038C13.9996 3.37577 14.0008 3.74554 14.0008 4.2H15.5008C15.5008 3.76946 15.502 3.29673 15.4445 2.85619C15.3861 2.40889 15.261 1.93401 14.9678 1.50983C14.351 0.617491 13.2213 0.25 11.5508 0.25V1.75ZM14.0008 4.2V5H15.5008V4.2H14.0008ZM12.0008 12V13H13.5008V12H12.0008ZM12.0008 13C12.0008 13 12.0008 13 12.0008 13.0001C12.0008 13.0001 12.0008 13.0001 12.0008 13.0001C12.0008 13.0001 12.0008 13.0002 12.0008 13.0002C12.0008 13.0002 12.0008 13.0002 12.0008 13.0002C12.0008 13.0003 12.0008 13.0003 12.0008 13.0003C12.0008 13.0003 12.0008 13.0003 12.0008 13.0003C12.0008 13.0004 12.0008 13.0004 12.0008 13.0004C12.0008 13.0004 12.0008 13.0004 12.0008 13.0005C12.0008 13.0005 12.0008 13.0005 12.0008 13.0005C12.0008 13.0005 12.0008 13.0006 12.0008 13.0006C12.0008 13.0006 12.0008 13.0006 12.0008 13.0006C12.0008 13.0006 12.0008 13.0007 12.0008 13.0007C12.0008 13.0007 12.0008 13.0007 12.0008 13.0007C12.0008 13.0008 12.0008 13.0008 12.0008 13.0008C12.0008 13.0008 12.0008 13.0008 12.0008 13.0009C12.0008 13.0009 12.0008 13.0009 12.0008 13.0009C12.0008 13.0009 12.0008 13.0009 12.0008 13.001C12.0008 13.001 12.0008 13.001 12.0008 13.001C12.0008 13.001 12.0008 13.0011 12.0008 13.0011C12.0008 13.0011 12.0008 13.0011 12.0008 13.0011C12.0008 13.0011 12.0008 13.0012 12.0008 13.0012C12.0008 13.0012 12.0008 13.0012 12.0008 13.0012C12.0008 13.0013 12.0008 13.0013 12.0008 13.0013C12.0008 13.0013 12.0008 13.0013 12.0008 13.0013C12.0008 13.0014 12.0008 13.0014 12.0008 13.0014C12.0008 13.0014 12.0008 13.0014 12.0008 13.0014C12.0008 13.0015 12.0008 13.0015 12.0008 13.0015C12.0008 13.0015 12.0008 13.0015 12.0008 13.0016C12.0008 13.0016 12.0008 13.0016 12.0008 13.0016C12.0008 13.0016 12.0008 13.0016 12.0008 13.0017C12.0008 13.0017 12.0008 13.0017 12.0008 13.0017C12.0008 13.0017 12.0008 13.0017 12.0008 13.0018C12.0008 13.0018 12.0008 13.0018 12.0008 13.0018C12.0008 13.0018 12.0008 13.0018 12.0008 13.0019C12.0008 13.0019 12.0008 13.0019 12.0008 13.0019C12.0008 13.0019 12.0008 13.002 12.0008 13.002C12.0008 13.002 12.0008 13.002 12.0008 13.002C12.0008 13.002 12.0008 13.0021 12.0008 13.0021C12.0008 13.0021 12.0008 13.0021 12.0008 13.0021C12.0008 13.0021 12.0008 13.0022 12.0008 13.0022C12.0008 13.0022 12.0008 13.0022 12.0008 13.0022C12.0008 13.0022 12.0008 13.0023 12.0008 13.0023C12.0008 13.0023 12.0008 13.0023 12.0008 13.0023C12.0008 13.0023 12.0008 13.0024 12.0008 13.0024C12.0008 13.0024 12.0008 13.0024 12.0008 13.0024C12.0008 13.0024 12.0008 13.0025 12.0008 13.0025C12.0008 13.0025 12.0008 13.0025 12.0008 13.0025C12.0008 13.0025 12.0008 13.0025 12.0008 13.0026C12.0008 13.0026 12.0008 13.0026 12.0008 13.0026C12.0008 13.0026 12.0008 13.0026 12.0008 13.0027C12.0008 13.0027 12.0008 13.0027 12.0008 13.0027C12.0008 13.0027 12.0008 13.0027 12.0008 13.0028C12.0008 13.0028 12.0008 13.0028 12.0008 13.0028C12.0008 13.0028 12.0008 13.0028 12.0008 13.0029C12.0008 13.0029 12.0008 13.0029 12.0008 13.0029C12.0008 13.0029 12.0008 13.0029 12.0008 13.0029C12.0008 13.003 12.0008 13.003 12.0008 13.003C12.0008 13.003 12.0008 13.003 12.0008 13.003C12.0008 13.0031 12.0008 13.0031 12.0008 13.0031C12.0008 13.0031 12.0008 13.0031 12.0008 13.0031C12.0008 13.0032 12.0008 13.0032 12.0008 13.0032C12.0008 13.0032 12.0008 13.0032 12.0008 13.0032C12.0008 13.0032 12.0008 13.0033 12.0008 13.0033C12.0008 13.0033 12.0008 13.0033 12.0008 13.0033C12.0008 13.0033 12.0008 13.0034 12.0008 13.0034C12.0008 13.0034 12.0008 13.0034 12.0008 13.0034C12.0008 13.0034 12.0008 13.0034 12.0008 13.0035C12.0008 13.0035 12.0008 13.0035 12.0008 13.0035C12.0008 13.0035 12.0008 13.0035 12.0008 13.0035C12.0008 13.0036 12.0008 13.0036 12.0008 13.0036C12.0008 13.0036 12.0008 13.0036 12.0008 13.0036C12.0008 13.0037 12.0008 13.0037 12.0008 13.0037C12.0008 13.0037 12.0008 13.0037 12.0008 13.0037C12.0008 13.0037 12.0008 13.0038 12.0008 13.0038C12.0008 13.0038 12.0008 13.0038 12.0008 13.0038C12.0008 13.0038 12.0008 13.0038 12.0008 13.0039C12.0008 13.0039 12.0008 13.0039 12.0008 13.0039C12.0008 13.0039 12.0008 13.0039 12.0008 13.0039C12.0008 13.004 12.0008 13.004 12.0008 13.004C12.0008 13.004 12.0008 13.004 12.0008 13.004C12.0008 13.004 12.0008 13.0041 12.0008 13.0041C12.0008 13.0041 12.0008 13.0041 12.0008 13.0041C12.0008 13.0041 12.0008 13.0041 12.0008 13.0042C12.0008 13.0042 12.0008 13.0042 12.0008 13.0042C12.0008 13.0042 12.0008 13.0042 12.0008 13.0042C12.0008 13.0043 12.0008 13.0043 12.0008 13.0043C12.0008 13.0043 12.0008 13.0043 12.0008 13.0043C12.0008 13.0043 12.0008 13.0044 12.0008 13.0044C12.0008 13.0044 12.0008 13.0044 12.0008 13.0044C12.0008 13.0044 12.0008 13.0044 12.0008 13.0045C12.0008 13.0045 12.0008 13.0045 12.0008 13.0045C12.0008 13.0045 12.0008 13.0045 12.0008 13.0045C12.0008 13.0046 12.0008 13.0046 12.0008 13.0046C12.0008 13.0046 12.0008 13.0046 12.0008 13.0046C12.0008 13.0046 12.0008 13.0046 12.0008 13.0047C12.0008 13.0047 12.0008 13.0047 12.0008 13.0047C12.0008 13.0047 12.0008 13.0047 12.0008 13.0047C12.0008 13.0048 12.0008 13.0048 12.0008 13.0048C12.0008 13.0048 12.0008 13.0048 12.0008 13.0048C12.0008 13.0048 12.0008 13.0049 12.0008 13.0049C12.0008 13.0049 12.0008 13.0049 12.0008 13.0049C12.0008 13.0049 12.0008 13.0049 12.0008 13.0049C12.0008 13.005 12.0008 13.005 12.0008 13.005C12.0008 13.005 12.0008 13.005 12.0008 13.005C12.0008 13.005 12.0008 13.005 12.0008 13.0051C12.0008 13.0051 12.0008 13.0051 12.0008 13.0051C12.0008 13.0051 12.0008 13.0051 12.0008 13.0051C12.0008 13.0052 12.0008 13.0052 12.0008 13.0052C12.0008 13.0052 12.0008 13.0052 12.0008 13.0052C12.0008 13.0052 12.0008 13.0052 12.0008 13.0053C12.0008 13.0053 12.0008 13.0053 12.0008 13.0053C12.0008 13.0053 12.0008 13.0053 12.0008 13.0053C12.0008 13.0053 12.0008 13.0054 12.0008 13.0054C12.0008 13.0054 12.0008 13.0054 12.0008 13.0054C12.0008 13.0054 12.0008 13.0054 12.0008 13.0055C12.0008 13.0055 12.0008 13.0055 12.0008 13.0055C12.0008 13.0055 12.0008 13.0055 12.0008 13.0055C12.0008 13.0055 12.0008 13.0056 12.0008 13.0056C12.0008 13.0056 12.0008 13.0056 12.0008 13.0056C12.0008 13.0056 12.0008 13.0056 12.0008 13.0056C12.0008 13.0057 12.0008 13.0057 12.0008 13.0057C12.0008 13.0057 12.0008 13.0057 12.0008 13.0057C12.0008 13.0057 12.0008 13.0057 12.0008 13.0058C12.0008 13.0058 12.0008 13.0058 12.0008 13.0058C12.0008 13.0058 12.0008 13.0058 12.0008 13.0058C12.0008 13.0058 12.0008 13.0059 12.0008 13.0059C12.0008 13.0059 12.0008 13.0059 12.0008 13.0059C12.0008 13.0059 12.0008 13.0059 12.0008 13.0059C12.0008 13.0059 12.0008 13.006 12.0008 13.006C12.0008 13.006 12.0008 13.006 12.0008 13.006C12.0008 13.006 12.0008 13.006 12.0008 13.006C12.0008 13.0061 12.0008 13.0061 12.0008 13.0061C12.0008 13.0061 12.0008 13.0061 12.0008 13.0061C12.0008 13.0061 12.0008 13.0061 12.0008 13.0062C12.0008 13.0062 12.0008 13.0062 12.0008 13.0062C12.0008 13.0062 12.0008 13.0062 12.0008 13.0062C12.0008 13.0062 12.0008 13.0063 12.0008 13.0063C12.0008 13.0063 12.0008 13.0063 12.0008 13.0063C12.0008 13.0063 12.0008 13.0063 12.0008 13.0063C12.0008 13.0063 12.0008 13.0064 12.0008 13.0064C12.0008 13.0064 12.0008 13.0064 12.0008 13.0064C12.0008 13.0064 12.0008 13.0064 12.0008 13.0064C12.0008 13.0065 12.0008 13.0065 12.0008 13.0065C12.0008 13.0065 12.0008 13.0065 12.0008 13.0065C12.0008 13.0065 12.0008 13.0065 12.0008 13.0065C12.0008 13.0066 12.0008 13.0066 12.0008 13.0066C12.0008 13.0066 12.0008 13.0066 12.0008 13.0066C12.0008 13.0066 12.0008 13.0066 12.0008 13.0066C12.0008 13.0067 12.0008 13.0067 12.0008 13.0067C12.0008 13.0067 12.0008 13.0067 12.0008 13.0067C12.0008 13.0067 12.0008 13.0067 12.0008 13.0068C12.0008 13.0068 12.0008 13.0068 12.0008 13.0068C12.0008 13.0068 12.0008 13.0068 12.0008 13.0068C12.0008 13.0068 12.0008 13.0068 12.0008 13.0069C12.0008 13.0069 12.0008 13.0069 12.0008 13.0069C12.0008 13.0069 12.0008 13.0069 12.0008 13.0069C12.0008 13.0069 12.0008 13.0069 12.0008 13.007C12.0008 13.007 12.0008 13.007 12.0008 13.007C12.0008 13.007 12.0008 13.007 12.0008 13.007C12.0008 13.007 12.0008 13.007 12.0008 13.0071C12.0008 13.0071 12.0008 13.0071 12.0008 13.0071C12.0008 13.0071 12.0008 13.0071 12.0008 13.0071C12.0008 13.0071 12.0008 13.0071 12.0008 13.0072C12.0008 13.0072 12.0008 13.0072 12.0008 13.0072C12.0008 13.0072 12.0008 13.0072 12.0008 13.0072C12.0008 13.0072 12.0008 13.0072 12.0008 13.0073C12.0008 13.0073 12.0008 13.0073 12.0008 13.0073C12.0008 13.0073 12.0008 13.0073 12.0008 13.0073C12.0008 13.0073 12.0008 13.0073 12.0008 13.0074C12.0008 13.0074 12.0008 13.0074 12.0008 13.0074C12.0008 13.0074 12.0008 13.0074 12.0008 13.0074C12.0008 13.0074 12.0008 13.0074 12.0008 13.0075C12.0008 13.0075 12.0008 13.0075 12.0008 13.0075C12.0008 13.0075 12.0008 13.0075 12.0008 13.0075C12.0008 13.0075 12.0008 13.0075 12.0008 13.0075C12.0008 13.0076 12.0008 13.0076 12.0008 13.0076C12.0008 13.0076 12.0008 13.0076 12.0008 13.0076C12.0008 13.0076 12.0008 13.0076 12.0008 13.0076C12.0008 13.0077 12.0008 13.0077 12.0008 13.0077C12.0008 13.0077 12.0008 13.0077 12.0008 13.0077C12.0008 13.0077 12.0008 13.0077 12.0008 13.0077C12.0008 13.0078 12.0008 13.0078 12.0008 13.0078C12.0008 13.0078 12.0008 13.0078 12.0008 13.0078C12.0008 13.0078 12.0008 13.0078 12.0008 13.0078C12.0008 13.0078 12.0008 13.0079 12.0008 13.0079C12.0008 13.0079 12.0008 13.0079 12.0008 13.0079C12.0008 13.0079 12.0008 13.0079 12.0008 13.0079C12.0008 13.0079 12.0008 13.008 12.0008 13.008C12.0008 13.008 12.0008 13.008 12.0008 13.008C12.0008 13.008 12.0008 13.008 12.0008 13.008C12.0008 13.008 12.0008 13.008 12.0008 13.0081C12.0008 13.0081 12.0008 13.0081 12.0008 13.0081C12.0008 13.0081 12.0008 13.0081 12.0008 13.0081C12.0008 13.0081 12.0008 13.0081 12.0008 13.0081C12.0008 13.0082 12.0008 13.0082 12.0008 13.0082C12.0008 13.0082 12.0008 13.0082 12.0008 13.0082C12.0008 13.0082 12.0008 13.0082 12.0008 13.0082C12.0008 13.0083 12.0008 13.0083 12.0008 13.0083C12.0008 13.0083 12.0008 13.0083 12.0008 13.0083C12.0008 13.0083 12.0008 13.0083 12.0008 13.0083C12.0008 13.0083 12.0008 13.0084 12.0008 13.0084C12.0008 13.0084 12.0008 13.0084 12.0008 13.0084C12.0008 13.0084 12.0008 13.0084 12.0008 13.0084C12.0008 13.0084 12.0008 13.0084 12.0008 13.0085C12.0008 13.0085 12.0008 13.0085 12.0008 13.0085C12.0008 13.0085 12.0008 13.0085 12.0008 13.0085C12.0008 13.0085 12.0008 13.0085 12.0008 13.0085C12.0008 13.0086 12.0008 13.0086 12.0008 13.0086C12.0008 13.0086 12.0008 13.0086 12.0008 13.0086C12.0008 13.0086 12.0008 13.0086 12.0008 13.0086C12.0008 13.0086 12.0008 13.0087 12.0008 13.0087C12.0008 13.0087 12.0008 13.0087 12.0008 13.0087C12.0008 13.0087 12.0008 13.0087 12.0008 13.0087C12.0008 13.0087 12.0008 13.0087 12.0008 13.0088C12.0008 13.0088 12.0008 13.0088 12.0008 13.0088C12.0008 13.0088 12.0008 13.0088 12.0008 13.0088C12.0008 13.0088 12.0008 13.0088 12.0008 13.0088C12.0008 13.0089 12.0008 13.0089 12.0008 13.0089C12.0008 13.0089 12.0008 13.0089 12.0008 13.0089C12.0008 13.0089 12.0008 13.0089 12.0008 13.0089C12.0008 13.0089 12.0008 13.009 12.0008 13.009C12.0008 13.009 12.0008 13.009 12.0008 13.009C12.0008 13.009 12.0008 13.009 12.0008 13.009C12.0008 13.009 12.0008 13.009 12.0008 13.0091C12.0008 13.0091 12.0008 13.0091 12.0008 13.0091C12.0008 13.0091 12.0008 13.0091 12.0008 13.0091C12.0008 13.0091 12.0008 13.0091 12.0008 13.0091C12.0008 13.0092 12.0008 13.0092 12.0008 13.0092C12.0008 13.0092 12.0008 13.0092 12.0008 13.0092C12.0008 13.0092 12.0008 13.0092 12.0008 13.0092C12.0008 13.0092 12.0008 13.0093 12.0008 13.0093C12.0008 13.0093 12.0008 13.0093 12.0008 13.0093C12.0008 13.0093 12.0008 13.0093 12.0008 13.0093C12.0008 13.0093 12.0008 13.0093 12.0008 13.0094C12.0008 13.0094 12.0008 13.0094 12.0008 13.0094C12.0008 13.0094 12.0008 13.0094 12.0008 13.0094C12.0008 13.0094 12.0008 13.0094 12.0008 13.0094C12.0008 13.0095 12.0008 13.0095 12.0008 13.0095C12.0008 13.0095 12.0008 13.0095 12.0008 13.0095C12.0008 13.0095 12.0008 13.0095 12.0008 13.0095C12.0008 13.0095 12.0008 13.0096 12.0008 13.0096C12.0008 13.0096 12.0008 13.0096 12.0008 13.0096C12.0008 13.0096 12.0008 13.0096 12.0008 13.0096C12.0008 13.0096 12.0008 13.0096 12.0008 13.0096C12.0008 13.0097 12.0008 13.0097 12.0008 13.0097C12.0008 13.0097 12.0008 13.0097 12.0008 13.0097C12.0008 13.0097 12.0008 13.0097 12.0008 13.0097C12.0008 13.0097 12.0008 13.0098 12.0008 13.0098C12.0008 13.0098 12.0008 13.0098 12.0008 13.0098C12.0008 13.0098 12.0008 13.0098 12.0008 13.0098C12.0008 13.0098 12.0008 13.0098 12.0008 13.0099C12.0008 13.0099 12.0008 13.0099 12.0008 13.0099C12.0008 13.0099 12.0008 13.0099 12.0008 13.0099C12.0008 13.0099 12.0008 13.0099 12.0008 13.0099C12.0008 13.01 12.0008 13.01 12.0008 13.01C12.0008 13.01 12.0008 13.01 12.0008 13.01C12.0008 13.01 12.0008 13.01 12.0008 13.01C12.0008 13.01 12.0008 13.01 12.0008 13.0101C12.0008 13.0101 12.0008 13.0101 12.0008 13.0101C12.0008 13.0101 12.0008 13.0101 12.0008 13.0101C12.0008 13.0101 12.0008 13.0101 12.0008 13.0101C12.0008 13.0102 12.0008 13.0102 12.0008 13.0102C12.0008 13.0102 12.0008 13.0102 12.0008 13.0102C12.0008 13.0102 12.0008 13.0102 12.0008 13.0102C12.0008 13.0102 12.0008 13.0103 12.0008 13.0103C12.0008 13.0103 12.0008 13.0103 12.0008 13.0103C12.0008 13.0103 12.0008 13.0103 12.0008 13.0103C12.0008 13.0103 12.0008 13.0103 12.0008 13.0104C12.0008 13.0104 12.0008 13.0104 12.0008 13.0104C12.0008 13.0104 12.0008 13.0104 12.0008 13.0104C12.0008 13.0104 12.0008 13.0104 12.0008 13.0104C12.0008 13.0105 12.0008 13.0105 12.0008 13.0105C12.0008 13.0105 12.0008 13.0105 12.0008 13.0105C12.0008 13.0105 12.0008 13.0105 12.0008 13.0105C12.0008 13.0105 12.0008 13.0105 12.0008 13.0106C12.0008 13.0106 12.0008 13.0106 12.0008 13.0106C12.0008 13.0106 12.0008 13.0106 12.0008 13.0106C12.0008 13.0106 12.0008 13.0106 12.0008 13.0106C12.0008 13.0107 12.0008 13.0107 12.0008 13.0107C12.0008 13.0107 12.0008 13.0107 12.0008 13.0107C12.0008 13.0107 12.0008 13.0107 12.0008 13.0107C12.0008 13.0107 12.0008 13.0108 12.0008 13.0108C12.0008 13.0108 12.0008 13.0108 12.0008 13.0108C12.0008 13.0108 12.0008 13.0108 12.0008 13.0108C12.0008 13.0108 12.0008 13.0108 12.0008 13.0109C12.0008 13.0109 12.0008 13.0109 12.0008 13.0109C12.0008 13.0109 12.0008 13.0109 12.0008 13.0109C12.0008 13.0109 12.0008 13.0109 12.0008 13.0109C12.0008 13.011 12.0008 13.011 12.0008 13.011C12.0008 13.011 12.0008 13.011 12.0008 13.011C12.0008 13.011 12.0008 13.011 12.0008 13.011C12.0008 13.011 12.0008 13.0111 12.0008 13.0111C12.0008 13.0111 12.0008 13.0111 12.0008 13.0111C12.0008 13.0111 12.0008 13.0111 12.0008 13.0111C12.0008 13.0111 12.0008 13.0111 12.0008 13.0112C12.0008 13.0112 12.0008 13.0112 12.0008 13.0112C12.0008 13.0112 12.0008 13.0112 12.0008 13.0112C12.0008 13.0112 12.0008 13.0112 12.0008 13.0112C12.0008 13.0113 12.0008 13.0113 12.0008 13.0113C12.0008 13.0113 12.0008 13.0113 12.0008 13.0113C12.0008 13.0113 12.0008 13.0113 12.0008 13.0113C12.0008 13.0113 12.0008 13.0114 12.0008 13.0114C12.0008 13.0114 12.0008 13.0114 12.0008 13.0114C12.0008 13.0114 12.0008 13.0114 12.0008 13.0114C12.0008 13.0114 12.0008 13.0114 12.0008 13.0115C12.0008 13.0115 12.0008 13.0115 12.0008 13.0115C12.0008 13.0115 12.0008 13.0115 12.0008 13.0115C12.0008 13.0115 12.0008 13.0115 12.0008 13.0115C12.0008 13.0116 12.0008 13.0116 12.0008 13.0116C12.0008 13.0116 12.0008 13.0116 12.0008 13.0116C12.0008 13.0116 12.0008 13.0116 12.0008 13.0116C12.0008 13.0116 12.0008 13.0117 12.0008 13.0117C12.0008 13.0117 12.0008 13.0117 12.0008 13.0117C12.0008 13.0117 12.0008 13.0117 12.0008 13.0117C12.0008 13.0117 12.0008 13.0117 12.0008 13.0118C12.0008 13.0118 12.0008 13.0118 12.0008 13.0118C12.0008 13.0118 12.0008 13.0118 12.0008 13.0118C12.0008 13.0118 12.0008 13.0118 12.0008 13.0119C12.0008 13.0119 12.0008 13.0119 12.0008 13.0119C12.0008 13.0119 12.0008 13.0119 12.0008 13.0119C12.0008 13.0119 12.0008 13.0119 12.0008 13.0119C12.0008 13.012 12.0008 13.012 12.0008 13.012C12.0008 13.012 12.0008 13.012 12.0008 13.012C12.0008 13.012 12.0008 13.012 12.0008 13.012C12.0008 13.012 12.0008 13.0121 12.0008 13.0121C12.0008 13.0121 12.0008 13.0121 12.0008 13.0121C12.0008 13.0121 12.0008 13.0121 12.0008 13.0121C12.0008 13.0121 12.0008 13.0122 12.0008 13.0122C12.0008 13.0122 12.0008 13.0122 12.0008 13.0122C12.0008 13.0122 12.0008 13.0122 12.0008 13.0122C12.0008 13.0122 12.0008 13.0122 12.0008 13.0123C12.0008 13.0123 12.0008 13.0123 12.0008 13.0123C12.0008 13.0123 12.0008 13.0123 12.0008 13.0123C12.0008 13.0123 12.0008 13.0123 12.0008 13.0124C12.0008 13.0124 12.0008 13.0124 12.0008 13.0124C12.0008 13.0124 12.0008 13.0124 12.0008 13.0124C12.0008 13.0124 12.0008 13.0124 12.0008 13.0125C12.0008 13.0125 12.0008 13.0125 12.0008 13.0125C12.0008 13.0125 12.0008 13.0125 12.0008 13.0125C12.0008 13.0125 12.0008 13.0125 12.0008 13.0125C12.0008 13.0126 12.0008 13.0126 12.0008 13.0126C12.0008 13.0126 12.0008 13.0126 12.0008 13.0126C12.0008 13.0126 12.0008 13.0126 12.0008 13.0126C12.0008 13.0127 12.0008 13.0127 12.0008 13.0127C12.0008 13.0127 12.0008 13.0127 12.0008 13.0127C12.0008 13.0127 12.0008 13.0127 12.0008 13.0127C12.0008 13.0128 12.0008 13.0128 12.0008 13.0128C12.0008 13.0128 12.0008 13.0128 12.0008 13.0128C12.0008 13.0128 12.0008 13.0128 12.0008 13.0128C12.0008 13.0129 12.0008 13.0129 12.0008 13.0129C12.0008 13.0129 12.0008 13.0129 12.0008 13.0129C12.0008 13.0129 12.0008 13.0129 12.0008 13.0129C12.0008 13.013 12.0008 13.013 12.0008 13.013C12.0008 13.013 12.0008 13.013 12.0008 13.013C12.0008 13.013 12.0008 13.013 12.0008 13.013C12.0008 13.0131 12.0008 13.0131 12.0008 13.0131C12.0008 13.0131 12.0008 13.0131 12.0008 13.0131C12.0008 13.0131 12.0008 13.0131 12.0008 13.0131C12.0008 13.0132 12.0008 13.0132 12.0008 13.0132C12.0008 13.0132 12.0008 13.0132 12.0008 13.0132C12.0008 13.0132 12.0008 13.0132 12.0008 13.0132C12.0008 13.0133 12.0008 13.0133 12.0008 13.0133C12.0008 13.0133 12.0008 13.0133 12.0008 13.0133C12.0008 13.0133 12.0008 13.0133 12.0008 13.0134C12.0008 13.0134 12.0008 13.0134 12.0008 13.0134C12.0008 13.0134 12.0008 13.0134 12.0008 13.0134C12.0008 13.0134 12.0008 13.0134 12.0008 13.0135C12.0008 13.0135 12.0008 13.0135 12.0008 13.0135C12.0008 13.0135 12.0008 13.0135 12.0008 13.0135C12.0008 13.0135 12.0008 13.0135 12.0008 13.0136C12.0008 13.0136 12.0008 13.0136 12.0008 13.0136C12.0008 13.0136 12.0008 13.0136 12.0008 13.0136C12.0008 13.0136 12.0008 13.0137 12.0008 13.0137C12.0008 13.0137 12.0008 13.0137 12.0008 13.0137C12.0008 13.0137 12.0008 13.0137 12.0008 13.0137C12.0008 13.0138 12.0008 13.0138 12.0008 13.0138C12.0008 13.0138 12.0008 13.0138 12.0008 13.0138C12.0008 13.0138 12.0008 13.0138 12.0008 13.0138C12.0008 13.0139 12.0008 13.0139 12.0008 13.0139C12.0008 13.0139 12.0008 13.0139 12.0008 13.0139C12.0008 13.0139 12.0008 13.0139 12.0008 13.014C12.0008 13.014 12.0008 13.014 12.0008 13.014C12.0008 13.014 12.0008 13.014 12.0008 13.014C12.0008 13.014 12.0008 13.0141 12.0008 13.0141C12.0008 13.0141 12.0008 13.0141 12.0008 13.0141C12.0008 13.0141 12.0008 13.0141 12.0008 13.0141C12.0008 13.0141 12.0008 13.0142 12.0008 13.0142C12.0008 13.0142 12.0008 13.0142 12.0008 13.0142C12.0008 13.0142 12.0008 13.0142 12.0008 13.0142C12.0008 13.0143 12.0008 13.0143 12.0008 13.0143C12.0008 13.0143 12.0008 13.0143 12.0008 13.0143C12.0008 13.0143 12.0008 13.0143 12.0008 13.0144C12.0008 13.0144 12.0008 13.0144 12.0008 13.0144C12.0008 13.0144 12.0008 13.0144 12.0008 13.0144C12.0008 13.0144 12.0008 13.0145 12.0008 13.0145C12.0008 13.0145 12.0008 13.0145 12.0008 13.0145C12.0008 13.0145 12.0008 13.0145 12.0008 13.0145C12.0008 13.0146 12.0008 13.0146 12.0008 13.0146C12.0008 13.0146 12.0008 13.0146 12.0008 13.0146C12.0008 13.0146 12.0008 13.0147 12.0008 13.0147C12.0008 13.0147 12.0008 13.0147 12.0008 13.0147C12.0008 13.0147 12.0008 13.0147 12.0008 13.0147C12.0008 13.0148 12.0008 13.0148 12.0008 13.0148C12.0008 13.0148 12.0008 13.0148 12.0008 13.0148C12.0008 13.0148 12.0008 13.0148 12.0008 13.0149C12.0008 13.0149 12.0008 13.0149 12.0008 13.0149C12.0008 13.0149 12.0008 13.0149 12.0008 13.0149C12.0008 13.015 12.0008 13.015 12.0008 13.015C12.0008 13.015 12.0008 13.015 12.0008 13.015C12.0008 13.015 12.0008 13.015 12.0008 13.0151C12.0008 13.0151 12.0008 13.0151 12.0008 13.0151C12.0008 13.0151 12.0008 13.0151 12.0008 13.0151C12.0008 13.0152 12.0008 13.0152 12.0008 13.0152C12.0008 13.0152 12.0008 13.0152 12.0008 13.0152C12.0008 13.0152 12.0008 13.0152 12.0008 13.0153C12.0008 13.0153 12.0008 13.0153 12.0008 13.0153C12.0008 13.0153 12.0008 13.0153 12.0008 13.0153C12.0008 13.0154 12.0008 13.0154 12.0008 13.0154C12.0008 13.0154 12.0008 13.0154 12.0008 13.0154C12.0008 13.0154 12.0008 13.0154 12.0008 13.0155C12.0008 13.0155 12.0008 13.0155 12.0008 13.0155C12.0008 13.0155 12.0008 13.0155 12.0008 13.0155C12.0008 13.0156 12.0008 13.0156 12.0008 13.0156C12.0008 13.0156 12.0008 13.0156 12.0008 13.0156C12.0008 13.0156 12.0008 13.0157 12.0008 13.0157C12.0008 13.0157 12.0008 13.0157 12.0008 13.0157C12.0008 13.0157 12.0008 13.0157 12.0008 13.0158C12.0008 13.0158 12.0008 13.0158 12.0008 13.0158C12.0008 13.0158 12.0008 13.0158 12.0008 13.0158C12.0008 13.0159 12.0008 13.0159 12.0008 13.0159C12.0008 13.0159 12.0008 13.0159 12.0008 13.0159C12.0008 13.0159 12.0008 13.016 12.0008 13.016C12.0008 13.016 12.0008 13.016 12.0008 13.016C12.0008 13.016 12.0008 13.016 12.0008 13.0161C12.0008 13.0161 12.0008 13.0161 12.0008 13.0161C12.0008 13.0161 12.0008 13.0161 12.0008 13.0161C12.0008 13.0162 12.0008 13.0162 12.0008 13.0162C12.0008 13.0162 12.0008 13.0162 12.0008 13.0162C12.0008 13.0162 12.0008 13.0163 12.0008 13.0163C12.0008 13.0163 12.0008 13.0163 12.0008 13.0163C12.0008 13.0163 12.0008 13.0163 12.0008 13.0164C12.0008 13.0164 12.0008 13.0164 12.0008 13.0164C12.0008 13.0164 12.0008 13.0164 12.0008 13.0165C12.0008 13.0165 12.0008 13.0165 12.0008 13.0165C12.0008 13.0165 12.0008 13.0165 12.0008 13.0165C12.0008 13.0166 12.0008 13.0166 12.0008 13.0166C12.0008 13.0166 12.0008 13.0166 12.0008 13.0166C12.0008 13.0166 12.0008 13.0167 12.0008 13.0167C12.0008 13.0167 12.0008 13.0167 12.0008 13.0167C12.0008 13.0167 12.0008 13.0168 12.0008 13.0168C12.0008 13.0168 12.0008 13.0168 12.0008 13.0168C12.0008 13.0168 12.0008 13.0168 12.0008 13.0169C12.0008 13.0169 12.0008 13.0169 12.0008 13.0169C12.0008 13.0169 12.0008 13.0169 12.0008 13.017C12.0008 13.017 12.0008 13.017 12.0008 13.017C12.0008 13.017 12.0008 13.017 12.0008 13.0171C12.0008 13.0171 12.0008 13.0171 12.0008 13.0171C12.0008 13.0171 12.0008 13.0171 12.0008 13.0171C12.0008 13.0172 12.0008 13.0172 12.0008 13.0172C12.0008 13.0172 12.0008 13.0172 12.0008 13.0172C12.0008 13.0173 12.0008 13.0173 12.0008 13.0173C12.0008 13.0173 12.0008 13.0173 12.0008 13.0173C12.0008 13.0174 12.0008 13.0174 12.0008 13.0174C12.0008 13.0174 12.0008 13.0174 12.0008 13.0174C12.0008 13.0175 12.0008 13.0175 12.0008 13.0175C12.0008 13.0175 12.0008 13.0175 12.0008 13.0175C12.0008 13.0175 12.0008 13.0176 12.0008 13.0176C12.0008 13.0176 12.0008 13.0176 12.0008 13.0176C12.0008 13.0176 12.0008 13.0177 12.0008 13.0177C12.0008 13.0177 12.0008 13.0177 12.0008 13.0177C12.0008 13.0177 12.0008 13.0178 12.0008 13.0178C12.0008 13.0178 12.0008 13.0178 12.0008 13.0178C12.0008 13.0178 12.0008 13.0179 12.0008 13.0179C12.0008 13.0179 12.0008 13.0179 12.0008 13.0179C12.0008 13.0179 12.0008 13.018 12.0008 13.018C12.0008 13.018 12.0008 13.018 12.0008 13.018C12.0008 13.018 12.0008 13.0181 12.0008 13.0181C12.0008 13.0181 12.0008 13.0181 12.0008 13.0181C12.0008 13.0182 12.0008 13.0182 12.0008 13.0182C12.0008 13.0182 12.0008 13.0182 12.0008 13.0182C12.0008 13.0183 12.0008 13.0183 12.0008 13.0183C12.0008 13.0183 12.0008 13.0183 12.0008 13.0183C12.0008 13.0184 12.0008 13.0184 12.0008 13.0184C12.0008 13.0184 12.0008 13.0184 12.0008 13.0184C12.0008 13.0185 12.0008 13.0185 12.0008 13.0185C12.0008 13.0185 12.0008 13.0185 12.0008 13.0186C12.0008 13.0186 12.0008 13.0186 12.0008 13.0186C12.0008 13.0186 12.0008 13.0186 12.0008 13.0187C12.0008 13.0187 12.0008 13.0187 12.0008 13.0187C12.0008 13.0187 12.0008 13.0187 12.0008 13.0188C12.0008 13.0188 12.0008 13.0188 12.0008 13.0188C12.0008 13.0188 12.0008 13.0189 12.0008 13.0189C12.0008 13.0189 12.0008 13.0189 12.0008 13.0189C12.0008 13.0189 12.0008 13.019 12.0008 13.019C12.0008 13.019 12.0008 13.019 12.0008 13.019C12.0008 13.0191 12.0008 13.0191 12.0008 13.0191C12.0008 13.0191 12.0008 13.0191 12.0008 13.0191C12.0008 13.0192 12.0008 13.0192 12.0008 13.0192C12.0008 13.0192 12.0008 13.0192 12.0008 13.0193C12.0008 13.0193 12.0008 13.0193 12.0008 13.0193C12.0008 13.0193 12.0008 13.0194 12.0008 13.0194C12.0008 13.0194 12.0008 13.0194 12.0008 13.0194C12.0008 13.0194 12.0008 13.0195 12.0008 13.0195C12.0008 13.0195 12.0008 13.0195 12.0008 13.0195C12.0008 13.0196 12.0008 13.0196 12.0008 13.0196C12.0008 13.0196 12.0008 13.0196 12.0008 13.0197C12.0008 13.0197 12.0008 13.0197 12.0008 13.0197C12.0008 13.0197 12.0008 13.0197 12.0008 13.0198C12.0008 13.0198 12.0008 13.0198 12.0008 13.0198C12.0008 13.0198 12.0008 13.0199 12.0008 13.0199C12.0008 13.0199 12.0008 13.0199 12.0008 13.0199C12.0008 13.02 12.0008 13.02 12.0008 13.02H13.5008C13.5008 13.02 13.5008 13.02 13.5008 13.0199C13.5008 13.0199 13.5008 13.0199 13.5008 13.0199C13.5008 13.0199 13.5008 13.0198 13.5008 13.0198C13.5008 13.0198 13.5008 13.0198 13.5008 13.0198C13.5008 13.0197 13.5008 13.0197 13.5008 13.0197C13.5008 13.0197 13.5008 13.0197 13.5008 13.0197C13.5008 13.0196 13.5008 13.0196 13.5008 13.0196C13.5008 13.0196 13.5008 13.0196 13.5008 13.0195C13.5008 13.0195 13.5008 13.0195 13.5008 13.0195C13.5008 13.0195 13.5008 13.0194 13.5008 13.0194C13.5008 13.0194 13.5008 13.0194 13.5008 13.0194C13.5008 13.0194 13.5008 13.0193 13.5008 13.0193C13.5008 13.0193 13.5008 13.0193 13.5008 13.0193C13.5008 13.0192 13.5008 13.0192 13.5008 13.0192C13.5008 13.0192 13.5008 13.0192 13.5008 13.0191C13.5008 13.0191 13.5008 13.0191 13.5008 13.0191C13.5008 13.0191 13.5008 13.0191 13.5008 13.019C13.5008 13.019 13.5008 13.019 13.5008 13.019C13.5008 13.019 13.5008 13.0189 13.5008 13.0189C13.5008 13.0189 13.5008 13.0189 13.5008 13.0189C13.5008 13.0189 13.5008 13.0188 13.5008 13.0188C13.5008 13.0188 13.5008 13.0188 13.5008 13.0188C13.5008 13.0187 13.5008 13.0187 13.5008 13.0187C13.5008 13.0187 13.5008 13.0187 13.5008 13.0187C13.5008 13.0186 13.5008 13.0186 13.5008 13.0186C13.5008 13.0186 13.5008 13.0186 13.5008 13.0186C13.5008 13.0185 13.5008 13.0185 13.5008 13.0185C13.5008 13.0185 13.5008 13.0185 13.5008 13.0184C13.5008 13.0184 13.5008 13.0184 13.5008 13.0184C13.5008 13.0184 13.5008 13.0184 13.5008 13.0183C13.5008 13.0183 13.5008 13.0183 13.5008 13.0183C13.5008 13.0183 13.5008 13.0183 13.5008 13.0182C13.5008 13.0182 13.5008 13.0182 13.5008 13.0182C13.5008 13.0182 13.5008 13.0182 13.5008 13.0181C13.5008 13.0181 13.5008 13.0181 13.5008 13.0181C13.5008 13.0181 13.5008 13.018 13.5008 13.018C13.5008 13.018 13.5008 13.018 13.5008 13.018C13.5008 13.018 13.5008 13.0179 13.5008 13.0179C13.5008 13.0179 13.5008 13.0179 13.5008 13.0179C13.5008 13.0179 13.5008 13.0178 13.5008 13.0178C13.5008 13.0178 13.5008 13.0178 13.5008 13.0178C13.5008 13.0178 13.5008 13.0177 13.5008 13.0177C13.5008 13.0177 13.5008 13.0177 13.5008 13.0177C13.5008 13.0177 13.5008 13.0176 13.5008 13.0176C13.5008 13.0176 13.5008 13.0176 13.5008 13.0176C13.5008 13.0176 13.5008 13.0175 13.5008 13.0175C13.5008 13.0175 13.5008 13.0175 13.5008 13.0175C13.5008 13.0175 13.5008 13.0175 13.5008 13.0174C13.5008 13.0174 13.5008 13.0174 13.5008 13.0174C13.5008 13.0174 13.5008 13.0174 13.5008 13.0173C13.5008 13.0173 13.5008 13.0173 13.5008 13.0173C13.5008 13.0173 13.5008 13.0173 13.5008 13.0172C13.5008 13.0172 13.5008 13.0172 13.5008 13.0172C13.5008 13.0172 13.5008 13.0172 13.5008 13.0171C13.5008 13.0171 13.5008 13.0171 13.5008 13.0171C13.5008 13.0171 13.5008 13.0171 13.5008 13.0171C13.5008 13.017 13.5008 13.017 13.5008 13.017C13.5008 13.017 13.5008 13.017 13.5008 13.017C13.5008 13.0169 13.5008 13.0169 13.5008 13.0169C13.5008 13.0169 13.5008 13.0169 13.5008 13.0169C13.5008 13.0168 13.5008 13.0168 13.5008 13.0168C13.5008 13.0168 13.5008 13.0168 13.5008 13.0168C13.5008 13.0168 13.5008 13.0167 13.5008 13.0167C13.5008 13.0167 13.5008 13.0167 13.5008 13.0167C13.5008 13.0167 13.5008 13.0166 13.5008 13.0166C13.5008 13.0166 13.5008 13.0166 13.5008 13.0166C13.5008 13.0166 13.5008 13.0166 13.5008 13.0165C13.5008 13.0165 13.5008 13.0165 13.5008 13.0165C13.5008 13.0165 13.5008 13.0165 13.5008 13.0165C13.5008 13.0164 13.5008 13.0164 13.5008 13.0164C13.5008 13.0164 13.5008 13.0164 13.5008 13.0164C13.5008 13.0163 13.5008 13.0163 13.5008 13.0163C13.5008 13.0163 13.5008 13.0163 13.5008 13.0163C13.5008 13.0163 13.5008 13.0162 13.5008 13.0162C13.5008 13.0162 13.5008 13.0162 13.5008 13.0162C13.5008 13.0162 13.5008 13.0162 13.5008 13.0161C13.5008 13.0161 13.5008 13.0161 13.5008 13.0161C13.5008 13.0161 13.5008 13.0161 13.5008 13.0161C13.5008 13.016 13.5008 13.016 13.5008 13.016C13.5008 13.016 13.5008 13.016 13.5008 13.016C13.5008 13.016 13.5008 13.0159 13.5008 13.0159C13.5008 13.0159 13.5008 13.0159 13.5008 13.0159C13.5008 13.0159 13.5008 13.0159 13.5008 13.0158C13.5008 13.0158 13.5008 13.0158 13.5008 13.0158C13.5008 13.0158 13.5008 13.0158 13.5008 13.0158C13.5008 13.0157 13.5008 13.0157 13.5008 13.0157C13.5008 13.0157 13.5008 13.0157 13.5008 13.0157C13.5008 13.0157 13.5008 13.0156 13.5008 13.0156C13.5008 13.0156 13.5008 13.0156 13.5008 13.0156C13.5008 13.0156 13.5008 13.0156 13.5008 13.0155C13.5008 13.0155 13.5008 13.0155 13.5008 13.0155C13.5008 13.0155 13.5008 13.0155 13.5008 13.0155C13.5008 13.0154 13.5008 13.0154 13.5008 13.0154C13.5008 13.0154 13.5008 13.0154 13.5008 13.0154C13.5008 13.0154 13.5008 13.0154 13.5008 13.0153C13.5008 13.0153 13.5008 13.0153 13.5008 13.0153C13.5008 13.0153 13.5008 13.0153 13.5008 13.0153C13.5008 13.0152 13.5008 13.0152 13.5008 13.0152C13.5008 13.0152 13.5008 13.0152 13.5008 13.0152C13.5008 13.0152 13.5008 13.0152 13.5008 13.0151C13.5008 13.0151 13.5008 13.0151 13.5008 13.0151C13.5008 13.0151 13.5008 13.0151 13.5008 13.0151C13.5008 13.015 13.5008 13.015 13.5008 13.015C13.5008 13.015 13.5008 13.015 13.5008 13.015C13.5008 13.015 13.5008 13.015 13.5008 13.0149C13.5008 13.0149 13.5008 13.0149 13.5008 13.0149C13.5008 13.0149 13.5008 13.0149 13.5008 13.0149C13.5008 13.0148 13.5008 13.0148 13.5008 13.0148C13.5008 13.0148 13.5008 13.0148 13.5008 13.0148C13.5008 13.0148 13.5008 13.0148 13.5008 13.0147C13.5008 13.0147 13.5008 13.0147 13.5008 13.0147C13.5008 13.0147 13.5008 13.0147 13.5008 13.0147C13.5008 13.0147 13.5008 13.0146 13.5008 13.0146C13.5008 13.0146 13.5008 13.0146 13.5008 13.0146C13.5008 13.0146 13.5008 13.0146 13.5008 13.0145C13.5008 13.0145 13.5008 13.0145 13.5008 13.0145C13.5008 13.0145 13.5008 13.0145 13.5008 13.0145C13.5008 13.0145 13.5008 13.0144 13.5008 13.0144C13.5008 13.0144 13.5008 13.0144 13.5008 13.0144C13.5008 13.0144 13.5008 13.0144 13.5008 13.0144C13.5008 13.0143 13.5008 13.0143 13.5008 13.0143C13.5008 13.0143 13.5008 13.0143 13.5008 13.0143C13.5008 13.0143 13.5008 13.0143 13.5008 13.0142C13.5008 13.0142 13.5008 13.0142 13.5008 13.0142C13.5008 13.0142 13.5008 13.0142 13.5008 13.0142C13.5008 13.0142 13.5008 13.0141 13.5008 13.0141C13.5008 13.0141 13.5008 13.0141 13.5008 13.0141C13.5008 13.0141 13.5008 13.0141 13.5008 13.0141C13.5008 13.0141 13.5008 13.014 13.5008 13.014C13.5008 13.014 13.5008 13.014 13.5008 13.014C13.5008 13.014 13.5008 13.014 13.5008 13.014C13.5008 13.0139 13.5008 13.0139 13.5008 13.0139C13.5008 13.0139 13.5008 13.0139 13.5008 13.0139C13.5008 13.0139 13.5008 13.0139 13.5008 13.0138C13.5008 13.0138 13.5008 13.0138 13.5008 13.0138C13.5008 13.0138 13.5008 13.0138 13.5008 13.0138C13.5008 13.0138 13.5008 13.0138 13.5008 13.0137C13.5008 13.0137 13.5008 13.0137 13.5008 13.0137C13.5008 13.0137 13.5008 13.0137 13.5008 13.0137C13.5008 13.0137 13.5008 13.0136 13.5008 13.0136C13.5008 13.0136 13.5008 13.0136 13.5008 13.0136C13.5008 13.0136 13.5008 13.0136 13.5008 13.0136C13.5008 13.0135 13.5008 13.0135 13.5008 13.0135C13.5008 13.0135 13.5008 13.0135 13.5008 13.0135C13.5008 13.0135 13.5008 13.0135 13.5008 13.0135C13.5008 13.0134 13.5008 13.0134 13.5008 13.0134C13.5008 13.0134 13.5008 13.0134 13.5008 13.0134C13.5008 13.0134 13.5008 13.0134 13.5008 13.0134C13.5008 13.0133 13.5008 13.0133 13.5008 13.0133C13.5008 13.0133 13.5008 13.0133 13.5008 13.0133C13.5008 13.0133 13.5008 13.0133 13.5008 13.0132C13.5008 13.0132 13.5008 13.0132 13.5008 13.0132C13.5008 13.0132 13.5008 13.0132 13.5008 13.0132C13.5008 13.0132 13.5008 13.0132 13.5008 13.0131C13.5008 13.0131 13.5008 13.0131 13.5008 13.0131C13.5008 13.0131 13.5008 13.0131 13.5008 13.0131C13.5008 13.0131 13.5008 13.0131 13.5008 13.013C13.5008 13.013 13.5008 13.013 13.5008 13.013C13.5008 13.013 13.5008 13.013 13.5008 13.013C13.5008 13.013 13.5008 13.013 13.5008 13.0129C13.5008 13.0129 13.5008 13.0129 13.5008 13.0129C13.5008 13.0129 13.5008 13.0129 13.5008 13.0129C13.5008 13.0129 13.5008 13.0129 13.5008 13.0128C13.5008 13.0128 13.5008 13.0128 13.5008 13.0128C13.5008 13.0128 13.5008 13.0128 13.5008 13.0128C13.5008 13.0128 13.5008 13.0128 13.5008 13.0127C13.5008 13.0127 13.5008 13.0127 13.5008 13.0127C13.5008 13.0127 13.5008 13.0127 13.5008 13.0127C13.5008 13.0127 13.5008 13.0127 13.5008 13.0126C13.5008 13.0126 13.5008 13.0126 13.5008 13.0126C13.5008 13.0126 13.5008 13.0126 13.5008 13.0126C13.5008 13.0126 13.5008 13.0126 13.5008 13.0125C13.5008 13.0125 13.5008 13.0125 13.5008 13.0125C13.5008 13.0125 13.5008 13.0125 13.5008 13.0125C13.5008 13.0125 13.5008 13.0125 13.5008 13.0125C13.5008 13.0124 13.5008 13.0124 13.5008 13.0124C13.5008 13.0124 13.5008 13.0124 13.5008 13.0124C13.5008 13.0124 13.5008 13.0124 13.5008 13.0124C13.5008 13.0123 13.5008 13.0123 13.5008 13.0123C13.5008 13.0123 13.5008 13.0123 13.5008 13.0123C13.5008 13.0123 13.5008 13.0123 13.5008 13.0123C13.5008 13.0122 13.5008 13.0122 13.5008 13.0122C13.5008 13.0122 13.5008 13.0122 13.5008 13.0122C13.5008 13.0122 13.5008 13.0122 13.5008 13.0122C13.5008 13.0122 13.5008 13.0121 13.5008 13.0121C13.5008 13.0121 13.5008 13.0121 13.5008 13.0121C13.5008 13.0121 13.5008 13.0121 13.5008 13.0121C13.5008 13.0121 13.5008 13.012 13.5008 13.012C13.5008 13.012 13.5008 13.012 13.5008 13.012C13.5008 13.012 13.5008 13.012 13.5008 13.012C13.5008 13.012 13.5008 13.012 13.5008 13.0119C13.5008 13.0119 13.5008 13.0119 13.5008 13.0119C13.5008 13.0119 13.5008 13.0119 13.5008 13.0119C13.5008 13.0119 13.5008 13.0119 13.5008 13.0119C13.5008 13.0118 13.5008 13.0118 13.5008 13.0118C13.5008 13.0118 13.5008 13.0118 13.5008 13.0118C13.5008 13.0118 13.5008 13.0118 13.5008 13.0118C13.5008 13.0117 13.5008 13.0117 13.5008 13.0117C13.5008 13.0117 13.5008 13.0117 13.5008 13.0117C13.5008 13.0117 13.5008 13.0117 13.5008 13.0117C13.5008 13.0117 13.5008 13.0116 13.5008 13.0116C13.5008 13.0116 13.5008 13.0116 13.5008 13.0116C13.5008 13.0116 13.5008 13.0116 13.5008 13.0116C13.5008 13.0116 13.5008 13.0116 13.5008 13.0115C13.5008 13.0115 13.5008 13.0115 13.5008 13.0115C13.5008 13.0115 13.5008 13.0115 13.5008 13.0115C13.5008 13.0115 13.5008 13.0115 13.5008 13.0115C13.5008 13.0114 13.5008 13.0114 13.5008 13.0114C13.5008 13.0114 13.5008 13.0114 13.5008 13.0114C13.5008 13.0114 13.5008 13.0114 13.5008 13.0114C13.5008 13.0114 13.5008 13.0113 13.5008 13.0113C13.5008 13.0113 13.5008 13.0113 13.5008 13.0113C13.5008 13.0113 13.5008 13.0113 13.5008 13.0113C13.5008 13.0113 13.5008 13.0113 13.5008 13.0112C13.5008 13.0112 13.5008 13.0112 13.5008 13.0112C13.5008 13.0112 13.5008 13.0112 13.5008 13.0112C13.5008 13.0112 13.5008 13.0112 13.5008 13.0112C13.5008 13.0111 13.5008 13.0111 13.5008 13.0111C13.5008 13.0111 13.5008 13.0111 13.5008 13.0111C13.5008 13.0111 13.5008 13.0111 13.5008 13.0111C13.5008 13.0111 13.5008 13.011 13.5008 13.011C13.5008 13.011 13.5008 13.011 13.5008 13.011C13.5008 13.011 13.5008 13.011 13.5008 13.011C13.5008 13.011 13.5008 13.011 13.5008 13.0109C13.5008 13.0109 13.5008 13.0109 13.5008 13.0109C13.5008 13.0109 13.5008 13.0109 13.5008 13.0109C13.5008 13.0109 13.5008 13.0109 13.5008 13.0109C13.5008 13.0108 13.5008 13.0108 13.5008 13.0108C13.5008 13.0108 13.5008 13.0108 13.5008 13.0108C13.5008 13.0108 13.5008 13.0108 13.5008 13.0108C13.5008 13.0108 13.5008 13.0107 13.5008 13.0107C13.5008 13.0107 13.5008 13.0107 13.5008 13.0107C13.5008 13.0107 13.5008 13.0107 13.5008 13.0107C13.5008 13.0107 13.5008 13.0107 13.5008 13.0106C13.5008 13.0106 13.5008 13.0106 13.5008 13.0106C13.5008 13.0106 13.5008 13.0106 13.5008 13.0106C13.5008 13.0106 13.5008 13.0106 13.5008 13.0106C13.5008 13.0105 13.5008 13.0105 13.5008 13.0105C13.5008 13.0105 13.5008 13.0105 13.5008 13.0105C13.5008 13.0105 13.5008 13.0105 13.5008 13.0105C13.5008 13.0105 13.5008 13.0105 13.5008 13.0104C13.5008 13.0104 13.5008 13.0104 13.5008 13.0104C13.5008 13.0104 13.5008 13.0104 13.5008 13.0104C13.5008 13.0104 13.5008 13.0104 13.5008 13.0104C13.5008 13.0103 13.5008 13.0103 13.5008 13.0103C13.5008 13.0103 13.5008 13.0103 13.5008 13.0103C13.5008 13.0103 13.5008 13.0103 13.5008 13.0103C13.5008 13.0103 13.5008 13.0102 13.5008 13.0102C13.5008 13.0102 13.5008 13.0102 13.5008 13.0102C13.5008 13.0102 13.5008 13.0102 13.5008 13.0102C13.5008 13.0102 13.5008 13.0102 13.5008 13.0101C13.5008 13.0101 13.5008 13.0101 13.5008 13.0101C13.5008 13.0101 13.5008 13.0101 13.5008 13.0101C13.5008 13.0101 13.5008 13.0101 13.5008 13.0101C13.5008 13.01 13.5008 13.01 13.5008 13.01C13.5008 13.01 13.5008 13.01 13.5008 13.01C13.5008 13.01 13.5008 13.01 13.5008 13.01C13.5008 13.01 13.5008 13.01 13.5008 13.0099C13.5008 13.0099 13.5008 13.0099 13.5008 13.0099C13.5008 13.0099 13.5008 13.0099 13.5008 13.0099C13.5008 13.0099 13.5008 13.0099 13.5008 13.0099C13.5008 13.0098 13.5008 13.0098 13.5008 13.0098C13.5008 13.0098 13.5008 13.0098 13.5008 13.0098C13.5008 13.0098 13.5008 13.0098 13.5008 13.0098C13.5008 13.0098 13.5008 13.0097 13.5008 13.0097C13.5008 13.0097 13.5008 13.0097 13.5008 13.0097C13.5008 13.0097 13.5008 13.0097 13.5008 13.0097C13.5008 13.0097 13.5008 13.0097 13.5008 13.0096C13.5008 13.0096 13.5008 13.0096 13.5008 13.0096C13.5008 13.0096 13.5008 13.0096 13.5008 13.0096C13.5008 13.0096 13.5008 13.0096 13.5008 13.0096C13.5008 13.0096 13.5008 13.0095 13.5008 13.0095C13.5008 13.0095 13.5008 13.0095 13.5008 13.0095C13.5008 13.0095 13.5008 13.0095 13.5008 13.0095C13.5008 13.0095 13.5008 13.0095 13.5008 13.0094C13.5008 13.0094 13.5008 13.0094 13.5008 13.0094C13.5008 13.0094 13.5008 13.0094 13.5008 13.0094C13.5008 13.0094 13.5008 13.0094 13.5008 13.0094C13.5008 13.0093 13.5008 13.0093 13.5008 13.0093C13.5008 13.0093 13.5008 13.0093 13.5008 13.0093C13.5008 13.0093 13.5008 13.0093 13.5008 13.0093C13.5008 13.0093 13.5008 13.0092 13.5008 13.0092C13.5008 13.0092 13.5008 13.0092 13.5008 13.0092C13.5008 13.0092 13.5008 13.0092 13.5008 13.0092C13.5008 13.0092 13.5008 13.0092 13.5008 13.0091C13.5008 13.0091 13.5008 13.0091 13.5008 13.0091C13.5008 13.0091 13.5008 13.0091 13.5008 13.0091C13.5008 13.0091 13.5008 13.0091 13.5008 13.0091C13.5008 13.009 13.5008 13.009 13.5008 13.009C13.5008 13.009 13.5008 13.009 13.5008 13.009C13.5008 13.009 13.5008 13.009 13.5008 13.009C13.5008 13.009 13.5008 13.0089 13.5008 13.0089C13.5008 13.0089 13.5008 13.0089 13.5008 13.0089C13.5008 13.0089 13.5008 13.0089 13.5008 13.0089C13.5008 13.0089 13.5008 13.0089 13.5008 13.0088C13.5008 13.0088 13.5008 13.0088 13.5008 13.0088C13.5008 13.0088 13.5008 13.0088 13.5008 13.0088C13.5008 13.0088 13.5008 13.0088 13.5008 13.0088C13.5008 13.0087 13.5008 13.0087 13.5008 13.0087C13.5008 13.0087 13.5008 13.0087 13.5008 13.0087C13.5008 13.0087 13.5008 13.0087 13.5008 13.0087C13.5008 13.0087 13.5008 13.0086 13.5008 13.0086C13.5008 13.0086 13.5008 13.0086 13.5008 13.0086C13.5008 13.0086 13.5008 13.0086 13.5008 13.0086C13.5008 13.0086 13.5008 13.0086 13.5008 13.0085C13.5008 13.0085 13.5008 13.0085 13.5008 13.0085C13.5008 13.0085 13.5008 13.0085 13.5008 13.0085C13.5008 13.0085 13.5008 13.0085 13.5008 13.0085C13.5008 13.0084 13.5008 13.0084 13.5008 13.0084C13.5008 13.0084 13.5008 13.0084 13.5008 13.0084C13.5008 13.0084 13.5008 13.0084 13.5008 13.0084C13.5008 13.0084 13.5008 13.0083 13.5008 13.0083C13.5008 13.0083 13.5008 13.0083 13.5008 13.0083C13.5008 13.0083 13.5008 13.0083 13.5008 13.0083C13.5008 13.0083 13.5008 13.0083 13.5008 13.0082C13.5008 13.0082 13.5008 13.0082 13.5008 13.0082C13.5008 13.0082 13.5008 13.0082 13.5008 13.0082C13.5008 13.0082 13.5008 13.0082 13.5008 13.0081C13.5008 13.0081 13.5008 13.0081 13.5008 13.0081C13.5008 13.0081 13.5008 13.0081 13.5008 13.0081C13.5008 13.0081 13.5008 13.0081 13.5008 13.0081C13.5008 13.008 13.5008 13.008 13.5008 13.008C13.5008 13.008 13.5008 13.008 13.5008 13.008C13.5008 13.008 13.5008 13.008 13.5008 13.008C13.5008 13.008 13.5008 13.0079 13.5008 13.0079C13.5008 13.0079 13.5008 13.0079 13.5008 13.0079C13.5008 13.0079 13.5008 13.0079 13.5008 13.0079C13.5008 13.0079 13.5008 13.0078 13.5008 13.0078C13.5008 13.0078 13.5008 13.0078 13.5008 13.0078C13.5008 13.0078 13.5008 13.0078 13.5008 13.0078C13.5008 13.0078 13.5008 13.0078 13.5008 13.0077C13.5008 13.0077 13.5008 13.0077 13.5008 13.0077C13.5008 13.0077 13.5008 13.0077 13.5008 13.0077C13.5008 13.0077 13.5008 13.0077 13.5008 13.0076C13.5008 13.0076 13.5008 13.0076 13.5008 13.0076C13.5008 13.0076 13.5008 13.0076 13.5008 13.0076C13.5008 13.0076 13.5008 13.0076 13.5008 13.0075C13.5008 13.0075 13.5008 13.0075 13.5008 13.0075C13.5008 13.0075 13.5008 13.0075 13.5008 13.0075C13.5008 13.0075 13.5008 13.0075 13.5008 13.0075C13.5008 13.0074 13.5008 13.0074 13.5008 13.0074C13.5008 13.0074 13.5008 13.0074 13.5008 13.0074C13.5008 13.0074 13.5008 13.0074 13.5008 13.0074C13.5008 13.0073 13.5008 13.0073 13.5008 13.0073C13.5008 13.0073 13.5008 13.0073 13.5008 13.0073C13.5008 13.0073 13.5008 13.0073 13.5008 13.0073C13.5008 13.0072 13.5008 13.0072 13.5008 13.0072C13.5008 13.0072 13.5008 13.0072 13.5008 13.0072C13.5008 13.0072 13.5008 13.0072 13.5008 13.0072C13.5008 13.0071 13.5008 13.0071 13.5008 13.0071C13.5008 13.0071 13.5008 13.0071 13.5008 13.0071C13.5008 13.0071 13.5008 13.0071 13.5008 13.0071C13.5008 13.007 13.5008 13.007 13.5008 13.007C13.5008 13.007 13.5008 13.007 13.5008 13.007C13.5008 13.007 13.5008 13.007 13.5008 13.007C13.5008 13.0069 13.5008 13.0069 13.5008 13.0069C13.5008 13.0069 13.5008 13.0069 13.5008 13.0069C13.5008 13.0069 13.5008 13.0069 13.5008 13.0069C13.5008 13.0068 13.5008 13.0068 13.5008 13.0068C13.5008 13.0068 13.5008 13.0068 13.5008 13.0068C13.5008 13.0068 13.5008 13.0068 13.5008 13.0068C13.5008 13.0067 13.5008 13.0067 13.5008 13.0067C13.5008 13.0067 13.5008 13.0067 13.5008 13.0067C13.5008 13.0067 13.5008 13.0067 13.5008 13.0066C13.5008 13.0066 13.5008 13.0066 13.5008 13.0066C13.5008 13.0066 13.5008 13.0066 13.5008 13.0066C13.5008 13.0066 13.5008 13.0066 13.5008 13.0065C13.5008 13.0065 13.5008 13.0065 13.5008 13.0065C13.5008 13.0065 13.5008 13.0065 13.5008 13.0065C13.5008 13.0065 13.5008 13.0065 13.5008 13.0064C13.5008 13.0064 13.5008 13.0064 13.5008 13.0064C13.5008 13.0064 13.5008 13.0064 13.5008 13.0064C13.5008 13.0064 13.5008 13.0063 13.5008 13.0063C13.5008 13.0063 13.5008 13.0063 13.5008 13.0063C13.5008 13.0063 13.5008 13.0063 13.5008 13.0063C13.5008 13.0063 13.5008 13.0062 13.5008 13.0062C13.5008 13.0062 13.5008 13.0062 13.5008 13.0062C13.5008 13.0062 13.5008 13.0062 13.5008 13.0062C13.5008 13.0061 13.5008 13.0061 13.5008 13.0061C13.5008 13.0061 13.5008 13.0061 13.5008 13.0061C13.5008 13.0061 13.5008 13.0061 13.5008 13.006C13.5008 13.006 13.5008 13.006 13.5008 13.006C13.5008 13.006 13.5008 13.006 13.5008 13.006C13.5008 13.006 13.5008 13.0059 13.5008 13.0059C13.5008 13.0059 13.5008 13.0059 13.5008 13.0059C13.5008 13.0059 13.5008 13.0059 13.5008 13.0059C13.5008 13.0059 13.5008 13.0058 13.5008 13.0058C13.5008 13.0058 13.5008 13.0058 13.5008 13.0058C13.5008 13.0058 13.5008 13.0058 13.5008 13.0058C13.5008 13.0057 13.5008 13.0057 13.5008 13.0057C13.5008 13.0057 13.5008 13.0057 13.5008 13.0057C13.5008 13.0057 13.5008 13.0057 13.5008 13.0056C13.5008 13.0056 13.5008 13.0056 13.5008 13.0056C13.5008 13.0056 13.5008 13.0056 13.5008 13.0056C13.5008 13.0056 13.5008 13.0055 13.5008 13.0055C13.5008 13.0055 13.5008 13.0055 13.5008 13.0055C13.5008 13.0055 13.5008 13.0055 13.5008 13.0055C13.5008 13.0054 13.5008 13.0054 13.5008 13.0054C13.5008 13.0054 13.5008 13.0054 13.5008 13.0054C13.5008 13.0054 13.5008 13.0053 13.5008 13.0053C13.5008 13.0053 13.5008 13.0053 13.5008 13.0053C13.5008 13.0053 13.5008 13.0053 13.5008 13.0053C13.5008 13.0052 13.5008 13.0052 13.5008 13.0052C13.5008 13.0052 13.5008 13.0052 13.5008 13.0052C13.5008 13.0052 13.5008 13.0052 13.5008 13.0051C13.5008 13.0051 13.5008 13.0051 13.5008 13.0051C13.5008 13.0051 13.5008 13.0051 13.5008 13.0051C13.5008 13.005 13.5008 13.005 13.5008 13.005C13.5008 13.005 13.5008 13.005 13.5008 13.005C13.5008 13.005 13.5008 13.005 13.5008 13.0049C13.5008 13.0049 13.5008 13.0049 13.5008 13.0049C13.5008 13.0049 13.5008 13.0049 13.5008 13.0049C13.5008 13.0049 13.5008 13.0048 13.5008 13.0048C13.5008 13.0048 13.5008 13.0048 13.5008 13.0048C13.5008 13.0048 13.5008 13.0048 13.5008 13.0047C13.5008 13.0047 13.5008 13.0047 13.5008 13.0047C13.5008 13.0047 13.5008 13.0047 13.5008 13.0047C13.5008 13.0046 13.5008 13.0046 13.5008 13.0046C13.5008 13.0046 13.5008 13.0046 13.5008 13.0046C13.5008 13.0046 13.5008 13.0046 13.5008 13.0045C13.5008 13.0045 13.5008 13.0045 13.5008 13.0045C13.5008 13.0045 13.5008 13.0045 13.5008 13.0045C13.5008 13.0044 13.5008 13.0044 13.5008 13.0044C13.5008 13.0044 13.5008 13.0044 13.5008 13.0044C13.5008 13.0044 13.5008 13.0043 13.5008 13.0043C13.5008 13.0043 13.5008 13.0043 13.5008 13.0043C13.5008 13.0043 13.5008 13.0043 13.5008 13.0042C13.5008 13.0042 13.5008 13.0042 13.5008 13.0042C13.5008 13.0042 13.5008 13.0042 13.5008 13.0042C13.5008 13.0041 13.5008 13.0041 13.5008 13.0041C13.5008 13.0041 13.5008 13.0041 13.5008 13.0041C13.5008 13.0041 13.5008 13.004 13.5008 13.004C13.5008 13.004 13.5008 13.004 13.5008 13.004C13.5008 13.004 13.5008 13.004 13.5008 13.0039C13.5008 13.0039 13.5008 13.0039 13.5008 13.0039C13.5008 13.0039 13.5008 13.0039 13.5008 13.0039C13.5008 13.0038 13.5008 13.0038 13.5008 13.0038C13.5008 13.0038 13.5008 13.0038 13.5008 13.0038C13.5008 13.0038 13.5008 13.0037 13.5008 13.0037C13.5008 13.0037 13.5008 13.0037 13.5008 13.0037C13.5008 13.0037 13.5008 13.0037 13.5008 13.0036C13.5008 13.0036 13.5008 13.0036 13.5008 13.0036C13.5008 13.0036 13.5008 13.0036 13.5008 13.0035C13.5008 13.0035 13.5008 13.0035 13.5008 13.0035C13.5008 13.0035 13.5008 13.0035 13.5008 13.0035C13.5008 13.0034 13.5008 13.0034 13.5008 13.0034C13.5008 13.0034 13.5008 13.0034 13.5008 13.0034C13.5008 13.0034 13.5008 13.0033 13.5008 13.0033C13.5008 13.0033 13.5008 13.0033 13.5008 13.0033C13.5008 13.0033 13.5008 13.0032 13.5008 13.0032C13.5008 13.0032 13.5008 13.0032 13.5008 13.0032C13.5008 13.0032 13.5008 13.0032 13.5008 13.0031C13.5008 13.0031 13.5008 13.0031 13.5008 13.0031C13.5008 13.0031 13.5008 13.0031 13.5008 13.003C13.5008 13.003 13.5008 13.003 13.5008 13.003C13.5008 13.003 13.5008 13.003 13.5008 13.0029C13.5008 13.0029 13.5008 13.0029 13.5008 13.0029C13.5008 13.0029 13.5008 13.0029 13.5008 13.0029C13.5008 13.0028 13.5008 13.0028 13.5008 13.0028C13.5008 13.0028 13.5008 13.0028 13.5008 13.0028C13.5008 13.0027 13.5008 13.0027 13.5008 13.0027C13.5008 13.0027 13.5008 13.0027 13.5008 13.0027C13.5008 13.0026 13.5008 13.0026 13.5008 13.0026C13.5008 13.0026 13.5008 13.0026 13.5008 13.0026C13.5008 13.0025 13.5008 13.0025 13.5008 13.0025C13.5008 13.0025 13.5008 13.0025 13.5008 13.0025C13.5008 13.0025 13.5008 13.0024 13.5008 13.0024C13.5008 13.0024 13.5008 13.0024 13.5008 13.0024C13.5008 13.0024 13.5008 13.0023 13.5008 13.0023C13.5008 13.0023 13.5008 13.0023 13.5008 13.0023C13.5008 13.0023 13.5008 13.0022 13.5008 13.0022C13.5008 13.0022 13.5008 13.0022 13.5008 13.0022C13.5008 13.0022 13.5008 13.0021 13.5008 13.0021C13.5008 13.0021 13.5008 13.0021 13.5008 13.0021C13.5008 13.0021 13.5008 13.002 13.5008 13.002C13.5008 13.002 13.5008 13.002 13.5008 13.002C13.5008 13.002 13.5008 13.0019 13.5008 13.0019C13.5008 13.0019 13.5008 13.0019 13.5008 13.0019C13.5008 13.0018 13.5008 13.0018 13.5008 13.0018C13.5008 13.0018 13.5008 13.0018 13.5008 13.0018C13.5008 13.0017 13.5008 13.0017 13.5008 13.0017C13.5008 13.0017 13.5008 13.0017 13.5008 13.0017C13.5008 13.0016 13.5008 13.0016 13.5008 13.0016C13.5008 13.0016 13.5008 13.0016 13.5008 13.0016C13.5008 13.0015 13.5008 13.0015 13.5008 13.0015C13.5008 13.0015 13.5008 13.0015 13.5008 13.0014C13.5008 13.0014 13.5008 13.0014 13.5008 13.0014C13.5008 13.0014 13.5008 13.0014 13.5008 13.0013C13.5008 13.0013 13.5008 13.0013 13.5008 13.0013C13.5008 13.0013 13.5008 13.0013 13.5008 13.0012C13.5008 13.0012 13.5008 13.0012 13.5008 13.0012C13.5008 13.0012 13.5008 13.0011 13.5008 13.0011C13.5008 13.0011 13.5008 13.0011 13.5008 13.0011C13.5008 13.0011 13.5008 13.001 13.5008 13.001C13.5008 13.001 13.5008 13.001 13.5008 13.001C13.5008 13.0009 13.5008 13.0009 13.5008 13.0009C13.5008 13.0009 13.5008 13.0009 13.5008 13.0009C13.5008 13.0008 13.5008 13.0008 13.5008 13.0008C13.5008 13.0008 13.5008 13.0008 13.5008 13.0007C13.5008 13.0007 13.5008 13.0007 13.5008 13.0007C13.5008 13.0007 13.5008 13.0006 13.5008 13.0006C13.5008 13.0006 13.5008 13.0006 13.5008 13.0006C13.5008 13.0006 13.5008 13.0005 13.5008 13.0005C13.5008 13.0005 13.5008 13.0005 13.5008 13.0005C13.5008 13.0004 13.5008 13.0004 13.5008 13.0004C13.5008 13.0004 13.5008 13.0004 13.5008 13.0003C13.5008 13.0003 13.5008 13.0003 13.5008 13.0003C13.5008 13.0003 13.5008 13.0003 13.5008 13.0002C13.5008 13.0002 13.5008 13.0002 13.5008 13.0002C13.5008 13.0002 13.5008 13.0001 13.5008 13.0001C13.5008 13.0001 13.5008 13.0001 13.5008 13.0001C13.5008 13 13.5008 13 13.5008 13H12.0008ZM12.0008 13.02C12.0008 13.3029 11.999 13.511 11.9749 13.6887C11.9518 13.8596 11.9146 13.9431 11.8827 13.9885C11.8482 14.0378 11.6744 14.25 10.7508 14.25V15.75C11.8172 15.75 12.6434 15.5172 13.1114 14.849C13.3308 14.5357 13.4204 14.1923 13.4614 13.8898C13.5014 13.594 13.5008 13.2821 13.5008 13.02H12.0008ZM10.7508 14.25C9.83137 14.25 9.65548 14.0398 9.62019 13.9901C9.58855 13.9454 9.55122 13.8632 9.52771 13.6943C9.50326 13.5186 9.5008 13.3115 9.5008 13.03H8.0008C8.0008 13.2935 8.00085 13.6052 8.04202 13.901C8.08414 14.2037 8.17556 14.5458 8.39641 14.8574C8.86612 15.5202 9.69024 15.75 10.7508 15.75V14.25ZM9.5008 13.03V12H8.0008V13.03H9.5008ZM9.5008 12C9.5008 11.8727 9.50084 11.7717 9.5026 11.6852C9.50438 11.5981 9.5077 11.542 9.51184 11.5047C9.51615 11.4659 9.51899 11.471 9.5092 11.4982C9.49718 11.5316 9.46774 11.5937 9.40613 11.6553C9.34453 11.7169 9.28238 11.7464 9.24898 11.7584C9.2218 11.7682 9.21673 11.7653 9.2555 11.761C9.2928 11.7569 9.34887 11.7536 9.43603 11.7518C9.5225 11.75 9.62352 11.75 9.7508 11.75V10.25C9.51913 10.25 9.28178 10.2489 9.08985 10.2702C8.90346 10.2909 8.59384 10.3463 8.34547 10.5947C8.0971 10.843 8.04173 11.1527 8.02102 11.3391C7.99969 11.531 8.0008 11.7683 8.0008 12H9.5008ZM9.7508 11.75H11.7508V10.25H9.7508V11.75ZM11.7508 11.75C11.8781 11.75 11.9791 11.75 12.0656 11.7518C12.1527 11.7536 12.2088 11.7569 12.2461 11.761C12.2849 11.7653 12.2798 11.7682 12.2526 11.7584C12.2192 11.7464 12.1571 11.7169 12.0955 11.6553C12.0339 11.5937 12.0044 11.5316 11.9924 11.4982C11.9826 11.471 11.9855 11.4659 11.9898 11.5047C11.9939 11.542 11.9972 11.5981 11.999 11.6852C12.0008 11.7717 12.0008 11.8727 12.0008 12H13.5008C13.5008 11.7683 13.5019 11.531 13.4806 11.3391C13.4599 11.1527 13.4045 10.843 13.1561 10.5947C12.9078 10.3463 12.5981 10.2909 12.4118 10.2702C12.2198 10.2489 11.9825 10.25 11.7508 10.25V11.75ZM19.9597 9.39345C17.7558 10.9962 15.2363 11.9511 12.6571 12.2759L12.8445 13.7641C15.6653 13.4089 18.4258 12.3638 20.8419 10.6066L19.9597 9.39345ZM0.947192 10.8889C3.2983 12.4981 5.95506 13.4716 8.66735 13.7753L8.83426 12.2847C6.36655 12.0084 3.94331 11.1219 1.79441 9.65109L0.947192 10.8889Z" fill="white"/>
</svg>
