<svg width="25" height="24" viewBox="0 0 25 24" fill="none" xmlns="http://www.w3.org/2000/svg">
<path d="M16.252 3C16.5475 3 16.8401 3.0582 17.113 3.17127C17.386 3.28434 17.6341 3.45008 17.843 3.65901C18.0519 3.86794 18.2177 4.11598 18.3307 4.38896C18.4438 4.66194 18.502 4.95453 18.502 5.25V6.003H19.252C20.114 6.00353 20.9405 6.34605 21.5502 6.95537C22.1599 7.56469 22.5029 8.39103 22.504 9.253L22.507 15.25C22.5071 15.5453 22.4491 15.8378 22.3362 16.1107C22.2233 16.3836 22.0577 16.6316 21.849 16.8406C21.6402 17.0495 21.3924 17.2153 21.1196 17.3284C20.8468 17.4416 20.5543 17.4999 20.259 17.5H18.5V18.75C18.5 19.3467 18.2629 19.919 17.841 20.341C17.419 20.7629 16.8467 21 16.25 21H8.75C8.15326 21 7.58097 20.7629 7.15901 20.341C6.73705 19.919 6.5 19.3467 6.5 18.75V17.5H4.75C4.15326 17.5 3.58097 17.2629 3.15901 16.841C2.73705 16.419 2.5 15.8467 2.5 15.25V9.254C2.5 8.39205 2.84241 7.5654 3.4519 6.9559C4.0614 6.34641 4.88805 6.004 5.75 6.004L6.499 6.003L6.5 5.25C6.5 4.65326 6.73705 4.08097 7.15901 3.65901C7.58097 3.23705 8.15326 3 8.75 3H16.252ZM16.25 13.5H8.75C8.55109 13.5 8.36032 13.579 8.21967 13.7197C8.07902 13.8603 8 14.0511 8 14.25V18.75C8 19.164 8.336 19.5 8.75 19.5H16.25C16.4489 19.5 16.6397 19.421 16.7803 19.2803C16.921 19.1397 17 18.9489 17 18.75V14.25C17 14.0511 16.921 13.8603 16.7803 13.7197C16.6397 13.579 16.4489 13.5 16.25 13.5ZM19.252 7.504H5.75C5.28587 7.504 4.84075 7.68837 4.51256 8.01656C4.18437 8.34475 4 8.78987 4 9.254V15.25C4 15.664 4.336 16 4.75 16H6.5V14.25C6.5 13.6533 6.73705 13.081 7.15901 12.659C7.58097 12.2371 8.15326 12 8.75 12H16.25C16.8467 12 17.419 12.2371 17.841 12.659C18.2629 13.081 18.5 13.6533 18.5 14.25V16H20.283C20.4773 15.9935 20.6614 15.9117 20.7965 15.772C20.9316 15.6322 21.0071 15.4454 21.007 15.251L21.004 9.254C21.0029 8.78985 20.818 8.34504 20.4896 8.01702C20.1612 7.68901 19.7162 7.50453 19.252 7.504ZM16.252 4.5H8.75C8.55109 4.5 8.36032 4.57902 8.21967 4.71967C8.07902 4.86032 8 5.05109 8 5.25L7.999 6.003H17.002V5.25C17.002 5.05109 16.923 4.86032 16.7823 4.71967C16.6417 4.57902 16.4509 4.5 16.252 4.5Z" fill="white"/>
</svg>
