<svg width="22" height="23" viewBox="0 0 22 23" fill="none" xmlns="http://www.w3.org/2000/svg">
<path d="M5.13 17.7223C5.13 18.1365 5.46579 18.4723 5.88 18.4723C6.29421 18.4723 6.63 18.1365 6.63 17.7223H5.13ZM6.63 15.6523C6.63 15.2381 6.29421 14.9023 5.88 14.9023C5.46579 14.9023 5.13 15.2381 5.13 15.6523H6.63ZM10.25 17.7223C10.25 18.1365 10.5858 18.4723 11 18.4723C11.4142 18.4723 11.75 18.1365 11.75 17.7223H10.25ZM11.75 13.5823C11.75 13.1681 11.4142 12.8323 11 12.8323C10.5858 12.8323 10.25 13.1681 10.25 13.5823H11.75ZM15.37 17.7223C15.37 18.1365 15.7058 18.4723 16.12 18.4723C16.5342 18.4723 16.87 18.1365 16.87 17.7223H15.37ZM16.87 11.5023C16.87 11.0881 16.5342 10.7523 16.12 10.7523C15.7058 10.7523 15.37 11.0881 15.37 11.5023H16.87ZM16.12 5.42227H16.87V4.67227H16.12V5.42227ZM15.66 5.96227L16.2298 6.44989L16.2309 6.44862L15.66 5.96227ZM5.69855 11.2745C5.29664 11.3748 5.05207 11.7818 5.15228 12.1837C5.25249 12.5856 5.65954 12.8302 6.06145 12.73L5.69855 11.2745ZM13.19 4.67227C12.7758 4.67227 12.44 5.00805 12.44 5.42227C12.44 5.83648 12.7758 6.17227 13.19 6.17227V4.67227ZM15.37 8.34227C15.37 8.75648 15.7058 9.09227 16.12 9.09227C16.5342 9.09227 16.87 8.75648 16.87 8.34227H15.37ZM6.63 17.7223V15.6523H5.13V17.7223H6.63ZM11.75 17.7223V13.5823H10.25V17.7223H11.75ZM16.87 17.7223V11.5023H15.37V17.7223H16.87ZM15.5491 4.93591L15.0891 5.47591L16.2309 6.44862L16.6909 5.90862L15.5491 4.93591ZM15.0902 5.47464C12.6419 8.33575 9.35783 10.3621 5.69855 11.2745L6.06145 12.73C10.0222 11.7424 13.5781 9.54878 16.2298 6.44989L15.0902 5.47464ZM13.19 6.17227H16.12V4.67227H13.19V6.17227ZM15.37 5.42227V8.34227H16.87V5.42227H15.37ZM8 22.3223H14V20.8223H8V22.3223ZM14 22.3223C16.574 22.3223 18.5709 21.8121 19.9053 20.4776C21.2398 19.1431 21.75 17.1462 21.75 14.5723H20.25C20.25 16.9983 19.7602 18.5014 18.8447 19.4169C17.9291 20.3325 16.426 20.8223 14 20.8223V22.3223ZM21.75 14.5723V8.57227H20.25V14.5723H21.75ZM21.75 8.57227C21.75 5.99829 21.2398 4.0014 19.9053 2.66694C18.5709 1.33247 16.574 0.822266 14 0.822266V2.32227C16.426 2.32227 17.9291 2.81206 18.8447 3.7276C19.7602 4.64313 20.25 6.14624 20.25 8.57227H21.75ZM14 0.822266H8V2.32227H14V0.822266ZM8 0.822266C5.42603 0.822266 3.42914 1.33247 2.09467 2.66694C0.760201 4.0014 0.25 5.99829 0.25 8.57227H1.75C1.75 6.14624 2.2398 4.64313 3.15533 3.7276C4.07086 2.81206 5.57397 2.32227 8 2.32227V0.822266ZM0.25 8.57227V14.5723H1.75V8.57227H0.25ZM0.25 14.5723C0.25 17.1462 0.760201 19.1431 2.09467 20.4776C3.42914 21.8121 5.42603 22.3223 8 22.3223V20.8223C5.57397 20.8223 4.07086 20.3325 3.15533 19.4169C2.2398 18.5014 1.75 16.9983 1.75 14.5723H0.25Z" fill="#1E2D56"/>
</svg>
