<svg width="22" height="22" viewBox="0 0 22 22" fill="none" xmlns="http://www.w3.org/2000/svg">
<path d="M12 17.5872V16.8372C11.8469 16.8372 11.6975 16.884 11.5718 16.9715L12 17.5872ZM7.54999 20.6819L7.12177 20.0662L7.12112 20.0667L7.54999 20.6819ZM6 17.5872H6.75C6.75 17.173 6.41421 16.8372 6 16.8372V17.5872ZM10.25 10.1952C10.25 10.6094 10.5858 10.9452 11 10.9452C11.4142 10.9452 11.75 10.6094 11.75 10.1952H10.25ZM11.84 8.58506L11.4042 7.97468L11.401 7.97696L11.84 8.58506ZM8.59003 7.22587C8.59003 7.64009 8.92581 7.97587 9.34003 7.97587C9.75424 7.97587 10.09 7.64009 10.09 7.22587H8.59003ZM10.9955 11.944C10.5813 11.944 10.2455 12.2798 10.2455 12.694C10.2455 13.1082 10.5813 13.444 10.9955 13.444V11.944ZM11.0045 13.444C11.4187 13.444 11.7545 13.1082 11.7545 12.694C11.7545 12.2798 11.4187 11.944 11.0045 11.944V13.444ZM16 16.8372H12V18.3372H16V16.8372ZM11.5718 16.9715L7.12177 20.0662L7.9782 21.2977L12.4282 18.2029L11.5718 16.9715ZM7.12112 20.0667C7.04419 20.1203 6.96655 20.1203 6.89246 20.079C6.81656 20.0368 6.75 19.9506 6.75 19.8142H5.25C5.25 21.1976 6.7738 22.1372 7.97886 21.2972L7.12112 20.0667ZM6.75 19.8142V17.5872H5.25V19.8142H6.75ZM6 16.8372C4.68075 16.8372 3.63477 16.3816 2.917 15.6312C2.19636 14.8777 1.75 13.7671 1.75 12.3595H0.25C0.25 14.0885 0.803642 15.5917 1.833 16.668C2.86523 17.7472 4.31925 18.3372 6 18.3372V16.8372ZM1.75 12.3595V6.08621H0.25V12.3595H1.75ZM1.75 6.08621C1.75 4.67858 2.19636 3.56799 2.917 2.81453C3.63477 2.06408 4.68075 1.60852 6 1.60852V0.108521C4.31925 0.108521 2.86523 0.6985 1.833 1.77774C0.803642 2.85397 0.25 4.35722 0.25 6.08621H1.75ZM6 1.60852H16V0.108521H6V1.60852ZM16 1.60852C17.3192 1.60852 18.3652 2.06408 19.083 2.81453C19.8036 3.56799 20.25 4.67858 20.25 6.08621H21.75C21.75 4.35722 21.1964 2.85397 20.167 1.77774C19.1348 0.6985 17.6808 0.108521 16 0.108521V1.60852ZM20.25 6.08621V12.3595H21.75V6.08621H20.25ZM20.25 12.3595C20.25 13.7671 19.8036 14.8777 19.083 15.6312C18.3652 16.3816 17.3192 16.8372 16 16.8372V18.3372C17.6808 18.3372 19.1348 17.7472 20.167 16.668C21.1964 15.5917 21.75 14.0885 21.75 12.3595H20.25ZM11.75 10.1952V9.97564H10.25V10.1952H11.75ZM11.75 9.97564C11.75 9.78388 11.8018 9.66299 11.8732 9.56289C11.9571 9.44522 12.0847 9.33346 12.279 9.19316L11.401 7.97696C10.938 8.31125 10.25 8.88319 10.25 9.97564H11.75ZM12.2759 9.19544C12.7366 8.86647 13.41 8.29467 13.41 7.22587H11.91C11.91 7.40698 11.8608 7.52346 11.7918 7.62082C11.7115 7.73418 11.5885 7.84313 11.4042 7.97469L12.2759 9.19544ZM13.41 7.22587C13.41 5.88163 12.3654 4.74025 11 4.74025V6.24025C11.4746 6.24025 11.91 6.64633 11.91 7.22587H13.41ZM11 4.74025C9.63463 4.74025 8.59003 5.88163 8.59003 7.22587H10.09C10.09 6.64633 10.5254 6.24025 11 6.24025V4.74025ZM10.9955 13.444H11.0045V11.944H10.9955V13.444Z" fill="#1E2D56"/>
</svg>
