<svg width="20" height="21" viewBox="0 0 20 21" fill="none" xmlns="http://www.w3.org/2000/svg">
<path d="M5.28962 5.79169C4.58484 6.49017 4.04596 7.33804 3.71278 8.27269C3.37959 9.20734 3.26061 10.2049 3.36462 11.1917C3.67295 14.25 6.15629 16.7667 9.21462 17.1084C13.2563 17.5667 16.6646 14.4417 16.6646 10.5C16.6646 9.2416 16.3076 8.00901 15.6349 6.94545C14.9622 5.88188 14.0016 5.03101 12.8646 4.49169C12.3063 4.22502 11.6646 4.62502 11.6646 5.24169C11.6646 5.55002 11.8313 5.84169 12.1063 5.97502C13.1471 6.45885 13.9896 7.28639 14.492 8.31842C14.9943 9.35046 15.1259 10.524 14.8646 11.6417C14.4563 13.4917 12.948 14.9834 11.098 15.375C10.3665 15.5397 9.6074 15.5378 8.87679 15.3694C8.14617 15.2011 7.46275 14.8707 6.87706 14.4026C6.29137 13.9346 5.8184 13.3408 5.49314 12.6653C5.16787 11.9898 4.99864 11.2498 4.99795 10.5C4.99795 9.11669 5.57295 7.88336 6.48129 6.98336L7.73962 8.24169C8.26462 8.76669 9.16462 8.40002 9.16462 7.65836L9.16462 4.66669C9.16462 4.20836 8.78962 3.83336 8.33129 3.83336L5.33962 3.83336C4.59795 3.83336 4.22295 4.73336 4.74795 5.25836L5.28962 5.79169Z" fill="white"/>
</svg>
