<svg width="17" height="16" viewBox="0 0 17 16" fill="none" xmlns="http://www.w3.org/2000/svg">
<path d="M16 11.5569V2.50435C16 1.60435 15.265 0.936851 14.3725 1.01185H14.3275C12.7525 1.14685 10.36 1.94935 9.025 2.78935L8.8975 2.87185C8.68 3.00685 8.32 3.00685 8.1025 2.87185L7.915 2.75935C6.58 1.92685 4.195 1.13185 2.62 1.00435C1.7275 0.929351 1 1.60435 1 2.49685V11.5569C1 12.2769 1.585 12.9519 2.305 13.0419L2.5225 13.0719C4.15 13.2894 6.6625 14.1144 8.1025 14.9019L8.1325 14.9169C8.335 15.0294 8.6575 15.0294 8.8525 14.9169C10.2925 14.1219 12.8125 13.2894 14.4475 13.0719L14.695 13.0419C15.415 12.9519 16 12.2769 16 11.5569Z" stroke="#282F38" stroke-linecap="round" stroke-linejoin="round"/>
<path d="M8.5 3.11938V14.3694" stroke="#282F38" stroke-linecap="round" stroke-linejoin="round"/>
<path d="M5.3125 5.36938H3.625" stroke="#282F38" stroke-linecap="round" stroke-linejoin="round"/>
<path d="M5.875 7.61938H3.625" stroke="#282F38" stroke-linecap="round" stroke-linejoin="round"/>
</svg>
