<svg width="23" height="22" viewBox="0 0 23 22" fill="none" xmlns="http://www.w3.org/2000/svg">
<path d="M9.19784 5.59382C8.80164 5.71465 8.57841 6.13379 8.69925 6.52998C8.82008 6.92618 9.23921 7.14941 9.63541 7.02858L9.19784 5.59382ZM6.86805 9.28766C7.09459 8.94089 6.99711 8.47612 6.65034 8.24959C6.30356 8.02305 5.8388 8.12052 5.61226 8.4673L6.86805 9.28766ZM8.50486 6.49129L7.93425 6.00456C7.79959 6.16243 7.73635 6.36903 7.75957 6.57523C7.7828 6.78142 7.89041 6.96878 8.05681 7.09274L8.50486 6.49129ZM11.2005 4.48677C11.4693 4.17163 11.4317 3.69824 11.1166 3.42943C10.8014 3.16062 10.3281 3.19818 10.0592 3.51332L11.2005 4.48677ZM10.5348 8.93867C10.8669 9.18612 11.3368 9.11744 11.5843 8.78526C11.8317 8.45309 11.763 7.98321 11.4309 7.73575L10.5348 8.93867ZM9.63541 7.02858C10.2139 6.85215 10.8459 6.73854 11.5416 6.73854V5.23854C10.6786 5.23854 9.89876 5.38005 9.19784 5.59382L9.63541 7.02858ZM11.5416 6.73854C14.6352 6.73854 17.1666 9.29978 17.1666 12.4943H18.6666C18.6666 8.50021 15.4922 5.23854 11.5416 5.23854V6.73854ZM17.1666 12.4943C17.1666 15.6888 14.6352 18.25 11.5416 18.25V19.75C15.4922 19.75 18.6666 16.4884 18.6666 12.4943H17.1666ZM11.5416 18.25C8.44806 18.25 5.91663 15.6888 5.91663 12.4943H4.41663C4.41663 16.4884 7.59107 19.75 11.5416 19.75V18.25ZM5.91663 12.4943C5.91663 11.3088 6.26875 10.205 6.86805 9.28766L5.61226 8.4673C4.85862 9.62095 4.41663 11.0084 4.41663 12.4943H5.91663ZM9.07547 6.97801L11.2005 4.48677L10.0592 3.51332L7.93425 6.00456L9.07547 6.97801ZM8.05681 7.09274L10.5348 8.93867L11.4309 7.73575L8.95291 5.88983L8.05681 7.09274Z" fill="#1E2D56"/>
</svg>
