<svg width="20" height="21" viewBox="0 0 20 21" fill="none" xmlns="http://www.w3.org/2000/svg">
<path d="M6.5 17V14C6.5 13.7348 6.60536 13.4804 6.79289 13.2929C6.98043 13.1054 7.23478 13 7.5 13H11.5C11.7652 13 12.0196 13.1054 12.2071 13.2929C12.3946 13.4804 12.5 13.7348 12.5 14V17M15.5 17H3.5C3.23478 17 2.98043 16.8946 2.79289 16.7071C2.60536 16.5196 2.5 16.2652 2.5 16V4C2.5 3.73478 2.60536 3.48043 2.79289 3.29289C2.98043 3.10536 3.23478 3 3.5 3H12.086C12.3512 3.00006 12.6055 3.10545 12.793 3.293L16.207 6.707C16.3945 6.89449 16.4999 7.14881 16.5 7.414V16C16.5 16.2652 16.3946 16.5196 16.2071 16.7071C16.0196 16.8946 15.7652 17 15.5 17Z" stroke="white" stroke-width="1.5"/>
</svg>
