<svg width="22" height="21" viewBox="0 0 22 21" fill="none" xmlns="http://www.w3.org/2000/svg">
<path d="M10.995 13.5089C12.651 13.5089 13.9935 12.2283 13.9935 10.6484C13.9935 9.06863 12.651 7.78794 10.995 7.78794C9.33898 7.78794 7.9965 9.06863 7.9965 10.6484C7.9965 12.2283 9.33898 13.5089 10.995 13.5089Z" stroke="white" stroke-width="1.5" stroke-miterlimit="10" stroke-linecap="round" stroke-linejoin="round"/>
<path d="M1 11.4875V9.80936C1 8.81772 1.84958 7.99771 2.89905 7.99771C4.70815 7.99771 5.44778 6.77722 4.53823 5.28023C4.01849 4.42208 4.32834 3.30648 5.23788 2.81066L6.96702 1.8667C7.75662 1.41855 8.77611 1.68553 9.24588 2.4388L9.35582 2.61996C10.2554 4.11696 11.7346 4.11696 12.6442 2.61996L12.7541 2.4388C13.2239 1.68553 14.2434 1.41855 15.033 1.8667L16.7621 2.81066C17.6717 3.30648 17.9815 4.42208 17.4618 5.28023C16.5522 6.77722 17.2919 7.99771 19.1009 7.99771C20.1404 7.99771 21 8.80818 21 9.80936V11.4875C21 12.4792 20.1504 13.2992 19.1009 13.2992C17.2919 13.2992 16.5522 14.5197 17.4618 16.0166C17.9815 16.8843 17.6717 17.9904 16.7621 18.4862L15.033 19.4302C14.2434 19.8783 13.2239 19.6113 12.7541 18.8581L12.6442 18.6769C11.7446 17.1799 10.2654 17.1799 9.35582 18.6769L9.24588 18.8581C8.77611 19.6113 7.75662 19.8783 6.96702 19.4302L5.23788 18.4862C4.32834 17.9904 4.01849 16.8748 4.53823 16.0166C5.44778 14.5197 4.70815 13.2992 2.89905 13.2992C1.84958 13.2992 1 12.4792 1 11.4875Z" stroke="white" stroke-width="1.5" stroke-miterlimit="10" stroke-linecap="round" stroke-linejoin="round"/>
</svg>
