<svg width="18" height="18" viewBox="0 0 18 18" fill="none" xmlns="http://www.w3.org/2000/svg">
<path d="M0.738281 18H4.5C4.99219 18 5.23828 17.7539 5.23828 17.2617C5.23828 16.7461 4.99219 16.4883 4.5 16.4883H2.56641L7.27734 11.7773C7.58203 11.4258 7.58203 11.0742 7.27734 10.7227C6.92578 10.418 6.57422 10.418 6.22266 10.7227L1.51172 15.4336V13.5C1.51172 13.0078 1.25391 12.7617 0.738281 12.7617C0.246094 12.7617 0 13.0078 0 13.5V17.2617C0 17.4727 0.0703125 17.6484 0.210938 17.7891C0.351562 17.9297 0.527344 18 0.738281 18ZM17.2617 12.7617C16.7461 12.7617 16.4883 13.0078 16.4883 13.5V15.4336L11.7773 10.7227C11.4258 10.418 11.0742 10.418 10.7227 10.7227C10.418 11.0742 10.418 11.4258 10.7227 11.7773L15.4336 16.4883H13.5C13.0078 16.4883 12.7617 16.7461 12.7617 17.2617C12.7617 17.7539 13.0078 18 13.5 18H17.2617C17.4727 18 17.6484 17.9297 17.7891 17.7891C17.9297 17.6484 18 17.4727 18 17.2617V13.5C18 13.0078 17.7539 12.7617 17.2617 12.7617ZM17.2617 0H13.5C13.0078 0 12.7617 0.246094 12.7617 0.738281C12.7617 1.25391 13.0078 1.51172 13.5 1.51172H15.4336L10.7227 6.22266C10.418 6.57422 10.418 6.92578 10.7227 7.27734C10.8633 7.41797 11.0391 7.48828 11.25 7.48828C11.4609 7.48828 11.6367 7.41797 11.7773 7.27734L16.4883 2.56641V4.5C16.4883 4.99219 16.7461 5.23828 17.2617 5.23828C17.7539 5.23828 18 4.99219 18 4.5V0.738281C18 0.527344 17.9297 0.351562 17.7891 0.210938C17.6484 0.0703125 17.4727 0 17.2617 0ZM0.738281 5.23828C1.25391 5.23828 1.51172 4.99219 1.51172 4.5V2.56641L6.22266 7.27734C6.36328 7.41797 6.53906 7.48828 6.75 7.48828C6.96094 7.48828 7.13672 7.41797 7.27734 7.27734C7.58203 6.92578 7.58203 6.57422 7.27734 6.22266L2.56641 1.51172H4.5C4.99219 1.51172 5.23828 1.25391 5.23828 0.738281C5.23828 0.246094 4.99219 0 4.5 0H0.738281C0.527344 0 0.351562 0.0703125 0.210938 0.210938C0.0703125 0.351562 0 0.527344 0 0.738281V4.5C0 4.99219 0.246094 5.23828 0.738281 5.23828Z" fill="#777B82"/>
</svg>
