<svg width="24" height="22" viewBox="0 0 24 22" fill="none" xmlns="http://www.w3.org/2000/svg">
<circle r="5" transform="matrix(-1 0 0 1 6 7)" stroke="white" stroke-width="1.5"/>
<path fill-rule="evenodd" clip-rule="evenodd" d="M5 7.5C5 7.77614 5.22386 8 5.5 8H7.5C7.77614 8 8 7.77614 8 7.5C8 7.22386 7.77614 7 7.5 7H6L6 5.5C6 5.22386 5.77614 5 5.5 5C5.22386 5 5 5.22386 5 5.5V7.5Z" fill="white"/>
<path d="M2.25 15C2.25 14.5858 2.58579 14.25 3 14.25C3.41421 14.25 3.75 14.5858 3.75 15H2.25ZM11.5 1.75C11.0858 1.75 10.75 1.41421 10.75 1C10.75 0.585786 11.0858 0.25 11.5 0.25V1.75ZM17.4444 11.25C17.8587 11.25 18.1944 11.5858 18.1944 12C18.1944 12.4142 17.8587 12.75 17.4444 12.75V11.25ZM13 12.75C12.5858 12.75 12.25 12.4142 12.25 12C12.25 11.5858 12.5858 11.25 13 11.25V12.75ZM17.4444 15.25C17.8587 15.25 18.1944 15.5858 18.1944 16C18.1944 16.4142 17.8587 16.75 17.4444 16.75V15.25ZM8.55556 16.75C8.14134 16.75 7.80556 16.4142 7.80556 16C7.80556 15.5858 8.14134 15.25 8.55556 15.25V16.75ZM3.75 15V17.5H2.25V15H3.75ZM3.75 17.5C3.75 18.1881 3.84677 18.6626 4.00178 18.9974C4.14862 19.3146 4.36366 19.5421 4.68282 19.7189C5.3912 20.1112 6.58533 20.25 8.55556 20.25V21.75C6.63689 21.75 5.05324 21.6388 3.95607 21.0311C3.37245 20.7079 2.92776 20.2479 2.64058 19.6276C2.36157 19.0249 2.25 18.3119 2.25 17.5H3.75ZM8.55556 20.25H18.9991V21.75H8.55556V20.25ZM18.9991 20.25C20.8324 20.25 21.4952 19.783 21.8112 19.2451C21.994 18.934 22.1114 18.5187 22.1768 17.9598C22.2423 17.4 22.25 16.7542 22.25 16H23.75C23.75 16.7458 23.7437 17.475 23.6667 18.134C23.5895 18.7938 23.4359 19.441 23.1045 20.0049C22.3924 21.217 21.0546 21.75 18.9991 21.75V20.25ZM22.25 16V6H23.75V16H22.25ZM22.25 6C22.25 5.24575 22.2423 4.60005 22.1768 4.04024C22.1114 3.48127 21.994 3.06596 21.8112 2.75494C21.4952 2.21699 20.8324 1.75 18.9991 1.75V0.25C21.0546 0.25 22.3924 0.78301 23.1045 1.99506C23.4359 2.55904 23.5895 3.20623 23.6667 3.86601C23.7437 4.52495 23.75 5.25425 23.75 6H22.25ZM18.9991 1.75H11.5V0.25H18.9991V1.75ZM17.4444 12.75H13V11.25H17.4444V12.75ZM17.4444 16.75H8.55556V15.25H17.4444V16.75Z" fill="white"/>
</svg>
