<svg width="14" height="16" viewBox="0 0 14 16" fill="none" xmlns="http://www.w3.org/2000/svg">
<path fill-rule="evenodd" clip-rule="evenodd" d="M6.73331 11.2666C6.66665 11.2666 6.59998 11.2 6.53331 11.1333L3.86665 8.46663C3.59998 8.19996 3.59998 7.79996 3.86665 7.53329C4.13331 7.26663 4.53331 7.26663 4.79998 7.53329L6.33331 9.06663V1.33329C6.33331 0.933293 6.59998 0.666626 6.99998 0.666626C7.39998 0.666626 7.66665 0.933293 7.66665 1.33329V9.06663L9.19998 7.53329C9.46665 7.26663 9.86665 7.26663 10.1333 7.53329C10.4 7.79996 10.4 8.19996 10.1333 8.46663L7.46665 11.1333C7.43331 11.1666 7.39998 11.1833 7.36665 11.2C7.33331 11.2166 7.29998 11.2333 7.26665 11.2666C7.19998 11.3333 7.06665 11.3333 6.99998 11.3333C6.93331 11.3333 6.79998 11.3333 6.73331 11.2666ZM13.6666 13.3333V11.3333C13.6666 10.9333 13.4 10.6666 13 10.6666C12.6 10.6666 12.3333 10.9333 12.3333 11.3333V13.3333C12.3333 13.7333 12.0666 14 11.6666 14H2.33331C1.93331 14 1.66665 13.7333 1.66665 13.3333V11.3333C1.66665 10.9333 1.39998 10.6666 0.99998 10.6666C0.59998 10.6666 0.333313 10.9333 0.333313 11.3333V13.3333C0.333313 14.4666 1.19998 15.3333 2.33331 15.3333H11.6666C12.8 15.3333 13.6666 14.4666 13.6666 13.3333Z" fill="#325ECD"/>
</svg>
