<svg width="18" height="19" viewBox="0 0 18 19" fill="none" xmlns="http://www.w3.org/2000/svg">
<path fill-rule="evenodd" clip-rule="evenodd" d="M9.36 0.627472C9.45 0.627472 9.54 0.70929 9.63 0.791109L13.23 4.06384C13.59 4.39111 13.59 4.88202 13.23 5.20929C12.87 5.53656 12.33 5.53656 11.97 5.20929L9.9 3.32747L9.9 12.8184C9.9 13.3093 9.54 13.6366 9 13.6366C8.46 13.6366 8.1 13.3093 8.1 12.8184L8.1 3.32747L6.03 5.20929C5.67 5.53656 5.13 5.53656 4.77 5.20929C4.41 4.88202 4.41 4.39111 4.77 4.06384L8.37 0.791109C8.415 0.750199 8.46 0.729745 8.505 0.70929C8.55 0.688836 8.595 0.668381 8.64 0.627472C8.73 0.545654 8.91 0.545654 9 0.545654C9.09 0.545654 9.27 0.545654 9.36 0.627472ZM18 15.9996V13.545C18 13.0541 17.64 12.7269 17.1 12.7269C16.56 12.7269 16.2 13.0541 16.2 13.545V15.9996C16.2 16.4905 15.84 16.8178 15.3 16.8178H2.7C2.16 16.8178 1.8 16.4905 1.8 15.9996V13.545C1.8 13.0541 1.44 12.7269 0.9 12.7269C0.36 12.7269 0 13.0541 0 13.545V15.9996C0 17.3905 1.17 18.4541 2.7 18.4541H15.3C16.83 18.4541 18 17.3905 18 15.9996Z" fill="white"/>
</svg>
