<svg width="16" height="16" viewBox="0 0 16 16" fill="none" xmlns="http://www.w3.org/2000/svg">
<path fill-rule="evenodd" clip-rule="evenodd" d="M11.5636 8.32C11.5636 8.4 11.4909 8.48 11.4182 8.56L8.50909 11.76C8.21818 12.08 7.78182 12.08 7.49091 11.76C7.2 11.44 7.2 10.96 7.49091 10.64L9.16364 8.8L0.727272 8.8C0.290909 8.8 -3.2871e-07 8.48 -3.49691e-07 8C-3.70673e-07 7.52 0.290909 7.2 0.727272 7.2L9.16364 7.2L7.49091 5.36C7.2 5.04 7.2 4.56 7.49091 4.24C7.78182 3.92 8.21818 3.92 8.50909 4.24L11.4182 7.44C11.4545 7.48 11.4727 7.52 11.4909 7.56C11.5091 7.6 11.5273 7.64 11.5636 7.68C11.6364 7.76 11.6364 7.92 11.6364 8C11.6364 8.08 11.6364 8.24 11.5636 8.32ZM13.8185 -6.04024e-07L11.6366 -5.08654e-07C11.2003 -4.8958e-07 10.9094 0.319999 10.9094 0.8C10.9094 1.28 11.2003 1.6 11.6366 1.6L13.8185 1.6C14.2548 1.6 14.5457 1.92 14.5457 2.4L14.5457 13.6C14.5457 14.08 14.2548 14.4 13.8185 14.4L11.6366 14.4C11.2003 14.4 10.9094 14.72 10.9094 15.2C10.9094 15.68 11.2003 16 11.6366 16L13.8185 16C15.0548 16 16.0003 14.96 16.0003 13.6L16.0003 2.4C16.0003 1.04 15.0548 -6.58068e-07 13.8185 -6.04024e-07Z" fill="#282F38"/>
</svg>
