<svg width="16" height="19" viewBox="0 0 16 19" fill="none" xmlns="http://www.w3.org/2000/svg">
<path d="M14 8.75V2C14 1.60218 13.842 1.22064 13.5607 0.93934C13.2794 0.658035 12.8978 0.5 12.5 0.5H3.5C3.10218 0.5 2.72064 0.658035 2.43934 0.93934C2.15804 1.22064 2 1.60218 2 2V8.75C1.60218 8.75 1.22064 8.90804 0.93934 9.18934C0.658035 9.47064 0.5 9.85218 0.5 10.25V18.5H2V10.25H14V18.5H15.5V10.25C15.5 9.85218 15.342 9.47064 15.0607 9.18934C14.7794 8.90804 14.3978 8.75 14 8.75ZM3.5 2H12.5V8.75H3.5V2Z" fill="#174AA4"/>
<path d="M5 5H7.25V6.5H5V5ZM8.75 5H11V6.5H8.75V5Z" fill="#174AA4"/>
</svg>
