<svg width="22" height="23" viewBox="0 0 22 23" fill="none" xmlns="http://www.w3.org/2000/svg">
<path d="M11.02 15.1274V15.8774C11.4342 15.8774 11.77 15.5416 11.77 15.1274H11.02ZM8.75 15.1274C8.75 14.7132 8.41421 14.3774 8 14.3774C7.58579 14.3774 7.25 14.7132 7.25 15.1274H8.75ZM7.25 19.4274C7.25 19.8416 7.58579 20.1774 8 20.1774C8.41421 20.1774 8.75 19.8416 8.75 19.4274H7.25ZM1 10.5774C0.585786 10.5774 0.25 10.9132 0.25 11.3274C0.25 11.7416 0.585786 12.0774 1 12.0774V10.5774ZM11 12.0774C11.4142 12.0774 11.75 11.7416 11.75 11.3274C11.75 10.9132 11.4142 10.5774 11 10.5774V12.0774ZM4.95001 18.6774C4.5358 18.6774 4.20001 19.0132 4.20001 19.4274C4.20001 19.8416 4.5358 20.1774 4.95001 20.1774V18.6774ZM11 20.1774C11.4142 20.1774 11.75 19.8416 11.75 19.4274C11.75 19.0132 11.4142 18.6774 11 18.6774V20.1774ZM13.12 17.4374C13.12 17.8516 13.4558 18.1874 13.87 18.1874C14.2842 18.1874 14.62 17.8516 14.62 17.4374H13.12ZM14.32 16.1274L13.7286 15.6661L13.728 15.6669L14.32 16.1274ZM17.41 15.8174L17.9083 15.2568L17.9006 15.2501L17.41 15.8174ZM17.4 17.4374C17.4 17.8516 17.7358 18.1874 18.15 18.1874C18.5642 18.1874 18.9 17.8516 18.9 17.4374H17.4ZM16.33 12.0873C16.33 12.2641 16.1867 12.4073 16.01 12.4073V13.9073C17.0152 13.9073 17.83 13.0925 17.83 12.0873H16.33ZM16.01 12.4073C15.8333 12.4073 15.69 12.2641 15.69 12.0873H14.19C14.19 13.0925 15.0049 13.9073 16.01 13.9073V12.4073ZM15.69 12.0873C15.69 11.9107 15.8332 11.7674 16.01 11.7674V10.2674C15.0049 10.2674 14.19 11.0821 14.19 12.0873H15.69ZM16.01 11.7674C16.1868 11.7674 16.33 11.9106 16.33 12.0873H17.83C17.83 11.0822 17.0151 10.2674 16.01 10.2674V11.7674ZM18.25 5.42737V7.21735H19.75V5.42737H18.25ZM19.0894 6.47269C18.8113 6.43932 18.4914 6.41736 18.15 6.41736V7.91736C18.4286 7.91736 18.6887 7.93537 18.9106 7.962L19.0894 6.47269ZM18.15 6.41736H13.87V7.91736H18.15V6.41736ZM13.87 6.41736C12.7592 6.41736 11.7799 6.59182 11.1122 7.25955C10.4444 7.92728 10.27 8.90665 10.27 10.0174H11.77C11.77 8.98814 11.9505 8.54249 12.1728 8.3202C12.3951 8.09792 12.8407 7.91736 13.87 7.91736V6.41736ZM10.27 10.0174V15.1274H11.77V10.0174H10.27ZM11.02 14.3774H5V15.8774H11.02V14.3774ZM5 14.3774C3.39464 14.3774 2.69182 14.1585 2.33033 13.7971C1.96884 13.4356 1.75 12.7327 1.75 11.1274H0.25C0.25 12.722 0.431164 14.0192 1.26967 14.8577C2.10818 15.6962 3.40536 15.8774 5 15.8774V14.3774ZM1.75 11.1274V5.42737H0.25V11.1274H1.75ZM1.75 5.42737C1.75 3.82201 1.96884 3.11919 2.33033 2.7577C2.69182 2.3962 3.39464 2.17737 5 2.17737V0.677368C3.40536 0.677368 2.10818 0.858532 1.26967 1.69704C0.431164 2.53554 0.25 3.83273 0.25 5.42737H1.75ZM5 2.17737H15V0.677368H5V2.17737ZM15 2.17737C16.6054 2.17737 17.3082 2.3962 17.6697 2.7577C18.0312 3.11919 18.25 3.82201 18.25 5.42737H19.75C19.75 3.83273 19.5688 2.53554 18.7303 1.69704C17.8918 0.858532 16.5946 0.677368 15 0.677368V2.17737ZM7.25 15.1274V19.4274H8.75V15.1274H7.25ZM1 12.0774H11V10.5774H1V12.0774ZM4.95001 20.1774H11V18.6774H4.95001V20.1774ZM10.27 10.0174V18.5774H11.77V10.0174H10.27ZM10.27 18.5774C10.27 19.6881 10.4444 20.6675 11.1122 21.3352C11.7799 22.0029 12.7593 22.1774 13.87 22.1774V20.6774C12.8407 20.6774 12.3951 20.4968 12.1728 20.2745C11.9505 20.0523 11.77 19.6067 11.77 18.5774H10.27ZM13.87 22.1774H18.15V20.6774H13.87V22.1774ZM18.15 22.1774C19.2607 22.1774 20.2401 22.0029 20.9078 21.3352C21.5756 20.6675 21.75 19.6881 21.75 18.5774H20.25C20.25 19.6067 20.0694 20.0523 19.8472 20.2745C19.6249 20.4968 19.1793 20.6774 18.15 20.6774V22.1774ZM21.75 18.5774V10.0174H20.25V18.5774H21.75ZM21.75 10.0174C21.75 9.06142 21.6207 8.21333 21.1683 7.57067C20.687 6.88693 19.9512 6.5833 19.0955 6.47345L18.9045 7.96124C19.5288 8.04139 19.793 8.22279 19.9417 8.43407C20.1193 8.68643 20.25 9.14337 20.25 10.0174H21.75ZM14.62 17.4374C14.62 17.1209 14.7302 16.8216 14.912 16.5878L13.728 15.6669C13.3498 16.1532 13.12 16.7739 13.12 17.4374H14.62ZM14.9114 16.5887C15.1682 16.2594 15.5653 16.0474 16.01 16.0474V14.5474C15.0747 14.5474 14.2518 14.9954 13.7286 15.6661L14.9114 16.5887ZM16.01 16.0474C16.3619 16.0474 16.6796 16.1773 16.9194 16.3847L17.9006 15.2501C17.4004 14.8175 16.7381 14.5474 16.01 14.5474V16.0474ZM16.9117 16.3779C17.2148 16.6473 17.4 17.0286 17.4 17.4374H18.9C18.9 16.5661 18.5052 15.7875 17.9083 15.2568L16.9117 16.3779Z" fill="#1E2D56"/>
</svg>
