<svg width="22" height="21" viewBox="0 0 22 21" fill="none" xmlns="http://www.w3.org/2000/svg">
<path d="M13 5.82056C12.5858 5.82056 12.25 6.15634 12.25 6.57056C12.25 6.98477 12.5858 7.32056 13 7.32056V5.82056ZM18 7.32056C18.4142 7.32056 18.75 6.98477 18.75 6.57056C18.75 6.15634 18.4142 5.82056 18 5.82056V7.32056ZM14 9.82056C13.5858 9.82056 13.25 10.1563 13.25 10.5706C13.25 10.9848 13.5858 11.3206 14 11.3206V9.82056ZM18 11.3206C18.4142 11.3206 18.75 10.9848 18.75 10.5706C18.75 10.1563 18.4142 9.82056 18 9.82056V11.3206ZM16 13.8206C15.5858 13.8206 15.25 14.1563 15.25 14.5706C15.25 14.9848 15.5858 15.3206 16 15.3206V13.8206ZM18 15.3206C18.4142 15.3206 18.75 14.9848 18.75 14.5706C18.75 14.1563 18.4142 13.8206 18 13.8206V15.3206ZM10.2535 14.9726C10.2933 15.3849 10.6598 15.6869 11.0721 15.6471C11.4844 15.6073 11.7863 15.2408 11.7465 14.8285L10.2535 14.9726ZM8.26 12.1806L8.18537 12.9269L8.19303 12.9276L8.26 12.1806ZM6.74 12.1806L6.81208 12.9271L6.81318 12.927L6.74 12.1806ZM3.25347 14.8285C3.21366 15.2408 3.51563 15.6073 3.92792 15.6471C4.34022 15.6869 4.70672 15.3849 4.74653 14.9726L3.25347 14.8285ZM16 18.8206H6V20.3206H16V18.8206ZM6 18.8206C3.99464 18.8206 3.04182 18.5517 2.53033 18.0402C2.01884 17.5287 1.75 16.5759 1.75 14.5706H0.25C0.25 16.5652 0.481164 18.1124 1.46967 19.1009C2.45818 20.0894 4.00536 20.3206 6 20.3206V18.8206ZM1.75 14.5706V6.57056H0.25V14.5706H1.75ZM1.75 6.57056C1.75 4.5652 2.01884 3.61238 2.53033 3.10089C3.04182 2.58939 3.99464 2.32056 6 2.32056V0.820557C4.00536 0.820557 2.45818 1.05172 1.46967 2.04023C0.481164 3.02873 0.25 4.57592 0.25 6.57056H1.75ZM6 2.32056H16V0.820557H6V2.32056ZM16 2.32056C18.0054 2.32056 18.9582 2.58939 19.4697 3.10089C19.9812 3.61238 20.25 4.5652 20.25 6.57056H21.75C21.75 4.57592 21.5188 3.02873 20.5303 2.04023C19.5418 1.05172 17.9946 0.820557 16 0.820557V2.32056ZM20.25 6.57056V14.5706H21.75V6.57056H20.25ZM20.25 14.5706C20.25 16.5759 19.9812 17.5287 19.4697 18.0402C18.9582 18.5517 18.0054 18.8206 16 18.8206V20.3206C17.9946 20.3206 19.5418 20.0894 20.5303 19.1009C21.5188 18.1124 21.75 16.5652 21.75 14.5706H20.25ZM13 7.32056H18V5.82056H13V7.32056ZM14 11.3206H18V9.82056H14V11.3206ZM16 15.3206H18V13.8206H16V15.3206ZM8.56 8.05056C8.56 8.63598 8.08542 9.11056 7.5 9.11056V10.6106C8.91385 10.6106 10.06 9.46441 10.06 8.05056H8.56ZM7.5 9.11056C6.91458 9.11056 6.44 8.63598 6.44 8.05056H4.94C4.94 9.46441 6.08615 10.6106 7.5 10.6106V9.11056ZM6.44 8.05056C6.44 7.46513 6.91458 6.99056 7.5 6.99056V5.49056C6.08615 5.49056 4.94 6.63671 4.94 8.05056H6.44ZM7.5 6.99056C8.08542 6.99056 8.56 7.46513 8.56 8.05056H10.06C10.06 6.63671 8.91385 5.49056 7.5 5.49056V6.99056ZM11.7465 14.8285C11.5718 13.0187 10.1358 11.5957 8.32697 11.4336L8.19303 12.9276C9.28423 13.0254 10.1482 13.8824 10.2535 14.9726L11.7465 14.8285ZM8.33463 11.4343C7.78452 11.3793 7.225 11.3794 6.66682 11.4341L6.81318 12.927C7.275 12.8817 7.73548 12.8818 8.18537 12.9268L8.33463 11.4343ZM6.66792 11.434C4.86738 11.6079 3.4286 13.0146 3.25347 14.8285L4.74653 14.9726C4.8514 13.8865 5.71262 13.0332 6.81208 12.9271L6.66792 11.434Z" fill="#1E2D56"/>
</svg>
