<svg width="20" height="21" viewBox="0 0 20 21" fill="none" xmlns="http://www.w3.org/2000/svg">
<path d="M19.4275 3.35725C19.4275 2.61843 19.134 1.90987 18.6115 1.38745C18.0891 0.865027 17.3806 0.571533 16.6417 0.571533H3.35603C2.61721 0.571533 1.90865 0.865027 1.38623 1.38745C0.863806 1.90987 0.570313 2.61843 0.570312 3.35725V16.643C0.570312 17.3818 0.863806 18.0903 1.38623 18.6128C1.90865 19.1352 2.61721 19.4287 3.35603 19.4287H8.49717L8.49888 18.7858V18.143H3.35603C2.9582 18.143 2.57667 17.9849 2.29537 17.7036C2.01406 17.4223 1.85603 17.0408 1.85603 16.643V6.14553H18.1417V16.643C18.1417 17.0408 17.9837 17.4223 17.7024 17.7036C17.4211 17.9849 17.0396 18.143 16.6417 18.143H11.4989V19.4287H16.6417C17.3806 19.4287 18.0891 19.1352 18.6115 18.6128C19.134 18.0903 19.4275 17.3818 19.4275 16.643V3.35725ZM3.35603 1.85725H16.6417C17.4697 1.85725 18.1417 2.52925 18.1417 3.35725V4.85982H1.85603V3.35725C1.85603 2.52925 2.52803 1.85725 3.35603 1.85725ZM11.0703 9.35725C11.0703 9.64141 10.9574 9.91393 10.7565 10.1149C10.5556 10.3158 10.283 10.4287 9.99888 10.4287C9.71472 10.4287 9.4422 10.3158 9.24127 10.1149C9.04034 9.91393 8.92746 9.64141 8.92746 9.35725C8.92746 9.07309 9.04034 8.80056 9.24127 8.59963C9.4422 8.3987 9.71472 8.28582 9.99888 8.28582C10.283 8.28582 10.5556 8.3987 10.7565 8.59963C10.9574 8.80056 11.0703 9.07309 11.0703 9.35725ZM11.5006 15.4087C11.5629 15.4687 11.6368 15.5156 11.7177 15.5464C11.7986 15.5773 11.8849 15.5914 11.9714 15.5881C12.0579 15.5848 12.1429 15.564 12.2212 15.527C12.2995 15.49 12.3695 15.4376 12.427 15.3729C12.4845 15.3082 12.5284 15.2326 12.556 15.1505C12.5836 15.0684 12.5943 14.9816 12.5875 14.8953C12.5807 14.809 12.5566 14.7249 12.5165 14.6482C12.4764 14.5714 12.4213 14.5036 12.3543 14.4487L10.4257 12.7344C10.3081 12.6299 10.1562 12.5722 9.99888 12.5722C9.84155 12.5722 9.68967 12.6299 9.57203 12.7344L7.64346 14.4487C7.57651 14.5036 7.52135 14.5714 7.48128 14.6482C7.44121 14.7249 7.41705 14.809 7.41026 14.8953C7.40347 14.9816 7.41419 15.0684 7.44177 15.1505C7.46935 15.2326 7.51322 15.3082 7.57076 15.3729C7.62829 15.4376 7.69831 15.49 7.77659 15.527C7.85488 15.564 7.93983 15.5848 8.02635 15.5881C8.11287 15.5914 8.19917 15.5773 8.28007 15.5464C8.36098 15.5156 8.43482 15.4687 8.49717 15.4087L9.35603 14.6458V19.643C9.35603 19.8135 9.42376 19.977 9.54432 20.0975C9.66488 20.2181 9.82839 20.2858 9.99888 20.2858C10.1694 20.2858 10.3329 20.2181 10.4535 20.0975C10.574 19.977 10.6417 19.8135 10.6417 19.643V14.6458L11.5006 15.4087Z" fill="#282F38"/>
</svg>
