<svg width="24" height="24" viewBox="0 0 24 24" fill="none" xmlns="http://www.w3.org/2000/svg">
<g clip-path="url(#clip0_2_10859)">
<path d="M9.04214 21.0796L9.04214 20.4421C9.0562 20.3906 9.07964 20.3437 9.08901 20.2921C9.29526 18.9515 10.4109 17.8921 11.7187 17.8031C13.1812 17.6999 14.4187 18.5343 14.8218 19.8937C14.8734 20.0718 14.9109 20.2593 14.9577 20.4421L14.9577 21.0796C14.9437 21.1218 14.9202 21.1593 14.9156 21.2062C14.714 22.4437 13.8234 23.3858 12.6046 23.653C12.5109 23.6718 12.4171 23.6999 12.3234 23.7233L11.6859 23.7233C11.6437 23.7093 11.6015 23.6858 11.5593 23.6812C10.3406 23.4843 9.41245 22.6171 9.13118 21.4124C9.10305 21.2952 9.07026 21.1874 9.04214 21.0796ZM14.9578 3.06091L14.9577 3.69846C14.9437 3.75002 14.9202 3.7969 14.9156 3.84846C14.7046 5.19846 13.5843 6.25315 12.2624 6.33752C10.8046 6.43127 9.5718 5.58752 9.17336 4.22346C9.1218 4.05 9.0843 3.8719 9.04211 3.69844L9.04211 3.06094C9.05618 3.01875 9.07962 2.98125 9.08899 2.93906C9.31399 1.72031 10.0218 0.923437 11.2031 0.54375C11.3577 0.492187 11.5218 0.464062 11.6812 0.421875L12.3187 0.421875C12.3609 0.435937 12.4031 0.459375 12.4452 0.464062C13.6687 0.665625 14.5921 1.52812 14.8734 2.73281C14.9015 2.84531 14.9296 2.95312 14.9578 3.06091ZM14.9577 11.7516L14.9577 12.3891C14.9437 12.4406 14.9202 12.4875 14.9109 12.5391C14.6999 13.8844 13.5374 14.9672 12.2249 15.0234C10.7484 15.0891 9.4968 14.1984 9.14524 12.825C9.10774 12.6797 9.07493 12.5344 9.04211 12.3891L9.04211 11.7516C9.05618 11.7 9.07961 11.6531 9.08899 11.6016C9.29524 10.2562 10.4624 9.17341 11.7749 9.1125C13.2515 9.04219 14.5031 9.9375 14.8546 11.3109C14.8921 11.4609 14.9249 11.6062 14.9577 11.7516Z" fill="#777B82"/>
</g>
<defs>
<clipPath id="clip0_2_10859">
<rect width="24" height="24" fill="white" transform="translate(24) rotate(90)"/>
</clipPath>
</defs>
</svg>
