<svg width="17" height="15" viewBox="0 0 17 15" fill="none" xmlns="http://www.w3.org/2000/svg">
<path d="M11.2441 7.50373C11.2441 9.02136 10.0177 10.2477 8.50006 10.2477C6.98243 10.2477 5.75606 9.02136 5.75606 7.50373C5.75606 5.9861 6.98243 4.75974 8.50006 4.75974C10.0177 4.75974 11.2441 5.9861 11.2441 7.50373Z" stroke="white" stroke-width="1.5" stroke-linecap="round" stroke-linejoin="round"/>
<path d="M8.5 13.8425C11.2057 13.8425 13.7274 12.2482 15.4826 9.48886C16.1725 8.40812 16.1725 6.59156 15.4826 5.51083C13.7274 2.7515 11.2057 1.15723 8.5 1.15723C5.79433 1.15723 3.27261 2.7515 1.51737 5.51083C0.827542 6.59156 0.827542 8.40812 1.51737 9.48886C3.27261 12.2482 5.79433 13.8425 8.5 13.8425Z" stroke="white" stroke-width="1.5" stroke-linecap="round" stroke-linejoin="round"/>
</svg>
