<svg width="100" height="79" viewBox="0 0 100 79" fill="none" xmlns="http://www.w3.org/2000/svg">
<path d="M36.7195 76.0615L34.1231 75.8733L22.49 69.1821L40.5868 58.7727L36.7195 76.0615Z" fill="#B3B3B3"/>
<path d="M33.5818 74.226L73.8388 50.9677V14.2407L69.1322 16.2175L64.2374 21.3477L60.4172 19.3081L55.6008 19.9827L48.588 30.1725L44.6737 27.0818L40.1554 32.361L35.237 33.2945L33.5818 37.5069V74.226Z" fill="#C73472"/>
<path d="M31.9346 73.2767L33.5819 74.2259V37.5068L31.9346 36.5576V73.2767Z" fill="#AD2D63"/>
<path d="M35.237 33.2945L33.5897 32.3453L31.9346 36.5577L33.5819 37.5069L35.237 33.2945Z" fill="#FF66A6"/>
<path d="M40.1554 32.361L38.5002 31.4197L33.5897 32.3453L35.237 33.2945L40.1554 32.361Z" fill="#EB3D86"/>
<path d="M44.6737 27.0817L43.0264 26.1326L38.5002 31.4196L40.1554 32.3609L44.6737 27.0817Z" fill="#FF66A6"/>
<path d="M48.588 30.1724L55.6008 19.9827L53.9456 19.0414L47.0976 28.9958L48.588 30.1724Z" fill="#EB3D86"/>
<path d="M60.4172 19.308L58.7699 18.3589L53.9457 19.0413L55.6008 19.9827L60.4172 19.308Z" fill="#FF66A6"/>
<path d="M73.8388 14.2407L72.1915 13.2915L67.4849 15.2683L69.1322 16.2174L73.8388 14.2407Z" fill="#FF66A6"/>
<path d="M67.4849 15.2683L69.1322 16.2175L64.2374 21.3476L62.5901 20.3985L67.4849 15.2683Z" fill="#EB3D86"/>
<path d="M64.2374 21.3476L62.5901 20.3984L58.7699 18.3589L60.4172 19.308L64.2374 21.3476Z" fill="#D13E3B"/>
<path d="M35.1978 75.1751L75.4547 51.909V25.458L67.1632 26.5562L62.0331 31.1373L58.1188 28.9723L50.2039 41.0838L46.2896 39.2169L42.9871 46.1434L38.8297 40.8014L35.1978 48.7242V75.1751Z" fill="#FDD5A3"/>
<path d="M35.1978 48.7242L33.5818 47.775V74.226L35.1978 75.1751V48.7242Z" fill="#E39B64"/>
<path d="M35.1978 48.7241L38.8297 40.8013L37.2216 39.8522L33.5818 47.7749L35.1978 48.7241Z" fill="#FFDEB5"/>
<path d="M67.1632 26.5561L65.5473 25.6069L60.4171 30.188L62.033 31.1372L67.1632 26.5561Z" fill="#FFDEB5"/>
<path d="M75.4547 25.4579L73.8388 24.5088L65.5474 25.607L67.1633 26.5561L75.4547 25.4579Z" fill="#FDECD7"/>
<path d="M62.033 31.1373L60.4171 30.1881L56.5107 28.0231L58.1188 28.9722L62.033 31.1373Z" fill="#E39B64"/>
<path d="M50.2039 41.0838L48.588 40.1347L56.5108 28.0231L58.1188 28.9722L50.2039 41.0838Z" fill="#FFDEB5"/>
<path d="M44.6737 38.2677L46.2896 39.2169L50.2039 41.0838L48.588 40.1346L44.6737 38.2677Z" fill="#E39B64"/>
<path d="M44.6736 38.2677L46.2896 39.2169L42.9871 46.1434L41.7085 44.4961L44.6736 38.2677Z" fill="#FFDEB5"/>
<path d="M36.7431 76.0615L77 52.7953V37.499L71.2031 37.3029L66.7475 45.8296L59.2013 40.2445L51.3727 49.4694L47.8349 50.1675L44.6188 57.7451L40.1005 55.7369L36.7431 60.7651V76.0615Z" fill="#83A263"/>
<path d="M35.1978 75.1752L36.7431 76.0616V60.7652L35.1978 59.8788V75.1752Z" fill="#5D7A40"/>
<path d="M40.1004 55.737L38.5551 54.8506L35.1978 59.8788L36.7431 60.7652L40.1004 55.737Z" fill="#A1C77A"/>
<path d="M44.6188 57.7451L43.0734 56.8587L38.5551 54.8506L40.1004 55.737L44.6188 57.7451Z" fill="#5D7A40"/>
<path d="M47.8349 50.1675L44.6188 57.7451L43.0734 56.8587L46.2896 49.2811L47.8349 50.1675Z" fill="#A1C77A"/>
<path d="M51.3727 49.4694L49.8274 48.583L46.2896 49.2811L47.835 50.1676L51.3727 49.4694Z" fill="#CEFF9C"/>
<path d="M51.3727 49.4694L49.8273 48.583L57.6559 39.3582L59.2013 40.2446L51.3727 49.4694Z" fill="#A1C77A"/>
<path d="M71.2031 37.3029L69.6499 36.4165L65.3042 44.755L66.7475 45.8297L71.2031 37.3029Z" fill="#CEFF9C"/>
<path d="M77 37.499L75.4547 36.6126L69.6499 36.4165L71.2031 37.3029L77 37.499Z" fill="#A1C77A"/>
<path d="M70.2539 3.54103L69.5636 3.15666C69.5244 3.12528 69.4773 3.10175 69.4381 3.08606C69.2341 2.99977 68.9831 3.01546 68.7007 3.18019C68.034 3.56456 67.4849 4.60785 67.4849 5.5021C67.4849 6.01198 67.6653 6.36497 67.9398 6.50617L68.6615 6.90623L68.6929 6.66305C68.7713 6.63952 68.8576 6.6003 68.9439 6.55323C69.6107 6.16886 70.1598 5.12557 70.1598 4.23132C70.1598 4.00384 70.1205 3.80773 70.0578 3.643L70.2539 3.54103Z" fill="url(#paint0_linear_389_184794)"/>
<path d="M70.6069 4.47445C70.6069 5.3687 70.0656 6.40415 69.391 6.79637C68.7243 7.18074 68.1752 6.77283 68.1752 5.87858C68.1752 4.98433 68.7164 3.94104 69.391 3.55667C70.0656 3.1723 70.6069 3.58021 70.6069 4.47445Z" fill="#433F3E"/>
<path d="M68.9125 6.81205C69.038 6.81205 69.1792 6.76499 69.3282 6.68655C69.9636 6.31786 70.4735 5.32948 70.4735 4.4823C70.4735 3.91751 70.2382 3.54883 69.8695 3.54883C69.744 3.54883 69.6028 3.59589 69.4538 3.67434C68.8184 4.04302 68.3085 5.0314 68.3085 5.87858C68.3085 6.17667 68.3712 6.41984 68.4889 6.58457C68.5987 6.73361 68.7399 6.81205 68.9125 6.81205Z" fill="#C73472"/>
<path d="M62.5508 12.1619L68.034 5.56482L67.6417 5.35303L62.1586 11.9501L62.5508 12.1619Z" fill="#595959"/>
<path d="M62.1586 12.3815V11.9501L62.5508 12.1619V12.5933L62.1586 12.3815Z" fill="#CCBABA"/>
<path d="M68.034 5.56482V6.0041L62.5508 12.5933V12.1619L68.034 5.56482Z" fill="#262626"/>
<path d="M63.1078 11.4324L62.4175 11.048C62.3783 11.0166 62.3312 10.9931 62.292 10.9774C62.088 10.8911 61.837 10.9068 61.5546 11.0715C60.8878 11.4559 60.3387 12.4992 60.3387 13.3935C60.3387 13.9033 60.5192 14.2563 60.7937 14.3975L61.5154 14.7976L61.5467 14.5544C61.6252 14.5309 61.7115 14.4917 61.7978 14.4446C62.4645 14.0602 63.0136 13.0169 63.0136 12.1227C63.0136 11.8952 62.9744 11.6991 62.9117 11.5344L63.1078 11.4324Z" fill="url(#paint1_linear_389_184794)"/>
<path d="M63.4686 12.3737C63.4686 13.2679 62.9274 14.3112 62.2527 14.6956C61.586 15.0799 61.0369 14.672 61.0369 13.7778C61.0369 12.8835 61.5781 11.8403 62.2527 11.4559C62.9195 11.0637 63.4686 11.4794 63.4686 12.3737Z" fill="#433F3E"/>
<path d="M61.7664 14.7034C61.8919 14.7034 62.0331 14.6563 62.1821 14.5779C62.8175 14.2092 63.3274 13.2208 63.3274 12.3737C63.3274 11.8089 63.092 11.4402 62.7234 11.4402C62.5979 11.4402 62.4567 11.4873 62.3076 11.5657C61.6722 11.9344 61.1624 12.9228 61.1624 13.7699C61.1624 14.068 61.2251 14.3112 61.3428 14.4759C61.4526 14.625 61.6016 14.7034 61.7664 14.7034Z" fill="#83A263"/>
<path d="M54.3614 11.5972L60.9114 13.5269L60.5192 13.3151L53.9692 11.3854L54.3614 11.5972Z" fill="#595959"/>
<path d="M53.9692 11.8247V11.3854L54.3614 11.5972V12.0365L53.9692 11.8247Z" fill="#CCBABA"/>
<path d="M60.9114 13.5269V13.9583L54.3614 12.0364V11.5972L60.9114 13.5269Z" fill="#262626"/>
<path d="M54.6673 9.86354L53.977 9.47917C53.9378 9.44779 53.8907 9.42426 53.8515 9.40857C53.6475 9.32228 53.3965 9.33797 53.1141 9.5027C52.4473 9.88707 51.8983 10.9304 51.8983 11.8246C51.8983 12.3345 52.0787 12.6875 52.3532 12.8287L53.0749 13.2287L53.1063 12.9856C53.1847 12.962 53.271 12.9228 53.3573 12.8757C54.024 12.4914 54.5732 11.4481 54.5732 10.5538C54.5732 10.3263 54.5339 10.1302 54.4712 9.96551L54.6673 9.86354Z" fill="url(#paint2_linear_389_184794)"/>
<path d="M55.0203 10.797C55.0203 11.6912 54.479 12.7345 53.8044 13.1189C53.1377 13.5032 52.5886 13.0953 52.5886 12.2011C52.5886 11.3068 53.1298 10.2636 53.8044 9.87918C54.479 9.49481 55.0203 9.90272 55.0203 10.797Z" fill="#433F3E"/>
<path d="M53.3259 13.1346C53.4514 13.1346 53.5926 13.0875 53.7416 13.0091C54.377 12.6404 54.8869 11.652 54.8869 10.8048C54.8869 10.24 54.6516 9.87134 54.2829 9.87134C54.1574 9.87134 54.0162 9.9184 53.8671 9.99685C53.2318 10.3655 52.7219 11.3539 52.7219 12.2011C52.7219 12.4992 52.7846 12.7423 52.9023 12.9071C53.0121 13.0561 53.1612 13.1346 53.3259 13.1346Z" fill="#33AFCB"/>
<path d="M47.8192 22.1791L52.4709 11.8717L52.0787 11.6599L47.427 21.9673L47.8192 22.1791Z" fill="#595959"/>
<path d="M47.427 22.4066V21.9673L47.8192 22.1791V22.6184L47.427 22.4066Z" fill="#CCBABA"/>
<path d="M52.4709 11.8717V12.3031L47.8192 22.6184V22.1791L52.4709 11.8717Z" fill="#262626"/>
<path d="M48.1722 21.1751L47.4819 20.7907C47.4426 20.7593 47.4034 20.7358 47.3564 20.7201C47.1524 20.6338 46.9014 20.6495 46.619 20.8142C45.9522 21.1986 45.4031 22.2419 45.4031 23.1361C45.4031 23.646 45.5836 23.999 45.8581 24.1402L46.5798 24.5403L46.6112 24.2971C46.6896 24.2736 46.7759 24.2343 46.8622 24.1873C47.5289 23.8029 48.078 22.7596 48.078 21.8654C48.078 21.6379 48.0388 21.4418 47.9761 21.277L48.1722 21.1751Z" fill="url(#paint3_linear_389_184794)"/>
<path d="M48.5252 22.1085C48.5252 23.0027 47.9839 24.046 47.3093 24.4304C46.6425 24.8148 46.0934 24.4069 46.0934 23.5126C46.0934 22.6184 46.6347 21.5751 47.3093 21.1907C47.9839 20.8063 48.5252 21.2142 48.5252 22.1085Z" fill="#433F3E"/>
<path d="M46.8308 24.4461C46.9563 24.4461 47.0975 24.399 47.2466 24.3206C47.8819 23.9519 48.3918 22.9635 48.3918 22.1163C48.3918 21.5515 48.1565 21.1829 47.7878 21.1829C47.6623 21.1829 47.5211 21.2299 47.3721 21.3084C46.7367 21.6771 46.2268 22.6654 46.2268 23.5126C46.2268 23.8107 46.2896 24.0539 46.4072 24.2186C46.517 24.3676 46.6582 24.4461 46.8308 24.4461Z" fill="#FF8447"/>
<path d="M39.0336 21.277L45.9836 23.1282L45.5914 22.9164L38.6414 21.0652L39.0336 21.277Z" fill="#595959"/>
<path d="M38.6414 21.5045V21.0652L39.0336 21.277V21.7163L38.6414 21.5045Z" fill="#CCBABA"/>
<path d="M45.9836 23.1282V23.5675L39.0336 21.7163V21.277L45.9836 23.1282Z" fill="#262626"/>
<path d="M40.0455 19.2139L39.3552 18.8295C39.316 18.7981 39.2689 18.7746 39.2297 18.7589C39.0258 18.6726 38.7748 18.6883 38.4924 18.853C37.8256 19.2374 37.2765 20.2807 37.2765 21.175C37.2765 21.6848 37.4569 22.0378 37.7315 22.179L38.4531 22.5791L38.4845 22.3359C38.5629 22.3124 38.6492 22.2732 38.7355 22.2261C39.4023 21.8417 39.9514 20.7984 39.9514 19.9042C39.9514 19.6767 39.9122 19.4806 39.8494 19.3159L40.0455 19.2139Z" fill="url(#paint4_linear_389_184794)"/>
<path d="M40.3985 20.1473C40.3985 21.0416 39.8573 22.077 39.1827 22.4692C38.5159 22.8536 37.9668 22.4457 37.9668 21.5514C37.9668 20.6572 38.5081 19.6139 39.1827 19.2295C39.8573 18.8452 40.3985 19.2531 40.3985 20.1473Z" fill="#433F3E"/>
<path d="M38.7041 22.4849C38.8296 22.4849 38.9708 22.4378 39.1198 22.3594C39.7552 21.9907 40.2651 21.0023 40.2651 20.1552C40.2651 19.5904 40.0298 19.2217 39.6611 19.2217C39.5356 19.2217 39.3944 19.2687 39.2454 19.3472C38.61 19.7159 38.1001 20.7043 38.1001 21.5514C38.1001 21.8495 38.1628 22.0927 38.2805 22.2574C38.3903 22.4065 38.5315 22.4849 38.7041 22.4849Z" fill="#FFDA47"/>
<path d="M33.3857 27.0111L37.8648 21.1985L37.4647 20.9867L32.9857 26.7993L33.3857 27.0111Z" fill="#595959"/>
<path d="M32.9857 27.2386V26.7993L33.3857 27.0111V27.4504L32.9857 27.2386Z" fill="#CCBABA"/>
<path d="M37.8648 21.1985V21.6378L33.3857 27.4504V27.0111L37.8648 21.1985Z" fill="#262626"/>
<path d="M33.3857 25.9993L32.6954 25.6149C32.6562 25.5835 32.6092 25.56 32.5699 25.5443C32.366 25.458 32.115 25.4737 31.8326 25.6384C31.1658 26.0228 30.6167 27.0661 30.6167 27.9604C30.6167 28.4702 30.7971 28.8232 31.0717 28.9644L31.7933 29.3645L31.8247 29.1213C31.9032 29.0978 31.9895 29.0586 32.0757 29.0115C32.7425 28.6271 33.2916 27.5838 33.2916 26.6896C33.2916 26.4621 33.2524 26.266 33.1896 26.1013L33.3857 25.9993Z" fill="url(#paint5_linear_389_184794)"/>
<path d="M33.7387 26.9406C33.7387 27.8349 33.1975 28.8782 32.5229 29.2626C31.8561 29.6469 31.307 29.239 31.307 28.3448C31.307 27.4505 31.8483 26.4072 32.5229 26.0229C33.1896 25.6385 33.7387 26.0464 33.7387 26.9406Z" fill="#433F3E"/>
<path d="M32.0443 29.2782C32.1698 29.2782 32.311 29.2312 32.4601 29.1527C33.0955 28.7841 33.6053 27.7957 33.6053 26.9485C33.6053 26.3837 33.37 26.015 33.0013 26.015C32.8758 26.015 32.7346 26.0621 32.5856 26.1405C31.9502 26.5092 31.4403 27.4976 31.4403 28.3448C31.4403 28.6429 31.5031 28.886 31.6207 29.0508C31.7227 29.1998 31.8717 29.2782 32.0443 29.2782Z" fill="#B36CFF"/>
<path d="M31.2677 47.2808C31.2677 48.983 31.5736 50.4185 32.1149 51.5402C32.6483 52.6541 33.4249 53.4542 34.3662 53.8778L35.5428 54.4975C35.5742 54.5132 35.5977 54.5289 35.6291 54.5446L35.4722 54.1916C35.8409 54.2465 36.2253 54.2465 36.6254 54.1994C35.9351 53.9719 35.331 53.5013 34.8604 52.8345C34.0681 51.7206 33.6524 50.1047 33.6524 48.1515C33.6524 42.5506 37.0411 36.0242 41.2143 33.616C42.1948 33.0512 43.1283 32.7688 43.9911 32.7688C44.7991 32.7688 45.5208 33.0355 46.117 33.5219C45.9208 33.1689 45.6934 32.8629 45.4502 32.5884C45.6149 32.5178 45.7561 32.4629 45.7953 32.4472L44.3912 31.7098C43.0028 30.9019 41.1829 30.9725 39.2061 32.1177C34.8212 34.6436 31.2677 41.4446 31.2677 47.2808Z" fill="url(#paint6_linear_389_184794)"/>
<path d="M40.8456 32.9806C42.7126 31.8981 44.4383 31.7726 45.7954 32.4394C47.6152 33.3258 48.784 35.6398 48.784 38.9815C48.784 44.8176 45.2227 51.6186 40.8535 54.1445C38.861 55.2976 37.0333 55.3604 35.637 54.5289C35.6056 54.5132 35.5821 54.4975 35.5507 54.4818C33.9426 53.4699 32.9307 51.25 32.9307 48.1358C32.915 42.3153 36.4763 35.5065 40.8456 32.9806ZM35.1742 53.2346L35.7468 53.7445C36.0135 53.9406 36.3116 54.0974 36.6254 54.1994C36.6254 54.1994 36.6254 54.1916 36.6332 54.1994C36.9705 54.3092 37.3235 54.3641 37.7079 54.3641C38.5786 54.3641 39.5121 54.0818 40.4848 53.517C44.6579 51.1009 48.0545 44.5823 48.0545 38.9815C48.0545 36.4478 47.3407 34.5259 46.1248 33.5297C46.117 33.5219 46.1091 33.514 46.0934 33.5062C45.9836 33.412 45.866 33.3336 45.7483 33.263C45.6306 33.1846 45.513 33.1218 45.3875 33.0669C45.3718 33.059 45.3561 33.0512 45.3404 33.0512C45.2227 32.9963 45.1051 32.9492 44.9796 32.91C44.9717 32.91 44.9717 32.91 44.9639 32.91C44.8384 32.8629 44.6972 32.8394 44.5717 32.8159C44.5638 32.8159 44.556 32.8159 44.556 32.8159C44.4069 32.7845 44.2736 32.7688 44.1167 32.7688C44.0696 32.761 44.0225 32.761 43.9755 32.761C43.1126 32.761 42.1791 33.0434 41.1986 33.6082C37.0254 36.0242 33.6367 42.5428 33.6367 48.1436C33.6367 50.0969 34.0525 51.7128 34.8447 52.8267C34.9545 52.9757 35.0644 53.1091 35.1742 53.2346Z" fill="#433F3E"/>
<path d="M36.6176 54.1994C36.9549 54.3171 37.3157 54.372 37.7001 54.372C38.5708 54.372 39.5043 54.0817 40.4769 53.517C44.6501 51.1009 48.0467 44.5901 48.0467 38.9893C48.0467 36.4556 47.3329 34.5102 46.1091 33.5219C46.7602 34.675 47.1289 36.236 47.1289 38.1186C47.1289 43.9548 43.5676 50.7558 39.1983 53.2895C38.2884 53.8072 37.4255 54.1131 36.6176 54.1994Z" fill="#83A263"/>
<path d="M35.1741 53.2346L35.7468 53.7444C36.0135 53.9327 36.3116 54.0896 36.6253 54.1994C36.6253 54.1994 36.6253 54.1916 36.6332 54.1994C36.9705 54.3092 37.3235 54.3641 37.7078 54.3641C38.5786 54.3641 39.512 54.0817 40.4847 53.517C44.6579 51.1009 48.0545 44.5823 48.0545 38.9815C48.0545 36.4478 47.3406 34.5259 46.1248 33.5297C46.1169 33.5219 46.1091 33.514 46.0934 33.5062C45.9836 33.4199 45.8659 33.3414 45.7482 33.263C45.6306 33.1924 45.5129 33.1218 45.3874 33.0669C45.3717 33.059 45.356 33.0512 45.3403 33.0512C45.2227 32.9963 45.105 32.9571 44.9795 32.91C44.9717 32.91 44.9717 32.91 44.9638 32.91C44.8305 32.8708 44.6971 32.8394 44.5716 32.8159C44.5638 32.8159 44.5559 32.8159 44.5559 32.8159C44.4069 32.7923 44.2657 32.7766 44.1166 32.7688C45.0972 33.8356 45.662 35.6084 45.662 37.8519C45.662 43.4527 42.2654 49.9792 38.0922 52.3795C37.1117 52.9522 36.1782 53.2346 35.3153 53.2346C35.2761 53.2424 35.2212 53.2346 35.1741 53.2346Z" fill="url(#paint7_linear_389_184794)"/>
<path d="M36.5156 54.0426C36.2253 53.6425 35.5899 53.368 35.1036 53.415C34.8526 53.4386 34.6878 53.5484 34.6251 53.7053L33.0092 57.2509L35.0408 58.0589L36.6332 54.576C36.6881 54.4348 36.6646 54.2387 36.5156 54.0426Z" fill="url(#paint8_linear_389_184794)"/>
<path d="M34.8997 57.5725C35.1899 57.9725 35.0252 58.3334 34.531 58.3883C34.0368 58.4432 33.4092 58.1608 33.119 57.7686C32.8288 57.3685 32.9935 57.0077 33.4877 56.9528C33.9819 56.8979 34.6173 57.1724 34.8997 57.5725Z" fill="#9D9D9D"/>
<path d="M35.3389 57.5255C34.8918 56.9058 33.9034 56.4743 33.1425 56.5528C32.7503 56.592 32.4914 56.7646 32.3973 56.9999L24.757 74.0848L27.9104 75.3399L35.5193 58.357C35.6135 58.1295 35.5664 57.8314 35.3389 57.5255Z" fill="url(#paint9_linear_389_184794)"/>
<path d="M27.6986 74.5789C28.1457 75.1986 27.8947 75.7634 27.1338 75.8419C26.3729 75.9203 25.3845 75.4889 24.9374 74.8692C24.4903 74.2495 24.7413 73.6847 25.5022 73.6062C26.2631 73.5278 27.2515 73.9592 27.6986 74.5789Z" fill="#262626"/>
<path d="M33.6445 48.1515C33.6445 50.1047 34.0603 51.7206 34.8526 52.8345C34.9545 52.9836 35.0643 53.1091 35.1742 53.2346L35.7468 53.7445C36.0135 53.9406 36.3116 54.0975 36.6254 54.1994H36.6332C36.9705 54.3093 37.3235 54.3642 37.7079 54.3642C38.5786 54.3642 39.5121 54.0818 40.4848 53.517C44.6579 51.1009 48.0545 44.5823 48.0545 38.9815C48.0545 36.4478 47.3407 34.526 46.1248 33.5297C46.117 33.5219 46.1091 33.514 46.0934 33.5062C45.9836 33.4121 45.8659 33.3336 45.7483 33.263C45.6306 33.1846 45.5129 33.1218 45.3874 33.0669C45.3718 33.0591 45.3561 33.0512 45.3404 33.0512C45.2227 32.9963 45.105 32.9492 44.9795 32.91C44.9717 32.91 44.9717 32.91 44.9639 32.91C44.8383 32.863 44.6971 32.8394 44.5716 32.8159C44.5638 32.8159 44.5559 32.8159 44.5559 32.8159C44.4069 32.7845 44.2736 32.7688 44.1167 32.7688C44.0696 32.761 44.0225 32.761 43.9755 32.761C43.1126 32.761 42.1791 33.0434 41.1986 33.6082C37.0333 36.0321 33.6445 42.5507 33.6445 48.1515Z" fill="white" fill-opacity="0.22"/>
<path d="M38.3119 46.4258C38.3119 47.6416 38.5708 48.6457 39.0649 49.3439C39.1277 49.438 39.1983 49.5164 39.2689 49.5949L39.6219 49.9165C39.7866 50.042 39.9749 50.1361 40.171 50.1989H40.1788C40.3906 50.2695 40.6103 50.3009 40.8456 50.3009C41.3869 50.3009 41.9673 50.1204 42.5713 49.7753C45.1678 48.2692 47.2858 44.2137 47.2858 40.723C47.2858 39.1463 46.8386 37.9461 46.0856 37.3264C46.0777 37.3186 46.0777 37.3186 46.0699 37.3107C45.9993 37.248 45.9287 37.2009 45.8581 37.1617C45.7875 37.1146 45.7091 37.0754 45.6385 37.0362C45.6306 37.0283 45.6228 37.0283 45.6149 37.0283C45.5443 36.9891 45.4659 36.9656 45.3953 36.942C45.3874 36.942 45.3874 36.942 45.3874 36.942C45.309 36.9185 45.2227 36.895 45.1443 36.8793C45.1364 36.8793 45.1364 36.8793 45.1364 36.8793C45.0423 36.8636 44.956 36.8557 44.8619 36.8557C44.8383 36.8479 44.7991 36.8479 44.7756 36.8479C44.2422 36.8479 43.6539 37.0283 43.0498 37.3735C40.422 38.8717 38.3119 42.9351 38.3119 46.4258Z" fill="white" fill-opacity="0.3"/>
<path d="M38.4374 52.7326C38.4374 53.0071 38.4923 53.2268 38.6021 53.3837C38.6178 53.4072 38.6335 53.4229 38.6492 53.4386L38.7276 53.5092C38.7668 53.5405 38.8061 53.5562 38.8531 53.5719C38.9002 53.5876 38.9473 53.5955 39.0022 53.5955C39.1198 53.5955 39.2532 53.5562 39.3865 53.4778C39.967 53.1405 40.4455 52.2306 40.4455 51.4461C40.4455 51.0931 40.3435 50.8264 40.1788 50.6852C40.1788 50.6852 40.1788 50.6852 40.171 50.6852C40.1553 50.6695 40.1396 50.6617 40.1239 50.6539C40.1082 50.646 40.0925 50.6382 40.0768 50.6225H40.069C40.0533 50.6146 40.0376 50.6068 40.0219 50.6068C40.0062 50.5989 39.9827 50.5989 39.967 50.5911C39.9435 50.5833 39.9278 50.5833 39.9043 50.5833C39.8964 50.5833 39.8886 50.5833 39.8886 50.5833C39.7709 50.5833 39.6376 50.6225 39.5042 50.7009C38.9159 51.0461 38.4374 51.956 38.4374 52.7326Z" fill="white" fill-opacity="0.3"/>
<path d="M36.9626 52.5678C36.9626 52.7011 36.994 52.811 37.0411 52.8816C37.0489 52.8894 37.0568 52.8973 37.0646 52.9051L37.1038 52.9365C37.1195 52.9522 37.1431 52.96 37.1588 52.9679C37.1823 52.9757 37.2058 52.9757 37.2294 52.9757C37.2843 52.9757 37.347 52.96 37.4176 52.9208C37.7 52.7561 37.9275 52.3246 37.9275 51.9481C37.9275 51.7755 37.8804 51.65 37.802 51.5794C37.7941 51.5716 37.7863 51.5637 37.7785 51.5637C37.7706 51.5559 37.7628 51.5559 37.7549 51.548C37.7471 51.548 37.7392 51.5402 37.7314 51.5402C37.7236 51.5402 37.7157 51.5323 37.7079 51.5323C37.7 51.5323 37.6922 51.5323 37.6765 51.5323H37.6686C37.6137 51.5323 37.551 51.548 37.4804 51.5873C37.1901 51.7598 36.9626 52.1913 36.9626 52.5678Z" fill="white" fill-opacity="0.2"/>
<defs>
<linearGradient id="paint0_linear_389_184794" x1="69.655" y1="3.17564" x2="67.995" y2="6.57488" gradientUnits="userSpaceOnUse">
<stop offset="0.0873" stop-color="#4C4C4C"/>
<stop offset="0.095" stop-color="#595959"/>
<stop offset="0.8894" stop-color="#595959"/>
<stop offset="0.8977" stop-color="#262626"/>
</linearGradient>
<linearGradient id="paint1_linear_389_184794" x1="62.5136" y1="11.0699" x2="60.8536" y2="14.4691" gradientUnits="userSpaceOnUse">
<stop offset="0.0873" stop-color="#4C4C4C"/>
<stop offset="0.095" stop-color="#595959"/>
<stop offset="0.8894" stop-color="#595959"/>
<stop offset="0.8977" stop-color="#262626"/>
</linearGradient>
<linearGradient id="paint2_linear_389_184794" x1="54.0723" y1="9.49854" x2="52.4124" y2="12.8977" gradientUnits="userSpaceOnUse">
<stop offset="0.0873" stop-color="#4C4C4C"/>
<stop offset="0.095" stop-color="#595959"/>
<stop offset="0.8894" stop-color="#595959"/>
<stop offset="0.8977" stop-color="#262626"/>
</linearGradient>
<linearGradient id="paint3_linear_389_184794" x1="47.5738" y1="20.8102" x2="45.9138" y2="24.2094" gradientUnits="userSpaceOnUse">
<stop offset="0.0873" stop-color="#4C4C4C"/>
<stop offset="0.095" stop-color="#595959"/>
<stop offset="0.8894" stop-color="#595959"/>
<stop offset="0.8977" stop-color="#262626"/>
</linearGradient>
<linearGradient id="paint4_linear_389_184794" x1="39.4473" y1="18.8498" x2="37.7873" y2="22.249" gradientUnits="userSpaceOnUse">
<stop offset="0.0873" stop-color="#4C4C4C"/>
<stop offset="0.095" stop-color="#595959"/>
<stop offset="0.8894" stop-color="#595959"/>
<stop offset="0.8977" stop-color="#262626"/>
</linearGradient>
<linearGradient id="paint5_linear_389_184794" x1="32.7838" y1="25.6407" x2="31.1238" y2="29.04" gradientUnits="userSpaceOnUse">
<stop offset="0.0873" stop-color="#4C4C4C"/>
<stop offset="0.095" stop-color="#595959"/>
<stop offset="0.8894" stop-color="#595959"/>
<stop offset="0.8977" stop-color="#262626"/>
</linearGradient>
<linearGradient id="paint6_linear_389_184794" x1="42.6481" y1="30.8768" x2="32.13" y2="52.3509" gradientUnits="userSpaceOnUse">
<stop offset="0.0873" stop-color="#4C4C4C"/>
<stop offset="0.095" stop-color="#595959"/>
<stop offset="0.8894" stop-color="#595959"/>
<stop offset="0.8977" stop-color="#262626"/>
</linearGradient>
<linearGradient id="paint7_linear_389_184794" x1="47.5417" y1="35.59" x2="36.9027" y2="54.2905" gradientUnits="userSpaceOnUse">
<stop offset="0.1023" stop-color="#262626"/>
<stop offset="0.1106" stop-color="#595959"/>
<stop offset="0.905" stop-color="#595959"/>
<stop offset="0.9127" stop-color="#4C4C4C"/>
</linearGradient>
<linearGradient id="paint8_linear_389_184794" x1="33.9265" y1="55.1781" x2="35.9432" y2="56.083" gradientUnits="userSpaceOnUse">
<stop offset="0.369" stop-color="#F2F2F2"/>
<stop offset="0.379" stop-color="#BDBDBD"/>
<stop offset="0.8894" stop-color="#BDBDBD"/>
<stop offset="0.8937" stop-color="#727373"/>
</linearGradient>
<linearGradient id="paint9_linear_389_184794" x1="28.7617" y1="65.0782" x2="31.872" y2="66.4739" gradientUnits="userSpaceOnUse">
<stop offset="0.0873" stop-color="#4C4C4C"/>
<stop offset="0.095" stop-color="#595959"/>
<stop offset="0.8894" stop-color="#595959"/>
<stop offset="0.8977" stop-color="#262626"/>
</linearGradient>
</defs>
</svg>
