<svg width="100" height="79" viewBox="0 0 100 79" fill="none" xmlns="http://www.w3.org/2000/svg">
<path d="M72.2933 52.6902L71.0412 51.9634C70.7282 51.7798 70.2166 51.7798 69.896 51.9634L68.4148 52.8202L46.6627 48.4595L36.4547 42.561L37.4549 41.9872C38.0199 41.6582 38.0199 41.1303 37.4549 40.809L30.843 36.9838C27.7279 35.1783 22.6812 35.1783 19.5661 36.9838L15.3363 39.4319C12.2212 41.2374 12.2212 44.1523 15.3363 45.9578L21.9482 49.783C22.5132 50.112 23.4294 50.112 23.9868 49.783L25.132 49.1174L35.1873 54.9318L42.807 67.6392L41.3258 68.4961C41.0128 68.6797 41.0128 68.978 41.3258 69.154L42.578 69.8808C42.891 70.0644 43.4025 70.0644 43.7232 69.8808L72.2933 53.3481C72.6064 53.1722 72.6064 52.8738 72.2933 52.6902Z" fill="#D8D2C9"/>
<path d="M34.9735 29.5322L34.9658 45.5982C34.9658 46.4551 35.5613 47.4879 36.3019 47.9163L39.0811 49.5229C39.4552 49.7371 39.7911 49.7601 40.0355 49.6224C40.2798 49.4847 40.6692 49.1863 40.6692 48.7579L41.7381 32.0492L34.9735 29.5322Z" fill="#B6B2AE"/>
<path d="M40.4324 32.6917L40.4248 48.7576C40.4248 49.1784 40.2721 49.4768 40.0354 49.6221L43.7307 47.4724C43.9674 47.3347 44.1201 47.0363 44.1201 46.6079L44.1278 30.5419L40.4324 32.6917Z" fill="#CFCBC7"/>
<path d="M41.3334 33.2578L43.3796 32.072L45.0516 36.1191L43.0054 37.3049L41.3334 33.2578Z" fill="#CB1E19"/>
<path d="M41.3333 33.2578L43.0054 37.3049L41.3257 37.3891L41.3333 33.2578Z" fill="#AF110C"/>
<path d="M75.5841 17.498L59.0391 20.4817C61.6502 20.0379 63.5513 21.7899 63.6124 25.1331C63.6582 27.5889 62.7038 30.3814 61.1692 32.7377C60.085 34.4055 58.7184 35.8668 57.2143 36.8384C57.115 36.8996 57.0158 36.9608 56.9165 37.022C53.8778 38.8428 51.259 38.116 50.3123 35.5225L55.6033 51.359C57.7029 57.1351 63.5971 59.0553 70.3465 55.0159C70.5679 54.8858 71.1023 54.7099 71.3161 54.5645C74.6602 52.3994 77.9815 49.1327 80.3865 45.4222C83.7841 40.174 86.1204 33.5028 86.0211 28.048C85.8837 20.6041 81.3867 16.5034 75.5841 17.498Z" fill="url(#paint0_linear_389_113303)"/>
<path d="M49.4418 10.6124C47.8079 9.66374 45.5327 9.8244 43.0436 11.3162C38.8368 13.8332 35.3781 19.3186 34.607 24.345C34.4925 25.11 34.4314 25.8598 34.4466 26.5942C34.4925 29.2795 35.4621 31.1616 37.0044 32.0643C37.5312 32.3397 38.623 32.9212 40.3409 32.7682C42.0206 32.6228 43.4636 31.8731 44.1736 31.437C48.9531 28.5068 52.511 22.1723 52.45 16.7098C52.3812 15.3863 52.2285 12.3108 49.4418 10.6124Z" fill="#CB1E19"/>
<path d="M41.8679 6.21356C41.7381 6.13706 41.593 6.0682 41.4556 6.007C40.0507 5.31846 38.6612 4.96653 36.5005 5.2496C34.9048 5.45616 32.8051 6.42012 31.4003 7.59065C30.6902 8.17973 28.5143 9.98524 27.0025 13.0607C26.178 14.7362 25.216 17.2991 25.2999 19.9921C25.4297 24.3681 27.621 26.5791 29.4305 27.6578L37.0044 32.0568C35.4621 31.1617 34.4925 29.2721 34.4467 26.5868C34.3474 21.0555 38.1954 14.216 43.0437 11.3088C45.5403 9.81693 47.8155 9.65627 49.4418 10.6049L41.8679 6.21356Z" fill="url(#paint1_linear_389_113303)"/>
<path d="M49.7472 12.5711C48.3194 11.7449 46.3267 11.8826 44.1507 13.1908C39.9057 15.7307 36.5386 21.7211 36.6226 26.5638C36.6684 28.9125 37.5159 30.565 38.8597 31.3454L48.7546 37.1291L59.665 18.3243L49.7472 12.5711Z" fill="url(#paint2_linear_389_113303)"/>
<path d="M70.995 37.5159C73.4323 33.286 73.4336 28.7147 70.9979 27.3056C68.5623 25.8965 64.612 28.1832 62.1747 32.413C59.7375 36.6429 59.7362 41.2142 62.1719 42.6233C64.6075 44.0324 68.5578 41.7458 70.995 37.5159Z" fill="#CB1E19"/>
<path d="M63.4445 36.777C63.4445 38.7814 64.8493 39.6 66.5824 38.5978C68.3156 37.5956 69.7204 35.1551 69.7204 33.143C69.7204 31.1386 68.3156 30.32 66.5824 31.3222C64.8493 32.332 63.4445 34.7725 63.4445 36.777Z" fill="#AF110C"/>
<path d="M71.0336 27.3289L62.261 22.2567C61.131 21.5758 59.5506 21.6599 57.8098 22.6698C54.3664 24.6666 51.572 29.5093 51.572 33.5029C51.572 35.469 52.2515 36.8614 53.3586 37.527L62.1312 42.5993C61.0241 41.9337 60.3446 40.5413 60.3446 38.5751C60.3446 34.5892 63.139 29.7388 66.5824 27.7421C68.3308 26.7322 69.9036 26.648 71.0336 27.3289Z" fill="#AF110C"/>
<path d="M46.9757 34.9408L53.3433 51.3587C52.7402 49.8133 52.3966 47.9696 52.3584 45.8657C52.1752 35.614 59.3062 22.9449 68.285 17.5666C70.3846 16.3119 72.4003 15.5622 74.2556 15.2867L56.8707 17.8726C55.9927 18.0027 55.0383 18.3546 54.0457 18.9513C49.793 21.4989 46.4184 27.4969 46.51 32.3473C46.5253 33.3342 46.6856 34.2064 46.9757 34.9408Z" fill="url(#paint3_linear_389_113303)"/>
<path d="M70.69 55.9796C61.5662 61.442 54.0152 57.4255 53.8319 47.0133C53.6411 36.601 60.8867 23.7329 70.0105 18.2704C79.1343 12.808 86.6853 16.8245 86.8685 27.2368C87.0518 37.6567 79.8062 50.5248 70.69 55.9796ZM85.5324 28.0401C85.3568 18.4694 78.4166 14.7742 70.0334 19.8005C61.6425 24.8192 54.9848 36.6545 55.1604 46.2253C55.336 55.796 62.2762 59.4912 70.6595 54.4648C79.0503 49.4461 85.708 37.6108 85.5324 28.0401Z" fill="#CB1E19"/>
<path d="M70.5984 56.194C76.4163 52.6289 80.1956 47.3272 82.341 43.5096C84.5094 39.6614 87.0747 33.6787 86.9984 27.0458C86.9984 27.1146 86.9525 27.1911 86.8609 27.2447C87.0518 37.657 79.8062 50.525 70.6824 55.9875C61.5586 61.4499 54.0076 57.4334 53.8243 47.0211C53.6334 36.6088 60.8791 23.7408 70.0029 18.2783C79.1267 12.8159 86.6777 16.8324 86.8609 27.2447C86.9525 27.1911 86.9984 27.1146 86.9984 27.0458C86.8838 24.7047 86.6166 19.2117 81.9593 16.3734C78.8289 14.5525 74.4617 14.8586 69.6746 17.7198C60.3751 23.2894 52.9845 36.4099 53.183 47.0288C53.2746 52.1852 55.1375 55.7962 58.0923 57.5176C58.8329 57.9078 60.8027 58.9559 63.6047 58.6575C65.9869 58.405 68.3461 57.5711 70.5984 56.194Z" fill="url(#paint4_radial_389_113303)"/>
<path d="M80.875 15.7384C80.3711 15.4477 79.829 15.2105 79.264 15.0346C79.2411 15.0269 79.2259 15.0193 79.203 15.0116C79.1113 14.981 79.0197 14.9504 78.9281 14.9275C77.1797 14.4072 74.9121 14.3078 71.6825 15.4553C70.5067 15.8685 68.5522 16.8401 67.0939 17.8805C64.3834 19.8161 63.2229 21.0402 61.8792 22.4555C56.7637 27.8491 51.7094 37.7412 51.9613 46.2102C52.0453 48.9797 52.4423 50.8158 53.4425 52.9656C53.8319 53.8071 54.3282 54.5033 54.8244 55.0618C54.3129 54.4574 53.8701 53.7383 53.4883 52.9426C53.9922 53.9908 54.6259 54.8859 55.3665 55.6203C55.1833 55.452 55 55.2684 54.8168 55.0618C55.42 55.7733 56.0995 56.3547 56.8477 56.7908C56.8095 56.7679 56.7485 56.722 56.695 56.6914C56.7943 56.7526 56.8935 56.8214 56.9928 56.8826L58.0769 57.51C55.1222 55.7886 53.2593 52.1699 53.1676 47.0212C52.9768 36.4023 60.3598 23.2818 69.6592 17.7122C74.4464 14.8433 78.8059 14.5373 81.9439 16.3657L80.875 15.7384Z" fill="url(#paint5_linear_389_113303)"/>
<path d="M32.3394 26.4414L27.537 23.6642C27.0026 23.3506 26.5674 22.662 26.5674 22.1265C26.5674 21.591 27.0026 21.3997 27.537 21.7134L32.3394 24.4905C32.8739 24.8042 33.3091 25.4927 33.3091 26.0282C33.3167 26.5714 32.8815 26.755 32.3394 26.4414Z" fill="#AF110C"/>
<path d="M49.2204 10.4822C49.0753 10.3981 48.8539 10.2833 48.5638 10.1762C47.9759 9.96201 47.052 9.80135 45.9831 9.98496C44.9142 10.1686 43.7003 10.6123 42.5703 11.3544C42.2878 11.5227 42.0053 11.7216 41.7228 11.9358C41.4327 12.1347 41.1654 12.3643 40.8982 12.5938C40.3561 13.0528 39.8446 13.5577 39.356 14.0856C38.4016 15.1643 37.5694 16.3425 36.8975 17.513C36.5615 18.0945 36.2714 18.6759 36.0271 19.242C35.7828 19.8082 35.5614 20.3437 35.3934 20.8563C35.2102 21.3612 35.088 21.8355 34.9811 22.2563C34.8742 22.6771 34.8131 23.052 34.7444 23.358C34.6604 23.9777 34.6146 24.3296 34.6146 24.3296C34.6146 24.3296 34.6986 23.9853 34.8437 23.3809C35.0116 22.7842 35.2636 21.935 35.6683 20.9557C35.8591 20.4585 36.1034 19.9382 36.3707 19.4027C36.6379 18.8595 36.9586 18.3087 37.2869 17.7349C37.9588 16.6026 38.791 15.4627 39.7377 14.4299C40.2034 13.9097 40.6921 13.4047 41.2113 12.9533C41.4708 12.7238 41.7304 12.502 41.9977 12.3031C42.2573 12.0965 42.5321 11.8976 42.8146 11.7216C43.8988 10.9872 45.0211 10.4746 46.0442 10.2604C47.0597 10.0385 47.953 10.0921 48.5485 10.2604C48.8462 10.3369 49.0753 10.421 49.228 10.4899C49.3807 10.5587 49.457 10.597 49.457 10.597C49.457 10.597 49.3654 10.5664 49.2204 10.4822Z" fill="url(#paint6_radial_389_113303)"/>
<defs>
<linearGradient id="paint0_linear_389_113303" x1="59.2458" y1="54.7097" x2="76.3659" y2="16.4654" gradientUnits="userSpaceOnUse">
<stop stop-color="#FFFAF5"/>
<stop offset="0.2485" stop-color="#EAE5E0"/>
<stop offset="0.7402" stop-color="#C4C0BC"/>
<stop offset="1" stop-color="#B6B2AE"/>
</linearGradient>
<linearGradient id="paint1_linear_389_113303" x1="41.5452" y1="6.02888" x2="29.1236" y2="27.5002" gradientUnits="userSpaceOnUse">
<stop stop-color="#FF4545"/>
<stop offset="0.2598" stop-color="#F83F3F"/>
<stop offset="0.647" stop-color="#E3302E"/>
<stop offset="1" stop-color="#CB1E19"/>
</linearGradient>
<linearGradient id="paint2_linear_389_113303" x1="51.9742" y1="13.8646" x2="41.0797" y2="32.6962" gradientUnits="userSpaceOnUse">
<stop stop-color="#FFFAF5"/>
<stop offset="0.2485" stop-color="#EAE5E0"/>
<stop offset="0.7402" stop-color="#C4C0BC"/>
<stop offset="1" stop-color="#B6B2AE"/>
</linearGradient>
<linearGradient id="paint3_linear_389_113303" x1="49.8128" y1="39.8198" x2="66.9722" y2="13.864" gradientUnits="userSpaceOnUse">
<stop stop-color="#B6B2AE"/>
<stop offset="0.2755" stop-color="#C4C0BC"/>
<stop offset="0.7969" stop-color="#EAE5E0"/>
<stop offset="1" stop-color="#FAF5F0"/>
</linearGradient>
<radialGradient id="paint4_radial_389_113303" cx="0" cy="0" r="1" gradientUnits="userSpaceOnUse" gradientTransform="translate(69.3702 18.3439) scale(33.2781 33.3456)">
<stop stop-color="#FF5E5E"/>
<stop offset="1" stop-color="#E23A37"/>
</radialGradient>
<linearGradient id="paint5_linear_389_113303" x1="75.35" y1="12.5417" x2="51.5273" y2="53.7204" gradientUnits="userSpaceOnUse">
<stop stop-color="#FF4545"/>
<stop offset="0.2598" stop-color="#F83F3F"/>
<stop offset="0.647" stop-color="#E3302E"/>
<stop offset="1" stop-color="#CB1E19"/>
</linearGradient>
<radialGradient id="paint6_radial_389_113303" cx="0" cy="0" r="1" gradientUnits="userSpaceOnUse" gradientTransform="translate(42.2511 11.4653) scale(14.9473 14.9776)">
<stop stop-color="#FF5E5E"/>
<stop offset="1" stop-color="#E23A37"/>
</radialGradient>
</defs>
</svg>
