<svg width="100" height="79" viewBox="0 0 100 79" fill="none" xmlns="http://www.w3.org/2000/svg">
<path opacity="0.4" d="M69.8865 39.6229L40.1268 39.6572L2 60.6121L3.54549 61.0092H30.9905L44.483 53.5952L45.2377 53.424C46.4885 53.1434 47.7968 53.3282 48.9038 53.9375L52.4045 55.8612C52.4907 55.9091 52.5842 55.9296 52.6776 55.9296H53.3102L54.525 53.0133L53.1089 48.8511L69.8865 39.6229Z" fill="#ADA6A3"/>
<path opacity="0.4" d="M50.3486 71.9352C50.2695 71.9763 50.1905 72.0036 50.097 72.0036C49.831 72.0173 49.256 72.031 49.1194 71.9557L40.8025 67.3827C40.5797 67.2595 40.5797 67.061 40.8025 66.9378L66.738 52.678C67.1117 52.4726 67.7299 52.4726 68.1109 52.678L76.4278 57.2509C76.6435 57.3673 52.2247 70.8946 50.3486 71.9352Z" fill="#ADA6A3"/>
<path opacity="0.4" d="M83.7815 50.8159C82.0779 50.275 78.8791 50.1176 77.5277 50.9117C75.3496 52.1919 76.7801 53.3967 78.5484 54.4236C82.9261 56.9702 84.371 57.0798 86.8078 56.0118C87.5266 55.6969 87.9579 55.1903 87.9579 54.6974C87.9579 54.1977 86.7934 51.7674 83.7815 50.8159Z" fill="#ADA6A3"/>
<path d="M59.1831 47.3926L49.026 53.0061L53.2743 55.3405L63.4314 49.727L59.1831 47.3926Z" fill="url(#paint0_linear_389_6452)"/>
<path d="M63.4817 49.7954C63.4745 49.7749 63.4601 49.7612 63.4529 49.7475C63.4242 49.727 53.2743 55.3405 53.2743 55.3405C53.3102 55.3747 53.3246 55.3884 53.3318 55.409C53.4037 55.5596 53.3965 55.8745 53.3174 55.9224L63.4745 50.3088C63.5464 50.2678 63.5536 49.946 63.4817 49.7954Z" fill="#D2D1CE"/>
<path d="M58.3565 46.4613C58.1696 46.0574 58.1336 45.6604 58.263 45.3934L61.0233 39.5745L50.8663 45.188L48.1059 51.0069C47.9694 51.2739 48.0053 51.671 48.1994 52.0749C48.3 52.294 48.4366 52.4925 48.5876 52.6636C48.7169 52.8074 48.8679 52.9238 49.026 53.0128L59.1831 47.3992C59.025 47.3102 58.8812 47.1938 58.7446 47.0501C58.5937 46.8789 58.4571 46.6804 58.3565 46.4613Z" fill="url(#paint1_linear_389_6452)"/>
<path d="M53.2742 55.3405L49.0259 53.0061C48.6881 52.8213 48.3934 52.479 48.1993 52.0751C48.0124 51.6712 47.9765 51.2741 48.1058 51.0071L50.8662 45.1882L50.8877 45.0855L50.9021 39.424C50.9021 39.2597 50.7871 39.0681 50.6361 38.9859C50.4924 38.9106 50.3774 38.9722 50.3774 39.1365L50.363 44.7501L47.6098 50.5211C47.4158 50.9387 47.4733 51.548 47.7536 52.1572C48.0268 52.7665 48.5012 53.3073 49.0116 53.588L53.2599 55.9224C53.4108 55.9977 53.418 55.4158 53.2742 55.3405Z" fill="#B6B5B3"/>
<path d="M61.0162 33.612C60.9946 33.5572 60.9587 33.5093 60.9155 33.4682C60.8796 33.4272 60.8365 33.3929 60.7933 33.3724C60.7215 33.3313 60.6568 33.3313 60.6136 33.3519L50.4565 38.9654C50.4997 38.938 50.5644 38.9449 50.6363 38.986C50.6794 39.0133 50.7225 39.0407 50.7585 39.0818C50.8016 39.1229 50.8303 39.1776 50.8591 39.2256C50.8878 39.2872 50.9022 39.3556 50.9022 39.4172L50.8878 45.0787L50.8663 45.1814L61.0234 39.5679L61.0449 39.4652L61.0593 33.8037C61.0665 33.7421 61.0449 33.6736 61.0162 33.612Z" fill="#B6B5B3"/>
<path d="M34.5631 57.0793L33.7508 56.6344L33.7365 26.3965L34.5487 26.8415L34.5631 57.0793Z" fill="#B6B5B3"/>
<path d="M34.5487 26.8415L33.7365 26.3965L76.0038 3.15503L76.816 3.60685L34.5487 26.8415Z" fill="#FFFEFB"/>
<path d="M76.816 3.60693L76.8304 33.8448L34.5631 57.0794L34.5487 26.8416L76.816 3.60693Z" fill="#D2D1CE"/>
<path d="M34.7356 26.9852L76.6219 3.9491L76.6147 30.148L34.7284 53.1772L34.7356 26.9852Z" fill="#101014"/>
<path d="M58.457 42.327L56.969 43.1485C56.7677 43.258 56.5952 43.1964 56.5952 42.9979C56.5952 42.8062 56.7605 42.5529 56.969 42.4434L58.457 41.6219C58.6583 41.5123 58.8308 41.574 58.8308 41.7725C58.8236 41.9642 58.6583 42.2106 58.457 42.327Z" fill="#2280D6"/>
<path d="M41.1692 66.6977V67.1221C41.1692 67.2043 41.2267 67.2864 41.3345 67.348L49.6514 71.921C49.8742 72.0442 50.2408 72.0442 50.4637 71.921L76.3991 57.6475C76.5142 57.5859 76.5645 57.5038 76.5645 57.4216V57.0109L41.1692 66.6977Z" fill="url(#paint2_linear_389_6452)"/>
<path d="M76.3991 57.2366L50.4636 71.5032C50.2408 71.6265 49.8742 71.6265 49.6514 71.5032L41.3345 66.9303C41.1116 66.807 41.1116 66.6085 41.3345 66.4853L67.2699 52.2186C67.4928 52.0954 67.8594 52.0954 68.0822 52.2186L76.3991 56.7916C76.6219 56.9149 76.6219 57.1134 76.3991 57.2366Z" fill="url(#paint3_linear_389_6452)"/>
<path d="M63.5895 55.1211C63.5895 55.1074 63.5895 55.1005 63.5895 55.0868C63.5895 55.0732 63.5895 55.0663 63.5895 55.0526C63.5823 55.0115 63.6038 54.9636 63.6614 54.9294L64.7252 54.3407C64.8259 54.2859 64.9984 54.2859 65.099 54.3407L65.9976 54.8335C66.0551 54.8678 66.0766 54.9089 66.0694 54.9568C66.0694 54.9705 66.0694 54.9773 66.0694 54.991C66.0694 55.0047 66.0694 55.0115 66.0694 55.0252C66.0766 55.0663 66.0551 55.1142 65.9976 55.1485L64.9337 55.7372C64.8331 55.792 64.6605 55.792 64.5599 55.7372L63.6614 55.2443C63.6038 55.2101 63.5823 55.169 63.5895 55.1211ZM65.3794 54.2996L66.2779 54.7925C66.3785 54.8472 66.5511 54.8472 66.6517 54.7925L67.7156 54.2037C67.7731 54.1695 67.7946 54.1284 67.7874 54.0805C67.7874 54.0668 67.7874 54.06 67.7874 54.0463C67.7874 54.0326 67.7874 54.0257 67.7874 54.0121C67.7946 53.971 67.7731 53.9231 67.7156 53.8888L66.817 53.3959C66.7164 53.3412 66.5439 53.3412 66.4432 53.3959L65.3794 53.9847C65.3219 54.0189 65.3003 54.06 65.3075 54.1079C65.3075 54.1216 65.3075 54.1284 65.3075 54.1421C65.3075 54.1558 65.3075 54.1627 65.3075 54.1764C65.3003 54.2174 65.3219 54.2653 65.3794 54.2996ZM61.9433 56.189L62.8419 56.6819C62.9425 56.7367 63.115 56.7367 63.2157 56.6819L64.2796 56.0932C64.3371 56.0589 64.3586 56.0179 64.3514 55.97C64.3514 55.9563 64.3514 55.9494 64.3514 55.9357C64.3514 55.922 64.3514 55.9152 64.3514 55.9015C64.3586 55.8604 64.3371 55.8125 64.2796 55.7783L63.381 55.2854C63.2804 55.2306 63.1079 55.2306 63.0072 55.2854L61.9433 55.8741C61.8858 55.9083 61.8643 55.9494 61.8715 55.9973C61.8715 56.011 61.8715 56.0179 61.8715 56.0316C61.8715 56.0453 61.8715 56.0521 61.8715 56.0658C61.8571 56.1137 61.8787 56.1548 61.9433 56.189ZM48.0771 67.2381L48.9756 67.731C49.0763 67.7858 49.2488 67.7858 49.3494 67.731L50.4133 67.1423C50.4708 67.1081 50.4924 67.067 50.4852 67.0191C50.4852 67.0054 50.4852 66.9985 50.4852 66.9848C50.4852 66.9711 50.4852 66.9643 50.4852 66.9506C50.4924 66.9095 50.4708 66.8616 50.4133 66.8274L49.5147 66.3413C49.4141 66.2866 49.2416 66.2866 49.141 66.3413L48.0771 66.9301C48.0196 66.9643 47.998 67.0054 48.0052 67.0533C48.0052 67.067 48.0052 67.0738 48.0052 67.0875C48.0052 67.1012 48.0052 67.1081 48.0052 67.1218C47.998 67.1628 48.0196 67.2039 48.0771 67.2381ZM51.8294 61.7341L52.7279 62.227C52.8286 62.2818 53.0011 62.2818 53.1017 62.227L54.1656 61.6383C54.2231 61.604 54.2447 61.563 54.2375 61.515C54.2375 61.5014 54.2375 61.4945 54.2375 61.4808C54.2375 61.4671 54.2375 61.4603 54.2375 61.4466C54.2447 61.4055 54.2231 61.3576 54.1656 61.3234L53.267 60.8305C53.1664 60.7757 52.9939 60.7757 52.8933 60.8305L51.8294 61.4192C51.7719 61.4534 51.7503 61.4945 51.7575 61.5424C51.7575 61.5561 51.7575 61.563 51.7575 61.5767C51.7575 61.5903 51.7575 61.5972 51.7575 61.6109C51.7503 61.6588 51.7719 61.7067 51.8294 61.7341ZM55.2726 59.8447L56.1711 60.3376C56.2718 60.3923 56.4443 60.3923 56.5449 60.3376L57.6088 59.7488C57.6663 59.7146 57.6879 59.6735 57.6807 59.6256C57.6807 59.6119 57.6807 59.6051 57.6807 59.5914C57.6807 59.5777 57.6807 59.5708 57.6807 59.5571C57.6879 59.5161 57.6663 59.4682 57.6088 59.4339L56.7103 58.941C56.6096 58.8863 56.4371 58.8863 56.3365 58.941L55.2726 59.5298C55.2151 59.564 55.1935 59.6051 55.2007 59.653C55.2007 59.6667 55.2007 59.6735 55.2007 59.6872C55.2007 59.7009 55.2007 59.7078 55.2007 59.7214C55.1935 59.7694 55.2079 59.8104 55.2726 59.8447ZM58.7086 57.9552L59.6071 58.4481C59.7078 58.5029 59.8803 58.5029 59.9809 58.4481L61.5983 57.5582C61.6558 57.5239 61.6774 57.4829 61.6702 57.435C61.6702 57.4213 61.6702 57.4144 61.6702 57.4007C61.6702 57.387 61.6702 57.3802 61.6702 57.3665C61.6774 57.3254 61.6558 57.2775 61.5983 57.2433L60.6998 56.7504C60.5991 56.6956 60.4266 56.6956 60.326 56.7504L58.7086 57.6403C58.6511 57.6746 58.6295 57.7156 58.6367 57.7635C58.6367 57.7772 58.6367 57.7841 58.6367 57.7978C58.6367 57.8115 58.6367 57.8183 58.6367 57.832C58.6295 57.8799 58.6511 57.921 58.7086 57.9552ZM56.9906 58.9L57.8891 59.3929C57.9898 59.4476 58.1623 59.4476 58.2629 59.3929L59.3268 58.8041C59.3843 58.7699 59.4059 58.7288 59.3987 58.6809C59.3987 58.6672 59.3987 58.6603 59.3987 58.6467C59.3987 58.633 59.3987 58.6261 59.3987 58.6124C59.4059 58.5714 59.3843 58.5234 59.3268 58.4892L58.4283 57.9963C58.3276 57.9415 58.1551 57.9415 58.0545 57.9963L56.9906 58.585C56.9331 58.6193 56.9115 58.6604 56.9187 58.7083C56.9187 58.722 56.9187 58.7288 56.9187 58.7425C56.9187 58.7562 56.9187 58.763 56.9187 58.7767C56.9115 58.8246 56.9331 58.8657 56.9906 58.9ZM53.5546 60.7894L54.4531 61.2823C54.5538 61.3371 54.7263 61.3371 54.8269 61.2823L55.8908 60.6936C55.9483 60.6593 55.9699 60.6183 55.9627 60.5703C55.9627 60.5566 55.9627 60.5498 55.9627 60.5361C55.9627 60.5224 55.9627 60.5156 55.9627 60.5019C55.9699 60.4608 55.9483 60.4129 55.8908 60.3786L54.9922 59.8858C54.8916 59.831 54.7191 59.831 54.6184 59.8858L53.5546 60.4745C53.4971 60.5087 53.4755 60.5498 53.4827 60.5977C53.4827 60.6114 53.4827 60.6182 53.4827 60.6319C53.4827 60.6456 53.4827 60.6525 53.4827 60.6662C53.4683 60.7141 53.4899 60.762 53.5546 60.7894ZM60.8651 58.5029L61.7636 58.9958C61.8643 59.0506 62.0368 59.0506 62.1374 58.9958L63.2013 58.4071C63.2588 58.3728 63.2804 58.3318 63.2732 58.2838C63.2732 58.2701 63.2732 58.2633 63.2732 58.2496C63.2732 58.2359 63.2732 58.2291 63.2732 58.2154C63.2804 58.1743 63.2588 58.1264 63.2013 58.0921L62.3028 57.5993C62.2021 57.5445 62.0296 57.5445 61.929 57.5993L60.8651 58.188C60.8076 58.2222 60.786 58.2633 60.7932 58.3112C60.7932 58.3249 60.7932 58.3318 60.7932 58.3454C60.7932 58.3591 60.7932 58.366 60.7932 58.3797C60.786 58.4276 60.8076 58.4755 60.8651 58.5029ZM47.1067 66.0675L48.0052 66.5604C48.1058 66.6152 48.2784 66.6152 48.379 66.5604L49.4429 65.9785C49.5004 65.9443 49.5219 65.9032 49.5147 65.8553C49.5147 65.8416 49.5147 65.8347 49.5147 65.8211C49.5147 65.8074 49.5147 65.8005 49.5147 65.7868C49.5219 65.7457 49.5004 65.6978 49.4429 65.6636L48.5443 65.1707C48.4437 65.1159 48.2712 65.1159 48.1705 65.1707L47.1067 65.7594C47.0492 65.7937 47.0276 65.8347 47.0348 65.8827C47.0348 65.8964 47.0348 65.9032 47.0348 65.9169C47.0348 65.9306 47.0348 65.9374 47.0348 65.9511C47.0276 65.9922 47.0492 66.0401 47.1067 66.0675ZM59.1471 59.4545L60.0456 59.9474C60.1463 60.0021 60.3188 60.0021 60.4194 59.9474L61.4833 59.3586C61.5408 59.3244 61.5624 59.2833 61.5552 59.2354C61.5552 59.2217 61.5552 59.2149 61.5552 59.2012C61.5552 59.1875 61.5552 59.1806 61.5552 59.1669C61.5624 59.1259 61.5408 59.0779 61.4833 59.0437L60.5848 58.5508C60.4841 58.4961 60.3116 58.4961 60.211 58.5508L59.1471 59.1396C59.0896 59.1738 59.068 59.2149 59.0752 59.2628C59.0752 59.2765 59.0752 59.2833 59.0752 59.297C59.0752 59.3107 59.0752 59.3175 59.0752 59.3312C59.068 59.3723 59.0896 59.4202 59.1471 59.4545ZM57.4291 60.3992L58.3276 60.8921C58.4283 60.9468 58.6008 60.9468 58.7014 60.8921L59.7653 60.3033C59.8228 60.2691 59.8444 60.228 59.8372 60.1801C59.8372 60.1664 59.8372 60.1596 59.8372 60.1459C59.8372 60.1322 59.8372 60.1253 59.8372 60.1117C59.8444 60.0706 59.8228 60.0227 59.7653 59.9884L58.8667 59.4955C58.7661 59.4408 58.5936 59.4408 58.493 59.4955L57.4291 60.0843C57.3716 60.1185 57.35 60.1596 57.3572 60.2075C57.3572 60.2212 57.3572 60.228 57.3572 60.2417C57.3572 60.2554 57.3572 60.2623 57.3572 60.276C57.3428 60.317 57.3644 60.365 57.4291 60.3992ZM55.7111 61.3439L56.6096 61.8368C56.7103 61.8916 56.8828 61.8916 56.9834 61.8368L58.0473 61.2481C58.1048 61.2138 58.1264 61.1728 58.1192 61.1248C58.1192 61.1111 58.1192 61.1043 58.1192 61.0906C58.1192 61.0769 58.1192 61.0701 58.1192 61.0564C58.1264 61.0153 58.1048 60.9674 58.0473 60.9332L57.1487 60.4403C57.0481 60.3855 56.8756 60.3855 56.7749 60.4403L55.7111 61.029C55.6536 61.0632 55.632 61.1043 55.6392 61.1522C55.6392 61.1659 55.6392 61.1728 55.6392 61.1864C55.6392 61.2001 55.6392 61.207 55.6392 61.2207C55.6248 61.2618 55.6464 61.3097 55.7111 61.3439ZM48.8319 65.1228L49.7304 65.6157C49.831 65.6704 50.0035 65.6704 50.1042 65.6157L51.1681 65.0269C51.2256 64.9927 51.2471 64.9516 51.2399 64.9037C51.2399 64.89 51.2399 64.8832 51.2399 64.8695C51.2399 64.8558 51.2399 64.8489 51.2399 64.8353C51.2471 64.7942 51.2256 64.7463 51.1681 64.712L50.2695 64.2191C50.1689 64.1644 49.9964 64.1644 49.8957 64.2191L48.8319 64.8079C48.7743 64.8421 48.7528 64.8832 48.76 64.9311C48.76 64.9448 48.76 64.9516 48.76 64.9653C48.76 64.979 48.76 64.9859 48.76 64.9996C48.7456 65.0475 48.7672 65.0886 48.8319 65.1228ZM50.5499 64.1781L51.4484 64.671C51.549 64.7257 51.7216 64.7257 51.8222 64.671L52.8861 64.0822C52.9436 64.048 52.9651 64.0069 52.9579 63.959C52.9579 63.9453 52.9579 63.9385 52.9579 63.9248C52.9579 63.9111 52.9579 63.9042 52.9579 63.8905C52.9651 63.8495 52.9436 63.8015 52.8861 63.7673C51.5706 63.0417 52.0163 63.0554 50.5499 63.8632C50.4924 63.8974 50.4708 63.9385 50.478 63.9864C50.478 64.0001 50.478 64.0069 50.478 64.0206C50.478 64.0343 50.478 64.0411 50.478 64.0548C50.4708 64.1028 50.4852 64.1438 50.5499 64.1781ZM52.2679 63.2333L53.1664 63.7262C53.267 63.781 53.4396 63.781 53.5402 63.7262L54.6041 63.1375C54.6616 63.1033 54.6831 63.0622 54.676 63.0143C54.676 63.0006 54.676 62.9937 54.676 62.98C54.676 62.9664 54.676 62.9595 54.676 62.9458C54.6831 62.9047 54.6616 62.8568 54.6041 62.8226L53.7055 62.3297C53.6049 62.2749 53.4324 62.2749 53.3317 62.3297L52.2679 62.9184C52.2104 62.9527 52.1888 62.9937 52.196 63.0417C52.196 63.0554 52.196 63.0622 52.196 63.0759C52.196 63.0896 52.196 63.0964 52.196 63.1101C52.1888 63.158 52.2104 63.1991 52.2679 63.2333ZM53.9859 62.2886C54.8629 62.7747 55.021 62.9116 55.2582 62.7815L56.3221 62.1928C56.3796 62.1586 56.4012 62.1175 56.394 62.0696C56.394 62.0559 56.394 62.049 56.394 62.0353C56.394 62.0216 56.394 62.0148 56.394 62.0011C56.4012 61.96 56.3796 61.9121 56.3221 61.8779L55.4235 61.385C55.3229 61.3302 55.1504 61.3302 55.0498 61.385L53.9859 61.9737C53.9284 62.0079 53.9068 62.049 53.914 62.0969C53.914 62.1106 53.914 62.1175 53.914 62.1312C53.914 62.1449 53.914 62.1517 53.914 62.1654C53.9068 62.2133 53.9284 62.2544 53.9859 62.2886ZM50.9237 68.5183C50.9237 68.5046 50.9237 68.4978 50.9237 68.4841C50.9237 68.4704 50.9237 68.4635 50.9237 68.4498C50.9308 68.4088 50.9093 68.3608 50.8518 68.3266L49.9532 67.8337C49.8526 67.779 49.6801 67.779 49.5794 67.8337L47.9621 68.7237C47.9046 68.7579 47.883 68.799 47.8902 68.8469C47.8902 68.8606 47.8902 68.8674 47.8902 68.8811C47.8902 68.8948 47.8902 68.9017 47.8902 68.9154C47.883 68.9564 47.9046 69.0043 47.9621 69.0386L48.8606 69.5315C48.9612 69.5862 49.1338 69.5862 49.2344 69.5315L50.8518 68.6415C50.9093 68.6073 50.9308 68.5662 50.9237 68.5183ZM48.7672 67.9706C48.7672 67.9569 48.7672 67.9501 48.7672 67.9364C48.7672 67.9227 48.7672 67.9159 48.7672 67.9022C48.7743 67.8611 48.7528 67.8132 48.6953 67.779L47.7967 67.2861C47.6961 67.2313 47.5236 67.2313 47.4229 67.2861L46.3591 67.8748C46.3016 67.909 46.28 67.9501 46.2872 67.998C46.2872 68.0117 46.2872 68.0186 46.2872 68.0322C46.2872 68.0459 46.2872 68.0528 46.2872 68.0665C46.28 68.1075 46.3016 68.1555 46.3591 68.1897L47.2576 68.6826C47.3582 68.7374 47.5308 68.7374 47.6314 68.6826L48.6953 68.0939C48.7528 68.0596 48.7743 68.0117 48.7672 67.9706ZM50.1114 62.6857C51.4053 63.3976 50.9524 63.4113 52.4476 62.5898C52.5051 62.5556 52.5266 62.5145 52.5195 62.4666C52.5195 62.4529 52.5195 62.4461 52.5195 62.4324C52.5195 62.4187 52.5195 62.4118 52.5195 62.3982C52.5266 62.3571 52.5051 62.3092 52.4476 62.2749L51.549 61.782C51.4484 61.7273 51.2759 61.7273 51.1752 61.782L50.1114 62.3708C50.0539 62.405 50.0323 62.4461 50.0395 62.494C50.0395 62.5077 50.0395 62.5145 50.0395 62.5282C50.0395 62.5419 50.0395 62.5488 50.0395 62.5625C50.0323 62.6035 50.0539 62.6514 50.1114 62.6857ZM69.0526 58.5645C69.0526 58.5508 69.0526 58.544 69.0526 58.5303C69.0526 58.5166 69.0526 58.5097 69.0526 58.496C69.0598 58.455 69.0382 58.4071 68.9807 58.3728L68.0822 57.8799C67.9815 57.8252 67.809 57.8252 67.7084 57.8799L66.6445 58.4687C66.587 58.5029 66.5654 58.544 66.5726 58.5919C66.5726 58.6056 66.5726 58.6124 66.5726 58.6261C66.5726 58.6398 66.5726 58.6467 66.5726 58.6604C66.5654 58.7014 66.587 58.7493 66.6445 58.7836L67.543 59.2765C67.6437 59.3312 67.8162 59.3312 67.9168 59.2765L68.9807 58.6877C69.0454 58.6535 69.067 58.6056 69.0526 58.5645ZM47.7967 66.8C47.7967 66.7863 47.7967 66.7795 47.7967 66.7658C47.7967 66.7521 47.7967 66.7452 47.7967 66.7315C47.8039 66.6905 47.7824 66.6426 47.7249 66.6083L46.8263 66.1154C46.7257 66.0607 46.5532 66.0607 46.4525 66.1154L44.8351 67.0054C44.7776 67.0396 44.7561 67.0807 44.7633 67.1286C44.7633 67.1423 44.7633 67.1491 44.7633 67.1628C44.7633 67.1765 44.7633 67.1834 44.7633 67.1971C44.7561 67.2381 44.7776 67.2861 44.8351 67.3203L45.7337 67.8132C45.8343 67.8679 46.0068 67.8679 46.1075 67.8132L47.7249 66.9232C47.7824 66.889 47.8039 66.8479 47.7967 66.8ZM48.3934 63.6304L49.2919 64.1233C49.3925 64.1781 49.5651 64.1781 49.6657 64.1233L50.7296 63.5346C50.7871 63.5003 50.8086 63.4593 50.8015 63.4113C50.8015 63.3976 50.8015 63.3908 50.8015 63.3771C50.8015 63.3634 50.8015 63.3566 50.8015 63.3429C50.8086 63.3018 50.7871 63.2539 50.7296 63.2197L49.831 62.7268C49.7304 62.672 49.5579 62.672 49.4572 62.7268L48.3934 63.3155C48.3359 63.3497 48.3143 63.3908 48.3215 63.4387C48.3215 63.4524 48.3215 63.4593 48.3215 63.4729C48.3215 63.4866 48.3215 63.4935 48.3215 63.5072C48.3143 63.5483 48.3359 63.5962 48.3934 63.6304ZM46.6754 64.5751L47.5739 65.068C47.6745 65.1228 47.8471 65.1228 47.9477 65.068L49.0116 64.4793C49.0691 64.445 49.0906 64.404 49.0834 64.3561C49.0834 64.3424 49.0834 64.3355 49.0834 64.3218C49.0834 64.3081 49.0834 64.3013 49.0834 64.2876C49.0906 64.2465 49.0691 64.1986 49.0116 64.1644L48.113 63.6715C48.0124 63.6167 47.8399 63.6167 47.7392 63.6715L46.6754 64.2602C46.6179 64.2944 46.5963 64.3355 46.6035 64.3834C46.6035 64.3971 46.6035 64.404 46.6035 64.4177C46.6035 64.4314 46.6035 64.4382 46.6035 64.4519C46.5891 64.4998 46.6107 64.5409 46.6754 64.5751ZM45.6402 66.2523C45.6402 66.2386 45.6402 66.2318 45.6402 66.2181C45.6402 66.2044 45.6402 66.1976 45.6402 66.1839C45.6474 66.1428 45.6259 66.0949 45.5684 66.0607L44.6698 65.5678C44.5692 65.513 44.3967 65.513 44.296 65.5678L43.2322 66.1565C43.1746 66.1907 43.1531 66.2318 43.1603 66.2797C43.1603 66.2934 43.1603 66.3003 43.1603 66.314C43.1603 66.3276 43.1603 66.3345 43.1603 66.3482C43.1531 66.3893 43.1746 66.4372 43.2322 66.4714L44.1307 66.9643C44.2313 67.0191 44.4039 67.0191 44.5045 66.9643L45.5684 66.3756C45.6259 66.3413 45.6474 66.2934 45.6402 66.2523ZM44.9502 65.5198L45.8487 66.0127C45.9493 66.0675 46.1219 66.0675 46.2225 66.0127L47.2864 65.424C47.3439 65.3898 47.3654 65.3487 47.3582 65.3008C47.3582 65.2871 47.3582 65.2802 47.3582 65.2665C47.3582 65.2529 47.3582 65.246 47.3582 65.2323C47.3654 65.1912 47.3439 65.1433 47.2864 65.1091L46.3878 64.6162C46.2872 64.5614 46.1147 64.5614 46.014 64.6162L44.9502 65.2049C44.8927 65.2392 44.8711 65.2802 44.8783 65.3282C44.8783 65.3418 44.8783 65.3487 44.8783 65.3624C44.8783 65.3761 44.8783 65.3829 44.8783 65.3966C44.8711 65.4445 44.8927 65.4856 44.9502 65.5198ZM74.07 57.4692C74.0772 57.4281 74.0557 57.3802 73.9982 57.346L73.0996 56.8531C72.999 56.7983 72.8265 56.7983 72.7258 56.8531L71.662 57.4418C71.6045 57.476 71.5829 57.5171 71.5901 57.565C71.5901 57.5787 71.5901 57.5856 71.5901 57.5993C71.5901 57.6129 71.5901 57.6198 71.5901 57.6335C71.5829 57.6746 71.6045 57.7225 71.662 57.7567L72.5605 58.2496C72.6611 58.3044 72.8337 58.3044 72.9343 58.2496L73.9982 57.6609C74.0557 57.6266 74.0772 57.5856 74.07 57.5376C74.07 57.524 74.07 57.5171 74.07 57.5034C74.07 57.4897 74.07 57.4829 74.07 57.4692ZM67.8593 55.8878L66.6805 55.2375C66.5511 55.169 66.3426 55.169 66.2132 55.2375L63.5176 56.723C63.4457 56.7641 63.417 56.8188 63.4241 56.8668C63.4241 56.8804 63.4241 56.8873 63.4241 56.901C63.4241 56.9147 63.4241 56.9215 63.4241 56.9352C63.417 56.99 63.4385 57.0379 63.5176 57.079L65.8682 58.3728C65.9976 58.4413 66.206 58.4413 66.3354 58.3728L70.8137 55.9083C70.8856 55.8673 70.9144 55.8125 70.9072 55.7646C70.9072 55.7509 70.9072 55.744 70.9072 55.7304C70.9072 55.7167 70.9072 55.7098 70.9072 55.6961C70.9144 55.6414 70.8928 55.5934 70.8137 55.5524L69.9368 55.0732C69.8505 55.0252 69.7139 55.0252 69.6277 55.0732L68.1253 55.8878C68.0462 55.9289 67.9312 55.922 67.8593 55.8878ZM66.3282 59.8241L65.4297 59.3312C65.329 59.2765 65.1565 59.2765 65.0559 59.3312L63.992 59.92C63.9345 59.9542 63.9129 59.9953 63.9201 60.0432C63.9201 60.0569 63.9201 60.0637 63.9201 60.0774C63.9201 60.0911 63.9201 60.098 63.9201 60.1117C63.9129 60.1527 63.9345 60.2007 63.992 60.2349L64.8906 60.7278C64.9912 60.7825 65.1637 60.7825 65.2644 60.7278L66.3282 60.139C66.3857 60.1048 66.4073 60.0637 66.4001 60.0158C66.4001 60.0021 66.4001 59.9953 66.4001 59.9816C66.4001 59.9679 66.4001 59.9611 66.4001 59.9474C66.4073 59.8994 66.3857 59.8515 66.3282 59.8241ZM70.7059 57.4281L69.8074 56.9352C69.7067 56.8804 69.5342 56.8804 69.4336 56.9352L68.3697 57.5239C68.3122 57.5582 68.2906 57.5993 68.2978 57.6472C68.2978 57.6609 68.2978 57.6677 68.2978 57.6814C68.2978 57.6951 68.2978 57.7019 68.2978 57.7156C68.2906 57.7567 68.3122 57.8046 68.3697 57.8389L69.2682 58.3318C69.3689 58.3865 69.5414 58.3865 69.642 58.3318L70.7059 57.743C70.7634 57.7088 70.785 57.6677 70.7778 57.6198C70.7778 57.6061 70.7778 57.5993 70.7778 57.5856C70.7778 57.5719 70.7778 57.565 70.7778 57.5513C70.785 57.5034 70.7634 57.4623 70.7059 57.4281ZM62.885 61.7136L61.9865 61.2207C61.8858 61.1659 61.7133 61.1659 61.6127 61.2207L60.5488 61.8094C60.4913 61.8436 60.4697 61.8847 60.4769 61.9326C60.4769 61.9463 60.4769 61.9532 60.4769 61.9669C60.4769 61.9806 60.4769 61.9874 60.4769 62.0011C60.4697 62.0422 60.4913 62.0901 60.5488 62.1243L61.4474 62.6172C61.548 62.672 61.7205 62.672 61.8211 62.6172L62.885 62.0285C62.9425 61.9943 62.9641 61.9532 62.9569 61.9053C62.9569 61.8916 62.9569 61.8847 62.9569 61.871C62.9569 61.8573 62.9569 61.8505 62.9569 61.8368C62.9713 61.7889 62.9497 61.7478 62.885 61.7136ZM70.0158 56.6956C70.0158 56.7093 70.0158 56.7161 70.0158 56.7298C70.0158 56.7435 70.0158 56.7504 70.0158 56.7641C70.0086 56.8051 70.0302 56.8531 70.0877 56.8873L70.9863 57.3802C71.0869 57.435 71.2594 57.435 71.36 57.3802L72.4239 56.7914C72.4814 56.7572 72.503 56.7161 72.4958 56.6682C72.4958 56.6545 72.4958 56.6477 72.4958 56.634C72.4958 56.6203 72.4958 56.6135 72.4958 56.5998C72.503 56.5587 72.4814 56.5108 72.4239 56.4765L71.5254 55.9836C71.4247 55.9289 71.2522 55.9289 71.1516 55.9836L70.0877 56.5724C70.0302 56.6066 70.0086 56.6545 70.0158 56.6956ZM56.0058 65.4925L55.1073 64.9996C55.0066 64.9448 54.8341 64.9448 54.7335 64.9996L53.6696 65.5883C53.6121 65.6225 53.5905 65.6636 53.5977 65.7115C53.5977 65.7252 53.5977 65.7321 53.5977 65.7457C53.5977 65.7594 53.5977 65.7663 53.5977 65.78C53.5905 65.8211 53.6121 65.869 53.6696 65.9032L54.5681 66.3961C54.6688 66.4509 54.8413 66.4509 54.9419 66.3961L56.0058 65.8074C56.0633 65.7731 56.0849 65.7321 56.0777 65.6841C56.0777 65.6704 56.0777 65.6636 56.0777 65.6499C56.0777 65.6362 56.0777 65.6294 56.0777 65.6157C56.0921 65.5746 56.0705 65.5267 56.0058 65.4925ZM59.449 63.603L58.5505 63.1101C58.4498 63.0554 58.2773 63.0554 58.1767 63.1101L57.1128 63.6989C57.0553 63.7331 57.0337 63.7742 57.0409 63.8221C57.0409 63.8358 57.0409 63.8426 57.0409 63.8563C57.0409 63.87 57.0409 63.8768 57.0409 63.8905C57.0337 63.9316 57.0553 63.9795 57.1128 64.0138L58.0113 64.5067C58.112 64.5614 58.2845 64.5614 58.3851 64.5067L59.449 63.9179C59.5065 63.8837 59.5281 63.8426 59.5209 63.7947C59.5209 63.781 59.5209 63.7742 59.5209 63.7605C59.5209 63.7468 59.5209 63.7399 59.5209 63.7262C59.5281 63.6783 59.5065 63.6372 59.449 63.603ZM57.731 64.5477L56.8325 64.0548C56.7318 64.0001 56.5593 64.0001 56.4587 64.0548L55.3948 64.6436C55.3373 64.6778 55.3157 64.7189 55.3229 64.7668C55.3229 64.7805 55.3229 64.7873 55.3229 64.801C55.3229 64.8147 55.3229 64.8216 55.3229 64.8353C55.3157 64.8763 55.3373 64.9243 55.3948 64.9585L56.2933 65.4514C56.394 65.5061 56.5665 65.5061 56.6671 65.4514L57.731 64.8626C57.7885 64.8284 57.8101 64.7873 57.8029 64.7394C57.8029 64.7257 57.8029 64.7189 57.8029 64.7052C57.8029 64.6915 57.8029 64.6847 57.8029 64.671C57.8101 64.623 57.7885 64.582 57.731 64.5477ZM54.2878 66.4372L53.3892 65.9443C53.2886 65.8895 53.1161 65.8895 53.0155 65.9443L51.9516 66.533C51.8941 66.5672 51.8725 66.6083 51.8797 66.6562C51.8797 66.6699 51.8797 66.6768 51.8797 66.6905C51.8797 66.7042 51.8797 66.711 51.8797 66.7247C51.8725 66.7658 51.8941 66.8137 51.9516 66.8479L52.8501 67.3408C52.9508 67.3956 53.1233 67.3956 53.2239 67.3408L54.2878 66.7521C54.3453 66.7179 54.3669 66.6768 54.3597 66.6289C54.3597 66.6152 54.3597 66.6083 54.3597 66.5946C54.3597 66.5809 54.3597 66.5741 54.3597 66.5604C54.3669 66.5193 54.3525 66.4714 54.2878 66.4372ZM52.5698 67.3819L51.6712 66.889C51.5706 66.8342 51.3981 66.8342 51.2974 66.889L50.2336 67.4777C50.1761 67.512 50.1545 67.553 50.1617 67.601C50.1617 67.6147 50.1617 67.6215 50.1617 67.6352C50.1617 67.6489 50.1617 67.6557 50.1617 67.6694C50.1545 67.7105 50.1761 67.7584 50.2336 67.7926L51.1321 68.2855C51.2328 68.3403 51.4053 68.3403 51.5059 68.2855L52.5698 67.6968C52.6273 67.6626 52.6488 67.6215 52.6417 67.5736C52.6417 67.5599 52.6417 67.553 52.6417 67.5394C52.6417 67.5257 52.6417 67.5188 52.6417 67.5051C52.6488 67.464 52.6273 67.4161 52.5698 67.3819ZM61.167 62.6583L60.2685 62.1654C60.1678 62.1106 59.9953 62.1106 59.8947 62.1654L58.8308 62.7541C58.7733 62.7884 58.7517 62.8294 58.7589 62.8774C58.7589 62.8911 58.7589 62.8979 58.7589 62.9116C58.7589 62.9253 58.7589 62.9321 58.7589 62.9458C58.7517 62.9869 58.7733 63.0348 58.8308 63.069L59.7293 63.5619C59.83 63.6167 60.0025 63.6167 60.1031 63.5619L61.167 62.9732C61.2245 62.939 61.2461 62.8979 61.2389 62.85C61.2389 62.8363 61.2389 62.8294 61.2389 62.8158C61.2389 62.8021 61.2389 62.7952 61.2389 62.7815C61.2461 62.7336 61.2245 62.6925 61.167 62.6583ZM64.6102 60.7689L63.7117 60.276C63.611 60.2212 63.4385 60.2212 63.3379 60.276L62.274 60.8647C62.2165 60.8989 62.1949 60.94 62.2021 60.9879C62.2021 61.0016 62.2021 61.0085 62.2021 61.0222C62.2021 61.0358 62.2021 61.0427 62.2021 61.0564C62.1949 61.0975 62.2165 61.1454 62.274 61.1796L63.1726 61.6725C63.2732 61.7273 63.4457 61.7273 63.5463 61.6725L64.6102 61.0838C64.6677 61.0495 64.6893 61.0085 64.6821 60.9605C64.6821 60.9468 64.6821 60.94 64.6821 60.9263C64.6821 60.9126 64.6821 60.9058 64.6821 60.8921C64.6893 60.8442 64.6677 60.7962 64.6102 60.7689ZM55.251 67.601L54.3525 67.1081C54.2518 67.0533 54.0793 67.0533 53.9787 67.1081L52.9148 67.6968C52.8573 67.731 52.8358 67.7721 52.8429 67.82C52.8429 67.8337 52.8429 67.8406 52.8429 67.8543C52.8429 67.8679 52.8429 67.8748 52.8429 67.8885C52.8358 67.9296 52.8573 67.9775 52.9148 68.0117L53.8134 68.5046C53.914 68.5594 54.0865 68.5594 54.1872 68.5046L55.251 67.9159C55.3085 67.8816 55.3301 67.8406 55.3229 67.7926C55.3229 67.7789 55.3229 67.7721 55.3229 67.7584C55.3229 67.7447 55.3229 67.7379 55.3229 67.7242C55.3301 67.6831 55.3085 67.6352 55.251 67.601ZM56.969 66.6562L56.0705 66.1633C55.9699 66.1086 55.7973 66.1086 55.6967 66.1633L54.6328 66.7521C54.5753 66.7863 54.5538 66.8274 54.5609 66.8753C54.5609 66.889 54.5609 66.8958 54.5609 66.9095C54.5609 66.9232 54.5609 66.9301 54.5609 66.9438C54.5538 66.9848 54.5753 67.0328 54.6328 67.067L55.5314 67.5599C55.632 67.6147 55.8045 67.6147 55.9052 67.5599L56.969 66.9711C57.0265 66.9369 57.0481 66.8958 57.0409 66.8479C57.0409 66.8342 57.0409 66.8274 57.0409 66.8137C57.0409 66.8 57.0409 66.7932 57.0409 66.7795C57.0553 66.7384 57.0337 66.6905 56.969 66.6562ZM53.533 68.5525L52.6345 68.0596C52.5338 68.0049 52.3613 68.0049 52.2607 68.0596L51.1968 68.6484C51.1393 68.6826 51.1177 68.7237 51.1249 68.7716C51.1249 68.7853 51.1249 68.7921 51.1249 68.8058C51.1249 68.8195 51.1249 68.8264 51.1249 68.84C51.1177 68.8811 51.1393 68.929 51.1968 68.9633L52.0954 69.4562C52.196 69.5109 52.3685 69.5109 52.4691 69.4562L53.533 68.8674C53.5905 68.8332 53.6121 68.7921 53.6049 68.7442C53.6049 68.7305 53.6049 68.7237 53.6049 68.71C53.6049 68.6963 53.6049 68.6894 53.6049 68.6757C53.6121 68.6278 53.5905 68.5799 53.533 68.5525ZM51.815 69.4972L50.9165 69.0043C50.8158 68.9496 50.6433 68.9496 50.5427 69.0043L49.4788 69.5931C49.4213 69.6273 49.3997 69.6684 49.4069 69.7163C49.4069 69.73 49.4069 69.7368 49.4069 69.7505C49.4069 69.7642 49.4069 69.7711 49.4069 69.7848C49.3997 69.8258 49.4213 69.8738 49.4788 69.908L50.3773 70.4009C50.478 70.4557 50.6505 70.4557 50.7511 70.4009L51.815 69.8122C51.8725 69.7779 51.8941 69.7369 51.8869 69.6889C51.8869 69.6752 51.8869 69.6684 51.8869 69.6547C51.8869 69.641 51.8869 69.6342 51.8869 69.6205C51.8941 69.5725 51.8725 69.5246 51.815 69.4972ZM64.7252 58.9684L63.8267 58.4755C63.7261 58.4207 63.5535 58.4207 63.4529 58.4755L61.8355 59.3655C61.778 59.3997 61.7565 59.4408 61.7636 59.4887C61.7636 59.5024 61.7636 59.5092 61.7636 59.5229C61.7636 59.5366 61.7636 59.5435 61.7636 59.5571C61.7565 59.5982 61.778 59.6461 61.8355 59.6804L62.7341 60.1733C62.8347 60.228 63.0072 60.228 63.1079 60.1733L64.7252 59.2833C64.7827 59.2491 64.8043 59.208 64.7971 59.1601C64.7971 59.1464 64.7971 59.1396 64.7971 59.1259C64.7971 59.1122 64.7971 59.1053 64.7971 59.0916C64.8043 59.0437 64.7827 58.9958 64.7252 58.9684ZM67.8306 60.6867L66.932 60.1938C66.8314 60.139 66.6589 60.139 66.5582 60.1938L64.9409 61.0838C64.8834 61.118 64.8618 61.1591 64.869 61.207C64.869 61.2207 64.869 61.2275 64.869 61.2412C64.869 61.2549 64.869 61.2618 64.869 61.2754C64.8618 61.3165 64.8834 61.3644 64.9409 61.3987L65.8394 61.8916C65.9401 61.9463 66.1126 61.9463 66.2132 61.8916L67.8306 61.0016C67.8881 60.9674 67.9097 60.9263 67.9025 60.8784C67.9025 60.8647 67.9025 60.8578 67.9025 60.8442C67.9025 60.8305 67.9025 60.8236 67.9025 60.8099C67.9168 60.762 67.8953 60.7209 67.8306 60.6867ZM72.273 58.2907L71.3744 57.7978C71.2738 57.743 71.1013 57.743 71.0006 57.7978L69.9368 58.3865C69.8793 58.4207 69.8577 58.4618 69.8649 58.5097C69.8649 58.5234 69.8649 58.5303 69.8649 58.544C69.8649 58.5577 69.8649 58.5645 69.8649 58.5782C69.8577 58.6193 69.8793 58.6672 69.9368 58.7014L70.8353 59.1943C70.9359 59.2491 71.1085 59.2491 71.2091 59.1943L72.273 58.6056C72.3305 58.5714 72.352 58.5303 72.3448 58.4824C72.3448 58.4687 72.3448 58.4618 72.3448 58.4481C72.3448 58.4344 72.3448 58.4276 72.3448 58.4139C72.3592 58.3728 72.3377 58.3249 72.273 58.2907ZM70.555 59.2354L69.6564 58.7425C69.5558 58.6877 69.3833 58.6877 69.2826 58.7425L68.2188 59.3312C68.1612 59.3655 68.1397 59.4065 68.1469 59.4545C68.1469 59.4682 68.1469 59.475 68.1469 59.4887C68.1469 59.5024 68.1469 59.5092 68.1469 59.5229C68.1397 59.564 68.1612 59.6119 68.2188 59.6461L69.1173 60.139C69.2179 60.1938 69.3904 60.1938 69.4911 60.139L70.555 59.5503C70.6125 59.5161 70.634 59.475 70.6268 59.4271C70.6268 59.4134 70.6268 59.4065 70.6268 59.3929C70.6268 59.3792 70.6268 59.3723 70.6268 59.3586C70.634 59.3175 70.6125 59.2696 70.555 59.2354ZM65.595 61.9326L64.6965 61.4397C64.5958 61.385 64.4233 61.385 64.3227 61.4397L56.358 65.8211C56.3005 65.8553 56.279 65.8964 56.2861 65.9443C56.2861 65.958 56.2861 65.9648 56.2861 65.9785C56.2861 65.9922 56.2861 65.999 56.2861 66.0127C56.279 66.0538 56.3005 66.1017 56.358 66.136L57.2566 66.6289C57.3572 66.6836 57.5297 66.6836 57.6304 66.6289L65.595 62.2475C65.6525 62.2133 65.6741 62.1722 65.6669 62.1243C65.6669 62.1106 65.6669 62.1038 65.6669 62.0901C65.6669 62.0764 65.6669 62.0696 65.6669 62.0559C65.6813 62.0079 65.6597 61.9669 65.595 61.9326ZM59.0105 62.1038L58.112 61.6109C58.0113 61.5561 57.8388 61.5561 57.7382 61.6109L56.6743 62.1996C56.6168 62.2339 56.5952 62.2749 56.6024 62.3229C56.6024 62.3365 56.6024 62.3434 56.6024 62.3571C56.6024 62.3708 56.6024 62.3776 56.6024 62.3913C56.5952 62.4324 56.6168 62.4803 56.6743 62.5145L57.5728 63.0074C57.6735 63.0622 57.846 63.0622 57.9466 63.0074L59.0105 62.4187C59.068 62.3845 59.0896 62.3434 59.0824 62.2955C59.0824 62.2818 59.0824 62.2749 59.0824 62.2612C59.0824 62.2475 59.0824 62.2407 59.0824 62.227C59.0896 62.1859 59.0752 62.138 59.0105 62.1038ZM57.2925 63.0554L56.394 62.5625C56.2933 62.5077 56.1208 62.5077 56.0202 62.5625L54.9563 63.1512C54.8988 63.1854 54.8772 63.2265 54.8844 63.2744C54.8844 63.2881 54.8844 63.295 54.8844 63.3086C54.8844 63.3223 54.8844 63.3292 54.8844 63.3429C54.8772 63.3839 54.8988 63.4319 54.9563 63.4661L55.8548 63.959C55.9555 64.0138 56.128 64.0138 56.2286 63.959L57.2925 63.3703C57.35 63.336 57.3716 63.295 57.3644 63.247C57.3644 63.2333 57.3644 63.2265 57.3644 63.2128C57.3644 63.1991 57.3644 63.1923 57.3644 63.1786C57.3716 63.1307 57.35 63.0827 57.2925 63.0554ZM60.7285 61.1591L59.83 60.6662C59.7293 60.6114 59.5568 60.6114 59.4562 60.6662L58.3923 61.2549C58.3348 61.2891 58.3132 61.3302 58.3204 61.3781C58.3204 61.3918 58.3204 61.3987 58.3204 61.4124C58.3204 61.4261 58.3204 61.4329 58.3204 61.4466C58.3132 61.4877 58.3348 61.5356 58.3923 61.5698L59.2909 62.0627C59.3915 62.1175 59.564 62.1175 59.6647 62.0627L60.7285 61.474C60.786 61.4397 60.8076 61.3987 60.8004 61.3508C60.8004 61.3371 60.8004 61.3302 60.8004 61.3165C60.8004 61.3028 60.8004 61.296 60.8004 61.2823C60.8148 61.2412 60.7932 61.1933 60.7285 61.1591ZM66.8745 54.9705C66.8745 54.9842 66.8745 54.991 66.8745 55.0047C66.8745 55.0184 66.8745 55.0252 66.8745 55.0389C66.8673 55.08 66.8889 55.1279 66.9464 55.1621L67.845 55.655C67.9456 55.7098 68.1181 55.7098 68.2188 55.655L69.2826 55.0663C69.3401 55.0321 69.3617 54.991 69.3545 54.9431C69.3545 54.9294 69.3545 54.9225 69.3545 54.9089C69.3545 54.8952 69.3545 54.8883 69.3545 54.8746C69.3617 54.8336 69.3401 54.7856 69.2826 54.7514L68.3841 54.2585C68.2834 54.2037 68.1109 54.2037 68.0103 54.2585L66.9464 54.8472C66.8889 54.8815 66.8673 54.9294 66.8745 54.9705ZM62.4537 60.2143L61.5552 59.7214C61.4545 59.6667 61.282 59.6667 61.1814 59.7214L60.1175 60.3102C60.06 60.3444 60.0384 60.3855 60.0456 60.4334C60.0456 60.4471 60.0456 60.454 60.0456 60.4676C60.0456 60.4813 60.0456 60.4882 60.0456 60.5019C60.0384 60.5429 60.06 60.5909 60.1175 60.6251L61.0161 61.118C61.1167 61.1728 61.2892 61.1728 61.3899 61.118L62.4537 60.5293C62.5112 60.495 62.5328 60.4539 62.5256 60.406C62.5256 60.3923 62.5256 60.3855 62.5256 60.3718C62.5256 60.3581 62.5256 60.3513 62.5256 60.3376C62.5328 60.2965 62.5112 60.2486 62.4537 60.2143ZM55.5745 64.0001L54.676 63.5072C54.5753 63.4524 54.4028 63.4524 54.3022 63.5072L53.2383 64.0959C53.1808 64.1301 53.1592 64.1712 53.1664 64.2191C53.1664 64.2328 53.1664 64.2397 53.1664 64.2534C53.1664 64.2671 53.1664 64.2739 53.1664 64.2876C53.1592 64.3287 53.1808 64.3766 53.2383 64.4108L54.1368 64.9037C54.2375 64.9585 54.41 64.9585 54.5106 64.9037L55.5745 64.315C55.632 64.2807 55.6536 64.2397 55.6464 64.1918C55.6464 64.1781 55.6464 64.1712 55.6464 64.1575C55.6464 64.1438 55.6464 64.137 55.6464 64.1233C55.6536 64.0754 55.632 64.0343 55.5745 64.0001ZM52.1313 65.8895L51.2328 65.3966C51.1321 65.3418 50.9596 65.3418 50.859 65.3966L49.7951 65.9854C49.7376 66.0196 49.716 66.0607 49.7232 66.1086C49.7232 66.1223 49.7232 66.1291 49.7232 66.1428C49.7232 66.1565 49.7232 66.1633 49.7232 66.177C49.716 66.2181 49.7376 66.266 49.7951 66.3003L50.6936 66.7932C50.7943 66.8479 50.9668 66.8479 51.0674 66.7932L52.1313 66.2044C52.1888 66.1702 52.2104 66.1291 52.2032 66.0812C52.2032 66.0675 52.2032 66.0607 52.2032 66.047C52.2032 66.0333 52.2032 66.0264 52.2032 66.0127C52.2176 65.9648 52.196 65.9237 52.1313 65.8895ZM53.8565 64.9448L52.9579 64.4519C52.8573 64.3971 52.6848 64.3971 52.5842 64.4519L51.5203 65.0406C51.4628 65.0749 51.4412 65.1159 51.4484 65.1639C51.4484 65.1775 51.4484 65.1844 51.4484 65.1981C51.4484 65.2118 51.4484 65.2186 51.4484 65.2323C51.4412 65.2734 51.4628 65.3213 51.5203 65.3555L52.4188 65.8484C52.5195 65.9032 52.692 65.9032 52.7926 65.8484L53.8565 65.2597C53.914 65.2255 53.9356 65.1844 53.9284 65.1365C53.9284 65.1228 53.9284 65.1159 53.9284 65.1022C53.9284 65.0886 53.9284 65.0817 53.9284 65.068C53.9356 65.0201 53.914 64.979 53.8565 64.9448Z" fill="#D2D1CE"/>
<path d="M45.5684 66.2254L44.5045 66.8141C44.4039 66.8689 44.2314 66.8689 44.1308 66.8141L43.2322 66.3212C43.1316 66.2665 43.1316 66.1706 43.2322 66.1158L44.2961 65.5271C44.3967 65.4723 44.5692 65.4723 44.6699 65.5271L45.5684 66.02C45.6762 66.0748 45.6762 66.1638 45.5684 66.2254ZM47.2864 65.0753L46.3879 64.5824C46.2873 64.5276 46.1147 64.5276 46.0141 64.5824L44.9502 65.1711C44.8496 65.2259 44.8496 65.3217 44.9502 65.3765L45.8488 65.8626C45.9494 65.9173 46.1219 65.9173 46.2226 65.8626L47.2864 65.2807C47.3943 65.219 47.3943 65.13 47.2864 65.0753ZM49.0116 64.1237L48.1131 63.6308C48.0124 63.5761 47.8399 63.5761 47.7393 63.6308L46.6754 64.2196C46.5748 64.2743 46.5748 64.3702 46.6754 64.4249L47.574 64.9178C47.6746 64.9726 47.8471 64.9726 47.9478 64.9178L49.0116 64.3291C49.1123 64.2743 49.1123 64.1853 49.0116 64.1237ZM50.7296 63.179L49.8311 62.6861C49.7305 62.6313 49.5579 62.6313 49.4573 62.6861L48.3934 63.2748C48.2928 63.3296 48.2928 63.4255 48.3934 63.4802L49.292 63.9731C49.3926 64.0279 49.5651 64.0279 49.6658 63.9731L50.7296 63.3844C50.8303 63.3296 50.8303 63.2406 50.7296 63.179ZM52.4476 62.2343L51.5491 61.7414C51.4485 61.6866 51.2759 61.6866 51.1753 61.7414L50.1114 62.3301C50.0108 62.3849 50.0108 62.4807 50.1114 62.5355L51.01 63.0284C51.1106 63.0832 51.2831 63.0832 51.3838 63.0284L52.4476 62.4397C52.5483 62.3849 52.5483 62.289 52.4476 62.2343ZM54.1656 61.2896L53.2671 60.7967C53.1665 60.7419 52.994 60.7419 52.8933 60.7967L51.8294 61.3854C51.7288 61.4402 51.7288 61.536 51.8294 61.5908L52.728 62.0837C52.8286 62.1384 53.0011 62.1384 53.1018 62.0837L54.1656 61.4949C54.2735 61.4402 54.2735 61.3443 54.1656 61.2896ZM55.8908 60.3448L54.9923 59.8519C54.8917 59.7972 54.7191 59.7972 54.6185 59.8519L53.5546 60.4407C53.454 60.4954 53.454 60.5913 53.5546 60.6461L54.4532 61.139C54.5538 61.1937 54.7263 61.1937 54.827 61.139L55.8908 60.5502C55.9915 60.4954 55.9915 60.3996 55.8908 60.3448ZM57.6089 59.4001L56.7103 58.9072C56.6097 58.8525 56.4372 58.8525 56.3365 58.9072L55.2726 59.496C55.172 59.5507 55.172 59.6466 55.2726 59.7013L56.1712 60.1942C56.2718 60.249 56.4443 60.249 56.545 60.1942L57.6089 59.6055C57.7095 59.5507 57.7095 59.4549 57.6089 59.4001ZM59.3269 58.4554L58.4283 57.9625C58.3277 57.9077 58.1552 57.9077 58.0545 57.9625L56.9907 58.5512C56.89 58.606 56.89 58.7018 56.9907 58.7566L57.8892 59.2495C57.9898 59.3043 58.1624 59.3043 58.263 59.2495L59.3269 58.6608C59.4275 58.5992 59.4275 58.5102 59.3269 58.4554ZM61.5984 57.2026L60.6998 56.7097C60.5992 56.655 60.4267 56.655 60.326 56.7097L58.7087 57.5997C58.608 57.6544 58.608 57.7503 58.7087 57.8051L59.6072 58.2979C59.7078 58.3527 59.8804 58.3527 59.981 58.2979L61.5984 57.408C61.7062 57.3532 61.7062 57.2574 61.5984 57.2026ZM68.9808 58.3322L68.0822 57.8393C67.9816 57.7845 67.8091 57.7845 67.7084 57.8393L66.6446 58.428C66.5439 58.4828 66.5439 58.5786 66.6446 58.6334L67.5431 59.1263C67.6437 59.1811 67.8163 59.1811 67.9169 59.1263L68.9808 58.5376C69.0886 58.4759 69.0886 58.3869 68.9808 58.3322ZM70.706 57.3806L69.8074 56.8877C69.7068 56.8329 69.5343 56.8329 69.4336 56.8877L68.3698 57.4765C68.2691 57.5312 68.2691 57.6271 68.3698 57.6818L69.2683 58.1747C69.3689 58.2295 69.5415 58.2295 69.6421 58.1747L70.706 57.586C70.8066 57.5312 70.8066 57.4422 70.706 57.3806ZM72.424 56.4359L71.5254 55.943C71.4248 55.8882 71.2523 55.8882 71.1516 55.943L70.0878 56.5317C69.9871 56.5865 69.9871 56.6823 70.0878 56.7371L70.9863 57.23C71.087 57.2848 71.2595 57.2848 71.3601 57.23L72.424 56.6413C72.5246 56.5865 72.5246 56.4975 72.424 56.4359ZM70.555 59.1947L69.6565 58.7018C69.5558 58.6471 69.3833 58.6471 69.2827 58.7018L68.2188 59.2906C68.1182 59.3454 68.1182 59.4412 68.2188 59.496L69.1174 59.9889C69.218 60.0436 69.3905 60.0436 69.4911 59.9889L70.555 59.4001C70.6557 59.3454 70.6557 59.2495 70.555 59.1947ZM72.273 58.25L71.3745 57.7571C71.2738 57.7024 71.1013 57.7024 71.0007 57.7571L69.9368 58.3459C69.8362 58.4006 69.8362 58.4965 69.9368 58.5512L70.8354 59.0441C70.936 59.0989 71.1085 59.0989 71.2092 59.0441L72.273 58.4554C72.3808 58.4006 72.3808 58.3048 72.273 58.25ZM73.9982 57.3053L73.0997 56.8124C72.999 56.7576 72.8265 56.7576 72.7259 56.8124L71.662 57.4011C71.5614 57.4559 71.5614 57.5518 71.662 57.6065L72.5606 58.0994C72.6612 58.1542 72.8337 58.1542 72.9343 58.0994L73.9982 57.5107C74.0989 57.4491 74.0989 57.3601 73.9982 57.3053ZM47.7249 66.5677L46.8264 66.0748C46.7257 66.02 46.5532 66.02 46.4526 66.0748L44.8352 66.9647C44.7346 67.0195 44.7346 67.1153 44.8352 67.1701L45.7338 67.663C45.8344 67.7178 46.0069 67.7178 46.1075 67.663L47.7249 66.773C47.8256 66.7183 47.8256 66.6224 47.7249 66.5677ZM49.4429 65.6229L48.5444 65.1301C48.4437 65.0753 48.2712 65.0753 48.1706 65.1301L47.1067 65.7188C47.0061 65.7736 47.0061 65.8694 47.1067 65.9242L48.0053 66.4171C48.1059 66.4718 48.2784 66.4718 48.379 66.4171L49.4429 65.8283C49.5507 65.7736 49.5507 65.6777 49.4429 65.6229ZM51.1681 64.6782L50.2696 64.1853C50.1689 64.1306 49.9964 64.1306 49.8958 64.1853L48.8319 64.7672C48.7313 64.822 48.7313 64.9178 48.8319 64.9726L49.7305 65.4655C49.8311 65.5203 50.0036 65.5203 50.1042 65.4655L51.1681 64.8768C51.2688 64.8288 51.2688 64.733 51.1681 64.6782ZM52.8861 63.7335L51.9876 63.2406C51.887 63.1858 51.7144 63.1858 51.6138 63.2406L50.5499 63.8293C50.4493 63.8841 50.4493 63.98 50.5499 64.0347L51.4485 64.5276C51.5491 64.5824 51.7216 64.5824 51.8223 64.5276L52.8861 63.9389C52.9868 63.8773 52.9868 63.7883 52.8861 63.7335ZM54.6041 62.7888L53.7056 62.2959C53.605 62.2411 53.4324 62.2411 53.3318 62.2959L52.2679 62.8846C52.1673 62.9394 52.1673 63.0352 52.2679 63.09L53.1665 63.5829C53.2671 63.6377 53.4396 63.6377 53.5403 63.5829L54.6041 62.9942C54.7048 62.9326 54.7048 62.8436 54.6041 62.7888ZM56.3221 61.8372L55.4308 61.3443C55.3302 61.2896 55.1576 61.2896 55.057 61.3443L53.9931 61.9331C53.8925 61.9878 53.8925 62.0837 53.9931 62.1384L54.8917 62.6313C54.9923 62.6861 55.1648 62.6861 55.2655 62.6313L56.3293 62.0426C56.43 61.9878 56.43 61.8988 56.3221 61.8372ZM58.0402 60.8925L57.1416 60.3996C57.041 60.3448 56.8685 60.3448 56.7678 60.3996L55.7039 60.9883C55.6033 61.0431 55.6033 61.139 55.7039 61.1937L56.6025 61.6866C56.7031 61.7414 56.8756 61.7414 56.9763 61.6866L58.0402 61.0979C58.148 61.0431 58.148 60.9541 58.0402 60.8925ZM59.7653 59.9478L58.8668 59.4549C58.7662 59.4001 58.5936 59.4001 58.493 59.4549L57.4291 60.0436C57.3285 60.0984 57.3285 60.1942 57.4291 60.249L58.3277 60.7419C58.4283 60.7967 58.6008 60.7967 58.7015 60.7419L59.7653 60.1532C59.866 60.0984 59.866 60.0026 59.7653 59.9478ZM61.4834 59.0031L60.5848 58.5102C60.4842 58.4554 60.3117 58.4554 60.211 58.5102L59.1472 59.0989C59.0465 59.1537 59.0465 59.2495 59.1472 59.3043L60.0457 59.7972C60.1463 59.8519 60.3188 59.8519 60.4195 59.7972L61.4834 59.2084C61.584 59.1537 61.584 59.0578 61.4834 59.0031ZM63.2014 58.0583L62.3028 57.5654C62.2022 57.5107 62.0297 57.5107 61.929 57.5654L60.8652 58.1542C60.7645 58.2089 60.7645 58.3048 60.8652 58.3596L61.7637 58.8525C61.8643 58.9072 62.0369 58.9072 62.1375 58.8525L63.2014 58.2637C63.3092 58.209 63.3092 58.1131 63.2014 58.0583ZM48.6953 67.7383L47.7968 67.2454C47.6962 67.1906 47.5236 67.1906 47.423 67.2454L46.3591 67.8341C46.2585 67.8889 46.2585 67.9847 46.3591 68.0395L47.2577 68.5324C47.3583 68.5872 47.5308 68.5872 47.6315 68.5324L48.6953 67.9437C48.796 67.8821 48.796 67.7931 48.6953 67.7383ZM50.4133 66.7936L49.5148 66.3007C49.4142 66.2459 49.2417 66.2459 49.141 66.3007L48.0771 66.8894C47.9765 66.9442 47.9765 67.04 48.0771 67.0948L48.9757 67.5877C49.0763 67.6425 49.2488 67.6425 49.3495 67.5877L50.4133 66.999C50.514 66.9373 50.514 66.8483 50.4133 66.7936ZM52.1314 65.842L51.2328 65.3491C51.1322 65.2943 50.9597 65.2943 50.859 65.3491L49.7951 65.9379C49.6945 65.9926 49.6945 66.0885 49.7951 66.1432L50.6937 66.6361C50.7943 66.6909 50.9668 66.6909 51.0675 66.6361L52.1314 66.0474C52.2392 65.9926 52.2392 65.9036 52.1314 65.842ZM53.8566 64.8973L52.958 64.4044C52.8574 64.3496 52.6849 64.3496 52.5842 64.4044L51.5203 64.9931C51.4197 65.0479 51.4197 65.1437 51.5203 65.1985L52.4189 65.6914C52.5195 65.7462 52.692 65.7462 52.7927 65.6914L53.8566 65.1027C53.9572 65.0479 53.9572 64.9589 53.8566 64.8973ZM51.8151 69.4497L50.9165 68.9569C50.8159 68.9021 50.6434 68.9021 50.5427 68.9569L49.4789 69.5456C49.3782 69.6004 49.3782 69.6962 49.4789 69.751L50.3702 70.2439C50.4709 70.2986 50.6434 70.2986 50.744 70.2439L51.8079 69.6551C51.9157 69.6004 51.9157 69.5045 51.8151 69.4497ZM53.5331 68.505L52.6345 68.0121C52.5339 67.9574 52.3614 67.9574 52.2607 68.0121L51.1969 68.6009C51.0962 68.6556 51.0962 68.7515 51.1969 68.8062L52.0954 69.2991C52.1961 69.3539 52.3686 69.3539 52.4692 69.2991L53.5331 68.7104C53.6337 68.6556 53.6337 68.5598 53.5331 68.505ZM55.2511 67.5603L54.3525 67.0674C54.2519 67.0126 54.0794 67.0126 53.9788 67.0674L52.9149 67.6562C52.8142 67.7109 52.8142 67.8068 52.9149 67.8615L53.8134 68.3544C53.9141 68.4092 54.0866 68.4092 54.1872 68.3544L55.2511 67.7657C55.3589 67.7109 55.3589 67.6151 55.2511 67.5603ZM56.9691 66.6156L56.0706 66.1227C55.9699 66.0679 55.7974 66.0679 55.6968 66.1227L54.6329 66.7114C54.5323 66.7662 54.5323 66.862 54.6329 66.9168L55.5314 67.4097C55.6321 67.4645 55.8046 67.4645 55.9052 67.4097L56.9691 66.821C57.0769 66.7662 57.0769 66.6704 56.9691 66.6156ZM67.8306 60.6392L66.9321 60.1463C66.8315 60.0915 66.6589 60.0915 66.5583 60.1463L64.9409 61.0363C64.8403 61.091 64.8403 61.1869 64.9409 61.2416L65.8395 61.7345C65.9401 61.7893 66.1126 61.7893 66.2133 61.7345L67.8306 60.8446C67.9385 60.7898 67.9385 60.7008 67.8306 60.6392ZM55.5746 63.9526L54.676 63.4597C54.5754 63.4049 54.4029 63.4049 54.3022 63.4597L53.2384 64.0484C53.1377 64.1032 53.1377 64.199 53.2384 64.2538L54.1369 64.7467C54.2375 64.8015 54.4101 64.8015 54.5107 64.7467L55.5746 64.1579C55.6752 64.1032 55.6752 64.0073 55.5746 63.9526ZM57.2926 63.0079L56.394 62.515C56.2934 62.4602 56.1209 62.4602 56.0202 62.515L54.9564 63.1037C54.8557 63.1585 54.8557 63.2543 54.9564 63.3091L55.8549 63.802C55.9555 63.8567 56.1281 63.8567 56.2287 63.802L57.2926 63.2132C57.3932 63.1585 57.3932 63.0626 57.2926 63.0079ZM59.0106 62.0631L58.112 61.5702C58.0114 61.5155 57.8389 61.5155 57.7382 61.5702L56.6744 62.159C56.5737 62.2137 56.5737 62.3096 56.6744 62.3643L57.5729 62.8572C57.6735 62.912 57.8461 62.912 57.9467 62.8572L59.0106 62.2685C59.1184 62.2137 59.1184 62.1179 59.0106 62.0631ZM60.7286 61.1184L59.83 60.6255C59.7294 60.5707 59.5569 60.5707 59.4563 60.6255L58.3924 61.2143C58.2917 61.269 58.2917 61.3649 58.3924 61.4196L59.2909 61.9125C59.3916 61.9673 59.5641 61.9673 59.6647 61.9125L60.7286 61.3238C60.8364 61.269 60.8364 61.1732 60.7286 61.1184ZM62.4538 60.1737L61.5552 59.6808C61.4546 59.626 61.2821 59.626 61.1814 59.6808L60.1176 60.2695C60.0169 60.3243 60.0169 60.4201 60.1176 60.4749L61.0161 60.9678C61.1168 61.0226 61.2893 61.0226 61.3899 60.9678L62.4538 60.3791C62.5544 60.3175 62.5544 60.2285 62.4538 60.1737ZM64.7253 58.9209L63.8267 58.428C63.7261 58.3732 63.5536 58.3732 63.453 58.428L61.8356 59.318C61.7349 59.3727 61.7349 59.4686 61.8356 59.5233L62.7341 60.0162C62.8348 60.071 63.0073 60.071 63.1079 60.0162L64.7253 59.1263C64.8259 59.0715 64.8259 58.9757 64.7253 58.9209ZM50.8518 68.286L49.9533 67.7931C49.8527 67.7383 49.6801 67.7383 49.5795 67.7931L47.9621 68.683C47.8615 68.7378 47.8615 68.8336 47.9621 68.8884L48.8607 69.3813C48.9613 69.4361 49.1338 69.4361 49.2345 69.3813L50.8518 68.4913C50.9525 68.4366 50.9525 68.3407 50.8518 68.286ZM52.5698 67.3412L51.6713 66.8483C51.5707 66.7936 51.3981 66.7936 51.2975 66.8483L50.2336 67.4371C50.133 67.4919 50.133 67.5877 50.2336 67.6425L51.1322 68.1354C51.2328 68.1901 51.4053 68.1901 51.506 68.1354L52.5698 67.5466C52.6705 67.4918 52.6705 67.396 52.5698 67.3412ZM54.2878 66.3965L53.3893 65.9036C53.2887 65.8489 53.1162 65.8489 53.0155 65.9036L51.9516 66.4924C51.851 66.5471 51.851 66.643 51.9516 66.6977L52.8502 67.1906C52.9508 67.2454 53.1233 67.2454 53.224 67.1906L54.2878 66.6019C54.3957 66.5471 54.3957 66.4513 54.2878 66.3965ZM56.0059 65.4518L55.1073 64.9589C55.0067 64.9041 54.8342 64.9041 54.7335 64.9589L53.6697 65.5476C53.569 65.6024 53.569 65.6983 53.6697 65.753L54.5682 66.2459C54.6688 66.3007 54.8414 66.3007 54.942 66.2459L56.0059 65.6572C56.1137 65.5956 56.1137 65.5066 56.0059 65.4518ZM57.7311 64.5071L56.8325 64.0142C56.7319 63.9594 56.5594 63.9594 56.4587 64.0142L55.3948 64.6029C55.2942 64.6577 55.2942 64.7535 55.3948 64.8083L56.2934 65.3012C56.394 65.356 56.5665 65.356 56.6672 65.3012L57.7311 64.7125C57.8317 64.6508 57.8317 64.5619 57.7311 64.5071ZM65.5951 61.8851L64.6965 61.3922C64.5959 61.3375 64.4234 61.3375 64.3227 61.3922L56.3581 65.7736C56.2575 65.8283 56.2575 65.9242 56.3581 65.9789L57.2566 66.4718C57.3573 66.5266 57.5298 66.5266 57.6304 66.4718L65.5951 62.0905C65.7029 62.0357 65.7029 61.9468 65.5951 61.8851ZM59.4491 63.5555L58.5505 63.0626C58.4499 63.0079 58.2774 63.0079 58.1767 63.0626L57.1129 63.6514C57.0122 63.7061 57.0122 63.802 57.1129 63.8567L58.0114 64.3496C58.112 64.4044 58.2846 64.4044 58.3852 64.3496L59.4491 63.7609C59.5497 63.7061 59.5497 63.6171 59.4491 63.5555ZM61.1671 62.6108L60.2685 62.1179C60.1679 62.0631 59.9954 62.0631 59.8947 62.1179L58.8309 62.7066C58.7302 62.7614 58.7302 62.8572 58.8309 62.912L59.7294 63.4049C59.83 63.4597 60.0026 63.4597 60.1032 63.4049L61.1671 62.8162C61.2749 62.7614 61.2749 62.6724 61.1671 62.6108ZM62.8851 61.6661L61.9865 61.1732C61.8859 61.1184 61.7134 61.1184 61.6127 61.1732L60.5489 61.7619C60.4482 61.8167 60.4482 61.9125 60.5489 61.9673L61.4474 62.4602C61.548 62.515 61.7206 62.515 61.8212 62.4602L62.8851 61.8715C62.9929 61.8167 62.9929 61.7208 62.8851 61.6661ZM64.6103 60.7214L63.7117 60.2285C63.6111 60.1737 63.4386 60.1737 63.3379 60.2285L62.2741 60.8172C62.1734 60.872 62.1734 60.9678 62.2741 61.0226L63.1726 61.5155C63.2732 61.5702 63.4458 61.5702 63.5464 61.5155L64.6103 60.9267C64.7109 60.872 64.7109 60.7761 64.6103 60.7214ZM66.3283 59.7766L65.4297 59.2837C65.3291 59.229 65.1566 59.229 65.056 59.2837L63.9921 59.8725C63.8914 59.9272 63.8914 60.0231 63.9921 60.0779L64.8906 60.5708C64.9913 60.6255 65.1638 60.6255 65.2644 60.5708L66.3283 59.982C66.4289 59.9272 66.4289 59.8314 66.3283 59.7766ZM64.2796 55.7445L63.3811 55.2516C63.2804 55.1968 63.1079 55.1968 63.0073 55.2516L61.9434 55.8403C61.8428 55.8951 61.8428 55.9909 61.9434 56.0457L62.8419 56.5386C62.9426 56.5933 63.1151 56.5933 63.2157 56.5386L64.2796 55.9498C64.3802 55.8882 64.3802 55.7992 64.2796 55.7445ZM65.9976 54.7929L65.0991 54.3C64.9984 54.2452 64.8259 54.2452 64.7253 54.3L63.6614 54.8887C63.5608 54.9435 63.5608 55.0394 63.6614 55.0941L64.56 55.587C64.6606 55.6418 64.8331 55.6418 64.9338 55.587L65.9976 54.9983C66.0983 54.9435 66.0983 54.8545 65.9976 54.7929ZM67.7156 53.8482L66.8171 53.3553C66.7165 53.3005 66.5439 53.3005 66.4433 53.3553L65.3794 53.944C65.2788 53.9988 65.2788 54.0946 65.3794 54.1494L66.278 54.6423C66.3786 54.6971 66.5511 54.6971 66.6518 54.6423L67.7156 54.0536C67.8163 53.9988 67.8163 53.9098 67.7156 53.8482ZM69.2827 54.7107L68.3841 54.2179C68.2835 54.1631 68.111 54.1631 68.0104 54.2179L66.9465 54.8066C66.8458 54.8614 66.8458 54.9572 66.9465 55.012L67.845 55.5049C67.9457 55.5596 68.1182 55.5596 68.2188 55.5049L69.2827 54.9161C69.3905 54.8614 69.3905 54.7724 69.2827 54.7107ZM70.8066 55.5117L69.9296 55.0325C69.8434 54.9846 69.7068 54.9846 69.6205 55.0325L68.1182 55.8472C68.0463 55.8882 67.9313 55.8882 67.8594 55.8472L66.6805 55.1968C66.5511 55.1283 66.3427 55.1283 66.2133 55.1968L63.5177 56.6823C63.3883 56.7508 63.3883 56.8672 63.5177 56.9356L65.8682 58.2295C65.9976 58.2979 66.2061 58.2979 66.3355 58.2295L70.8138 55.765C70.936 55.6965 70.936 55.5802 70.8066 55.5117Z" fill="#FFFEFB"/>
<path d="M87.9076 53.9579C87.541 53.0611 86.1537 51.336 84.0547 50.5761C82.3726 49.9668 80.2521 49.3438 77.7362 50.7335C77.6355 50.7883 77.5493 50.8431 77.463 50.9047C76.5501 51.5413 76.5788 52.6093 77.5565 53.2596C79.3392 54.4508 81.51 55.5735 81.51 55.5735C82.0492 55.8473 82.617 56.0732 83.2065 56.217C84.6513 56.5661 85.9308 56.4429 87.0163 55.8405C87.6992 55.464 88.0442 54.9642 88.037 54.4645C88.0442 54.3618 88.0011 54.1838 87.9076 53.9579Z" fill="url(#paint4_radial_389_6452)"/>
<path opacity="0.6" d="M80.8487 50.98L80.1371 50.6103C79.9286 50.5145 79.6195 50.494 79.3392 50.7267C79.1666 50.8705 79.2457 50.9321 79.447 51.0279L80.1586 51.3497C80.3671 51.4455 80.7121 51.4729 80.899 51.3497C81.0931 51.2196 81.0572 51.0758 80.8487 50.98Z" fill="#D2D1CE"/>
<path d="M80.3886 50.4321C80.1513 50.302 79.9141 50.2952 79.6913 50.4115L80.712 51.9655C81.2152 51.5959 80.9636 50.7607 80.3886 50.4321Z" fill="#FFFEFB"/>
<path d="M80.6977 51.1919C80.5683 50.8839 80.3454 50.6237 80.1082 50.4937C79.9932 50.4321 79.871 50.3978 79.7632 50.4047C79.7057 50.4115 79.6626 50.4252 79.6194 50.4458C79.5547 50.48 79.3966 50.5758 79.3247 50.8223C79.1522 51.411 79.8638 52.4036 80.5898 52.034C80.8055 51.9176 80.8558 51.5822 80.6977 51.1919Z" fill="#B6B5B3"/>
<path opacity="0.5" d="M80.1946 51.3699C80.1155 51.1782 79.9717 51.0139 79.8208 50.9318C79.7489 50.8907 79.677 50.8702 79.6051 50.877C79.4039 50.8907 79.332 51.144 79.447 51.4315C79.5261 51.6232 79.6698 51.7875 79.8208 51.8697C79.8927 51.9107 79.9645 51.9313 80.0364 51.9244C80.2377 51.9039 80.3096 51.6575 80.1946 51.3699Z" fill="#CCCECE"/>
<path d="M80.7696 51.1512C80.7624 51.1306 80.7481 51.1101 80.7409 51.0827C80.669 50.9321 80.5827 50.802 80.4749 50.6857C80.3815 50.583 80.2808 50.5008 80.173 50.4461C80.058 50.3845 79.9358 50.3502 79.828 50.3571C79.7704 50.3639 79.7273 50.3776 79.6842 50.3981L79.6123 50.4392C79.6554 50.4187 79.7058 50.3981 79.7561 50.3981C79.8639 50.3913 79.9789 50.4187 80.1011 50.4871C80.2089 50.5419 80.3096 50.6241 80.403 50.7267C80.5037 50.8363 80.5971 50.9732 80.669 51.1238C80.6762 51.1443 80.6906 51.1649 80.6977 51.1923C80.8559 51.5756 80.7984 51.9179 80.5899 52.0343L80.6618 51.9932C80.8774 51.8837 80.9278 51.5414 80.7696 51.1512Z" fill="#F0EFEC"/>
<path opacity="0.6" d="M87.1456 55.3954C86.0602 55.9978 84.7735 56.121 83.3358 55.7719C82.7464 55.6281 82.1785 55.4022 81.6394 55.1284C81.6394 55.1284 79.4685 54.0125 77.6858 52.8145C77.1467 52.4517 76.8951 51.9656 76.9382 51.4933C76.6363 52.082 76.8448 52.7871 77.5564 53.2595C79.3391 54.4507 81.51 55.5734 81.51 55.5734C82.0491 55.8472 82.617 56.0731 83.2064 56.2169C84.6513 56.566 85.9308 56.4428 87.0162 55.8404C87.656 55.4844 87.9938 55.0257 88.0298 54.567C87.8788 54.8683 87.5841 55.1558 87.1456 55.3954Z" fill="#D2D1CE"/>
<path opacity="0.6" d="M87.081 55.6077C85.9956 56.2101 84.7089 56.3334 83.2712 55.9842C82.6818 55.8405 82.1139 55.6145 81.5748 55.3407C81.5748 55.3407 79.4039 54.2248 77.6212 53.0268C77.0461 52.6435 76.8017 52.1095 76.888 51.6029C76.6652 52.1711 76.888 52.8078 77.5565 53.2596C79.3392 54.4508 81.5101 55.5735 81.5101 55.5735C82.0492 55.8473 82.6171 56.0732 83.2065 56.217C84.6514 56.5661 85.9309 56.4429 87.0163 55.8405C87.613 55.5119 87.9365 55.0943 88.0155 54.663C87.879 55.0121 87.5698 55.3407 87.081 55.6077Z" fill="#D2D1CE"/>
<path opacity="0.2" d="M79.4614 31.6132L37.6254 54.6151V29.9839L79.4614 6.98206V31.6132Z" fill="#788EFF"/>
<path opacity="0.2" d="M79.4614 31.6132L37.6254 54.6151V29.9839L79.4614 6.98206V31.6132Z" fill="#3852D4"/>
<path opacity="0.5" d="M38.1931 31.0929V53.6224L68.5206 36.946C68.5206 36.9255 79.4613 30.9149 79.4613 30.9149V8.39905L38.1931 31.0929Z" fill="#213FD8"/>
<path d="M79.4613 7.05725L37.6252 30.0591V28.5325L79.4613 5.53064V7.05725Z" fill="#788EFF"/>
<path d="M65.322 38.7052L37.6254 53.9302V35.2207L65.322 19.9956V38.7052Z" fill="#788EFF"/>
<path d="M65.322 37.4387L37.6254 52.6637V35.2207L65.322 19.9956V37.4387Z" fill="#C2CCFF"/>
<path d="M56.9978 31.6202L46.165 37.5761C45.6044 37.8841 45.1515 37.6925 45.1515 37.1448C45.1515 36.5971 45.6044 35.9126 46.165 35.6045L56.9978 29.6487C57.5585 29.3406 58.0114 29.5323 58.0114 30.0799C58.0114 30.6276 57.5585 31.3122 56.9978 31.6202Z" fill="#FFFFD6"/>
<path d="M56.9978 35.0568L46.165 41.0126C45.6044 41.3207 45.1515 41.129 45.1515 40.5813C45.1515 40.0337 45.6044 39.3491 46.165 39.041L56.9978 33.0852C57.5585 32.7771 58.0114 32.9688 58.0114 33.5165C58.0114 34.0641 57.5585 34.7555 56.9978 35.0568Z" fill="#FFFFD6"/>
<path d="M52.9724 40.7456L49.8958 42.4365C49.3351 42.7446 48.8822 42.5529 48.8822 42.0052C48.8822 41.4576 49.3351 40.773 49.8958 40.4649L52.9724 38.774C53.533 38.466 53.9859 38.6576 53.9859 39.2053C53.9859 39.7461 53.533 40.4375 52.9724 40.7456Z" fill="#788EFF"/>
<path d="M46.3951 39.9037C46.3951 40.0338 46.2872 40.2049 46.1507 40.2803C46.0141 40.3556 45.9062 40.3076 45.9062 40.1776C45.9062 40.0475 46.0141 39.8763 46.1507 39.801C46.28 39.7257 46.3951 39.7737 46.3951 39.9037Z" fill="#9F9F9F"/>
<path d="M47.4158 39.3421C47.4158 39.4722 47.308 39.6433 47.1714 39.7186C47.0348 39.7939 46.927 39.746 46.927 39.6159C46.927 39.4858 47.0348 39.3147 47.1714 39.2394C47.3008 39.1641 47.4158 39.212 47.4158 39.3421Z" fill="#9F9F9F"/>
<path d="M48.4366 38.7808C48.4366 38.9109 48.3287 39.082 48.1922 39.1573C48.0556 39.2326 47.9478 39.1847 47.9478 39.0546C47.9478 38.9246 48.0556 38.7534 48.1922 38.6781C48.3215 38.6028 48.4366 38.6507 48.4366 38.7808Z" fill="#9F9F9F"/>
<path d="M49.45 38.2194C49.45 38.3495 49.3422 38.5206 49.2056 38.5959C49.069 38.6712 48.9612 38.6233 48.9612 38.4932C48.9612 38.3632 49.069 38.192 49.2056 38.1167C49.3422 38.0414 49.45 38.0893 49.45 38.2194Z" fill="#9F9F9F"/>
<path d="M50.4709 37.6581C50.4709 37.7882 50.363 37.9593 50.2265 38.0346C50.0899 38.1099 49.9821 38.062 49.9821 37.932C49.9821 37.8019 50.0899 37.6307 50.2265 37.5554C50.363 37.4801 50.4709 37.5281 50.4709 37.6581Z" fill="#9F9F9F"/>
<path d="M51.4915 37.0967C51.4915 37.2268 51.3837 37.3979 51.2471 37.4732C51.1105 37.5485 51.0027 37.5006 51.0027 37.3706C51.0027 37.2405 51.1105 37.0693 51.2471 36.994C51.3837 36.9187 51.4915 36.9667 51.4915 37.0967Z" fill="#9F9F9F"/>
<path d="M52.5122 36.542C52.5122 36.6721 52.4044 36.8433 52.2678 36.9186C52.1313 36.9939 52.0234 36.946 52.0234 36.8159C52.0234 36.6858 52.1313 36.5147 52.2678 36.4394C52.4044 36.3572 52.5122 36.4051 52.5122 36.542Z" fill="#9F9F9F"/>
<path d="M53.5331 35.9809C53.5331 36.111 53.4253 36.2821 53.2887 36.3574C53.1521 36.4327 53.0371 36.3848 53.0371 36.2479C53.0371 36.1178 53.1449 35.9467 53.2815 35.8714C53.4253 35.7961 53.5331 35.844 53.5331 35.9809Z" fill="#9F9F9F"/>
<path d="M46.1866 36.2886V36.85C46.1866 36.9732 46.2585 36.9937 46.3735 36.9321C46.51 36.8568 46.5747 36.7473 46.6107 36.672V36.0559L46.7257 35.9943V36.5898L46.7329 36.8158L46.6394 36.8637L46.6251 36.761C46.5747 36.8637 46.4885 36.9732 46.3447 37.0485C46.1722 37.1444 46.0859 37.0827 46.0859 36.9253V36.3434L46.1866 36.2886Z" fill="#9F9F9F"/>
<path d="M47.4732 36.1859C47.4732 36.0763 47.4085 36.0832 47.2432 36.1585C47.0132 36.268 46.9485 36.2269 46.9485 36.0969C46.9485 35.9463 47.0635 35.7888 47.2648 35.6793C47.4948 35.5492 47.581 35.6177 47.581 35.782C47.581 35.7888 47.4732 35.8504 47.4732 35.8504C47.4732 35.7341 47.4229 35.6861 47.2648 35.7751C47.1354 35.8436 47.0635 35.9394 47.0635 36.0284C47.0635 36.1174 47.1066 36.138 47.2863 36.049C47.502 35.9463 47.5882 35.96 47.5882 36.1106C47.5882 36.2612 47.4732 36.4255 47.2648 36.5419C47.0275 36.6719 46.9413 36.5829 46.9413 36.4597C46.9413 36.4529 47.0563 36.3912 47.0563 36.3912C47.0563 36.4802 47.0994 36.5419 47.2719 36.4529C47.3941 36.3776 47.4732 36.2817 47.4732 36.1859Z" fill="#9F9F9F"/>
<path d="M47.883 35.8162C47.8901 35.9942 47.9692 36.0627 48.1346 35.9737C48.3071 35.8778 48.3718 35.7409 48.3718 35.6519L48.4796 35.5903C48.4796 35.7272 48.3718 35.9326 48.1346 36.0627C47.8758 36.2064 47.7679 36.0832 47.7679 35.8504V35.8162C47.7679 35.5835 47.8758 35.3439 48.1274 35.2069C48.379 35.07 48.4796 35.1933 48.4796 35.426V35.4876L47.883 35.8162ZM47.883 35.7272L48.3718 35.4602C48.3646 35.2822 48.2927 35.2138 48.1274 35.3028C47.9692 35.3849 47.8901 35.5424 47.883 35.7272Z" fill="#9F9F9F"/>
<path d="M49.0475 34.7006V34.8032C48.8965 34.8854 48.8318 34.9881 48.7959 35.0634V35.6795L48.6809 35.7411V35.1455L48.6737 34.9196L48.7672 34.8717L48.7815 34.9744C48.8247 34.8786 48.9037 34.7827 49.0187 34.7143C49.0331 34.7074 49.0475 34.7006 49.0475 34.7006Z" fill="#9F9F9F"/>
<path d="M49.6945 35.1935L49.5795 35.2551V34.0366L49.6945 33.975V35.1935Z" fill="#9F9F9F"/>
<path d="M50.2839 34.8647L49.9532 35.0495V33.831L50.2839 33.6461C50.5858 33.4818 50.7655 33.5366 50.7655 33.961V34.0226C50.7727 34.4471 50.593 34.7004 50.2839 34.8647ZM50.2767 34.7688C50.5139 34.6388 50.6505 34.4334 50.6505 34.0843V34.0226C50.6505 33.6735 50.5139 33.6187 50.2767 33.7488L50.0683 33.8583V34.8715L50.2767 34.7688Z" fill="#9F9F9F"/>
<path d="M37.6252 31.4077V35.5152L65.3218 20.2833V16.1758L37.6252 31.4077Z" fill="#788EFF"/>
<path d="M76.9166 8.1183L76.0181 8.61119V7.75547L76.9166 7.26257V8.1183Z" fill="#5373F9"/>
<path d="M78.0235 7.50208L77.125 7.99497V7.1461L78.0235 6.6532V7.50208Z" fill="#5373F9"/>
<path d="M77.2688 7.20117V7.78306L77.8798 7.44762V6.86572L77.2688 7.20117ZM77.7792 7.40654L77.3766 7.62561V7.24224L77.7792 7.02318V7.40654Z" fill="#F7F8FF"/>
<path d="M79.1378 6.89296L78.2393 7.38585V6.53013L79.1378 6.03723V6.89296Z" fill="#5373F9"/>
<path d="M78.3903 6.66045L78.6275 6.76314L78.3903 7.11912L78.4621 7.15335L78.7065 6.79052L78.9438 6.88637L79.0228 6.76999L78.7784 6.67415L79.0228 6.31816L78.9438 6.28394L78.7065 6.64676L78.4621 6.55092L78.3903 6.66045Z" fill="#F7F8FF"/>
<path d="M76.7584 8.07057L76.1833 8.38612V8.28323L76.7584 7.96082V8.07057Z" fill="#F7F8FF"/>
<path d="M77.6859 25.1578L67.4641 30.7782V28.8682L77.6859 23.2546V25.1578Z" fill="#788EFF"/>
<path d="M67.9673 29.1421L77.1899 24.0693V24.8908L67.9673 29.9567V29.1421Z" fill="#291B2A"/>
<path d="M82.8447 40.0608L82.4134 39.8211C82.1402 39.6705 81.8743 39.4583 81.6443 39.205C81.3639 38.9038 81.1339 38.5478 80.9614 38.1782C80.7673 37.7606 80.6523 37.3224 80.6595 36.9185L80.681 29.8263C80.681 29.4087 80.566 28.95 80.3647 28.5187C80.185 28.1354 79.9406 27.7657 79.6531 27.4508C79.4087 27.1907 79.1427 26.9647 78.8552 26.8073L75.5629 25L69 28.6351L72.2923 30.4424C72.5798 30.5999 72.8529 30.8189 73.0902 31.0859C73.3777 31.394 73.6221 31.7636 73.8018 32.1539C74.0031 32.5851 74.1181 33.0438 74.1181 33.4614L74.0893 40.5605C74.0893 40.9644 74.2043 41.4025 74.3912 41.8201C74.5638 42.1898 74.801 42.5458 75.0741 42.847C75.3042 43.1003 75.5701 43.3125 75.8433 43.4631L76.2746 43.7027C76.7634 43.9697 77.2091 43.9971 77.5325 43.8191L84.0955 40.184C83.7792 40.3551 83.3335 40.3346 82.8447 40.0608Z" fill="url(#paint5_linear_389_6452)"/>
<path d="M78.6467 37.6305C78.3305 37.8085 78.1292 38.1781 78.1292 38.7053L78.1148 42.7717C78.1148 43.3193 77.9063 43.7095 77.5757 43.8875L84.1386 40.2524C84.4693 40.0676 84.6706 39.6842 84.6777 39.1366L84.6921 35.0702C84.6921 34.543 84.8934 34.1665 85.2097 33.9954L78.6467 37.6305Z" fill="#DAD7D7"/>
<path d="M90.4716 44.2572L90.0403 44.0176C89.7671 43.867 89.5011 43.6548 89.2711 43.4015C88.998 43.1003 88.7607 42.7443 88.5882 42.3746C88.3941 41.957 88.2791 41.5189 88.2863 41.115L88.3007 37.0486C88.3007 36.631 88.1857 36.1723 87.9844 35.741C87.8047 35.3577 87.5603 34.988 87.2728 34.6731C87.0284 34.413 86.7624 34.187 86.4749 34.0296C85.9645 33.7489 85.5044 33.7215 85.1738 33.9064L78.6108 37.5415C78.9415 37.3566 79.4087 37.384 79.9119 37.6647C80.1995 37.8222 80.4726 38.0412 80.7098 38.3082C80.9974 38.6163 81.2418 38.9859 81.4215 39.3762C81.6227 39.8074 81.7378 40.2661 81.7378 40.6837L81.7162 44.7501C81.7162 45.154 81.8312 45.5921 82.0181 46.0097C82.1906 46.3794 82.4278 46.7354 82.701 47.0366C82.931 47.2899 83.197 47.5021 83.4701 47.6527L83.9014 47.8923C84.3902 48.1593 84.8359 48.1867 85.1594 48.0087L91.7223 44.3736C91.4061 44.5516 90.9676 44.5242 90.4716 44.2572Z" fill="url(#paint6_linear_389_6452)"/>
<path d="M86.2664 45.0377C85.9501 45.2157 85.7488 45.5854 85.7488 46.1125V46.9614C85.7488 47.509 85.5404 47.8992 85.2097 48.0772L91.7727 44.4421C92.1033 44.2573 92.3046 43.8739 92.3118 43.3263V42.4774C92.3118 41.9503 92.5131 41.5737 92.8293 41.4026L86.2664 45.0377Z" fill="#DAD7D7"/>
<path d="M94.0873 41.4436C93.5769 41.163 93.1169 41.1356 92.7862 41.3204L86.2233 44.9555C86.5539 44.7707 87.0212 44.7981 87.5244 45.0788L91.787 47.42L98.35 43.7849L94.0873 41.4436Z" fill="#F8F5F4"/>
<path d="M91.787 47.4267L87.5243 45.0854C86.5107 44.5309 85.6841 44.9759 85.6841 46.0849V46.9338C85.6841 47.9949 84.8862 48.4262 83.9158 47.8922L83.4845 47.6526C82.514 47.1186 81.7233 45.8179 81.7233 44.75L81.7377 40.6836C81.7377 39.5746 80.9182 38.226 79.9119 37.6715C78.8983 37.1169 78.0717 37.5619 78.0717 38.6709L78.0573 42.7373C78.0573 43.7984 77.2594 44.2297 76.289 43.6958L75.8577 43.4561C74.8872 42.9222 74.0965 41.6146 74.0965 40.5535L74.1181 33.4613C74.1181 32.3523 73.2986 31.0036 72.2923 30.4491L69 28.6418V28.7171L72.2923 30.5244C73.2699 31.0584 74.0534 32.3591 74.0534 33.4271L74.0318 40.5193C74.0318 41.6283 74.8513 42.9769 75.8577 43.5315L76.289 43.7711C77.3025 44.3256 78.1292 43.8806 78.1292 42.7716L78.1435 38.7052C78.1435 37.6441 78.9414 37.2128 79.9119 37.7468C80.8895 38.2807 81.673 39.5814 81.673 40.6494L81.6586 44.7158C81.6586 45.8248 82.4781 47.1734 83.4845 47.7279L83.9158 47.9675C84.9293 48.522 85.756 48.0771 85.756 46.968V46.1192C85.756 45.0581 86.5539 44.6268 87.5243 45.1608L91.787 47.502L98.3499 43.8669V43.7916L91.787 47.4267Z" fill="#F3F0F0"/>
<path d="M77.7146 17.34L67.4928 22.9604V21.0504L77.7146 15.4369V17.34Z" fill="#788EFF"/>
<path d="M67.9888 21.3243L77.2186 16.2516V17.0731L67.9888 22.139V21.3243Z" fill="#291B2A"/>
<path d="M69.0171 21.3913C69.0171 21.5145 69.1105 21.6377 69.2902 21.7336L80.9209 28.1412C81.2588 28.3261 81.762 28.3466 82.0495 28.1891L89.015 24.3692C89.1587 24.2939 89.2234 24.1844 89.2091 24.0748C89.2019 24.0132 89.2019 23.9584 89.1947 23.8831C89.1803 23.7736 89.0869 23.6572 88.9215 23.5614L77.2908 17.1537C76.953 16.9689 76.4498 16.9483 76.1623 17.1058L69.1968 20.9258C69.0746 20.9942 69.0099 21.0832 69.0027 21.1791C68.9955 21.2612 69.0171 21.3297 69.0171 21.3913Z" fill="url(#paint7_linear_389_6452)"/>
<path d="M77.2908 17.1537L88.9215 23.5614C89.2593 23.7462 89.2881 24.0269 89.0005 24.1844L82.0351 28.0043C81.7475 28.1618 81.2372 28.1412 80.9065 27.9564L69.2758 21.5556C68.9379 21.3708 68.9092 21.0901 69.1967 20.9326L76.1622 17.1127C76.4497 16.9552 76.9601 16.9689 77.2908 17.1537Z" fill="url(#paint8_linear_389_6452)"/>
<path d="M87.6922 23.6912C87.7929 23.7459 87.8504 23.8144 87.8648 23.8897C87.872 23.965 87.8288 24.0266 87.7426 24.0745L87.2825 24.3278C87.1028 24.4237 86.7865 24.4168 86.5852 24.3005L84.9176 23.3831C84.8169 23.3284 84.7594 23.2599 84.745 23.1846C84.7378 23.1093 84.781 23.0477 84.8672 22.9998L85.3273 22.7465C85.507 22.6506 85.8233 22.6575 86.0246 22.7738L87.6922 23.6912Z" fill="#FFD7FB"/>
<path d="M73.7684 21.5075C73.869 21.5622 73.9266 21.6307 73.9409 21.706C73.9481 21.7813 73.905 21.8429 73.8187 21.8908L72.9346 22.3769C72.7549 22.4727 72.4386 22.4659 72.2373 22.3495L70.4187 21.35C70.318 21.2952 70.2605 21.2268 70.2461 21.1515C70.2389 21.0762 70.2821 21.0146 70.3683 20.9666L71.2525 20.4806C71.4322 20.3848 71.7485 20.3916 71.9498 20.508L73.7684 21.5075Z" fill="url(#paint9_linear_389_6452)"/>
<path d="M70.4834 21.3638L72.3021 22.3633C72.4746 22.4591 72.7334 22.466 72.8771 22.3838L73.7613 21.8978C73.9123 21.8156 73.8907 21.6719 73.7182 21.5829L71.8995 20.5834C71.727 20.4875 71.4682 20.4807 71.3245 20.5629L70.4403 21.0489C70.2893 21.1311 70.3109 21.268 70.4834 21.3638Z" fill="#FFC440"/>
<g opacity="0.6">
<path opacity="0.6" d="M71.8419 20.5561C71.8204 20.5492 71.7988 20.5424 71.7701 20.5355L70.3899 21.2954C70.4043 21.3091 70.4115 21.3228 70.433 21.3365L70.7781 21.1448L71.3531 21.4597C71.2309 21.5624 71.2669 21.7062 71.4538 21.8088C71.6407 21.9115 71.9066 21.9321 72.0863 21.8636L72.6902 22.1991L72.3451 22.3907C72.3667 22.3976 72.3882 22.4113 72.4098 22.4181L73.8043 21.6514C73.79 21.6377 73.7756 21.6308 73.7612 21.6172L73.3802 21.8294L72.7764 21.4939C72.9058 21.3912 72.8771 21.2406 72.6902 21.138C72.5033 21.0353 72.2301 21.0147 72.0432 21.09L71.4681 20.7751L71.8419 20.5561ZM72.1367 21.8294L72.7189 21.5076L73.3155 21.8362L72.7261 22.158L72.1295 21.8294C72.1367 21.8362 72.1367 21.8362 72.1367 21.8294ZM71.4897 21.7815C71.3388 21.6993 71.3028 21.5761 71.3963 21.4871L72.0145 21.8294C71.8707 21.8841 71.6479 21.8636 71.4897 21.7815ZM72.6326 21.1516C72.7908 21.2406 72.8195 21.3639 72.7117 21.4529L72.0863 21.1106C72.2445 21.049 72.4745 21.0695 72.6326 21.1516ZM72.036 21.1311L72.6686 21.4802L72.0863 21.802C72.0791 21.8088 71.4466 21.4597 71.4466 21.4597C71.4538 21.4529 72.036 21.1311 72.036 21.1311ZM71.9785 21.1037L71.3963 21.4255C71.3891 21.4323 70.8212 21.1174 70.8212 21.1174L71.4106 20.7957L71.9785 21.1037Z" fill="#D88C1D"/>
</g>
<path d="M80.8992 26.5256C80.6117 26.6831 80.1516 26.6831 79.8641 26.5256C79.5766 26.3682 79.5766 26.1149 79.8641 25.9574C80.1516 25.8 80.6117 25.8 80.8992 25.9574C81.1867 26.1149 81.1867 26.3682 80.8992 26.5256Z" fill="#9B2C2C"/>
<path d="M81.5749 27.2993C81.9798 27.2993 82.3081 27.1184 82.3081 26.8954C82.3081 26.6723 81.9798 26.4915 81.5749 26.4915C81.1699 26.4915 80.8417 26.6723 80.8417 26.8954C80.8417 27.1184 81.1699 27.2993 81.5749 27.2993Z" fill="#FFDF43"/>
<path d="M84.8745 25.1566C84.817 25.1566 84.7595 25.1703 84.7092 25.1977L84.321 25.4099C84.2707 25.4373 84.2419 25.4715 84.2419 25.4989C84.2419 25.5331 84.2707 25.5605 84.321 25.5879L84.436 25.6495C84.4863 25.6769 84.5439 25.6906 84.6014 25.6906C84.6589 25.6906 84.7164 25.6769 84.7667 25.6495L85.1549 25.4373C85.2052 25.4099 85.2339 25.3757 85.2339 25.3483C85.2339 25.3141 85.2052 25.2867 85.1549 25.2593L85.0398 25.1977C84.9895 25.1703 84.932 25.1566 84.8745 25.1566ZM84.7883 25.2388C84.853 25.2045 84.9176 25.2045 84.9823 25.2388L85.0758 25.2867C85.1405 25.3209 85.1333 25.3551 85.0686 25.3894L84.6876 25.6016C84.6229 25.6358 84.5582 25.6358 84.5007 25.6016L84.4073 25.5537C84.3426 25.5194 84.3426 25.4852 84.4073 25.451L84.7883 25.2388Z" fill="#FFC440"/>
<path d="M84.3066 24.8416C84.2491 24.8416 84.1916 24.8552 84.1413 24.8826L83.7531 25.0948C83.7028 25.1222 83.6741 25.1565 83.6741 25.1838C83.6741 25.2181 83.7028 25.2455 83.7531 25.2728L83.8682 25.3344C83.9185 25.3618 83.976 25.3755 84.0335 25.3755C84.091 25.3755 84.1485 25.3618 84.1988 25.3344L84.587 25.1222C84.6373 25.0948 84.6661 25.0606 84.6661 25.0332C84.6661 24.999 84.6373 24.9716 84.587 24.9442L84.472 24.8826C84.4217 24.8552 84.3641 24.8416 84.3066 24.8416ZM84.2204 24.9305C84.2851 24.8963 84.3498 24.8963 84.4145 24.9305L84.5079 24.9785C84.5726 25.0127 84.5654 25.0469 84.5007 25.0812L84.1198 25.2934C84.0551 25.3276 83.9904 25.3276 83.9329 25.2934L83.8394 25.2455C83.7747 25.2112 83.7747 25.177 83.8394 25.1428L84.2204 24.9305Z" fill="#FFC440"/>
<path d="M83.7388 24.5266C83.6813 24.5266 83.6238 24.5403 83.5734 24.5677L83.1853 24.7799C83.135 24.8073 83.1062 24.8415 83.1062 24.8689C83.1062 24.9031 83.135 24.9305 83.1853 24.9579L83.3003 25.0195C83.3506 25.0469 83.4081 25.0606 83.4656 25.0606C83.5231 25.0606 83.5806 25.0469 83.631 25.0195L84.0191 24.8073C84.0694 24.7799 84.0982 24.7457 84.0982 24.7183C84.0982 24.6841 84.0694 24.6567 84.0191 24.6293L83.9041 24.5677C83.8538 24.5403 83.7963 24.5266 83.7388 24.5266ZM83.6453 24.6156C83.71 24.5814 83.7747 24.5814 83.8394 24.6156L83.9329 24.6635C83.9976 24.6978 83.9904 24.732 83.9257 24.7662L83.5447 24.9784C83.48 25.0127 83.4153 25.0127 83.3578 24.9784L83.2643 24.9305C83.1997 24.8963 83.1997 24.8621 83.2643 24.8278L83.6453 24.6156Z" fill="#FFC440"/>
<path d="M83.1637 24.2118C83.1062 24.2118 83.0487 24.2255 82.9984 24.2529L82.6102 24.4651C82.5599 24.4925 82.5311 24.5267 82.5311 24.5541C82.5311 24.5883 82.5599 24.6157 82.6102 24.6431L82.7252 24.7047C82.7755 24.7321 82.833 24.7458 82.8905 24.7458C82.9481 24.7458 83.0056 24.7321 83.0559 24.7047L83.444 24.4925C83.4944 24.4651 83.5231 24.4309 83.5231 24.4035C83.5231 24.3692 83.4944 24.3419 83.444 24.3145L83.329 24.2529C83.2787 24.2255 83.2284 24.2118 83.1637 24.2118ZM83.0774 24.3008C83.1421 24.2666 83.2068 24.2666 83.2715 24.3008L83.365 24.3487C83.4297 24.3829 83.4225 24.4172 83.3578 24.4514L82.9768 24.6636C82.9121 24.6978 82.8474 24.6978 82.7899 24.6636L82.6965 24.6157C82.6318 24.5815 82.6318 24.5472 82.6965 24.513L83.0774 24.3008Z" fill="#FFC440"/>
<path d="M81.7835 23.4519C81.7259 23.4519 81.6684 23.4656 81.6181 23.493L81.23 23.7052C81.1796 23.7326 81.1509 23.7668 81.1509 23.7942C81.1509 23.8284 81.1796 23.8558 81.23 23.8832L81.345 23.9448C81.3953 23.9722 81.4528 23.9859 81.5103 23.9859C81.5678 23.9859 81.6253 23.9722 81.6756 23.9448L82.0638 23.7326C82.1141 23.7052 82.1429 23.671 82.1429 23.6436C82.1429 23.6094 82.1141 23.582 82.0638 23.5546L81.9488 23.493C81.8913 23.4656 81.841 23.4519 81.7835 23.4519ZM81.69 23.5409C81.7547 23.5067 81.8194 23.5067 81.8841 23.5409L81.9775 23.5888C82.0422 23.623 82.035 23.6573 81.9703 23.6915L81.5894 23.9037C81.5247 23.938 81.46 23.938 81.4025 23.9037L81.309 23.8558C81.2443 23.8216 81.2443 23.7873 81.309 23.7531L81.69 23.5409Z" fill="#FFC440"/>
<path d="M81.2085 23.1368C81.151 23.1368 81.0935 23.1505 81.0432 23.1779L80.655 23.3901C80.6047 23.4175 80.5759 23.4517 80.5759 23.4791C80.5759 23.5134 80.6047 23.5407 80.655 23.5681L80.77 23.6297C80.8203 23.6571 80.8778 23.6708 80.9353 23.6708C80.9929 23.6708 81.0504 23.6571 81.1007 23.6297L81.4888 23.4175C81.5392 23.3901 81.5679 23.3559 81.5679 23.3285C81.5679 23.2943 81.5392 23.2669 81.4888 23.2395L81.3738 23.1779C81.3235 23.1505 81.2732 23.1368 81.2085 23.1368ZM81.1222 23.2258C81.1869 23.1916 81.2516 23.1916 81.3163 23.2258L81.4098 23.2738C81.4745 23.308 81.4673 23.3422 81.4026 23.3764L81.0216 23.5887C80.9569 23.6229 80.8922 23.6229 80.8347 23.5887L80.7413 23.5407C80.6766 23.5065 80.6766 23.4723 80.7413 23.4381L81.1222 23.2258Z" fill="#FFC440"/>
<path d="M80.6406 22.8218C80.5831 22.8218 80.5256 22.8355 80.4753 22.8629L80.0871 23.0751C80.0368 23.1025 80.0081 23.1367 80.0081 23.1641C80.0081 23.1983 80.0368 23.2257 80.0871 23.2531L80.2021 23.3147C80.2525 23.3421 80.31 23.3557 80.3675 23.3557C80.425 23.3557 80.4825 23.3421 80.5328 23.3147L80.921 23.1025C80.9713 23.0751 81 23.0408 81 23.0135C81 22.9792 80.9713 22.9518 80.921 22.9245L80.806 22.8629C80.7556 22.8355 80.6981 22.8218 80.6406 22.8218ZM80.5544 22.9108C80.6191 22.8765 80.6838 22.8765 80.7485 22.9108L80.8419 22.9587C80.9066 22.9929 80.8994 23.0272 80.8347 23.0614L80.4537 23.2736C80.389 23.3078 80.3243 23.3078 80.2668 23.2736L80.1734 23.2257C80.1087 23.1915 80.1087 23.1572 80.1734 23.123L80.5544 22.9108Z" fill="#FFC440"/>
<path d="M80.0728 22.5138C80.0152 22.5138 79.9577 22.5275 79.9074 22.5549L79.5193 22.7671C79.4689 22.7945 79.4402 22.8287 79.4402 22.8561C79.4402 22.8903 79.4689 22.9177 79.5193 22.9451L79.6343 23.0067C79.6846 23.0341 79.7421 23.0478 79.7996 23.0478C79.8571 23.0478 79.9146 23.0341 79.9649 23.0067L80.3531 22.7945C80.4034 22.7671 80.4322 22.7329 80.4322 22.7055C80.4322 22.6712 80.4034 22.6439 80.3531 22.6165L80.2381 22.5549C80.1878 22.5275 80.1303 22.5138 80.0728 22.5138ZM79.9865 22.6028C80.0512 22.5686 80.1159 22.5686 80.1806 22.6028L80.274 22.6507C80.3387 22.6849 80.3315 22.7192 80.2668 22.7534L79.8859 22.9656C79.8212 22.9998 79.7565 22.9998 79.699 22.9656L79.6055 22.9177C79.5408 22.8835 79.5408 22.8492 79.6055 22.815L79.9865 22.6028Z" fill="#FFC440"/>
<path d="M78.6853 21.7471C78.6278 21.7471 78.5703 21.7608 78.52 21.7881L78.1318 22.0004C78.0815 22.0277 78.0527 22.062 78.0527 22.0894C78.0527 22.1236 78.0815 22.151 78.1318 22.1784L78.2468 22.24C78.2971 22.2674 78.3546 22.281 78.4122 22.281C78.4697 22.281 78.5272 22.2674 78.5775 22.24L78.9656 22.0277C79.016 22.0004 79.0447 21.9661 79.0447 21.9388C79.0447 21.9045 79.016 21.8771 78.9656 21.8498L78.8506 21.7881C78.8003 21.7608 78.7428 21.7471 78.6853 21.7471ZM78.599 21.8361C78.6637 21.8018 78.7284 21.8018 78.7931 21.8361L78.8866 21.884C78.9513 21.9182 78.9441 21.9524 78.8794 21.9867L78.4984 22.1989C78.4337 22.2331 78.369 22.2331 78.3115 22.1989L78.2181 22.151C78.1534 22.1167 78.1534 22.0825 78.2181 22.0483L78.599 21.8361Z" fill="#FFC440"/>
<path d="M78.1174 21.4391C78.0599 21.4391 78.0024 21.4528 77.9521 21.4802L77.5639 21.6924C77.5136 21.7198 77.4849 21.754 77.4849 21.7814C77.4849 21.8156 77.5136 21.843 77.5639 21.8704L77.6789 21.932C77.7293 21.9594 77.7868 21.9731 77.8443 21.9731C77.9018 21.9731 77.9593 21.9594 78.0096 21.932L78.3978 21.7198C78.4481 21.6924 78.4768 21.6582 78.4768 21.6308C78.4768 21.5965 78.4481 21.5692 78.3978 21.5418L78.2828 21.4802C78.2324 21.4528 78.1749 21.4391 78.1174 21.4391ZM78.0312 21.5212C78.0959 21.487 78.1606 21.487 78.2253 21.5212L78.3187 21.5692C78.3834 21.6034 78.3762 21.6376 78.3115 21.6718L77.9305 21.8841C77.8658 21.9183 77.8011 21.9183 77.7436 21.8841L77.6502 21.8361C77.5855 21.8019 77.5855 21.7677 77.6502 21.7335L78.0312 21.5212Z" fill="#FFC440"/>
<path d="M77.5496 21.1241C77.4921 21.1241 77.4346 21.1378 77.3842 21.1652L76.9961 21.3774C76.9457 21.4048 76.917 21.4391 76.917 21.4664C76.917 21.5007 76.9457 21.528 76.9961 21.5554L77.1111 21.617C77.1614 21.6444 77.2189 21.6581 77.2764 21.6581C77.3339 21.6581 77.3914 21.6444 77.4417 21.617L77.8299 21.4048C77.8802 21.3774 77.909 21.3432 77.909 21.3158C77.909 21.2816 77.8802 21.2542 77.8299 21.2268L77.7149 21.1652C77.6574 21.1378 77.6071 21.1241 77.5496 21.1241ZM77.4561 21.2131C77.5208 21.1789 77.5855 21.1789 77.6502 21.2131L77.7436 21.2611C77.8083 21.2953 77.8012 21.3295 77.7365 21.3637L77.3555 21.576C77.2908 21.6102 77.2261 21.6102 77.1686 21.576L77.0751 21.528C77.0104 21.4938 77.0104 21.4596 77.0751 21.4254L77.4561 21.2131Z" fill="#FFC440"/>
<path d="M76.9746 20.8093C76.9171 20.8093 76.8596 20.823 76.8093 20.8504L76.4211 21.0626C76.3708 21.09 76.342 21.1242 76.342 21.1516C76.342 21.1858 76.3708 21.2132 76.4211 21.2406L76.5361 21.3022C76.5864 21.3296 76.644 21.3433 76.7015 21.3433C76.759 21.3433 76.8165 21.3296 76.8668 21.3022L77.255 21.09C77.3053 21.0626 77.334 21.0284 77.334 21.001C77.334 20.9668 77.3053 20.9394 77.255 20.912L77.1399 20.8504C77.0896 20.823 77.0393 20.8093 76.9746 20.8093ZM76.8883 20.8983C76.953 20.8641 77.0177 20.8641 77.0824 20.8983L77.1759 20.9462C77.2406 20.9805 77.2334 21.0147 77.1687 21.0489L76.7877 21.2611C76.723 21.2954 76.6583 21.2954 76.6008 21.2611L76.5074 21.2132C76.4427 21.179 76.4427 21.1448 76.5074 21.1105L76.8883 20.8983Z" fill="#FFC440"/>
<path d="M75.5872 20.0494C75.5297 20.0494 75.4721 20.0631 75.4218 20.0905L75.0337 20.3027C74.9833 20.3301 74.9546 20.3643 74.9546 20.3917C74.9546 20.426 74.9833 20.4533 75.0337 20.4807L75.1487 20.5423C75.199 20.5697 75.2565 20.5834 75.314 20.5834C75.3715 20.5834 75.429 20.5697 75.4793 20.5423L75.8675 20.3301C75.9178 20.3027 75.9466 20.2685 75.9466 20.2411C75.9466 20.2069 75.9178 20.1795 75.8675 20.1521L75.7525 20.0905C75.7022 20.0631 75.6519 20.0494 75.5872 20.0494ZM75.5009 20.1384C75.5656 20.1042 75.6303 20.1042 75.695 20.1384L75.7884 20.1864C75.8531 20.2206 75.8459 20.2548 75.7812 20.289L75.4003 20.5013C75.3356 20.5355 75.2709 20.5355 75.2134 20.5013L75.1199 20.4533C75.0552 20.4191 75.0552 20.3849 75.1199 20.3507L75.5009 20.1384Z" fill="#FFC440"/>
<path d="M75.0193 19.7346C74.9618 19.7346 74.9043 19.7483 74.854 19.7757L74.4658 19.9879C74.4155 20.0153 74.3867 20.0495 74.3867 20.0769C74.3867 20.1111 74.4155 20.1385 74.4658 20.1659L74.5808 20.2275C74.6311 20.2549 74.6886 20.2686 74.7461 20.2686C74.8036 20.2686 74.8611 20.2549 74.9115 20.2275L75.2996 20.0153C75.35 19.9879 75.3787 19.9537 75.3787 19.9263C75.3787 19.8921 75.35 19.8647 75.2996 19.8373L75.1846 19.7757C75.1343 19.7483 75.0768 19.7346 75.0193 19.7346ZM74.933 19.8236C74.9977 19.7894 75.0624 19.7894 75.1271 19.8236L75.2206 19.8715C75.2853 19.9058 75.2781 19.94 75.2134 19.9742L74.8324 20.1864C74.7677 20.2207 74.703 20.2207 74.6455 20.1864L74.552 20.1385C74.4874 20.1043 74.4874 20.0701 74.552 20.0358L74.933 19.8236Z" fill="#FFC440"/>
<path d="M74.4514 19.4196C74.3939 19.4196 74.3364 19.4332 74.2861 19.4606L73.8979 19.6728C73.8476 19.7002 73.8188 19.7345 73.8188 19.7618C73.8188 19.7961 73.8476 19.8235 73.8979 19.8508L74.0129 19.9125C74.0632 19.9398 74.1208 19.9535 74.1783 19.9535C74.2358 19.9535 74.2933 19.9398 74.3436 19.9125L74.7318 19.7002C74.7821 19.6729 74.8108 19.6386 74.8108 19.6112C74.8108 19.577 74.7821 19.5496 74.7318 19.5222L74.6168 19.4606C74.5664 19.4332 74.5089 19.4196 74.4514 19.4196ZM74.3652 19.5086C74.4299 19.4743 74.4945 19.4743 74.5592 19.5086L74.6527 19.5565C74.7174 19.5907 74.7102 19.6249 74.6455 19.6592L74.2645 19.8714C74.1998 19.9056 74.1351 19.9056 74.0776 19.8714L73.9842 19.8235C73.9195 19.7892 73.9195 19.755 73.9842 19.7208L74.3652 19.5086Z" fill="#FFC440"/>
<path d="M73.7182 19.1525L73.33 19.3647C73.2797 19.3921 73.251 19.4264 73.251 19.4537C73.251 19.488 73.2797 19.5154 73.33 19.5427L73.4451 19.6043C73.4954 19.6317 73.5529 19.6454 73.6104 19.6454C73.6679 19.6454 73.7254 19.6317 73.7757 19.6043L74.1639 19.3921C74.2142 19.3647 74.243 19.3305 74.243 19.3031C74.243 19.2689 74.2142 19.2415 74.1639 19.2141L74.0489 19.1525C73.9986 19.1251 73.9411 19.1115 73.8835 19.1115C73.826 19.1115 73.7685 19.1251 73.7182 19.1525ZM73.7973 19.1936C73.862 19.1594 73.9267 19.1594 73.9914 19.1936L74.0848 19.2415C74.1495 19.2757 74.1423 19.31 74.0776 19.3442L73.6967 19.5564C73.632 19.5907 73.5673 19.5907 73.5098 19.5564L73.4163 19.5085C73.3516 19.4743 73.3516 19.44 73.4163 19.4058L73.7973 19.1936Z" fill="#FFC440"/>
<path d="M75.9897 17.9004L76.5432 17.5917C76.5719 17.5917 76.8019 17.7152 76.8019 17.7152C76.8451 17.7426 76.8666 17.7632 76.8666 17.7906C76.8666 17.818 76.8451 17.8455 76.8019 17.8661L76.5 18.0307C76.4569 18.0581 76.4066 18.065 76.3563 18.065C76.306 18.065 76.2556 18.0513 76.2125 18.0307L75.9897 17.9072C75.9753 17.9141 75.9753 17.9072 75.9897 17.9004ZM76.1478 17.9209L76.2772 17.9895C76.3203 18.017 76.3635 18.0101 76.4138 17.9895L76.7085 17.8249C76.7516 17.7975 76.7516 17.7769 76.7085 17.7495L76.5791 17.6809C76.5575 17.6809 76.1478 17.9072 76.1478 17.9072C76.1406 17.9141 76.1406 17.9141 76.1478 17.9209Z" fill="#FFC440"/>
<path d="M76.7876 18.3591L76.4929 18.2013C76.4929 18.1876 77.0464 17.8789 77.0464 17.8789C77.0752 17.8789 77.3699 18.0367 77.3699 18.0367C77.3699 18.0504 77.3196 18.0778 77.3196 18.0778C77.2908 18.0778 77.0824 17.9612 77.0824 17.9612C77.0608 17.9612 76.9098 18.0435 76.9098 18.0435C76.9098 18.0573 77.0895 18.1533 77.0895 18.1533C77.0895 18.1739 77.0464 18.1945 77.0464 18.1945C77.0177 18.1945 76.838 18.0984 76.838 18.0984C76.8164 18.0984 76.6582 18.1876 76.6582 18.1876C76.6582 18.2013 76.8667 18.3111 76.8667 18.3111C76.8667 18.3248 76.8164 18.3522 76.8164 18.3522C76.8092 18.3591 76.7948 18.3591 76.7876 18.3591Z" fill="#FFC440"/>
<path d="M76.9313 18.4203L77.4848 18.1116C77.5135 18.1116 77.7292 18.2282 77.7292 18.2282C77.7723 18.2556 77.7939 18.2762 77.801 18.3036C77.801 18.3311 77.7795 18.3585 77.7364 18.3791L77.6932 18.4065C77.6429 18.434 77.5782 18.4408 77.5135 18.4203C77.5351 18.434 77.5423 18.4546 77.5423 18.4683C77.5423 18.4889 77.5207 18.5026 77.492 18.5232L77.4344 18.5575C77.3913 18.5849 77.341 18.5918 77.2907 18.5918C77.2404 18.5918 77.1972 18.578 77.1469 18.5575L76.9241 18.434C76.9241 18.434 76.9241 18.4271 76.9313 18.4203ZM77.3554 18.2968L77.4776 18.3654C77.5207 18.3928 77.571 18.3928 77.6142 18.3654L77.6573 18.3448C77.7004 18.3174 77.7004 18.2968 77.6573 18.2693L77.5351 18.2007C77.5135 18.2007 77.3626 18.2831 77.3626 18.2831C77.3482 18.2899 77.3482 18.2968 77.3554 18.2968ZM77.0894 18.4408L77.2188 18.5094C77.2619 18.5369 77.3122 18.5369 77.3554 18.5094L77.4129 18.4751C77.456 18.4477 77.456 18.4271 77.4057 18.3997L77.2835 18.3311C77.2619 18.3311 77.0966 18.4271 77.0966 18.4271C77.0822 18.434 77.0822 18.434 77.0894 18.4408Z" fill="#FFC440"/>
<path d="M78.0887 18.4404L77.5352 18.749C77.5065 18.749 77.449 18.7147 77.449 18.7147C77.449 18.701 78.0025 18.3923 78.0025 18.3923C78.0312 18.3923 78.0887 18.4266 78.0887 18.4266C78.0959 18.4335 78.0959 18.4335 78.0887 18.4404Z" fill="#FFC440"/>
<path d="M77.8156 18.9205L77.7581 18.8862C77.7581 18.8656 78.2397 18.5981 78.2397 18.5981C78.2397 18.5912 78.1247 18.5226 78.1247 18.5226C78.1247 18.502 78.1678 18.4814 78.1678 18.4814C78.1965 18.4814 78.5416 18.6667 78.5416 18.6667C78.5416 18.6872 78.4985 18.7078 78.4985 18.7078C78.4697 18.7078 78.3547 18.6461 78.3547 18.6461C78.3331 18.6461 77.8515 18.9136 77.8515 18.9136C77.8371 18.9273 77.8228 18.9273 77.8156 18.9205Z" fill="#FFC440"/>
<path d="M78.5055 19.3038L78.3977 19.2421C78.3546 19.2146 78.333 19.194 78.333 19.1666C78.333 19.1392 78.3546 19.1117 78.3977 19.0911L78.6996 18.9265C78.7427 18.8991 78.7931 18.8922 78.8434 18.8922C78.8937 18.8922 78.9368 18.9059 78.9871 18.9265L79.095 18.9882C79.1381 19.0157 79.1597 19.0363 79.1597 19.0637C79.1597 19.0911 79.1381 19.1186 79.095 19.1392L79.0518 19.1666C79.0159 19.1666 78.9584 19.1323 78.9584 19.1323C78.9584 19.1117 79.0015 19.0911 79.0015 19.0911C79.0447 19.0637 79.0447 19.0431 79.0015 19.0157L78.9224 18.9745C78.8793 18.9471 78.8362 18.9539 78.7859 18.9745L78.4912 19.1392C78.448 19.1666 78.448 19.1872 78.4912 19.2146L78.5702 19.2558C78.6134 19.2832 78.6565 19.2764 78.7068 19.2558L78.7499 19.2352C78.7787 19.2352 78.8362 19.2695 78.8362 19.2695C78.8362 19.2901 78.7931 19.3107 78.7931 19.3107C78.7499 19.3381 78.6996 19.345 78.6493 19.345C78.599 19.3381 78.5487 19.3244 78.5055 19.3038Z" fill="#FFC440"/>
<path d="M78.7932 19.461L78.7285 19.4267C78.7357 19.413 79.4473 19.1935 79.4473 19.1935C79.4617 19.1867 79.4761 19.1935 79.4833 19.2004L79.5767 19.2484C79.5839 19.269 79.1886 19.66 79.1886 19.66C79.1598 19.66 79.0951 19.6257 79.0951 19.6257C79.0951 19.6051 79.1814 19.5228 79.1814 19.5228L78.9801 19.413L78.8292 19.461C78.8076 19.461 78.8004 19.461 78.7932 19.461ZM79.4402 19.269L79.0664 19.3856L79.2317 19.4748L79.4402 19.269Z" fill="#FFC440"/>
<path d="M79.3323 19.7548L79.2748 19.7206C79.2748 19.7069 79.8283 19.3988 79.8283 19.3988C79.857 19.3988 80.0727 19.5152 80.0727 19.5152C80.1158 19.5426 80.1374 19.5631 80.1374 19.5905C80.1374 19.6179 80.1158 19.6453 80.0727 19.6658L79.9936 19.7069C79.9217 19.7479 79.8498 19.7548 79.778 19.7342L79.663 19.9122C79.6342 19.9191 79.5767 19.8849 79.5767 19.8849C79.5623 19.8575 79.6773 19.6932 79.6773 19.6932L79.5839 19.6453C79.5623 19.6453 79.361 19.7548 79.361 19.7548C79.3539 19.7616 79.3467 19.7616 79.3323 19.7548ZM79.6558 19.6042L79.7708 19.6658C79.8139 19.6932 79.857 19.6932 79.9074 19.6658L79.9864 19.6247C80.0296 19.5973 80.0296 19.5768 79.9864 19.5494L79.8714 19.4878C79.8498 19.4878 79.663 19.5905 79.663 19.5905C79.6486 19.5973 79.6486 19.6042 79.6558 19.6042Z" fill="#FFC440"/>
<path d="M79.7708 19.9813L80.3243 19.6726C80.353 19.6726 80.5831 19.7961 80.5831 19.7961C80.6262 19.8235 80.6477 19.8441 80.6477 19.8715C80.6477 19.899 80.6262 19.9264 80.5831 19.947L80.2811 20.1116C80.238 20.1391 80.1877 20.1459 80.1374 20.1459C80.0871 20.1459 80.0367 20.1322 79.9936 20.1116L79.7708 19.995C79.7636 19.9882 79.7636 19.9882 79.7708 19.9813ZM79.9289 20.0019L80.0583 20.0705C80.1014 20.0979 80.1446 20.0911 80.1949 20.0705L80.4896 19.9058C80.5327 19.8784 80.5327 19.8578 80.4896 19.8304L80.3602 19.7618C80.3386 19.7618 79.9289 19.9882 79.9289 19.9882C79.9217 19.995 79.9217 19.995 79.9289 20.0019Z" fill="#FFC440"/>
<defs>
<linearGradient id="paint0_linear_389_6452" x1="49.0254" y1="51.3659" x2="63.4279" y2="51.3659" gradientUnits="userSpaceOnUse">
<stop stop-color="#F0EFEC"/>
<stop offset="1" stop-color="#FFFEFB"/>
</linearGradient>
<linearGradient id="paint1_linear_389_6452" x1="54.7819" y1="46.1139" x2="56.2764" y2="48.832" gradientUnits="userSpaceOnUse">
<stop stop-color="#C2C1BF"/>
<stop offset="1" stop-color="#E3E2DF"/>
</linearGradient>
<linearGradient id="paint2_linear_389_6452" x1="50.9348" y1="64.5111" x2="49.4201" y2="64.5111" gradientUnits="userSpaceOnUse">
<stop stop-color="#D2D1CE"/>
<stop offset="1" stop-color="#B6B5B3"/>
</linearGradient>
<linearGradient id="paint3_linear_389_6452" x1="41.166" y1="61.8609" x2="76.5649" y2="61.8609" gradientUnits="userSpaceOnUse">
<stop stop-color="#F0EFEC"/>
<stop offset="1" stop-color="#F6F5F2"/>
</linearGradient>
<radialGradient id="paint4_radial_389_6452" cx="0" cy="0" r="1" gradientUnits="userSpaceOnUse" gradientTransform="translate(82.0603 50.029) scale(8.86413 8.44176)">
<stop stop-color="#FDFCF9"/>
<stop offset="1" stop-color="#D2D1CE"/>
</radialGradient>
<linearGradient id="paint5_linear_389_6452" x1="74.117" y1="29.7909" x2="75.4544" y2="32.2232" gradientUnits="userSpaceOnUse">
<stop offset="0.5025" stop-color="#F8F5F4"/>
<stop offset="1" stop-color="#E8E5E5"/>
</linearGradient>
<linearGradient id="paint6_linear_389_6452" x1="81.878" y1="35.722" x2="83.8586" y2="39.3242" gradientUnits="userSpaceOnUse">
<stop offset="0.5025" stop-color="#F8F5F4"/>
<stop offset="1" stop-color="#E8E5E5"/>
</linearGradient>
<linearGradient id="paint7_linear_389_6452" x1="69.0018" y1="22.6502" x2="89.2119" y2="22.6502" gradientUnits="userSpaceOnUse">
<stop stop-color="#AE5B27"/>
<stop offset="1" stop-color="#BE642D"/>
</linearGradient>
<linearGradient id="paint8_linear_389_6452" x1="69.1752" y1="20.0222" x2="86.3101" y2="24.8504" gradientUnits="userSpaceOnUse">
<stop stop-color="#E77731"/>
<stop offset="0.2865" stop-color="#EA7832"/>
<stop offset="0.4778" stop-color="#F27C35"/>
<stop offset="0.803" stop-color="#FFB338"/>
<stop offset="0.8128" stop-color="#F68D36"/>
</linearGradient>
<linearGradient id="paint9_linear_389_6452" x1="70.2425" y1="21.4277" x2="73.9378" y2="21.4277" gradientUnits="userSpaceOnUse">
<stop stop-color="#AE5B27"/>
<stop offset="1" stop-color="#BE642D"/>
</linearGradient>
</defs>
</svg>
