<svg width="100" height="79" viewBox="0 0 100 79" fill="none" xmlns="http://www.w3.org/2000/svg">
<path d="M23.8817 71.9116L59.6867 51.2773H72.5365L71.9012 49.8994H52.7239L51.7413 50.4996H40.5856L2.79004 72.2836H13.9203L12.2855 73.2895H34.3428L33.7075 71.9116H23.8817ZM55.4599 51.2857H58.9498L23.1363 71.9116H19.7142L55.4599 51.2857Z" fill="#D8D2C9"/>
<path d="M76.2467 53.5512L68.3098 48.978V48.42L76.2467 52.9932V53.5512Z" fill="url(#paint0_linear_389_106824)"/>
<path d="M78 52.5453L76.2466 53.5513V52.9934L78 51.9874V52.5453Z" fill="#C9C6C1"/>
<path d="M76.2466 52.9934L68.3097 48.4202L70.0631 47.4143L78 51.9875L76.2466 52.9934Z" fill="url(#paint1_linear_389_106824)"/>
<path opacity="0.8" d="M73.5361 49.4177H70.0377L71.5963 50.542L72.4349 50.7956H73.4259L73.5361 49.4177Z" fill="#B6B2AE"/>
<path d="M73.4259 50.8039L71.9859 49.9755V15.2919L73.7732 15.9259L73.4259 50.8039Z" fill="#B6B2AE"/>
<path d="M74.129 50.4066L73.4259 50.8039V16.1204L74.129 15.7146V50.4066Z" fill="#C9C6C1"/>
<path d="M73.4259 16.1204L71.9859 15.292L72.6805 14.8862L74.1289 15.7146L73.4259 16.1204Z" fill="#EFEAE5"/>
<path d="M33.0214 21.6742L70.1308 0.177612L75.3148 32.5619L38.2138 54.0585L33.0214 21.6742Z" fill="#E1DCD8"/>
<path d="M33.7498 22.0122L69.6311 1.22571L74.5948 32.2237L38.7136 53.0102L33.7498 22.0122Z" fill="#FFFBF9"/>
<path d="M32.5047 21.4966L69.6057 0L70.1309 0.177518L33.0214 21.6741L32.5047 21.4966Z" fill="#C9C6C1"/>
<path d="M33.0214 21.674L38.2138 54.0583L37.6887 53.8808L32.5047 21.4965L33.0214 21.674Z" fill="url(#paint2_linear_389_106824)"/>
<path d="M48.226 48.6565L68.6146 36.7966L68.6824 37.2193L48.2938 49.0792L48.226 48.6565Z" fill="#E1DCD8"/>
<path d="M47.2858 48.3272L67.666 36.4673L68.6147 36.797L48.2261 48.6568L47.2858 48.3272Z" fill="#C9C6C1"/>
<path d="M48.2261 48.6567L48.2938 49.0794L47.3536 48.7581L47.2858 48.327L48.2261 48.6567Z" fill="url(#paint3_linear_389_106824)"/>
<path d="M72.6212 41.1166C72.5619 41.0828 72.5111 41.0828 72.4687 41.0997L35.1729 62.5963V63.2725L72.7737 41.6069C72.8076 41.5816 72.833 41.5393 72.833 41.4717C72.833 41.3449 72.7398 41.1843 72.6212 41.1166Z" fill="url(#paint4_linear_389_106824)"/>
<path d="M38.0106 75.5885L30.0737 71.0153V70.4574L38.0106 75.0306V75.5885Z" fill="url(#paint5_linear_389_106824)"/>
<path d="M39.7555 74.5826L38.0106 75.5885V75.0306L39.7555 74.0247V74.5826Z" fill="#C9C6C1"/>
<path d="M38.0106 75.0305L30.0737 70.4573L31.8186 69.4514L39.7555 74.0246L38.0106 75.0305Z" fill="url(#paint6_linear_389_106824)"/>
<path opacity="0.8" d="M35.2915 71.4547H31.8016L33.3517 72.5705L34.1903 72.8326H35.1899L35.2915 71.4547Z" fill="#B6B2AE"/>
<path d="M35.1899 72.841L33.7415 72.0042V37.3206L35.5287 37.9545L35.1899 72.841Z" fill="#B6B2AE"/>
<path d="M35.8845 72.4353L35.1899 72.8411V38.1575L35.8845 37.7517V72.4353Z" fill="#C9C6C1"/>
<path d="M35.1899 38.1574L33.7415 37.3206L34.4445 36.9148L35.8845 37.7517L35.1899 38.1574Z" fill="#EFEAE5"/>
<path d="M34.6732 38.9352C34.6732 39.0705 34.5631 39.1127 34.4276 39.0366C34.2921 38.9606 34.1819 38.7831 34.1819 38.6478C34.1819 38.5125 34.2921 38.4703 34.4276 38.5464C34.5631 38.6309 34.6732 38.8 34.6732 38.9352Z" fill="#C9C6C1"/>
<path d="M50.2929 22.1979L50.8604 26.3569L54.4774 24.2689L54.0708 21.3525L50.2929 22.1979Z" fill="#D8CADC"/>
<path d="M54.8585 23.6349L51.1823 25.7566L51.1061 25.6298C50.8011 25.0888 50.6063 24.5055 50.5216 23.9223L50.2844 22.1978L53.9606 20.076L54.1978 21.8005C54.291 22.4345 54.5112 23.06 54.8585 23.6349Z" fill="#FF8FB7"/>
<path d="M56.5865 25.2749L57.1625 29.4338L60.7709 27.3544L60.3728 24.438L56.5865 25.2749Z" fill="#D8CADC"/>
<path d="M61.1521 26.7204L57.4759 28.8422L57.3996 28.7154C57.0947 28.1744 56.8999 27.5911 56.8152 27.0078L56.578 25.2834L60.2542 23.1616L60.4914 24.8861C60.593 25.5201 60.8133 26.1372 61.1521 26.7204Z" fill="#51A3FC"/>
<path d="M57.8571 15.4691L58.4246 19.6281L62.0415 17.5486L61.6349 14.6322L57.8571 15.4691Z" fill="#D8CADC"/>
<path d="M62.4227 16.9146L58.7464 19.0364L58.6702 18.9096C58.3653 18.3686 58.1705 17.7853 58.0857 17.2021L57.8486 15.4776L61.5248 13.3558L61.762 15.0803C61.8551 15.7143 62.0754 16.3314 62.4227 16.9146Z" fill="#89C61E"/>
<path d="M47.5908 32.0714L48.1583 36.2304L51.7752 34.1509L51.3686 31.2261L47.5908 32.0714Z" fill="#D8CADC"/>
<path d="M52.1564 33.5085L48.4802 35.6303L48.4039 35.5035C48.099 34.9625 47.9042 34.3792 47.8194 33.7959L47.5823 32.0715L51.2585 29.9497L51.4957 31.6742C51.5888 32.3082 51.8091 32.9337 52.1564 33.5085Z" fill="#89C61E"/>
<path d="M43.9146 19.2229L44.4821 23.3818L48.099 21.3024L47.7009 18.386L43.9146 19.2229Z" fill="#D8CADC"/>
<path d="M48.4802 20.6683L44.8039 22.7901L44.7277 22.6633C44.4228 22.1223 44.2279 21.539 44.1432 20.9557L43.9061 19.2313L47.5823 17.1095L47.8195 18.834C47.9211 19.4679 48.1413 20.085 48.4802 20.6683Z" fill="#FF6666"/>
<path d="M53.2914 11.7077L53.859 15.8667L57.4674 13.7872L57.0693 10.8708L53.2914 11.7077Z" fill="#D8CADC"/>
<path d="M57.8571 13.1532L54.1808 15.2749L54.1046 15.1481C53.7997 14.6071 53.6048 14.0239 53.5201 13.4406L53.283 11.7161L56.9592 9.59436L57.1964 11.3188C57.2895 11.9528 57.5098 12.5699 57.8571 13.1532Z" fill="#FF8FB7"/>
<path d="M65.3366 23.1361L65.9126 27.2951L69.5211 25.2071L69.1229 22.2908L65.3366 23.1361Z" fill="#D8CADC"/>
<path d="M69.9022 24.5732L66.226 26.695L66.1498 26.5682C65.8448 26.0272 65.65 25.4439 65.5653 24.8606L65.3281 23.1362L69.0043 21.0144L69.2415 22.7389C69.3432 23.3729 69.5634 23.9984 69.9022 24.5732Z" fill="#FF6666"/>
<path d="M35.1898 22.1979L35.7573 26.3569L39.3658 24.2689L38.9677 21.3525L35.1898 22.1979Z" fill="#D8CADC"/>
<path d="M39.7555 23.6349L36.0793 25.7566L36.003 25.6298C35.6981 25.0888 35.5033 24.5055 35.4186 23.9223L35.1814 22.1978L38.8576 20.076L39.0948 21.8005C39.188 22.4345 39.4082 23.06 39.7555 23.6349Z" fill="#FF8FB7"/>
<path d="M57.8571 33.0095L58.4246 37.1685L62.0415 35.0805L61.6349 32.1642L57.8571 33.0095Z" fill="#D8CADC"/>
<path d="M62.4227 34.4466L58.7464 36.5684L58.6702 36.4416C58.3653 35.9006 58.1705 35.3173 58.0857 34.734L57.8486 33.0096L61.5248 30.8878L61.762 32.6123C61.8551 33.2463 62.0754 33.8718 62.4227 34.4466Z" fill="#FF6666"/>
<path d="M42.3983 43.5258L42.9658 47.6848L46.5743 45.6053L46.1762 42.689L42.3983 43.5258Z" fill="#D8CADC"/>
<path d="M46.9639 44.9713L43.2877 47.093L43.2115 46.9662C42.9065 46.4252 42.7117 45.842 42.627 45.2587L42.3898 43.5342L46.066 41.4125L46.3032 43.1369C46.3964 43.7709 46.6166 44.388 46.9639 44.9713Z" fill="#89C61E"/>
<path d="M62.8038 7.50609L63.3714 11.6651L66.9883 9.58558L66.5902 6.66077L62.8038 7.50609Z" fill="#D8CADC"/>
<path d="M67.3694 8.94321L63.6932 11.065L63.617 10.9382C63.3121 10.3972 63.1172 9.81389 63.0325 9.23062L62.7953 7.50616L66.4716 5.3844L66.7087 7.10886C66.8104 7.74285 67.0306 8.36839 67.3694 8.94321Z" fill="#51A3FC"/>
<path d="M67.0052 30.1693L67.5812 34.3283L71.1897 32.2403L70.7916 29.324L67.0052 30.1693Z" fill="#D8CADC"/>
<path d="M71.5709 31.6064L67.8946 33.7282L67.8184 33.6014C67.5135 33.0604 67.3186 32.4771 67.2339 31.8938L66.9968 30.1694L70.673 28.0476L70.9102 29.7721C71.0118 30.4061 71.232 31.0316 71.5709 31.6064Z" fill="#FF8FB7"/>
<path d="M51.3856 39.9751L51.9616 44.1341L55.57 42.0546L55.1719 39.1298L51.3856 39.9751Z" fill="#D8CADC"/>
<path d="M55.9512 41.4121L52.275 43.5338L52.1987 43.407C51.8938 42.866 51.699 42.2828 51.6142 41.6995L51.3771 39.975L55.0533 37.8533L55.2905 39.5777C55.3921 40.2117 55.6123 40.8373 55.9512 41.4121Z" fill="#FFBD12"/>
<path d="M38.2139 36.7292L38.7814 40.8882L42.3983 38.8087L41.9917 35.8923L38.2139 36.7292Z" fill="#D8CADC"/>
<path d="M42.7795 38.1747L39.1033 40.2964L39.027 40.1696C38.7221 39.6286 38.5273 39.0453 38.4426 38.4621L38.2054 36.7376L41.8816 34.6158L42.1188 36.3403C42.212 36.9743 42.4322 37.5914 42.7795 38.1747Z" fill="#51A3FC"/>
<path d="M65.5314 14.4802L66.0989 18.6392L69.7158 16.5597L69.3092 13.6433L65.5314 14.4802Z" fill="#D8CADC"/>
<path d="M70.097 15.9256L66.4208 18.0474L66.3445 17.9206C66.0396 17.3796 65.8448 16.7963 65.7601 16.213L65.5229 14.4886L69.1991 12.3668L69.4363 14.0913C69.5295 14.7253 69.7497 15.3424 70.097 15.9256Z" fill="#FFBD12"/>
<path d="M40.1112 28.4197L40.6787 32.5787L44.2957 30.4992L43.8975 27.5743L40.1112 28.4197Z" fill="#D8CADC"/>
<path d="M44.6769 29.8567L41.0007 31.9784L40.9244 31.8516C40.6195 31.3106 40.4247 30.7273 40.34 30.1441L40.1028 28.4196L43.779 26.2979L44.0162 28.0223C44.1178 28.6563 44.3381 29.2818 44.6769 29.8567Z" fill="#FFBD12"/>
<defs>
<linearGradient id="paint0_linear_389_106824" x1="71.3032" y1="51.9649" x2="73.2553" y2="50.0086" gradientUnits="userSpaceOnUse">
<stop stop-color="#B6B2AE"/>
<stop offset="1" stop-color="#BCB8B4"/>
</linearGradient>
<linearGradient id="paint1_linear_389_106824" x1="68.3124" y1="50.2073" x2="77.9978" y2="50.2073" gradientUnits="userSpaceOnUse">
<stop stop-color="#E1DCD8"/>
<stop offset="1" stop-color="#EFEAE5"/>
</linearGradient>
<linearGradient id="paint2_linear_389_106824" x1="28.4549" y1="44.6636" x2="42.2312" y2="30.8592" gradientUnits="userSpaceOnUse">
<stop stop-color="#B6B2AE"/>
<stop offset="1" stop-color="#BCB8B4"/>
</linearGradient>
<linearGradient id="paint3_linear_389_106824" x1="47.5449" y1="48.9471" x2="48.0318" y2="48.4592" gradientUnits="userSpaceOnUse">
<stop stop-color="#B6B2AE"/>
<stop offset="1" stop-color="#BCB8B4"/>
</linearGradient>
<linearGradient id="paint4_linear_389_106824" x1="53.7504" y1="51.8937" x2="54.0436" y2="52.4026" gradientUnits="userSpaceOnUse">
<stop stop-color="#EAE5E1"/>
<stop offset="1" stop-color="#C9C6C1"/>
</linearGradient>
<linearGradient id="paint5_linear_389_106824" x1="33.0602" y1="73.999" x2="35.0124" y2="72.0429" gradientUnits="userSpaceOnUse">
<stop stop-color="#B6B2AE"/>
<stop offset="1" stop-color="#BCB8B4"/>
</linearGradient>
<linearGradient id="paint6_linear_389_106824" x1="30.0695" y1="72.2412" x2="39.7549" y2="72.2412" gradientUnits="userSpaceOnUse">
<stop stop-color="#E1DCD8"/>
<stop offset="1" stop-color="#EFEAE5"/>
</linearGradient>
</defs>
</svg>
