<svg width="100" height="79" viewBox="0 0 100 79" fill="none" xmlns="http://www.w3.org/2000/svg">
<mask id="path-1-inside-1_77_8583" fill="white">
<path fill-rule="evenodd" clip-rule="evenodd" d="M85 14.4012C85 13.77 84.4883 13.2583 83.8571 13.2583H16.1429C15.5117 13.2583 15 13.77 15 14.4012V62.4525C15 63.0837 15.5117 63.5954 16.1429 63.5954H83.8571C84.4883 63.5954 85 63.0837 85 62.4525V14.4012ZM81.0674 52.2278C81.0674 52.859 80.5557 53.3707 79.9246 53.3707H20.4687C19.8375 53.3707 19.3258 52.859 19.3258 52.2278V18.3337C19.3258 17.7026 19.8375 17.1909 20.4687 17.1909H79.9246C80.5557 17.1909 81.0674 17.7026 81.0674 18.3337V52.2278Z"/>
<path d="M19.3258 52.2278C19.3258 52.859 19.8375 53.3707 20.4687 53.3707H79.9246C80.5557 53.3707 81.0674 52.859 81.0674 52.2278V18.3337C81.0674 17.7026 80.5557 17.1909 79.9246 17.1909H20.4687C19.8375 17.1909 19.3258 17.7026 19.3258 18.3337V52.2278Z"/>
</mask>
<path fill-rule="evenodd" clip-rule="evenodd" d="M85 14.4012C85 13.77 84.4883 13.2583 83.8571 13.2583H16.1429C15.5117 13.2583 15 13.77 15 14.4012V62.4525C15 63.0837 15.5117 63.5954 16.1429 63.5954H83.8571C84.4883 63.5954 85 63.0837 85 62.4525V14.4012ZM81.0674 52.2278C81.0674 52.859 80.5557 53.3707 79.9246 53.3707H20.4687C19.8375 53.3707 19.3258 52.859 19.3258 52.2278V18.3337C19.3258 17.7026 19.8375 17.1909 20.4687 17.1909H79.9246C80.5557 17.1909 81.0674 17.7026 81.0674 18.3337V52.2278Z" fill="#147AD6"/>
<path d="M19.3258 52.2278C19.3258 52.859 19.8375 53.3707 20.4687 53.3707H79.9246C80.5557 53.3707 81.0674 52.859 81.0674 52.2278V18.3337C81.0674 17.7026 80.5557 17.1909 79.9246 17.1909H20.4687C19.8375 17.1909 19.3258 17.7026 19.3258 18.3337V52.2278Z" fill="#E5E6ED"/>
<path d="M20.4687 53.6564H79.9246V53.0849H20.4687V53.6564ZM81.3531 52.2278V18.3337H80.7817V52.2278H81.3531ZM79.9246 16.9052H20.4687V17.4766H79.9246V16.9052ZM19.0401 18.3337V52.2278H19.6116V18.3337H19.0401ZM20.4687 16.9052C19.6797 16.9052 19.0401 17.5448 19.0401 18.3337H19.6116C19.6116 17.8604 19.9953 17.4766 20.4687 17.4766V16.9052ZM81.3531 18.3337C81.3531 17.5448 80.7135 16.9052 79.9246 16.9052V17.4766C80.3979 17.4766 80.7817 17.8604 80.7817 18.3337H81.3531ZM79.9246 53.6564C80.7135 53.6564 81.3531 53.0168 81.3531 52.2278H80.7817C80.7817 52.7012 80.3979 53.0849 79.9246 53.0849V53.6564ZM20.4687 53.0849C19.9953 53.0849 19.6116 52.7012 19.6116 52.2278H19.0401C19.0401 53.0168 19.6797 53.6564 20.4687 53.6564V53.0849ZM16.1429 13.8297H83.8571V12.6869H16.1429V13.8297ZM84.4286 14.4012V62.4525H85.5714V14.4012H84.4286ZM83.8571 63.0239H16.1429V64.1668H83.8571V63.0239ZM15.5714 62.4525V14.4012H14.4286V62.4525H15.5714ZM16.1429 63.0239C15.8273 63.0239 15.5714 62.7681 15.5714 62.4525H14.4286C14.4286 63.3993 15.1961 64.1668 16.1429 64.1668V63.0239ZM84.4286 62.4525C84.4286 62.7681 84.1727 63.0239 83.8571 63.0239V64.1668C84.8039 64.1668 85.5714 63.3993 85.5714 62.4525H84.4286ZM83.8571 13.8297C84.1727 13.8297 84.4286 14.0856 84.4286 14.4012H85.5714C85.5714 13.4544 84.8039 12.6869 83.8571 12.6869V13.8297ZM16.1429 12.6869C15.1961 12.6869 14.4286 13.4544 14.4286 14.4012H15.5714C15.5714 14.0856 15.8273 13.8297 16.1429 13.8297V12.6869Z" fill="#1E2D56" mask="url(#path-1-inside-1_77_8583)"/>
<path d="M28.7656 52.2279V6.14286C28.7656 5.51168 29.2773 5 29.9085 5H50.0016H59.4398L71.2375 16.7978V52.2279C71.2375 52.8591 70.7259 53.3708 70.0947 53.3708H50.0016H29.9085C29.2773 53.3708 28.7656 52.8591 28.7656 52.2279Z" fill="#F5F5FB"/>
<path d="M50.0016 5H29.9085C29.2773 5 28.7656 5.51168 28.7656 6.14286V52.2279C28.7656 52.8591 29.2773 53.3708 29.9085 53.3708H50.0016M50.0016 5V53.3708M50.0016 5H59.4398M50.0016 53.3708H70.0947C70.7259 53.3708 71.2375 52.8591 71.2375 52.2279V16.7978M71.2375 16.7978L59.4398 5M71.2375 16.7978H60.5826C59.9515 16.7978 59.4398 16.2861 59.4398 15.6549V5" stroke="#1E2D56"/>
<path d="M60.223 43.9325H38.987C38.7698 43.9325 38.5938 43.7564 38.5938 43.5393C38.5938 43.3221 38.7698 43.146 38.987 43.146H60.223C60.4402 43.146 60.6162 43.3221 60.6162 43.5393C60.6162 43.7564 60.4402 43.9325 60.223 43.9325Z" fill="#1E2D56" stroke="#1E2D56" stroke-width="0.571429"/>
<path d="M61.0084 35.2807H53.1433C52.9261 35.2807 52.75 35.1046 52.75 34.8874C52.75 34.6702 52.9261 34.4941 53.1433 34.4941H61.0084C61.2256 34.4941 61.4017 34.6702 61.4017 34.8874C61.4017 35.1046 61.2256 35.2807 61.0084 35.2807Z" fill="#1E2D56" stroke="#1E2D56" stroke-width="0.571429"/>
<path d="M61.0084 28.202H53.1433C52.9261 28.202 52.75 28.026 52.75 27.8088C52.75 27.5916 52.9261 27.4155 53.1433 27.4155H61.0084C61.2256 27.4155 61.4017 27.5916 61.4017 27.8088C61.4017 28.026 61.2256 28.202 61.0084 28.202Z" fill="#1E2D56" stroke="#1E2D56" stroke-width="0.571429"/>
<path d="M46.8574 19.1574C45.6776 17.9776 41.745 16.4046 39.7787 19.1574C38.6951 20.6745 38.2057 23.8765 42.9248 25.4495C47.6439 27.0226 47.9998 28.5917 47.2506 31.3484C46.3896 34.5166 42.7675 36.3821 38.9922 32.9214M43.318 37.6405V14.8315" stroke="#5AB063" stroke-width="1.14286" stroke-linecap="round"/>
<path d="M61.4027 70.6739L59.4364 63.5952H40.56L38.5938 70.6739H61.4027Z" fill="#147AD6" stroke="#1E2D56" stroke-width="1.14286" stroke-linecap="round"/>
<rect x="34.6641" y="70.6743" width="30.6742" height="3.14607" rx="1.57303" fill="#1E2D56"/>
</svg>
