<svg width="100" height="79" viewBox="0 0 100 79" fill="none" xmlns="http://www.w3.org/2000/svg">
<path opacity="0.4" d="M6 76.7488L9.90659 78.9999H33.8799L41.082 56.5654L6 76.7488Z" fill="#ADA6A3"/>
<path d="M27.2814 42.2722C26.941 42.9506 23.367 50.4981 19.9169 58.3386C19.9091 58.3618 19.8936 58.3772 19.8782 58.3849L58.975 35.8425C58.9905 35.8348 59.006 35.8194 59.0137 35.7962C62.4716 27.9557 66.0456 20.4082 66.3782 19.7297L27.2814 42.2722Z" fill="#191715"/>
<path d="M68.9155 24.4788L66.9197 19.7298C66.8965 19.6835 66.8733 19.645 66.8501 19.6141C66.8268 19.5833 66.7959 19.5602 66.7727 19.5447L66.2621 19.2518C66.2157 19.2286 66.1693 19.2209 66.1306 19.2441L27.0338 41.7788C27.0647 41.7557 27.1111 41.7634 27.1653 41.7865L27.6758 42.0794C27.7068 42.0949 27.73 42.118 27.7532 42.1488C27.7841 42.1797 27.8073 42.2182 27.8228 42.2568C27.8228 42.2645 29.8187 47.0135 29.8187 47.0135C29.8651 47.1214 29.8496 47.2216 29.7954 47.2525L68.8923 24.7178C68.9465 24.6869 68.9619 24.5867 68.9155 24.4788Z" fill="#373431"/>
<path d="M29.8187 47.0135L27.8228 42.2645C27.7919 42.1874 27.73 42.118 27.6681 42.0795L27.1575 41.7865C27.0879 41.748 27.026 41.7557 26.9951 41.8173C26.9719 41.8559 23.336 49.4497 19.5764 57.9918C19.5377 58.0766 19.5842 58.223 19.677 58.3233C19.7002 58.3464 19.7234 58.3618 19.7389 58.3772C19.8085 58.4158 19.8781 58.4081 19.9091 58.3464C23.367 50.4982 26.9409 42.9506 27.2736 42.2799L27.5675 42.4495L29.8419 47.877C29.8805 47.9463 29.8728 47.1446 29.8187 47.0135Z" fill="#1E1B19"/>
<path d="M33.88 78.9998L33.3385 78.6914C32.5572 76.741 31.536 76.6407 30.0662 76.8103L29.7026 76.6022V46.7281L45.1511 42.6498L33.88 78.9998Z" fill="#1E1B19"/>
<path d="M33.88 49.1336L29.6949 46.7283L68.8227 24.2167L73 26.622L33.88 49.1336Z" fill="#373431"/>
<path d="M30.4839 46.7282L68.8227 24.6715L72.211 26.622L33.88 48.6787L30.4839 46.7282Z" fill="#191715"/>
<path d="M41.5771 62.3319L40.9427 61.9618V57.9452L41.5771 58.3152V62.3319Z" fill="#B6B5B3"/>
<path d="M46.5125 59.495L41.5771 62.3321V58.3155L46.5125 55.4784V59.495Z" fill="#E0DED7"/>
<path d="M41.5771 58.3154L40.9427 57.9454L45.8782 55.1083L46.5126 55.4783L41.5771 58.3154Z" fill="url(#paint0_linear_389_61694)"/>
<path d="M62.5489 50.2667L61.9146 49.8966V45.88L62.5489 46.2423V50.2667Z" fill="#B6B5B3"/>
<path d="M67.4766 47.4297L62.5489 50.2668V46.2424L67.4766 43.4131V47.4297Z" fill="#E0DED7"/>
<path d="M62.5489 46.2425L61.9146 45.8802L66.85 43.0431L67.4766 43.4131L62.5489 46.2425Z" fill="url(#paint1_linear_389_61694)"/>
<path d="M64.4829 46.3116L38.3048 62.833L36.5101 21.2714L62.6882 4.74231L64.4829 46.3116Z" fill="url(#paint2_linear_389_61694)"/>
<path d="M66.7418 46.7975L40.5328 61.6613L40.8035 18.8584L67.0125 3.99463L66.7418 46.7975Z" fill="url(#paint3_linear_389_61694)"/>
<path d="M65.2332 45.7414L38.9778 60.8442V18.1261L65.2332 3.02332V45.7414Z" fill="#F8F5F4"/>
<path d="M40.9582 24.0544L40.8112 24.1315V22.9905L40.9582 22.9135V24.0544Z" fill="#7B9FE1"/>
<path d="M40.9582 25.496L40.8112 25.5731V24.4398L40.9582 24.355V25.496Z" fill="#7B9FE1"/>
<path d="M40.9582 26.9376L40.8112 27.0147V25.8814L40.9582 25.7966V26.9376Z" fill="#7B9FE1"/>
<path d="M40.9582 28.3795L40.8112 28.4566V27.3233L40.9582 27.2385V28.3795Z" fill="#7B9FE1"/>
<path d="M40.9582 29.8212L40.8112 29.906V28.765L40.9582 28.6802V29.8212Z" fill="#7B9FE1"/>
<path d="M40.9582 31.2627L40.8112 31.3475V30.2065L40.9582 30.1217V31.2627Z" fill="#7B9FE1"/>
<path d="M50.7286 18.2723L41.2754 23.7074V22.8902L50.7286 17.4551V18.2723Z" fill="#44BFE5"/>
<path d="M49.7074 20.2998L41.2754 25.149V24.3318L49.7074 19.4749V20.2998Z" fill="#86B1FF"/>
<path d="M45.1124 24.3859L41.2754 26.5908V25.7736L45.1124 23.561V24.3859Z" fill="#86B1FF"/>
<path d="M48.0133 24.1545L41.2754 28.0323V27.2151L48.0133 23.3373V24.1545Z" fill="#97CC66"/>
<path d="M47.5878 25.843L41.2754 29.4741V28.6569L47.5878 25.0258V25.843Z" fill="#F25A5A"/>
<path d="M46.3114 28.0169L41.2754 30.9157V30.0985L46.3114 27.1997V28.0169Z" fill="#86B1FF"/>
<path d="M46.0252 23.4455C46.0252 23.5843 45.9246 23.7616 45.8008 23.831C45.677 23.9004 45.5765 23.8464 45.5765 23.6999C45.5765 23.5535 45.677 23.3839 45.8008 23.3145C45.9246 23.2528 46.0252 23.3068 46.0252 23.4455Z" fill="#86B1FF"/>
<path d="M48.9416 23.2143C48.9416 23.353 48.841 23.5304 48.7173 23.5997C48.5935 23.6691 48.4929 23.6152 48.4929 23.4687C48.4929 23.3299 48.5935 23.1526 48.7173 23.0832C48.841 23.0138 48.9416 23.0755 48.9416 23.2143Z" fill="#97CC66"/>
<path d="M48.5084 24.9259C48.5084 25.0647 48.4078 25.242 48.284 25.3114C48.1603 25.3808 48.0597 25.3268 48.0597 25.1804C48.0597 25.0339 48.1603 24.8643 48.284 24.7949C48.4078 24.7255 48.5084 24.7872 48.5084 24.9259Z" fill="#F25A5A"/>
<path d="M51.5795 17.3782C51.5795 17.517 51.4789 17.6943 51.3551 17.7637C51.2314 17.8331 51.1308 17.7791 51.1308 17.6326C51.1308 17.4862 51.2314 17.3165 51.3551 17.2472C51.4789 17.1778 51.5795 17.2317 51.5795 17.3782Z" fill="#44BFE5"/>
<path d="M47.2088 27.1155C47.2088 27.2543 47.1082 27.4316 46.9844 27.501C46.8606 27.5704 46.7601 27.5164 46.7601 27.3699C46.7601 27.2312 46.8606 27.0538 46.9844 26.9845C47.1082 26.9151 47.2088 26.969 47.2088 27.1155Z" fill="#86B1FF"/>
<path d="M50.6202 19.3597C50.6202 19.4984 50.5197 19.6758 50.3959 19.7451C50.2721 19.8145 50.1716 19.7606 50.1716 19.6141C50.1716 19.4753 50.2721 19.298 50.3959 19.2286C50.5197 19.1592 50.6202 19.2132 50.6202 19.3597Z" fill="#86B1FF"/>
<path d="M41.4069 40.8537L41.1671 40.9925V37.5541L41.4069 37.4153V40.8537Z" fill="#7B9FE1"/>
<path d="M41.6621 40.7072L41.3991 40.8537V37.7776L41.6621 37.6311V40.7072Z" fill="#2D6AD8"/>
<path d="M42.3816 40.2907L42.134 40.4372V37.1761L42.3816 37.0374V40.2907Z" fill="#7B9FE1"/>
<path d="M42.6369 40.1443L42.3738 40.2985V36.7599L42.6369 36.6057V40.1443Z" fill="#2D6AD8"/>
<path d="M43.3563 39.7357L43.1165 39.8745V35.7577L43.3563 35.6189V39.7357Z" fill="#7B9FE1"/>
<path d="M43.6115 39.5815L43.3485 39.7357V37.631L43.6115 37.4845V39.5815Z" fill="#2D6AD8"/>
<path d="M44.331 39.1729L44.0834 39.3117V35.5264L44.331 35.3799V39.1729Z" fill="#7B9FE1"/>
<path d="M44.5863 39.0265L44.3232 39.173V35.7037L44.5863 35.5573V39.0265Z" fill="#2D6AD8"/>
<path d="M47.2551 37.4923L47.0076 37.6311V33.7687L47.2551 33.6299V37.4923Z" fill="#7B9FE1"/>
<path d="M47.5104 37.3457L47.2474 37.4922V35.0637L47.5104 34.9172V37.3457Z" fill="#2D6AD8"/>
<path d="M48.2299 36.9296L47.9823 37.0683V33.9537L48.2299 33.8073V36.9296Z" fill="#7B9FE1"/>
<path d="M48.4851 36.783L48.2221 36.9295V34.3314L48.4851 34.1849V36.783Z" fill="#2D6AD8"/>
<path d="M49.2046 36.3667L48.957 36.5055V31.7102L49.2046 31.5637V36.3667Z" fill="#7B9FE1"/>
<path d="M49.4599 36.2202L49.1968 36.3744V32.1651L49.4599 32.0109V36.2202Z" fill="#2D6AD8"/>
<path d="M50.1793 35.8039L49.9318 35.9504V31.5946L50.1793 31.4558V35.8039Z" fill="#7B9FE1"/>
<path d="M50.4346 35.6574L50.1716 35.8116V32.0109L50.4346 31.8644V35.6574Z" fill="#2D6AD8"/>
<path d="M51.154 35.2491L50.9064 35.3878V32.2578L51.154 32.119V35.2491Z" fill="#7B9FE1"/>
<path d="M51.4093 35.1024L51.1462 35.2489V31.7025L51.4093 31.5483V35.1024Z" fill="#2D6AD8"/>
<path d="M45.3057 38.6102L45.0582 38.7489V37.3998L45.3057 37.2533V38.6102Z" fill="#7B9FE1"/>
<path d="M45.561 38.4636L45.298 38.6178V36.2356L45.561 36.0891V38.4636Z" fill="#2D6AD8"/>
<path d="M46.2804 38.0474L46.0329 38.1939V36.837L46.2804 36.6982V38.0474Z" fill="#7B9FE1"/>
<path d="M46.5357 37.901L46.2727 38.0552V37.0761L46.5357 36.9219V37.901Z" fill="#2D6AD8"/>
<path d="M51.6723 35.1795L40.8344 41.4164V41.162L51.6723 34.925V35.1795Z" fill="#7B9FE1"/>
<path d="M53.3819 33.9617L53.1421 34.1005V32.2116L53.3819 32.0729V33.9617Z" fill="#7B9FE1"/>
<path d="M53.6372 33.8152L53.3741 33.9694V32.4352L53.6372 32.2887V33.8152Z" fill="#2D6AD8"/>
<path d="M54.3566 33.4066L54.1091 33.5453V32.8283L54.3566 32.6896V33.4066Z" fill="#7B9FE1"/>
<path d="M54.6119 33.2601L54.3489 33.4066V32.4121L54.6119 32.2656V33.2601Z" fill="#2D6AD8"/>
<path d="M55.3313 32.8438L55.0915 32.9825V30.8008L55.3313 30.662V32.8438Z" fill="#7B9FE1"/>
<path d="M55.5866 32.6972L55.3235 32.8437V31.7875L55.5866 31.6333V32.6972Z" fill="#2D6AD8"/>
<path d="M56.306 32.2809L56.0585 32.4197V31.6719L56.306 31.5254V32.2809Z" fill="#7B9FE1"/>
<path d="M56.5613 32.1345L56.2983 32.281V31.0475L56.5613 30.901V32.1345Z" fill="#2D6AD8"/>
<path d="M59.2302 30.6004L58.9827 30.7392V26.7534L59.2302 26.6146V30.6004Z" fill="#7B9FE1"/>
<path d="M59.4855 30.454L59.2225 30.6005V26.9924L59.4855 26.8383V30.454Z" fill="#2D6AD8"/>
<path d="M60.2049 30.0376L59.9573 30.1764V25.1113L60.2049 24.9725V30.0376Z" fill="#7B9FE1"/>
<path d="M60.4602 29.8912L60.1971 30.0454V25.2193L60.4602 25.0651V29.8912Z" fill="#2D6AD8"/>
<path d="M61.1796 29.4749L60.9321 29.6213V25.8977L61.1796 25.7589V29.4749Z" fill="#7B9FE1"/>
<path d="M61.4349 29.3283L61.1719 29.4825V26.2291L61.4349 26.0826V29.3283Z" fill="#2D6AD8"/>
<path d="M62.1543 28.9197L61.9068 29.0585V26.1828L62.1543 26.0441V28.9197Z" fill="#7B9FE1"/>
<path d="M62.4096 28.7731L62.1466 28.9196V26.599L62.4096 26.4448V28.7731Z" fill="#2D6AD8"/>
<path d="M63.129 28.3568L62.8815 28.4956V27.0693L63.129 26.9305V28.3568Z" fill="#7B9FE1"/>
<path d="M63.3843 28.2103L63.1213 28.3568V27.1001L63.3843 26.9459V28.2103Z" fill="#2D6AD8"/>
<path d="M57.2808 31.7184L57.0332 31.8649V29.4826L57.2808 29.3439V31.7184Z" fill="#7B9FE1"/>
<path d="M57.536 31.5718L57.273 31.726V28.9661L57.536 28.8196V31.5718Z" fill="#2D6AD8"/>
<path d="M58.2555 31.1631L58.0079 31.3019V29.0122L58.2555 28.8734V31.1631Z" fill="#7B9FE1"/>
<path d="M58.5108 31.0167L58.2477 31.1632V29.2512L58.5108 29.097V31.0167Z" fill="#2D6AD8"/>
<path d="M63.6551 28.2874L52.8094 34.532V34.2776L63.6551 28.033V28.2874Z" fill="#7B9FE1"/>
<path d="M62.2472 11.1105C60.7078 9.76907 57.8919 11.0257 55.958 13.909C54.024 16.7924 53.7068 20.2154 55.2463 21.5568C56.7857 22.8983 59.6015 21.6416 61.5355 18.7583C63.4617 15.8749 63.7866 12.452 62.2472 11.1105ZM60.3055 17.6944C59.2225 19.3134 57.6444 20.0149 56.778 19.2594C55.9115 18.5039 56.0972 16.5842 57.1802 14.9652C58.2632 13.3463 59.8413 12.6447 60.7078 13.4002C61.5742 14.1557 61.3962 16.0754 60.3055 17.6944Z" fill="#2D6AD8"/>
<path d="M61.3343 18.581C63.129 15.9059 63.4307 12.7219 61.9996 11.4806C60.5685 10.2394 57.9538 11.3958 56.1591 14.0787C54.3644 16.7539 54.0627 19.9379 55.4938 21.1791C56.9249 22.428 59.5396 21.2639 61.3343 18.581ZM56.6774 14.5336C58.1085 12.3981 60.1972 11.4652 61.3421 12.4597C62.487 13.4542 62.2472 15.9907 60.8083 18.1339C59.3772 20.2694 57.2885 21.2022 56.1436 20.2077C55.0064 19.2132 55.2462 16.6691 56.6774 14.5336Z" fill="#2D6AD8"/>
<path d="M61.2183 12.3904C61.2183 12.3827 61.5742 12.6988 61.667 12.8376L62.4096 11.9664C62.2936 11.7814 61.9068 11.3419 61.8372 11.2802C61.4427 11.049 60.8625 10.8948 60.3519 10.995L60.0425 12.0666C60.4215 12.0358 60.9089 12.2131 61.2183 12.3904Z" fill="#86B1FF"/>
<path d="M57.2034 13.8706L57.2885 13.7704C58.1162 12.8529 59.0987 12.1899 59.9342 12.082L60.2436 11.0104C59.1993 11.1491 58.1162 11.7274 56.9327 13.0071C56.9327 13.0071 56.2751 13.7781 56.1978 14.0171L56.7161 14.4719C56.8862 14.2252 57.0332 14.0787 57.2034 13.8706Z" fill="#F25A5A"/>
<path d="M61.3344 17.2243L61.9919 17.4556C62.5876 16.2606 62.897 15.0348 62.9047 13.9786V13.7242C62.8815 13.0843 62.7345 12.5138 62.4715 12.0513L61.7289 12.9224C61.9377 13.2848 62.0461 13.7319 62.0693 14.233L62.046 14.6648C62.0383 14.6648 62.0151 15.7672 61.3344 17.2243Z" fill="#97CC66"/>
<path d="M56.3757 21.6264L56.8553 20.5471C56.6 20.4854 56.3524 20.3852 56.1513 20.2001C55.4706 19.6065 55.2772 18.4655 55.5402 17.1857L55.664 16.7C55.8651 15.9985 56.19 15.2815 56.6387 14.5954L56.1204 14.1405C55.5325 15.0348 55.107 15.9831 54.8594 16.8928L54.7357 17.1549L54.7434 17.3862C54.4108 18.9975 54.6506 20.4314 55.5015 21.1715C55.7491 21.4028 56.0508 21.5493 56.3757 21.6264Z" fill="#44BFE5"/>
<path d="M61.3962 18.635C63.2296 15.8982 63.5391 12.6371 62.077 11.365C60.6149 10.093 57.9306 11.2879 56.0972 14.0248C54.2638 16.7616 53.9544 20.0227 55.4164 21.2948C56.8785 22.5668 59.5551 21.3796 61.3962 18.635ZM56.1591 14.0787C57.9538 11.4036 60.5685 10.2394 61.9996 11.4807C63.4307 12.7219 63.1291 15.9059 61.3343 18.5811C59.5396 21.2562 56.9249 22.4204 55.4938 21.1791C54.0627 19.9379 54.3644 16.7539 56.1591 14.0787Z" fill="#2D6AD8"/>
<path d="M60.8083 18.134C62.2394 15.9985 62.4792 13.4544 61.3421 12.4599C60.1972 11.4654 58.1085 12.3905 56.6774 14.5337C55.2462 16.6692 55.0064 19.2134 56.1436 20.2079C57.2885 21.2024 59.3772 20.2695 60.8083 18.134ZM56.7392 14.5877C58.1317 12.5138 60.1585 11.6118 61.2647 12.5755C62.3709 13.5392 62.1388 16.0062 60.7464 18.0801C59.354 20.1539 57.3272 21.0559 56.2209 20.0922C55.1225 19.1286 55.3468 16.6615 56.7392 14.5877Z" fill="#2D6AD8"/>
<path d="M61.3266 18.581C61.5355 18.2726 61.7289 17.9411 61.9068 17.6096L61.2725 17.3706C61.1332 17.6404 60.9785 17.8948 60.8238 18.1338C59.7176 19.7837 58.1472 20.7705 56.9559 20.5854L56.484 21.6339C57.9616 21.8883 59.9342 20.6548 61.3266 18.581Z" fill="#86B1FF"/>
<path d="M48.8797 39.2733L40.8267 43.9066V42.5883L48.8797 37.955V39.2733Z" fill="#2D6AD8"/>
<path d="M41.577 43.4748L40.8267 43.9065V42.5882L41.577 42.1565V43.4748Z" fill="#F25A5A"/>
<path d="M56.221 35.0484L48.168 39.6818V38.3635L56.221 33.7301V35.0484Z" fill="#2D6AD8"/>
<path d="M48.9106 39.25L48.168 39.6817V38.3634L48.9106 37.9316V39.25Z" fill="#97CC66"/>
<path d="M63.5623 30.8236L55.5093 35.4569V34.1386L63.5623 29.5052V30.8236Z" fill="#2D6AD8"/>
<path d="M56.2519 35.033L55.5093 35.4571V34.1387L56.2519 33.7147V35.033Z" fill="#44BFE5"/>
<path d="M41.1825 33.2597C41.1825 33.4216 41.0665 33.6221 40.9195 33.7069C40.7725 33.7917 40.6565 33.7223 40.6565 33.5604C40.6565 33.3985 40.7725 33.1981 40.9195 33.1133C41.0665 33.0285 41.1825 33.0901 41.1825 33.2597Z" fill="#7B9FE1"/>
<path d="M41.1825 34.7092C41.1825 34.8711 41.0665 35.0716 40.9195 35.1564C40.7725 35.2412 40.6565 35.1718 40.6565 35.0099C40.6565 34.848 40.7725 34.6476 40.9195 34.5628C41.0665 34.4779 41.1825 34.5473 41.1825 34.7092Z" fill="#7B9FE1"/>
<path d="M53.6681 26.0744C53.6681 26.2363 53.5521 26.4368 53.4051 26.5216C53.2581 26.6064 53.1421 26.537 53.1421 26.3751C53.1421 26.2132 53.2581 26.0128 53.4051 25.928C53.5521 25.8431 53.6681 25.9048 53.6681 26.0744Z" fill="#7B9FE1"/>
<path d="M53.6681 27.5239C53.6681 27.6858 53.5521 27.8863 53.4051 27.9711C53.2581 28.0559 53.1421 27.9865 53.1421 27.8246C53.1421 27.6627 53.2581 27.4623 53.4051 27.3774C53.5521 27.2926 53.6681 27.362 53.6681 27.5239Z" fill="#7B9FE1"/>
<path d="M47.6497 29.8521L48.4001 29.4203V29.3047L47.6497 29.7364V29.8521ZM44.2923 31.7794L45.9788 30.808V30.6924L44.2923 31.6638V31.7794ZM46.1103 30.7387L47.5182 29.9292V29.8135L46.1103 30.623V30.7387ZM44.1608 31.8565V31.7409L41.7782 33.1132V33.2288L44.1608 31.8565ZM48.5316 29.3433L49.5991 28.7265V28.6109L48.5316 29.2276V29.3433ZM41.7859 32.774L42.575 32.3191V32.2035L41.7859 32.6583V32.774ZM48.7714 28.6494V28.765L49.7074 28.2254V28.1097L48.7714 28.6494ZM46.9457 29.8135L48.6399 28.8421V28.7265L46.9457 29.6979V29.8135ZM46.0638 30.3224L46.8142 29.8906V29.775L46.0638 30.2067V30.3224ZM44.9963 30.9314L45.9323 30.3917V30.2761L44.9963 30.8158V30.9314ZM42.7065 32.2497L44.8571 31.0085V30.8929L42.7065 32.1341V32.2497Z" fill="#7B9FE1"/>
<path d="M46.118 31.5405V31.6561L47.5259 30.8467V30.731L46.118 31.5405ZM45.9865 31.7332V31.6176L44.3001 32.589V32.7046L45.9865 31.7332ZM46.0019 32.057V32.1727L46.938 31.633V31.5174L46.0019 32.057ZM47.0618 31.4403V31.5559L47.8121 31.1242V31.0086L47.0618 31.4403ZM49.6455 29.9601L47.9514 30.9315V31.0471L49.6455 30.0757V29.9601ZM43.5806 33.5604V33.4447L41.7704 34.4855V34.6012L43.5806 33.5604ZM49.2046 29.7673L47.6574 30.6539V30.7696L49.2046 29.883V29.7673ZM44.1763 32.774V32.6584L41.7704 34.0384V34.154L44.1763 32.774ZM49.3361 29.6902V29.8059L50.2412 29.2893V29.1737L49.3361 29.6902ZM45.8627 32.2421V32.1264L43.7121 33.3676V33.4833L45.8627 32.2421Z" fill="#7B9FE1"/>
<path d="M56.7857 24.5558L58.4721 23.5844V23.4688L56.7857 24.4402V24.5558ZM58.6036 23.515L60.0115 22.7055V22.5899L58.6036 23.3994V23.515ZM56.6542 24.6329V24.5173L54.2715 25.8895V26.0052L56.6542 24.6329ZM54.2793 25.558L55.0683 25.1032V24.9875L54.2793 25.4424V25.558ZM61.2647 21.4258V21.5414L62.2008 21.0017V20.8861L61.2647 21.4258ZM59.4391 22.5899L61.1332 21.6185V21.5029L59.4391 22.4743V22.5899ZM58.5495 23.0987L59.2998 22.667V22.5513L58.5495 22.9831V23.0987ZM57.4819 23.7155L58.4179 23.1758V23.0602L57.4819 23.5998V23.7155ZM55.1998 25.0261L57.3504 23.7849V23.6692L55.1998 24.9104V25.0261Z" fill="#7B9FE1"/>
<path d="M59.6016 23.8311V23.9467L61.0095 23.1372V23.0293L59.6016 23.8311Z" fill="#7B9FE1"/>
<path d="M57.9229 25.2496V25.3576L58.8589 24.8256V24.71L57.9229 25.2496Z" fill="#7B9FE1"/>
<path d="M59.47 23.9082L57.7913 24.8796V24.9875L59.47 24.0238V23.9082Z" fill="#7B9FE1"/>
<path d="M60.437 23.8003L58.9904 24.6329V24.7486L60.437 23.9082V23.8003Z" fill="#7B9FE1"/>
<path d="M57.6598 25.0645V24.9565L54.2638 26.907V27.0227L57.6598 25.0645Z" fill="#7B9FE1"/>
<path d="M61.141 22.9521V23.06L61.8914 22.6283V22.5204L61.141 22.9521Z" fill="#7B9FE1"/>
<path d="M55.5016 26.7528V26.6372L54.287 27.3388V27.4544L55.5016 26.7528Z" fill="#7B9FE1"/>
<path d="M57.7913 25.3267L55.6331 26.5602V26.6758L57.7913 25.4346V25.3267Z" fill="#7B9FE1"/>
<path d="M62.0228 22.4441V22.5522L62.6649 22.1891V22.0732L62.0228 22.4441Z" fill="#7B9FE1"/>
<path d="M47.7503 18.0104V17.8563L50.891 16.0445V16.1987L47.7503 18.0104ZM46.9225 18.4961V18.342L47.5027 18.0104V18.1646L46.9225 18.4961ZM43.248 20.6008V20.4466L46.6672 18.4807V18.6349L43.248 20.6008ZM40.8112 22.0117V21.8575L43.0005 20.6008V20.755L40.8112 22.0117ZM49.2433 16.0985L52.384 14.2868V14.441L49.2433 16.2527V16.0985ZM52.6393 14.1403L53.9699 13.3771V13.5313L52.6393 14.3022V14.1403ZM48.4078 16.7307V16.5765L48.988 16.245V16.3992L48.4078 16.7307ZM44.741 18.8431V18.6889L48.1603 16.723V16.8772L44.741 18.8431ZM40.8112 21.1096V20.9555L44.4935 18.8354V18.9895L40.8112 21.1096ZM61.6438 8.24258V8.08839L63.4927 7.02449V7.17868L61.6438 8.24258ZM59.1297 9.69196V9.53777L61.3963 8.23487V8.38906L59.1297 9.69196ZM57.598 10.5785V10.4244L58.8821 9.68425V9.83844L57.598 10.5785ZM55.107 12.0125V11.8583L57.3427 10.5708V10.7327L55.107 12.0125ZM52.825 13.3231V13.1612L54.8595 11.9894V12.1436L52.825 13.3231ZM50.1252 14.8727V14.7108L52.5697 13.3077V13.4619L50.1252 14.8727ZM47.4563 16.4069V16.245L49.8699 14.8573V15.0192L47.4563 16.4069ZM44.1067 18.3342V18.1723L47.2087 16.3915V16.5534L44.1067 18.3342ZM40.8112 20.2385V20.0766L43.8591 18.3265V18.4807L40.8112 20.2385ZM58.4334 9.22168V9.06749L63.5004 6.15332V6.30751L58.4334 9.22168ZM55.9115 10.6711V10.5169L58.1781 9.21397V9.36816L55.9115 10.6711ZM53.204 12.2284V12.0742L55.664 10.6556V10.8175L53.204 12.2284ZM51.8889 12.9839V12.8297L52.9487 12.2207V12.3748L51.8889 12.9839ZM50.3031 13.9013V13.7471L51.6336 12.9839V13.1304L50.3031 13.9013ZM46.9071 15.8518V15.6976L50.0478 13.8859V14.0401L46.9071 15.8518ZM46.0716 16.3298V16.1756L46.6518 15.8441V15.9983L46.0716 16.3298ZM42.4048 18.4422V18.288L45.824 16.3221V16.4763L42.4048 18.4422ZM40.8112 19.3596V19.2054L42.1573 18.4345V18.5887L40.8112 19.3596Z" fill="#7B9FE1"/>
<path d="M57.83 33.2292L56.6155 33.9231V33.7766L57.83 33.0828V33.2292Z" fill="#E1E9F4"/>
<path d="M58.534 32.8287L58.0311 33.1145V32.9678L58.534 32.6742V32.8287Z" fill="#E1E9F4"/>
<path d="M57.2808 34.1775L56.6155 34.563V34.4088L57.2808 34.031V34.1775Z" fill="#E1E9F4"/>
<path d="M58.9672 33.2061L57.4742 34.0618V33.9153L58.9672 33.0596V33.2061Z" fill="#E1E9F4"/>
<path d="M59.9883 32.6201L59.1683 33.0904V32.9439L59.9883 32.4736V32.6201Z" fill="#E1E9F4"/>
<path d="M50.5583 37.4154L49.3438 38.1093V37.9628L50.5583 37.2612V37.4154Z" fill="#E1E9F4"/>
<path d="M51.2623 37.0069L50.7517 37.3004V37.1537L51.2623 36.8601V37.0069Z" fill="#E1E9F4"/>
<path d="M50.0091 38.3635L49.3438 38.7413V38.5948L50.0091 38.217V38.3635Z" fill="#E1E9F4"/>
<path d="M51.6955 37.3921L50.2025 38.2478V38.1014L51.6955 37.2456V37.3921Z" fill="#E1E9F4"/>
<path d="M52.7166 36.8062L51.8966 37.2764V37.13L52.7166 36.652V36.8062Z" fill="#E1E9F4"/>
<path d="M43.2867 41.6015L42.0721 42.2953V42.1488L43.2867 41.4473V41.6015Z" fill="#E1E9F4"/>
<path d="M43.9906 41.193L43.48 41.4866V41.3321L43.9906 41.0463V41.193Z" fill="#E1E9F4"/>
<path d="M42.7374 42.5497L42.0721 42.9275V42.781L42.7374 42.3955V42.5497Z" fill="#E1E9F4"/>
<path d="M44.4239 41.5784L42.9308 42.4341V42.2877L44.4239 41.4242V41.5784Z" fill="#E1E9F4"/>
<path d="M45.445 40.9923L44.625 41.4626V41.3084L45.445 40.8381V40.9923Z" fill="#E1E9F4"/>
<path d="M73 56.4883L33.8799 78.9999V49.1335L73 26.6219V56.4883Z" fill="#2D2B29"/>
<defs>
<linearGradient id="paint0_linear_389_61694" x1="40.9462" y1="56.7117" x2="46.5088" y2="56.7117" gradientUnits="userSpaceOnUse">
<stop stop-color="#F0EFEC"/>
<stop offset="1" stop-color="#F7F6F3"/>
</linearGradient>
<linearGradient id="paint1_linear_389_61694" x1="61.9169" y1="44.6457" x2="67.4795" y2="44.6457" gradientUnits="userSpaceOnUse">
<stop stop-color="#F0EFEC"/>
<stop offset="1" stop-color="#F7F6F3"/>
</linearGradient>
<linearGradient id="paint2_linear_389_61694" x1="55.0892" y1="43.3017" x2="42.0236" y2="16.0584" gradientUnits="userSpaceOnUse">
<stop stop-color="#DEDBD9"/>
<stop offset="1" stop-color="#F8F5F4"/>
</linearGradient>
<linearGradient id="paint3_linear_389_61694" x1="53.3876" y1="34.5179" x2="61.0715" y2="0.612091" gradientUnits="userSpaceOnUse">
<stop stop-color="#DEDBD9"/>
<stop offset="1" stop-color="#F8F5F4"/>
</linearGradient>
</defs>
</svg>
