<svg width="100" height="79" viewBox="0 0 100 79" fill="none" xmlns="http://www.w3.org/2000/svg">
<g opacity="0.4">
<g opacity="0.4">
<path opacity="0.4" d="M76.5659 72.1996C76.6568 72.1996 76.8384 72.2879 76.9292 72.2879L56.3118 60.6322C56.221 60.5439 56.1302 60.5439 55.9485 60.5439C55.4944 60.4556 54.7678 60.6322 53.9504 60.8088L48.7733 57.8948C48.9549 57.8065 49.1366 57.7182 49.3182 57.6299C59.0366 52.1552 58.9458 43.2368 49.2274 37.7621C44.1412 34.9365 37.4201 33.5237 30.7898 33.7003C24.1595 33.612 17.4385 34.9365 12.3522 37.7621C2.81553 43.3251 2.81553 52.1552 12.6247 57.6299C17.7109 60.4556 24.432 61.8684 31.0623 61.6918C35.4219 61.7801 39.7816 61.2503 43.6871 60.014L49.4999 63.2812C49.3182 63.4578 49.1366 63.7227 48.9549 63.8993C48.7733 64.2525 48.7733 64.5174 49.0458 64.6057L69.5724 76.1732C69.6632 76.2615 69.754 76.2615 69.9357 76.2615C71.0256 76.4381 73.387 75.6434 75.2036 74.4954C76.1118 73.8773 76.7476 73.3475 77.0201 72.906C77.2017 72.5528 77.1109 72.2879 76.5659 72.1996ZM31.0623 61.5152C25.0678 61.4269 19.0733 60.1023 14.532 57.4533C4.99534 52.0669 4.90451 43.3251 14.4412 37.9388C18.9825 35.378 24.8862 34.0535 30.8806 33.9652C36.8751 34.0535 42.8696 35.378 47.4109 37.9388C56.9476 43.3251 57.0384 52.0669 47.5017 57.4533C42.9605 60.1023 37.0568 61.4269 31.0623 61.5152Z" fill="#ADA6A3"/>
</g>
<path opacity="0.4" d="M8.90091 42.0005L0 46.9454L45.9578 72.8176H50.9532L8.90091 42.0005Z" fill="#ADA6A3"/>
</g>
<path d="M51.0443 72.8177L4.0874 46.4156V42.0889L51.0443 51.0956V72.8177Z" fill="#D2CFCC"/>
<path d="M84.2866 54.0978L51.0444 72.8176V51.0955L84.2866 49.771V54.0978Z" fill="#E9E6E6"/>
<path d="M84.2864 49.7708L51.0443 68.4906L4.0874 42.0886L37.3296 23.457L84.2864 49.7708Z" fill="#F8F5F4"/>
<path d="M39.0556 39.8813L38.329 39.9696L38.6923 40.2345L32.5161 43.6782L32.8794 43.8548L39.0556 40.4111L39.328 40.5877L39.5097 40.1462L39.6913 39.793L39.0556 39.8813Z" fill="#86B1FF"/>
<path d="M37.0576 45.0026L37.2393 44.6494L37.5118 44.826L43.6879 41.2939L44.0512 41.4705L37.8751 45.0026L38.1475 45.1792L37.5118 45.2675L36.876 45.3558L37.0576 45.0026Z" fill="#2D6AD8"/>
<path d="M28.7017 47.6518L28.8833 48.0933L29.2466 47.8284L34.1512 50.654L34.4237 50.4774L29.5191 47.6518L29.7916 47.4752L29.1558 47.3869L28.52 47.2986L28.7017 47.6518Z" fill="#2D6AD8"/>
<path d="M47.3211 37.7621L46.6853 37.6738L47.0486 37.4972L42.0532 34.7599L42.4165 34.5833L47.3211 37.3206L47.5936 37.144L47.7752 37.4972L47.9569 37.8504L47.3211 37.7621Z" fill="#86B1FF"/>
<path d="M33.5146 44.0317L22.7972 50.0362L17.8018 47.2105L28.5192 41.2061L33.5146 44.0317Z" fill="#86B1FF"/>
<path d="M51.5888 33.8769L40.8714 39.8814L35.7852 37.0557L46.5026 31.0513L51.5888 33.8769Z" fill="#86B1FF"/>
<path d="M29.7907 41.9125L28.5192 41.2061L17.8018 47.2105L19.0733 47.9169L29.7907 41.9125Z" fill="#2D6AD8"/>
<path d="M47.7741 31.7577L46.5026 31.0513L35.7852 37.0557L37.1475 37.7622L47.7741 31.7577Z" fill="#2D6AD8"/>
<path d="M40.7807 48.0935L30.0633 54.0979L25.0679 51.2723L35.6945 45.2678L40.7807 48.0935Z" fill="#86B1FF"/>
<path d="M58.7641 37.9387L48.1375 43.9432L43.0513 41.1175L53.7687 35.113L58.7641 37.9387Z" fill="#86B1FF"/>
<path d="M37.0569 45.9742L35.6945 45.2678L25.0679 51.2723L26.3394 51.9787L37.0569 45.9742Z" fill="#2D6AD8"/>
<path d="M55.0402 35.9077L53.7687 35.113L43.0513 41.1175L44.4137 41.9122L55.0402 35.9077Z" fill="#2D6AD8"/>
<path d="M38.9649 58.8658L38.7833 58.9541L37.5117 58.2477L37.6934 58.1594L38.9649 58.8658Z" fill="#7B9FE1"/>
<path d="M40.5089 59.7486L40.3272 59.8369L39.1465 59.1305L39.3281 59.0422L40.5089 59.7486Z" fill="#7B9FE1"/>
<path d="M42.1436 60.6319L41.962 60.7202L40.6904 60.0138L40.8721 59.9255L42.1436 60.6319Z" fill="#7B9FE1"/>
<path d="M43.6876 61.5148L43.5059 61.6031L42.3252 60.8966L42.5068 60.8083L43.6876 61.5148Z" fill="#7B9FE1"/>
<path d="M45.3228 62.3978L45.1412 62.4861L43.8696 61.7797L44.0513 61.6914L45.3228 62.3978Z" fill="#7B9FE1"/>
<path d="M46.8673 63.2806L46.6856 63.3689L45.4141 62.6625L45.5957 62.5742L46.8673 63.2806Z" fill="#7B9FE1"/>
<path d="M51.1355 51.8018L39.1465 58.5127L38.2383 57.9829L50.2273 51.272L51.1355 51.8018Z" fill="#44BFE5"/>
<path d="M51.4079 53.3912L40.7813 59.3957L39.873 58.9542L50.5905 52.9497L51.4079 53.3912Z" fill="#86B1FF"/>
<path d="M47.2298 57.5414L42.3252 60.2787L41.417 59.8372L46.3216 57.0999L47.2298 57.5414Z" fill="#86B1FF"/>
<path d="M52.4976 56.3933L43.96 61.1616L43.0518 60.7201L51.5894 55.8635L52.4976 56.3933Z" fill="#97CC66"/>
<path d="M53.4971 57.6297L45.5044 62.0447L44.5962 61.6032L52.5888 57.0999L53.4971 57.6297Z" fill="#F25A5A"/>
<path d="M53.4965 59.3958L47.1387 63.0161L46.2305 62.4863L52.5883 58.866L53.4965 59.3958Z" fill="#86B1FF"/>
<path d="M47.9566 56.6583C48.1382 56.7466 48.1382 56.9232 47.9566 57.0115C47.7749 57.0998 47.5933 57.0998 47.4116 57.0115C47.23 56.9232 47.23 56.7466 47.4116 56.6583C47.5025 56.57 47.7749 56.57 47.9566 56.6583Z" fill="#86B1FF"/>
<path d="M52.9527 55.9519C53.1533 55.9519 53.316 55.8333 53.316 55.687C53.316 55.5407 53.1533 55.4221 52.9527 55.4221C52.752 55.4221 52.5894 55.5407 52.5894 55.687C52.5894 55.8333 52.752 55.9519 52.9527 55.9519Z" fill="#97CC66"/>
<path d="M54.2232 56.7466C54.4048 56.8349 54.4048 57.0116 54.2232 57.0999C54.0415 57.1882 53.8599 57.1882 53.6782 57.0999C53.4966 57.0116 53.4966 56.8349 53.6782 56.7466C53.8599 56.6583 54.1324 56.6583 54.2232 56.7466Z" fill="#F25A5A"/>
<path d="M51.7715 50.9188C51.9532 51.0071 51.9532 51.1837 51.7715 51.272C51.5899 51.3603 51.4082 51.3603 51.2266 51.272C51.0449 51.1837 51.0449 51.0071 51.2266 50.9188C51.4082 50.8305 51.5899 50.8305 51.7715 50.9188Z" fill="#44BFE5"/>
<path d="M53.9522 58.9541C54.1528 58.9541 54.3155 58.8355 54.3155 58.6892C54.3155 58.5429 54.1528 58.4243 53.9522 58.4243C53.7515 58.4243 53.5889 58.5429 53.5889 58.6892C53.5889 58.8355 53.7515 58.9541 53.9522 58.9541Z" fill="#86B1FF"/>
<path d="M52.1343 52.5081C52.316 52.5964 52.316 52.773 52.1343 52.8613C51.9527 52.9496 51.771 52.9496 51.5894 52.8613C51.4077 52.773 51.4077 52.5964 51.5894 52.5081C51.771 52.4198 51.9527 52.4198 52.1343 52.5081Z" fill="#86B1FF"/>
<path d="M14.1706 44.2962L13.8982 44.4728L10.0835 42.3536L10.4468 42.177L14.1706 44.2962Z" fill="#7B9FE1"/>
<path d="M14.5339 44.1197L14.1706 44.2963L10.8101 42.442L11.1734 42.2654L14.5339 44.1197Z" fill="#2D6AD8"/>
<path d="M15.4416 43.5901L15.0783 43.7667L11.5361 41.8241L11.8086 41.6475L15.4416 43.5901Z" fill="#7B9FE1"/>
<path d="M15.7141 43.4134L15.4416 43.59L11.5361 41.4708L11.8994 41.2942L15.7141 43.4134Z" fill="#2D6AD8"/>
<path d="M16.6224 42.8833L16.3499 43.0599L11.8086 40.5875L12.1719 40.4109L16.6224 42.8833Z" fill="#7B9FE1"/>
<path d="M16.986 42.7067L16.6227 42.9716L14.3521 41.6471L14.7154 41.4705L16.986 42.7067Z" fill="#2D6AD8"/>
<path d="M17.8938 42.2652L17.6213 42.4418L13.4434 40.0577L13.7158 39.8811L17.8938 42.2652Z" fill="#7B9FE1"/>
<path d="M18.2571 42.0886L17.8938 42.2652L14.0791 40.0577L14.4424 39.8811L18.2571 42.0886Z" fill="#2D6AD8"/>
<path d="M21.6179 40.1461L21.2546 40.3227L17.0767 37.9386L17.3491 37.762L21.6179 40.1461Z" fill="#7B9FE1"/>
<path d="M21.8908 39.9696L21.6183 40.1462L18.8936 38.6451L19.2569 38.4685L21.8908 39.9696Z" fill="#2D6AD8"/>
<path d="M22.799 39.4397L22.5266 39.6163L19.0752 37.6737L19.4385 37.4971L22.799 39.4397Z" fill="#7B9FE1"/>
<path d="M23.1623 39.263L22.799 39.4396L19.9834 37.8502L20.2559 37.6736L23.1623 39.263Z" fill="#2D6AD8"/>
<path d="M24.0706 38.7333L23.7982 38.9099L18.4395 35.9959L18.8028 35.8193L24.0706 38.7333Z" fill="#7B9FE1"/>
<path d="M24.3435 38.5566L24.0711 38.7332L19.439 36.1725L19.7114 35.9958L24.3435 38.5566Z" fill="#2D6AD8"/>
<path d="M25.2513 38.115L24.9788 38.2916L20.165 35.5543L20.5283 35.3777L25.2513 38.115Z" fill="#7B9FE1"/>
<path d="M25.6145 37.9386L25.2512 38.1152L21.0732 35.731L21.4365 35.5544L25.6145 37.9386Z" fill="#2D6AD8"/>
<path d="M26.5222 37.4087L26.2497 37.5853L22.7983 35.6427L23.0708 35.4661L26.5222 37.4087Z" fill="#7B9FE1"/>
<path d="M26.8855 37.2322L26.5222 37.4088L22.6167 35.2013L22.98 35.0247L26.8855 37.2322Z" fill="#2D6AD8"/>
<path d="M19.1656 41.559L18.8023 41.7356L17.3491 40.8526L17.6216 40.676L19.1656 41.559Z" fill="#7B9FE1"/>
<path d="M19.4382 41.3825L19.0749 41.5591L16.5317 40.0579L16.8042 39.8813L19.4382 41.3825Z" fill="#2D6AD8"/>
<path d="M20.3458 40.8525L20.0733 41.0291L18.5293 40.1461L18.8926 39.9695L20.3458 40.8525Z" fill="#7B9FE1"/>
<path d="M20.7091 40.6757L20.3458 40.8523L19.2559 40.2342L19.6192 40.0576L20.7091 40.6757Z" fill="#2D6AD8"/>
<path d="M27.4305 37.1439L13.7158 44.8261L13.4434 44.7378L27.158 36.9673L27.4305 37.1439Z" fill="#7B9FE1"/>
<path d="M29.338 35.8193L29.0656 35.9959L26.9766 34.848L27.249 34.6714L29.338 35.8193Z" fill="#7B9FE1"/>
<path d="M29.7013 35.6427L29.338 35.8193L27.7031 34.848L27.9756 34.6714L29.7013 35.6427Z" fill="#2D6AD8"/>
<path d="M30.6094 35.1131L30.2461 35.2897L29.5195 34.8482L29.792 34.6716L30.6094 35.1131Z" fill="#7B9FE1"/>
<path d="M30.8819 34.9365L30.6094 35.1131L29.5195 34.495L29.792 34.3184L30.8819 34.9365Z" fill="#2D6AD8"/>
<path d="M31.7902 34.4065L31.5177 34.5832L29.0654 33.2586L29.4287 33.082L31.7902 34.4065Z" fill="#7B9FE1"/>
<path d="M32.1539 34.2299L31.7906 34.4065L30.6099 33.7884L30.9732 33.6118L32.1539 34.2299Z" fill="#2D6AD8"/>
<path d="M33.0631 33.7001L32.6998 33.8767L31.8823 33.4351L32.2456 33.2585L33.0631 33.7001Z" fill="#7B9FE1"/>
<path d="M33.3351 33.5235L33.0626 33.7002L31.7002 32.9937L31.9727 32.8171L33.3351 33.5235Z" fill="#2D6AD8"/>
<path d="M36.7859 31.6692L36.4226 31.8458L32.063 29.3734L32.3355 29.1968L36.7859 31.6692Z" fill="#7B9FE1"/>
<path d="M37.0584 31.4926L36.7859 31.6692L32.7896 29.4617L33.062 29.1968L37.0584 31.4926Z" fill="#2D6AD8"/>
<path d="M37.9667 30.9628L37.6942 31.1394L32.063 27.9605L32.4263 27.7839L37.9667 30.9628Z" fill="#7B9FE1"/>
<path d="M38.3299 30.7862L37.9666 30.9628L32.6987 27.9605L32.9712 27.7839L38.3299 30.7862Z" fill="#2D6AD8"/>
<path d="M39.2381 30.2563L38.8748 30.4329L34.7876 28.1371L35.1509 27.9604L39.2381 30.2563Z" fill="#7B9FE1"/>
<path d="M39.5105 30.0798L39.238 30.2564L35.605 28.2254L35.9683 28.0488L39.5105 30.0798Z" fill="#2D6AD8"/>
<path d="M40.4182 29.55L40.1457 29.7266L36.9668 27.9605L37.3301 27.7839L40.4182 29.55Z" fill="#7B9FE1"/>
<path d="M40.7814 29.3733L40.4181 29.5499L37.875 28.1371L38.2383 27.9604L40.7814 29.3733Z" fill="#2D6AD8"/>
<path d="M41.6901 28.8435L41.4176 29.0201L39.7827 28.1371L40.146 27.9604L41.6901 28.8435Z" fill="#7B9FE1"/>
<path d="M42.0533 28.6669L41.69 28.8435L40.3276 28.1371L40.6001 27.9604L42.0533 28.6669Z" fill="#2D6AD8"/>
<path d="M34.2428 32.9936L33.9704 33.1702L31.3364 31.7574L31.6997 31.5808L34.2428 32.9936Z" fill="#7B9FE1"/>
<path d="M34.6057 32.8171L34.2424 32.9937L31.2451 31.316L31.6084 31.1394L34.6057 32.8171Z" fill="#2D6AD8"/>
<path d="M35.5138 32.3755L35.2414 32.5521L32.6982 31.1392L32.9707 30.9626L35.5138 32.3755Z" fill="#7B9FE1"/>
<path d="M35.8766 32.1989L35.5133 32.3755L33.4243 31.1392L33.6968 30.9626L35.8766 32.1989Z" fill="#2D6AD8"/>
<path d="M42.5985 28.6671L28.8838 36.3493L28.6113 36.1727L42.326 28.4905L42.5985 28.6671Z" fill="#7B9FE1"/>
<path d="M65.1224 43.3249C60.7627 43.06 56.7664 44.826 56.2215 47.2984C55.6765 49.7709 58.8554 51.9784 63.3058 52.2433C67.6655 52.5082 71.6618 50.7422 72.2068 48.2697C72.6609 45.7973 69.5728 43.5898 65.1224 43.3249ZM68.6646 48.0931C68.3921 49.506 66.1214 50.4773 63.6692 50.3007C61.2169 50.1241 59.4003 48.8879 59.6728 47.475C59.9453 46.0622 62.2159 45.0909 64.6682 45.2675C67.2114 45.4441 69.0279 46.6803 68.6646 48.0931Z" fill="#2D6AD8"/>
<path d="M71.6618 48.2698C72.116 45.974 69.2096 43.9431 65.1224 43.6782C61.0352 43.4133 57.3114 45.091 56.8573 47.3868C56.4031 49.6826 59.3096 51.7136 63.3967 51.9785C67.4839 52.1551 71.2077 50.5657 71.6618 48.2698ZM58.3105 47.3868C58.6738 45.5325 61.5802 44.208 64.8499 44.4729C68.1196 44.6495 70.4811 46.3272 70.1178 48.1815C69.7545 50.0358 66.8481 51.3604 63.5784 51.0955C60.3086 50.8306 57.9472 49.2411 58.3105 47.3868Z" fill="#2D6AD8"/>
<path d="M64.5768 44.4729C64.5768 44.4729 65.5759 44.5612 65.9392 44.5612L66.3934 43.7664C65.9392 43.6781 64.7585 43.5898 64.5768 43.5898C63.5778 43.5898 62.3062 43.6781 61.3979 43.943L61.9429 44.7378C62.6695 44.4729 63.8502 44.4729 64.5768 44.4729Z" fill="#86B1FF"/>
<path d="M58.5825 46.7685L58.6734 46.6802C59.2183 45.7972 60.3991 45.0908 61.8523 44.7376L61.3073 43.9429C59.4908 44.3844 58.0376 45.1791 57.2202 46.327C57.2202 46.327 56.8569 47.0334 56.9477 47.21L58.4009 47.2983C58.4009 47.1217 58.4917 46.9451 58.5825 46.7685Z" fill="#F25A5A"/>
<path d="M70.1179 47.3867L71.6619 47.2984C71.4803 46.3271 70.7537 45.4441 69.5729 44.826L69.3005 44.6494C68.5739 44.2962 67.6656 43.943 66.6665 43.7664L66.2124 44.5611C67.0298 44.7377 67.6656 44.9143 68.3014 45.2675L68.7555 45.5324C68.6647 45.5324 69.8454 46.2388 70.1179 47.3867Z" fill="#97CC66"/>
<path d="M65.5765 51.89L65.304 51.0953C64.7591 51.1836 64.1233 51.1836 63.5784 51.0953C61.671 51.007 60.0362 50.3006 59.1279 49.4176L58.8554 49.0644C58.4921 48.5346 58.3105 48.0048 58.4013 47.3866L56.9481 47.2983C56.8573 48.0931 57.0389 48.7995 57.5839 49.4176L57.6747 49.5942L57.9472 49.7708C59.1279 50.9187 61.1261 51.7134 63.5784 51.8017C64.1233 51.9783 64.8499 51.9783 65.5765 51.89Z" fill="#44BFE5"/>
<path d="M71.8437 48.2696C72.2979 45.8855 69.3006 43.7663 65.1226 43.5014C60.9447 43.2365 57.13 44.9142 56.6759 47.2983C56.2217 49.6825 59.219 51.8017 63.397 52.0666C67.5749 52.2432 71.2988 50.5655 71.8437 48.2696ZM56.8575 47.2983C57.3116 45.0025 61.0355 43.3248 65.1226 43.5897C69.2098 43.8546 72.1162 45.8855 71.6621 48.1813C71.208 50.4772 67.4841 52.1549 63.397 51.89C59.3098 51.6251 56.4034 49.5942 56.8575 47.2983Z" fill="#2D6AD8"/>
<path d="M70.1181 48.1812C70.4814 46.3269 68.12 44.7375 64.8503 44.4726C61.5805 44.296 58.6741 45.6205 58.3108 47.3865C57.9475 49.2409 60.309 50.8303 63.5787 51.0952C66.8484 51.2718 69.7548 49.9473 70.1181 48.1812ZM58.4925 47.3865C58.8558 45.6205 61.6714 44.296 64.8503 44.5609C68.0292 44.7375 70.2998 46.3269 69.9365 48.1812C69.5732 49.9473 66.7576 51.2718 63.5787 51.0069C60.3998 50.742 58.1292 49.1526 58.4925 47.3865Z" fill="#2D6AD8"/>
<path d="M71.5707 48.2698C71.6615 48.0049 71.6615 47.74 71.5707 47.4751L70.1175 47.5634C70.1175 47.74 70.1175 48.0049 70.1175 48.1815C69.845 49.5943 67.9376 50.7422 65.4854 51.0954L65.7578 51.8902C68.8459 51.4487 71.2982 50.0358 71.5707 48.2698Z" fill="#86B1FF"/>
<path d="M26.612 40.6763L16.4395 46.4159L14.9863 45.6212L25.1588 39.8816L26.612 40.6763Z" fill="#2D6AD8"/>
<path d="M17.3478 45.886L16.4395 46.4158L14.9863 45.6211L15.9854 45.0913L17.3478 45.886Z" fill="#F25A5A"/>
<path d="M35.9675 35.4663L25.7042 41.2059L24.251 40.4112L34.5143 34.6716L35.9675 35.4663Z" fill="#2D6AD8"/>
<path d="M26.7033 40.6761L25.7042 41.2059L24.251 40.4112L25.2501 39.8813L26.7033 40.6761Z" fill="#97CC66"/>
<path d="M45.2311 30.2566L35.0587 35.9962L33.6055 35.1132L43.7779 29.4619L45.2311 30.2566Z" fill="#2D6AD8"/>
<path d="M35.9669 35.4665L35.0587 35.9963L33.6055 35.1133L34.5137 34.5835L35.9669 35.4665Z" fill="#44BFE5"/>
<path d="M49.1377 64.8704C49.3885 64.8704 49.5918 64.7518 49.5918 64.6055C49.5918 64.4592 49.3885 64.3406 49.1377 64.3406C48.8869 64.3406 48.6836 64.4592 48.6836 64.6055C48.6836 64.7518 48.8869 64.8704 49.1377 64.8704Z" fill="#7B9FE1"/>
<path d="M51.1358 65.3118C51.3174 65.4001 51.3174 65.5767 51.1358 65.665C50.9541 65.7533 50.6817 65.7533 50.5 65.665C50.3184 65.5767 50.3184 65.4001 50.5 65.3118C50.5908 65.2235 50.9541 65.2235 51.1358 65.3118Z" fill="#7B9FE1"/>
<path d="M65.0323 56.0401C65.2831 56.0401 65.4864 55.9215 65.4864 55.7752C65.4864 55.6289 65.2831 55.5103 65.0323 55.5103C64.7814 55.5103 64.5781 55.6289 64.5781 55.7752C64.5781 55.9215 64.7814 56.0401 65.0323 56.0401Z" fill="#7B9FE1"/>
<path d="M66.9395 56.4818C67.1211 56.5701 67.1211 56.7467 66.9395 56.835C66.7578 56.9233 66.4854 56.9233 66.3037 56.835C66.1221 56.7467 66.1221 56.5701 66.3037 56.4818C66.4854 56.3935 66.7578 56.3935 66.9395 56.4818Z" fill="#7B9FE1"/>
<path d="M58.0381 60.0138L58.9463 59.484L58.8555 59.3957L57.9472 59.9255L58.0381 60.0138ZM53.7693 62.398L55.8583 61.1617H55.7674L53.6784 62.398H53.7693ZM56.1307 61.1617L57.9472 60.1904L57.8564 60.1021L56.0399 61.0734L56.1307 61.1617ZM53.5876 62.5746L53.4968 62.4863L50.4995 64.164L50.5904 64.2523L53.5876 62.5746ZM59.128 59.3957L60.4904 58.601L60.3995 58.5127L59.0371 59.3957H59.128ZM50.1362 63.8991L51.1353 63.3693L51.0445 63.281L50.0454 63.8108L50.1362 63.8991ZM58.8555 58.9542L58.9463 59.0425L60.1271 58.3361L60.0362 58.2478L58.8555 58.9542ZM56.6757 60.2787L58.8555 59.0425L58.7647 58.9542L56.5849 60.1904L56.6757 60.2787ZM55.5858 60.8968L56.494 60.367L56.4032 60.2787L55.4949 60.8085L55.5858 60.8968ZM54.2234 61.6915L55.4041 60.9851L55.3133 60.8968L54.1326 61.6032L54.2234 61.6915ZM51.317 63.281L54.0417 61.7798L53.9509 61.6915L51.2261 63.1927L51.317 63.281Z" fill="#7B9FE1"/>
<path d="M57.0399 61.603L57.1307 61.6913L58.9472 60.72L58.8564 60.6317L57.0399 61.603ZM56.949 61.7796L56.8582 61.6913L54.6784 62.9275L54.7692 63.0158L56.949 61.7796ZM57.3123 62.0445L57.4032 62.1328L58.5839 61.4264L58.4931 61.3381L57.3123 62.0445ZM58.6747 61.2498L58.7656 61.3381L59.6738 60.8083L59.583 60.72L58.6747 61.2498ZM61.9445 59.3954L59.7646 60.6317L59.8555 60.72L62.0353 59.4837L61.9445 59.3954ZM54.4059 63.8105L54.3151 63.7222L52.0445 65.0467L52.1353 65.135L54.4059 63.8105ZM60.9454 59.4837L58.9472 60.5434L59.038 60.6317L61.0362 59.572L60.9454 59.4837ZM54.6784 63.1041L54.4968 63.0158L51.4995 64.6935L51.5903 64.7818L54.6784 63.1041ZM61.0362 59.3954L61.127 59.4837L62.3078 58.8656L62.2169 58.7773L61.0362 59.3954ZM57.3123 62.1328L57.2215 62.0445L54.4968 63.5456L54.5876 63.6339L57.3123 62.1328Z" fill="#7B9FE1"/>
<path d="M69.5735 53.5678L71.6625 52.3316L71.5716 52.2433L69.4826 53.4795L69.5735 53.5678ZM71.8441 52.2433L73.6606 51.272L73.5698 51.1837L71.7533 52.155L71.8441 52.2433ZM69.3918 53.6561L69.301 53.5678L66.3037 55.2455L66.3946 55.3338L69.3918 53.6561ZM65.9404 55.0689L66.9395 54.5391L66.8487 54.4508L65.7588 54.9806L65.9404 55.0689ZM74.6597 50.0358L74.7505 50.1241L75.9313 49.4176L75.8404 49.3293L74.6597 50.0358ZM72.4799 51.3603L74.6597 50.1241H74.478L72.2982 51.3603H72.4799ZM71.2992 51.9784L72.2074 51.4486H72.1166L71.2083 51.9784H71.2992ZM69.9368 52.7731L71.1175 52.0667L71.0267 51.9784L69.8459 52.6848L69.9368 52.7731ZM67.0303 54.3625L69.7551 52.8614L69.6643 52.7731L66.9395 54.2742L67.0303 54.3625Z" fill="#7B9FE1"/>
<path d="M74.1143 52.0668L74.2051 52.1551L76.0216 51.1838L75.9308 51.0955L74.1143 52.0668Z" fill="#7B9FE1"/>
<path d="M72.4805 53.5677L72.5713 53.656L73.752 52.9496L73.6612 52.8613L72.4805 53.5677Z" fill="#7B9FE1"/>
<path d="M73.9332 52.155L71.8442 53.3912L71.9351 53.4795L74.1149 52.2433L73.9332 52.155Z" fill="#7B9FE1"/>
<path d="M75.6593 51.8018L73.8428 52.7731L73.9336 52.8614L75.8409 51.8018H75.6593Z" fill="#7B9FE1"/>
<path d="M71.7537 53.5678L71.6629 53.4795L67.394 55.8636L67.4849 55.9519L71.7537 53.5678Z" fill="#7B9FE1"/>
<path d="M76.1128 51.0071L76.2036 51.0954L77.1119 50.5656L77.021 50.4773L76.1128 51.0071Z" fill="#7B9FE1"/>
<path d="M69.5733 55.3337L69.3917 55.2454L67.8477 56.1284L68.0293 56.2167L69.5733 55.3337Z" fill="#7B9FE1"/>
<path d="M72.298 53.656L69.5732 55.1571L69.7549 55.2454L72.4797 53.7443L72.298 53.656Z" fill="#7B9FE1"/>
<path d="M77.2031 50.389L77.2939 50.4773L78.1114 49.9475H78.0206L77.2031 50.389Z" fill="#7B9FE1"/>
<path d="M45.2323 52.685L45.0506 52.5967L49.0469 50.3892L49.2286 50.4775L45.2323 52.685ZM44.1423 53.3031L43.9607 53.2148L44.6873 52.7733L44.869 52.8616L44.1423 53.3031ZM39.5102 55.8638L39.3286 55.7755L43.6882 53.3914L43.8699 53.4797L39.5102 55.8638ZM36.4222 57.6299L36.2405 57.5416L39.0561 55.9521L39.2378 56.0404L36.4222 57.6299ZM45.9589 51.0073L49.9552 48.7997L50.1368 48.888L46.1405 51.0956L45.9589 51.0073ZM50.2277 48.6231L51.9534 47.6518L52.135 47.7401L50.4093 48.7114L50.2277 48.6231ZM45.0506 51.7137L44.869 51.6254L45.5956 51.1839L45.7772 51.2722L45.0506 51.7137ZM40.4185 54.2744L40.2368 54.1861L44.5965 51.802L44.7781 51.8903L40.4185 54.2744ZM35.4231 57.1L35.2414 57.0117L39.8735 54.3627L40.0552 54.451L35.4231 57.1ZM60.8543 41.7356L60.6726 41.6473L63.0341 40.3228L63.2157 40.4111L60.8543 41.7356ZM57.6754 43.5017L57.4937 43.4134L60.4001 41.8239L60.5818 41.9122L57.6754 43.5017ZM55.768 44.6496L55.5864 44.5613L57.2212 43.6783L57.4029 43.7666L55.768 44.6496ZM52.5891 46.4156L52.4075 46.3273L55.2231 44.7379L55.4047 44.8262L52.5891 46.4156ZM49.6827 48.005L49.5011 47.9167L52.0442 46.5039L52.2258 46.5922L49.6827 48.005ZM46.2313 49.9476L46.0497 49.8593L49.1378 48.0933L49.3194 48.1816L46.2313 49.9476ZM42.8708 51.802L42.6891 51.7137L45.7772 50.036L45.9589 50.1243L42.8708 51.802ZM38.6928 54.1861L38.5112 54.0978L42.4167 51.8903L42.5983 51.9786L38.6928 54.1861ZM34.5148 56.5702L34.3332 56.4819L38.1479 54.2744L38.3295 54.3627L34.5148 56.5702ZM55.8589 43.5017L55.6772 43.4134L62.1258 39.793L62.3075 39.8813L55.8589 43.5017ZM52.68 45.2677L52.4983 45.1794L55.4047 43.59L55.5864 43.6783L52.68 45.2677ZM49.2286 47.2103L49.0469 47.122L52.135 45.356L52.3167 45.4443L49.2286 47.2103ZM47.5029 48.0933L47.3212 48.005L48.6836 47.2103L48.8653 47.2986L47.5029 48.0933ZM45.5047 49.2412L45.3231 49.1529L47.0488 48.1816L47.2304 48.2699L45.5047 49.2412ZM41.2359 51.7137L41.0543 51.6254L45.0506 49.4178L45.2323 49.5061L41.2359 51.7137ZM40.146 52.2435L39.9644 52.1552L40.691 51.7137L40.8726 51.802L40.146 52.2435ZM35.5139 54.8925L35.3323 54.8042L39.6919 52.4201L39.8735 52.5084L35.5139 54.8925ZM33.5158 56.0404L33.3341 55.9521L35.0598 54.9808L35.2414 55.0691L33.5158 56.0404ZM60.491 39.793L60.3093 39.7047L61.1267 39.2632L61.3084 39.3515L60.491 39.793ZM58.9469 40.676L58.7653 40.5877L60.0368 39.8813L60.2185 39.9696L58.9469 40.676ZM55.768 42.442L55.5864 42.3537L58.4928 40.7643L58.6744 40.8526L55.768 42.442ZM52.3167 44.3847L52.135 44.2964L55.2231 42.5304L55.4047 42.6187L52.3167 44.3847ZM50.591 45.356L50.5001 45.2677L51.8625 44.473L52.0442 44.5613L50.591 45.356ZM47.7754 46.9454L47.5937 46.8571L50.1368 45.4443L50.3185 45.5326L47.7754 46.9454ZM44.324 48.888L44.1423 48.7997L47.2304 47.0337L47.4121 47.122L44.324 48.888ZM40.9634 50.7424L40.7818 50.6541L43.8699 48.9763L44.0515 49.0646L40.9634 50.7424ZM36.6946 53.1265L36.513 53.0382L40.4185 50.8307L40.6001 50.919L36.6946 53.1265ZM32.5167 55.5106L32.335 55.4223L36.1497 53.3031L36.3313 53.3914L32.5167 55.5106ZM54.9506 41.8239L54.7689 41.7356L60.1277 38.7334L60.3093 38.8217L54.9506 41.8239ZM51.7717 43.59L51.59 43.5017L54.4965 41.9122L54.6781 42.0005L51.7717 43.59ZM48.3203 45.5326L48.1387 45.4443L51.2267 43.6783L51.4084 43.7666L48.3203 45.5326ZM46.6855 46.4156L46.5038 46.3273L47.8662 45.5326L48.0479 45.6209L46.6855 46.4156ZM44.6873 47.5635L44.5056 47.4752L46.2313 46.5039L46.413 46.5922L44.6873 47.5635ZM40.4185 50.036L40.2368 49.9476L44.2332 47.7401L44.4148 47.8284L40.4185 50.036ZM39.3286 50.5658L39.1469 50.4775L39.8735 50.036L40.0552 50.1243L39.3286 50.5658ZM34.6965 53.2148L34.5148 53.1265L38.8745 50.7424L39.0561 50.8307L34.6965 53.2148ZM31.6084 54.8925L31.4268 54.8042L34.2424 53.2148L34.424 53.3031L31.6084 54.8925Z" fill="#7B9FE1"/>
<path d="M36.9669 33.7887L35.4229 34.6718L35.332 34.4951L36.7852 33.7004L36.9669 33.7887Z" fill="#E1E9F4"/>
<path d="M37.875 33.2587L37.2393 33.6119L37.0576 33.5236L37.6934 33.1704L37.875 33.2587Z" fill="#E1E9F4"/>
<path d="M36.9669 34.5832L36.1494 35.0247L35.9678 34.9364L36.7852 34.4949L36.9669 34.5832Z" fill="#E1E9F4"/>
<path d="M39.1466 33.3471L37.2393 34.4067L37.0576 34.3184L38.965 33.2588L39.1466 33.3471Z" fill="#E1E9F4"/>
<path d="M40.418 32.6405L39.419 33.1704L39.2373 33.0821L40.2364 32.5522L40.418 32.6405Z" fill="#E1E9F4"/>
<path d="M27.7936 38.9098L26.2495 39.7928L26.0679 39.7045L27.6119 38.8215L27.7936 38.9098Z" fill="#E1E9F4"/>
<path d="M28.7022 38.4682L28.0664 38.8214L27.8848 38.7331L28.5205 38.3799L28.7022 38.4682Z" fill="#E1E9F4"/>
<path d="M27.7935 39.7045L26.9761 40.146L26.7944 40.0577L27.6119 39.6162L27.7935 39.7045Z" fill="#E1E9F4"/>
<path d="M29.8829 38.5566L28.0664 39.6162L27.8848 39.5279L29.7921 38.4683L29.8829 38.5566Z" fill="#E1E9F4"/>
<path d="M31.2447 37.7619L30.1548 38.38L29.9731 38.2917L31.0631 37.6736L31.2447 37.7619Z" fill="#E1E9F4"/>
<path d="M18.6202 44.1198L17.0762 45.0028L16.8945 44.9145L18.4386 44.0315L18.6202 44.1198Z" fill="#E1E9F4"/>
<path d="M19.4375 43.59L18.8018 43.9432L18.6201 43.8549L19.2559 43.5017L19.4375 43.59Z" fill="#E1E9F4"/>
<path d="M18.6202 44.9145L17.7119 45.356L17.5303 45.2677L18.4385 44.8262L18.6202 44.9145Z" fill="#E1E9F4"/>
<path d="M20.7091 43.6781L18.8018 44.7378L18.6201 44.6495L20.5275 43.5898L20.7091 43.6781Z" fill="#E1E9F4"/>
<path d="M21.9805 42.9718L20.9815 43.5017L20.7998 43.4134L21.7989 42.8835L21.9805 42.9718Z" fill="#E1E9F4"/>
<path d="M47.9571 33.4352L48.502 33.082L48.3204 32.9937L47.7754 33.3469L47.9571 33.4352ZM43.1433 36.1725L45.5956 34.848L45.414 34.6714L42.9617 35.9959L43.1433 36.1725ZM45.6864 34.6714L47.6846 33.5235L47.5029 33.4352L45.5048 34.5831L45.6864 34.6714ZM42.9617 36.2608L42.78 36.1725L39.3286 38.1151L39.5103 38.2034L42.9617 36.2608ZM38.9653 37.8502L40.0552 37.2321L39.9644 37.1438L38.8745 37.7619L38.9653 37.8502ZM46.413 33.7001L47.9571 32.8171L47.7754 32.7288L46.2314 33.6118L46.413 33.7001ZM45.1415 34.4065L46.2314 33.7884L46.0497 33.7001L44.9598 34.3182L45.1415 34.4065ZM43.5974 35.2895L44.9598 34.4948L44.7782 34.4065L43.4158 35.2012L43.5974 35.2895ZM40.2369 37.1438L43.325 35.3778L43.1433 35.2895L40.0552 37.0555L40.2369 37.1438Z" fill="#E1E9F4"/>
<path d="M48.8658 33.3467L49.0474 33.435L47.7758 34.1414L47.5942 34.0531L48.8658 33.3467ZM45.6869 35.8191L45.8685 35.9074L47.2309 35.1127L47.0492 35.0244L45.6869 35.8191ZM47.4125 34.2297L44.9603 35.5542L45.1419 35.6425L47.5942 34.318L47.4125 34.2297ZM48.5025 34.2297L47.2309 34.9361L47.4125 35.0244L48.6841 34.318L48.5025 34.2297ZM44.9603 35.7308L44.7786 35.6425L39.874 38.3798L40.0557 38.4681L44.9603 35.7308ZM42.4171 37.85L42.2355 37.7617L40.5098 38.7331L40.6915 38.8214L42.4171 37.85ZM45.5052 35.9074L42.4171 37.6734L42.5988 37.7617L45.6869 35.9957L45.5052 35.9074Z" fill="#E1E9F4"/>
<path d="M32.6067 50.3892L36.5122 48.1817L36.3306 48.0934L32.425 50.3009L32.6067 50.3892ZM32.425 50.4775L32.2434 50.3892L28.792 52.3318L28.9737 52.4201L32.425 50.4775ZM28.4287 52.0669L29.5186 51.4488L29.337 51.3605L28.2471 51.9786L28.4287 52.0669ZM34.514 48.6232L35.6039 48.005L35.5131 47.9167L34.4232 48.5349L34.514 48.6232ZM33.0608 49.5062L34.4232 48.7115L34.2416 48.6232L32.8792 49.4179L33.0608 49.5062ZM29.7003 51.3605L32.7884 49.5945L32.6975 49.5062L29.6095 51.2722L29.7003 51.3605Z" fill="#E1E9F4"/>
<path d="M34.1507 50.5657L34.3323 50.654L35.9672 49.771L35.7855 49.6827L34.1507 50.5657ZM35.9672 48.9763L34.4232 49.8593L34.6048 49.9476L36.1488 49.0646L35.9672 48.9763ZM34.4232 49.9476L34.2415 49.8593L29.3369 52.5967L29.5186 52.685L34.4232 49.9476ZM31.88 52.0669L31.6984 51.9786L29.9727 52.9499L30.1543 53.0382L31.88 52.0669ZM33.969 50.654L31.88 51.802L32.0617 51.8903L34.1507 50.7423L33.969 50.654Z" fill="#E1E9F4"/>
<path d="M52.5892 38.38L52.7709 38.4683L54.6782 37.4087L54.4058 37.3204L52.5892 38.38ZM52.4984 38.5566L52.3168 38.4683L49.7737 39.8811L49.9553 39.9694L52.4984 38.5566ZM51.2269 39.7928L51.4085 39.8811L52.6801 39.0864L52.4984 38.9981L51.2269 39.7928ZM52.6801 38.9098L52.8617 38.9981L55.5865 37.497L55.4048 37.4087L52.6801 38.9098ZM49.5012 40.8525H49.3195L46.6856 42.3536L46.8672 42.4419L49.5012 40.8525ZM55.1324 36.8789L54.5874 37.1438L54.7691 37.2321L55.314 36.9672L55.1324 36.8789ZM49.7737 40.0577L49.592 39.9694L46.1406 41.9121L46.3223 42.0004L49.7737 40.0577ZM51.136 39.9694L50.9544 39.8811L49.5012 40.6759L49.6828 40.7642L51.136 39.9694Z" fill="#E1E9F4"/>
<path d="M51.5901 40.9408L54.0424 39.6163L53.8607 39.528L51.4084 40.8525L51.5901 40.9408ZM54.224 39.4397L56.0406 38.3801L55.8589 38.2918L54.0424 39.3514L54.224 39.4397ZM51.4084 41.0291L51.2268 40.9408L47.7754 42.8834L47.9571 42.9717L51.4084 41.0291ZM47.4121 42.6185L48.502 42.0004L48.3204 41.9121L47.2305 42.5302L47.4121 42.6185ZM54.8598 38.4684L56.4039 37.5854L56.2222 37.4971L54.6782 38.3801L54.8598 38.4684ZM53.5883 39.1748L54.6782 38.5567L54.4965 38.4684L53.4066 39.0865L53.5883 39.1748ZM52.0442 40.0578L53.4066 39.2631L53.225 39.1748L51.8626 39.9695L52.0442 40.0578ZM48.7745 41.9121L51.8626 40.1461L51.6809 40.0578L48.5929 41.8238L48.7745 41.9121Z" fill="#E1E9F4"/>
<path d="M27.1581 44.2964L27.2489 44.3847L29.1563 43.3251L29.0654 43.2368L27.1581 44.2964ZM27.0673 44.5613L26.8856 44.473L24.3425 45.8858L24.5241 45.9741L27.0673 44.5613ZM25.7957 45.7092L25.9774 45.7975L27.3397 45.0028L27.1581 44.9145L25.7957 45.7092ZM27.3397 44.8262L27.5214 44.9145L30.2462 43.4134L29.9737 43.3251L27.3397 44.8262ZM24.07 46.8571L23.8884 46.7688L21.2544 48.2699L21.4361 48.3582L24.07 46.8571ZM29.7012 42.8835L29.1563 43.1484L29.3379 43.2368L29.8829 42.9718L29.7012 42.8835ZM24.3425 46.0624L24.1608 45.9741L20.7095 47.9167L20.8911 48.005L24.3425 46.0624ZM25.7049 45.8858L25.5232 45.7975L24.07 46.5922L24.2517 46.6805L25.7049 45.8858Z" fill="#E1E9F4"/>
<path d="M26.1589 46.8569L28.6112 45.5324L28.4296 45.4441L25.9773 46.7686L26.1589 46.8569ZM28.7929 45.4441L30.6094 44.3845L30.4277 44.2962L28.6112 45.3558L28.7929 45.4441ZM25.9773 47.0335L25.7956 46.9452L22.4351 48.7995L22.6167 48.8878L25.9773 47.0335ZM21.981 48.6229L23.0709 48.0048L22.98 47.9165L21.8901 48.5346L21.981 48.6229ZM29.4287 44.4728L30.9727 43.5898L30.8819 43.5015L29.3378 44.3845L29.4287 44.4728ZM28.1571 45.1792L29.247 44.5611L29.0654 44.4728L27.9755 45.0909L28.1571 45.1792ZM26.6131 45.9739L27.9755 45.1792L27.7938 45.0909L26.4314 45.8856L26.6131 45.9739ZM23.3433 47.8282L26.4314 46.0622L26.2498 45.9739L23.1617 47.7399L23.3433 47.8282Z" fill="#E1E9F4"/>
<path opacity="0.4" d="M58.2193 57.2765L64.6679 60.8969V65.2236L57.4019 69.2855V64.9587L50.8624 61.2501C50.59 61.0735 50.59 60.8086 50.7716 60.5437C50.8624 60.3671 51.0441 60.1905 51.3166 59.9256L45.5037 56.6584C41.5982 57.8064 37.3294 58.4245 32.9698 58.3362L32.5156 58.0713C32.6065 58.0713 32.7881 58.0713 32.879 58.0713C38.8734 57.983 44.7771 56.6584 49.3184 54.0977C58.8551 48.7113 58.7643 39.9695 49.2276 34.5831C44.6863 32.0224 38.6918 30.6979 32.6973 30.6096C28.701 30.6979 24.7955 31.316 21.2533 32.4639L23.6147 31.1394C26.5212 30.5213 29.7001 30.2564 32.7881 30.3447C39.4184 30.2564 46.1395 31.5809 51.2257 34.4065C60.9441 39.8812 61.0349 48.7996 51.3166 54.2743C51.1349 54.3626 50.9533 54.4509 50.7716 54.5392L55.9487 57.4531C56.7661 57.1882 57.4927 57.0999 57.9468 57.1882C58.0377 57.1882 58.1285 57.1882 58.2193 57.2765ZM8.53768 39.528C7.62943 40.9408 7.1753 42.3536 7.08447 43.7665L9.17346 44.9144C8.90099 42.2653 9.99089 39.7046 12.4432 37.3205L8.53768 39.528Z" fill="#ADA6A3"/>
<path d="M67.2114 28.3135V32.1105C67.2114 28.4901 64.7591 24.8698 59.8545 22.1324C50.1362 16.6578 34.3325 16.6578 24.6142 22.1324C19.8004 24.8698 17.439 28.4018 17.3481 32.0222V28.2252C17.3481 24.6932 19.8004 21.0728 24.6142 18.3355C34.3325 12.8608 50.1362 12.8608 59.8545 18.3355C64.8499 21.1611 67.3022 24.7815 67.2114 28.3135Z" fill="url(#paint0_linear_1177_363080)"/>
<path d="M24.7051 21.073C34.4234 15.5984 50.2271 15.5984 59.9454 21.073C64.4867 23.6338 66.8482 26.9009 67.2115 30.1681C67.6656 26.2828 65.2133 22.3093 59.9454 19.3953C50.2271 13.9206 34.4234 13.9206 24.7051 19.3953C19.528 22.3093 17.0757 26.2828 17.5299 30.0798C17.8932 26.8126 20.2546 23.5455 24.7051 21.073Z" fill="#6F96C1"/>
<path d="M67.6656 28.3136V32.1106C67.6656 35.7309 65.2133 39.3513 60.3087 42.1769C50.4995 47.7399 34.3326 47.7399 24.4326 42.1769C19.4372 39.3513 16.9849 35.7309 16.9849 32.0223V28.2253C16.9849 31.934 19.4372 35.5543 24.4326 38.38C34.3326 43.943 50.4087 43.943 60.3087 38.38C65.2133 35.6426 67.6656 32.0223 67.6656 28.3136Z" fill="url(#paint1_linear_1177_363080)"/>
<path d="M60.2178 18.159C70.1178 23.722 70.2086 32.817 60.3086 38.38C50.4994 43.943 34.3325 43.943 24.4325 38.38C14.5325 32.817 14.4417 23.722 24.3417 18.159C34.2416 12.5961 50.3178 12.5961 60.2178 18.159ZM24.7958 38.2034C34.5141 43.6781 50.3178 43.6781 60.0361 38.2034C69.7545 32.7287 69.6636 23.8103 59.9453 18.3357C50.227 12.861 34.4233 12.861 24.705 18.3357C14.9866 23.8103 15.0774 32.7287 24.7958 38.2034Z" fill="url(#paint2_linear_1177_363080)"/>
<path d="M66.9391 43.2367C67.0299 43.2367 67.1207 43.325 67.2115 43.325L60.3996 39.528C60.3088 39.528 60.218 39.4397 60.1271 39.4397C59.4005 39.2631 58.129 39.9695 57.4024 40.9409C57.0391 41.3824 56.8574 41.9122 56.8574 42.2654C56.8574 42.5303 56.9482 42.7952 57.2207 42.8835L64.0326 46.6804C64.1235 46.6804 64.2143 46.7687 64.3051 46.7687C65.0317 46.9453 66.3033 46.2389 67.0299 45.2676C67.3932 44.8261 67.5748 44.2963 67.5748 43.9431C67.5748 43.5899 67.3024 43.325 66.9391 43.2367Z" fill="#C7C6C4"/>
<path d="M68.3016 42.4419C68.2108 42.3536 68.0291 42.3536 67.9383 42.2653C66.7576 42.0887 64.8502 43.1483 63.5787 44.6494C62.9429 45.4442 62.6704 46.1506 62.6704 46.7687C62.6704 47.2102 62.8521 47.5634 63.2154 47.74L86.0126 60.4554C86.1034 60.5437 86.2851 60.5437 86.3759 60.632C87.5566 60.8086 89.464 59.749 90.7355 58.2478C91.3713 57.4531 91.6438 56.7467 91.6438 56.1286C91.6438 55.6871 91.4621 55.4222 91.1897 55.1573C91.008 55.1573 68.3016 42.4419 68.3016 42.4419Z" fill="url(#paint3_linear_1177_363080)"/>
<path d="M90.5535 55.7754C90.281 55.5105 89.3728 55.7754 88.3737 56.5701C87.4654 57.2765 86.9205 58.1595 87.1929 58.4244C87.4654 58.6893 88.3737 58.4244 89.3728 57.6297C90.281 56.9233 90.826 56.0403 90.5535 55.7754Z" fill="url(#paint4_linear_1177_363080)"/>
<defs>
<linearGradient id="paint0_linear_1177_363080" x1="17.4588" y1="23.2077" x2="67.2499" y2="23.2077" gradientUnits="userSpaceOnUse">
<stop stop-color="#E4E2E2"/>
<stop offset="1" stop-color="#D6D5D4"/>
</linearGradient>
<linearGradient id="paint1_linear_1177_363080" x1="17.0118" y1="37.2801" x2="67.6988" y2="37.2801" gradientUnits="userSpaceOnUse">
<stop stop-color="#D6D5D4"/>
<stop offset="1" stop-color="#E4E2E2"/>
</linearGradient>
<linearGradient id="paint2_linear_1177_363080" x1="17.0227" y1="28.2858" x2="67.6987" y2="28.2858" gradientUnits="userSpaceOnUse">
<stop stop-color="#F0EFEC"/>
<stop offset="1" stop-color="#FFFEFB"/>
</linearGradient>
<linearGradient id="paint3_linear_1177_363080" x1="62.7229" y1="51.5081" x2="91.5996" y2="51.5081" gradientUnits="userSpaceOnUse">
<stop stop-color="#312F2C"/>
<stop offset="1" stop-color="#252321"/>
</linearGradient>
<linearGradient id="paint4_linear_1177_363080" x1="88.3603" y1="56.5675" x2="89.2514" y2="57.5859" gradientUnits="userSpaceOnUse">
<stop stop-color="#312F2C"/>
<stop offset="1" stop-color="#252321"/>
</linearGradient>
</defs>
</svg>
