<svg width="100" height="79" viewBox="0 0 100 79" fill="none" xmlns="http://www.w3.org/2000/svg">
<g clip-path="url(#clip0_1177_351407)">
<path d="M7 78.9999H38.1548L43.6316 57.6943L7 78.9999Z" fill="#D8D2C9"/>
<path d="M93.3715 46.9514L38.1548 79V33.4097L93.3715 1.36108V46.9514Z" fill="#342A2E"/>
<path d="M38.1549 79L37.5264 78.6389V33.0486L38.1549 33.4097V79Z" fill="#261E22"/>
<path d="M38.1549 33.4097L37.5264 33.0486L92.7431 1L93.3716 1.36111L38.1549 33.4097Z" fill="#473B3B"/>
<path d="M87.2664 7.31934V4.88184L82.2385 7.31934L73.8887 12.4652V14.6318C73.8887 15.1735 74.4274 15.4443 74.8763 15.1735L86.6379 8.31239C87.0868 8.22211 87.2664 7.77072 87.2664 7.31934Z" fill="#CFCBC7"/>
<path d="M73.8887 12.6458L73.2603 12.2846L86.638 4.52075L87.2665 4.88186L73.8887 12.6458Z" fill="#EDE8E4"/>
<path d="M86.7279 7.40975C86.7279 7.68058 86.5483 7.95141 86.279 8.13197C86.0096 8.31252 85.8301 8.22225 85.8301 7.95141C85.8301 7.68058 86.0096 7.40975 86.279 7.22919C86.5483 7.04863 86.7279 7.13891 86.7279 7.40975Z" fill="#342A2E"/>
<path d="M75.4149 13.9998C75.4149 14.2707 75.2354 14.5415 74.966 14.7221C74.6967 14.9026 74.5171 14.8123 74.5171 14.5415C74.5171 14.2707 74.6967 13.9998 74.966 13.8193C75.2354 13.6387 75.4149 13.729 75.4149 13.9998Z" fill="#342A2E"/>
<path d="M57.0091 24.9236V22.4861L51.9812 24.9236L43.6313 30.0694V32.2361C43.6313 32.7778 44.17 33.0486 44.619 32.7778L56.3806 25.9166C56.8295 25.7361 57.0091 25.375 57.0091 24.9236Z" fill="#CFCBC7"/>
<path d="M43.6314 30.1597L43.0029 29.7986L56.3806 22.0347L57.0091 22.3958L43.6314 30.1597Z" fill="#EDE8E4"/>
<path d="M56.4706 24.9235C56.4706 25.1943 56.291 25.4652 56.0217 25.6457C55.7523 25.8263 55.5728 25.736 55.5728 25.4652C55.5728 25.1943 55.7523 24.9235 56.0217 24.7429C56.291 24.6527 56.4706 24.7429 56.4706 24.9235Z" fill="#342A2E"/>
<path d="M45.1576 31.5138C45.1576 31.7847 44.978 32.0555 44.7087 32.236C44.4393 32.4166 44.2598 32.3263 44.2598 32.0555C44.2598 31.7847 44.4393 31.5138 44.7087 31.3333C44.978 31.243 45.1576 31.3333 45.1576 31.5138Z" fill="#342A2E"/>
<path d="M39.5015 34.9446L91.9349 4.43066V46.139L39.5015 76.5626V34.9446Z" fill="#FFF7F0"/>
<path opacity="0.6" d="M39.9502 35.2154L91.396 5.3335V10.5696L39.9502 40.4516V35.2154Z" fill="#2F67D7"/>
<path d="M55.0342 39.9099L40.4893 48.396V45.146L55.0342 36.6599V39.9099Z" fill="#FFC239"/>
<path d="M48.0312 34.403L44.2603 36.5697V34.0419L48.0312 31.8752V34.403Z" fill="#FFF7F0"/>
<path d="M61.2294 26.7292L57.4585 28.9861V26.4584L61.2294 24.2014V26.7292Z" fill="#FFF7F0"/>
<path d="M74.3378 19.1459L70.5669 21.3126V18.7848L74.3378 16.6182V19.1459Z" fill="#FFF7F0"/>
<path d="M87.5355 11.4724L83.7646 13.639V11.1112L87.5355 8.94458V11.4724Z" fill="#FFF7F0"/>
<path d="M44.9784 40.3611L41.2075 42.5278V41.2639L44.9784 39.0972V40.3611ZM51.5326 35.3056L47.7617 37.4722V38.7361L51.5326 36.5695V35.3056ZM57.9072 31.6042L54.1363 33.7709V35.0347L57.9072 32.8681V31.6042ZM64.4614 27.8125L60.6905 29.9792V31.2431L64.4614 29.0764V27.8125ZM70.7462 24.1111L66.9753 26.2778V27.5417L70.7462 25.375V24.1111ZM77.3004 20.3195L73.5295 22.4861V23.75L77.3004 21.5834V20.3195ZM83.675 16.6181L79.9041 18.7847V20.0486L83.675 17.882V16.6181ZM90.2292 12.8264L86.4583 14.9931V16.257L90.2292 14.0903V12.8264Z" fill="#CCC9C6"/>
<path d="M90.9476 19.146L85.6504 22.2154V18.9654L90.9476 15.896V19.146Z" fill="#FFC239"/>
<path d="M64.1919 39.0071L46.7739 49.1182V45.9585L64.1919 35.8474V39.0071Z" fill="#FC3F3F"/>
<path d="M84.3033 31.6946L66.2568 42.2571V39.0071L84.3033 28.5349V31.6946Z" fill="#C2CE1D"/>
<path d="M75.4149 41.264L53.418 54.0834V50.8334L75.4149 38.1042V41.264Z" fill="#AD77B3"/>
<path d="M90.9476 36.6599L61.0498 53.9932V50.7432L90.9476 33.4099V36.6599Z" fill="#39B57C"/>
<path d="M46.6843 62.3889L40.4893 65.9097V62.75L46.6843 59.1389V62.3889Z" fill="#39B57C"/>
<path d="M84.8421 44.6042L53.418 62.8404V59.5904L84.8421 41.3542V44.6042Z" fill="#F06083"/>
<path opacity="0.6" d="M90.9476 45.5071L68.9507 58.2362V54.9862L90.9476 42.2571V45.5071Z" fill="#2F67D7"/>
<path opacity="0.6" d="M58.5357 64.2849L53.5078 67.1738V64.0141L58.5357 61.0349V64.2849Z" fill="#2F67D7"/>
<path d="M39.8604 75.8403V35.2153L91.4857 5.15283V45.7778L39.8604 75.8403ZM40.0399 35.2153V75.4792L91.3062 45.6876V5.51394L40.0399 35.2153Z" fill="#CCC9C6"/>
<path d="M46.5043 36.75H46.3247V41.1736H46.5043V36.75Z" fill="#CCC9C6"/>
<path d="M52.9686 27.7222H52.7891V68.1666H52.9686V27.7222Z" fill="#CCC9C6"/>
<path d="M59.3431 29.2571H59.1636V33.6807H59.3431V29.2571Z" fill="#CCC9C6"/>
<path d="M65.8075 20.3196H65.6279V60.764H65.8075V20.3196Z" fill="#CCC9C6"/>
<path d="M72.2723 21.7639H72.0928V26.1875H72.2723V21.7639Z" fill="#CCC9C6"/>
<path d="M78.6469 12.8264H78.4673V53.2709H78.6469V12.8264Z" fill="#CCC9C6"/>
<path d="M85.1112 14.271H84.9316V18.6946H85.1112V14.271Z" fill="#CCC9C6"/>
<path d="M91.3749 14.8556L39.9326 44.7854L40.0225 44.9417L91.4649 15.0119L91.3749 14.8556Z" fill="#CCC9C6"/>
<path d="M91.3871 19.2756L39.9448 49.2053L40.0348 49.3616L91.4771 19.4318L91.3871 19.2756Z" fill="#CCC9C6"/>
<path d="M91.4116 10.5056L39.9692 40.4353L40.0592 40.5916L91.5015 10.6618L91.4116 10.5056Z" fill="#CCC9C6"/>
<path d="M91.3998 23.6957L39.9575 53.6255L40.0474 53.7818L91.4898 23.852L91.3998 23.6957Z" fill="#CCC9C6"/>
<path d="M91.4121 28.1157L39.9697 58.0454L40.0597 58.2017L91.502 28.2719L91.4121 28.1157Z" fill="#CCC9C6"/>
<path d="M91.3798 32.4577L39.9375 62.3875L40.0274 62.5437L91.4697 32.614L91.3798 32.4577Z" fill="#CCC9C6"/>
<path d="M91.3925 36.8776L39.9502 66.8074L40.0401 66.9636L91.4824 37.0339L91.3925 36.8776Z" fill="#CCC9C6"/>
<path d="M91.4047 41.2975L39.9624 71.2273L40.0523 71.3836L91.4946 41.4538L91.4047 41.2975Z" fill="#CCC9C6"/>
<path d="M47.4024 29.6179L46.7739 29.2568V32.236L47.4024 32.6874V29.6179Z" fill="url(#paint0_linear_1177_351407)"/>
<path d="M54.8544 28.2638L47.4023 32.6874V29.618L54.8544 25.2847V28.2638Z" fill="#CFCBC7"/>
<path d="M47.4024 29.618L46.7739 29.2569L54.2259 24.8333L54.8544 25.2846L50.8142 27.6319L47.4024 29.618Z" fill="#EDE8E4"/>
<path d="M47.4023 29.618C50.9937 27.7222 53.1485 26.368 54.9441 25.2847C54.1361 25.6458 51.5324 26.9999 47.4023 29.618Z" fill="url(#paint1_radial_1177_351407)"/>
<path d="M77.6592 12.0137L76.9409 11.6526V14.722L77.6592 15.0831V12.0137Z" fill="url(#paint2_linear_1177_351407)"/>
<path d="M85.1112 10.7499L77.6592 15.0832V12.0138L85.1112 7.68042V10.7499Z" fill="#CFCBC7"/>
<path d="M77.6592 12.0138L76.9409 11.6527L84.4827 7.31934L85.1112 7.68045L81.0709 10.0277L77.6592 12.0138Z" fill="#EDE8E4"/>
<path d="M77.6592 12.0138C81.2505 10.1179 83.4053 8.76375 85.201 7.68042C84.3031 8.13181 81.6994 9.3957 77.6592 12.0138Z" fill="url(#paint3_radial_1177_351407)"/>
<path d="M86.0091 51.1945C85.7398 51.0139 85.4704 51.0139 85.2908 51.1042L83.585 52.0973L85.1113 54.8056L86.8172 53.8126C86.9967 53.7223 87.1763 53.4514 87.1763 53.0903C87.0865 52.3681 86.5478 51.5556 86.0091 51.1945Z" fill="url(#paint4_linear_1177_351407)"/>
<path d="M85.1116 54.2638C85.1116 53.5416 84.5729 52.6388 83.9444 52.2777C83.675 52.1874 83.4955 52.0972 83.3159 52.1874L83.6751 52.0972C83.8546 52.0972 84.0342 52.0972 84.3035 52.1874C84.932 52.5486 85.3809 53.3611 85.3809 54.0833C85.3809 54.3541 85.2911 54.6249 85.2014 54.7152L84.932 54.9861C85.1116 54.8055 85.1116 54.6249 85.1116 54.2638Z" fill="url(#paint5_linear_1177_351407)"/>
<path d="M69.3095 64.0139C69.489 63.9236 69.6686 63.6528 69.6686 63.2014C69.6686 62.4791 69.1299 61.5764 68.5014 61.2152C68.2321 61.0347 67.8729 61.0347 67.6934 61.125L83.1361 52.1875C83.3157 52.0972 83.585 52.0972 83.9441 52.2778C84.5726 52.6389 85.1113 53.5416 85.1113 54.2639C85.1113 54.625 85.0215 54.8958 84.7522 55.0764L69.3095 64.0139Z" fill="url(#paint6_linear_1177_351407)"/>
<path d="M68.5016 61.2154C68.1425 61.0349 67.7833 61.0349 67.514 61.3057L65.8081 63.3821L66.5264 64.5557L69.1301 64.1043C69.4892 64.014 69.6688 63.7432 69.6688 63.2918C69.6688 62.4793 69.1301 61.5765 68.5016 61.2154Z" fill="url(#paint7_linear_1177_351407)"/>
<path d="M66.0774 64.8266C65.808 65.0071 65.5387 65.0974 65.1795 65.0071H65.0897C64.551 64.8266 64.4613 64.1043 65.3591 63.5627L65.8978 63.2918C65.9876 63.2016 66.0774 63.2016 66.2569 63.2918C66.5263 63.4724 66.7956 63.8335 66.7956 64.1946C66.7956 64.3752 66.7058 64.4654 66.6161 64.5557L66.0774 64.8266Z" fill="#D2231F"/>
<path d="M65.2694 64.9168C65.1796 64.9168 65.0898 64.7363 65.0898 64.646C65.0898 64.5557 65.2694 64.4654 65.3592 64.5557C65.449 64.646 65.5388 64.7363 65.5388 64.8265C65.449 64.9168 65.3592 64.9168 65.2694 64.9168Z" fill="#F9403F"/>
<path d="M92.9222 50.5624C92.6528 50.3819 92.3835 50.3819 92.2039 50.4721L90.498 51.4652L92.0244 54.1735L93.7302 53.1805C93.9098 53.0902 94.0894 52.8194 94.0894 52.4583C93.9996 51.736 93.4609 50.8333 92.9222 50.5624Z" fill="url(#paint8_linear_1177_351407)"/>
<path d="M92.1145 53.6318C92.1145 52.9095 91.5758 52.0068 90.9473 51.6456C90.678 51.5554 90.4984 51.4651 90.3188 51.5554L90.678 51.4651C90.8575 51.4651 91.0371 51.4651 91.3065 51.5554C91.9349 51.9165 92.3839 52.729 92.3839 53.4512C92.3839 53.722 92.2941 53.9929 92.2043 54.0831L91.9349 54.354C92.0247 54.1734 92.1145 53.9026 92.1145 53.6318Z" fill="url(#paint9_linear_1177_351407)"/>
<path d="M76.2225 63.3818C76.4021 63.2915 76.5817 63.0207 76.5817 62.5693C76.5817 61.8471 76.043 60.9443 75.4145 60.5832C75.1451 60.4026 74.786 60.4026 74.6064 60.4929L90.0492 51.5554C90.2287 51.4651 90.4981 51.4651 90.8572 51.6457C91.4857 52.0068 92.0244 52.9096 92.0244 53.6318C92.0244 53.9929 91.9346 54.2637 91.6653 54.4443L76.2225 63.3818Z" fill="url(#paint10_linear_1177_351407)"/>
<path d="M75.4147 60.5834C75.0556 60.4028 74.6964 60.4028 74.4271 60.6736L72.7212 62.75L73.4395 63.9236L76.0432 63.4722C76.4023 63.382 76.5819 63.1111 76.5819 62.6597C76.5819 61.8472 76.0432 60.9445 75.4147 60.5834Z" fill="url(#paint11_linear_1177_351407)"/>
<path d="M73.0803 64.1945C72.8109 64.375 72.5416 64.4653 72.1825 64.375H72.0927C71.554 64.1945 71.4642 63.4722 72.362 62.9306L72.9007 62.6598C72.9905 62.5695 73.0803 62.6598 73.2599 62.6598C73.5292 62.8403 73.7986 63.2014 73.7986 63.5625C73.7986 63.7431 73.7088 63.8334 73.619 63.9236L73.0803 64.1945Z" fill="#2F67D7"/>
<path d="M72.1825 64.2847C72.0927 64.2847 72.0029 64.1042 72.0029 64.0139C72.0029 63.9236 72.1825 63.8333 72.2723 63.9236C72.3621 63.9236 72.4518 64.1042 72.4518 64.1945C72.3621 64.1945 72.2723 64.2847 72.1825 64.2847Z" fill="#4D83EB"/>
</g>
<defs>
<linearGradient id="paint0_linear_1177_351407" x1="46.2389" y1="31.7629" x2="47.8986" y2="30.1122" gradientUnits="userSpaceOnUse">
<stop stop-color="#B6B2AE"/>
<stop offset="1" stop-color="#BCB8B4"/>
</linearGradient>
<radialGradient id="paint1_radial_1177_351407" cx="0" cy="0" r="1" gradientUnits="userSpaceOnUse" gradientTransform="translate(51.1409 27.4223) scale(4.33519 4.35907)">
<stop stop-color="#FFFAF5"/>
<stop offset="0.0921567" stop-color="#FCF7F2"/>
<stop offset="0.5239" stop-color="#F1ECE7"/>
<stop offset="1" stop-color="#EDE8E4"/>
</radialGradient>
<linearGradient id="paint2_linear_1177_351407" x1="76.4827" y1="14.2053" x2="78.1424" y2="12.5547" gradientUnits="userSpaceOnUse">
<stop stop-color="#B6B2AE"/>
<stop offset="1" stop-color="#BCB8B4"/>
</linearGradient>
<radialGradient id="paint3_radial_1177_351407" cx="0" cy="0" r="1" gradientUnits="userSpaceOnUse" gradientTransform="translate(81.3848 9.86469) scale(4.33519 4.35906)">
<stop stop-color="#FFFAF5"/>
<stop offset="0.0921567" stop-color="#FCF7F2"/>
<stop offset="0.5239" stop-color="#F1ECE7"/>
<stop offset="1" stop-color="#EDE8E4"/>
</radialGradient>
<linearGradient id="paint4_linear_1177_351407" x1="84.7383" y1="51.4007" x2="86.3032" y2="54.0964" gradientUnits="userSpaceOnUse">
<stop stop-color="#F53E3D"/>
<stop offset="1" stop-color="#CA1D18"/>
</linearGradient>
<linearGradient id="paint5_linear_1177_351407" x1="83.7212" y1="52.0141" x2="85.3045" y2="54.4531" gradientUnits="userSpaceOnUse">
<stop stop-color="#FF4545"/>
<stop offset="1" stop-color="#E4312E"/>
</linearGradient>
<linearGradient id="paint6_linear_1177_351407" x1="75.8372" y1="56.4482" x2="77.5002" y2="59.3129" gradientUnits="userSpaceOnUse">
<stop stop-color="#EDE8E4"/>
<stop offset="1" stop-color="#CFCBC7"/>
</linearGradient>
<linearGradient id="paint7_linear_1177_351407" x1="67.3975" y1="61.2638" x2="68.5914" y2="67.4541" gradientUnits="userSpaceOnUse">
<stop stop-color="#CFCBC7"/>
<stop offset="1" stop-color="#B6B2AE"/>
</linearGradient>
<linearGradient id="paint8_linear_1177_351407" x1="91.6648" y1="50.7483" x2="93.2298" y2="53.4441" gradientUnits="userSpaceOnUse">
<stop stop-color="#4C82E9"/>
<stop offset="1" stop-color="#2762D4"/>
</linearGradient>
<linearGradient id="paint9_linear_1177_351407" x1="90.6476" y1="51.3617" x2="92.2311" y2="53.8008" gradientUnits="userSpaceOnUse">
<stop stop-color="#5387EE"/>
<stop offset="1" stop-color="#3E75E1"/>
</linearGradient>
<linearGradient id="paint10_linear_1177_351407" x1="82.7636" y1="55.7958" x2="84.4267" y2="58.6606" gradientUnits="userSpaceOnUse">
<stop stop-color="#EDE8E4"/>
<stop offset="1" stop-color="#CFCBC7"/>
</linearGradient>
<linearGradient id="paint11_linear_1177_351407" x1="74.3239" y1="60.6114" x2="75.5179" y2="66.8016" gradientUnits="userSpaceOnUse">
<stop stop-color="#CFCBC7"/>
<stop offset="1" stop-color="#B6B2AE"/>
</linearGradient>
<clipPath id="clip0_1177_351407">
<rect width="87" height="78" fill="white" transform="translate(7 1)"/>
</clipPath>
</defs>
</svg>
