<svg width="100" height="79" viewBox="0 0 100 79" fill="none" xmlns="http://www.w3.org/2000/svg">
<rect x="32.5" y="5.5" width="43" height="19.7059" rx="1.5" fill="#D4E5FF" stroke="#282F38"/>
<rect x="35.0859" y="15.853" width="37.8235" height="58.5294" rx="1.5" fill="#D4E5FF" stroke="#282F38"/>
<rect x="38.9688" y="19.7354" width="30.0588" height="44.2941" rx="0.5" fill="#E5E6ED" stroke="#282F38"/>
<rect x="42.3516" y="67.1177" width="3" height="3" fill="#282F38"/>
<rect x="52.5" y="67.1177" width="3" height="3" fill="#282F38"/>
<rect x="62.6484" y="67.1177" width="3" height="3" fill="#282F38"/>
<rect x="43.7362" y="32.2638" width="33.705" height="22.4724" rx="1.73622" transform="rotate(90 43.7362 32.2638)" fill="#F5F5FB" stroke="#282F38" stroke-width="0.527562"/>
<rect x="40.098" y="35.9005" width="6.72483" height="5.5143" rx="0.730835" transform="rotate(90 40.098 35.9005)" fill="#C99C29" stroke="#282F38" stroke-width="0.538329"/>
<path d="M37.9453 58.5101C36.4927 60.1242 34.5558 60.1243 33.1032 58.5102M36.9769 58.1467C36.1053 59.1152 34.9432 59.1152 34.0716 58.1467" stroke="#282F38" stroke-width="0.2" stroke-linecap="round" stroke-linejoin="round"/>
<path d="M35.5235 57.4206C35.3898 57.4206 35.2814 57.529 35.2814 57.6627C35.2814 57.7964 35.3898 57.9048 35.5235 57.9048C35.6572 57.9048 35.7656 57.7964 35.7656 57.6627C35.7656 57.529 35.6572 57.4206 35.5235 57.4206Z" fill="#282F38"/>
<path d="M42.0156 59.8135L42.0156 63.5279" stroke="#282F38" stroke-width="0.538329" stroke-linecap="round"/>
<path d="M38.3047 63.5283L42.0192 63.5283" stroke="#282F38" stroke-width="0.538329" stroke-linecap="round"/>
<rect x="24.6328" y="32" width="3.63158" height="33.8947" fill="#282F38"/>
</svg>
