<svg width="100" height="79" viewBox="0 0 100 79" fill="none" xmlns="http://www.w3.org/2000/svg">
<path d="M22.7422 55.3976V23.6782C22.7422 23.2667 22.9589 22.8866 23.3077 22.6682C26.2656 20.8158 28.9729 18.498 30.1406 16.3591C30.3735 15.9324 30.8021 15.6279 31.2883 15.6279H53.7734C54.1651 15.6279 54.5264 15.8251 54.7761 16.1269C56.3495 18.0284 60.0876 20.8449 61.8655 21.9517C62.2423 22.1862 62.4908 22.5916 62.4908 23.0354V62.1258C62.4908 62.7755 61.9621 63.3012 61.3125 63.2974L30.6998 63.1206C30.1586 63.1174 29.6975 62.7408 29.5246 62.228C28.3698 58.8031 25.643 57.2114 23.7518 56.6504C23.1853 56.4824 22.7422 55.9884 22.7422 55.3976Z" fill="#CCD3EB"/>
<path d="M16.4062 19.4975V11.1716C16.4062 10.5245 16.9308 10 17.5778 10H66.943C67.5901 10 68.1146 10.5245 68.1146 11.1716V68.2755C68.1146 68.9225 67.5901 69.4471 66.943 69.4471H17.5778C16.9308 69.4471 16.4062 68.9225 16.4062 68.2755V28.9949" stroke="#282F38" stroke-linecap="round"/>
<circle cx="16.407" cy="24.0706" r="1.11413" fill="#282F38" stroke="#282F38" stroke-width="0.585799"/>
<path d="M62.8426 37.4373V22.1396C62.8426 21.4683 62.2772 20.9373 61.6104 20.8601C59.4442 20.6092 56.4902 19.4094 55.6379 15.9586C55.4948 15.3791 55.004 14.9248 54.407 14.9248H30.7468C30.1843 14.9248 29.7068 15.3259 29.5462 15.865C28.8928 18.0573 27.247 20.9833 24.2298 21.0754C23.4679 21.0987 22.7422 21.643 22.7422 22.4052V55.8235C22.7422 56.382 23.1377 56.8579 23.6721 57.0198C25.8345 57.6753 28.8476 59.2987 29.3618 62.2186C29.4794 62.886 30.0002 63.4674 30.6779 63.4674H61.671C62.318 63.4674 62.8426 62.9428 62.8426 62.2958V41.3066" stroke="#282F38" stroke-width="1.1716" stroke-linecap="round"/>
<path d="M31.8828 29.6982H54.3953V45.8791H31.8828V29.6982Z" fill="#DDEAFF"/>
<path d="M42.2886 19.5622C42.382 19.5054 42.4992 19.5054 42.5926 19.5622L58.1039 28.9797C58.1845 29.0286 58.2161 29.0804 58.2314 29.1231C58.2493 29.1734 58.2534 29.2393 58.2339 29.309C58.2144 29.3787 58.1767 29.4328 58.1353 29.4665C58.1 29.4951 58.0462 29.523 57.9519 29.523H26.9294C26.8351 29.523 26.7812 29.4951 26.7459 29.4665C26.7045 29.4328 26.6668 29.3787 26.6473 29.309C26.6278 29.2393 26.6319 29.1734 26.6499 29.1231C26.6651 29.0804 26.6968 29.0286 26.7774 28.9797L42.2886 19.5622Z" fill="#DDEAFF" stroke="#282F38" stroke-width="1.7574"/>
<rect x="29.0703" y="30.4019" width="2.81406" height="14.7738" fill="#282F38"/>
<rect x="35.0469" y="30.4019" width="2.81406" height="14.7738" fill="#282F38"/>
<rect x="41.0312" y="30.4019" width="2.81406" height="14.7738" fill="#282F38"/>
<rect x="47.0078" y="30.4019" width="2.81406" height="14.7738" fill="#282F38"/>
<rect x="52.9922" y="30.4019" width="2.81406" height="14.7738" fill="#282F38"/>
<rect x="57.9141" y="45.1758" width="2.81406" height="30.9547" rx="1.40703" transform="rotate(90 57.9141 45.1758)" fill="#282F38"/>
<rect x="48.7656" y="43.769" width="35.8793" height="19.6984" fill="#CCD3EB"/>
<path d="M49.223 50.3065C51.5791 49.6748 52.453 47.1179 52.8566 45.1213C52.9696 44.5623 53.4454 44.1438 54.0155 44.1352L77.4115 43.7815C77.9072 43.774 78.3522 44.0814 78.538 44.541C79.8509 47.7889 81.0746 49.1309 81.0746 49.4851C81.0746 49.7512 81.1657 52.7457 81.1093 54.7701C81.0957 55.2589 80.7548 55.6682 80.3465 55.9373C78.784 56.9672 77.2294 59.6025 76.3722 61.3678C76.1691 61.7859 75.7509 62.0604 75.2861 62.0604H54.6165C53.9694 62.0604 53.4596 61.5203 53.2325 60.9145C52.5864 59.1908 50.594 57.9195 49.0468 57.3853C48.4952 57.1948 48.0625 56.702 48.0625 56.1184V51.624C48.0625 50.977 48.598 50.4741 49.223 50.3065Z" fill="#F4F3F3"/>
<path d="M62.8363 63.8192H49.2341C48.587 63.8192 48.0625 63.2947 48.0625 62.6476V44.9406C48.0625 44.2936 48.587 43.769 49.2341 43.769H83.8255C84.4725 43.769 84.9971 44.2936 84.9971 44.9406V62.6476C84.9971 63.2947 84.4725 63.8192 83.8255 63.8192H67.4092" stroke="#282F38" stroke-linecap="round"/>
<path d="M69.8711 50.2604H66.2736C65.8283 50.2604 65.4013 50.4373 65.0865 50.7522C64.7716 51.067 64.5947 51.494 64.5947 51.9393C64.5947 52.3845 64.7716 52.8116 65.0865 53.1264C65.4013 53.4413 65.8283 53.6181 66.2736 53.6181H68.6719C69.1172 53.6181 69.5442 53.795 69.859 54.1099C70.1739 54.4247 70.3508 54.8517 70.3508 55.297C70.3508 55.7422 70.1739 56.1693 69.859 56.4841C69.5442 56.7989 69.1172 56.9758 68.6719 56.9758H64.9465C63.721 56.9758 62.8359 56.1508 62.8359 55.0252L62.8359 50.1006" stroke="#282F38" stroke-width="0.801619" stroke-linecap="round" stroke-linejoin="round"/>
</svg>
