<svg width="100" height="79" viewBox="0 0 100 79" fill="none" xmlns="http://www.w3.org/2000/svg">
<rect x="15.6094" y="8" width="46.1311" height="62.6065" rx="2.63158" fill="#DDEAFF"/>
<path d="M21.8828 55.4707H51.4661" stroke="#282F38" stroke-width="1.31579" stroke-linecap="round"/>
<path d="M21.8828 43.7749H51.4661" stroke="#282F38" stroke-width="1.31579" stroke-linecap="round"/>
<path d="M21.8828 32.0796H51.4661" stroke="#282F38" stroke-width="1.31579" stroke-linecap="round"/>
<path d="M21.8828 20.3838H51.4661" stroke="#282F38" stroke-width="1.31579" stroke-linecap="round"/>
<path d="M15 11.4399V10.6316C15 9.1782 16.1782 8 17.6316 8H59.4953C60.9487 8 62.1269 9.1782 62.1269 10.6316V61.6627" stroke="#282F38" stroke-linecap="round"/>
<path d="M62.4688 67.1665V67.9749C62.4688 69.4282 61.2906 70.6064 59.8372 70.6064H17.9735C16.5201 70.6064 15.3419 69.4282 15.3419 67.9749V16.9437" stroke="#282F38" stroke-linecap="round"/>
<rect x="66.5938" y="42.4248" width="2.198" height="9.00356" transform="rotate(-39.6173 66.5938 42.4248)" fill="#282F38"/>
<path d="M72.0177 50.1488C71.786 49.8689 71.8251 49.4541 72.105 49.2225L73.7872 47.8299C74.0671 47.5983 74.4818 47.6373 74.7135 47.9172L82.9579 57.8769C83.5741 58.6213 83.4702 59.7243 82.7258 60.3406C81.9813 60.9568 80.8783 60.8528 80.2621 60.1084L72.0177 50.1488Z" fill="#8CC152" stroke="#282F38" stroke-width="1.31579"/>
<circle cx="56.9652" cy="30.7035" r="16.5417" fill="#8CC152" stroke="#282F38" stroke-width="1.31579"/>
<circle cx="56.9628" cy="30.7035" r="13.1018" fill="#C0E8F4" stroke="#282F38" stroke-width="1.31579"/>
<mask id="path-12-inside-1_280_36212" fill="white">
<path d="M70.3647 30.7035C70.5623 30.7035 70.723 30.8638 70.7178 31.0613C70.6305 34.4212 69.3157 37.6379 67.015 40.0993C64.6328 42.648 61.3714 44.1966 57.8906 44.4319C54.4099 44.6671 50.9697 43.5714 48.2662 41.3664C45.5627 39.1615 43.7977 36.0119 43.3283 32.5549C42.8588 29.098 43.7201 25.5918 45.7377 22.7457C47.7554 19.8997 50.7788 17.9263 54.1962 17.2249C57.6136 16.5234 61.1699 17.1463 64.1456 18.9674C67.0193 20.7262 69.1442 23.4758 70.1243 26.6907C70.182 26.8798 70.0698 27.0771 69.8794 27.1298C69.6889 27.1824 69.4923 27.0706 69.4344 26.8816C68.5029 23.8416 66.491 21.2418 63.772 19.5777C60.9511 17.8513 57.5798 17.2609 54.3401 17.9258C51.1004 18.5908 48.2342 20.4616 46.3215 23.1596C44.4088 25.8576 43.5923 29.1815 44.0373 32.4587C44.4823 35.7358 46.1556 38.7216 48.7185 40.8119C51.2814 42.9022 54.5426 43.9409 57.8424 43.7179C61.1421 43.4949 64.2339 42.0268 66.4923 39.6107C68.6691 37.2818 69.9148 34.2397 70.002 31.0613C70.0074 30.8638 70.1671 30.7035 70.3647 30.7035Z"/>
</mask>
<path d="M70.3647 30.7035C70.5623 30.7035 70.723 30.8638 70.7178 31.0613C70.6305 34.4212 69.3157 37.6379 67.015 40.0993C64.6328 42.648 61.3714 44.1966 57.8906 44.4319C54.4099 44.6671 50.9697 43.5714 48.2662 41.3664C45.5627 39.1615 43.7977 36.0119 43.3283 32.5549C42.8588 29.098 43.7201 25.5918 45.7377 22.7457C47.7554 19.8997 50.7788 17.9263 54.1962 17.2249C57.6136 16.5234 61.1699 17.1463 64.1456 18.9674C67.0193 20.7262 69.1442 23.4758 70.1243 26.6907C70.182 26.8798 70.0698 27.0771 69.8794 27.1298C69.6889 27.1824 69.4923 27.0706 69.4344 26.8816C68.5029 23.8416 66.491 21.2418 63.772 19.5777C60.9511 17.8513 57.5798 17.2609 54.3401 17.9258C51.1004 18.5908 48.2342 20.4616 46.3215 23.1596C44.4088 25.8576 43.5923 29.1815 44.0373 32.4587C44.4823 35.7358 46.1556 38.7216 48.7185 40.8119C51.2814 42.9022 54.5426 43.9409 57.8424 43.7179C61.1421 43.4949 64.2339 42.0268 66.4923 39.6107C68.6691 37.2818 69.9148 34.2397 70.002 31.0613C70.0074 30.8638 70.1671 30.7035 70.3647 30.7035Z" fill="#282F38" stroke="#282F38" stroke-width="2.63158" mask="url(#path-12-inside-1_280_36212)"/>
</svg>
