<svg width="100" height="79" viewBox="0 0 100 79" fill="none" xmlns="http://www.w3.org/2000/svg">
<path d="M15.5 9.04942L15.5 66.3381C15.5 67.1939 16.1938 67.8877 17.0496 67.8877L42.2106 67.8877L47.0946 67.8877L57.6037 67.8877C58.4595 67.8877 59.1533 67.1939 59.1533 66.3381L59.1533 19.5133C59.1533 18.6574 58.4595 17.9637 57.6037 17.9637L49.8854 17.9637C48.8386 17.9637 47.99 17.1151 47.99 16.0682L47.99 9.04942C47.99 8.1936 47.2962 7.49982 46.4404 7.49982L17.0496 7.49981C16.1938 7.49981 15.5 8.1936 15.5 9.04942Z" fill="#DDEAFF" stroke="#282F38" stroke-linecap="round"/>
<path d="M38.5938 64.1308C37.896 62.2706 36.5006 57.9921 36.5006 55.7598C35.8029 59.2477 33.7098 64.9679 30.919 59.9453C30.2213 62.0381 26.5932 62.5961 20.4533 62.0381" stroke="#282F38" stroke-width="0.703297" stroke-linecap="round"/>
<path d="M48.0625 30.0269H28.7416" stroke="#282F38" stroke-width="0.703297" stroke-linecap="round"/>
<path d="M48.0625 34.8569H28.7416" stroke="#282F38" stroke-width="0.703297" stroke-linecap="round"/>
<path d="M48.0625 39.6875H36.47" stroke="#282F38" stroke-width="0.703297" stroke-linecap="round"/>
<path d="M48.0625 44.5176H36.47" stroke="#282F38" stroke-width="0.703297" stroke-linecap="round"/>
<path d="M58.0349 18.0269L47.7344 8.31812L47.7344 15.7864C47.7344 15.7864 47.7344 16.5332 48.4701 17.28C49.2059 18.0269 49.9416 18.0269 49.9416 18.0269L58.0349 18.0269Z" fill="#F6F6F7" stroke="#282F38" stroke-width="1.0248" stroke-linecap="round"/>
<rect x="45.9844" y="40.416" width="32.5163" height="23.6353" rx="0.941444" fill="#245429" stroke="#1E2D56"/>
<circle cx="62.2107" cy="43.1556" r="13.5076" fill="#EBD5B0" stroke="#1E2D56"/>
<path d="M62.2109 30.1138C65.4311 35.749 69.9393 48.855 62.2109 56.1969C76.7016 57.646 82.6911 32.0459 62.2109 30.1138Z" fill="#E0B469"/>
<path d="M67.751 37.1236H62.2014C61.5145 37.1236 60.8558 37.3969 60.3701 37.8836C59.8844 38.3702 59.6116 39.0302 59.6116 39.7184C59.6116 40.4066 59.8844 41.0666 60.3701 41.5532C60.8558 42.0399 61.5145 42.3132 62.2014 42.3132H65.9011C66.588 42.3132 67.2467 42.5866 67.7324 43.0733C68.2181 43.5599 68.491 44.2199 68.491 44.9081C68.491 45.5963 68.2181 46.2563 67.7324 46.7429C67.2467 47.2296 66.588 47.5029 65.9011 47.5029H60.1542C58.2638 47.5029 56.8984 46.2278 56.8984 44.488L56.8984 36.8765" stroke="#1E2D56" stroke-linecap="round" stroke-linejoin="round"/>
<path d="M61.9398 55.3165C61.7016 55.128 61.7016 54.7667 61.9398 54.5782L78.0017 41.8703C78.3103 41.6261 78.7645 41.8459 78.7645 42.2394L78.7645 67.6553C78.7645 68.0488 78.3103 68.2686 78.0017 68.0244L61.9398 55.3165Z" fill="#F7FA5D" stroke="#1E2D56" stroke-width="0.5"/>
<path d="M62.5602 55.3092C62.7984 55.1207 62.7984 54.7593 62.5602 54.5709L46.4983 41.863C46.1897 41.6188 45.7355 41.8386 45.7355 42.2321L45.7355 67.6479C45.7355 68.0415 46.1897 68.2613 46.4983 68.0171L62.5602 55.3092Z" fill="#F7FA5D" stroke="#1E2D56" stroke-width="0.5"/>
<path d="M23.9062 18.4346H44.1932" stroke="black" stroke-linecap="round"/>
<path d="M23.9062 23.2646H44.1932" stroke="black" stroke-linecap="round"/>
<path d="M23.9062 28.0952H39.3629" stroke="black" stroke-linecap="round"/>
<path d="M23.9062 32.9253H39.3629" stroke="black" stroke-linecap="round"/>
<g filter="url(#filter0_d_280_37126)">
<path d="M61.7959 53.9415C62.0632 53.7221 62.4485 53.7234 62.7143 53.9445L78.5441 67.1173C79.0624 67.5487 78.7574 68.392 78.083 68.392H46.2089C45.5322 68.392 45.2286 67.5437 45.7516 67.1143L61.7959 53.9415Z" fill="#F3F563"/>
<path d="M61.9546 54.1347C62.1291 53.9914 62.3808 53.9923 62.5544 54.1367L78.3841 67.3095C78.7227 67.5912 78.5235 68.142 78.083 68.142H46.2089C45.767 68.142 45.5686 67.588 45.9102 67.3075L61.9546 54.1347Z" stroke="#1E2D56" stroke-width="0.5"/>
</g>
<path d="M23.9062 58.685C24.604 56.8248 25.9994 52.5463 25.9994 50.314C26.6971 53.8019 28.7902 59.5221 31.581 54.4995C32.2787 56.5923 35.9068 57.1503 42.0467 56.5923" stroke="#282F38" stroke-width="0.703297" stroke-linecap="round"/>
<defs>
<filter id="filter0_d_280_37126" x="44.7637" y="52.3364" width="34.7618" height="16.0557" filterUnits="userSpaceOnUse" color-interpolation-filters="sRGB">
<feFlood flood-opacity="0" result="BackgroundImageFix"/>
<feColorMatrix in="SourceAlpha" type="matrix" values="0 0 0 0 0 0 0 0 0 0 0 0 0 0 0 0 0 0 127 0" result="hardAlpha"/>
<feOffset dy="-0.720722"/>
<feGaussianBlur stdDeviation="0.360361"/>
<feComposite in2="hardAlpha" operator="out"/>
<feColorMatrix type="matrix" values="0 0 0 0 0 0 0 0 0 0 0 0 0 0 0 0 0 0 0.2 0"/>
<feBlend mode="normal" in2="BackgroundImageFix" result="effect1_dropShadow_280_37126"/>
<feBlend mode="normal" in="SourceGraphic" in2="effect1_dropShadow_280_37126" result="shape"/>
</filter>
</defs>
</svg>
