<svg width="100" height="79" viewBox="0 0 100 79" fill="none" xmlns="http://www.w3.org/2000/svg">
<path d="M15 63.25V57.7765C15 57.3476 15.3476 57 15.7765 57H25.5V15.3021C25.5 15.2674 25.4979 15.2346 25.4942 15.2001C25.4519 14.8013 25.2395 12.0985 27 10.25C29.1429 8 32.25 8 32.25 8H78.75C82.8505 7.99997 84.6676 12.3592 84.9579 13.1332C84.9872 13.2114 85 13.2925 85 13.376V24.4735C85 24.9024 84.6524 25.25 84.2235 25.25H72V61.25C72 63.85 71.3333 66.3333 71 67.25C69.8 70.05 65.8333 71.4167 64 71.75H24C17.6 71.35 15.3333 65.9167 15 63.25Z" fill="#DDEAFF"/>
<path d="M64 71.75H24C17.6 71.35 15.3333 65.9167 15 63.25V57.7765C15 57.3476 15.3476 57 15.7765 57H25.5M64 71.75C61 71.4167 55 69.1 55 62.5V57.7765C55 57.3476 54.6524 57 54.2235 57H25.5M64 71.75C65.8333 71.4167 69.8 70.05 71 67.25C71.3333 66.3333 72 63.85 72 61.25V25.25M72 25.25H84.2235C84.6524 25.25 85 24.9024 85 24.4735V13.376C85 13.2925 84.9872 13.2114 84.9579 13.1332C84.6676 12.3592 82.8505 7.99997 78.75 8M72 25.25V13.4094C72 13.3042 72.0205 13.2018 72.0657 13.1068C72.4658 12.2653 74.6939 8.00003 78.75 8M78.75 8L32.25 8C32.25 8 32.25 8 32.25 8C32.25 8 29.1429 8 27 10.25C25.2395 12.0985 25.4519 14.8013 25.4942 15.2001C25.4979 15.2346 25.5 15.2674 25.5 15.3021V57M36.477 52.4318C47.607 52.4318 47.8849 52.4318 59.0149 52.4318M63 44.5H33.75" stroke="#282F38" stroke-linecap="round"/>
<path d="M57.4999 29.3982V21.2299C57.4999 20.9358 57.3337 20.6669 57.0707 20.5354L48.3518 16.176C48.1306 16.0654 47.8699 16.0668 47.6499 16.1797L39.153 20.543C38.904 20.6709 38.7431 20.923 38.7319 21.2027L38.4999 27C38.2999 30.8 40.0833 33.1667 41 34L44.4999 36.75L47.5374 38.9196C47.8128 39.1163 48.1836 39.1117 48.457 38.9122C49.6409 38.0482 50.847 37.2377 52.25 36C54.649 33.8837 57.0445 30.9024 57.4712 29.5965C57.4921 29.5323 57.4999 29.4658 57.4999 29.3982Z" fill="#DDEAFF"/>
<path d="M44.2499 27.25L46.4508 29.451C46.7541 29.7542 47.2457 29.7542 47.5489 29.451L51.4999 25.5M52.25 36C54.649 33.8837 57.0446 30.9024 57.4712 29.5965C57.4921 29.5323 57.4999 29.4658 57.4999 29.3982V21.2299C57.4999 20.9358 57.3337 20.6669 57.0707 20.5354L48.3518 16.176C48.1306 16.0654 47.8699 16.0668 47.6499 16.1797L39.153 20.543C38.904 20.6709 38.7431 20.923 38.7319 21.2027L38.4999 27C38.2999 30.8 40.0833 33.1667 41 34L44.4999 36.75L47.5374 38.9196C47.8128 39.1163 48.1836 39.1117 48.457 38.9122C49.6409 38.0482 50.847 37.2377 52.25 36Z" stroke="#8CC152" stroke-width="1.16471" stroke-linecap="round"/>
</svg>
