<svg width="100" height="79" viewBox="0 0 100 79" fill="none" xmlns="http://www.w3.org/2000/svg">
<mask id="path-1-inside-1_280_39851" fill="white">
<path fill-rule="evenodd" clip-rule="evenodd" d="M82.7272 20.1429C82.7272 19.5117 82.2155 19 81.5843 19H19.1429C18.5117 19 18 19.5117 18 20.1429V64.4025C18 65.0337 18.5117 65.5454 19.1429 65.5454H81.5843C82.2155 65.5454 82.7272 65.0337 82.7272 64.4025V20.1429ZM79.0908 54.948C79.0908 55.5792 78.5792 56.0909 77.948 56.0909H23.1429C22.5117 56.0909 22 55.5792 22 54.948V23.7792C22 23.148 22.5117 22.6364 23.1429 22.6364H77.948C78.5792 22.6364 79.0908 23.148 79.0908 23.7792V54.948Z"/>
<path d="M22 54.948C22 55.5792 22.5117 56.0909 23.1429 56.0909H77.948C78.5792 56.0909 79.0908 55.5792 79.0908 54.948V23.7792C79.0908 23.148 78.5792 22.6364 77.948 22.6364H23.1429C22.5117 22.6364 22 23.148 22 23.7792V54.948Z"/>
</mask>
<path fill-rule="evenodd" clip-rule="evenodd" d="M82.7272 20.1429C82.7272 19.5117 82.2155 19 81.5843 19H19.1429C18.5117 19 18 19.5117 18 20.1429V64.4025C18 65.0337 18.5117 65.5454 19.1429 65.5454H81.5843C82.2155 65.5454 82.7272 65.0337 82.7272 64.4025V20.1429ZM79.0908 54.948C79.0908 55.5792 78.5792 56.0909 77.948 56.0909H23.1429C22.5117 56.0909 22 55.5792 22 54.948V23.7792C22 23.148 22.5117 22.6364 23.1429 22.6364H77.948C78.5792 22.6364 79.0908 23.148 79.0908 23.7792V54.948Z" fill="#174AA4"/>
<path d="M22 54.948C22 55.5792 22.5117 56.0909 23.1429 56.0909H77.948C78.5792 56.0909 79.0908 55.5792 79.0908 54.948V23.7792C79.0908 23.148 78.5792 22.6364 77.948 22.6364H23.1429C22.5117 22.6364 22 23.148 22 23.7792V54.948Z" fill="#E5E6ED"/>
<path d="M23.1429 56.3766H77.948V55.8051H23.1429V56.3766ZM79.3765 54.948V23.7792H78.8051V54.948H79.3765ZM77.948 22.3506H23.1429V22.9221H77.948V22.3506ZM21.7143 23.7792V54.948H22.2857V23.7792H21.7143ZM23.1429 22.3506C22.3539 22.3506 21.7143 22.9902 21.7143 23.7792H22.2857C22.2857 23.3058 22.6695 22.9221 23.1429 22.9221V22.3506ZM79.3765 23.7792C79.3765 22.9902 78.737 22.3506 77.948 22.3506V22.9221C78.4214 22.9221 78.8051 23.3058 78.8051 23.7792H79.3765ZM77.948 56.3766C78.737 56.3766 79.3765 55.737 79.3765 54.948H78.8051C78.8051 55.4214 78.4214 55.8051 77.948 55.8051V56.3766ZM23.1429 55.8051C22.6695 55.8051 22.2857 55.4214 22.2857 54.948H21.7143C21.7143 55.737 22.3539 56.3766 23.1429 56.3766V55.8051ZM19.1429 19.5714H81.5843V18.4286H19.1429V19.5714ZM82.1558 20.1429V64.4025H83.2986V20.1429H82.1558ZM81.5843 64.974H19.1429V66.1168H81.5843V64.974ZM18.5714 64.4025V20.1429H17.4286V64.4025H18.5714ZM19.1429 64.974C18.8273 64.974 18.5714 64.7181 18.5714 64.4025H17.4286C17.4286 65.3493 18.1961 66.1168 19.1429 66.1168V64.974ZM82.1558 64.4025C82.1558 64.7181 81.8999 64.974 81.5843 64.974V66.1168C82.5311 66.1168 83.2986 65.3493 83.2986 64.4025H82.1558ZM81.5843 19.5714C81.8999 19.5714 82.1558 19.8273 82.1558 20.1429H83.2986C83.2986 19.1961 82.5311 18.4286 81.5843 18.4286V19.5714ZM19.1429 18.4286C18.1961 18.4286 17.4286 19.1961 17.4286 20.1429H18.5714C18.5714 19.8273 18.8273 19.5714 19.1429 19.5714V18.4286Z" fill="#282F38" mask="url(#path-1-inside-1_280_39851)"/>
<path d="M60.9112 72.0909L59.093 65.5454H41.6385L39.8203 72.0909H60.9112Z" fill="#174AA4" stroke="#282F38" stroke-width="1.14286" stroke-linecap="round"/>
<rect x="36.1797" y="72.0908" width="28.3636" height="2.90909" rx="1.45454" fill="#282F38"/>
<rect x="33.1016" y="17.1465" width="34.6945" height="25.5012" rx="1.44144" fill="#245429"/>
<path d="M57.9895 7.85956L57.9894 7.85973L57.9988 7.86917L61.2546 11.1249V30.6059C61.2546 31.9414 60.1719 33.0241 58.8364 33.0241H42.7317C41.3962 33.0241 40.3135 31.9414 40.3135 30.6059V7.77857C40.3135 6.44303 41.3962 5.36036 42.7317 5.36036H55.6689L57.9895 7.85956Z" fill="#DDEAFF" stroke="#282F38" stroke-width="0.720722"/>
<path d="M55.5341 11.2762L55.4703 5.49367C55.4697 5.44374 55.5302 5.41847 55.5653 5.45395L61.231 11.1746C61.2655 11.2095 61.2412 11.2687 61.1921 11.2693L55.5903 11.3311C55.5596 11.3315 55.5345 11.3069 55.5341 11.2762Z" fill="#DDEAFF" stroke="#282F38" stroke-width="0.720722" stroke-linecap="round"/>
<path d="M43.125 22.1006L58.7188 22.1006" stroke="#282F38" stroke-width="0.720722" stroke-linecap="round"/>
<path d="M43.125 14.7622L58.7188 14.7622" stroke="#282F38" stroke-width="0.720722" stroke-linecap="round"/>
<path d="M43.125 25.77L58.7188 25.77" stroke="#282F38" stroke-width="0.720722" stroke-linecap="round"/>
<path d="M43.125 18.4312L58.7188 18.4312" stroke="#282F38" stroke-width="0.720722" stroke-linecap="round"/>
<path d="M49.9409 33.2713C49.5762 32.9827 49.5762 32.4294 49.9409 32.1409L66.6336 18.9339C67.1061 18.5601 67.8015 18.8966 67.8015 19.4991L67.8015 45.913C67.8015 46.5155 67.1061 46.8521 66.6336 46.4782L49.9409 33.2713Z" fill="#8CC152"/>
<path d="M50.9575 33.264C51.3222 32.9754 51.3222 32.4221 50.9575 32.1335L34.2648 18.9266C33.7923 18.5527 33.0969 18.8893 33.0969 19.4918L33.0969 45.9057C33.0969 46.5082 33.7923 46.8448 34.2648 46.4709L50.9575 33.264Z" fill="#8CC152"/>
<g filter="url(#filter0_d_280_39851)">
<path d="M50.012 31.6292C50.2744 31.4208 50.6458 31.4208 50.9082 31.6292L67.9065 45.1234C68.4411 45.5478 68.141 46.4086 67.4584 46.4086H33.4618C32.7791 46.4086 32.479 45.5478 33.0137 45.1234L50.012 31.6292Z" fill="#59A760"/>
</g>
<defs>
<filter id="filter0_d_280_39851" x="32.0215" y="30.0317" width="36.8789" height="16.377" filterUnits="userSpaceOnUse" color-interpolation-filters="sRGB">
<feFlood flood-opacity="0" result="BackgroundImageFix"/>
<feColorMatrix in="SourceAlpha" type="matrix" values="0 0 0 0 0 0 0 0 0 0 0 0 0 0 0 0 0 0 127 0" result="hardAlpha"/>
<feOffset dy="-0.720722"/>
<feGaussianBlur stdDeviation="0.360361"/>
<feComposite in2="hardAlpha" operator="out"/>
<feColorMatrix type="matrix" values="0 0 0 0 0 0 0 0 0 0 0 0 0 0 0 0 0 0 0.2 0"/>
<feBlend mode="normal" in2="BackgroundImageFix" result="effect1_dropShadow_280_39851"/>
<feBlend mode="normal" in="SourceGraphic" in2="effect1_dropShadow_280_39851" result="shape"/>
</filter>
</defs>
</svg>
