<svg width="100" height="79" viewBox="0 0 100 79" fill="none" xmlns="http://www.w3.org/2000/svg">
<path d="M22 66.0972V71.557H70.1059V66.0972C70.1059 57.7226 58.2975 53.4718 46.2351 53.4883C34.2445 53.5049 22 57.2313 22 66.0972Z" fill="#364A69"/>
<path d="M46.2925 53.4883C41.4951 53.4883 38.2656 54.0735 38.2656 54.0735L41.7988 71.557H46.2925V53.4883Z" fill="#B6BCCD"/>
<path d="M46.0547 53.4883C50.6919 53.4883 53.8497 54.0679 53.8497 54.0679L50.3 71.557H46.0547V53.4883Z" fill="#B6BCCD"/>
<path d="M47.2333 63.2753H44.5696L43.7336 59.6343H48.0409L47.2333 63.2753ZM48.1778 72.1546H43.625L44.5696 63.2753H47.2333L48.1778 72.1546Z" fill="#E9573F"/>
<path d="M46.0571 50.728H41.0444V56.0222C41.0444 58.4181 42.8221 59.6547 45.3394 59.6547L47.3655 59.5609C49.8828 59.5609 51.0753 58.4126 51.0753 56.0222V50.728H46.0571ZM63.8001 29.9487C63.8001 29.9487 67.0517 30.5118 67.0517 34.0174C67.0517 37.1089 64.6779 38.3289 62.304 38.3289V29.9487H63.8001ZM28.3141 29.9487C28.3141 29.9487 25.0625 30.5118 25.0625 34.0174C25.0625 37.1089 27.4363 38.3289 29.8102 38.3289V29.9487H28.3141Z" fill="#C99C29"/>
<path d="M46.055 7C32.0328 7 28.3672 17.8699 28.3672 33.1397C28.3672 48.9726 38.5415 53.0689 46.055 53.0689C53.458 53.0689 63.7428 49.0941 63.7428 33.1397C63.7428 17.8699 60.0771 7 46.055 7Z" fill="#C99C29"/>
<path d="M46.4757 5.00707C46.4757 5.00707 46.1996 4.99603 46.0837 5.00155C45.9678 5.00155 45.6917 5.00707 45.6917 5.00707C30.56 5.29965 26 14.403 26 20.713C26 26.8463 26.0055 31.3566 26.0055 31.3566C26.0055 31.3566 26.2484 31.1082 26.6901 30.7604C27.1648 30.3905 27.6893 30.1862 27.6893 30.1862L28.4511 35.3093L33.4914 24.7761C33.5245 24.7099 33.5907 24.6712 33.6625 24.6823L36.6491 25.0135C39.6523 25.3447 42.672 25.5103 45.6862 25.5159V25.5214C45.8187 25.5214 45.9457 25.5159 46.0782 25.5159C46.2107 25.5159 46.3376 25.5214 46.4701 25.5214V25.5159C49.4844 25.5048 52.5041 25.3447 55.5073 25.0135L58.4939 24.6823C58.5656 24.6767 58.6319 24.7154 58.665 24.7761L63.7052 35.3093L64.4671 30.1862C64.4671 30.1862 64.9915 30.396 65.4663 30.7604C65.9135 31.1082 66.1508 31.3566 66.1508 31.3566C66.1508 31.3566 66.1564 26.8518 66.1564 20.713C66.1619 14.403 61.6019 5.29965 46.4757 5.00707Z" fill="#282F38"/>
<path d="M51.1289 53.7095C51.1289 54.5541 50.4057 56.1495 49.2519 57.4745C48.0816 58.8215 46.1328 59.6551 46.1328 59.6551L51.8686 65.7718L53.9223 54.0738C53.9223 54.0794 52.2164 53.8144 51.1289 53.7095Z" fill="white"/>
<path d="M52.9394 53.9302L49.4062 71.5572H53.4142L59.7517 64.9381L57.1295 61.2946L61.0601 58.6944L58.8464 55.1889C58.8464 55.1889 56.0585 54.3387 52.9394 53.9302Z" fill="#282F38"/>
<path d="M41.1114 53.7036C41.1114 54.5483 41.8346 56.1437 42.9884 57.4686C44.1587 58.8156 46.1075 59.6492 46.1075 59.6492L40.3772 65.7715L38.3125 54.0624C38.318 54.0624 39.9907 53.7975 41.1114 53.7036Z" fill="white"/>
<path d="M39.2949 53.9189L42.828 71.557H38.8035L32.4881 64.9103L35.1103 61.2668L31.1797 58.6666L33.421 55.1114C33.421 55.1114 36.1702 54.3275 39.2949 53.9189Z" fill="#282F38"/>
<path d="M77.886 66.9169C77.886 71.3172 74.319 74.8842 69.9187 74.8842C65.5185 74.8842 61.9514 71.3172 61.9514 66.9169C61.9514 64.713 62.846 62.2204 64.2958 60.2793C65.7465 58.3372 67.7368 56.967 69.9187 56.967C72.1007 56.967 74.091 58.3372 75.5416 60.2793C76.9914 62.2204 77.886 64.713 77.886 66.9169Z" fill="#AD7043" stroke="#282F38" stroke-width="0.230937"/>
<path d="M72.859 63.1812H70.1346C69.7974 63.1812 69.474 63.3276 69.2356 63.5882C68.9972 63.8488 68.8632 64.2023 68.8632 64.5708C68.8632 64.9394 68.9972 65.2929 69.2356 65.5535C69.474 65.8141 69.7974 65.9605 70.1346 65.9605H71.9509C72.2881 65.9605 72.6115 66.1069 72.8499 66.3675C73.0884 66.6282 73.2223 66.9816 73.2223 67.3502C73.2223 67.7188 73.0884 68.0722 72.8499 68.3329C72.6115 68.5935 72.2881 68.7399 71.9509 68.7399H69.1296C68.2015 68.7399 67.5312 68.057 67.5312 67.1252L67.5313 63.0488" stroke="#DDEAFF" stroke-width="0.690826" stroke-linecap="round" stroke-linejoin="round"/>
<path d="M66.1388 52.5064L68.1213 57.0815H71.7815L72.849 54.6414C73.7641 52.6589 73.1601 52.2013 72.544 52.2013H69.0364C66.3523 51.1033 65.9863 51.9472 66.1388 52.5064Z" fill="#AD7043"/>
<path d="M69.0364 52.2013C66.3523 51.1033 65.9863 51.9472 66.1388 52.5064L68.1213 57.0815H71.7815L72.849 54.6414C73.7641 52.6589 73.1601 52.2013 72.544 52.2013H69.0364ZM69.0364 52.2013L69.4939 54.4889" stroke="#282F38" stroke-width="0.230937" stroke-linecap="round"/>
<path d="M66.7188 57.1567H73.5815" stroke="#282F38" stroke-width="0.230937" stroke-linecap="round"/>
</svg>
