<svg width="100" height="79" viewBox="0 0 100 79" fill="none" xmlns="http://www.w3.org/2000/svg">
<rect x="20.8828" y="10.5" width="38.4098" height="53.578" rx="1.5" fill="#F6F6F7" stroke="#282F38"/>
<path d="M15.5 66.5684V16.8613C15.5 16.0329 16.1716 15.3613 17 15.3613H38.802H43.0741H52.0597C52.8881 15.3613 53.5597 16.0329 53.5597 16.8613V57.4138C53.5597 58.2422 52.8881 58.9138 52.0597 58.9138H45.5154C44.5651 58.9138 43.7948 59.6841 43.7948 60.6344V66.5684C43.7948 67.3968 43.1232 68.0684 42.2948 68.0684H17C16.1716 68.0684 15.5 67.3968 15.5 66.5684Z" fill="#F6F6F7" stroke="#282F38" stroke-linecap="round"/>
<path d="M22.3203 63.686C22.9306 62.0585 24.1512 58.3153 24.1512 56.3623C24.7615 59.4138 26.5925 64.4184 29.0337 60.0241C29.644 61.8551 32.8176 62.3433 38.1883 61.8551" stroke="#282F38" stroke-linecap="round"/>
<path d="M22.3203 44.1562H47.3429" stroke="#282F38" stroke-linecap="round"/>
<path d="M22.3203 38.0532H47.3429" stroke="#282F38" stroke-linecap="round"/>
<path d="M22.3203 31.9497H47.3429" stroke="#282F38" stroke-linecap="round"/>
<path d="M27.2031 25.8467L43.0711 25.8467" stroke="#282F38" stroke-linecap="round"/>
<path d="M52.2318 58.8037L43.6875 66.7377V60.6346C43.6875 60.6346 43.6875 60.0243 44.2978 59.414C44.9081 58.8037 45.5184 58.8037 45.5184 58.8037H52.2318Z" fill="#F6F6F7" stroke="#282F38" stroke-linecap="round"/>
<circle cx="54.9688" cy="50.2637" r="12" fill="#8CC152"/>
<rect x="26.7783" y="41.2041" width="59.0049" height="14.5787" rx="2.10563" transform="rotate(9.17584 26.7783 41.2041)" fill="white"/>
<path d="M33.8565 48.0171L33.1881 52.155L32.6396 52.0664L33.308 47.9285L33.8565 48.0171ZM36.4057 48.4289L34.2419 50.4151L33.27 50.2581L33.2582 49.7896L33.9885 49.9076L35.7265 48.3191L36.4057 48.4289ZM35.186 52.4777L33.9436 50.294L34.3281 49.8633L35.8567 52.586L35.186 52.4777ZM36.034 52.1743L35.7985 53.6323L35.2728 53.5473L35.5083 52.0894L36.034 52.1743ZM38.5079 52.4748L38.7636 50.8918C38.7832 50.7706 38.7756 50.6614 38.7407 50.5644C38.708 50.4658 38.6473 50.3841 38.5587 50.3192C38.47 50.2544 38.3546 50.2105 38.2125 50.1875C38.0799 50.1661 37.9597 50.17 37.8519 50.1992C37.7461 50.2288 37.6588 50.2759 37.59 50.3406C37.5231 50.4057 37.4828 50.4808 37.469 50.5661L36.9432 50.4811C36.961 50.3712 37.007 50.2669 37.0813 50.1681C37.1556 50.0693 37.2528 49.9849 37.373 49.9148C37.4954 49.8432 37.6355 49.7939 37.7935 49.767C37.9536 49.7384 38.1265 49.7391 38.3122 49.7691C38.5357 49.8052 38.7267 49.8749 38.8849 49.9783C39.0451 50.0819 39.1611 50.2183 39.233 50.3873C39.307 50.5548 39.3255 50.7532 39.2885 50.9824L39.0571 52.4148C39.0406 52.5171 39.0315 52.6274 39.0299 52.7457C39.0302 52.8644 39.0416 52.9683 39.0641 53.0575L39.0568 53.1029L38.5083 53.0143C38.4915 52.9494 38.4837 52.8655 38.4848 52.7627C38.4861 52.6579 38.4938 52.562 38.5079 52.4748ZM38.8151 51.1509L38.7611 51.5213L38.2296 51.4355C38.08 51.4113 37.9444 51.402 37.823 51.4077C37.7018 51.4114 37.5976 51.4306 37.5104 51.4651C37.4232 51.4996 37.3529 51.5495 37.2996 51.6147C37.2466 51.6781 37.2124 51.7572 37.1971 51.8519C37.1815 51.9485 37.1891 52.0401 37.2198 52.1268C37.2505 52.2134 37.3057 52.2874 37.3852 52.3488C37.4669 52.4087 37.5721 52.449 37.701 52.4698C37.862 52.4959 38.0096 52.4847 38.1438 52.4364C38.2779 52.3881 38.389 52.3205 38.4769 52.2336C38.5667 52.147 38.6219 52.0577 38.6426 51.9658L38.8263 52.255C38.8002 52.3325 38.7499 52.4147 38.6756 52.5019C38.6013 52.589 38.5076 52.6692 38.3947 52.7423C38.284 52.8138 38.1567 52.8681 38.0127 52.9051C37.8709 52.9405 37.7166 52.9448 37.5499 52.9178C37.3414 52.8842 37.1652 52.8139 37.0211 52.707C36.8789 52.6005 36.7752 52.4719 36.7101 52.3215C36.6472 52.1694 36.6295 52.0081 36.6571 51.8376C36.6837 51.6727 36.7393 51.533 36.8239 51.4183C36.9088 51.3018 37.0187 51.2117 37.1534 51.1479C37.2884 51.0822 37.4447 51.0414 37.6223 51.0253C37.7998 51.0093 37.9938 51.0183 38.2041 51.0522L38.8151 51.1509ZM40.7028 50.8201L40.1106 54.4863L39.582 54.4009L40.2696 50.1436L40.7528 50.2217L40.7028 50.8201ZM42.6258 52.0756L42.6162 52.1353C42.58 52.3588 42.52 52.562 42.4361 52.7448C42.3524 52.9257 42.2481 53.078 42.1231 53.2017C42.0001 53.3256 41.8584 53.4145 41.698 53.4683C41.5377 53.5222 41.3619 53.5336 41.1705 53.5027C40.9754 53.4712 40.8082 53.4111 40.6689 53.3225C40.5296 53.2339 40.4178 53.1196 40.3335 52.9796C40.2492 52.8397 40.1897 52.6784 40.155 52.4959C40.1223 52.3137 40.1119 52.1128 40.1241 51.8931L40.1755 51.5748C40.235 51.3511 40.3105 51.1543 40.4021 50.9844C40.4937 50.8146 40.6009 50.6744 40.7237 50.564C40.8487 50.452 40.9905 50.3748 41.149 50.3323C41.3078 50.288 41.4838 50.2814 41.6771 50.3126C41.8703 50.3439 42.0357 50.4094 42.1731 50.5094C42.3108 50.6075 42.4197 50.7339 42.4997 50.8888C42.5796 51.0436 42.6296 51.2218 42.6495 51.4233C42.6717 51.6232 42.6638 51.8407 42.6258 52.0756ZM42.0876 52.0499L42.0972 51.9902C42.122 51.8367 42.1291 51.6901 42.1187 51.5504C42.1085 51.4088 42.0776 51.2813 42.0259 51.168C41.9764 51.0531 41.9043 50.9578 41.8096 50.8823C41.7152 50.8048 41.596 50.7545 41.452 50.7312C41.3194 50.7098 41.2001 50.7138 41.0942 50.7434C40.9903 50.7733 40.8979 50.8215 40.8172 50.8882C40.7367 50.953 40.6667 51.0311 40.6072 51.1226C40.55 51.2125 40.5025 51.3078 40.4648 51.4087L40.3459 52.1447C40.3624 52.2835 40.3952 52.4171 40.4445 52.5456C40.494 52.6722 40.5698 52.7806 40.6718 52.871C40.7742 52.9595 40.9116 53.0176 41.084 53.0455C41.2261 53.0684 41.353 53.0588 41.4648 53.0166C41.5788 52.9728 41.6774 52.9041 41.7605 52.8107C41.8456 52.7175 41.9151 52.6062 41.969 52.4769C42.0233 52.3457 42.0628 52.2033 42.0876 52.0499ZM44.4295 52.4632L43.864 52.3718L43.9163 52.0478L44.4392 52.1323C44.5851 52.1559 44.7036 52.1565 44.7946 52.1343C44.886 52.1102 44.9551 52.0679 45.0018 52.0074C45.0485 51.9469 45.079 51.8721 45.0934 51.7831C45.1063 51.7035 45.0975 51.6253 45.0672 51.5485C45.039 51.47 44.9839 51.4018 44.9019 51.3439C44.8202 51.284 44.7045 51.242 44.5548 51.2178C44.4336 51.1982 44.3202 51.2023 44.2146 51.2299C44.1094 51.2557 44.0214 51.3008 43.9507 51.3652C43.8823 51.428 43.8407 51.5049 43.826 51.5958L43.3002 51.5109C43.3305 51.3233 43.4096 51.1709 43.5374 51.0535C43.6675 50.9345 43.8275 50.8525 44.0175 50.8073C44.2094 50.7625 44.4115 50.7573 44.6237 50.7915C44.8018 50.8203 44.9577 50.8659 45.0915 50.9283C45.2275 50.9892 45.3386 51.0655 45.4249 51.1572C45.5115 51.247 45.5713 51.3519 45.6044 51.4719C45.6397 51.5904 45.6456 51.7226 45.622 51.8685C45.6052 51.9727 45.5647 52.0672 45.5004 52.1521C45.4361 52.237 45.3518 52.3079 45.2473 52.3649C45.1431 52.42 45.0215 52.4567 44.8825 52.4751C44.7453 52.4938 44.5943 52.4898 44.4295 52.4632ZM43.8961 52.1729L44.4616 52.2642C44.6454 52.2939 44.8045 52.3381 44.9389 52.3967C45.0736 52.4535 45.1828 52.5236 45.2665 52.6071C45.3502 52.6906 45.4076 52.7864 45.4388 52.8945C45.4721 53.001 45.4784 53.1186 45.4576 53.2475C45.4343 53.3915 45.384 53.5165 45.3066 53.6226C45.2314 53.7271 45.1343 53.8105 45.0154 53.873C44.8964 53.9354 44.7597 53.9755 44.6052 53.9933C44.4525 54.0115 44.2872 54.0061 44.1091 53.9774C43.9102 53.9452 43.7224 53.8799 43.5459 53.7814C43.3693 53.6829 43.2319 53.5528 43.1336 53.3911C43.0356 53.2275 43.0045 53.0349 43.0403 52.8132L43.5661 52.8982C43.5511 52.991 43.5662 53.0839 43.6115 53.1767C43.6567 53.2696 43.7273 53.35 43.8233 53.418C43.9211 53.4863 44.0392 53.5316 44.1775 53.5539C44.3253 53.5778 44.4521 53.5749 44.558 53.5454C44.6638 53.5158 44.7475 53.4671 44.809 53.3993C44.8724 53.3318 44.9113 53.2535 44.9257 53.1645C44.9444 53.0489 44.9366 52.9524 44.9025 52.8749C44.8683 52.7975 44.8065 52.735 44.717 52.6875C44.6296 52.6384 44.513 52.6021 44.3671 52.5785L43.8442 52.494L43.8961 52.1729ZM47.0505 51.239L47.5763 51.3239L47.3449 52.4675C47.2864 52.7575 47.2126 53.0041 47.1233 53.2074C47.0341 53.4107 46.9348 53.5804 46.8253 53.7163C46.7162 53.8503 46.6005 53.9589 46.4782 54.0422C46.3577 54.1258 46.2361 54.1926 46.1133 54.2428L45.8519 54.2006L45.9354 53.7737L46.0439 53.7883C46.1183 53.7245 46.1912 53.6585 46.2625 53.5903C46.334 53.5203 46.4032 53.4352 46.4699 53.3352C46.5369 53.2332 46.5992 53.1062 46.6568 52.9542C46.7166 52.8005 46.7698 52.6099 46.8163 52.3821L47.0505 51.239ZM47.1813 51.2601L49.0314 51.5589L48.5347 54.6339L48.0089 54.549L48.4271 51.96L47.1028 51.746L47.1813 51.2601ZM45.8023 53.7493L48.9995 54.2658L48.7833 55.6043L48.2575 55.5194L48.4039 54.6128L46.2583 54.2662L46.1118 55.1728L45.5832 55.0874L45.8023 53.7493ZM49.6159 53.2659L49.6265 53.2006C49.6623 52.9789 49.7277 52.7785 49.8227 52.5995C49.918 52.4185 50.0376 52.2677 50.1816 52.1471C50.3258 52.0246 50.4903 51.9385 50.6753 51.8886C50.8606 51.8369 51.0603 51.8283 51.2743 51.8629C51.4903 51.8978 51.6781 51.969 51.8377 52.0764C51.9994 52.1822 52.1295 52.316 52.2278 52.4777C52.3283 52.6378 52.3953 52.8187 52.4288 53.0205C52.4626 53.2203 52.4616 53.4311 52.4258 53.6528L52.4152 53.7181C52.3794 53.9398 52.314 54.1402 52.219 54.3192C52.124 54.4983 52.0034 54.6489 51.8573 54.7711C51.7134 54.8917 51.5488 54.9779 51.3635 55.0296C51.1805 55.0798 50.9809 55.0874 50.765 55.0525C50.549 55.0176 50.361 54.9474 50.2012 54.8419C50.0416 54.7344 49.9116 54.6007 49.8111 54.4406C49.7128 54.2789 49.6467 54.0981 49.6129 53.8983C49.5791 53.6984 49.5801 53.4876 49.6159 53.2659ZM50.1522 53.2855L50.1417 53.3509C50.1169 53.5043 50.1115 53.6522 50.1254 53.7944C50.1397 53.9348 50.1744 54.0628 50.2296 54.1787C50.2866 54.2948 50.3652 54.3921 50.4653 54.4705C50.5657 54.5469 50.6888 54.597 50.8347 54.6205C50.9787 54.6438 51.1095 54.6348 51.2269 54.5935C51.3466 54.5506 51.4509 54.4829 51.5397 54.3903C51.6285 54.2977 51.7018 54.1871 51.7595 54.0584C51.8195 53.9281 51.8618 53.7862 51.8866 53.6327L51.8972 53.5674C51.9217 53.4158 51.9258 53.2697 51.9097 53.1291C51.8957 52.9868 51.8602 52.8576 51.8031 52.7415C51.7483 52.6238 51.6708 52.5257 51.5707 52.4473C51.4725 52.3693 51.3505 52.3185 51.2046 52.2949C51.0606 52.2716 50.9287 52.2814 50.8091 52.3243C50.6913 52.3675 50.5869 52.4362 50.4958 52.5303C50.407 52.6229 50.3336 52.7345 50.2755 52.8651C50.2178 52.9938 50.1767 53.1339 50.1522 53.2855ZM53.7587 52.9291L53.1665 56.5952L52.6379 56.5098L53.3256 52.2526L53.8087 52.3306L53.7587 52.9291ZM55.6817 54.1845L55.6721 54.2442C55.636 54.4678 55.576 54.671 55.492 54.8538C55.4083 55.0346 55.304 55.1869 55.1791 55.3106C55.056 55.4346 54.9143 55.5235 54.754 55.5773C54.5937 55.6311 54.4178 55.6426 54.2265 55.6116C54.0313 55.5801 53.8641 55.5201 53.7248 55.4315C53.5856 55.3429 53.4738 55.2286 53.3895 55.0886C53.3051 54.9486 53.2457 54.7874 53.211 54.6049C53.1782 54.4227 53.1679 54.2217 53.18 54.0021L53.2315 53.6838C53.2909 53.4601 53.3664 53.2633 53.458 53.0934C53.5496 52.9235 53.6568 52.7834 53.7797 52.6729C53.9047 52.5609 54.0464 52.4837 54.2049 52.4413C54.3637 52.3969 54.5398 52.3904 54.733 52.4216C54.9263 52.4528 55.0916 52.5184 55.229 52.6184C55.3668 52.7164 55.4756 52.8429 55.5556 52.9977C55.6356 53.1526 55.6855 53.3307 55.7055 53.5322C55.7276 53.7322 55.7197 53.9496 55.6817 54.1845ZM55.1435 54.1588L55.1531 54.0992C55.1779 53.9457 55.1851 53.7991 55.1746 53.6594C55.1644 53.5178 55.1335 53.3903 55.0818 53.277C55.0323 53.162 54.9603 53.0668 54.8655 52.9912C54.7711 52.9138 54.6519 52.8634 54.5079 52.8401C54.3753 52.8187 54.2561 52.8228 54.1502 52.8524C54.0462 52.8822 53.9539 52.9305 53.8731 52.9971C53.7927 53.0619 53.7227 53.14 53.6632 53.2315C53.6059 53.3214 53.5584 53.4168 53.5207 53.5176L53.4018 54.2537C53.4183 54.3924 53.4512 54.526 53.5004 54.6545C53.5499 54.7811 53.6257 54.8896 53.7278 54.9799C53.8301 55.0684 53.9675 55.1266 54.1399 55.1544C54.282 55.1774 54.409 55.1677 54.5208 55.1255C54.6348 55.0817 54.7333 55.0131 54.8165 54.9196C54.9015 54.8264 54.971 54.7152 55.025 54.5858C55.0792 54.4546 55.1187 54.3123 55.1435 54.1588ZM58.6116 53.1064L58.5414 53.5413L57.055 53.3012L57.1253 52.8663L58.6116 53.1064ZM59.0749 53.1813L58.5781 56.2563L58.0524 56.1713L58.5491 53.0963L59.0749 53.1813ZM56.9974 52.8457L57.526 52.9311L57.2068 54.4017C57.1565 54.6288 57.102 54.828 57.0432 54.9993C56.9866 55.1691 56.9226 55.3123 56.8513 55.4291C56.7818 55.5462 56.7028 55.6384 56.6141 55.7057C56.5277 55.7715 56.4293 55.8149 56.319 55.8359C56.209 55.8551 56.0858 55.8537 55.9493 55.8316L55.7845 55.805L55.8593 55.3418L55.9744 55.3516C56.0568 55.3591 56.129 55.3513 56.191 55.3283C56.255 55.3055 56.3119 55.2661 56.3618 55.21C56.412 55.1521 56.4575 55.0748 56.4983 54.9784C56.5411 54.8823 56.5803 54.7661 56.6159 54.63C56.6534 54.4941 56.6907 54.3349 56.728 54.1523L56.9974 52.8457ZM60.128 55.6522L61.9083 53.639L62.4369 53.7243L61.9402 56.7993L61.4116 56.714L61.7738 54.4716L59.9934 56.4849L59.4705 56.4004L59.9672 53.3254L60.4902 53.4099L60.128 55.6522ZM63.8522 53.953L63.3555 57.028L62.8297 56.943L63.3264 53.868L63.8522 53.953ZM65.87 54.2789L64.1274 55.8054L63.3914 55.6865L63.3862 55.2133L63.9887 55.3106L65.2305 54.1756L65.87 54.2789ZM64.8077 57.2625L63.9016 55.6873L64.3013 55.3611L65.4756 57.3704L64.8077 57.2625ZM68.0797 56.9367L69.8601 54.9234L70.3887 55.0088L69.892 58.0838L69.3634 57.9984L69.7256 55.7561L67.9452 57.7693L67.4223 57.6849L67.919 54.6099L68.4419 54.6943L68.0797 56.9367ZM69.753 53.763L70.1793 53.8319C70.1554 53.9797 70.1 54.1058 70.0132 54.2104C69.9266 54.313 69.8146 54.3863 69.6773 54.4302C69.54 54.4741 69.3841 54.482 69.2098 54.4539C68.9465 54.4113 68.7494 54.3076 68.6186 54.1426C68.4899 53.976 68.4437 53.7809 68.4798 53.5573L68.9061 53.6262C68.888 53.738 68.9043 53.8417 68.955 53.9374C69.0056 54.033 69.1086 54.0934 69.264 54.1185C69.4156 54.143 69.5304 54.1178 69.6086 54.043C69.6868 53.9681 69.7349 53.8748 69.753 53.763ZM71.6514 58.0414L72.9521 55.4229L73.5148 55.5138L71.7081 58.8642C71.6674 58.9353 71.6163 59.0107 71.5549 59.0902C71.495 59.1719 71.4227 59.2467 71.3378 59.3147C71.253 59.3826 71.1554 59.433 71.0452 59.4657C70.9365 59.5006 70.812 59.5068 70.6718 59.4841C70.6302 59.4774 70.578 59.4631 70.5154 59.4414C70.4529 59.4196 70.4089 59.4028 70.3836 59.3909L70.4496 58.9642C70.4645 58.9685 70.4879 58.9742 70.5198 58.9813C70.5533 58.9906 70.5766 58.9963 70.5899 58.9985C70.7093 59.0178 70.8132 59.018 70.9018 58.9993C70.9901 58.9824 71.0686 58.9417 71.1374 58.8769C71.2077 58.8144 71.274 58.7231 71.3362 58.6029L71.6514 58.0414ZM71.4686 55.1833L71.8816 57.6995L71.9285 58.2757L71.5193 58.4079L70.8946 55.0905L71.4686 55.1833ZM72.8888 54.2083L73.3151 54.2772C73.2912 54.4249 73.2358 54.5511 73.149 54.6557C73.0624 54.7583 72.9504 54.8316 72.8131 54.8755C72.6757 54.9194 72.5199 54.9273 72.3456 54.8992C72.0823 54.8566 71.8852 54.7529 71.7544 54.5879C71.6257 54.4213 71.5795 54.2262 71.6156 54.0026L72.0419 54.0715C72.0238 54.1833 72.0401 54.287 72.0908 54.3827C72.1414 54.4783 72.2444 54.5387 72.3998 54.5638C72.5514 54.5883 72.6662 54.5631 72.7444 54.4883C72.8226 54.4134 72.8707 54.3201 72.8888 54.2083ZM74.5607 55.6827L74.064 58.7577L73.5382 58.6728L74.0349 55.5978L74.5607 55.6827ZM76.5785 56.0087L74.8359 57.5352L74.0999 57.4163L74.0947 56.943L74.6971 57.0403L75.939 55.9054L76.5785 56.0087ZM75.5162 58.9923L74.6101 57.417L75.0098 57.0908L76.1841 59.1002L75.5162 58.9923ZM76.4395 58.6924L76.204 60.1503L75.6782 60.0654L75.9137 58.6074L76.4395 58.6924Z" fill="#8CC152"/>
<rect x="26.7783" y="41.2041" width="59.0049" height="14.5787" rx="2.10563" transform="rotate(9.17584 26.7783 41.2041)" stroke="#8CC152" stroke-width="0.842253"/>
</svg>
