<svg width="100" height="79" viewBox="0 0 100 79" fill="none" xmlns="http://www.w3.org/2000/svg">
<path d="M47.0218 7.20059V10.0164C47.0218 10.2349 46.9347 10.4445 46.7797 10.5986L46.625 10.7525C46.47 10.9066 46.3828 11.1162 46.3828 11.3348L46.3828 26.56C46.3828 26.7364 46.5258 26.8794 46.7023 26.8794C46.8787 26.8794 47.0218 27.0225 47.0218 27.1989V34.1584C47.0218 34.1775 47.0211 34.1966 47.0193 34.2156C47.0026 34.3936 46.8901 35.3575 46.3828 35.7757C45.9486 36.1336 45.1178 36.3384 44.8621 36.3949C44.811 36.4062 44.759 36.4111 44.7066 36.4111H27.8528C27.8528 36.4111 25.297 36.4111 24.658 35.7757C23.8899 35.0119 23.9987 32.9108 24.0169 32.6297C24.0183 32.6083 24.0191 32.5877 24.0191 32.5663V7.53628C24.0191 7.51099 24.018 7.48704 24.0161 7.46183C23.9953 7.182 23.8926 5.36829 24.658 4.63882C25.3607 3.96915 27.021 3.99782 27.1985 4.00287C27.2094 4.00318 27.2194 4.00337 27.2303 4.00337L34.8814 4.00337L43.8072 4.00337C43.8204 4.00337 43.8333 4.00307 43.8464 4.00261C44.0444 3.99569 45.6994 3.95913 46.3828 4.63882C47.0658 5.31803 47.0296 6.96209 47.0226 7.16083C47.0221 7.17414 47.0218 7.18727 47.0218 7.20059Z" fill="#E9573F"/>
<path d="M34.8814 4.00337L43.8072 4.00337C43.8204 4.00337 43.8333 4.00307 43.8464 4.00261C44.0444 3.99569 45.6994 3.95913 46.3828 4.63882C47.0658 5.31803 47.0296 6.96209 47.0226 7.16083C47.0221 7.17414 47.0218 7.18727 47.0218 7.20059V10.0164C47.0218 10.2349 46.9347 10.4445 46.7797 10.5986L46.625 10.7525C46.47 10.9066 46.3828 11.1162 46.3828 11.3348L46.3828 26.56C46.3828 26.7364 46.5258 26.8795 46.7023 26.8795V26.8795C46.8787 26.8795 47.0218 27.0225 47.0218 27.1989V34.1584C47.0218 34.1775 47.0211 34.1966 47.0193 34.2156C47.0026 34.3936 46.8901 35.3575 46.3828 35.7757C45.9486 36.1336 45.1178 36.3384 44.8621 36.3949C44.811 36.4063 44.759 36.4111 44.7066 36.4111H27.8528C27.8528 36.4111 27.8528 36.4111 27.8528 36.4111C27.8528 36.4111 25.297 36.4111 24.658 35.7757C23.8899 35.0119 23.9987 32.9108 24.0169 32.6297C24.0183 32.6083 24.0191 32.5877 24.0191 32.5663V7.53628C24.0191 7.51099 24.018 7.48704 24.0161 7.46183C23.9953 7.182 23.8926 5.36829 24.658 4.63882C25.3607 3.96915 27.021 3.99782 27.1985 4.00287C27.2094 4.00318 27.2194 4.00337 27.2303 4.00337L34.8814 4.00337ZM34.8814 4.00337V11.1253C34.8814 11.5788 34.5138 11.9465 34.0602 11.9465H29.9519C29.4984 11.9465 29.1307 11.5788 29.1307 11.1253V4.3211" stroke="#282F38" stroke-width="0.821196" stroke-linecap="round"/>
<rect x="29.7734" y="4.63916" width="4.47275" height="6.98991" fill="#DDEAFF"/>
<path d="M52.4548 33.211L52.4548 30.3953C52.4548 30.1767 52.5419 29.9671 52.6969 29.813L52.8516 29.6591C53.0066 29.505 53.0937 29.2954 53.0937 29.0769L53.0938 13.8517C53.0938 13.6752 52.9507 13.5322 52.7743 13.5322C52.5978 13.5322 52.4548 13.3891 52.4548 13.2127L52.4548 6.25323C52.4548 6.23411 52.4555 6.21503 52.4572 6.196C52.4739 6.01799 52.5864 5.05408 53.0938 4.63592C53.528 4.27801 54.3588 4.07322 54.6144 4.01668C54.6656 4.00537 54.7176 4.00047 54.7699 4.00047L71.6237 4.00047C71.6238 4.00047 74.1796 4.0005 74.8186 4.63592C75.5866 5.39972 75.4779 7.50083 75.4597 7.78192C75.4583 7.8033 75.4575 7.82388 75.4575 7.84531L75.4575 32.8753C75.4575 32.9006 75.4586 32.9246 75.4604 32.9498C75.4812 33.2296 75.5839 35.0433 74.8185 35.7728C74.1159 36.4425 72.4555 36.4138 72.2781 36.4087C72.2672 36.4084 72.2572 36.4082 72.2462 36.4082L64.5951 36.4082L55.6693 36.4082C55.6562 36.4082 55.6433 36.4086 55.6301 36.409C55.4322 36.4159 53.7772 36.4525 53.0937 35.7728C52.4108 35.0936 52.447 33.4495 52.454 33.2508C52.4544 33.2375 52.4548 33.2244 52.4548 33.211Z" fill="#8CC152"/>
<path d="M64.5951 36.4082L55.6693 36.4082C55.6562 36.4082 55.6433 36.4086 55.6301 36.409C55.4322 36.4159 53.7772 36.4525 53.0937 35.7728C52.4108 35.0936 52.447 33.4495 52.454 33.2508C52.4544 33.2375 52.4548 33.2244 52.4548 33.211L52.4548 30.3953C52.4548 30.1767 52.5419 29.9671 52.6969 29.813L52.8516 29.6591C53.0066 29.505 53.0937 29.2954 53.0937 29.0769L53.0938 13.8517C53.0938 13.6752 52.9507 13.5322 52.7743 13.5322V13.5322C52.5978 13.5322 52.4548 13.3891 52.4548 13.2127L52.4548 6.25323C52.4548 6.23411 52.4555 6.21503 52.4572 6.196C52.4739 6.01799 52.5864 5.05408 53.0938 4.63592C53.528 4.27801 54.3588 4.07323 54.6144 4.01668C54.6656 4.00537 54.7176 4.00047 54.7699 4.00047L71.6237 4.00047C71.6237 4.00047 71.6237 4.00047 71.6237 4.00047C71.6238 4.00047 74.1796 4.0005 74.8186 4.63592C75.5866 5.39972 75.4779 7.50083 75.4597 7.78192C75.4583 7.8033 75.4575 7.82388 75.4575 7.84531L75.4575 32.8753C75.4575 32.9006 75.4586 32.9246 75.4604 32.9498C75.4812 33.2296 75.5839 35.0433 74.8185 35.7728C74.1159 36.4425 72.4555 36.4138 72.2781 36.4087C72.2672 36.4084 72.2572 36.4082 72.2462 36.4082L64.5951 36.4082ZM64.5951 36.4082L64.5951 29.2864C64.5951 28.8328 64.9628 28.4652 65.4163 28.4652L69.5246 28.4652C69.9782 28.4652 70.3458 28.8328 70.3458 29.2864L70.3458 36.0905" stroke="#8CC152" stroke-width="0.821196" stroke-linecap="round"/>
<path d="M33.923 16.2626V17.9832V20.0215C33.923 20.475 34.2906 20.8427 34.7442 20.8427H43.9642C44.4177 20.8427 44.7854 21.2104 44.7854 21.6639V21.8689C44.7854 22.6229 45.7164 22.9783 46.2188 22.4162L49.3782 18.8814C49.6692 18.5559 49.6546 18.0597 49.345 17.7519L45.7388 14.1656C45.268 13.6973 44.4659 14.0308 44.4659 14.6949C44.4659 15.1072 44.1317 15.4414 43.7194 15.4414H38.3957H34.7442C34.2906 15.4414 33.923 15.8091 33.923 16.2626Z" fill="#DDEAFF"/>
<path d="M47.0218 10.3578V7.20059C47.0218 7.18727 47.0221 7.17414 47.0226 7.16083C47.0296 6.96209 47.0658 5.31803 46.3828 4.63882C45.6994 3.95913 44.0444 3.99569 43.8464 4.00261C43.8333 4.00307 43.8204 4.00337 43.8072 4.00337L34.8814 4.00337M47.0218 26.8795V34.1584C47.0218 34.1775 47.0211 34.1966 47.0193 34.2156C47.0026 34.3936 46.8901 35.3575 46.3828 35.7757C45.9486 36.1336 45.1178 36.3384 44.8621 36.3949C44.811 36.4063 44.759 36.4111 44.7066 36.4111H27.8528C27.8528 36.4111 27.8528 36.4111 27.8528 36.4111C27.8528 36.4111 25.297 36.4111 24.658 35.7757C23.8899 35.0119 23.9987 32.9108 24.0169 32.6297C24.0183 32.6083 24.0191 32.5877 24.0191 32.5663V7.53628C24.0191 7.51099 24.018 7.48704 24.0161 7.46183C23.9953 7.182 23.8926 5.36829 24.658 4.63882C25.3607 3.96915 27.021 3.99782 27.1985 4.00287C27.2094 4.00318 27.2194 4.00337 27.2303 4.00337L34.8814 4.00337M34.8814 4.00337V11.1253C34.8814 11.5788 34.5138 11.9465 34.0602 11.9465H29.9519C29.4984 11.9465 29.1307 11.5788 29.1307 11.1253V4.3211M33.923 17.9832V16.2626C33.923 15.8091 34.2906 15.4414 34.7442 15.4414H38.3957H43.7194C44.1317 15.4414 44.4659 15.1072 44.4659 14.6949V14.6949C44.4659 14.0308 45.268 13.6973 45.7388 14.1656L49.345 17.7519C49.6546 18.0597 49.6692 18.5559 49.3782 18.8814L46.2188 22.4162C45.7164 22.9783 44.7854 22.6229 44.7854 21.8689V21.6639C44.7854 21.2104 44.4177 20.8427 43.9642 20.8427H34.7442C34.2906 20.8427 33.923 20.475 33.923 20.0215V17.9832Z" stroke="#282F38" stroke-width="0.665142" stroke-linecap="round"/>
<path d="M65.5536 23.6993L65.5536 22.4284L65.5536 20.8398C65.5536 20.1379 64.9814 19.5689 64.2757 19.5689L55.5712 19.5689C55.0852 19.5689 54.6912 19.1771 54.6912 18.6937C54.6912 17.8889 53.691 17.5107 53.1533 18.1122L50.38 21.2151C49.9305 21.718 49.9531 22.4822 50.4315 22.9581L53.7327 26.2411C54.2043 26.7101 55.0107 26.3779 55.0107 25.7147C55.0107 25.3035 55.3458 24.9702 55.7593 24.9702L61.0808 24.9702L64.2757 24.9702C64.9814 24.9702 65.5536 24.4012 65.5536 23.6993Z" fill="#DDEAFF"/>
<path d="M63.9562 4.00047L57.5665 4.00047L57.5665 10.9938C57.5665 11.6957 58.1387 12.2647 58.8445 12.2647L62.6782 12.2647C63.384 12.2647 63.9562 11.6957 63.9562 10.9938L63.9562 4.00047Z" fill="#DDEAFF"/>
<path d="M52.4548 30.0538L52.4548 33.211C52.4548 33.2244 52.4544 33.2375 52.454 33.2508C52.447 33.4495 52.4108 35.0936 53.0937 35.7728C53.7772 36.4525 55.4322 36.4159 55.6301 36.409C55.6433 36.4086 55.6562 36.4082 55.6693 36.4082L64.5951 36.4082L72.2462 36.4082C72.2572 36.4082 72.2672 36.4084 72.2781 36.4087C72.4555 36.4138 74.1159 36.4425 74.8185 35.7728C75.5839 35.0433 75.4812 33.2296 75.4604 32.9498C75.4586 32.9246 75.4575 32.9006 75.4575 32.8753L75.4575 7.84531C75.4575 7.82388 75.4583 7.8033 75.4597 7.78192C75.4779 7.50083 75.5866 5.39972 74.8186 4.63592C74.1796 4.0005 71.6238 4.00047 71.6237 4.00047C71.6237 4.00047 71.6237 4.00047 71.6237 4.00047L63.9562 4.00047M52.4548 13.5322L52.4548 6.25323C52.4548 6.23411 52.4555 6.21503 52.4572 6.196C52.4739 6.01799 52.5864 5.05408 53.0938 4.63592C53.528 4.27801 54.3588 4.07323 54.6144 4.01668C54.6656 4.00537 54.7175 4.00047 54.7699 4.00047L57.5665 4.00047M57.5665 4.00047L63.9562 4.00047M57.5665 4.00047L57.5665 10.9938M63.9562 4.00047L63.9562 10.9938M65.5536 23.6993L65.5536 22.4284L65.5536 20.8398M65.5536 23.6993C65.5536 24.4012 64.9814 24.9702 64.2757 24.9702M65.5536 23.6993L65.5536 24.149C65.5536 24.6025 65.1859 24.9702 64.7324 24.9702L64.2757 24.9702M65.5536 20.8398C65.5536 20.1379 64.9814 19.5689 64.2757 19.5689M65.5536 20.8398L65.5536 20.3901C65.5536 19.9366 65.1859 19.5689 64.7324 19.5689L64.2757 19.5689M64.2757 19.5689L55.5712 19.5689M55.5712 19.5689C55.0852 19.5689 54.6912 19.1771 54.6912 18.6937M55.5712 19.5689L55.5124 19.5689C55.0588 19.5689 54.6912 19.2013 54.6912 18.7477L54.6912 18.6937M54.6912 18.6937C54.6912 17.8889 53.691 17.5107 53.1533 18.1122M54.6912 18.6937L54.6912 18.5427C54.6912 17.7887 53.7602 17.4333 53.2577 17.9955L53.1533 18.1122M53.1533 18.1122L50.38 21.2151M50.38 21.2151C49.9305 21.718 49.9531 22.4822 50.4315 22.9581M50.38 21.2151L50.0983 21.5302C49.8074 21.8557 49.822 22.3519 50.1315 22.6597L50.4315 22.9581M50.4315 22.9581L53.7327 26.2411M53.7327 26.2411C54.2043 26.7101 55.0107 26.3779 55.0107 25.7147M53.7327 26.2411V26.2411C54.2042 26.7099 55.0107 26.3795 55.0107 25.7147V25.7147M55.0107 25.7147C55.0107 25.3035 55.3458 24.9702 55.7593 24.9702M55.0107 25.7147V25.7147C55.0107 25.3035 55.3481 24.9702 55.7593 24.9702V24.9702M55.7593 24.9702L61.0808 24.9702L64.2757 24.9702M57.5665 10.9938C57.5665 11.6957 58.1387 12.2647 58.8445 12.2647M57.5665 10.9938L57.5665 11.4435C57.5665 11.897 57.9342 12.2647 58.3877 12.2647L58.8445 12.2647M63.9562 10.9938C63.9562 11.6957 63.384 12.2647 62.6782 12.2647M63.9562 10.9938L63.9562 11.4435C63.9562 11.897 63.5885 12.2647 63.135 12.2647L62.6782 12.2647M62.6782 12.2647L58.8445 12.2647" stroke="#282F38" stroke-width="0.665142" stroke-linecap="round"/>
<path d="M24.2422 71.0563V73.5595H46.2976V71.0563C46.2976 67.2167 40.8837 65.2678 35.3534 65.2754C29.856 65.283 24.2422 66.9915 24.2422 71.0563Z" fill="#364A69"/>
<path d="M35.3832 65.2754C33.1838 65.2754 31.7031 65.5437 31.7031 65.5437L33.323 73.5595H35.3832V65.2754Z" fill="#B6BCCD"/>
<path d="M35.2656 65.2754C37.3917 65.2754 38.8394 65.5411 38.8394 65.5411L37.212 73.5595H35.2656V65.2754Z" fill="#B6BCCD"/>
<path d="M35.9884 69.845H34.5609L34.1129 68.1411H36.4212L35.9884 69.845ZM36.4946 74.0003H34.0547L34.5609 69.845H35.9884L36.4946 74.0003Z" fill="#E9573F"/>
<path d="M35.2739 64.0097H32.9758V66.437C32.9758 67.5354 33.7908 68.1024 34.9449 68.1024L35.8738 68.0594C37.0279 68.0594 37.5746 67.5329 37.5746 66.437V64.0097H35.2739ZM43.4087 54.4829C43.4087 54.4829 44.8994 54.7411 44.8994 56.3483C44.8994 57.7657 43.8111 58.325 42.7228 58.325V54.4829H43.4087ZM27.1392 54.4829C27.1392 54.4829 25.6484 54.7411 25.6484 56.3483C25.6484 57.7657 26.7368 58.325 27.8251 58.325V54.4829H27.1392Z" fill="#C99C29"/>
<path d="M35.2735 43.9614C28.8447 43.9614 27.1641 48.945 27.1641 55.9458C27.1641 63.2048 31.8288 65.0829 35.2735 65.0829C38.6676 65.0829 43.3829 63.2605 43.3829 55.9458C43.3829 48.945 41.7023 43.9614 35.2735 43.9614Z" fill="#C99C29"/>
<path d="M35.4657 43.0482C35.4657 43.0482 35.3392 43.0431 35.286 43.0456C35.2329 43.0456 35.1063 43.0482 35.1063 43.0482C28.1688 43.1823 26.0781 47.356 26.0781 50.2489C26.0781 53.0609 26.0807 55.1288 26.0807 55.1288C26.0807 55.1288 26.192 55.0149 26.3945 54.8554C26.6122 54.6858 26.8526 54.5922 26.8526 54.5922L27.2019 56.941L29.5127 52.1118C29.5279 52.0814 29.5583 52.0637 29.5912 52.0688L30.9605 52.2206C32.3374 52.3725 33.7218 52.4484 35.1038 52.4509V52.4535C35.1645 52.4535 35.2227 52.4509 35.2835 52.4509C35.3442 52.4509 35.4024 52.4535 35.4632 52.4535V52.4509C36.8451 52.4459 38.2296 52.3725 39.6065 52.2206L40.9758 52.0688C41.0087 52.0662 41.039 52.0839 41.0542 52.1118L43.3651 56.941L43.7143 54.5922C43.7143 54.5922 43.9548 54.6884 44.1725 54.8554C44.3775 55.0149 44.4863 55.1288 44.4863 55.1288C44.4863 55.1288 44.4888 53.0634 44.4888 50.2489C44.4914 47.356 42.4007 43.1823 35.4657 43.0482Z" fill="#9E7B38"/>
<path d="M37.5953 65.3765C37.5953 65.7637 37.2637 66.4952 36.7347 67.1026C36.1981 67.7202 35.3047 68.1024 35.3047 68.1024L37.9344 70.9068L38.876 65.5435C38.876 65.546 38.0939 65.4246 37.5953 65.3765Z" fill="white"/>
<path d="M38.4324 65.4766L36.8125 73.5581H38.65L41.5556 70.5234L40.3534 68.853L42.1555 67.6608L41.1406 66.0536C41.1406 66.0536 39.8624 65.6639 38.4324 65.4766Z" fill="#282F38"/>
<path d="M33.002 65.374C33.002 65.7613 33.3335 66.4927 33.8625 67.1002C34.3991 67.7178 35.2926 68.0999 35.2926 68.0999L32.6654 70.9069L31.7188 65.5385C31.7213 65.5385 32.4882 65.4171 33.002 65.374Z" fill="white"/>
<path d="M32.1737 65.4736L33.7936 73.5603H31.9485L29.053 70.5129L30.2552 68.8424L28.4531 67.6503L29.4807 66.0203C29.4807 66.0203 30.7412 65.6609 32.1737 65.4736Z" fill="#282F38"/>
<path d="M37.6406 71.0563V73.5595H59.696V71.0563C59.696 67.2167 54.2821 65.2678 48.7518 65.2754C43.2544 65.283 37.6406 66.9915 37.6406 71.0563Z" fill="#364A69"/>
<path d="M48.7817 65.2754C46.5822 65.2754 45.1016 65.5437 45.1016 65.5437L46.7214 73.5595H48.7817V65.2754Z" fill="#B6BCCD"/>
<path d="M48.6641 65.2754C50.7901 65.2754 52.2379 65.5411 52.2379 65.5411L50.6104 73.5595H48.6641V65.2754Z" fill="#B6BCCD"/>
<path d="M49.379 69.845H47.9515L47.5035 68.1411H49.8118L49.379 69.845ZM49.8852 74.0003H47.4453L47.9515 69.845H49.379L49.8852 74.0003Z" fill="#E9573F"/>
<path d="M48.6646 64.0097H46.3664V66.437C46.3664 67.5354 47.1814 68.1024 48.3355 68.1024L49.2644 68.0594C50.4186 68.0594 50.9653 67.5329 50.9653 66.437V64.0097H48.6646ZM56.7993 54.4829C56.7993 54.4829 58.2901 54.7411 58.2901 56.3483C58.2901 57.7657 57.2017 58.325 56.1134 58.325V54.4829H56.7993ZM40.5298 54.4829C40.5298 54.4829 39.0391 54.7411 39.0391 56.3483C39.0391 57.7657 40.1274 58.325 41.2157 58.325V54.4829H40.5298Z" fill="#C99C29"/>
<path d="M48.6719 43.9614C42.2431 43.9614 40.5625 48.945 40.5625 55.9458C40.5625 63.2048 45.2272 65.0829 48.6719 65.0829C52.066 65.0829 56.7813 63.2605 56.7813 55.9458C56.7813 48.945 55.1007 43.9614 48.6719 43.9614Z" fill="#C99C29"/>
<path d="M48.8641 43.0482C48.8641 43.0482 48.7376 43.0431 48.6844 43.0456C48.6313 43.0456 48.5047 43.0482 48.5047 43.0482C41.5672 43.1823 39.4766 47.356 39.4766 50.2489C39.4766 53.0609 39.4791 55.1288 39.4791 55.1288C39.4791 55.1288 39.5905 55.0149 39.7929 54.8554C40.0106 54.6858 40.2511 54.5922 40.2511 54.5922L40.6003 56.941L42.9112 52.1118C42.9264 52.0814 42.9567 52.0637 42.9896 52.0688L44.3589 52.2206C45.7358 52.3725 47.1203 52.4484 48.5022 52.4509V52.4535C48.563 52.4535 48.6212 52.4509 48.6819 52.4509C48.7427 52.4509 48.8009 52.4535 48.8616 52.4535V52.4509C50.2436 52.4459 51.628 52.3725 53.0049 52.2206L54.3742 52.0688C54.4071 52.0662 54.4375 52.0839 54.4527 52.1118L56.7635 56.941L57.1128 54.5922C57.1128 54.5922 57.3532 54.6884 57.5709 54.8554C57.7759 55.0149 57.8847 55.1288 57.8847 55.1288C57.8847 55.1288 57.8873 53.0634 57.8873 50.2489C57.8898 47.356 55.7992 43.1823 48.8641 43.0482Z" fill="#282F38"/>
<path d="M50.9937 65.3765C50.9937 65.7637 50.6621 66.4952 50.1332 67.1026C49.5966 67.7202 48.7031 68.1024 48.7031 68.1024L51.3329 70.9068L52.2744 65.5435C52.2744 65.546 51.4923 65.4246 50.9937 65.3765Z" fill="white"/>
<path d="M51.8308 65.4766L50.2109 73.5581H52.0485L54.9541 70.5234L53.7518 68.853L55.5539 67.6608L54.539 66.0536C54.539 66.0536 53.2608 65.6639 51.8308 65.4766Z" fill="#282F38"/>
<path d="M46.4004 65.374C46.4004 65.7613 46.732 66.4927 47.261 67.1002C47.7975 67.7178 48.691 68.0999 48.691 68.0999L46.0638 70.9069L45.1172 65.5385C45.1197 65.5385 45.8866 65.4171 46.4004 65.374Z" fill="white"/>
<path d="M45.5722 65.4736L47.192 73.5603H45.3469L42.4514 70.5129L43.6537 68.8424L41.8516 67.6503L42.8792 66.0203C42.8792 66.0203 44.1396 65.6609 45.5722 65.4736Z" fill="#282F38"/>
<path d="M54.0156 71.0563V73.5595H76.071V71.0563C76.071 67.2167 70.6571 65.2678 65.1268 65.2754C59.6294 65.283 54.0156 66.9915 54.0156 71.0563Z" fill="#364A69"/>
<path d="M65.1567 65.2754C62.9572 65.2754 61.4766 65.5437 61.4766 65.5437L63.0964 73.5595H65.1567V65.2754Z" fill="#B6BCCD"/>
<path d="M65.0391 65.2754C67.1651 65.2754 68.6129 65.5411 68.6129 65.5411L66.9854 73.5595H65.0391V65.2754Z" fill="#B6BCCD"/>
<path d="M65.7618 69.845H64.3343L63.8863 68.1411H66.1946L65.7618 69.845ZM66.268 74.0003H63.8281L64.3343 69.845H65.7618L66.268 74.0003Z" fill="#E9573F"/>
<path d="M65.0474 64.0097H62.7492V66.437C62.7492 67.5354 63.5642 68.1024 64.7183 68.1024L65.6472 68.0594C66.8014 68.0594 67.3481 67.5329 67.3481 66.437V64.0097H65.0474ZM73.1821 54.4829C73.1821 54.4829 74.6729 54.7411 74.6729 56.3483C74.6729 57.7657 73.5845 58.325 72.4962 58.325V54.4829H73.1821ZM56.9127 54.4829C56.9127 54.4829 55.4219 54.7411 55.4219 56.3483C55.4219 57.7657 56.5102 58.325 57.5986 58.325V54.4829H56.9127Z" fill="#C99C29"/>
<path d="M65.0469 43.9614C58.6181 43.9614 56.9375 48.945 56.9375 55.9458C56.9375 63.2048 61.6022 65.0829 65.0469 65.0829C68.441 65.0829 73.1563 63.2605 73.1563 55.9458C73.1563 48.945 71.4757 43.9614 65.0469 43.9614Z" fill="#C99C29"/>
<path d="M65.2391 43.0482C65.2391 43.0482 65.1126 43.0431 65.0594 43.0456C65.0063 43.0456 64.8797 43.0482 64.8797 43.0482C57.9422 43.1823 55.8516 47.356 55.8516 50.2489C55.8516 53.0609 55.8541 55.1288 55.8541 55.1288C55.8541 55.1288 55.9655 55.0149 56.1679 54.8554C56.3856 54.6858 56.6261 54.5922 56.6261 54.5922L56.9753 56.941L59.2862 52.1118C59.3014 52.0814 59.3317 52.0637 59.3646 52.0688L60.7339 52.2206C62.1108 52.3725 63.4953 52.4484 64.8772 52.4509V52.4535C64.938 52.4535 64.9962 52.4509 65.0569 52.4509C65.1177 52.4509 65.1759 52.4535 65.2366 52.4535V52.4509C66.6186 52.4459 68.003 52.3725 69.3799 52.2206L70.7492 52.0688C70.7821 52.0662 70.8125 52.0839 70.8277 52.1118L73.1385 56.941L73.4878 54.5922C73.4878 54.5922 73.7282 54.6884 73.9459 54.8554C74.1509 55.0149 74.2597 55.1288 74.2597 55.1288C74.2597 55.1288 74.2623 53.0634 74.2623 50.2489C74.2648 47.356 72.1742 43.1823 65.2391 43.0482Z" fill="#656C23"/>
<path d="M67.3687 65.3765C67.3687 65.7637 67.0371 66.4952 66.5082 67.1026C65.9716 67.7202 65.0781 68.1024 65.0781 68.1024L67.7079 70.9068L68.6494 65.5435C68.6494 65.546 67.8673 65.4246 67.3687 65.3765Z" fill="white"/>
<path d="M68.2058 65.4766L66.5859 73.5581H68.4235L71.3291 70.5234L70.1268 68.853L71.9289 67.6608L70.914 66.0536C70.914 66.0536 69.6358 65.6639 68.2058 65.4766Z" fill="#282F38"/>
<path d="M62.7754 65.374C62.7754 65.7613 63.107 66.4927 63.636 67.1002C64.1725 67.7178 65.066 68.0999 65.066 68.0999L62.4388 70.9069L61.4922 65.5385C61.4947 65.5385 62.2616 65.4171 62.7754 65.374Z" fill="white"/>
<path d="M61.9472 65.4736L63.567 73.5603H61.7219L58.8264 70.5129L60.0287 68.8424L58.2266 67.6503L59.2542 66.0203C59.2542 66.0203 60.5146 65.6609 61.9472 65.4736Z" fill="#282F38"/>
</svg>
