<svg width="100" height="79" viewBox="0 0 100 79" fill="none" xmlns="http://www.w3.org/2000/svg">
<rect x="0.207997" y="0.676086" width="5.21043" height="24.9048" rx="2.60522" transform="matrix(0.883721 0.468014 -0.467832 0.883817 38.778 49.1794)" fill="#DDEAFF" stroke="#282F38" stroke-width="1.00025"/>
<rect x="-0.207997" y="0.676086" width="5.21043" height="24.9048" rx="2.60522" transform="matrix(-0.883721 0.468014 0.467832 0.883817 59.1044 49.3741)" fill="#DDEAFF" stroke="#282F38" stroke-width="1.00025"/>
<rect x="-0.500126" y="0.500126" width="5.21009" height="24.9062" rx="2.60505" transform="matrix(-1 -8.74446e-08 -8.7401e-08 1 51.8279 44.9102)" fill="#DDEAFF" stroke="#282F38" stroke-width="1.00025"/>
<rect x="19.0001" y="11.8019" width="61.2997" height="44.5111" fill="#DDEAFF" stroke="#282F38" stroke-width="1.00025"/>
<path d="M15.5001 10.0013C15.5001 7.51535 17.5154 5.50013 20.0013 5.50013H79.9987C82.4846 5.50013 84.4999 7.51535 84.4999 10.0013V12.2018H15.5001V10.0013Z" fill="#DDEAFF" stroke="#282F38" stroke-width="1.00025"/>
<rect x="34.3986" y="9.0011" width="30.4997" height="5.30132" rx="0.500126" fill="#174AA4" stroke="#282F38" stroke-width="1.00025"/>
<rect x="-0.500126" y="0.500126" width="29.7997" height="20.005" rx="1.50038" transform="matrix(-1 0 0 1 53.8982 18.3032)" fill="#FF826E" stroke="#282F38" stroke-width="1.00025"/>
<path d="M42.2969 27.0555L41.9432 26.702L42.2969 26.3482L42.6506 26.702L42.2969 27.0555ZM38.0969 31.2566L38.4506 31.6102L38.0969 31.964L37.7432 31.6102L38.0969 31.2566ZM29.5467 23.2045C29.5468 22.9283 29.7707 22.7044 30.0469 22.7045L34.5481 22.705C34.8243 22.7051 35.0482 22.929 35.0481 23.2052C35.0481 23.4814 34.8242 23.7053 34.5479 23.7053L30.5469 23.7048L30.5464 27.7058C30.5464 27.982 30.3225 28.2059 30.0463 28.2058C29.77 28.2058 29.5462 27.9819 29.5462 27.7057L29.5467 23.2045ZM48.9432 34.4109L41.9432 27.4091L42.6506 26.702L49.6506 33.7037L48.9432 34.4109ZM42.6506 27.4091L38.4506 31.6102L37.7432 30.903L41.9432 26.702L42.6506 27.4091ZM37.7432 31.6102L29.6932 23.5582L30.4006 22.851L38.4506 30.903L37.7432 31.6102Z" fill="#DDEAFF"/>
<rect x="47.0001" y="32.1066" width="29.7997" height="20.005" rx="1.50038" fill="#8CC152" stroke="#282F38" stroke-width="1.00025"/>
<path d="M59.1016 40.3588L59.4552 40.0052L59.1016 39.6514L58.7479 40.0052L59.1016 40.3588ZM63.3016 44.5598L62.9479 44.9134L63.3016 45.2672L63.6552 44.9134L63.3016 44.5598ZM71.8517 36.5078C71.8517 36.2315 71.6277 36.0077 71.3515 36.0077L66.8504 36.0082C66.5742 36.0083 66.3503 36.2322 66.3503 36.5084C66.3503 36.7846 66.5743 37.0085 66.8505 37.0085L70.8515 37.008L70.852 41.009C70.852 41.2852 71.076 41.5091 71.3522 41.5091C71.6284 41.509 71.8523 41.2851 71.8522 41.0089L71.8517 36.5078ZM52.4552 47.7141L59.4552 40.7124L58.7479 40.0052L51.7479 47.0069L52.4552 47.7141ZM58.7479 40.7124L62.9479 44.9134L63.6552 44.2062L59.4552 40.0052L58.7479 40.7124ZM63.6552 44.9134L71.7052 36.8614L70.9979 36.1542L62.9479 44.2062L63.6552 44.9134Z" fill="#DDEAFF"/>
<path d="M64 19.7036L77.3 19.7036" stroke="#282F38" stroke-width="1.00025"/>
<path d="M31.7969 46.3105L45.0969 46.3105" stroke="#282F38" stroke-width="1.00025"/>
<path d="M56.2969 25.3052L77.2969 25.3052" stroke="#282F38" stroke-width="1.00025"/>
<path d="M24.1016 51.9116L45.1016 51.9116" stroke="#282F38" stroke-width="1.00025"/>
<path d="M56.2969 19.7036H60.4958" stroke="#282F38" stroke-width="1.00025"/>
<path d="M24.1016 46.3105H28.3005" stroke="#282F38" stroke-width="1.00025"/>
</svg>
