<svg width="100" height="79" viewBox="0 0 100 79" fill="none" xmlns="http://www.w3.org/2000/svg">
<path d="M61.5101 66.3587L59.8958 73.984C59.8177 74.3529 59.5753 74.6659 59.2377 74.8338L59.163 74.8709C58.9922 74.9559 58.804 75.0001 58.6133 75.0001H51.7163C51.5842 75.0001 51.453 74.9789 51.3276 74.9373L50.214 74.568H49.3451L48.7352 74.8711C48.5645 74.9559 48.3764 75.0001 48.1858 75.0001H41.2178C40.6362 75.0001 40.1336 74.5954 40.0115 74.0267C39.5314 71.7906 38.7821 68.2778 38.483 66.7907C38.1355 65.0624 36.89 64.3423 36.3107 64.1983L16.8621 61.1896C16.7943 61.1791 16.7269 61.1637 16.663 61.1387C14.6593 60.3557 14.2009 56.4142 17.1947 55.989H30.4583C30.5513 54.987 31.1655 54.0799 32.301 53.8471C32.3673 53.8336 32.4333 53.8286 32.5009 53.8286H40.6559C42.2866 53.8286 43.5348 55.0969 44.0415 55.8482C44.1035 55.9402 44.1468 56.0431 44.1767 56.15L49.3451 74.568H50.214L54.9931 57.7172C55.565 54.952 57.8382 53.9726 58.9033 53.8286H66.602C66.6829 53.8286 66.7643 53.8361 66.8431 53.8542C68.4815 54.2317 68.8959 55.4263 68.8959 55.989L82.5581 56.4136C82.717 56.4185 82.8762 56.453 83.0181 56.5246C85.7761 57.9136 84.1463 60.6288 82.8837 61.1424C82.8274 61.1653 82.7709 61.1787 82.7109 61.1891C76.8888 62.2022 65.3316 64.1983 64.9858 64.1983C62.5528 64.1983 61.6549 65.6385 61.5101 66.3587Z" fill="#F2E6D2"/>
<path d="M68.8959 55.989L82.5581 56.4136C82.717 56.4185 82.8762 56.453 83.0181 56.5246C85.7761 57.9136 84.1463 60.6288 82.8837 61.1424C82.8274 61.1653 82.7709 61.1787 82.7109 61.1891C76.8888 62.2022 65.3316 64.1983 64.9858 64.1983C62.5528 64.1983 61.6549 65.6385 61.5101 66.3587L59.8958 73.984C59.8177 74.3529 59.5753 74.6659 59.2377 74.8338L59.163 74.8709C58.9922 74.9559 58.804 75.0001 58.6133 75.0001H51.7163C51.5842 75.0001 51.453 74.9789 51.3276 74.9373L50.214 74.568M68.8959 55.989C68.8959 56.8531 68.4615 58.5814 66.7236 58.5814H62.5783C62.4463 58.5814 62.3145 58.6006 62.1941 58.6548C61.6749 58.8881 60.6899 59.5249 59.7722 60.7417M68.8959 55.989C68.8959 55.4263 68.4815 54.2317 66.8431 53.8542C66.7643 53.8361 66.6829 53.8286 66.602 53.8286H58.9033C57.8382 53.9726 55.565 54.952 54.9931 57.7172L50.214 74.568M50.214 74.568H49.3451M49.3451 74.568L44.1767 56.15C44.1468 56.0431 44.1035 55.9402 44.0415 55.8482C43.5348 55.0969 42.2866 53.8286 40.6559 53.8286C38.946 53.8286 34.5725 53.8286 32.5009 53.8286C32.4333 53.8286 32.3673 53.8336 32.301 53.8471C31.1655 54.0799 30.5513 54.987 30.4583 55.989M49.3451 74.568L48.7352 74.8711C48.5645 74.9559 48.3764 75.0001 48.1858 75.0001H41.2178C40.6362 75.0001 40.1336 74.5954 40.0115 74.0267C39.5314 71.7906 38.7821 68.2778 38.483 66.7907C38.1355 65.0624 36.89 64.3423 36.3107 64.1983L16.8621 61.1896C16.7943 61.1791 16.7269 61.1637 16.663 61.1387C14.6593 60.3557 14.2009 56.4142 17.1947 55.989H30.4583M39.7867 60.7417C39.1445 59.7839 37.9589 59.2439 37.3252 59.0535C37.229 59.0246 37.1292 59.0135 37.0288 59.0135H32.6004C32.4684 59.0135 32.3361 58.9942 32.2138 58.9445C30.9362 58.4246 30.351 57.1438 30.4583 55.989" stroke="#F2E6D2" stroke-width="1.23462" stroke-linecap="round"/>
<path d="M59.7722 74.568L61.5101 66.3587C61.6549 65.6385 62.5528 64.1983 64.9858 64.1983C65.3316 64.1983 76.8888 62.2022 82.7109 61.1891C82.7709 61.1787 82.8274 61.1653 82.8837 61.1424C84.1463 60.6288 85.7761 57.9136 83.0181 56.5246C82.8762 56.453 82.717 56.4185 82.5581 56.4136L68.8959 55.989M68.8959 55.989C68.8959 56.8531 68.4615 58.5814 66.7236 58.5814H62.5783C62.4463 58.5814 62.3145 58.6006 62.1941 58.6548C61.6749 58.8881 60.6899 59.5249 59.7722 60.7417M68.8959 55.989C68.8959 55.4263 68.4815 54.2317 66.8431 53.8542C66.7643 53.8361 66.6829 53.8286 66.602 53.8286H58.9033C57.8382 53.9726 55.565 54.952 54.9931 57.7172L50.3324 74.1506C50.2624 74.3976 50.0369 74.568 49.7802 74.568V74.568C49.5229 74.568 49.2971 74.3968 49.2276 74.1491L44.1767 56.15C44.1468 56.0431 44.1035 55.9402 44.0415 55.8482C43.5348 55.0969 42.2866 53.8286 40.6559 53.8286C38.946 53.8286 34.5725 53.8286 32.5009 53.8286C32.4333 53.8286 32.3673 53.8336 32.301 53.8471C31.1655 54.0799 30.5513 54.987 30.4583 55.989M39.7867 60.7417C39.1445 59.7839 37.9589 59.2439 37.3252 59.0535C37.229 59.0246 37.1292 59.0135 37.0288 59.0135H32.6004C32.4684 59.0135 32.3361 58.9942 32.2138 58.9445C30.9362 58.4246 30.351 57.1438 30.4583 55.989M30.4583 55.989H17.1947C14.2009 56.4142 14.6593 60.3557 16.663 61.1387C16.7269 61.1637 16.7943 61.1791 16.8621 61.1896L36.3107 64.1983C36.89 64.3423 38.1355 65.0624 38.483 66.7907C38.8306 68.519 39.7864 72.9837 40.2209 75.0001" stroke="#282F38" stroke-width="1.23462" stroke-linecap="round"/>
<path d="M46.3073 9.35533V13.1326C46.3073 13.4612 46.1762 13.7763 45.9432 14.008L45.8024 14.1481C45.5693 14.3798 45.4383 14.6949 45.4383 15.0235L45.4383 35.6792C45.4383 35.9192 45.6328 36.1137 45.8727 36.1137C46.1127 36.1137 46.3072 36.3082 46.3072 36.5481V46.0082C46.3072 46.0369 46.3062 46.0651 46.3035 46.0938C46.2796 46.3451 46.1248 47.6458 45.4383 48.2116C44.8536 48.6935 43.7405 48.9713 43.381 49.0514C43.3041 49.0685 43.2263 49.0758 43.1476 49.0758H20.2394C20.2393 49.0758 16.7637 49.0758 15.8948 48.2116C14.854 47.1766 14.9972 44.3358 15.0227 43.9375C15.0248 43.9054 15.0259 43.8748 15.0259 43.8426V9.81441C15.0259 9.7764 15.0243 9.74004 15.0215 9.70213C14.9924 9.30365 14.859 6.85599 15.8949 5.86873C16.8469 4.96144 19.0914 4.99675 19.3468 5.00383C19.3632 5.00428 19.3788 5.00459 19.3952 5.00459L29.7976 5.00459L41.9329 5.00459C41.9527 5.00459 41.9723 5.00412 41.992 5.00344C42.2743 4.99379 44.5122 4.94772 45.4383 5.86873C46.364 6.7893 46.3182 9.01323 46.3084 9.29563C46.3077 9.31564 46.3073 9.33531 46.3073 9.35533Z" fill="#E9573F"/>
<path d="M29.7976 5.00459L41.9329 5.00459C41.9527 5.00459 41.9723 5.00412 41.992 5.00344C42.2743 4.99379 44.5122 4.94772 45.4383 5.86873C46.364 6.7893 46.3182 9.01323 46.3084 9.29563C46.3077 9.31564 46.3073 9.33531 46.3073 9.35533V13.1326C46.3073 13.4612 46.1762 13.7763 45.9432 14.008L45.8024 14.1481C45.5693 14.3798 45.4383 14.6949 45.4383 15.0235L45.4383 35.6792C45.4383 35.9192 45.6328 36.1137 45.8727 36.1137V36.1137C46.1127 36.1137 46.3072 36.3082 46.3072 36.5481V46.0082C46.3072 46.0369 46.3062 46.0651 46.3035 46.0938C46.2796 46.3451 46.1248 47.6458 45.4383 48.2116C44.8536 48.6935 43.7405 48.9713 43.381 49.0514C43.3041 49.0685 43.2263 49.0758 43.1476 49.0758H20.2394C20.2394 49.0758 20.2394 49.0758 20.2394 49.0758C20.2393 49.0758 16.7637 49.0758 15.8948 48.2116C14.854 47.1766 14.9972 44.3357 15.0227 43.9375C15.0248 43.9054 15.0259 43.8748 15.0259 43.8426V9.81441C15.0259 9.7764 15.0243 9.74004 15.0215 9.70213C14.9924 9.30365 14.859 6.85599 15.8949 5.86873C16.8469 4.96144 19.0914 4.99675 19.3468 5.00383C19.3632 5.00428 19.3788 5.00459 19.3952 5.00459L29.7976 5.00459ZM29.7976 5.00459V14.5717C29.7976 15.2536 29.2449 15.8064 28.563 15.8064H23.2119C22.53 15.8064 21.9773 15.2536 21.9773 14.5717V5.43666" stroke="#282F38" stroke-width="1.23462" stroke-linecap="round"/>
<rect x="22.8438" y="5.86865" width="6.08248" height="9.50555" fill="#DDEAFF"/>
<path d="M53.6927 44.7204L53.6927 40.9431C53.6927 40.6145 53.8238 40.2994 54.0568 40.0677L54.1976 39.9276C54.4307 39.6958 54.5617 39.3808 54.5617 39.0522L54.5617 18.3965C54.5617 18.1565 54.3672 17.962 54.1273 17.962C53.8873 17.962 53.6928 17.7675 53.6928 17.5276L53.6928 8.06753C53.6928 8.03878 53.6938 8.01054 53.6965 7.98193C53.7204 7.73061 53.8752 6.42989 54.5617 5.86404C55.1464 5.38218 56.2595 5.10442 56.619 5.02431C56.6959 5.00718 56.7737 4.9999 56.8524 4.9999L79.7606 4.9999C79.7606 4.9999 83.2363 4.99993 84.1052 5.86404C85.146 6.89908 85.0028 9.73993 84.9773 10.1381C84.9752 10.1703 84.974 10.2009 84.974 10.2331L84.974 44.2613C84.974 44.2993 84.9757 44.3356 84.9785 44.3736C85.0076 44.772 85.141 47.2197 84.1051 48.207C83.1531 49.1142 80.9086 49.0789 80.6532 49.0719C80.6368 49.0714 80.6212 49.0711 80.6048 49.0711L70.2024 49.0711L58.0671 49.0711C58.0473 49.0711 58.0277 49.0716 58.008 49.0722C57.7257 49.0819 55.4878 49.128 54.5617 48.207C53.636 47.2864 53.6818 45.0625 53.6916 44.7801C53.6923 44.76 53.6927 44.7404 53.6927 44.7204Z" fill="#8CC152"/>
<path d="M70.2024 49.0711L58.0671 49.0711C58.0473 49.0711 58.0277 49.0716 58.008 49.0722C57.7257 49.0819 55.4878 49.128 54.5617 48.207C53.636 47.2864 53.6818 45.0625 53.6916 44.7801C53.6923 44.76 53.6927 44.7404 53.6927 44.7204L53.6927 40.9431C53.6927 40.6145 53.8238 40.2994 54.0568 40.0677L54.1976 39.9276C54.4307 39.6958 54.5617 39.3808 54.5617 39.0522L54.5617 18.3965C54.5617 18.1565 54.3672 17.962 54.1273 17.962V17.962C53.8873 17.962 53.6928 17.7675 53.6928 17.5276L53.6928 8.06753C53.6928 8.03878 53.6938 8.01054 53.6965 7.98193C53.7204 7.73061 53.8752 6.42989 54.5617 5.86404C55.1464 5.38218 56.2595 5.10442 56.619 5.02431C56.6959 5.00718 56.7737 4.9999 56.8524 4.9999L79.7606 4.9999C79.7606 4.9999 79.7606 4.9999 79.7606 4.9999C79.7606 4.9999 83.2363 4.99993 84.1052 5.86404C85.146 6.89908 85.0028 9.73993 84.9773 10.1381C84.9752 10.1703 84.974 10.2009 84.974 10.2331L84.974 44.2613C84.974 44.2993 84.9757 44.3356 84.9785 44.3736C85.0076 44.772 85.141 47.2197 84.1051 48.207C83.1531 49.1142 80.9086 49.0789 80.6532 49.0719C80.6368 49.0714 80.6212 49.0711 80.6048 49.0711L70.2024 49.0711ZM70.2024 49.0711L70.2024 39.504C70.2024 38.8221 70.7551 38.2693 71.437 38.2693L76.7881 38.2693C77.47 38.2693 78.0227 38.8221 78.0227 39.5039L78.0227 48.639" stroke="#8CC152" stroke-width="1.23462" stroke-linecap="round"/>
<path d="M28.4942 21.7937V24.0157V26.6697C28.4942 27.3516 29.047 27.9043 29.7288 27.9043H42.0722C42.7315 27.9043 43.266 28.4388 43.266 29.0981C43.266 30.1942 44.6193 30.7109 45.3498 29.8936L49.4373 25.3205C49.8747 24.8312 49.8527 24.0851 49.3874 23.6223L44.5626 18.8241C43.9222 18.1873 42.8315 18.6408 42.8315 19.5439C42.8315 20.1046 42.377 20.5591 41.8163 20.5591H34.5767H29.7288C29.047 20.5591 28.4942 21.1119 28.4942 21.7937Z" fill="#DDEAFF"/>
<path d="M46.3073 13.646V9.35533C46.3073 9.33531 46.3077 9.31564 46.3084 9.29563C46.3182 9.01323 46.364 6.7893 45.4383 5.86873C44.5122 4.94772 42.2743 4.99379 41.992 5.00344C41.9723 5.00412 41.9527 5.00459 41.9329 5.00459L29.7976 5.00459M46.3072 36.1137V46.0082C46.3072 46.0369 46.3062 46.0651 46.3035 46.0938C46.2796 46.3451 46.1248 47.6458 45.4383 48.2116C44.8536 48.6935 43.7405 48.9713 43.381 49.0514C43.3041 49.0685 43.2263 49.0758 43.1476 49.0758H20.2394C20.2394 49.0758 20.2394 49.0758 20.2394 49.0758C20.2393 49.0758 16.7637 49.0758 15.8948 48.2116C14.854 47.1766 14.9972 44.3357 15.0227 43.9375C15.0248 43.9054 15.0259 43.8748 15.0259 43.8426V9.81441C15.0259 9.7764 15.0243 9.74004 15.0215 9.70213C14.9924 9.30365 14.859 6.85599 15.8949 5.86873C16.8469 4.96144 19.0914 4.99675 19.3468 5.00383C19.3632 5.00428 19.3788 5.00459 19.3952 5.00459L29.7976 5.00459M29.7976 5.00459V14.5717C29.7976 15.2536 29.2449 15.8064 28.563 15.8064H23.2119C22.53 15.8064 21.9773 15.2536 21.9773 14.5717V5.43666M28.4942 24.0157V21.7937C28.4942 21.1119 29.047 20.5591 29.7288 20.5591H34.5767H41.8163C42.377 20.5591 42.8315 20.1046 42.8315 19.5439V19.5439C42.8315 18.6408 43.9222 18.1873 44.5626 18.8241L49.3874 23.6223C49.8527 24.0851 49.8747 24.8312 49.4373 25.3205L45.3498 29.8936C44.6193 30.7109 43.266 30.1942 43.266 29.0981V29.0981C43.266 28.4388 42.7315 27.9043 42.0722 27.9043H29.7288C29.047 27.9043 28.4942 27.3516 28.4942 26.6697V24.0157Z" stroke="#282F38" stroke-linecap="round"/>
<path d="M71.5058 31.7883L71.5058 30.06L71.5058 27.8996C71.5058 26.9451 70.7277 26.1714 69.7679 26.1714L57.9308 26.1714C57.2699 26.1714 56.734 25.6385 56.734 24.9811C56.734 23.8867 55.3739 23.3724 54.6427 24.1904L50.8713 28.4099C50.26 29.0939 50.2907 30.1332 50.9413 30.7802L55.4307 35.2448C56.072 35.8826 57.1685 35.4309 57.1685 34.529C57.1685 33.9698 57.6243 33.5166 58.1865 33.5166L65.4233 33.5166L69.7679 33.5166C70.7277 33.5166 71.5058 32.7428 71.5058 31.7883Z" fill="#DDEAFF"/>
<path d="M69.3335 4.9999L60.6442 4.9999L60.6442 14.51C60.6442 15.4645 61.4223 16.2383 62.3821 16.2383L67.5956 16.2383C68.5554 16.2383 69.3335 15.4645 69.3335 14.51L69.3335 4.9999Z" fill="#DDEAFF"/>
<path d="M53.6927 40.4297L53.6927 44.7204C53.6927 44.7404 53.6923 44.76 53.6916 44.7801C53.6818 45.0625 53.636 47.2864 54.5617 48.207C55.4878 49.128 57.7257 49.0819 58.008 49.0722C58.0277 49.0716 58.0473 49.0711 58.0671 49.0711L70.2024 49.0711L80.6048 49.0711C80.6212 49.0711 80.6368 49.0714 80.6532 49.0719C80.9086 49.0789 83.1531 49.1142 84.1051 48.207C85.141 47.2197 85.0076 44.772 84.9785 44.3736C84.9757 44.3356 84.974 44.2993 84.974 44.2613L84.974 10.2331C84.974 10.2009 84.9752 10.1703 84.9773 10.1381C85.0028 9.73993 85.146 6.89908 84.1052 5.86404C83.2363 4.99993 79.7606 4.9999 79.7606 4.9999C79.7606 4.9999 79.7606 4.9999 79.7606 4.9999L69.3335 4.9999M53.6928 17.962L53.6928 8.06753C53.6928 8.03878 53.6937 8.01054 53.6965 7.98193C53.7204 7.73061 53.8752 6.42989 54.5617 5.86404C55.1463 5.38218 56.2595 5.10442 56.619 5.02431C56.6959 5.00718 56.7737 4.9999 56.8524 4.9999L60.6442 4.9999M60.6442 4.9999L69.3335 4.9999M60.6442 4.9999L60.6442 14.51M69.3335 4.9999L69.3335 14.51M71.5058 31.7883L71.5058 30.06L71.5058 27.8996M71.5058 31.7883C71.5058 32.7428 70.7277 33.5166 69.7679 33.5166M71.5058 31.7883L71.5058 32.2819C71.5058 32.9638 70.953 33.5166 70.2712 33.5166L69.7679 33.5166M71.5058 27.8996C71.5058 26.9451 70.7277 26.1714 69.7679 26.1714M71.5058 27.8996L71.5058 27.406C71.5058 26.7241 70.953 26.1714 70.2712 26.1714L69.7679 26.1714M69.7679 26.1714L57.9308 26.1714M57.9308 26.1714C57.2699 26.1714 56.734 25.6385 56.734 24.9811M57.9308 26.1714V26.1714C57.2735 26.1714 56.734 25.6385 56.734 24.9811V24.9811M56.734 24.9811C56.734 23.8867 55.3739 23.3724 54.6427 24.1904M56.734 24.9811V24.9811C56.734 23.8838 55.374 23.3723 54.6427 24.1904V24.1904M54.6427 24.1904L50.8713 28.4099M50.8713 28.4099C50.26 29.0939 50.2907 30.1332 50.9413 30.7802M50.8713 28.4099L50.5627 28.7552C50.1253 29.2445 50.1473 29.9905 50.6126 30.4533L50.9413 30.7802M50.9413 30.7802L55.4307 35.2448M55.4307 35.2448C56.072 35.8826 57.1685 35.4309 57.1685 34.529M55.4307 35.2448V35.2448C56.0717 35.8824 57.1685 35.4331 57.1685 34.529V34.529M57.1685 34.529C57.1685 33.9698 57.6243 33.5166 58.1865 33.5166M57.1685 34.529V34.529C57.1685 33.9698 57.6274 33.5166 58.1865 33.5166V33.5166M58.1865 33.5166L65.4233 33.5166L69.7679 33.5166M60.6442 14.51C60.6442 15.4645 61.4223 16.2383 62.3821 16.2383M60.6442 14.51L60.6442 15.0037C60.6442 15.6856 61.197 16.2383 61.8788 16.2383L62.3821 16.2383M69.3335 14.51C69.3335 15.4645 68.5554 16.2383 67.5956 16.2383M69.3335 14.51L69.3335 15.0037C69.3335 15.6856 68.7807 16.2383 68.0988 16.2383L67.5956 16.2383M67.5956 16.2383L62.3821 16.2383" stroke="#282F38" stroke-linecap="round"/>
</svg>
