<svg width="100" height="79" viewBox="0 0 100 79" fill="none" xmlns="http://www.w3.org/2000/svg">
<rect x="15.2638" y="16.2638" width="69.4724" height="46.5037" rx="5.53941" fill="#F6F6F7" stroke="#282F38" stroke-width="0.527562"/>
<rect x="21.2614" y="22.8522" width="27.3118" height="23.2609" rx="2.96081" fill="#BCBCBC" stroke="#282F38" stroke-width="0.538329"/>
<path d="M42.3074 45.8525H27.8057V44.2799C27.8057 42.98 28.7004 42.0441 30.0771 41.4276C31.4533 40.8114 33.2891 40.5265 35.1123 40.524C36.9449 40.5215 38.7525 40.8434 40.0981 41.4793C41.4453 42.1158 42.3074 43.0544 42.3074 44.2799V45.8525Z" fill="#364A69" stroke="#282F38" stroke-width="0.189553"/>
<path d="M32.7921 40.6855C32.8144 40.682 32.8405 40.6781 32.8703 40.6738C32.9845 40.6572 33.1523 40.635 33.3658 40.6128C33.7741 40.5704 34.3494 40.5279 35.0363 40.5242V45.8525H33.8362L32.7921 40.6855Z" fill="#B6BCCD" stroke="#282F38" stroke-width="0.189553"/>
<path d="M37.3228 40.6836L36.2737 45.8525H35.1495V40.5242C35.812 40.528 36.3694 40.57 36.7661 40.612C36.9737 40.6339 37.1372 40.6559 37.2486 40.6723C37.2767 40.6765 37.3015 40.6803 37.3228 40.6836Z" fill="#B6BCCD" stroke="#282F38" stroke-width="0.189553"/>
<path d="M35.4843 43.3802L35.8008 46.2743H34.387L34.7034 43.3802H35.4843ZM34.4398 42.1158H35.7388L35.4937 43.1907H34.6935L34.4398 42.1158Z" fill="#E9573F" stroke="#282F38" stroke-width="0.189553"/>
<path d="M35.4596 42.1888V42.1887L35.4552 42.1889L34.8387 42.2175C34.4695 42.2171 34.1657 42.1261 33.9561 41.958C33.7489 41.7919 33.624 41.543 33.624 41.2029V39.6809H35.0601H36.4978V41.2029C36.4978 41.5534 36.4105 41.794 36.2489 41.9485C36.0865 42.1038 35.8315 42.1888 35.4596 42.1888ZM30.0036 33.335V35.7025C29.6892 35.6875 29.3876 35.5973 29.1597 35.4203C28.9124 35.2283 28.7432 34.9275 28.7432 34.4828C28.7432 33.9827 28.9726 33.6991 29.1999 33.5372C29.3151 33.4552 29.4308 33.4039 29.5178 33.3732C29.5612 33.3579 29.5971 33.3478 29.6218 33.3417C29.6341 33.3386 29.6436 33.3365 29.6497 33.3352L29.6506 33.335H30.0036ZM40.4695 33.335L40.4704 33.3352C40.4766 33.3365 40.486 33.3386 40.4983 33.3417C40.523 33.3478 40.5589 33.3579 40.6023 33.3732C40.6894 33.4039 40.805 33.4552 40.9202 33.5372C41.1475 33.6991 41.3769 33.9827 41.3769 34.4828C41.3769 34.9275 41.2077 35.2283 40.9605 35.4203C40.7326 35.5973 40.4309 35.6875 40.1166 35.7025V33.335H40.4695Z" fill="#C99C29" stroke="#282F38" stroke-width="0.189553"/>
<path d="M29.751 34.2149C29.751 31.8868 30.0312 29.9123 30.8334 28.522C31.2333 27.8289 31.7626 27.2815 32.4526 26.9068C33.1431 26.5318 33.9997 26.3267 35.058 26.3267C36.1163 26.3267 36.9729 26.5318 37.6634 26.9068C38.3534 27.2815 38.8827 27.8289 39.2826 28.522C40.0848 29.9123 40.365 31.8868 40.365 34.2149C40.365 36.6292 39.5878 38.122 38.5451 39.0131C37.4995 39.9066 36.1735 40.2063 35.058 40.2063C33.926 40.2063 32.6001 39.8975 31.5586 38.9994C30.5199 38.1038 29.751 36.6108 29.751 34.2149Z" fill="#C99C29" stroke="#282F38" stroke-width="0.189553"/>
<path d="M35.1888 25.718L35.1869 25.718L35.1888 25.718ZM35.1888 25.718C37.479 25.7623 38.9564 26.4728 39.861 27.3986C40.7669 28.3257 41.1071 29.4777 41.1062 30.4197V30.4197C41.1062 31.3571 41.1058 32.1697 41.1054 32.748L41.1048 33.4259L41.1048 33.4583C41.0874 33.444 41.0686 33.429 41.0485 33.4133L41.048 33.413C40.9695 33.3528 40.8879 33.306 40.8267 33.2745C40.7959 33.2586 40.7698 33.2464 40.7512 33.2381C40.7419 33.2339 40.7344 33.2307 40.7292 33.2285L40.723 33.2259L40.7212 33.2252L40.7206 33.225L40.7205 33.2249L40.7204 33.2248L40.7204 33.2248L40.6851 33.3128M35.1888 25.718L40.6851 33.3128M40.6851 33.3128L40.7203 33.2248L40.609 33.1803L40.5914 33.2989L40.4043 34.5571M40.6851 33.3128L40.4043 34.5571M40.4043 34.5571L38.9987 31.6197L38.9988 31.6196L38.9964 31.6152C38.9693 31.5655 38.9145 31.5328 38.8537 31.5374L38.8537 31.5374L38.8505 31.5377L37.9385 31.6389L40.4043 34.5571ZM35.1032 31.7921L35.1886 31.7917C36.106 31.7884 37.0248 31.7397 37.9384 31.6389L35.1032 31.7921ZM35.1032 31.7921C35.0921 31.7919 35.0808 31.7917 35.0693 31.7917C35.0609 31.7917 35.0525 31.7918 35.0443 31.7919V31.7919L34.9497 31.7917C34.0326 31.7901 33.1138 31.7397 32.2001 31.6389L35.1032 31.7921ZM32.2001 31.6389L31.2895 31.5379C31.2232 31.5288 31.1665 31.5663 31.1405 31.6182L31.1405 31.6182L31.1398 31.6197L29.7342 34.5571L29.5471 33.2989L29.5297 33.1814L29.419 33.2245L29.4534 33.3128L29.419 33.2245L29.4189 33.2245L29.4189 33.2246L29.4187 33.2246L29.4181 33.2249L29.4163 33.2256L29.41 33.2281C29.4047 33.2303 29.3973 33.2335 29.3879 33.2376C29.3692 33.2458 29.343 33.2579 29.3121 33.2737C29.2506 33.3051 29.1687 33.3521 29.09 33.4134L29.0896 33.4137C29.0697 33.4294 29.0511 33.4444 29.0337 33.4587L32.2001 31.6389Z" fill="#282F38" stroke="#282F38" stroke-width="0.189553"/>
<path d="M37.1419 40.6587C37.2223 40.67 37.2936 40.6803 37.3467 40.688L36.7693 43.9772L35.2362 42.3424C35.2976 42.3116 35.3785 42.2688 35.4688 42.2151C35.6661 42.0978 35.9139 41.9253 36.1022 41.7086C36.284 41.4999 36.4319 41.2699 36.5347 41.0578C36.6142 40.8939 36.6698 40.7345 36.6902 40.6008C36.8356 40.617 37.002 40.6392 37.1419 40.6587Z" fill="white" stroke="#282F38" stroke-width="0.189553"/>
<path d="M38.8961 41.0279L38.9 41.0291L39.5075 41.9911L38.3845 42.734L38.3022 42.7884L38.3598 42.8684L39.1146 43.9171L37.2616 45.8524H36.1938L37.2326 40.6698C37.6719 40.7315 38.0846 40.82 38.394 40.8951C38.5588 40.935 38.694 40.9711 38.7878 40.9972C38.8347 41.0102 38.8713 41.0207 38.8961 41.0279Z" fill="#282F38" stroke="#282F38" stroke-width="0.189553"/>
<path d="M34.9179 42.341L33.3863 43.9774L32.8055 40.6838C32.8579 40.676 32.9283 40.6657 33.0081 40.6545C33.1479 40.635 33.3151 40.6133 33.4637 40.5983C33.4839 40.7322 33.5395 40.892 33.6193 41.0564C33.7221 41.2684 33.87 41.4984 34.0518 41.7072C34.2401 41.9238 34.4879 42.0963 34.6852 42.2136C34.7756 42.2674 34.8565 42.3102 34.9179 42.341Z" fill="white" stroke="#282F38" stroke-width="0.189553"/>
<path d="M31.7683 42.7255L30.6452 41.9826L31.2608 41.0062L31.2631 41.0056C31.2875 40.9989 31.3237 40.9892 31.3701 40.9771C31.463 40.9529 31.5968 40.9193 31.7604 40.8818C32.0674 40.8114 32.4782 40.7276 32.9185 40.6664L33.9573 45.8523H32.8846L31.038 43.9089L31.7929 42.8599L31.8505 42.7799L31.7683 42.7255Z" fill="#282F38" stroke="#282F38" stroke-width="0.189553"/>
<path d="M59.6172 44.8145V32.6049C59.7868 27.5395 68.9439 27.0307 69.4527 32.6049V41.2534C69.4527 45.006 63.0087 46.193 62.6696 41.2534V35.4878C62.6696 33.6224 66.2307 32.7964 66.5699 35.4878V40.7447" stroke="#282F38" stroke-width="0.360563" stroke-linecap="round"/>
<path d="M56.5625 44.8364V32.6767C56.7321 24.2541 71.6549 22.9031 72.5028 32.6767V44.8364" stroke="#282F38" stroke-width="0.360563" stroke-linecap="round"/>
<path d="M71.875 20.0508L79.4705 20.0508" stroke="#282F38" stroke-width="0.538329" stroke-linecap="round"/>
<path d="M79.4688 27.6465L79.4688 20.051" stroke="#282F38" stroke-width="0.538329" stroke-linecap="round"/>
<path d="M20.9922 51H48.8423" stroke="#282F38" stroke-width="0.538329" stroke-linecap="round"/>
<path d="M20.9922 55.5571H36.6895" stroke="#282F38" stroke-width="0.538329" stroke-linecap="round"/>
</svg>
