<svg width="70" height="68" viewBox="0 0 70 68" fill="none" xmlns="http://www.w3.org/2000/svg">
<rect x="0.5" y="0.5" width="48.4805" height="66.4082" rx="1.19362" fill="#DDEAFF" stroke="#282F38"/>
<rect x="2.24609" y="2.21973" width="39.3474" height="63.7543" rx="0.423404" fill="#F6F6F7"/>
<path d="M15.7773 4.30273H28.6853" stroke="#282F38" stroke-width="0.846808" stroke-linecap="round"/>
<path d="M10.0391 37.2896L40.1576 37.2896" stroke="#282F38" stroke-width="0.846808" stroke-linecap="round"/>
<path d="M10.0391 45.178L40.1576 45.178" stroke="#282F38" stroke-width="0.846808" stroke-linecap="round"/>
<path d="M17.2109 52.3489L32.2702 52.3489" stroke="#282F38" stroke-width="0.846808" stroke-linecap="round"/>
<path d="M32.2695 4.30273L35.138 4.30273" stroke="#282F38" stroke-width="0.846808" stroke-linecap="round"/>
<circle cx="48.4053" cy="16.852" r="8.54045" fill="#8CC152" stroke="#8CC152" stroke-width="0.846808"/>
<path d="M46.8339 19.6425L46.8319 19.6418C46.8269 19.6401 46.8137 19.6347 46.7924 19.6144L44.1959 17.131C44.1811 17.1169 44.166 17.0999 44.1677 17.0378C44.1699 16.9689 44.1889 16.9412 44.211 16.92C44.2334 16.8985 44.2651 16.8786 44.341 16.8786C44.4169 16.8786 44.4486 16.8985 44.4711 16.92L46.6298 18.9847L46.9225 19.2646L47.2151 18.9847L52.3327 14.09C52.3526 14.071 52.3855 14.0486 52.4706 14.0486C52.5549 14.0486 52.5877 14.0708 52.6078 14.09C52.6264 14.1078 52.6431 14.13 52.6431 14.1953C52.6431 14.2612 52.6262 14.2836 52.6078 14.3011L47.0525 19.6144C47.0313 19.6347 47.0181 19.6401 47.013 19.6418L47.013 19.6418L47.0111 19.6425C46.9884 19.6503 46.9598 19.6558 46.9225 19.6558C46.8851 19.6558 46.8565 19.6503 46.8339 19.6425Z" fill="#111111" stroke="#F6F6F7" stroke-width="0.846808"/>
<path fill-rule="evenodd" clip-rule="evenodd" d="M28.0856 22.9475H22.4015C20.7286 23.0306 19.2464 24.0524 18.5739 25.5865C17.7627 27.179 19.3816 28.6844 21.2645 28.6844H29.2226C31.1066 28.6844 32.7256 27.179 31.9132 25.5865C31.2407 24.0524 29.7585 23.0306 28.0856 22.9475Z" stroke="#282F38" stroke-width="1.27021" stroke-linecap="round" stroke-linejoin="round"/>
<path fill-rule="evenodd" clip-rule="evenodd" d="M28.685 16.0632C28.685 17.9642 27.1439 19.5053 25.2429 19.5053C23.3419 19.5053 21.8008 17.9642 21.8008 16.0632C21.8008 14.1622 23.3419 12.6211 25.2429 12.6211C26.1558 12.6211 27.0313 12.9837 27.6769 13.6293C28.3224 14.2748 28.685 15.1503 28.685 16.0632Z" stroke="#282F38" stroke-width="1.27021" stroke-linecap="round" stroke-linejoin="round"/>
<path d="M61.0703 53.3418C61.9075 52.679 63.0703 51.4418 63.0703 49.8418V49.3418H61.5703H59.5703V49.8418C59.5703 51.0418 60.4075 52.679 61.0703 53.3418Z" fill="#F6F6F7" stroke="#282F38"/>
<path d="M58.9082 31.679C58.9082 31.1267 59.3559 30.679 59.9082 30.679H62.9082C63.4605 30.679 63.9082 31.1267 63.9082 31.679V47.6706C63.9082 48.0113 63.7347 48.3286 63.4479 48.5125L62.6549 49.0208C62.4938 49.1241 62.3065 49.179 62.1152 49.179H60.311C60.0525 49.179 59.8042 49.0789 59.6179 48.8998L59.2151 48.5125C59.019 48.324 58.9082 48.0637 58.9082 47.7917V31.679Z" fill="#174AA4"/>
<path d="M58.571 28.3417H63.571L63.571 26.3417C63.571 25.3417 63.071 25.3417 61.071 25.3417H59.571C58.071 25.3417 58.571 26.8417 58.571 28.3417Z" fill="#F6F6F7"/>
<path d="M62.571 30.8417C63.771 30.8417 64.071 30.8417 64.071 31.8417L64.071 39.3417C65.671 39.7417 66.4044 38.8417 66.571 38.3417V29.3417C66.571 28.5417 65.571 28.3417 65.071 28.3417H63.571H58.571H58.071C56.471 28.3417 56.571 30.8417 58.071 30.8417H58.571H62.571Z" fill="#F5F5FB"/>
<path d="M61.071 25.3417C61.7157 25.3417 62.2046 25.3417 62.571 25.3752V22.8417C62.571 21.2417 59.571 21.3418 59.571 22.8417V25.3417H61.071Z" fill="#147AD6"/>
<path d="M64.071 45.3417L63.571 45.3417V45.3418L64.071 45.3417ZM64.071 31.8417H63.571V31.8417L64.071 31.8417ZM66.571 38.3417L67.0454 38.4999L67.071 38.4229V38.3417H66.571ZM63.571 26.3417L64.071 26.3417V26.3417L63.571 26.3417ZM62.571 25.3752L62.5255 25.8732L63.071 25.923V25.3752H62.571ZM58.571 45.3417L58.071 45.3417L58.571 45.3417ZM58.571 41.3418L59.071 41.3418V41.3418H58.571ZM60.571 49.8418C62.3043 49.8418 63.4425 49.6116 64.0432 48.7535C64.3334 48.3389 64.4554 47.8333 64.5135 47.2851C64.5716 46.7374 64.571 46.0825 64.571 45.3417L63.571 45.3418C63.571 46.101 63.5704 46.6961 63.5191 47.1797C63.4679 47.6627 63.3712 47.9696 63.2239 48.1801C62.9496 48.572 62.3378 48.8418 60.571 48.8418V49.8418ZM64.571 31.8417C64.571 31.3504 64.5133 30.8072 64.0138 30.5297C63.8052 30.4138 63.5674 30.3761 63.3512 30.3589C63.1301 30.3414 62.8636 30.3417 62.571 30.3417V31.3417C62.8784 31.3417 63.0994 31.3421 63.2721 31.3558C63.4495 31.3699 63.5118 31.3947 63.5282 31.4038C63.5306 31.4052 63.5256 31.4024 63.5208 31.3963C63.5171 31.3916 63.5225 31.396 63.531 31.4217C63.5517 31.4838 63.571 31.6055 63.571 31.8417H64.571ZM58.071 30.3417C57.8498 30.3417 57.7012 30.2557 57.5973 30.131C57.4845 29.9957 57.4127 29.7971 57.4084 29.5817C57.4041 29.3663 57.4679 29.176 57.5717 29.0494C57.6652 28.9353 57.8149 28.8417 58.071 28.8417V27.8417C57.5271 27.8417 57.0892 28.0607 56.7984 28.4153C56.5179 28.7575 56.4004 29.1922 56.4086 29.6017C56.4168 30.0114 56.5513 30.4378 56.8291 30.7712C57.1158 31.1153 57.5422 31.3417 58.071 31.3417V30.3417ZM58.071 28.8417H58.571V27.8417H58.071V28.8417ZM58.571 28.8417H63.571V27.8417H58.571V28.8417ZM63.571 28.8417H65.071V27.8417H63.571V28.8417ZM65.071 28.8417C65.2723 28.8417 65.5674 28.8846 65.7922 28.9925C66.0053 29.0948 66.071 29.2044 66.071 29.3417H67.071C67.071 28.6791 66.6367 28.2887 66.2249 28.091C65.8247 27.8989 65.3697 27.8417 65.071 27.8417V28.8417ZM66.071 29.3417C66.071 29.3433 66.071 29.3449 66.071 29.3465C66.071 29.3481 66.071 29.3497 66.071 29.3513C66.071 29.353 66.071 29.3546 66.071 29.3563C66.071 29.358 66.071 29.3596 66.071 29.3614C66.071 29.3631 66.071 29.3648 66.071 29.3665C66.071 29.3683 66.071 29.37 66.071 29.3718C66.071 29.3736 66.071 29.3754 66.071 29.3772C66.071 29.379 66.071 29.3808 66.071 29.3827C66.071 29.3845 66.071 29.3864 66.071 29.3883C66.071 29.3902 66.071 29.3921 66.071 29.394C66.071 29.3959 66.071 29.3978 66.071 29.3998C66.071 29.4017 66.071 29.4037 66.071 29.4057C66.071 29.4077 66.071 29.4097 66.071 29.4117C66.071 29.4137 66.071 29.4158 66.071 29.4178C66.071 29.4199 66.071 29.422 66.071 29.4241C66.071 29.4261 66.071 29.4283 66.071 29.4304C66.071 29.4325 66.071 29.4346 66.071 29.4368C66.071 29.439 66.071 29.4411 66.071 29.4433C66.071 29.4455 66.071 29.4477 66.071 29.45C66.071 29.4522 66.071 29.4544 66.071 29.4567C66.071 29.459 66.071 29.4612 66.071 29.4635C66.071 29.4658 66.071 29.4682 66.071 29.4705C66.071 29.4728 66.071 29.4752 66.071 29.4775C66.071 29.4799 66.071 29.4823 66.071 29.4847C66.071 29.4871 66.071 29.4895 66.071 29.4919C66.071 29.4943 66.071 29.4968 66.071 29.4992C66.071 29.5017 66.071 29.5042 66.071 29.5067C66.071 29.5092 66.071 29.5117 66.071 29.5142C66.071 29.5167 66.071 29.5193 66.071 29.5219C66.071 29.5244 66.071 29.527 66.071 29.5296C66.071 29.5322 66.071 29.5348 66.071 29.5374C66.071 29.5401 66.071 29.5427 66.071 29.5454C66.071 29.548 66.071 29.5507 66.071 29.5534C66.071 29.5561 66.071 29.5588 66.071 29.5615C66.071 29.5642 66.071 29.567 66.071 29.5697C66.071 29.5725 66.071 29.5753 66.071 29.5781C66.071 29.5808 66.071 29.5836 66.071 29.5865C66.071 29.5893 66.071 29.5921 66.071 29.595C66.071 29.5978 66.071 29.6007 66.071 29.6036C66.071 29.6065 66.071 29.6094 66.071 29.6123C66.071 29.6152 66.071 29.6181 66.071 29.6211C66.071 29.624 66.071 29.627 66.071 29.63C66.071 29.633 66.071 29.6359 66.071 29.639C66.071 29.642 66.071 29.645 66.071 29.648C66.071 29.6511 66.071 29.6541 66.071 29.6572C66.071 29.6603 66.071 29.6634 66.071 29.6665C66.071 29.6696 66.071 29.6727 66.071 29.6758C66.071 29.679 66.071 29.6821 66.071 29.6853C66.071 29.6884 66.071 29.6916 66.071 29.6948C66.071 29.698 66.071 29.7012 66.071 29.7045C66.071 29.7077 66.071 29.7109 66.071 29.7142C66.071 29.7174 66.071 29.7207 66.071 29.724C66.071 29.7273 66.071 29.7306 66.071 29.7339C66.071 29.7372 66.071 29.7406 66.071 29.7439C66.071 29.7473 66.071 29.7506 66.071 29.754C66.071 29.7574 66.071 29.7608 66.071 29.7642C66.071 29.7676 66.071 29.771 66.071 29.7744C66.071 29.7779 66.071 29.7813 66.071 29.7848C66.071 29.7883 66.071 29.7917 66.071 29.7952C66.071 29.7987 66.071 29.8022 66.071 29.8058C66.071 29.8093 66.071 29.8128 66.071 29.8164C66.071 29.8199 66.071 29.8235 66.071 29.8271C66.071 29.8307 66.071 29.8343 66.071 29.8379C66.071 29.8415 66.071 29.8451 66.071 29.8488C66.071 29.8524 66.071 29.8561 66.071 29.8597C66.071 29.8634 66.071 29.8671 66.071 29.8708C66.071 29.8745 66.071 29.8782 66.071 29.8819C66.071 29.8857 66.071 29.8894 66.071 29.8932C66.071 29.8969 66.071 29.9007 66.071 29.9045C66.071 29.9083 66.071 29.9121 66.071 29.9159C66.071 29.9197 66.071 29.9235 66.071 29.9274C66.071 29.9312 66.071 29.935 66.071 29.9389C66.071 29.9428 66.071 29.9467 66.071 29.9506C66.071 29.9545 66.071 29.9584 66.071 29.9623C66.071 29.9662 66.071 29.9702 66.071 29.9741C66.071 29.9781 66.071 29.982 66.071 29.986C66.071 29.99 66.071 29.994 66.071 29.998C66.071 30.002 66.071 30.006 66.071 30.0101C66.071 30.0141 66.071 30.0181 66.071 30.0222C66.071 30.0263 66.071 30.0303 66.071 30.0344C66.071 30.0385 66.071 30.0426 66.071 30.0467C66.071 30.0509 66.071 30.055 66.071 30.0591C66.071 30.0633 66.071 30.0674 66.071 30.0716C66.071 30.0758 66.071 30.0799 66.071 30.0841C66.071 30.0883 66.071 30.0926 66.071 30.0968C66.071 30.101 66.071 30.1052 66.071 30.1095C66.071 30.1137 66.071 30.118 66.071 30.1223C66.071 30.1265 66.071 30.1308 66.071 30.1351C66.071 30.1394 66.071 30.1438 66.071 30.1481C66.071 30.1524 66.071 30.1568 66.071 30.1611C66.071 30.1655 66.071 30.1698 66.071 30.1742C66.071 30.1786 66.071 30.183 66.071 30.1874C66.071 30.1918 66.071 30.1962 66.071 30.2006C66.071 30.2051 66.071 30.2095 66.071 30.214C66.071 30.2184 66.071 30.2229 66.071 30.2274C66.071 30.2319 66.071 30.2364 66.071 30.2409C66.071 30.2454 66.071 30.2499 66.071 30.2544C66.071 30.259 66.071 30.2635 66.071 30.2681C66.071 30.2726 66.071 30.2772 66.071 30.2818C66.071 30.2864 66.071 30.2909 66.071 30.2956C66.071 30.3002 66.071 30.3048 66.071 30.3094C66.071 30.314 66.071 30.3187 66.071 30.3233C66.071 30.328 66.071 30.3327 66.071 30.3374C66.071 30.342 66.071 30.3467 66.071 30.3514C66.071 30.3561 66.071 30.3609 66.071 30.3656C66.071 30.3703 66.071 30.3751 66.071 30.3798C66.071 30.3846 66.071 30.3893 66.071 30.3941C66.071 30.3989 66.071 30.4037 66.071 30.4085C66.071 30.4133 66.071 30.4181 66.071 30.4229C66.071 30.4278 66.071 30.4326 66.071 30.4374C66.071 30.4423 66.071 30.4472 66.071 30.452C66.071 30.4569 66.071 30.4618 66.071 30.4667C66.071 30.4716 66.071 30.4765 66.071 30.4814C66.071 30.4863 66.071 30.4913 66.071 30.4962C66.071 30.5011 66.071 30.5061 66.071 30.5111C66.071 30.516 66.071 30.521 66.071 30.526C66.071 30.531 66.071 30.536 66.071 30.541C66.071 30.546 66.071 30.551 66.071 30.5561C66.071 30.5611 66.071 30.5662 66.071 30.5712C66.071 30.5763 66.071 30.5813 66.071 30.5864C66.071 30.5915 66.071 30.5966 66.071 30.6017C66.071 30.6068 66.071 30.6119 66.071 30.617C66.071 30.6222 66.071 30.6273 66.071 30.6325C66.071 30.6376 66.071 30.6428 66.071 30.6479C66.071 30.6531 66.071 30.6583 66.071 30.6635C66.071 30.6687 66.071 30.6739 66.071 30.6791C66.071 30.6843 66.071 30.6895 66.071 30.6948C66.071 30.7 66.071 30.7052 66.071 30.7105C66.071 30.7157 66.071 30.721 66.071 30.7263C66.071 30.7316 66.071 30.7369 66.071 30.7422C66.071 30.7475 66.071 30.7528 66.071 30.7581C66.071 30.7634 66.071 30.7688 66.071 30.7741C66.071 30.7794 66.071 30.7848 66.071 30.7902C66.071 30.7955 66.071 30.8009 66.071 30.8063C66.071 30.8117 66.071 30.8171 66.071 30.8225C66.071 30.8279 66.071 30.8333 66.071 30.8387C66.071 30.8441 66.071 30.8496 66.071 30.855C66.071 30.8605 66.071 30.8659 66.071 30.8714C66.071 30.8769 66.071 30.8823 66.071 30.8878C66.071 30.8933 66.071 30.8988 66.071 30.9043C66.071 30.9098 66.071 30.9153 66.071 30.9209C66.071 30.9264 66.071 30.9319 66.071 30.9375C66.071 30.943 66.071 30.9486 66.071 30.9542C66.071 30.9597 66.071 30.9653 66.071 30.9709C66.071 30.9765 66.071 30.9821 66.071 30.9877C66.071 30.9933 66.071 30.9989 66.071 31.0046C66.071 31.0102 66.071 31.0158 66.071 31.0215C66.071 31.0271 66.071 31.0328 66.071 31.0384C66.071 31.0441 66.071 31.0498 66.071 31.0555C66.071 31.0612 66.071 31.0669 66.071 31.0726C66.071 31.0783 66.071 31.084 66.071 31.0897C66.071 31.0954 66.071 31.1012 66.071 31.1069C66.071 31.1126 66.071 31.1184 66.071 31.1242C66.071 31.1299 66.071 31.1357 66.071 31.1415C66.071 31.1473 66.071 31.153 66.071 31.1588C66.071 31.1646 66.071 31.1705 66.071 31.1763C66.071 31.1821 66.071 31.1879 66.071 31.1938C66.071 31.1996 66.071 31.2054 66.071 31.2113C66.071 31.2171 66.071 31.223 66.071 31.2289C66.071 31.2348 66.071 31.2406 66.071 31.2465C66.071 31.2524 66.071 31.2583 66.071 31.2642C66.071 31.2701 66.071 31.2761 66.071 31.282C66.071 31.2879 66.071 31.2938 66.071 31.2998C66.071 31.3057 66.071 31.3117 66.071 31.3176C66.071 31.3236 66.071 31.3296 66.071 31.3356C66.071 31.3415 66.071 31.3475 66.071 31.3535C66.071 31.3595 66.071 31.3655 66.071 31.3715C66.071 31.3776 66.071 31.3836 66.071 31.3896C66.071 31.3956 66.071 31.4017 66.071 31.4077C66.071 31.4138 66.071 31.4198 66.071 31.4259C66.071 31.432 66.071 31.438 66.071 31.4441C66.071 31.4502 66.071 31.4563 66.071 31.4624C66.071 31.4685 66.071 31.4746 66.071 31.4807C66.071 31.4868 66.071 31.4929 66.071 31.4991C66.071 31.5052 66.071 31.5114 66.071 31.5175C66.071 31.5236 66.071 31.5298 66.071 31.536C66.071 31.5421 66.071 31.5483 66.071 31.5545C66.071 31.5607 66.071 31.5669 66.071 31.5731C66.071 31.5792 66.071 31.5855 66.071 31.5917C66.071 31.5979 66.071 31.6041 66.071 31.6103C66.071 31.6166 66.071 31.6228 66.071 31.629C66.071 31.6353 66.071 31.6415 66.071 31.6478C66.071 31.654 66.071 31.6603 66.071 31.6666C66.071 31.6729 66.071 31.6791 66.071 31.6854C66.071 31.6917 66.071 31.698 66.071 31.7043C66.071 31.7106 66.071 31.7169 66.071 31.7233C66.071 31.7296 66.071 31.7359 66.071 31.7423C66.071 31.7486 66.071 31.7549 66.071 31.7613C66.071 31.7676 66.071 31.774 66.071 31.7804C66.071 31.7867 66.071 31.7931 66.071 31.7995C66.071 31.8059 66.071 31.8122 66.071 31.8186C66.071 31.825 66.071 31.8314 66.071 31.8378C66.071 31.8442 66.071 31.8507 66.071 31.8571C66.071 31.8635 66.071 31.8699 66.071 31.8764C66.071 31.8828 66.071 31.8893 66.071 31.8957C66.071 31.9022 66.071 31.9086 66.071 31.9151C66.071 31.9215 66.071 31.928 66.071 31.9345C66.071 31.941 66.071 31.9475 66.071 31.954C66.071 31.9604 66.071 31.9669 66.071 31.9735C66.071 31.98 66.071 31.9865 66.071 31.993C66.071 31.9995 66.071 32.006 66.071 32.0126C66.071 32.0191 66.071 32.0256 66.071 32.0322C66.071 32.0387 66.071 32.0453 66.071 32.0519C66.071 32.0584 66.071 32.065 66.071 32.0716C66.071 32.0781 66.071 32.0847 66.071 32.0913C66.071 32.0979 66.071 32.1045 66.071 32.1111C66.071 32.1177 66.071 32.1243 66.071 32.1309C66.071 32.1375 66.071 32.1441 66.071 32.1507C66.071 32.1574 66.071 32.164 66.071 32.1706C66.071 32.1773 66.071 32.1839 66.071 32.1906C66.071 32.1972 66.071 32.2039 66.071 32.2105C66.071 32.2172 66.071 32.2239 66.071 32.2305C66.071 32.2372 66.071 32.2439 66.071 32.2506C66.071 32.2572 66.071 32.2639 66.071 32.2706C66.071 32.2773 66.071 32.284 66.071 32.2907C66.071 32.2975 66.071 32.3042 66.071 32.3109C66.071 32.3176 66.071 32.3243 66.071 32.3311C66.071 32.3378 66.071 32.3445 66.071 32.3513C66.071 32.358 66.071 32.3648 66.071 32.3715C66.071 32.3783 66.071 32.3851 66.071 32.3918C66.071 32.3986 66.071 32.4054 66.071 32.4121C66.071 32.4189 66.071 32.4257 66.071 32.4325C66.071 32.4393 66.071 32.4461 66.071 32.4529C66.071 32.4597 66.071 32.4665 66.071 32.4733C66.071 32.4801 66.071 32.4869 66.071 32.4937C66.071 32.5006 66.071 32.5074 66.071 32.5142C66.071 32.521 66.071 32.5279 66.071 32.5347C66.071 32.5416 66.071 32.5484 66.071 32.5553C66.071 32.5621 66.071 32.569 66.071 32.5758C66.071 32.5827 66.071 32.5896 66.071 32.5964C66.071 32.6033 66.071 32.6102 66.071 32.6171C66.071 32.624 66.071 32.6308 66.071 32.6377C66.071 32.6446 66.071 32.6515 66.071 32.6584C66.071 32.6653 66.071 32.6722 66.071 32.6792C66.071 32.6861 66.071 32.693 66.071 32.6999C66.071 32.7068 66.071 32.7138 66.071 32.7207C66.071 32.7276 66.071 32.7346 66.071 32.7415C66.071 32.7484 66.071 32.7554 66.071 32.7623C66.071 32.7693 66.071 32.7762 66.071 32.7832C66.071 32.7902 66.071 32.7971 66.071 32.8041C66.071 32.8111 66.071 32.818 66.071 32.825C66.071 32.832 66.071 32.839 66.071 32.8459C66.071 32.8529 66.071 32.8599 66.071 32.8669C66.071 32.8739 66.071 32.8809 66.071 32.8879C66.071 32.8949 66.071 32.9019 66.071 32.9089C66.071 32.9159 66.071 32.923 66.071 32.93C66.071 32.937 66.071 32.944 66.071 32.951C66.071 32.9581 66.071 32.9651 66.071 32.9721C66.071 32.9792 66.071 32.9862 66.071 32.9933C66.071 33.0003 66.071 33.0074 66.071 33.0144C66.071 33.0215 66.071 33.0285 66.071 33.0356C66.071 33.0426 66.071 33.0497 66.071 33.0568C66.071 33.0638 66.071 33.0709 66.071 33.078C66.071 33.085 66.071 33.0921 66.071 33.0992C66.071 33.1063 66.071 33.1134 66.071 33.1205C66.071 33.1276 66.071 33.1346 66.071 33.1417C66.071 33.1488 66.071 33.1559 66.071 33.163C66.071 33.1701 66.071 33.1773 66.071 33.1844C66.071 33.1915 66.071 33.1986 66.071 33.2057C66.071 33.2128 66.071 33.2199 66.071 33.2271C66.071 33.2342 66.071 33.2413 66.071 33.2484C66.071 33.2556 66.071 33.2627 66.071 33.2698C66.071 33.277 66.071 33.2841 66.071 33.2913C66.071 33.2984 66.071 33.3056 66.071 33.3127C66.071 33.3199 66.071 33.327 66.071 33.3342C66.071 33.3413 66.071 33.3485 66.071 33.3556C66.071 33.3628 66.071 33.37 66.071 33.3771C66.071 33.3843 66.071 33.3915 66.071 33.3987C66.071 33.4058 66.071 33.413 66.071 33.4202C66.071 33.4274 66.071 33.4345 66.071 33.4417C66.071 33.4489 66.071 33.4561 66.071 33.4633C66.071 33.4705 66.071 33.4777 66.071 33.4849C66.071 33.4921 66.071 33.4993 66.071 33.5065C66.071 33.5137 66.071 33.5209 66.071 33.5281C66.071 33.5353 66.071 33.5425 66.071 33.5497C66.071 33.5569 66.071 33.5641 66.071 33.5713C66.071 33.5786 66.071 33.5858 66.071 33.593C66.071 33.6002 66.071 33.6074 66.071 33.6147C66.071 33.6219 66.071 33.6291 66.071 33.6364C66.071 33.6436 66.071 33.6508 66.071 33.658C66.071 33.6653 66.071 33.6725 66.071 33.6798C66.071 33.687 66.071 33.6942 66.071 33.7015C66.071 33.7087 66.071 33.716 66.071 33.7232C66.071 33.7305 66.071 33.7377 66.071 33.745C66.071 33.7522 66.071 33.7595 66.071 33.7667C66.071 33.774 66.071 33.7812 66.071 33.7885C66.071 33.7958 66.071 33.803 66.071 33.8103C66.071 33.8175 66.071 33.8248 66.071 33.8321C66.071 33.8393 66.071 33.8466 66.071 33.8539C66.071 33.8611 66.071 33.8684 66.071 33.8757C66.071 33.883 66.071 33.8902 66.071 33.8975C66.071 33.9048 66.071 33.9121 66.071 33.9193C66.071 33.9266 66.071 33.9339 66.071 33.9412C66.071 33.9485 66.071 33.9558 66.071 33.963C66.071 33.9703 66.071 33.9776 66.071 33.9849C66.071 33.9922 66.071 33.9995 66.071 34.0068C66.071 34.0141 66.071 34.0214 66.071 34.0286C66.071 34.0359 66.071 34.0432 66.071 34.0505C66.071 34.0578 66.071 34.0651 66.071 34.0724C66.071 34.0797 66.071 34.087 66.071 34.0943C66.071 34.1016 66.071 34.1089 66.071 34.1162C66.071 34.1235 66.071 34.1308 66.071 34.1381C66.071 34.1454 66.071 34.1527 66.071 34.16C66.071 34.1674 66.071 34.1747 66.071 34.182C66.071 34.1893 66.071 34.1966 66.071 34.2039C66.071 34.2112 66.071 34.2185 66.071 34.2258C66.071 34.2331 66.071 34.2404 66.071 34.2478C66.071 34.2551 66.071 34.2624 66.071 34.2697C66.071 34.277 66.071 34.2843 66.071 34.2916C66.071 34.299 66.071 34.3063 66.071 34.3136C66.071 34.3209 66.071 34.3282 66.071 34.3355C66.071 34.3428 66.071 34.3502 66.071 34.3575C66.071 34.3648 66.071 34.3721 66.071 34.3794C66.071 34.3868 66.071 34.3941 66.071 34.4014C66.071 34.4087 66.071 34.416 66.071 34.4233C66.071 34.4307 66.071 34.438 66.071 34.4453C66.071 34.4526 66.071 34.4599 66.071 34.4673C66.071 34.4746 66.071 34.4819 66.071 34.4892C66.071 34.4965 66.071 34.5039 66.071 34.5112C66.071 34.5185 66.071 34.5258 66.071 34.5331C66.071 34.5405 66.071 34.5478 66.071 34.5551C66.071 34.5624 66.071 34.5697 66.071 34.5771C66.071 34.5844 66.071 34.5917 66.071 34.599C66.071 34.6063 66.071 34.6137 66.071 34.621C66.071 34.6283 66.071 34.6356 66.071 34.6429C66.071 34.6503 66.071 34.6576 66.071 34.6649C66.071 34.6722 66.071 34.6795 66.071 34.6868C66.071 34.6942 66.071 34.7015 66.071 34.7088C66.071 34.7161 66.071 34.7234 66.071 34.7307C66.071 34.7381 66.071 34.7454 66.071 34.7527C66.071 34.76 66.071 34.7673 66.071 34.7746C66.071 34.7819 66.071 34.7892 66.071 34.7965C66.071 34.8039 66.071 34.8112 66.071 34.8185C66.071 34.8258 66.071 34.8331 66.071 34.8404C66.071 34.8477 66.071 34.855 66.071 34.8623C66.071 34.8696 66.071 34.8769 66.071 34.8842C66.071 34.8915 66.071 34.8988 66.071 34.9061C66.071 34.9134 66.071 34.9207 66.071 34.928C66.071 34.9353 66.071 34.9426 66.071 34.9499C66.071 34.9572 66.071 34.9645 66.071 34.9718C66.071 34.9791 66.071 34.9864 66.071 34.9937C66.071 35.001 66.071 35.0083 66.071 35.0156C66.071 35.0229 66.071 35.0302 66.071 35.0374C66.071 35.0447 66.071 35.052 66.071 35.0593C66.071 35.0666 66.071 35.0739 66.071 35.0812C66.071 35.0884 66.071 35.0957 66.071 35.103C66.071 35.1103 66.071 35.1176 66.071 35.1248C66.071 35.1321 66.071 35.1394 66.071 35.1466C66.071 35.1539 66.071 35.1612 66.071 35.1685C66.071 35.1757 66.071 35.183 66.071 35.1903C66.071 35.1975 66.071 35.2048 66.071 35.2121C66.071 35.2193 66.071 35.2266 66.071 35.2338C66.071 35.2411 66.071 35.2483 66.071 35.2556C66.071 35.2629 66.071 35.2701 66.071 35.2774C66.071 35.2846 66.071 35.2919 66.071 35.2991C66.071 35.3063 66.071 35.3136 66.071 35.3208C66.071 35.3281 66.071 35.3353 66.071 35.3426C66.071 35.3498 66.071 35.357 66.071 35.3643C66.071 35.3715 66.071 35.3787 66.071 35.386C66.071 35.3932 66.071 35.4004 66.071 35.4076C66.071 35.4149 66.071 35.4221 66.071 35.4293C66.071 35.4365 66.071 35.4437 66.071 35.451C66.071 35.4582 66.071 35.4654 66.071 35.4726C66.071 35.4798 66.071 35.487 66.071 35.4942C66.071 35.5014 66.071 35.5086 66.071 35.5158C66.071 35.523 66.071 35.5302 66.071 35.5374C66.071 35.5446 66.071 35.5518 66.071 35.559C66.071 35.5662 66.071 35.5734 66.071 35.5805C66.071 35.5877 66.071 35.5949 66.071 35.6021C66.071 35.6093 66.071 35.6164 66.071 35.6236C66.071 35.6308 66.071 35.638 66.071 35.6451C66.071 35.6523 66.071 35.6595 66.071 35.6666C66.071 35.6738 66.071 35.6809 66.071 35.6881C66.071 35.6952 66.071 35.7024 66.071 35.7095C66.071 35.7167 66.071 35.7238 66.071 35.731C66.071 35.7381 66.071 35.7453 66.071 35.7524C66.071 35.7595 66.071 35.7667 66.071 35.7738C66.071 35.7809 66.071 35.788 66.071 35.7952C66.071 35.8023 66.071 35.8094 66.071 35.8165C66.071 35.8236 66.071 35.8308 66.071 35.8379C66.071 35.845 66.071 35.8521 66.071 35.8592C66.071 35.8663 66.071 35.8734 66.071 35.8805C66.071 35.8876 66.071 35.8947 66.071 35.9017C66.071 35.9088 66.071 35.9159 66.071 35.923C66.071 35.9301 66.071 35.9372 66.071 35.9442C66.071 35.9513 66.071 35.9584 66.071 35.9654C66.071 35.9725 66.071 35.9796 66.071 35.9866C66.071 35.9937 66.071 36.0007 66.071 36.0078C66.071 36.0148 66.071 36.0219 66.071 36.0289C66.071 36.036 66.071 36.043 66.071 36.05C66.071 36.0571 66.071 36.0641 66.071 36.0711C66.071 36.0781 66.071 36.0852 66.071 36.0922C66.071 36.0992 66.071 36.1062 66.071 36.1132C66.071 36.1202 66.071 36.1272 66.071 36.1342C66.071 36.1412 66.071 36.1482 66.071 36.1552C66.071 36.1622 66.071 36.1692 66.071 36.1762C66.071 36.1832 66.071 36.1901 66.071 36.1971C66.071 36.2041 66.071 36.2111 66.071 36.218C66.071 36.225 66.071 36.232 66.071 36.2389C66.071 36.2459 66.071 36.2528 66.071 36.2598C66.071 36.2667 66.071 36.2737 66.071 36.2806C66.071 36.2875 66.071 36.2945 66.071 36.3014C66.071 36.3083 66.071 36.3153 66.071 36.3222C66.071 36.3291 66.071 36.336 66.071 36.3429C66.071 36.3498 66.071 36.3567 66.071 36.3636C66.071 36.3705 66.071 36.3774 66.071 36.3843C66.071 36.3912 66.071 36.3981 66.071 36.405C66.071 36.4119 66.071 36.4187 66.071 36.4256C66.071 36.4325 66.071 36.4393 66.071 36.4462C66.071 36.4531 66.071 36.4599 66.071 36.4668C66.071 36.4736 66.071 36.4805 66.071 36.4873C66.071 36.4941 66.071 36.501 66.071 36.5078C66.071 36.5146 66.071 36.5215 66.071 36.5283C66.071 36.5351 66.071 36.5419 66.071 36.5487C66.071 36.5555 66.071 36.5623 66.071 36.5691C66.071 36.5759 66.071 36.5827 66.071 36.5895C66.071 36.5963 66.071 36.6031 66.071 36.6098C66.071 36.6166 66.071 36.6234 66.071 36.6301C66.071 36.6369 66.071 36.6437 66.071 36.6504C66.071 36.6572 66.071 36.6639 66.071 36.6707C66.071 36.6774 66.071 36.6841 66.071 36.6909C66.071 36.6976 66.071 36.7043 66.071 36.711C66.071 36.7178 66.071 36.7245 66.071 36.7312C66.071 36.7379 66.071 36.7446 66.071 36.7513C66.071 36.758 66.071 36.7647 66.071 36.7713C66.071 36.778 66.071 36.7847 66.071 36.7914C66.071 36.798 66.071 36.8047 66.071 36.8114C66.071 36.818 66.071 36.8247 66.071 36.8313C66.071 36.838 66.071 36.8446 66.071 36.8512C66.071 36.8579 66.071 36.8645 66.071 36.8711C66.071 36.8777 66.071 36.8844 66.071 36.891C66.071 36.8976 66.071 36.9042 66.071 36.9108C66.071 36.9174 66.071 36.924 66.071 36.9305C66.071 36.9371 66.071 36.9437 66.071 36.9503C66.071 36.9568 66.071 36.9634 66.071 36.97C66.071 36.9765 66.071 36.9831 66.071 36.9896C66.071 36.9962 66.071 37.0027 66.071 37.0092C66.071 37.0158 66.071 37.0223 66.071 37.0288C66.071 37.0353 66.071 37.0418 66.071 37.0483C66.071 37.0548 66.071 37.0613 66.071 37.0678C66.071 37.0743 66.071 37.0808 66.071 37.0873C66.071 37.0937 66.071 37.1002 66.071 37.1067C66.071 37.1131 66.071 37.1196 66.071 37.126C66.071 37.1325 66.071 37.1389 66.071 37.1454C66.071 37.1518 66.071 37.1582 66.071 37.1646C66.071 37.1711 66.071 37.1775 66.071 37.1839C66.071 37.1903 66.071 37.1967 66.071 37.2031C66.071 37.2095 66.071 37.2158 66.071 37.2222C66.071 37.2286 66.071 37.235 66.071 37.2413C66.071 37.2477 66.071 37.254 66.071 37.2604C66.071 37.2667 66.071 37.2731 66.071 37.2794C66.071 37.2857 66.071 37.2921 66.071 37.2984C66.071 37.3047 66.071 37.311 66.071 37.3173C66.071 37.3236 66.071 37.3299 66.071 37.3362C66.071 37.3425 66.071 37.3487 66.071 37.355C66.071 37.3613 66.071 37.3676 66.071 37.3738C66.071 37.3801 66.071 37.3863 66.071 37.3925C66.071 37.3988 66.071 37.405 66.071 37.4112C66.071 37.4175 66.071 37.4237 66.071 37.4299C66.071 37.4361 66.071 37.4423 66.071 37.4485C66.071 37.4547 66.071 37.4609 66.071 37.4671C66.071 37.4732 66.071 37.4794 66.071 37.4856C66.071 37.4917 66.071 37.4979 66.071 37.504C66.071 37.5102 66.071 37.5163 66.071 37.5224C66.071 37.5285 66.071 37.5347 66.071 37.5408C66.071 37.5469 66.071 37.553 66.071 37.5591C66.071 37.5652 66.071 37.5713 66.071 37.5773C66.071 37.5834 66.071 37.5895 66.071 37.5956C66.071 37.6016 66.071 37.6077 66.071 37.6137C66.071 37.6198 66.071 37.6258 66.071 37.6318C66.071 37.6378 66.071 37.6439 66.071 37.6499C66.071 37.6559 66.071 37.6619 66.071 37.6679C66.071 37.6739 66.071 37.6799 66.071 37.6858C66.071 37.6918 66.071 37.6978 66.071 37.7037C66.071 37.7097 66.071 37.7156 66.071 37.7216C66.071 37.7275 66.071 37.7334 66.071 37.7394C66.071 37.7453 66.071 37.7512 66.071 37.7571C66.071 37.763 66.071 37.7689 66.071 37.7748C66.071 37.7807 66.071 37.7866 66.071 37.7924C66.071 37.7983 66.071 37.8042 66.071 37.81C66.071 37.8159 66.071 37.8217 66.071 37.8275C66.071 37.8334 66.071 37.8392 66.071 37.845C66.071 37.8508 66.071 37.8566 66.071 37.8624C66.071 37.8682 66.071 37.874 66.071 37.8798C66.071 37.8855 66.071 37.8913 66.071 37.8971C66.071 37.9028 66.071 37.9086 66.071 37.9143C66.071 37.92 66.071 37.9258 66.071 37.9315C66.071 37.9372 66.071 37.9429 66.071 37.9486C66.071 37.9543 66.071 37.96 66.071 37.9657C66.071 37.9714 66.071 37.9771 66.071 37.9827C66.071 37.9884 66.071 37.994 66.071 37.9997C66.071 38.0053 66.071 38.011 66.071 38.0166C66.071 38.0222 66.071 38.0278 66.071 38.0334C66.071 38.039 66.071 38.0446 66.071 38.0502C66.071 38.0558 66.071 38.0614 66.071 38.0669C66.071 38.0725 66.071 38.078 66.071 38.0836C66.071 38.0891 66.071 38.0947 66.071 38.1002C66.071 38.1057 66.071 38.1112 66.071 38.1167C66.071 38.1222 66.071 38.1277 66.071 38.1332C66.071 38.1387 66.071 38.1442 66.071 38.1496C66.071 38.1551 66.071 38.1605 66.071 38.166C66.071 38.1714 66.071 38.1768 66.071 38.1823C66.071 38.1877 66.071 38.1931 66.071 38.1985C66.071 38.2039 66.071 38.2093 66.071 38.2147C66.071 38.2201 66.071 38.2254 66.071 38.2308C66.071 38.2361 66.071 38.2415 66.071 38.2468C66.071 38.2522 66.071 38.2575 66.071 38.2628C66.071 38.2681 66.071 38.2734 66.071 38.2787C66.071 38.284 66.071 38.2893 66.071 38.2946C66.071 38.2998 66.071 38.3051 66.071 38.3104C66.071 38.3156 66.071 38.3209 66.071 38.3261C66.071 38.3313 66.071 38.3365 66.071 38.3417H67.071C67.071 38.3365 67.071 38.3313 67.071 38.3261C67.071 38.3209 67.071 38.3156 67.071 38.3104C67.071 38.3051 67.071 38.2998 67.071 38.2946C67.071 38.2893 67.071 38.284 67.071 38.2787C67.071 38.2734 67.071 38.2681 67.071 38.2628C67.071 38.2575 67.071 38.2522 67.071 38.2468C67.071 38.2415 67.071 38.2361 67.071 38.2308C67.071 38.2254 67.071 38.2201 67.071 38.2147C67.071 38.2093 67.071 38.2039 67.071 38.1985C67.071 38.1931 67.071 38.1877 67.071 38.1823C67.071 38.1768 67.071 38.1714 67.071 38.166C67.071 38.1605 67.071 38.1551 67.071 38.1496C67.071 38.1442 67.071 38.1387 67.071 38.1332C67.071 38.1277 67.071 38.1222 67.071 38.1167C67.071 38.1112 67.071 38.1057 67.071 38.1002C67.071 38.0947 67.071 38.0891 67.071 38.0836C67.071 38.078 67.071 38.0725 67.071 38.0669C67.071 38.0614 67.071 38.0558 67.071 38.0502C67.071 38.0446 67.071 38.039 67.071 38.0334C67.071 38.0278 67.071 38.0222 67.071 38.0166C67.071 38.011 67.071 38.0053 67.071 37.9997C67.071 37.994 67.071 37.9884 67.071 37.9827C67.071 37.9771 67.071 37.9714 67.071 37.9657C67.071 37.96 67.071 37.9543 67.071 37.9486C67.071 37.9429 67.071 37.9372 67.071 37.9315C67.071 37.9258 67.071 37.92 67.071 37.9143C67.071 37.9086 67.071 37.9028 67.071 37.8971C67.071 37.8913 67.071 37.8855 67.071 37.8798C67.071 37.874 67.071 37.8682 67.071 37.8624C67.071 37.8566 67.071 37.8508 67.071 37.845C67.071 37.8392 67.071 37.8334 67.071 37.8275C67.071 37.8217 67.071 37.8159 67.071 37.81C67.071 37.8042 67.071 37.7983 67.071 37.7924C67.071 37.7866 67.071 37.7807 67.071 37.7748C67.071 37.7689 67.071 37.763 67.071 37.7571C67.071 37.7512 67.071 37.7453 67.071 37.7394C67.071 37.7334 67.071 37.7275 67.071 37.7216C67.071 37.7156 67.071 37.7097 67.071 37.7037C67.071 37.6978 67.071 37.6918 67.071 37.6858C67.071 37.6799 67.071 37.6739 67.071 37.6679C67.071 37.6619 67.071 37.6559 67.071 37.6499C67.071 37.6439 67.071 37.6378 67.071 37.6318C67.071 37.6258 67.071 37.6198 67.071 37.6137C67.071 37.6077 67.071 37.6016 67.071 37.5956C67.071 37.5895 67.071 37.5834 67.071 37.5773C67.071 37.5713 67.071 37.5652 67.071 37.5591C67.071 37.553 67.071 37.5469 67.071 37.5408C67.071 37.5347 67.071 37.5285 67.071 37.5224C67.071 37.5163 67.071 37.5102 67.071 37.504C67.071 37.4979 67.071 37.4917 67.071 37.4856C67.071 37.4794 67.071 37.4732 67.071 37.4671C67.071 37.4609 67.071 37.4547 67.071 37.4485C67.071 37.4423 67.071 37.4361 67.071 37.4299C67.071 37.4237 67.071 37.4175 67.071 37.4112C67.071 37.405 67.071 37.3988 67.071 37.3925C67.071 37.3863 67.071 37.3801 67.071 37.3738C67.071 37.3676 67.071 37.3613 67.071 37.355C67.071 37.3487 67.071 37.3425 67.071 37.3362C67.071 37.3299 67.071 37.3236 67.071 37.3173C67.071 37.311 67.071 37.3047 67.071 37.2984C67.071 37.2921 67.071 37.2857 67.071 37.2794C67.071 37.2731 67.071 37.2667 67.071 37.2604C67.071 37.254 67.071 37.2477 67.071 37.2413C67.071 37.235 67.071 37.2286 67.071 37.2222C67.071 37.2158 67.071 37.2095 67.071 37.2031C67.071 37.1967 67.071 37.1903 67.071 37.1839C67.071 37.1775 67.071 37.1711 67.071 37.1646C67.071 37.1582 67.071 37.1518 67.071 37.1454C67.071 37.1389 67.071 37.1325 67.071 37.126C67.071 37.1196 67.071 37.1131 67.071 37.1067C67.071 37.1002 67.071 37.0937 67.071 37.0873C67.071 37.0808 67.071 37.0743 67.071 37.0678C67.071 37.0613 67.071 37.0548 67.071 37.0483C67.071 37.0418 67.071 37.0353 67.071 37.0288C67.071 37.0223 67.071 37.0158 67.071 37.0092C67.071 37.0027 67.071 36.9962 67.071 36.9896C67.071 36.9831 67.071 36.9765 67.071 36.97C67.071 36.9634 67.071 36.9568 67.071 36.9503C67.071 36.9437 67.071 36.9371 67.071 36.9305C67.071 36.924 67.071 36.9174 67.071 36.9108C67.071 36.9042 67.071 36.8976 67.071 36.891C67.071 36.8844 67.071 36.8777 67.071 36.8711C67.071 36.8645 67.071 36.8579 67.071 36.8512C67.071 36.8446 67.071 36.838 67.071 36.8313C67.071 36.8247 67.071 36.818 67.071 36.8114C67.071 36.8047 67.071 36.798 67.071 36.7914C67.071 36.7847 67.071 36.778 67.071 36.7713C67.071 36.7647 67.071 36.758 67.071 36.7513C67.071 36.7446 67.071 36.7379 67.071 36.7312C67.071 36.7245 67.071 36.7178 67.071 36.711C67.071 36.7043 67.071 36.6976 67.071 36.6909C67.071 36.6841 67.071 36.6774 67.071 36.6707C67.071 36.6639 67.071 36.6572 67.071 36.6504C67.071 36.6437 67.071 36.6369 67.071 36.6301C67.071 36.6234 67.071 36.6166 67.071 36.6098C67.071 36.6031 67.071 36.5963 67.071 36.5895C67.071 36.5827 67.071 36.5759 67.071 36.5691C67.071 36.5623 67.071 36.5555 67.071 36.5487C67.071 36.5419 67.071 36.5351 67.071 36.5283C67.071 36.5215 67.071 36.5146 67.071 36.5078C67.071 36.501 67.071 36.4941 67.071 36.4873C67.071 36.4805 67.071 36.4736 67.071 36.4668C67.071 36.4599 67.071 36.4531 67.071 36.4462C67.071 36.4393 67.071 36.4325 67.071 36.4256C67.071 36.4187 67.071 36.4119 67.071 36.405C67.071 36.3981 67.071 36.3912 67.071 36.3843C67.071 36.3774 67.071 36.3705 67.071 36.3636C67.071 36.3567 67.071 36.3498 67.071 36.3429C67.071 36.336 67.071 36.3291 67.071 36.3222C67.071 36.3153 67.071 36.3083 67.071 36.3014C67.071 36.2945 67.071 36.2875 67.071 36.2806C67.071 36.2737 67.071 36.2667 67.071 36.2598C67.071 36.2528 67.071 36.2459 67.071 36.2389C67.071 36.232 67.071 36.225 67.071 36.218C67.071 36.2111 67.071 36.2041 67.071 36.1971C67.071 36.1901 67.071 36.1832 67.071 36.1762C67.071 36.1692 67.071 36.1622 67.071 36.1552C67.071 36.1482 67.071 36.1412 67.071 36.1342C67.071 36.1272 67.071 36.1202 67.071 36.1132C67.071 36.1062 67.071 36.0992 67.071 36.0922C67.071 36.0852 67.071 36.0781 67.071 36.0711C67.071 36.0641 67.071 36.0571 67.071 36.05C67.071 36.043 67.071 36.036 67.071 36.0289C67.071 36.0219 67.071 36.0148 67.071 36.0078C67.071 36.0007 67.071 35.9937 67.071 35.9866C67.071 35.9796 67.071 35.9725 67.071 35.9654C67.071 35.9584 67.071 35.9513 67.071 35.9442C67.071 35.9372 67.071 35.9301 67.071 35.923C67.071 35.9159 67.071 35.9088 67.071 35.9017C67.071 35.8947 67.071 35.8876 67.071 35.8805C67.071 35.8734 67.071 35.8663 67.071 35.8592C67.071 35.8521 67.071 35.845 67.071 35.8379C67.071 35.8308 67.071 35.8236 67.071 35.8165C67.071 35.8094 67.071 35.8023 67.071 35.7952C67.071 35.788 67.071 35.7809 67.071 35.7738C67.071 35.7667 67.071 35.7595 67.071 35.7524C67.071 35.7453 67.071 35.7381 67.071 35.731C67.071 35.7238 67.071 35.7167 67.071 35.7095C67.071 35.7024 67.071 35.6952 67.071 35.6881C67.071 35.6809 67.071 35.6738 67.071 35.6666C67.071 35.6595 67.071 35.6523 67.071 35.6451C67.071 35.638 67.071 35.6308 67.071 35.6236C67.071 35.6164 67.071 35.6093 67.071 35.6021C67.071 35.5949 67.071 35.5877 67.071 35.5805C67.071 35.5734 67.071 35.5662 67.071 35.559C67.071 35.5518 67.071 35.5446 67.071 35.5374C67.071 35.5302 67.071 35.523 67.071 35.5158C67.071 35.5086 67.071 35.5014 67.071 35.4942C67.071 35.487 67.071 35.4798 67.071 35.4726C67.071 35.4654 67.071 35.4582 67.071 35.451C67.071 35.4437 67.071 35.4365 67.071 35.4293C67.071 35.4221 67.071 35.4149 67.071 35.4076C67.071 35.4004 67.071 35.3932 67.071 35.386C67.071 35.3787 67.071 35.3715 67.071 35.3643C67.071 35.357 67.071 35.3498 67.071 35.3426C67.071 35.3353 67.071 35.3281 67.071 35.3208C67.071 35.3136 67.071 35.3063 67.071 35.2991C67.071 35.2919 67.071 35.2846 67.071 35.2774C67.071 35.2701 67.071 35.2629 67.071 35.2556C67.071 35.2483 67.071 35.2411 67.071 35.2338C67.071 35.2266 67.071 35.2193 67.071 35.2121C67.071 35.2048 67.071 35.1975 67.071 35.1903C67.071 35.183 67.071 35.1757 67.071 35.1685C67.071 35.1612 67.071 35.1539 67.071 35.1466C67.071 35.1394 67.071 35.1321 67.071 35.1248C67.071 35.1176 67.071 35.1103 67.071 35.103C67.071 35.0957 67.071 35.0884 67.071 35.0812C67.071 35.0739 67.071 35.0666 67.071 35.0593C67.071 35.052 67.071 35.0447 67.071 35.0374C67.071 35.0302 67.071 35.0229 67.071 35.0156C67.071 35.0083 67.071 35.001 67.071 34.9937C67.071 34.9864 67.071 34.9791 67.071 34.9718C67.071 34.9645 67.071 34.9572 67.071 34.9499C67.071 34.9426 67.071 34.9353 67.071 34.928C67.071 34.9207 67.071 34.9134 67.071 34.9061C67.071 34.8988 67.071 34.8915 67.071 34.8842C67.071 34.8769 67.071 34.8696 67.071 34.8623C67.071 34.855 67.071 34.8477 67.071 34.8404C67.071 34.8331 67.071 34.8258 67.071 34.8185C67.071 34.8112 67.071 34.8039 67.071 34.7965C67.071 34.7892 67.071 34.7819 67.071 34.7746C67.071 34.7673 67.071 34.76 67.071 34.7527C67.071 34.7454 67.071 34.7381 67.071 34.7307C67.071 34.7234 67.071 34.7161 67.071 34.7088C67.071 34.7015 67.071 34.6942 67.071 34.6868C67.071 34.6795 67.071 34.6722 67.071 34.6649C67.071 34.6576 67.071 34.6503 67.071 34.6429C67.071 34.6356 67.071 34.6283 67.071 34.621C67.071 34.6137 67.071 34.6063 67.071 34.599C67.071 34.5917 67.071 34.5844 67.071 34.5771C67.071 34.5697 67.071 34.5624 67.071 34.5551C67.071 34.5478 67.071 34.5405 67.071 34.5331C67.071 34.5258 67.071 34.5185 67.071 34.5112C67.071 34.5039 67.071 34.4965 67.071 34.4892C67.071 34.4819 67.071 34.4746 67.071 34.4673C67.071 34.4599 67.071 34.4526 67.071 34.4453C67.071 34.438 67.071 34.4307 67.071 34.4233C67.071 34.416 67.071 34.4087 67.071 34.4014C67.071 34.3941 67.071 34.3868 67.071 34.3794C67.071 34.3721 67.071 34.3648 67.071 34.3575C67.071 34.3502 67.071 34.3428 67.071 34.3355C67.071 34.3282 67.071 34.3209 67.071 34.3136C67.071 34.3063 67.071 34.299 67.071 34.2916C67.071 34.2843 67.071 34.277 67.071 34.2697C67.071 34.2624 67.071 34.2551 67.071 34.2478C67.071 34.2404 67.071 34.2331 67.071 34.2258C67.071 34.2185 67.071 34.2112 67.071 34.2039C67.071 34.1966 67.071 34.1893 67.071 34.182C67.071 34.1747 67.071 34.1674 67.071 34.16C67.071 34.1527 67.071 34.1454 67.071 34.1381C67.071 34.1308 67.071 34.1235 67.071 34.1162C67.071 34.1089 67.071 34.1016 67.071 34.0943C67.071 34.087 67.071 34.0797 67.071 34.0724C67.071 34.0651 67.071 34.0578 67.071 34.0505C67.071 34.0432 67.071 34.0359 67.071 34.0286C67.071 34.0214 67.071 34.0141 67.071 34.0068C67.071 33.9995 67.071 33.9922 67.071 33.9849C67.071 33.9776 67.071 33.9703 67.071 33.963C67.071 33.9558 67.071 33.9485 67.071 33.9412C67.071 33.9339 67.071 33.9266 67.071 33.9193C67.071 33.9121 67.071 33.9048 67.071 33.8975C67.071 33.8902 67.071 33.883 67.071 33.8757C67.071 33.8684 67.071 33.8611 67.071 33.8539C67.071 33.8466 67.071 33.8393 67.071 33.8321C67.071 33.8248 67.071 33.8175 67.071 33.8103C67.071 33.803 67.071 33.7958 67.071 33.7885C67.071 33.7812 67.071 33.774 67.071 33.7667C67.071 33.7595 67.071 33.7522 67.071 33.745C67.071 33.7377 67.071 33.7305 67.071 33.7232C67.071 33.716 67.071 33.7087 67.071 33.7015C67.071 33.6942 67.071 33.687 67.071 33.6798C67.071 33.6725 67.071 33.6653 67.071 33.658C67.071 33.6508 67.071 33.6436 67.071 33.6364C67.071 33.6291 67.071 33.6219 67.071 33.6147C67.071 33.6074 67.071 33.6002 67.071 33.593C67.071 33.5858 67.071 33.5786 67.071 33.5713C67.071 33.5641 67.071 33.5569 67.071 33.5497C67.071 33.5425 67.071 33.5353 67.071 33.5281C67.071 33.5209 67.071 33.5137 67.071 33.5065C67.071 33.4993 67.071 33.4921 67.071 33.4849C67.071 33.4777 67.071 33.4705 67.071 33.4633C67.071 33.4561 67.071 33.4489 67.071 33.4417C67.071 33.4345 67.071 33.4274 67.071 33.4202C67.071 33.413 67.071 33.4058 67.071 33.3987C67.071 33.3915 67.071 33.3843 67.071 33.3771C67.071 33.37 67.071 33.3628 67.071 33.3556C67.071 33.3485 67.071 33.3413 67.071 33.3342C67.071 33.327 67.071 33.3199 67.071 33.3127C67.071 33.3056 67.071 33.2984 67.071 33.2913C67.071 33.2841 67.071 33.277 67.071 33.2698C67.071 33.2627 67.071 33.2556 67.071 33.2484C67.071 33.2413 67.071 33.2342 67.071 33.2271C67.071 33.2199 67.071 33.2128 67.071 33.2057C67.071 33.1986 67.071 33.1915 67.071 33.1844C67.071 33.1773 67.071 33.1701 67.071 33.163C67.071 33.1559 67.071 33.1488 67.071 33.1417C67.071 33.1346 67.071 33.1276 67.071 33.1205C67.071 33.1134 67.071 33.1063 67.071 33.0992C67.071 33.0921 67.071 33.085 67.071 33.078C67.071 33.0709 67.071 33.0638 67.071 33.0568C67.071 33.0497 67.071 33.0426 67.071 33.0356C67.071 33.0285 67.071 33.0215 67.071 33.0144C67.071 33.0074 67.071 33.0003 67.071 32.9933C67.071 32.9862 67.071 32.9792 67.071 32.9721C67.071 32.9651 67.071 32.9581 67.071 32.951C67.071 32.944 67.071 32.937 67.071 32.93C67.071 32.923 67.071 32.9159 67.071 32.9089C67.071 32.9019 67.071 32.8949 67.071 32.8879C67.071 32.8809 67.071 32.8739 67.071 32.8669C67.071 32.8599 67.071 32.8529 67.071 32.8459C67.071 32.839 67.071 32.832 67.071 32.825C67.071 32.818 67.071 32.8111 67.071 32.8041C67.071 32.7971 67.071 32.7902 67.071 32.7832C67.071 32.7762 67.071 32.7693 67.071 32.7623C67.071 32.7554 67.071 32.7484 67.071 32.7415C67.071 32.7346 67.071 32.7276 67.071 32.7207C67.071 32.7138 67.071 32.7068 67.071 32.6999C67.071 32.693 67.071 32.6861 67.071 32.6792C67.071 32.6722 67.071 32.6653 67.071 32.6584C67.071 32.6515 67.071 32.6446 67.071 32.6377C67.071 32.6308 67.071 32.624 67.071 32.6171C67.071 32.6102 67.071 32.6033 67.071 32.5964C67.071 32.5896 67.071 32.5827 67.071 32.5758C67.071 32.569 67.071 32.5621 67.071 32.5553C67.071 32.5484 67.071 32.5416 67.071 32.5347C67.071 32.5279 67.071 32.521 67.071 32.5142C67.071 32.5074 67.071 32.5006 67.071 32.4937C67.071 32.4869 67.071 32.4801 67.071 32.4733C67.071 32.4665 67.071 32.4597 67.071 32.4529C67.071 32.4461 67.071 32.4393 67.071 32.4325C67.071 32.4257 67.071 32.4189 67.071 32.4121C67.071 32.4054 67.071 32.3986 67.071 32.3918C67.071 32.3851 67.071 32.3783 67.071 32.3715C67.071 32.3648 67.071 32.358 67.071 32.3513C67.071 32.3445 67.071 32.3378 67.071 32.3311C67.071 32.3243 67.071 32.3176 67.071 32.3109C67.071 32.3042 67.071 32.2975 67.071 32.2907C67.071 32.284 67.071 32.2773 67.071 32.2706C67.071 32.2639 67.071 32.2572 67.071 32.2506C67.071 32.2439 67.071 32.2372 67.071 32.2305C67.071 32.2239 67.071 32.2172 67.071 32.2105C67.071 32.2039 67.071 32.1972 67.071 32.1906C67.071 32.1839 67.071 32.1773 67.071 32.1706C67.071 32.164 67.071 32.1574 67.071 32.1507C67.071 32.1441 67.071 32.1375 67.071 32.1309C67.071 32.1243 67.071 32.1177 67.071 32.1111C67.071 32.1045 67.071 32.0979 67.071 32.0913C67.071 32.0847 67.071 32.0781 67.071 32.0716C67.071 32.065 67.071 32.0584 67.071 32.0519C67.071 32.0453 67.071 32.0387 67.071 32.0322C67.071 32.0256 67.071 32.0191 67.071 32.0126C67.071 32.006 67.071 31.9995 67.071 31.993C67.071 31.9865 67.071 31.98 67.071 31.9735C67.071 31.9669 67.071 31.9604 67.071 31.954C67.071 31.9475 67.071 31.941 67.071 31.9345C67.071 31.928 67.071 31.9215 67.071 31.9151C67.071 31.9086 67.071 31.9022 67.071 31.8957C67.071 31.8893 67.071 31.8828 67.071 31.8764C67.071 31.8699 67.071 31.8635 67.071 31.8571C67.071 31.8507 67.071 31.8442 67.071 31.8378C67.071 31.8314 67.071 31.825 67.071 31.8186C67.071 31.8122 67.071 31.8059 67.071 31.7995C67.071 31.7931 67.071 31.7867 67.071 31.7804C67.071 31.774 67.071 31.7676 67.071 31.7613C67.071 31.7549 67.071 31.7486 67.071 31.7423C67.071 31.7359 67.071 31.7296 67.071 31.7233C67.071 31.7169 67.071 31.7106 67.071 31.7043C67.071 31.698 67.071 31.6917 67.071 31.6854C67.071 31.6791 67.071 31.6729 67.071 31.6666C67.071 31.6603 67.071 31.654 67.071 31.6478C67.071 31.6415 67.071 31.6353 67.071 31.629C67.071 31.6228 67.071 31.6166 67.071 31.6103C67.071 31.6041 67.071 31.5979 67.071 31.5917C67.071 31.5855 67.071 31.5792 67.071 31.5731C67.071 31.5669 67.071 31.5607 67.071 31.5545C67.071 31.5483 67.071 31.5421 67.071 31.536C67.071 31.5298 67.071 31.5236 67.071 31.5175C67.071 31.5114 67.071 31.5052 67.071 31.4991C67.071 31.4929 67.071 31.4868 67.071 31.4807C67.071 31.4746 67.071 31.4685 67.071 31.4624C67.071 31.4563 67.071 31.4502 67.071 31.4441C67.071 31.438 67.071 31.432 67.071 31.4259C67.071 31.4198 67.071 31.4138 67.071 31.4077C67.071 31.4017 67.071 31.3956 67.071 31.3896C67.071 31.3836 67.071 31.3776 67.071 31.3715C67.071 31.3655 67.071 31.3595 67.071 31.3535C67.071 31.3475 67.071 31.3415 67.071 31.3356C67.071 31.3296 67.071 31.3236 67.071 31.3176C67.071 31.3117 67.071 31.3057 67.071 31.2998C67.071 31.2938 67.071 31.2879 67.071 31.282C67.071 31.2761 67.071 31.2701 67.071 31.2642C67.071 31.2583 67.071 31.2524 67.071 31.2465C67.071 31.2406 67.071 31.2348 67.071 31.2289C67.071 31.223 67.071 31.2171 67.071 31.2113C67.071 31.2054 67.071 31.1996 67.071 31.1938C67.071 31.1879 67.071 31.1821 67.071 31.1763C67.071 31.1705 67.071 31.1646 67.071 31.1588C67.071 31.153 67.071 31.1473 67.071 31.1415C67.071 31.1357 67.071 31.1299 67.071 31.1242C67.071 31.1184 67.071 31.1126 67.071 31.1069C67.071 31.1012 67.071 31.0954 67.071 31.0897C67.071 31.084 67.071 31.0783 67.071 31.0726C67.071 31.0669 67.071 31.0612 67.071 31.0555C67.071 31.0498 67.071 31.0441 67.071 31.0384C67.071 31.0328 67.071 31.0271 67.071 31.0215C67.071 31.0158 67.071 31.0102 67.071 31.0046C67.071 30.9989 67.071 30.9933 67.071 30.9877C67.071 30.9821 67.071 30.9765 67.071 30.9709C67.071 30.9653 67.071 30.9597 67.071 30.9542C67.071 30.9486 67.071 30.943 67.071 30.9375C67.071 30.9319 67.071 30.9264 67.071 30.9209C67.071 30.9153 67.071 30.9098 67.071 30.9043C67.071 30.8988 67.071 30.8933 67.071 30.8878C67.071 30.8823 67.071 30.8769 67.071 30.8714C67.071 30.8659 67.071 30.8605 67.071 30.855C67.071 30.8496 67.071 30.8441 67.071 30.8387C67.071 30.8333 67.071 30.8279 67.071 30.8225C67.071 30.8171 67.071 30.8117 67.071 30.8063C67.071 30.8009 67.071 30.7955 67.071 30.7902C67.071 30.7848 67.071 30.7794 67.071 30.7741C67.071 30.7688 67.071 30.7634 67.071 30.7581C67.071 30.7528 67.071 30.7475 67.071 30.7422C67.071 30.7369 67.071 30.7316 67.071 30.7263C67.071 30.721 67.071 30.7157 67.071 30.7105C67.071 30.7052 67.071 30.7 67.071 30.6948C67.071 30.6895 67.071 30.6843 67.071 30.6791C67.071 30.6739 67.071 30.6687 67.071 30.6635C67.071 30.6583 67.071 30.6531 67.071 30.6479C67.071 30.6428 67.071 30.6376 67.071 30.6325C67.071 30.6273 67.071 30.6222 67.071 30.617C67.071 30.6119 67.071 30.6068 67.071 30.6017C67.071 30.5966 67.071 30.5915 67.071 30.5864C67.071 30.5813 67.071 30.5763 67.071 30.5712C67.071 30.5662 67.071 30.5611 67.071 30.5561C67.071 30.551 67.071 30.546 67.071 30.541C67.071 30.536 67.071 30.531 67.071 30.526C67.071 30.521 67.071 30.516 67.071 30.5111C67.071 30.5061 67.071 30.5011 67.071 30.4962C67.071 30.4913 67.071 30.4863 67.071 30.4814C67.071 30.4765 67.071 30.4716 67.071 30.4667C67.071 30.4618 67.071 30.4569 67.071 30.452C67.071 30.4472 67.071 30.4423 67.071 30.4374C67.071 30.4326 67.071 30.4278 67.071 30.4229C67.071 30.4181 67.071 30.4133 67.071 30.4085C67.071 30.4037 67.071 30.3989 67.071 30.3941C67.071 30.3893 67.071 30.3846 67.071 30.3798C67.071 30.3751 67.071 30.3703 67.071 30.3656C67.071 30.3609 67.071 30.3561 67.071 30.3514C67.071 30.3467 67.071 30.342 67.071 30.3374C67.071 30.3327 67.071 30.328 67.071 30.3233C67.071 30.3187 67.071 30.314 67.071 30.3094C67.071 30.3048 67.071 30.3002 67.071 30.2956C67.071 30.2909 67.071 30.2864 67.071 30.2818C67.071 30.2772 67.071 30.2726 67.071 30.2681C67.071 30.2635 67.071 30.259 67.071 30.2544C67.071 30.2499 67.071 30.2454 67.071 30.2409C67.071 30.2364 67.071 30.2319 67.071 30.2274C67.071 30.2229 67.071 30.2184 67.071 30.214C67.071 30.2095 67.071 30.2051 67.071 30.2006C67.071 30.1962 67.071 30.1918 67.071 30.1874C67.071 30.183 67.071 30.1786 67.071 30.1742C67.071 30.1698 67.071 30.1655 67.071 30.1611C67.071 30.1568 67.071 30.1524 67.071 30.1481C67.071 30.1438 67.071 30.1394 67.071 30.1351C67.071 30.1308 67.071 30.1265 67.071 30.1223C67.071 30.118 67.071 30.1137 67.071 30.1095C67.071 30.1052 67.071 30.101 67.071 30.0968C67.071 30.0926 67.071 30.0883 67.071 30.0841C67.071 30.0799 67.071 30.0758 67.071 30.0716C67.071 30.0674 67.071 30.0633 67.071 30.0591C67.071 30.055 67.071 30.0509 67.071 30.0467C67.071 30.0426 67.071 30.0385 67.071 30.0344C67.071 30.0303 67.071 30.0263 67.071 30.0222C67.071 30.0181 67.071 30.0141 67.071 30.0101C67.071 30.006 67.071 30.002 67.071 29.998C67.071 29.994 67.071 29.99 67.071 29.986C67.071 29.982 67.071 29.9781 67.071 29.9741C67.071 29.9702 67.071 29.9662 67.071 29.9623C67.071 29.9584 67.071 29.9545 67.071 29.9506C67.071 29.9467 67.071 29.9428 67.071 29.9389C67.071 29.935 67.071 29.9312 67.071 29.9274C67.071 29.9235 67.071 29.9197 67.071 29.9159C67.071 29.9121 67.071 29.9083 67.071 29.9045C67.071 29.9007 67.071 29.8969 67.071 29.8932C67.071 29.8894 67.071 29.8857 67.071 29.8819C67.071 29.8782 67.071 29.8745 67.071 29.8708C67.071 29.8671 67.071 29.8634 67.071 29.8597C67.071 29.8561 67.071 29.8524 67.071 29.8488C67.071 29.8451 67.071 29.8415 67.071 29.8379C67.071 29.8343 67.071 29.8307 67.071 29.8271C67.071 29.8235 67.071 29.8199 67.071 29.8164C67.071 29.8128 67.071 29.8093 67.071 29.8058C67.071 29.8022 67.071 29.7987 67.071 29.7952C67.071 29.7917 67.071 29.7883 67.071 29.7848C67.071 29.7813 67.071 29.7779 67.071 29.7744C67.071 29.771 67.071 29.7676 67.071 29.7642C67.071 29.7608 67.071 29.7574 67.071 29.754C67.071 29.7506 67.071 29.7473 67.071 29.7439C67.071 29.7406 67.071 29.7372 67.071 29.7339C67.071 29.7306 67.071 29.7273 67.071 29.724C67.071 29.7207 67.071 29.7174 67.071 29.7142C67.071 29.7109 67.071 29.7077 67.071 29.7045C67.071 29.7012 67.071 29.698 67.071 29.6948C67.071 29.6916 67.071 29.6884 67.071 29.6853C67.071 29.6821 67.071 29.679 67.071 29.6758C67.071 29.6727 67.071 29.6696 67.071 29.6665C67.071 29.6634 67.071 29.6603 67.071 29.6572C67.071 29.6541 67.071 29.6511 67.071 29.648C67.071 29.645 67.071 29.642 67.071 29.639C67.071 29.6359 67.071 29.633 67.071 29.63C67.071 29.627 67.071 29.624 67.071 29.6211C67.071 29.6181 67.071 29.6152 67.071 29.6123C67.071 29.6094 67.071 29.6065 67.071 29.6036C67.071 29.6007 67.071 29.5978 67.071 29.595C67.071 29.5921 67.071 29.5893 67.071 29.5865C67.071 29.5836 67.071 29.5808 67.071 29.5781C67.071 29.5753 67.071 29.5725 67.071 29.5697C67.071 29.567 67.071 29.5642 67.071 29.5615C67.071 29.5588 67.071 29.5561 67.071 29.5534C67.071 29.5507 67.071 29.548 67.071 29.5454C67.071 29.5427 67.071 29.5401 67.071 29.5374C67.071 29.5348 67.071 29.5322 67.071 29.5296C67.071 29.527 67.071 29.5244 67.071 29.5219C67.071 29.5193 67.071 29.5167 67.071 29.5142C67.071 29.5117 67.071 29.5092 67.071 29.5067C67.071 29.5042 67.071 29.5017 67.071 29.4992C67.071 29.4968 67.071 29.4943 67.071 29.4919C67.071 29.4895 67.071 29.4871 67.071 29.4847C67.071 29.4823 67.071 29.4799 67.071 29.4775C67.071 29.4752 67.071 29.4728 67.071 29.4705C67.071 29.4682 67.071 29.4658 67.071 29.4635C67.071 29.4612 67.071 29.459 67.071 29.4567C67.071 29.4544 67.071 29.4522 67.071 29.45C67.071 29.4477 67.071 29.4455 67.071 29.4433C67.071 29.4411 67.071 29.439 67.071 29.4368C67.071 29.4346 67.071 29.4325 67.071 29.4304C67.071 29.4283 67.071 29.4261 67.071 29.4241C67.071 29.422 67.071 29.4199 67.071 29.4178C67.071 29.4158 67.071 29.4137 67.071 29.4117C67.071 29.4097 67.071 29.4077 67.071 29.4057C67.071 29.4037 67.071 29.4017 67.071 29.3998C67.071 29.3978 67.071 29.3959 67.071 29.394C67.071 29.3921 67.071 29.3902 67.071 29.3883C67.071 29.3864 67.071 29.3845 67.071 29.3827C67.071 29.3808 67.071 29.379 67.071 29.3772C67.071 29.3754 67.071 29.3736 67.071 29.3718C67.071 29.37 67.071 29.3683 67.071 29.3665C67.071 29.3648 67.071 29.3631 67.071 29.3614C67.071 29.3596 67.071 29.358 67.071 29.3563C67.071 29.3546 67.071 29.353 67.071 29.3513C67.071 29.3497 67.071 29.3481 67.071 29.3465C67.071 29.3449 67.071 29.3433 67.071 29.3417H66.071ZM64.571 45.3417L64.571 39.3417L63.571 39.3417L63.571 45.3417L64.571 45.3417ZM64.571 39.3417L64.571 31.8417L63.571 31.8417L63.571 39.3417L64.571 39.3417ZM66.0967 38.1836C66.0488 38.3274 65.8977 38.5763 65.6052 38.7482C65.3276 38.9113 64.8813 39.0289 64.1923 38.8567L63.9498 39.8268C64.8608 40.0546 65.5812 39.9222 66.1119 39.6103C66.6277 39.3072 66.9266 38.8561 67.0454 38.4999L66.0967 38.1836ZM64.071 28.3417L64.071 26.3417L63.071 26.3417L63.071 28.3417L64.071 28.3417ZM64.071 26.3417C64.071 26.0631 64.0388 25.7729 63.8987 25.5208C63.7453 25.2447 63.5035 25.0838 63.2292 24.9924C62.9733 24.9071 62.666 24.874 62.3292 24.8579C61.9865 24.8416 61.5666 24.8417 61.071 24.8417V25.8417C61.5755 25.8417 61.9681 25.8419 62.2816 25.8568C62.6011 25.872 62.7938 25.9014 62.9129 25.9411C63.0136 25.9746 63.0217 26.0013 63.0246 26.0064C63.0408 26.0355 63.071 26.1204 63.071 26.3417L64.071 26.3417ZM61.071 24.8417H59.571V25.8417H61.071V24.8417ZM59.571 24.8417C59.1152 24.8417 58.7174 24.957 58.4284 25.246C58.1484 25.526 58.0484 25.8932 58.0116 26.224C57.9748 26.5553 57.9943 26.9253 58.0175 27.2734C58.0417 27.6366 58.071 27.9882 58.071 28.3417L59.071 28.3417C59.071 27.9453 59.0379 27.5468 59.0152 27.2069C58.9916 26.8519 58.9798 26.5656 59.0055 26.3345C59.0312 26.1028 59.0874 26.0012 59.1355 25.9531C59.1747 25.914 59.2769 25.8417 59.571 25.8417V24.8417ZM60.071 25.3417V22.8417H59.071V25.3417H60.071ZM60.071 22.8417C60.071 22.6584 60.1537 22.5136 60.325 22.3946C60.5087 22.267 60.7819 22.1841 61.0794 22.1792C61.3775 22.1742 61.644 22.2482 61.8202 22.3686C61.9791 22.4772 62.071 22.6231 62.071 22.8417H63.071C63.071 22.2604 62.788 21.8188 62.3844 21.543C61.9981 21.279 61.5146 21.1718 61.0627 21.1793C60.6102 21.1869 60.1333 21.3102 59.7546 21.5733C59.3634 21.8449 59.071 22.2751 59.071 22.8417H60.071ZM62.071 22.8417V25.3752H63.071V22.8417H62.071ZM62.571 30.3417H58.571V31.3417H62.571V30.3417ZM58.571 30.3417H58.071V31.3417H58.571V30.3417ZM67.071 38.3417V29.3417H66.071V38.3417H67.071ZM61.071 25.8417C61.7258 25.8417 62.1873 25.8422 62.5255 25.8732L62.6166 24.8773C62.2219 24.8412 61.7057 24.8417 61.071 24.8417V25.8417ZM60.571 48.8418C60.3503 48.8418 60.1725 48.8189 60.0224 48.7588C59.882 48.7027 59.7417 48.6046 59.6091 48.4101C59.3238 47.9916 59.071 47.1228 59.071 45.3417L58.071 45.3417C58.071 47.1606 58.3182 48.2919 58.7829 48.9734C59.0253 49.329 59.3226 49.5559 59.651 49.6873C59.9696 49.8147 60.2917 49.8418 60.571 49.8418V48.8418ZM58.071 30.8417L58.071 41.3418H59.071L59.071 30.8417L58.071 30.8417ZM59.071 45.3417L59.071 41.3418L58.071 41.3418L58.071 45.3417L59.071 45.3417Z" fill="#282F38"/>
</svg>
