<svg width="100" height="79" viewBox="0 0 100 79" fill="none" xmlns="http://www.w3.org/2000/svg">
<rect x="0.46558" y="0.532188" width="44.5084" height="62.0133" rx="1.5" transform="matrix(0.99778 0.066598 -0.0666205 0.997778 23.4037 4.97018)" fill="#F6F6F7" stroke="#282F38"/>
<path d="M15.5 72.0663V14.0586C15.5 13.2302 16.1716 12.5586 17 12.5586H42.4853H47.4186H58.1041C58.9326 12.5586 59.6041 13.2302 59.6041 14.0586V61.4968C59.6041 62.3252 58.9326 62.9968 58.1041 62.9968H50.2376C49.183 62.9968 48.3281 63.8517 48.3281 64.9063V72.0663C48.3281 72.8947 47.6565 73.5663 46.8281 73.5663H17C16.1716 73.5663 15.5 72.8947 15.5 72.0663Z" fill="#DDEAFF" stroke="#282F38" stroke-linecap="round"/>
<path d="M23.4531 68.4292C24.1579 66.5502 25.5674 62.2285 25.5674 59.9736C26.2721 63.4968 28.3864 69.2748 31.2054 64.2014C31.9102 66.3153 35.5749 66.879 41.7767 66.3153" stroke="#282F38" stroke-linecap="round"/>
<path d="M23.4531 45.8809H52.348" stroke="#282F38" stroke-linecap="round"/>
<path d="M23.4531 38.835H52.348" stroke="#282F38" stroke-linecap="round"/>
<path d="M23.4531 31.7881H52.348" stroke="#282F38" stroke-linecap="round"/>
<path d="M29.0938 24.7422L47.4173 24.7422" stroke="#282F38" stroke-linecap="round"/>
<path d="M75.5469 62.042C76.384 61.3792 77.5469 60.142 77.5469 58.542V58.042H76.0469H74.0469V58.542C74.0469 59.742 74.884 61.3792 75.5469 62.042Z" fill="#F6F6F7" stroke="#282F38"/>
<path d="M73.3828 40.3789C73.3828 39.8266 73.8305 39.3789 74.3828 39.3789H77.3828C77.9351 39.3789 78.3828 39.8266 78.3828 40.3789V56.3706C78.3828 56.7113 78.2093 57.0286 77.9225 57.2125L77.1295 57.7208C76.9684 57.824 76.7811 57.8789 76.5898 57.8789H74.7856C74.5272 57.8789 74.2788 57.7789 74.0925 57.5997L73.6897 57.2125C73.4936 57.0239 73.3828 56.7636 73.3828 56.4916V40.3789Z" fill="#174AA4"/>
<path d="M73.0456 37.0417H78.0456L78.0457 35.0417C78.0456 34.0417 77.5457 34.0417 75.5457 34.0417H74.0457C72.5457 34.0417 73.0457 35.5417 73.0456 37.0417Z" fill="#F6F6F7"/>
<path d="M77.0456 39.5417C78.2456 39.5417 78.5456 39.5417 78.5456 40.5417L78.5457 48.0417C80.1457 48.4417 80.879 47.5417 81.0457 47.0417V38.0417C81.0457 37.2417 80.0456 37.0417 79.5456 37.0417H78.0456H73.0456H72.5456C70.9456 37.0417 71.0456 39.5417 72.5456 39.5417H73.0456H77.0456Z" fill="#F5F5FB"/>
<path d="M75.5457 34.0417C76.1904 34.0417 76.6792 34.0417 77.0457 34.0752V31.5417C77.0457 29.9417 74.0457 30.0417 74.0457 31.5417V34.0417H75.5457Z" fill="#147AD6"/>
<path d="M78.5456 54.0417L78.0456 54.0417V54.0417L78.5456 54.0417ZM78.5456 40.5417H78.0456V40.5417L78.5456 40.5417ZM81.0457 47.0417L81.52 47.1998L81.5457 47.1228V47.0417H81.0457ZM78.0457 35.0417L78.5457 35.0417V35.0417L78.0457 35.0417ZM77.0457 34.0752L77.0001 34.5731L77.5457 34.623V34.0752H77.0457ZM73.0456 54.0417L72.5456 54.0417L73.0456 54.0417ZM73.0457 50.0417L73.5457 50.0417V50.0417H73.0457ZM75.0457 58.5417C76.7789 58.5417 77.9171 58.3115 78.5178 57.4535C78.808 57.0389 78.93 56.5333 78.9882 55.9851C79.0462 55.4374 79.0456 54.7825 79.0456 54.0417L78.0456 54.0417C78.0456 54.801 78.045 55.3961 77.9937 55.8796C77.9425 56.3627 77.8458 56.6696 77.6985 56.88C77.4242 57.272 76.8124 57.5417 75.0457 57.5417V58.5417ZM79.0456 40.5417C79.0456 40.0503 78.9879 39.5071 78.4884 39.2296C78.2798 39.1137 78.042 39.0761 77.8258 39.0589C77.6047 39.0413 77.3382 39.0417 77.0456 39.0417V40.0417C77.353 40.0417 77.574 40.042 77.7467 40.0558C77.9242 40.0698 77.9864 40.0947 78.0028 40.1038C78.0052 40.1051 78.0002 40.1023 77.9954 40.0963C77.9917 40.0915 77.9971 40.096 78.0056 40.1217C78.0263 40.1837 78.0456 40.3055 78.0456 40.5417H79.0456ZM72.5456 39.0417C72.3244 39.0417 72.1758 38.9556 72.0719 38.831C71.9591 38.6956 71.8873 38.4971 71.883 38.2817C71.8787 38.0662 71.9425 37.876 72.0463 37.7494C72.1399 37.6353 72.2895 37.5417 72.5456 37.5417V36.5417C72.0017 36.5417 71.5639 36.7606 71.273 37.1153C70.9925 37.4574 70.875 37.8922 70.8832 38.3017C70.8914 38.7113 71.0259 39.1378 71.3037 39.4712C71.5905 39.8153 72.0168 40.0417 72.5456 40.0417V39.0417ZM72.5456 37.5417H73.0456V36.5417H72.5456V37.5417ZM73.0456 37.5417H78.0456V36.5417H73.0456V37.5417ZM78.0456 37.5417H79.5456V36.5417H78.0456V37.5417ZM79.5456 37.5417C79.7469 37.5417 80.042 37.5846 80.2668 37.6925C80.4799 37.7948 80.5457 37.9043 80.5457 38.0417H81.5457C81.5457 37.379 81.1114 36.9886 80.6995 36.7909C80.2993 36.5988 79.8444 36.5417 79.5456 36.5417V37.5417ZM80.5457 38.0417C80.5457 38.0433 80.5457 38.0448 80.5457 38.0464C80.5457 38.048 80.5457 38.0496 80.5457 38.0513C80.5457 38.0529 80.5457 38.0546 80.5457 38.0562C80.5457 38.0579 80.5457 38.0596 80.5457 38.0613C80.5457 38.063 80.5457 38.0647 80.5457 38.0665C80.5457 38.0682 80.5457 38.07 80.5457 38.0718C80.5457 38.0735 80.5457 38.0753 80.5457 38.0771C80.5457 38.079 80.5457 38.0808 80.5457 38.0826C80.5457 38.0845 80.5457 38.0863 80.5457 38.0882C80.5457 38.0901 80.5457 38.092 80.5457 38.0939C80.5457 38.0958 80.5457 38.0978 80.5457 38.0997C80.5457 38.1017 80.5457 38.1037 80.5457 38.1056C80.5457 38.1076 80.5457 38.1096 80.5457 38.1117C80.5457 38.1137 80.5457 38.1157 80.5457 38.1178C80.5457 38.1198 80.5457 38.1219 80.5457 38.124C80.5457 38.1261 80.5457 38.1282 80.5457 38.1303C80.5457 38.1325 80.5457 38.1346 80.5457 38.1368C80.5457 38.1389 80.5457 38.1411 80.5457 38.1433C80.5457 38.1455 80.5457 38.1477 80.5457 38.1499C80.5457 38.1522 80.5457 38.1544 80.5457 38.1567C80.5457 38.1589 80.5457 38.1612 80.5457 38.1635C80.5457 38.1658 80.5457 38.1681 80.5457 38.1704C80.5457 38.1728 80.5457 38.1751 80.5457 38.1775C80.5457 38.1798 80.5457 38.1822 80.5457 38.1846C80.5457 38.187 80.5457 38.1894 80.5457 38.1919C80.5457 38.1943 80.5457 38.1967 80.5457 38.1992C80.5457 38.2017 80.5457 38.2041 80.5457 38.2066C80.5457 38.2091 80.5457 38.2116 80.5457 38.2142C80.5457 38.2167 80.5457 38.2192 80.5457 38.2218C80.5457 38.2244 80.5457 38.2269 80.5457 38.2295C80.5457 38.2321 80.5457 38.2347 80.5457 38.2374C80.5457 38.24 80.5457 38.2426 80.5457 38.2453C80.5457 38.248 80.5457 38.2506 80.5457 38.2533C80.5457 38.256 80.5457 38.2587 80.5457 38.2615C80.5457 38.2642 80.5457 38.2669 80.5457 38.2697C80.5457 38.2724 80.5457 38.2752 80.5457 38.278C80.5457 38.2808 80.5457 38.2836 80.5457 38.2864C80.5457 38.2892 80.5457 38.2921 80.5457 38.2949C80.5457 38.2978 80.5457 38.3007 80.5457 38.3035C80.5457 38.3064 80.5457 38.3093 80.5457 38.3122C80.5457 38.3152 80.5457 38.3181 80.5457 38.321C80.5457 38.324 80.5457 38.3269 80.5457 38.3299C80.5457 38.3329 80.5457 38.3359 80.5457 38.3389C80.5457 38.3419 80.5457 38.3449 80.5457 38.348C80.5457 38.351 80.5457 38.3541 80.5457 38.3572C80.5457 38.3602 80.5457 38.3633 80.5457 38.3664C80.5457 38.3695 80.5457 38.3727 80.5457 38.3758C80.5457 38.3789 80.5457 38.3821 80.5457 38.3852C80.5457 38.3884 80.5457 38.3916 80.5457 38.3948C80.5457 38.398 80.5457 38.4012 80.5457 38.4044C80.5457 38.4076 80.5457 38.4109 80.5457 38.4141C80.5457 38.4174 80.5457 38.4207 80.5457 38.424C80.5457 38.4272 80.5457 38.4305 80.5457 38.4339C80.5457 38.4372 80.5457 38.4405 80.5457 38.4439C80.5457 38.4472 80.5457 38.4506 80.5457 38.4539C80.5457 38.4573 80.5457 38.4607 80.5457 38.4641C80.5457 38.4675 80.5457 38.471 80.5457 38.4744C80.5457 38.4778 80.5457 38.4813 80.5457 38.4847C80.5457 38.4882 80.5457 38.4917 80.5457 38.4952C80.5457 38.4987 80.5457 38.5022 80.5457 38.5057C80.5457 38.5092 80.5457 38.5128 80.5457 38.5163C80.5457 38.5199 80.5457 38.5235 80.5457 38.527C80.5457 38.5306 80.5457 38.5342 80.5457 38.5378C80.5457 38.5415 80.5457 38.5451 80.5457 38.5487C80.5457 38.5524 80.5457 38.556 80.5457 38.5597C80.5457 38.5634 80.5457 38.567 80.5457 38.5707C80.5457 38.5744 80.5457 38.5782 80.5457 38.5819C80.5457 38.5856 80.5457 38.5894 80.5457 38.5931C80.5457 38.5969 80.5457 38.6006 80.5457 38.6044C80.5457 38.6082 80.5457 38.612 80.5457 38.6158C80.5457 38.6196 80.5457 38.6235 80.5457 38.6273C80.5457 38.6311 80.5457 38.635 80.5457 38.6389C80.5457 38.6427 80.5457 38.6466 80.5457 38.6505C80.5457 38.6544 80.5457 38.6583 80.5457 38.6623C80.5457 38.6662 80.5457 38.6701 80.5457 38.6741C80.5457 38.678 80.5457 38.682 80.5457 38.686C80.5457 38.6899 80.5457 38.6939 80.5457 38.6979C80.5457 38.702 80.5457 38.706 80.5457 38.71C80.5457 38.714 80.5457 38.7181 80.5457 38.7222C80.5457 38.7262 80.5457 38.7303 80.5457 38.7344C80.5457 38.7385 80.5457 38.7426 80.5457 38.7467C80.5457 38.7508 80.5457 38.7549 80.5457 38.7591C80.5457 38.7632 80.5457 38.7674 80.5457 38.7715C80.5457 38.7757 80.5457 38.7799 80.5457 38.7841C80.5457 38.7883 80.5457 38.7925 80.5457 38.7967C80.5457 38.8009 80.5457 38.8052 80.5457 38.8094C80.5457 38.8137 80.5457 38.8179 80.5457 38.8222C80.5457 38.8265 80.5457 38.8308 80.5457 38.8351C80.5457 38.8394 80.5457 38.8437 80.5457 38.848C80.5457 38.8524 80.5457 38.8567 80.5457 38.8611C80.5457 38.8654 80.5457 38.8698 80.5457 38.8742C80.5457 38.8785 80.5457 38.8829 80.5457 38.8873C80.5457 38.8917 80.5457 38.8962 80.5457 38.9006C80.5457 38.905 80.5457 38.9095 80.5457 38.9139C80.5457 38.9184 80.5457 38.9228 80.5457 38.9273C80.5457 38.9318 80.5457 38.9363 80.5457 38.9408C80.5457 38.9453 80.5457 38.9498 80.5457 38.9544C80.5457 38.9589 80.5457 38.9635 80.5457 38.968C80.5457 38.9726 80.5457 38.9771 80.5457 38.9817C80.5457 38.9863 80.5457 38.9909 80.5457 38.9955C80.5457 39.0001 80.5457 39.0047 80.5457 39.0094C80.5457 39.014 80.5457 39.0186 80.5457 39.0233C80.5457 39.028 80.5457 39.0326 80.5457 39.0373C80.5457 39.042 80.5457 39.0467 80.5457 39.0514C80.5457 39.0561 80.5457 39.0608 80.5457 39.0655C80.5457 39.0703 80.5457 39.075 80.5457 39.0798C80.5457 39.0845 80.5457 39.0893 80.5457 39.0941C80.5457 39.0988 80.5457 39.1036 80.5457 39.1084C80.5457 39.1132 80.5457 39.1181 80.5457 39.1229C80.5457 39.1277 80.5457 39.1325 80.5457 39.1374C80.5457 39.1422 80.5457 39.1471 80.5457 39.152C80.5457 39.1569 80.5457 39.1617 80.5457 39.1666C80.5457 39.1715 80.5457 39.1764 80.5457 39.1814C80.5457 39.1863 80.5457 39.1912 80.5457 39.1962C80.5457 39.2011 80.5457 39.2061 80.5457 39.211C80.5457 39.216 80.5457 39.221 80.5457 39.226C80.5457 39.2309 80.5457 39.2359 80.5457 39.241C80.5457 39.246 80.5457 39.251 80.5457 39.256C80.5457 39.2611 80.5457 39.2661 80.5457 39.2712C80.5457 39.2762 80.5457 39.2813 80.5457 39.2864C80.5457 39.2915 80.5457 39.2965 80.5457 39.3017C80.5457 39.3068 80.5457 39.3119 80.5457 39.317C80.5457 39.3221 80.5457 39.3273 80.5457 39.3324C80.5457 39.3376 80.5457 39.3427 80.5457 39.3479C80.5457 39.353 80.5457 39.3582 80.5457 39.3634C80.5457 39.3686 80.5457 39.3738 80.5457 39.379C80.5457 39.3842 80.5457 39.3895 80.5457 39.3947C80.5457 39.3999 80.5457 39.4052 80.5457 39.4104C80.5457 39.4157 80.5457 39.421 80.5457 39.4262C80.5457 39.4315 80.5457 39.4368 80.5457 39.4421C80.5457 39.4474 80.5457 39.4527 80.5457 39.458C80.5457 39.4634 80.5457 39.4687 80.5457 39.474C80.5457 39.4794 80.5457 39.4847 80.5457 39.4901C80.5457 39.4955 80.5457 39.5008 80.5457 39.5062C80.5457 39.5116 80.5457 39.517 80.5457 39.5224C80.5457 39.5278 80.5457 39.5332 80.5457 39.5387C80.5457 39.5441 80.5457 39.5495 80.5457 39.555C80.5457 39.5604 80.5457 39.5659 80.5457 39.5713C80.5457 39.5768 80.5457 39.5823 80.5457 39.5878C80.5457 39.5933 80.5457 39.5988 80.5457 39.6043C80.5457 39.6098 80.5457 39.6153 80.5457 39.6208C80.5457 39.6264 80.5457 39.6319 80.5457 39.6374C80.5457 39.643 80.5457 39.6486 80.5457 39.6541C80.5457 39.6597 80.5457 39.6653 80.5457 39.6709C80.5457 39.6764 80.5457 39.682 80.5457 39.6877C80.5457 39.6933 80.5457 39.6989 80.5457 39.7045C80.5457 39.7101 80.5457 39.7158 80.5457 39.7214C80.5457 39.7271 80.5457 39.7327 80.5457 39.7384C80.5457 39.7441 80.5457 39.7497 80.5457 39.7554C80.5457 39.7611 80.5457 39.7668 80.5457 39.7725C80.5457 39.7782 80.5457 39.7839 80.5457 39.7897C80.5457 39.7954 80.5457 39.8011 80.5457 39.8069C80.5457 39.8126 80.5457 39.8183 80.5457 39.8241C80.5457 39.8299 80.5457 39.8356 80.5457 39.8414C80.5457 39.8472 80.5457 39.853 80.5457 39.8588C80.5457 39.8646 80.5457 39.8704 80.5457 39.8762C80.5457 39.882 80.5457 39.8879 80.5457 39.8937C80.5457 39.8995 80.5457 39.9054 80.5457 39.9112C80.5457 39.9171 80.5457 39.923 80.5457 39.9288C80.5457 39.9347 80.5457 39.9406 80.5457 39.9465C80.5457 39.9524 80.5457 39.9583 80.5457 39.9642C80.5457 39.9701 80.5457 39.976 80.5457 39.9819C80.5457 39.9879 80.5457 39.9938 80.5457 39.9997C80.5457 40.0057 80.5457 40.0116 80.5457 40.0176C80.5457 40.0236 80.5457 40.0295 80.5457 40.0355C80.5457 40.0415 80.5457 40.0475 80.5457 40.0535C80.5457 40.0595 80.5457 40.0655 80.5457 40.0715C80.5457 40.0775 80.5457 40.0835 80.5457 40.0896C80.5457 40.0956 80.5457 40.1016 80.5457 40.1077C80.5457 40.1137 80.5457 40.1198 80.5457 40.1258C80.5457 40.1319 80.5457 40.138 80.5457 40.1441C80.5457 40.1502 80.5457 40.1562 80.5457 40.1623C80.5457 40.1684 80.5457 40.1745 80.5457 40.1807C80.5457 40.1868 80.5457 40.1929 80.5457 40.199C80.5457 40.2052 80.5457 40.2113 80.5457 40.2175C80.5457 40.2236 80.5457 40.2298 80.5457 40.2359C80.5457 40.2421 80.5457 40.2483 80.5457 40.2544C80.5457 40.2606 80.5457 40.2668 80.5457 40.273C80.5457 40.2792 80.5457 40.2854 80.5457 40.2916C80.5457 40.2978 80.5457 40.304 80.5457 40.3103C80.5457 40.3165 80.5457 40.3227 80.5457 40.329C80.5457 40.3352 80.5457 40.3415 80.5457 40.3477C80.5457 40.354 80.5457 40.3603 80.5457 40.3665C80.5457 40.3728 80.5457 40.3791 80.5457 40.3854C80.5457 40.3917 80.5457 40.398 80.5457 40.4043C80.5457 40.4106 80.5457 40.4169 80.5457 40.4232C80.5457 40.4295 80.5457 40.4359 80.5457 40.4422C80.5457 40.4485 80.5457 40.4549 80.5457 40.4612C80.5457 40.4676 80.5457 40.4739 80.5457 40.4803C80.5457 40.4867 80.5457 40.493 80.5457 40.4994C80.5457 40.5058 80.5457 40.5122 80.5457 40.5186C80.5457 40.525 80.5457 40.5314 80.5457 40.5378C80.5457 40.5442 80.5457 40.5506 80.5457 40.557C80.5457 40.5635 80.5457 40.5699 80.5457 40.5763C80.5457 40.5828 80.5457 40.5892 80.5457 40.5957C80.5457 40.6021 80.5457 40.6086 80.5457 40.615C80.5457 40.6215 80.5457 40.628 80.5457 40.6344C80.5457 40.6409 80.5457 40.6474 80.5457 40.6539C80.5457 40.6604 80.5457 40.6669 80.5457 40.6734C80.5457 40.6799 80.5457 40.6864 80.5457 40.6929C80.5457 40.6995 80.5457 40.706 80.5457 40.7125C80.5457 40.7191 80.5457 40.7256 80.5457 40.7321C80.5457 40.7387 80.5457 40.7452 80.5457 40.7518C80.5457 40.7584 80.5457 40.7649 80.5457 40.7715C80.5457 40.7781 80.5457 40.7847 80.5457 40.7912C80.5457 40.7978 80.5457 40.8044 80.5457 40.811C80.5457 40.8176 80.5457 40.8242 80.5457 40.8308C80.5457 40.8374 80.5457 40.8441 80.5457 40.8507C80.5457 40.8573 80.5457 40.8639 80.5457 40.8706C80.5457 40.8772 80.5457 40.8839 80.5457 40.8905C80.5457 40.8972 80.5457 40.9038 80.5457 40.9105C80.5457 40.9171 80.5457 40.9238 80.5457 40.9305C80.5457 40.9372 80.5457 40.9438 80.5457 40.9505C80.5457 40.9572 80.5457 40.9639 80.5457 40.9706C80.5457 40.9773 80.5457 40.984 80.5457 40.9907C80.5457 40.9974 80.5457 41.0041 80.5457 41.0108C80.5457 41.0176 80.5457 41.0243 80.5457 41.031C80.5457 41.0378 80.5457 41.0445 80.5457 41.0512C80.5457 41.058 80.5457 41.0647 80.5457 41.0715C80.5457 41.0782 80.5457 41.085 80.5457 41.0918C80.5457 41.0985 80.5457 41.1053 80.5457 41.1121C80.5457 41.1189 80.5457 41.1256 80.5457 41.1324C80.5457 41.1392 80.5457 41.146 80.5457 41.1528C80.5457 41.1596 80.5457 41.1664 80.5457 41.1732C80.5457 41.18 80.5457 41.1869 80.5457 41.1937C80.5457 41.2005 80.5457 41.2073 80.5457 41.2142C80.5457 41.221 80.5457 41.2278 80.5457 41.2347C80.5457 41.2415 80.5457 41.2484 80.5457 41.2552C80.5457 41.2621 80.5457 41.2689 80.5457 41.2758C80.5457 41.2827 80.5457 41.2895 80.5457 41.2964C80.5457 41.3033 80.5457 41.3101 80.5457 41.317C80.5457 41.3239 80.5457 41.3308 80.5457 41.3377C80.5457 41.3446 80.5457 41.3515 80.5457 41.3584C80.5457 41.3653 80.5457 41.3722 80.5457 41.3791C80.5457 41.386 80.5457 41.3929 80.5457 41.3999C80.5457 41.4068 80.5457 41.4137 80.5457 41.4206C80.5457 41.4276 80.5457 41.4345 80.5457 41.4414C80.5457 41.4484 80.5457 41.4553 80.5457 41.4623C80.5457 41.4692 80.5457 41.4762 80.5457 41.4831C80.5457 41.4901 80.5457 41.4971 80.5457 41.504C80.5457 41.511 80.5457 41.518 80.5457 41.525C80.5457 41.5319 80.5457 41.5389 80.5457 41.5459C80.5457 41.5529 80.5457 41.5599 80.5457 41.5669C80.5457 41.5739 80.5457 41.5809 80.5457 41.5879C80.5457 41.5949 80.5457 41.6019 80.5457 41.6089C80.5457 41.6159 80.5457 41.6229 80.5457 41.6299C80.5457 41.6369 80.5457 41.644 80.5457 41.651C80.5457 41.658 80.5457 41.6651 80.5457 41.6721C80.5457 41.6791 80.5457 41.6862 80.5457 41.6932C80.5457 41.7003 80.5457 41.7073 80.5457 41.7144C80.5457 41.7214 80.5457 41.7285 80.5457 41.7355C80.5457 41.7426 80.5457 41.7496 80.5457 41.7567C80.5457 41.7638 80.5457 41.7709 80.5457 41.7779C80.5457 41.785 80.5457 41.7921 80.5457 41.7992C80.5457 41.8062 80.5457 41.8133 80.5457 41.8204C80.5457 41.8275 80.5457 41.8346 80.5457 41.8417C80.5457 41.8488 80.5457 41.8559 80.5457 41.863C80.5457 41.8701 80.5457 41.8772 80.5457 41.8843C80.5457 41.8914 80.5457 41.8985 80.5457 41.9057C80.5457 41.9128 80.5457 41.9199 80.5457 41.927C80.5457 41.9341 80.5457 41.9413 80.5457 41.9484C80.5457 41.9555 80.5457 41.9627 80.5457 41.9698C80.5457 41.9769 80.5457 41.9841 80.5457 41.9912C80.5457 41.9984 80.5457 42.0055 80.5457 42.0127C80.5457 42.0198 80.5457 42.027 80.5457 42.0341C80.5457 42.0413 80.5457 42.0484 80.5457 42.0556C80.5457 42.0628 80.5457 42.0699 80.5457 42.0771C80.5457 42.0843 80.5457 42.0914 80.5457 42.0986C80.5457 42.1058 80.5457 42.113 80.5457 42.1201C80.5457 42.1273 80.5457 42.1345 80.5457 42.1417C80.5457 42.1489 80.5457 42.1561 80.5457 42.1632C80.5457 42.1704 80.5457 42.1776 80.5457 42.1848C80.5457 42.192 80.5457 42.1992 80.5457 42.2064C80.5457 42.2136 80.5457 42.2208 80.5457 42.228C80.5457 42.2352 80.5457 42.2424 80.5457 42.2497C80.5457 42.2569 80.5457 42.2641 80.5457 42.2713C80.5457 42.2785 80.5457 42.2857 80.5457 42.293C80.5457 42.3002 80.5457 42.3074 80.5457 42.3146C80.5457 42.3218 80.5457 42.3291 80.5457 42.3363C80.5457 42.3435 80.5457 42.3508 80.5457 42.358C80.5457 42.3652 80.5457 42.3725 80.5457 42.3797C80.5457 42.387 80.5457 42.3942 80.5457 42.4014C80.5457 42.4087 80.5457 42.4159 80.5457 42.4232C80.5457 42.4304 80.5457 42.4377 80.5457 42.4449C80.5457 42.4522 80.5457 42.4594 80.5457 42.4667C80.5457 42.4739 80.5457 42.4812 80.5457 42.4885C80.5457 42.4957 80.5457 42.503 80.5457 42.5102C80.5457 42.5175 80.5457 42.5248 80.5457 42.532C80.5457 42.5393 80.5457 42.5466 80.5457 42.5538C80.5457 42.5611 80.5457 42.5684 80.5457 42.5756C80.5457 42.5829 80.5457 42.5902 80.5457 42.5975C80.5457 42.6047 80.5457 42.612 80.5457 42.6193C80.5457 42.6266 80.5457 42.6339 80.5457 42.6411C80.5457 42.6484 80.5457 42.6557 80.5457 42.663C80.5457 42.6703 80.5457 42.6776 80.5457 42.6849C80.5457 42.6921 80.5457 42.6994 80.5457 42.7067C80.5457 42.714 80.5457 42.7213 80.5457 42.7286C80.5457 42.7359 80.5457 42.7432 80.5457 42.7505C80.5457 42.7578 80.5457 42.7651 80.5457 42.7724C80.5457 42.7797 80.5457 42.787 80.5457 42.7943C80.5457 42.8016 80.5457 42.8089 80.5457 42.8162C80.5457 42.8235 80.5457 42.8308 80.5457 42.8381C80.5457 42.8454 80.5457 42.8527 80.5457 42.86C80.5457 42.8673 80.5457 42.8746 80.5457 42.8819C80.5457 42.8892 80.5457 42.8965 80.5457 42.9038C80.5457 42.9112 80.5457 42.9185 80.5457 42.9258C80.5457 42.9331 80.5457 42.9404 80.5457 42.9477C80.5457 42.955 80.5457 42.9623 80.5457 42.9696C80.5457 42.977 80.5457 42.9843 80.5457 42.9916C80.5457 42.9989 80.5457 43.0062 80.5457 43.0135C80.5457 43.0208 80.5457 43.0282 80.5457 43.0355C80.5457 43.0428 80.5457 43.0501 80.5457 43.0574C80.5457 43.0648 80.5457 43.0721 80.5457 43.0794C80.5457 43.0867 80.5457 43.094 80.5457 43.1013C80.5457 43.1087 80.5457 43.116 80.5457 43.1233C80.5457 43.1306 80.5457 43.1379 80.5457 43.1453C80.5457 43.1526 80.5457 43.1599 80.5457 43.1672C80.5457 43.1745 80.5457 43.1819 80.5457 43.1892C80.5457 43.1965 80.5457 43.2038 80.5457 43.2111C80.5457 43.2185 80.5457 43.2258 80.5457 43.2331C80.5457 43.2404 80.5457 43.2477 80.5457 43.2551C80.5457 43.2624 80.5457 43.2697 80.5457 43.277C80.5457 43.2843 80.5457 43.2917 80.5457 43.299C80.5457 43.3063 80.5457 43.3136 80.5457 43.3209C80.5457 43.3283 80.5457 43.3356 80.5457 43.3429C80.5457 43.3502 80.5457 43.3575 80.5457 43.3648C80.5457 43.3722 80.5457 43.3795 80.5457 43.3868C80.5457 43.3941 80.5457 43.4014 80.5457 43.4087C80.5457 43.4161 80.5457 43.4234 80.5457 43.4307C80.5457 43.438 80.5457 43.4453 80.5457 43.4526C80.5457 43.4599 80.5457 43.4673 80.5457 43.4746C80.5457 43.4819 80.5457 43.4892 80.5457 43.4965C80.5457 43.5038 80.5457 43.5111 80.5457 43.5184C80.5457 43.5257 80.5457 43.533 80.5457 43.5404C80.5457 43.5477 80.5457 43.555 80.5457 43.5623C80.5457 43.5696 80.5457 43.5769 80.5457 43.5842C80.5457 43.5915 80.5457 43.5988 80.5457 43.6061C80.5457 43.6134 80.5457 43.6207 80.5457 43.628C80.5457 43.6353 80.5457 43.6426 80.5457 43.6499C80.5457 43.6572 80.5457 43.6645 80.5457 43.6718C80.5457 43.6791 80.5457 43.6864 80.5457 43.6937C80.5457 43.701 80.5457 43.7082 80.5457 43.7155C80.5457 43.7228 80.5457 43.7301 80.5457 43.7374C80.5457 43.7447 80.5457 43.752 80.5457 43.7593C80.5457 43.7665 80.5457 43.7738 80.5457 43.7811C80.5457 43.7884 80.5457 43.7957 80.5457 43.8029C80.5457 43.8102 80.5457 43.8175 80.5457 43.8248C80.5457 43.8321 80.5457 43.8393 80.5457 43.8466C80.5457 43.8539 80.5457 43.8611 80.5457 43.8684C80.5457 43.8757 80.5457 43.8829 80.5457 43.8902C80.5457 43.8975 80.5457 43.9047 80.5457 43.912C80.5457 43.9193 80.5457 43.9265 80.5457 43.9338C80.5457 43.941 80.5457 43.9483 80.5457 43.9556C80.5457 43.9628 80.5457 43.9701 80.5457 43.9773C80.5457 43.9846 80.5457 43.9918 80.5457 43.9991C80.5457 44.0063 80.5457 44.0135 80.5457 44.0208C80.5457 44.028 80.5457 44.0353 80.5457 44.0425C80.5457 44.0497 80.5457 44.057 80.5457 44.0642C80.5457 44.0714 80.5457 44.0787 80.5457 44.0859C80.5457 44.0931 80.5457 44.1004 80.5457 44.1076C80.5457 44.1148 80.5457 44.122 80.5457 44.1293C80.5457 44.1365 80.5457 44.1437 80.5457 44.1509C80.5457 44.1581 80.5457 44.1653 80.5457 44.1725C80.5457 44.1798 80.5457 44.187 80.5457 44.1942C80.5457 44.2014 80.5457 44.2086 80.5457 44.2158C80.5457 44.223 80.5457 44.2302 80.5457 44.2374C80.5457 44.2446 80.5457 44.2518 80.5457 44.2589C80.5457 44.2661 80.5457 44.2733 80.5457 44.2805C80.5457 44.2877 80.5457 44.2949 80.5457 44.302C80.5457 44.3092 80.5457 44.3164 80.5457 44.3236C80.5457 44.3307 80.5457 44.3379 80.5457 44.3451C80.5457 44.3522 80.5457 44.3594 80.5457 44.3666C80.5457 44.3737 80.5457 44.3809 80.5457 44.388C80.5457 44.3952 80.5457 44.4023 80.5457 44.4095C80.5457 44.4166 80.5457 44.4238 80.5457 44.4309C80.5457 44.4381 80.5457 44.4452 80.5457 44.4523C80.5457 44.4595 80.5457 44.4666 80.5457 44.4737C80.5457 44.4809 80.5457 44.488 80.5457 44.4951C80.5457 44.5022 80.5457 44.5094 80.5457 44.5165C80.5457 44.5236 80.5457 44.5307 80.5457 44.5378C80.5457 44.5449 80.5457 44.552 80.5457 44.5591C80.5457 44.5662 80.5457 44.5733 80.5457 44.5804C80.5457 44.5875 80.5457 44.5946 80.5457 44.6017C80.5457 44.6088 80.5457 44.6159 80.5457 44.6229C80.5457 44.63 80.5457 44.6371 80.5457 44.6442C80.5457 44.6512 80.5457 44.6583 80.5457 44.6654C80.5457 44.6724 80.5457 44.6795 80.5457 44.6866C80.5457 44.6936 80.5457 44.7007 80.5457 44.7077C80.5457 44.7148 80.5457 44.7218 80.5457 44.7289C80.5457 44.7359 80.5457 44.7429 80.5457 44.75C80.5457 44.757 80.5457 44.764 80.5457 44.7711C80.5457 44.7781 80.5457 44.7851 80.5457 44.7921C80.5457 44.7991 80.5457 44.8062 80.5457 44.8132C80.5457 44.8202 80.5457 44.8272 80.5457 44.8342C80.5457 44.8412 80.5457 44.8482 80.5457 44.8552C80.5457 44.8622 80.5457 44.8692 80.5457 44.8761C80.5457 44.8831 80.5457 44.8901 80.5457 44.8971C80.5457 44.904 80.5457 44.911 80.5457 44.918C80.5457 44.9249 80.5457 44.9319 80.5457 44.9389C80.5457 44.9458 80.5457 44.9528 80.5457 44.9597C80.5457 44.9667 80.5457 44.9736 80.5457 44.9806C80.5457 44.9875 80.5457 44.9944 80.5457 45.0014C80.5457 45.0083 80.5457 45.0152 80.5457 45.0221C80.5457 45.029 80.5457 45.036 80.5457 45.0429C80.5457 45.0498 80.5457 45.0567 80.5457 45.0636C80.5457 45.0705 80.5457 45.0774 80.5457 45.0843C80.5457 45.0912 80.5457 45.098 80.5457 45.1049C80.5457 45.1118 80.5457 45.1187 80.5457 45.1256C80.5457 45.1324 80.5457 45.1393 80.5457 45.1462C80.5457 45.153 80.5457 45.1599 80.5457 45.1667C80.5457 45.1736 80.5457 45.1804 80.5457 45.1873C80.5457 45.1941 80.5457 45.2009 80.5457 45.2078C80.5457 45.2146 80.5457 45.2214 80.5457 45.2282C80.5457 45.235 80.5457 45.2419 80.5457 45.2487C80.5457 45.2555 80.5457 45.2623 80.5457 45.2691C80.5457 45.2759 80.5457 45.2827 80.5457 45.2894C80.5457 45.2962 80.5457 45.303 80.5457 45.3098C80.5457 45.3166 80.5457 45.3233 80.5457 45.3301C80.5457 45.3369 80.5457 45.3436 80.5457 45.3504C80.5457 45.3571 80.5457 45.3639 80.5457 45.3706C80.5457 45.3774 80.5457 45.3841 80.5457 45.3908C80.5457 45.3975 80.5457 45.4043 80.5457 45.411C80.5457 45.4177 80.5457 45.4244 80.5457 45.4311C80.5457 45.4378 80.5457 45.4445 80.5457 45.4512C80.5457 45.4579 80.5457 45.4646 80.5457 45.4713C80.5457 45.478 80.5457 45.4847 80.5457 45.4913C80.5457 45.498 80.5457 45.5047 80.5457 45.5113C80.5457 45.518 80.5457 45.5246 80.5457 45.5313C80.5457 45.5379 80.5457 45.5446 80.5457 45.5512C80.5457 45.5578 80.5457 45.5645 80.5457 45.5711C80.5457 45.5777 80.5457 45.5843 80.5457 45.5909C80.5457 45.5975 80.5457 45.6041 80.5457 45.6107C80.5457 45.6173 80.5457 45.6239 80.5457 45.6305C80.5457 45.6371 80.5457 45.6437 80.5457 45.6502C80.5457 45.6568 80.5457 45.6634 80.5457 45.6699C80.5457 45.6765 80.5457 45.683 80.5457 45.6896C80.5457 45.6961 80.5457 45.7026 80.5457 45.7092C80.5457 45.7157 80.5457 45.7222 80.5457 45.7287C80.5457 45.7353 80.5457 45.7418 80.5457 45.7483C80.5457 45.7548 80.5457 45.7613 80.5457 45.7678C80.5457 45.7743 80.5457 45.7807 80.5457 45.7872C80.5457 45.7937 80.5457 45.8002 80.5457 45.8066C80.5457 45.8131 80.5457 45.8195 80.5457 45.826C80.5457 45.8324 80.5457 45.8389 80.5457 45.8453C80.5457 45.8517 80.5457 45.8582 80.5457 45.8646C80.5457 45.871 80.5457 45.8774 80.5457 45.8838C80.5457 45.8902 80.5457 45.8966 80.5457 45.903C80.5457 45.9094 80.5457 45.9158 80.5457 45.9222C80.5457 45.9285 80.5457 45.9349 80.5457 45.9413C80.5457 45.9476 80.5457 45.954 80.5457 45.9603C80.5457 45.9667 80.5457 45.973 80.5457 45.9794C80.5457 45.9857 80.5457 45.992 80.5457 45.9983C80.5457 46.0046 80.5457 46.0109 80.5457 46.0173C80.5457 46.0236 80.5457 46.0298 80.5457 46.0361C80.5457 46.0424 80.5457 46.0487 80.5457 46.055C80.5457 46.0612 80.5457 46.0675 80.5457 46.0738C80.5457 46.08 80.5457 46.0863 80.5457 46.0925C80.5457 46.0987 80.5457 46.105 80.5457 46.1112C80.5457 46.1174 80.5457 46.1236 80.5457 46.1298C80.5457 46.1361 80.5457 46.1423 80.5457 46.1484C80.5457 46.1546 80.5457 46.1608 80.5457 46.167C80.5457 46.1732 80.5457 46.1793 80.5457 46.1855C80.5457 46.1917 80.5457 46.1978 80.5457 46.204C80.5457 46.2101 80.5457 46.2162 80.5457 46.2224C80.5457 46.2285 80.5457 46.2346 80.5457 46.2407C80.5457 46.2468 80.5457 46.2529 80.5457 46.259C80.5457 46.2651 80.5457 46.2712 80.5457 46.2773C80.5457 46.2834 80.5457 46.2894 80.5457 46.2955C80.5457 46.3016 80.5457 46.3076 80.5457 46.3137C80.5457 46.3197 80.5457 46.3257 80.5457 46.3318C80.5457 46.3378 80.5457 46.3438 80.5457 46.3498C80.5457 46.3558 80.5457 46.3618 80.5457 46.3678C80.5457 46.3738 80.5457 46.3798 80.5457 46.3858C80.5457 46.3918 80.5457 46.3977 80.5457 46.4037C80.5457 46.4096 80.5457 46.4156 80.5457 46.4215C80.5457 46.4275 80.5457 46.4334 80.5457 46.4393C80.5457 46.4452 80.5457 46.4512 80.5457 46.4571C80.5457 46.463 80.5457 46.4689 80.5457 46.4747C80.5457 46.4806 80.5457 46.4865 80.5457 46.4924C80.5457 46.4982 80.5457 46.5041 80.5457 46.51C80.5457 46.5158 80.5457 46.5216 80.5457 46.5275C80.5457 46.5333 80.5457 46.5391 80.5457 46.5449C80.5457 46.5508 80.5457 46.5566 80.5457 46.5624C80.5457 46.5682 80.5457 46.5739 80.5457 46.5797C80.5457 46.5855 80.5457 46.5913 80.5457 46.597C80.5457 46.6028 80.5457 46.6085 80.5457 46.6143C80.5457 46.62 80.5457 46.6257 80.5457 46.6315C80.5457 46.6372 80.5457 46.6429 80.5457 46.6486C80.5457 46.6543 80.5457 46.66 80.5457 46.6657C80.5457 46.6713 80.5457 46.677 80.5457 46.6827C80.5457 46.6883 80.5457 46.694 80.5457 46.6996C80.5457 46.7053 80.5457 46.7109 80.5457 46.7165C80.5457 46.7221 80.5457 46.7278 80.5457 46.7334C80.5457 46.739 80.5457 46.7446 80.5457 46.7501C80.5457 46.7557 80.5457 46.7613 80.5457 46.7669C80.5457 46.7724 80.5457 46.778 80.5457 46.7835C80.5457 46.7891 80.5457 46.7946 80.5457 46.8001C80.5457 46.8057 80.5457 46.8112 80.5457 46.8167C80.5457 46.8222 80.5457 46.8277 80.5457 46.8331C80.5457 46.8386 80.5457 46.8441 80.5457 46.8496C80.5457 46.855 80.5457 46.8605 80.5457 46.8659C80.5457 46.8714 80.5457 46.8768 80.5457 46.8822C80.5457 46.8876 80.5457 46.8931 80.5457 46.8985C80.5457 46.9039 80.5457 46.9092 80.5457 46.9146C80.5457 46.92 80.5457 46.9254 80.5457 46.9307C80.5457 46.9361 80.5457 46.9414 80.5457 46.9468C80.5457 46.9521 80.5457 46.9574 80.5457 46.9628C80.5457 46.9681 80.5457 46.9734 80.5457 46.9787C80.5457 46.984 80.5457 46.9893 80.5457 46.9945C80.5457 46.9998 80.5457 47.0051 80.5457 47.0103C80.5457 47.0156 80.5457 47.0208 80.5457 47.026C80.5457 47.0313 80.5457 47.0365 80.5457 47.0417H81.5457C81.5457 47.0365 81.5457 47.0313 81.5457 47.026C81.5457 47.0208 81.5457 47.0156 81.5457 47.0103C81.5457 47.0051 81.5457 46.9998 81.5457 46.9945C81.5457 46.9893 81.5457 46.984 81.5457 46.9787C81.5457 46.9734 81.5457 46.9681 81.5457 46.9628C81.5457 46.9574 81.5457 46.9521 81.5457 46.9468C81.5457 46.9414 81.5457 46.9361 81.5457 46.9307C81.5457 46.9254 81.5457 46.92 81.5457 46.9146C81.5457 46.9092 81.5457 46.9039 81.5457 46.8985C81.5457 46.8931 81.5457 46.8876 81.5457 46.8822C81.5457 46.8768 81.5457 46.8714 81.5457 46.8659C81.5457 46.8605 81.5457 46.855 81.5457 46.8496C81.5457 46.8441 81.5457 46.8386 81.5457 46.8331C81.5457 46.8277 81.5457 46.8222 81.5457 46.8167C81.5457 46.8112 81.5457 46.8057 81.5457 46.8001C81.5457 46.7946 81.5457 46.7891 81.5457 46.7835C81.5457 46.778 81.5457 46.7724 81.5457 46.7669C81.5457 46.7613 81.5457 46.7557 81.5457 46.7501C81.5457 46.7446 81.5457 46.739 81.5457 46.7334C81.5457 46.7278 81.5457 46.7221 81.5457 46.7165C81.5457 46.7109 81.5457 46.7053 81.5457 46.6996C81.5457 46.694 81.5457 46.6883 81.5457 46.6827C81.5457 46.677 81.5457 46.6713 81.5457 46.6657C81.5457 46.66 81.5457 46.6543 81.5457 46.6486C81.5457 46.6429 81.5457 46.6372 81.5457 46.6315C81.5457 46.6257 81.5457 46.62 81.5457 46.6143C81.5457 46.6085 81.5457 46.6028 81.5457 46.597C81.5457 46.5913 81.5457 46.5855 81.5457 46.5797C81.5457 46.5739 81.5457 46.5682 81.5457 46.5624C81.5457 46.5566 81.5457 46.5508 81.5457 46.5449C81.5457 46.5391 81.5457 46.5333 81.5457 46.5275C81.5457 46.5216 81.5457 46.5158 81.5457 46.51C81.5457 46.5041 81.5457 46.4982 81.5457 46.4924C81.5457 46.4865 81.5457 46.4806 81.5457 46.4747C81.5457 46.4689 81.5457 46.463 81.5457 46.4571C81.5457 46.4512 81.5457 46.4452 81.5457 46.4393C81.5457 46.4334 81.5457 46.4275 81.5457 46.4215C81.5457 46.4156 81.5457 46.4096 81.5457 46.4037C81.5457 46.3977 81.5457 46.3918 81.5457 46.3858C81.5457 46.3798 81.5457 46.3738 81.5457 46.3678C81.5457 46.3618 81.5457 46.3558 81.5457 46.3498C81.5457 46.3438 81.5457 46.3378 81.5457 46.3318C81.5457 46.3257 81.5457 46.3197 81.5457 46.3137C81.5457 46.3076 81.5457 46.3016 81.5457 46.2955C81.5457 46.2894 81.5457 46.2834 81.5457 46.2773C81.5457 46.2712 81.5457 46.2651 81.5457 46.259C81.5457 46.2529 81.5457 46.2468 81.5457 46.2407C81.5457 46.2346 81.5457 46.2285 81.5457 46.2224C81.5457 46.2162 81.5457 46.2101 81.5457 46.204C81.5457 46.1978 81.5457 46.1917 81.5457 46.1855C81.5457 46.1793 81.5457 46.1732 81.5457 46.167C81.5457 46.1608 81.5457 46.1546 81.5457 46.1484C81.5457 46.1423 81.5457 46.1361 81.5457 46.1298C81.5457 46.1236 81.5457 46.1174 81.5457 46.1112C81.5457 46.105 81.5457 46.0987 81.5457 46.0925C81.5457 46.0863 81.5457 46.08 81.5457 46.0738C81.5457 46.0675 81.5457 46.0612 81.5457 46.055C81.5457 46.0487 81.5457 46.0424 81.5457 46.0361C81.5457 46.0298 81.5457 46.0236 81.5457 46.0173C81.5457 46.0109 81.5457 46.0046 81.5457 45.9983C81.5457 45.992 81.5457 45.9857 81.5457 45.9794C81.5457 45.973 81.5457 45.9667 81.5457 45.9603C81.5457 45.954 81.5457 45.9476 81.5457 45.9413C81.5457 45.9349 81.5457 45.9285 81.5457 45.9222C81.5457 45.9158 81.5457 45.9094 81.5457 45.903C81.5457 45.8966 81.5457 45.8902 81.5457 45.8838C81.5457 45.8774 81.5457 45.871 81.5457 45.8646C81.5457 45.8582 81.5457 45.8517 81.5457 45.8453C81.5457 45.8389 81.5457 45.8324 81.5457 45.826C81.5457 45.8195 81.5457 45.8131 81.5457 45.8066C81.5457 45.8002 81.5457 45.7937 81.5457 45.7872C81.5457 45.7807 81.5457 45.7743 81.5457 45.7678C81.5457 45.7613 81.5457 45.7548 81.5457 45.7483C81.5457 45.7418 81.5457 45.7353 81.5457 45.7287C81.5457 45.7222 81.5457 45.7157 81.5457 45.7092C81.5457 45.7026 81.5457 45.6961 81.5457 45.6896C81.5457 45.683 81.5457 45.6765 81.5457 45.6699C81.5457 45.6634 81.5457 45.6568 81.5457 45.6502C81.5457 45.6437 81.5457 45.6371 81.5457 45.6305C81.5457 45.6239 81.5457 45.6173 81.5457 45.6107C81.5457 45.6041 81.5457 45.5975 81.5457 45.5909C81.5457 45.5843 81.5457 45.5777 81.5457 45.5711C81.5457 45.5645 81.5457 45.5578 81.5457 45.5512C81.5457 45.5446 81.5457 45.5379 81.5457 45.5313C81.5457 45.5246 81.5457 45.518 81.5457 45.5113C81.5457 45.5047 81.5457 45.498 81.5457 45.4913C81.5457 45.4847 81.5457 45.478 81.5457 45.4713C81.5457 45.4646 81.5457 45.4579 81.5457 45.4512C81.5457 45.4445 81.5457 45.4378 81.5457 45.4311C81.5457 45.4244 81.5457 45.4177 81.5457 45.411C81.5457 45.4043 81.5457 45.3975 81.5457 45.3908C81.5457 45.3841 81.5457 45.3774 81.5457 45.3706C81.5457 45.3639 81.5457 45.3571 81.5457 45.3504C81.5457 45.3436 81.5457 45.3369 81.5457 45.3301C81.5457 45.3233 81.5457 45.3166 81.5457 45.3098C81.5457 45.303 81.5457 45.2962 81.5457 45.2894C81.5457 45.2827 81.5457 45.2759 81.5457 45.2691C81.5457 45.2623 81.5457 45.2555 81.5457 45.2487C81.5457 45.2419 81.5457 45.235 81.5457 45.2282C81.5457 45.2214 81.5457 45.2146 81.5457 45.2078C81.5457 45.2009 81.5457 45.1941 81.5457 45.1873C81.5457 45.1804 81.5457 45.1736 81.5457 45.1667C81.5457 45.1599 81.5457 45.153 81.5457 45.1462C81.5457 45.1393 81.5457 45.1324 81.5457 45.1256C81.5457 45.1187 81.5457 45.1118 81.5457 45.1049C81.5457 45.098 81.5457 45.0912 81.5457 45.0843C81.5457 45.0774 81.5457 45.0705 81.5457 45.0636C81.5457 45.0567 81.5457 45.0498 81.5457 45.0429C81.5457 45.036 81.5457 45.029 81.5457 45.0221C81.5457 45.0152 81.5457 45.0083 81.5457 45.0014C81.5457 44.9944 81.5457 44.9875 81.5457 44.9806C81.5457 44.9736 81.5457 44.9667 81.5457 44.9597C81.5457 44.9528 81.5457 44.9458 81.5457 44.9389C81.5457 44.9319 81.5457 44.9249 81.5457 44.918C81.5457 44.911 81.5457 44.904 81.5457 44.8971C81.5457 44.8901 81.5457 44.8831 81.5457 44.8761C81.5457 44.8692 81.5457 44.8622 81.5457 44.8552C81.5457 44.8482 81.5457 44.8412 81.5457 44.8342C81.5457 44.8272 81.5457 44.8202 81.5457 44.8132C81.5457 44.8062 81.5457 44.7991 81.5457 44.7921C81.5457 44.7851 81.5457 44.7781 81.5457 44.7711C81.5457 44.764 81.5457 44.757 81.5457 44.75C81.5457 44.7429 81.5457 44.7359 81.5457 44.7289C81.5457 44.7218 81.5457 44.7148 81.5457 44.7077C81.5457 44.7007 81.5457 44.6936 81.5457 44.6866C81.5457 44.6795 81.5457 44.6724 81.5457 44.6654C81.5457 44.6583 81.5457 44.6512 81.5457 44.6442C81.5457 44.6371 81.5457 44.63 81.5457 44.6229C81.5457 44.6159 81.5457 44.6088 81.5457 44.6017C81.5457 44.5946 81.5457 44.5875 81.5457 44.5804C81.5457 44.5733 81.5457 44.5662 81.5457 44.5591C81.5457 44.552 81.5457 44.5449 81.5457 44.5378C81.5457 44.5307 81.5457 44.5236 81.5457 44.5165C81.5457 44.5094 81.5457 44.5022 81.5457 44.4951C81.5457 44.488 81.5457 44.4809 81.5457 44.4737C81.5457 44.4666 81.5457 44.4595 81.5457 44.4523C81.5457 44.4452 81.5457 44.4381 81.5457 44.4309C81.5457 44.4238 81.5457 44.4166 81.5457 44.4095C81.5457 44.4023 81.5457 44.3952 81.5457 44.388C81.5457 44.3809 81.5457 44.3737 81.5457 44.3666C81.5457 44.3594 81.5457 44.3522 81.5457 44.3451C81.5457 44.3379 81.5457 44.3307 81.5457 44.3236C81.5457 44.3164 81.5457 44.3092 81.5457 44.302C81.5457 44.2949 81.5457 44.2877 81.5457 44.2805C81.5457 44.2733 81.5457 44.2661 81.5457 44.2589C81.5457 44.2518 81.5457 44.2446 81.5457 44.2374C81.5457 44.2302 81.5457 44.223 81.5457 44.2158C81.5457 44.2086 81.5457 44.2014 81.5457 44.1942C81.5457 44.187 81.5457 44.1798 81.5457 44.1725C81.5457 44.1653 81.5457 44.1581 81.5457 44.1509C81.5457 44.1437 81.5457 44.1365 81.5457 44.1293C81.5457 44.122 81.5457 44.1148 81.5457 44.1076C81.5457 44.1004 81.5457 44.0931 81.5457 44.0859C81.5457 44.0787 81.5457 44.0714 81.5457 44.0642C81.5457 44.057 81.5457 44.0497 81.5457 44.0425C81.5457 44.0353 81.5457 44.028 81.5457 44.0208C81.5457 44.0135 81.5457 44.0063 81.5457 43.9991C81.5457 43.9918 81.5457 43.9846 81.5457 43.9773C81.5457 43.9701 81.5457 43.9628 81.5457 43.9556C81.5457 43.9483 81.5457 43.941 81.5457 43.9338C81.5457 43.9265 81.5457 43.9193 81.5457 43.912C81.5457 43.9047 81.5457 43.8975 81.5457 43.8902C81.5457 43.8829 81.5457 43.8757 81.5457 43.8684C81.5457 43.8611 81.5457 43.8539 81.5457 43.8466C81.5457 43.8393 81.5457 43.8321 81.5457 43.8248C81.5457 43.8175 81.5457 43.8102 81.5457 43.8029C81.5457 43.7957 81.5457 43.7884 81.5457 43.7811C81.5457 43.7738 81.5457 43.7665 81.5457 43.7593C81.5457 43.752 81.5457 43.7447 81.5457 43.7374C81.5457 43.7301 81.5457 43.7228 81.5457 43.7155C81.5457 43.7082 81.5457 43.701 81.5457 43.6937C81.5457 43.6864 81.5457 43.6791 81.5457 43.6718C81.5457 43.6645 81.5457 43.6572 81.5457 43.6499C81.5457 43.6426 81.5457 43.6353 81.5457 43.628C81.5457 43.6207 81.5457 43.6134 81.5457 43.6061C81.5457 43.5988 81.5457 43.5915 81.5457 43.5842C81.5457 43.5769 81.5457 43.5696 81.5457 43.5623C81.5457 43.555 81.5457 43.5477 81.5457 43.5404C81.5457 43.533 81.5457 43.5257 81.5457 43.5184C81.5457 43.5111 81.5457 43.5038 81.5457 43.4965C81.5457 43.4892 81.5457 43.4819 81.5457 43.4746C81.5457 43.4673 81.5457 43.4599 81.5457 43.4526C81.5457 43.4453 81.5457 43.438 81.5457 43.4307C81.5457 43.4234 81.5457 43.4161 81.5457 43.4087C81.5457 43.4014 81.5457 43.3941 81.5457 43.3868C81.5457 43.3795 81.5457 43.3722 81.5457 43.3648C81.5457 43.3575 81.5457 43.3502 81.5457 43.3429C81.5457 43.3356 81.5457 43.3283 81.5457 43.3209C81.5457 43.3136 81.5457 43.3063 81.5457 43.299C81.5457 43.2917 81.5457 43.2843 81.5457 43.277C81.5457 43.2697 81.5457 43.2624 81.5457 43.2551C81.5457 43.2477 81.5457 43.2404 81.5457 43.2331C81.5457 43.2258 81.5457 43.2185 81.5457 43.2111C81.5457 43.2038 81.5457 43.1965 81.5457 43.1892C81.5457 43.1819 81.5457 43.1745 81.5457 43.1672C81.5457 43.1599 81.5457 43.1526 81.5457 43.1453C81.5457 43.1379 81.5457 43.1306 81.5457 43.1233C81.5457 43.116 81.5457 43.1087 81.5457 43.1013C81.5457 43.094 81.5457 43.0867 81.5457 43.0794C81.5457 43.0721 81.5457 43.0648 81.5457 43.0574C81.5457 43.0501 81.5457 43.0428 81.5457 43.0355C81.5457 43.0282 81.5457 43.0208 81.5457 43.0135C81.5457 43.0062 81.5457 42.9989 81.5457 42.9916C81.5457 42.9843 81.5457 42.977 81.5457 42.9696C81.5457 42.9623 81.5457 42.955 81.5457 42.9477C81.5457 42.9404 81.5457 42.9331 81.5457 42.9258C81.5457 42.9185 81.5457 42.9112 81.5457 42.9038C81.5457 42.8965 81.5457 42.8892 81.5457 42.8819C81.5457 42.8746 81.5457 42.8673 81.5457 42.86C81.5457 42.8527 81.5457 42.8454 81.5457 42.8381C81.5457 42.8308 81.5457 42.8235 81.5457 42.8162C81.5457 42.8089 81.5457 42.8016 81.5457 42.7943C81.5457 42.787 81.5457 42.7797 81.5457 42.7724C81.5457 42.7651 81.5457 42.7578 81.5457 42.7505C81.5457 42.7432 81.5457 42.7359 81.5457 42.7286C81.5457 42.7213 81.5457 42.714 81.5457 42.7067C81.5457 42.6994 81.5457 42.6921 81.5457 42.6849C81.5457 42.6776 81.5457 42.6703 81.5457 42.663C81.5457 42.6557 81.5457 42.6484 81.5457 42.6411C81.5457 42.6339 81.5457 42.6266 81.5457 42.6193C81.5457 42.612 81.5457 42.6047 81.5457 42.5975C81.5457 42.5902 81.5457 42.5829 81.5457 42.5756C81.5457 42.5684 81.5457 42.5611 81.5457 42.5538C81.5457 42.5466 81.5457 42.5393 81.5457 42.532C81.5457 42.5248 81.5457 42.5175 81.5457 42.5102C81.5457 42.503 81.5457 42.4957 81.5457 42.4885C81.5457 42.4812 81.5457 42.4739 81.5457 42.4667C81.5457 42.4594 81.5457 42.4522 81.5457 42.4449C81.5457 42.4377 81.5457 42.4304 81.5457 42.4232C81.5457 42.4159 81.5457 42.4087 81.5457 42.4014C81.5457 42.3942 81.5457 42.387 81.5457 42.3797C81.5457 42.3725 81.5457 42.3652 81.5457 42.358C81.5457 42.3508 81.5457 42.3435 81.5457 42.3363C81.5457 42.3291 81.5457 42.3218 81.5457 42.3146C81.5457 42.3074 81.5457 42.3002 81.5457 42.293C81.5457 42.2857 81.5457 42.2785 81.5457 42.2713C81.5457 42.2641 81.5457 42.2569 81.5457 42.2497C81.5457 42.2424 81.5457 42.2352 81.5457 42.228C81.5457 42.2208 81.5457 42.2136 81.5457 42.2064C81.5457 42.1992 81.5457 42.192 81.5457 42.1848C81.5457 42.1776 81.5457 42.1704 81.5457 42.1632C81.5457 42.1561 81.5457 42.1489 81.5457 42.1417C81.5457 42.1345 81.5457 42.1273 81.5457 42.1201C81.5457 42.113 81.5457 42.1058 81.5457 42.0986C81.5457 42.0914 81.5457 42.0843 81.5457 42.0771C81.5457 42.0699 81.5457 42.0628 81.5457 42.0556C81.5457 42.0484 81.5457 42.0413 81.5457 42.0341C81.5457 42.027 81.5457 42.0198 81.5457 42.0127C81.5457 42.0055 81.5457 41.9984 81.5457 41.9912C81.5457 41.9841 81.5457 41.9769 81.5457 41.9698C81.5457 41.9627 81.5457 41.9555 81.5457 41.9484C81.5457 41.9413 81.5457 41.9341 81.5457 41.927C81.5457 41.9199 81.5457 41.9128 81.5457 41.9057C81.5457 41.8985 81.5457 41.8914 81.5457 41.8843C81.5457 41.8772 81.5457 41.8701 81.5457 41.863C81.5457 41.8559 81.5457 41.8488 81.5457 41.8417C81.5457 41.8346 81.5457 41.8275 81.5457 41.8204C81.5457 41.8133 81.5457 41.8062 81.5457 41.7992C81.5457 41.7921 81.5457 41.785 81.5457 41.7779C81.5457 41.7709 81.5457 41.7638 81.5457 41.7567C81.5457 41.7496 81.5457 41.7426 81.5457 41.7355C81.5457 41.7285 81.5457 41.7214 81.5457 41.7144C81.5457 41.7073 81.5457 41.7003 81.5457 41.6932C81.5457 41.6862 81.5457 41.6791 81.5457 41.6721C81.5457 41.6651 81.5457 41.658 81.5457 41.651C81.5457 41.644 81.5457 41.6369 81.5457 41.6299C81.5457 41.6229 81.5457 41.6159 81.5457 41.6089C81.5457 41.6019 81.5457 41.5949 81.5457 41.5879C81.5457 41.5809 81.5457 41.5739 81.5457 41.5669C81.5457 41.5599 81.5457 41.5529 81.5457 41.5459C81.5457 41.5389 81.5457 41.5319 81.5457 41.525C81.5457 41.518 81.5457 41.511 81.5457 41.504C81.5457 41.4971 81.5457 41.4901 81.5457 41.4831C81.5457 41.4762 81.5457 41.4692 81.5457 41.4623C81.5457 41.4553 81.5457 41.4484 81.5457 41.4414C81.5457 41.4345 81.5457 41.4276 81.5457 41.4206C81.5457 41.4137 81.5457 41.4068 81.5457 41.3999C81.5457 41.3929 81.5457 41.386 81.5457 41.3791C81.5457 41.3722 81.5457 41.3653 81.5457 41.3584C81.5457 41.3515 81.5457 41.3446 81.5457 41.3377C81.5457 41.3308 81.5457 41.3239 81.5457 41.317C81.5457 41.3101 81.5457 41.3033 81.5457 41.2964C81.5457 41.2895 81.5457 41.2827 81.5457 41.2758C81.5457 41.2689 81.5457 41.2621 81.5457 41.2552C81.5457 41.2484 81.5457 41.2415 81.5457 41.2347C81.5457 41.2278 81.5457 41.221 81.5457 41.2142C81.5457 41.2073 81.5457 41.2005 81.5457 41.1937C81.5457 41.1869 81.5457 41.18 81.5457 41.1732C81.5457 41.1664 81.5457 41.1596 81.5457 41.1528C81.5457 41.146 81.5457 41.1392 81.5457 41.1324C81.5457 41.1256 81.5457 41.1189 81.5457 41.1121C81.5457 41.1053 81.5457 41.0985 81.5457 41.0918C81.5457 41.085 81.5457 41.0782 81.5457 41.0715C81.5457 41.0647 81.5457 41.058 81.5457 41.0512C81.5457 41.0445 81.5457 41.0378 81.5457 41.031C81.5457 41.0243 81.5457 41.0176 81.5457 41.0108C81.5457 41.0041 81.5457 40.9974 81.5457 40.9907C81.5457 40.984 81.5457 40.9773 81.5457 40.9706C81.5457 40.9639 81.5457 40.9572 81.5457 40.9505C81.5457 40.9438 81.5457 40.9372 81.5457 40.9305C81.5457 40.9238 81.5457 40.9171 81.5457 40.9105C81.5457 40.9038 81.5457 40.8972 81.5457 40.8905C81.5457 40.8839 81.5457 40.8772 81.5457 40.8706C81.5457 40.8639 81.5457 40.8573 81.5457 40.8507C81.5457 40.8441 81.5457 40.8374 81.5457 40.8308C81.5457 40.8242 81.5457 40.8176 81.5457 40.811C81.5457 40.8044 81.5457 40.7978 81.5457 40.7912C81.5457 40.7847 81.5457 40.7781 81.5457 40.7715C81.5457 40.7649 81.5457 40.7584 81.5457 40.7518C81.5457 40.7452 81.5457 40.7387 81.5457 40.7321C81.5457 40.7256 81.5457 40.7191 81.5457 40.7125C81.5457 40.706 81.5457 40.6995 81.5457 40.6929C81.5457 40.6864 81.5457 40.6799 81.5457 40.6734C81.5457 40.6669 81.5457 40.6604 81.5457 40.6539C81.5457 40.6474 81.5457 40.6409 81.5457 40.6344C81.5457 40.628 81.5457 40.6215 81.5457 40.615C81.5457 40.6086 81.5457 40.6021 81.5457 40.5957C81.5457 40.5892 81.5457 40.5828 81.5457 40.5763C81.5457 40.5699 81.5457 40.5635 81.5457 40.557C81.5457 40.5506 81.5457 40.5442 81.5457 40.5378C81.5457 40.5314 81.5457 40.525 81.5457 40.5186C81.5457 40.5122 81.5457 40.5058 81.5457 40.4994C81.5457 40.493 81.5457 40.4867 81.5457 40.4803C81.5457 40.4739 81.5457 40.4676 81.5457 40.4612C81.5457 40.4549 81.5457 40.4485 81.5457 40.4422C81.5457 40.4359 81.5457 40.4295 81.5457 40.4232C81.5457 40.4169 81.5457 40.4106 81.5457 40.4043C81.5457 40.398 81.5457 40.3917 81.5457 40.3854C81.5457 40.3791 81.5457 40.3728 81.5457 40.3665C81.5457 40.3603 81.5457 40.354 81.5457 40.3477C81.5457 40.3415 81.5457 40.3352 81.5457 40.329C81.5457 40.3227 81.5457 40.3165 81.5457 40.3103C81.5457 40.304 81.5457 40.2978 81.5457 40.2916C81.5457 40.2854 81.5457 40.2792 81.5457 40.273C81.5457 40.2668 81.5457 40.2606 81.5457 40.2544C81.5457 40.2483 81.5457 40.2421 81.5457 40.2359C81.5457 40.2298 81.5457 40.2236 81.5457 40.2175C81.5457 40.2113 81.5457 40.2052 81.5457 40.199C81.5457 40.1929 81.5457 40.1868 81.5457 40.1807C81.5457 40.1745 81.5457 40.1684 81.5457 40.1623C81.5457 40.1562 81.5457 40.1502 81.5457 40.1441C81.5457 40.138 81.5457 40.1319 81.5457 40.1258C81.5457 40.1198 81.5457 40.1137 81.5457 40.1077C81.5457 40.1016 81.5457 40.0956 81.5457 40.0896C81.5457 40.0835 81.5457 40.0775 81.5457 40.0715C81.5457 40.0655 81.5457 40.0595 81.5457 40.0535C81.5457 40.0475 81.5457 40.0415 81.5457 40.0355C81.5457 40.0295 81.5457 40.0236 81.5457 40.0176C81.5457 40.0116 81.5457 40.0057 81.5457 39.9997C81.5457 39.9938 81.5457 39.9879 81.5457 39.9819C81.5457 39.976 81.5457 39.9701 81.5457 39.9642C81.5457 39.9583 81.5457 39.9524 81.5457 39.9465C81.5457 39.9406 81.5457 39.9347 81.5457 39.9288C81.5457 39.923 81.5457 39.9171 81.5457 39.9112C81.5457 39.9054 81.5457 39.8995 81.5457 39.8937C81.5457 39.8879 81.5457 39.882 81.5457 39.8762C81.5457 39.8704 81.5457 39.8646 81.5457 39.8588C81.5457 39.853 81.5457 39.8472 81.5457 39.8414C81.5457 39.8356 81.5457 39.8299 81.5457 39.8241C81.5457 39.8183 81.5457 39.8126 81.5457 39.8069C81.5457 39.8011 81.5457 39.7954 81.5457 39.7897C81.5457 39.7839 81.5457 39.7782 81.5457 39.7725C81.5457 39.7668 81.5457 39.7611 81.5457 39.7554C81.5457 39.7497 81.5457 39.7441 81.5457 39.7384C81.5457 39.7327 81.5457 39.7271 81.5457 39.7214C81.5457 39.7158 81.5457 39.7101 81.5457 39.7045C81.5457 39.6989 81.5457 39.6933 81.5457 39.6877C81.5457 39.682 81.5457 39.6764 81.5457 39.6709C81.5457 39.6653 81.5457 39.6597 81.5457 39.6541C81.5457 39.6486 81.5457 39.643 81.5457 39.6374C81.5457 39.6319 81.5457 39.6264 81.5457 39.6208C81.5457 39.6153 81.5457 39.6098 81.5457 39.6043C81.5457 39.5988 81.5457 39.5933 81.5457 39.5878C81.5457 39.5823 81.5457 39.5768 81.5457 39.5713C81.5457 39.5659 81.5457 39.5604 81.5457 39.555C81.5457 39.5495 81.5457 39.5441 81.5457 39.5387C81.5457 39.5332 81.5457 39.5278 81.5457 39.5224C81.5457 39.517 81.5457 39.5116 81.5457 39.5062C81.5457 39.5008 81.5457 39.4955 81.5457 39.4901C81.5457 39.4847 81.5457 39.4794 81.5457 39.474C81.5457 39.4687 81.5457 39.4634 81.5457 39.458C81.5457 39.4527 81.5457 39.4474 81.5457 39.4421C81.5457 39.4368 81.5457 39.4315 81.5457 39.4262C81.5457 39.421 81.5457 39.4157 81.5457 39.4104C81.5457 39.4052 81.5457 39.3999 81.5457 39.3947C81.5457 39.3895 81.5457 39.3842 81.5457 39.379C81.5457 39.3738 81.5457 39.3686 81.5457 39.3634C81.5457 39.3582 81.5457 39.353 81.5457 39.3479C81.5457 39.3427 81.5457 39.3376 81.5457 39.3324C81.5457 39.3273 81.5457 39.3221 81.5457 39.317C81.5457 39.3119 81.5457 39.3068 81.5457 39.3017C81.5457 39.2965 81.5457 39.2915 81.5457 39.2864C81.5457 39.2813 81.5457 39.2762 81.5457 39.2712C81.5457 39.2661 81.5457 39.2611 81.5457 39.256C81.5457 39.251 81.5457 39.246 81.5457 39.241C81.5457 39.2359 81.5457 39.2309 81.5457 39.226C81.5457 39.221 81.5457 39.216 81.5457 39.211C81.5457 39.2061 81.5457 39.2011 81.5457 39.1962C81.5457 39.1912 81.5457 39.1863 81.5457 39.1814C81.5457 39.1764 81.5457 39.1715 81.5457 39.1666C81.5457 39.1617 81.5457 39.1569 81.5457 39.152C81.5457 39.1471 81.5457 39.1422 81.5457 39.1374C81.5457 39.1325 81.5457 39.1277 81.5457 39.1229C81.5457 39.1181 81.5457 39.1132 81.5457 39.1084C81.5457 39.1036 81.5457 39.0988 81.5457 39.0941C81.5457 39.0893 81.5457 39.0845 81.5457 39.0798C81.5457 39.075 81.5457 39.0703 81.5457 39.0655C81.5457 39.0608 81.5457 39.0561 81.5457 39.0514C81.5457 39.0467 81.5457 39.042 81.5457 39.0373C81.5457 39.0326 81.5457 39.028 81.5457 39.0233C81.5457 39.0186 81.5457 39.014 81.5457 39.0094C81.5457 39.0047 81.5457 39.0001 81.5457 38.9955C81.5457 38.9909 81.5457 38.9863 81.5457 38.9817C81.5457 38.9771 81.5457 38.9726 81.5457 38.968C81.5457 38.9635 81.5457 38.9589 81.5457 38.9544C81.5457 38.9498 81.5457 38.9453 81.5457 38.9408C81.5457 38.9363 81.5457 38.9318 81.5457 38.9273C81.5457 38.9228 81.5457 38.9184 81.5457 38.9139C81.5457 38.9095 81.5457 38.905 81.5457 38.9006C81.5457 38.8962 81.5457 38.8917 81.5457 38.8873C81.5457 38.8829 81.5457 38.8785 81.5457 38.8742C81.5457 38.8698 81.5457 38.8654 81.5457 38.8611C81.5457 38.8567 81.5457 38.8524 81.5457 38.848C81.5457 38.8437 81.5457 38.8394 81.5457 38.8351C81.5457 38.8308 81.5457 38.8265 81.5457 38.8222C81.5457 38.8179 81.5457 38.8137 81.5457 38.8094C81.5457 38.8052 81.5457 38.8009 81.5457 38.7967C81.5457 38.7925 81.5457 38.7883 81.5457 38.7841C81.5457 38.7799 81.5457 38.7757 81.5457 38.7715C81.5457 38.7674 81.5457 38.7632 81.5457 38.7591C81.5457 38.7549 81.5457 38.7508 81.5457 38.7467C81.5457 38.7426 81.5457 38.7385 81.5457 38.7344C81.5457 38.7303 81.5457 38.7262 81.5457 38.7222C81.5457 38.7181 81.5457 38.714 81.5457 38.71C81.5457 38.706 81.5457 38.702 81.5457 38.6979C81.5457 38.6939 81.5457 38.6899 81.5457 38.686C81.5457 38.682 81.5457 38.678 81.5457 38.6741C81.5457 38.6701 81.5457 38.6662 81.5457 38.6623C81.5457 38.6583 81.5457 38.6544 81.5457 38.6505C81.5457 38.6466 81.5457 38.6427 81.5457 38.6389C81.5457 38.635 81.5457 38.6311 81.5457 38.6273C81.5457 38.6235 81.5457 38.6196 81.5457 38.6158C81.5457 38.612 81.5457 38.6082 81.5457 38.6044C81.5457 38.6006 81.5457 38.5969 81.5457 38.5931C81.5457 38.5894 81.5457 38.5856 81.5457 38.5819C81.5457 38.5782 81.5457 38.5744 81.5457 38.5707C81.5457 38.567 81.5457 38.5634 81.5457 38.5597C81.5457 38.556 81.5457 38.5524 81.5457 38.5487C81.5457 38.5451 81.5457 38.5415 81.5457 38.5378C81.5457 38.5342 81.5457 38.5306 81.5457 38.527C81.5457 38.5235 81.5457 38.5199 81.5457 38.5163C81.5457 38.5128 81.5457 38.5092 81.5457 38.5057C81.5457 38.5022 81.5457 38.4987 81.5457 38.4952C81.5457 38.4917 81.5457 38.4882 81.5457 38.4847C81.5457 38.4813 81.5457 38.4778 81.5457 38.4744C81.5457 38.471 81.5457 38.4675 81.5457 38.4641C81.5457 38.4607 81.5457 38.4573 81.5457 38.4539C81.5457 38.4506 81.5457 38.4472 81.5457 38.4439C81.5457 38.4405 81.5457 38.4372 81.5457 38.4339C81.5457 38.4305 81.5457 38.4272 81.5457 38.424C81.5457 38.4207 81.5457 38.4174 81.5457 38.4141C81.5457 38.4109 81.5457 38.4076 81.5457 38.4044C81.5457 38.4012 81.5457 38.398 81.5457 38.3948C81.5457 38.3916 81.5457 38.3884 81.5457 38.3852C81.5457 38.3821 81.5457 38.3789 81.5457 38.3758C81.5457 38.3727 81.5457 38.3695 81.5457 38.3664C81.5457 38.3633 81.5457 38.3602 81.5457 38.3572C81.5457 38.3541 81.5457 38.351 81.5457 38.348C81.5457 38.3449 81.5457 38.3419 81.5457 38.3389C81.5457 38.3359 81.5457 38.3329 81.5457 38.3299C81.5457 38.3269 81.5457 38.324 81.5457 38.321C81.5457 38.3181 81.5457 38.3152 81.5457 38.3122C81.5457 38.3093 81.5457 38.3064 81.5457 38.3035C81.5457 38.3007 81.5457 38.2978 81.5457 38.2949C81.5457 38.2921 81.5457 38.2892 81.5457 38.2864C81.5457 38.2836 81.5457 38.2808 81.5457 38.278C81.5457 38.2752 81.5457 38.2724 81.5457 38.2697C81.5457 38.2669 81.5457 38.2642 81.5457 38.2615C81.5457 38.2587 81.5457 38.256 81.5457 38.2533C81.5457 38.2506 81.5457 38.248 81.5457 38.2453C81.5457 38.2426 81.5457 38.24 81.5457 38.2374C81.5457 38.2347 81.5457 38.2321 81.5457 38.2295C81.5457 38.2269 81.5457 38.2244 81.5457 38.2218C81.5457 38.2192 81.5457 38.2167 81.5457 38.2142C81.5457 38.2116 81.5457 38.2091 81.5457 38.2066C81.5457 38.2041 81.5457 38.2017 81.5457 38.1992C81.5457 38.1967 81.5457 38.1943 81.5457 38.1919C81.5457 38.1894 81.5457 38.187 81.5457 38.1846C81.5457 38.1822 81.5457 38.1798 81.5457 38.1775C81.5457 38.1751 81.5457 38.1728 81.5457 38.1704C81.5457 38.1681 81.5457 38.1658 81.5457 38.1635C81.5457 38.1612 81.5457 38.1589 81.5457 38.1567C81.5457 38.1544 81.5457 38.1522 81.5457 38.1499C81.5457 38.1477 81.5457 38.1455 81.5457 38.1433C81.5457 38.1411 81.5457 38.1389 81.5457 38.1368C81.5457 38.1346 81.5457 38.1325 81.5457 38.1303C81.5457 38.1282 81.5457 38.1261 81.5457 38.124C81.5457 38.1219 81.5457 38.1198 81.5457 38.1178C81.5457 38.1157 81.5457 38.1137 81.5457 38.1117C81.5457 38.1096 81.5457 38.1076 81.5457 38.1056C81.5457 38.1037 81.5457 38.1017 81.5457 38.0997C81.5457 38.0978 81.5457 38.0958 81.5457 38.0939C81.5457 38.092 81.5457 38.0901 81.5457 38.0882C81.5457 38.0863 81.5457 38.0845 81.5457 38.0826C81.5457 38.0808 81.5457 38.079 81.5457 38.0771C81.5457 38.0753 81.5457 38.0735 81.5457 38.0718C81.5457 38.07 81.5457 38.0682 81.5457 38.0665C81.5457 38.0647 81.5457 38.063 81.5457 38.0613C81.5457 38.0596 81.5457 38.0579 81.5457 38.0562C81.5457 38.0546 81.5457 38.0529 81.5457 38.0513C81.5457 38.0496 81.5457 38.048 81.5457 38.0464C81.5457 38.0448 81.5457 38.0433 81.5457 38.0417H80.5457ZM79.0456 54.0417L79.0457 48.0417L78.0457 48.0417L78.0456 54.0417L79.0456 54.0417ZM79.0457 48.0417L79.0456 40.5417L78.0456 40.5417L78.0457 48.0417L79.0457 48.0417ZM80.5713 46.8836C80.5234 47.0273 80.3723 47.2763 80.0798 47.4481C79.8022 47.6113 79.3559 47.7289 78.6669 47.5566L78.4244 48.5268C79.3354 48.7545 80.0558 48.6221 80.5865 48.3103C81.1024 48.0071 81.4012 47.5561 81.52 47.1998L80.5713 46.8836ZM78.5456 37.0417L78.5457 35.0417L77.5457 35.0417L77.5456 37.0417L78.5456 37.0417ZM78.5457 35.0417C78.5457 34.7631 78.5134 34.4729 78.3734 34.2207C78.2199 33.9446 77.9781 33.7838 77.7038 33.6924C77.4479 33.6071 77.1406 33.5739 76.8038 33.5579C76.4611 33.5416 76.0412 33.5417 75.5457 33.5417V34.5417C76.0501 34.5417 76.4427 34.5418 76.7562 34.5568C77.0757 34.572 77.2684 34.6013 77.3875 34.641C77.4882 34.6746 77.4964 34.7013 77.4992 34.7064C77.5154 34.7355 77.5457 34.8203 77.5457 35.0417L78.5457 35.0417ZM75.5457 33.5417H74.0457V34.5417H75.5457V33.5417ZM74.0457 33.5417C73.5898 33.5417 73.192 33.657 72.903 33.946C72.623 34.226 72.523 34.5931 72.4862 34.924C72.4494 35.2553 72.4689 35.6253 72.4921 35.9734C72.5163 36.3366 72.5456 36.6882 72.5456 37.0417L73.5456 37.0417C73.5456 36.6452 73.5125 36.2468 73.4899 35.9069C73.4662 35.5519 73.4544 35.2656 73.4801 35.0344C73.5058 34.8028 73.5621 34.7011 73.6101 34.6531C73.6493 34.6139 73.7515 34.5417 74.0457 34.5417V33.5417ZM74.5457 34.0417V31.5417H73.5457V34.0417H74.5457ZM74.5457 31.5417C74.5457 31.3584 74.6283 31.2135 74.7996 31.0946C74.9834 30.967 75.2565 30.8841 75.554 30.8791C75.8521 30.8742 76.1186 30.9482 76.2948 31.0686C76.4537 31.1771 76.5457 31.3231 76.5457 31.5417H77.5457C77.5457 30.9603 77.2626 30.5188 76.859 30.2429C76.4727 29.979 75.9892 29.8717 75.5373 29.8793C75.0848 29.8868 74.608 30.0102 74.2292 30.2732C73.838 30.5449 73.5457 30.975 73.5457 31.5417H74.5457ZM76.5457 31.5417V34.0752H77.5457V31.5417H76.5457ZM77.0456 39.0417H73.0456V40.0417H77.0456V39.0417ZM73.0456 39.0417H72.5456V40.0417H73.0456V39.0417ZM81.5457 47.0417V38.0417H80.5457V47.0417H81.5457ZM75.5457 34.5417C76.2004 34.5417 76.6619 34.5422 77.0001 34.5731L77.0912 33.5773C76.6965 33.5412 76.1803 33.5417 75.5457 33.5417V34.5417ZM75.0457 57.5417C74.825 57.5417 74.6471 57.5188 74.497 57.4587C74.3566 57.4026 74.2164 57.3045 74.0838 57.11C73.7984 56.6915 73.5456 55.8228 73.5456 54.0417L72.5456 54.0417C72.5456 55.8606 72.7929 56.9918 73.2575 57.6734C73.4999 58.0289 73.7972 58.2558 74.1256 58.3872C74.4442 58.5147 74.7664 58.5417 75.0457 58.5417V57.5417ZM72.5456 39.5417L72.5457 50.0417H73.5457L73.5456 39.5417L72.5456 39.5417ZM73.5456 54.0417L73.5457 50.0417L72.5457 50.0417L72.5456 54.0417L73.5456 54.0417Z" fill="#282F38"/>
<path d="M57.9915 62.792L48.125 71.9522V64.9059C48.125 64.9059 48.125 64.2013 48.8298 63.4966C49.5345 62.792 50.2393 62.792 50.2393 62.792H57.9915Z" fill="#F6F6F7" stroke="#282F38" stroke-linecap="round"/>
</svg>
