<svg width="80" height="65" viewBox="0 0 80 65" fill="none" xmlns="http://www.w3.org/2000/svg">
<rect x="8.26832" y="0.532194" width="41.424" height="57.7523" rx="1.5" transform="rotate(3.81925 8.26832 0.532194)" fill="#F6F6F7" stroke="#282F38"/>
<path d="M0.5 62.3956V8.58081C0.5 7.75238 1.17157 7.08081 2 7.08081H25.6224H30.2213H40.0471C40.8755 7.08081 41.5471 7.75238 41.5471 8.58081V52.5408C41.5471 53.3692 40.8755 54.0408 40.0471 54.0408H32.8493C31.8475 54.0408 31.0353 54.8529 31.0353 55.8547V62.3956C31.0353 63.224 30.3637 63.8956 29.5353 63.8956H2C1.17157 63.8956 0.5 63.224 0.5 62.3956Z" fill="#F6F6F7" stroke="#282F38" stroke-linecap="round"/>
<path d="M7.88477 59.1397C8.54175 57.3877 9.85572 53.3582 9.85572 51.2559C10.5127 54.5408 12.4837 59.9281 15.1116 55.1978C15.7686 57.1687 19.1849 57.6943 24.9664 57.1687" stroke="#282F38" stroke-linecap="round"/>
<path d="M7.88477 38.1162H34.8212" stroke="#282F38" stroke-linecap="round"/>
<path d="M7.88477 31.5461H34.8212" stroke="#282F38" stroke-linecap="round"/>
<path d="M7.88477 24.9763H34.8212" stroke="#282F38" stroke-linecap="round"/>
<path d="M13.1406 18.4065L30.2223 18.4065" stroke="#282F38" stroke-linecap="round"/>
<path d="M40.0767 53.8838L30.8789 62.4246V55.8547C30.8789 55.8547 30.8789 55.1978 31.5359 54.5408C32.1929 53.8838 32.8499 53.8838 32.8499 53.8838H40.0767Z" fill="#F6F6F7" stroke="#282F38" stroke-linecap="round"/>
<circle cx="52" cy="47" r="11" fill="#E9573F"/>
<rect x="28.5947" y="34.0536" width="52.2792" height="15.7582" rx="2.10563" transform="rotate(15 28.5947 34.0536)" fill="white"/>
<path d="M37.3119 42.7953L37.1942 43.2346L35.2421 42.7116L34.275 46.3209L33.7411 46.1779L34.826 42.1291L37.3119 42.7953ZM34.7929 43.8876L35.8968 44.1834C36.1935 44.2629 36.4303 44.38 36.6074 44.5348C36.785 44.6877 36.9028 44.8672 36.9608 45.0735C37.0187 45.2798 37.0157 45.5025 36.9516 45.7416C36.9039 45.9196 36.8306 46.0748 36.7315 46.2072C36.6329 46.3378 36.5106 46.4421 36.3645 46.5202C36.2189 46.5964 36.0529 46.6413 35.8664 46.6549C35.6805 46.6667 35.4763 46.6428 35.2538 46.5832L33.7411 46.1779L34.826 42.1291L35.3627 42.273L34.3948 45.8851L35.3708 46.1466C35.5692 46.1998 35.7392 46.2066 35.8809 46.1671C36.025 46.1262 36.1417 46.0541 36.2309 45.9509C36.3202 45.8476 36.3829 45.7284 36.4192 45.593C36.4555 45.4577 36.46 45.3258 36.4328 45.1973C36.4057 45.0688 36.3389 44.9546 36.2326 44.8546C36.1286 44.7532 35.9775 44.6759 35.7791 44.6228L34.6752 44.327L34.7929 43.8876ZM38.5063 47.5143C38.2968 47.4581 38.1162 47.372 37.9645 47.2559C37.8152 47.1384 37.6967 46.9983 37.6092 46.8358C37.5234 46.6737 37.472 46.495 37.4548 46.2997C37.4376 46.1043 37.4573 45.901 37.5139 45.6897L37.5452 45.5729C37.6108 45.3282 37.7053 45.12 37.8288 44.9485C37.9527 44.775 38.0947 44.6382 38.2547 44.538C38.4146 44.4378 38.5826 44.3746 38.7585 44.3482C38.9345 44.3218 39.1068 44.3312 39.2755 44.3764C39.4905 44.4341 39.666 44.5208 39.8018 44.6367C39.9395 44.7531 40.0406 44.8914 40.1049 45.0517C40.1697 45.2101 40.2022 45.3857 40.2022 45.5785C40.2027 45.7693 40.1746 45.9704 40.118 46.1818L40.0562 46.4126L37.8094 45.8105L37.9219 45.3907L39.6543 45.8548L39.6647 45.8159C39.693 45.6805 39.7 45.5432 39.6856 45.4043C39.673 45.2658 39.6267 45.1421 39.5466 45.0332C39.4665 44.9243 39.3384 44.8463 39.1623 44.7991C39.0455 44.7678 38.9312 44.764 38.8196 44.7878C38.7084 44.8096 38.6047 44.8593 38.5084 44.9368C38.4121 45.0144 38.3259 45.1174 38.2497 45.246C38.1735 45.3746 38.1111 45.5298 38.0624 45.7115L38.0311 45.8282C37.9929 45.971 37.9763 46.1106 37.9815 46.2471C37.989 46.3822 38.0181 46.5072 38.0688 46.6222C38.1213 46.7376 38.195 46.8368 38.29 46.9199C38.3868 47.0034 38.5057 47.0641 38.6466 47.1018C38.8282 47.1505 38.992 47.1547 39.138 47.1143C39.2839 47.0739 39.4208 47.0043 39.5486 46.9054L39.7937 47.2364C39.7025 47.3172 39.5949 47.3887 39.471 47.4509C39.347 47.5131 39.2044 47.5523 39.043 47.5687C38.8835 47.5856 38.7046 47.5674 38.5063 47.5143ZM41.6576 45.0743L40.8514 48.083L40.337 47.9452L41.1431 44.9365L41.6576 45.0743ZM43.6319 45.6033L41.7434 46.9451L41.0232 46.7522L41.0661 46.2808L41.6556 46.4388L43.0062 45.4357L43.6319 45.6033ZM42.2723 48.4638L41.5307 46.8047L41.9614 46.5207L42.9258 48.6389L42.2723 48.4638ZM43.5702 47.2349L43.5873 47.171C43.6455 46.9541 43.7309 46.7614 43.8436 46.5929C43.9568 46.4226 44.0911 46.2847 44.2465 46.1793C44.4024 46.0721 44.5748 46.003 44.7639 45.9722C44.9535 45.9396 45.153 45.9513 45.3625 46.0074C45.5738 46.0641 45.7534 46.1539 45.9012 46.277C46.0514 46.3987 46.1672 46.5449 46.2486 46.7158C46.3323 46.8852 46.3806 47.072 46.3935 47.2761C46.4068 47.4784 46.3844 47.688 46.3263 47.9049L46.3092 47.9689C46.2511 48.1857 46.1657 48.3784 46.053 48.5469C45.9403 48.7154 45.805 48.853 45.6473 48.9598C45.4919 49.0652 45.3194 49.1342 45.1298 49.1669C44.9426 49.1982 44.7434 49.1855 44.532 49.1289C44.3207 49.0722 44.1409 48.9833 43.9925 48.8621C43.8447 48.7391 43.7289 48.5928 43.6452 48.4233C43.5638 48.2525 43.5164 48.066 43.5031 47.8637C43.4897 47.6614 43.5121 47.4518 43.5702 47.2349ZM44.1018 47.3088L44.0846 47.3728C44.0444 47.5229 44.024 47.6695 44.0235 47.8124C44.0234 47.9534 44.045 48.0844 44.0881 48.2052C44.1331 48.3266 44.2014 48.4313 44.293 48.5194C44.3851 48.6057 44.5025 48.668 44.6453 48.7062C44.7862 48.744 44.9172 48.7483 45.0382 48.7191C45.1616 48.6886 45.2722 48.6318 45.37 48.5487C45.4678 48.4656 45.5519 48.363 45.6224 48.2408C45.6952 48.1173 45.7518 47.9804 45.792 47.8303L45.8091 47.7663C45.8489 47.618 45.8678 47.4731 45.866 47.3315C45.8666 47.1886 45.8443 47.0565 45.7994 46.9352C45.7567 46.8125 45.6896 46.7071 45.598 46.6189C45.5082 46.5313 45.392 46.4684 45.2492 46.4301C45.1083 46.3924 44.9762 46.3887 44.8528 46.4192C44.7312 46.4503 44.6204 46.508 44.5202 46.5924C44.4225 46.6755 44.3381 46.7791 44.2671 46.9031C44.1966 47.0253 44.1415 47.1605 44.1018 47.3088ZM47.7258 47.3202L46.7646 50.9073L46.2474 50.7687L47.3636 46.6032L47.8363 46.7299L47.7258 47.3202ZM49.5115 48.7643L49.4959 48.8227C49.4373 49.0415 49.3569 49.2375 49.2548 49.4108C49.1533 49.5823 49.034 49.7232 48.8972 49.8336C48.7622 49.9444 48.6122 50.0185 48.4472 50.0558C48.2823 50.093 48.1062 50.0866 47.9189 50.0364C47.728 49.9852 47.5677 49.9085 47.4382 49.8062C47.3086 49.704 47.209 49.5789 47.1393 49.4311C47.0697 49.2833 47.0268 49.1168 47.0109 48.9318C46.9967 48.7472 47.0069 48.5462 47.0413 48.3289L47.1247 48.0175C47.2066 47.801 47.3017 47.6129 47.41 47.4532C47.5184 47.2934 47.6393 47.1649 47.7727 47.0675C47.9084 46.9688 48.0572 46.9063 48.2192 46.8802C48.3817 46.8522 48.5575 46.8635 48.7466 46.9142C48.9357 46.9649 49.0935 47.0469 49.2201 47.1603C49.3472 47.2718 49.4426 47.4087 49.5065 47.5708C49.5703 47.733 49.6019 47.9153 49.6013 48.1178C49.603 48.3189 49.5731 48.5345 49.5115 48.7643ZM48.9787 48.6841L48.9943 48.6257C49.0346 48.4756 49.0565 48.3305 49.0603 48.1904C49.0645 48.0485 49.0467 47.9185 49.0068 47.8005C48.9692 47.6812 48.9072 47.5791 48.8206 47.4943C48.7346 47.4077 48.6211 47.3455 48.4802 47.3078C48.3504 47.273 48.2314 47.2649 48.1231 47.2836C48.0166 47.3028 47.9198 47.3414 47.8327 47.3995C47.7461 47.4558 47.6686 47.5264 47.6001 47.6114C47.534 47.695 47.4771 47.7851 47.4294 47.8816L47.2364 48.6018C47.2387 48.7415 47.2578 48.8777 47.2937 49.0105C47.3302 49.1415 47.3946 49.2571 47.4869 49.3573C47.5798 49.4557 47.7106 49.5275 47.8792 49.5727C48.0183 49.61 48.1456 49.6133 48.2611 49.5827C48.3789 49.5507 48.4839 49.4924 48.5761 49.4078C48.6702 49.3237 48.7506 49.2201 48.8174 49.0969C48.8847 48.9719 48.9384 48.8343 48.9787 48.6841ZM52.5357 47.9891L51.7295 50.9978L51.2151 50.86L52.0212 47.8513L52.5357 47.9891ZM54.51 48.5181L52.6215 49.8599L51.9013 49.6669L51.9442 49.1956L52.5337 49.3536L53.8843 48.3505L54.51 48.5181ZM53.1504 51.3786L52.4088 49.7195L52.8395 49.4355L53.8039 51.5537L53.1504 51.3786ZM54.0994 51.1739L53.7172 52.6004L53.2027 52.4625L53.585 51.036L54.0994 51.1739ZM55.3041 51.0824L57.2796 49.2602L57.7968 49.3988L56.9906 52.4075L56.4734 52.2689L57.0612 50.075L55.0858 51.8971L54.5742 51.76L55.3803 48.7513L55.892 48.8884L55.3041 51.0824ZM60.6331 50.1588L60.5191 50.5842L59.0648 50.1946L59.1788 49.7691L60.6331 50.1588ZM61.0863 50.2802L60.2802 53.289L59.7657 53.1511L60.5719 50.1424L61.0863 50.2802ZM59.0536 49.7356L59.5709 49.8742L59.1041 51.3048C59.031 51.5257 58.9565 51.7183 58.8807 51.8828C58.8071 52.0459 58.729 52.1819 58.6461 52.2908C58.5652 52.4003 58.4772 52.484 58.3821 52.542C58.2895 52.5986 58.1872 52.6318 58.0753 52.6415C57.9639 52.6495 57.8415 52.6355 57.708 52.5998L57.5467 52.5565L57.6682 52.1033L57.7816 52.1247C57.8628 52.1405 57.9355 52.1401 57.9995 52.1235C58.0654 52.1074 58.1261 52.074 58.1814 52.0232C58.2372 51.9706 58.2903 51.8984 58.3407 51.8066C58.393 51.7153 58.4438 51.6038 58.493 51.4719C58.5441 51.3406 58.5975 51.186 58.6531 51.0081L59.0536 49.7356ZM61.8833 52.8453L63.8587 51.0231L64.3759 51.1617L63.5697 54.1704L63.0525 54.0318L63.6404 51.8378L61.6649 53.66L61.1533 53.5229L61.9595 50.5142L62.4711 50.6513L61.8833 52.8453ZM65.2463 51.3949L65.7607 51.5327L65.0678 54.1188L66.1689 54.4138L66.8619 51.8278L67.3791 51.9664L66.6861 54.5524L67.7845 54.8467L68.4774 52.2607L68.9919 52.3985L68.1857 55.4072L64.4401 54.4036L65.2463 51.3949Z" fill="#E9573F"/>
<rect x="28.5947" y="34.0536" width="52.2792" height="15.7582" rx="2.10563" transform="rotate(15 28.5947 34.0536)" stroke="#E9573F" stroke-width="0.842253"/>
</svg>
