<svg width="100" height="79" viewBox="0 0 100 79" fill="none" xmlns="http://www.w3.org/2000/svg">
<rect x="15.5" y="5.5" width="50.383" height="69" rx="1.19362" fill="#DDEAFF" stroke="#282F38"/>
<rect x="18.0547" y="7.81445" width="40.804" height="63.3166" rx="0.423404" fill="#F6F6F7"/>
<path d="M25.4219 43.7236L56.6985 43.7236" stroke="#282F38" stroke-linecap="round"/>
<path d="M25.4219 51.915L56.6985 51.915" stroke="#282F38" stroke-linecap="round"/>
<path d="M32.875 59.3613L48.5133 59.3613" stroke="#282F38" stroke-linecap="round"/>
<circle cx="65.2694" cy="22.4999" r="8.80851" fill="#8CC152" stroke="#8CC152"/>
<path d="M63.7966 25.3404L63.7948 25.341C63.778 25.3468 63.7551 25.3515 63.7224 25.3515C63.6897 25.3515 63.6668 25.3468 63.65 25.341L63.6482 25.3404L60.9219 22.6956C60.922 22.6954 60.922 22.6952 60.922 22.695C60.9238 22.6379 60.9379 22.6245 60.9482 22.6145L60.9484 22.6144C60.9591 22.6042 60.9765 22.5882 61.0417 22.5882C61.107 22.5882 61.1243 22.6042 61.1351 22.6144L63.3768 24.7585L63.7224 25.089L64.068 24.7585L69.3823 19.6757L69.3827 19.6753C69.3907 19.6676 69.4097 19.6494 69.4838 19.6494C69.5573 19.6494 69.5761 19.6675 69.5843 19.6753L69.5847 19.6757C69.5928 19.6835 69.5948 19.6878 69.596 19.6908C69.5976 19.6948 69.6027 19.7094 69.6027 19.7414C69.6027 19.7737 69.5976 19.7885 69.5959 19.7926C69.5946 19.7957 69.5927 19.8 69.5847 19.8076L63.8157 25.3253C63.8071 25.3335 63.8013 25.3375 63.7987 25.3392C63.7975 25.3399 63.7968 25.3403 63.7966 25.3404ZM63.7966 25.3404L63.797 25.3402M63.7966 25.3404C63.7962 25.3405 63.7964 25.3404 63.797 25.3402M63.797 25.3402L63.7971 25.3402L63.7971 25.3402C63.7971 25.3402 63.797 25.3402 63.797 25.3402Z" fill="#111111" stroke="#F6F6F7"/>
<path fill-rule="evenodd" clip-rule="evenodd" d="M44.1627 28.8301H38.26C36.5228 28.9163 34.9836 29.9775 34.2852 31.5705C33.4428 33.2243 35.124 34.7875 37.0793 34.7875H45.3434C47.2999 34.7875 48.9811 33.2243 48.1375 31.5705C47.4391 29.9775 45.8999 28.9163 44.1627 28.8301Z" stroke="#282F38" stroke-width="1.27021" stroke-linecap="round" stroke-linejoin="round"/>
<path fill-rule="evenodd" clip-rule="evenodd" d="M44.7817 21.6809C44.7817 23.655 43.1814 25.2554 41.2073 25.2554C39.2332 25.2554 37.6328 23.655 37.6328 21.6809C37.6328 19.7068 39.2332 18.1064 41.2073 18.1064C42.1553 18.1064 43.0645 18.483 43.7348 19.1534C44.4052 19.8237 44.7817 20.7329 44.7817 21.6809Z" stroke="#282F38" stroke-width="1.27021" stroke-linecap="round" stroke-linejoin="round"/>
</svg>
