<svg width="100" height="79" viewBox="0 0 100 79" fill="none" xmlns="http://www.w3.org/2000/svg">
<mask id="path-1-inside-1_280_27134" fill="white">
<path fill-rule="evenodd" clip-rule="evenodd" d="M85 15.2583C85 14.1537 84.1046 13.2583 83 13.2583H17C15.8954 13.2583 15 14.1537 15 15.2583V61.5954C15 62.6999 15.8954 63.5954 17 63.5954H83C84.1046 63.5954 85 62.6999 85 61.5954V15.2583ZM81.0674 51.3707C81.0674 52.4752 80.172 53.3707 79.0674 53.3707H21.3258C20.2213 53.3707 19.3258 52.4752 19.3258 51.3707V19.1909C19.3258 18.0863 20.2213 17.1909 21.3258 17.1909H79.0674C80.172 17.1909 81.0674 18.0863 81.0674 19.1909V51.3707Z"/>
<path d="M19.3258 51.3707C19.3258 52.4752 20.2213 53.3707 21.3258 53.3707H79.0674C80.172 53.3707 81.0674 52.4752 81.0674 51.3707V19.1909C81.0674 18.0863 80.172 17.1909 79.0674 17.1909H21.3258C20.2213 17.1909 19.3258 18.0863 19.3258 19.1909V51.3707Z"/>
</mask>
<path fill-rule="evenodd" clip-rule="evenodd" d="M85 15.2583C85 14.1537 84.1046 13.2583 83 13.2583H17C15.8954 13.2583 15 14.1537 15 15.2583V61.5954C15 62.6999 15.8954 63.5954 17 63.5954H83C84.1046 63.5954 85 62.6999 85 61.5954V15.2583ZM81.0674 51.3707C81.0674 52.4752 80.172 53.3707 79.0674 53.3707H21.3258C20.2213 53.3707 19.3258 52.4752 19.3258 51.3707V19.1909C19.3258 18.0863 20.2213 17.1909 21.3258 17.1909H79.0674C80.172 17.1909 81.0674 18.0863 81.0674 19.1909V51.3707Z" fill="#174AA4"/>
<path d="M19.3258 51.3707C19.3258 52.4752 20.2213 53.3707 21.3258 53.3707H79.0674C80.172 53.3707 81.0674 52.4752 81.0674 51.3707V19.1909C81.0674 18.0863 80.172 17.1909 79.0674 17.1909H21.3258C20.2213 17.1909 19.3258 18.0863 19.3258 19.1909V51.3707Z" fill="#E5E6ED"/>
<path d="M21.3258 53.6564H79.0674V53.0849H21.3258V53.6564ZM81.3531 51.3707V19.1909H80.7817V51.3707H81.3531ZM79.0674 16.9052H21.3258V17.4766H79.0674V16.9052ZM19.0401 19.1909V51.3707H19.6116V19.1909H19.0401ZM21.3258 16.9052C20.0635 16.9052 19.0401 17.9285 19.0401 19.1909H19.6116C19.6116 18.2441 20.3791 17.4766 21.3258 17.4766V16.9052ZM81.3531 19.1909C81.3531 17.9285 80.3298 16.9052 79.0674 16.9052V17.4766C80.0142 17.4766 80.7817 18.2441 80.7817 19.1909H81.3531ZM79.0674 53.6564C80.3298 53.6564 81.3531 52.633 81.3531 51.3707H80.7817C80.7817 52.3174 80.0142 53.0849 79.0674 53.0849V53.6564ZM21.3258 53.0849C20.3791 53.0849 19.6116 52.3174 19.6116 51.3707H19.0401C19.0401 52.633 20.0635 53.6564 21.3258 53.6564V53.0849ZM17 13.8297H83V12.6869H17V13.8297ZM84.4286 15.2583V61.5954H85.5714V15.2583H84.4286ZM83 63.0239H17V64.1668H83V63.0239ZM15.5714 61.5954V15.2583H14.4286V61.5954H15.5714ZM17 63.0239C16.211 63.0239 15.5714 62.3844 15.5714 61.5954H14.4286C14.4286 63.0155 15.5798 64.1668 17 64.1668V63.0239ZM84.4286 61.5954C84.4286 62.3844 83.789 63.0239 83 63.0239V64.1668C84.4202 64.1668 85.5714 63.0155 85.5714 61.5954H84.4286ZM83 13.8297C83.789 13.8297 84.4286 14.4693 84.4286 15.2583H85.5714C85.5714 13.8381 84.4202 12.6869 83 12.6869V13.8297ZM17 12.6869C15.5798 12.6869 14.4286 13.8381 14.4286 15.2583H15.5714C15.5714 14.4693 16.211 13.8297 17 13.8297V12.6869Z" fill="#282F38" mask="url(#path-1-inside-1_280_27134)"/>
<path d="M28.7656 52.2279V6.14286C28.7656 5.51168 29.2773 5 29.9085 5H50.0016H59.4398L71.2375 16.7978V52.2279C71.2375 52.8591 70.7259 53.3708 70.0947 53.3708H50.0016H29.9085C29.2773 53.3708 28.7656 52.8591 28.7656 52.2279Z" fill="#DDEAFF"/>
<path d="M71.2375 16.7978V52.2279C71.2375 52.8591 70.7259 53.3708 70.0947 53.3708H50.0016H29.9085C29.2773 53.3708 28.7656 52.8591 28.7656 52.2279V6.14286C28.7656 5.51168 29.2773 5 29.9085 5H50.0016H59.4398M71.2375 16.7978L59.4398 5M71.2375 16.7978H60.5826C59.9515 16.7978 59.4398 16.2861 59.4398 15.6549V5" stroke="#282F38"/>
<path d="M60.223 43.9325H38.987C38.7698 43.9325 38.5938 43.7564 38.5938 43.5393C38.5938 43.3221 38.7698 43.146 38.987 43.146H60.223C60.4402 43.146 60.6162 43.3221 60.6162 43.5393C60.6162 43.7564 60.4402 43.9325 60.223 43.9325Z" fill="#282F38"/>
<path d="M60.223 37.4437H38.987C38.7698 37.4437 38.5938 37.2677 38.5938 37.0505C38.5938 36.8333 38.7698 36.6572 38.987 36.6572H60.223C60.4402 36.6572 60.6162 36.8333 60.6162 37.0505C60.6162 37.2677 60.4402 37.4437 60.223 37.4437Z" fill="#282F38"/>
<path d="M61.4027 70.6744L59.4364 63.5957H40.56L38.5938 70.6744H61.4027Z" fill="#174AA4" stroke="#282F38" stroke-width="1.14286" stroke-linecap="round"/>
<rect x="34.6641" y="70.6743" width="30.6742" height="3.14607" rx="1.57303" fill="#282F38"/>
<path d="M53.7031 19.8471L54.9441 21.0881L57.6744 18.3579" stroke="#282F38" stroke-width="0.557377" stroke-linecap="round"/>
<circle cx="49.4809" cy="21.5845" r="6.67101" stroke="#282F38" stroke-width="0.557377"/>
<path d="M54.2286 25.6459C52.5739 23.8257 48.565 21.2775 44.5938 25.6459" stroke="#282F38" stroke-width="0.557377" stroke-linecap="round"/>
<circle cx="49.4778" cy="19.5989" r="1.70694" stroke="#282F38" stroke-width="0.557377"/>
</svg>
