<svg width="100" height="79" viewBox="0 0 100 79" fill="none" xmlns="http://www.w3.org/2000/svg">
<path fill-rule="evenodd" clip-rule="evenodd" d="M15 17.2363V29.4727H30.7227H46.4453V32.959V36.4453H41.25H36.0547V40V43.5547H41.25H46.4453V40V36.4453H50H53.5547V40V43.5547H55.2637H56.9727V47.041V50.5273H53.4863H50V55.7927V61.058L44.7705 61.0221L39.541 60.9863L39.5052 55.7568L39.4694 50.5273H27.2347H15V62.7637V75H27.2363H39.4727V71.5137V68.0273H44.7363H50V71.5137V75H56.9727H63.9453V71.5137V68.0273H67.5H71.0547V71.5137V75H76.25H81.4453V71.5137V68.0273H79.7363H78.0273V64.541V61.0547H81.5137H85V57.5V53.9453H81.5146H78.0294L77.9941 45.2295L77.959 36.5137L65.7592 36.4788L53.5593 36.4438L53.5228 32.9925L53.4863 29.541L49.9658 29.5045L46.4453 29.468V24.2067V18.9453H50H53.5547V11.9727V5H50H46.4453V11.9727V18.9453H42.959H39.4727V11.9727V5H27.2363H15V17.2363ZM60.5273 17.2363V29.4727H72.7637H85V17.2363V5H72.7637H60.5273V17.2363ZM32.5 17.2363V22.5H27.2363H21.9727V17.2363V11.9727H27.2363H32.5V17.2363ZM78.0273 17.2363V22.5H72.7637H67.5V17.2363V11.9727H72.7637H78.0273V17.2363ZM15 40V43.5547H21.9727H28.9453V40V36.4453H21.9727H15V40ZM71.0547 48.75V53.9453H74.541H78.0273V57.5V61.0547H67.5H56.9727V64.541V68.0273H53.4863H50V64.541V61.0547H53.4863H56.9727V55.791V50.5273H60.459H63.9453V47.041V43.5547H67.5H71.0547V48.75ZM32.5 62.7637V68.0273H27.2363H21.9727V62.7637V57.5H27.2363H32.5V62.7637Z" fill="#282F38"/>
</svg>
