<svg width="100" height="79" viewBox="0 0 100 79" fill="none" xmlns="http://www.w3.org/2000/svg">
<path d="M60 28.1951H70.5464C70.5669 28.1951 70.5865 28.1869 70.601 28.1725L75.3867 23.3867" stroke="#282F38" stroke-linecap="round"/>
<path d="M60 58.0071H70.5464C70.5669 58.0071 70.5865 58.0152 70.601 58.0297L75.3867 62.8154" stroke="#282F38" stroke-linecap="round"/>
<path d="M55.2559 14.1434L55.2622 14.1502L55.2687 14.1567L62.5835 21.4715V67.1507C62.5835 69.0038 61.0813 70.506 59.2282 70.506H18.8553C17.0022 70.506 15.5 69.0038 15.5 67.1507V11.8553C15.5 10.0022 17.0022 8.5 18.8553 8.5H50.0156L55.2559 14.1434Z" fill="#DDEAFF" stroke="#282F38"/>
<path d="M49.7317 21.6027L49.4725 8.60834C49.4712 8.53907 49.5547 8.50327 49.6039 8.55206L62.4514 21.2953C62.4997 21.3432 62.4667 21.4258 62.3986 21.4271L49.8104 21.6782C49.7678 21.6791 49.7326 21.6452 49.7317 21.6027Z" fill="#DDEAFF" stroke="#282F38" stroke-linecap="round"/>
<circle cx="38.8646" cy="26.0912" r="7.01305" fill="#8CC152" stroke="#8CC152"/>
<path d="M42.2897 23.8483L42.2897 23.8483L42.2897 23.8483Z" fill="#DDEAFF" stroke="#DDEAFF"/>
<path d="M22.0078 45.9863H30.6628" stroke="#282F38" stroke-linecap="round"/>
<path d="M35.9531 45.5049H56.1482" stroke="#282F38" stroke-linecap="round"/>
<path d="M21.5312 55.1221H44.6113" stroke="#282F38" stroke-linecap="round"/>
<path d="M49.4219 55.1221H56.1536" stroke="#282F38" stroke-linecap="round"/>
<path d="M38.8359 63.7773L56.146 63.7773" stroke="#282F38" stroke-linecap="round"/>
<path d="M21.5312 63.7773L34.033 63.7773" stroke="#282F38" stroke-linecap="round"/>
<path d="M62.8828 35.8887H70.5762M62.8828 47.9095H70.5762" stroke="#282F38" stroke-linecap="round"/>
<path d="M62.8828 41.6582H77.3079" stroke="#282F38" stroke-linecap="round"/>
<circle cx="77.3076" cy="21.4629" r="3.34668" fill="#F5F5F5" stroke="#282F38"/>
<circle cx="77.3076" cy="64.7383" r="3.34668" fill="#F5F5F5" stroke="#282F38"/>
<circle cx="81.1514" cy="41.6582" r="3.34668" stroke="#282F38"/>
</svg>
