<svg width="100" height="85" viewBox="0 0 100 85" fill="none" xmlns="http://www.w3.org/2000/svg">
<path d="M15 64.6906V34.9214V24.5433C15 21.9996 17.0621 19.9375 19.6058 19.9375H78.5992C81.1429 19.9375 83.205 21.9996 83.205 24.5433V64.6906C83.205 67.2343 81.1429 69.2964 78.5992 69.2964H19.6058C17.0621 69.2964 15 67.2343 15 64.6906Z" fill="#147AD6" fill-opacity="0.2" stroke="#282F38"/>
<rect x="20.3828" y="24.4248" width="57.4358" height="40.3846" fill="#DDEAFF"/>
<path d="M77.8186 62.9669C77.8186 63.9844 77.0128 64.8092 75.9953 64.8092C68.5281 64.8092 39.7619 64.8092 20.3828 64.8092C20.3828 66.5449 22.229 68.4484 24.6231 69.2213C24.786 69.2739 24.9568 69.2964 25.128 69.2964H78.7161C79.3143 69.2964 80.6904 69.1169 81.4084 68.399C82.3058 67.5015 83.2032 66.6041 83.2032 63.9118V24.4777C83.0537 23.413 82.3058 21.1939 80.5109 20.8349L70.6391 19.9375H26.3986C26.2772 19.9375 26.1569 19.9475 26.0402 19.9805C24.4077 20.4433 20.3828 23.128 20.3828 24.4247H75.9763C76.9938 24.4247 77.8186 25.2495 77.8186 26.267V62.9669Z" fill="#85B7E8"/>
<path d="M20.3828 64.8092C20.3828 53.8257 20.3828 36.6843 20.3828 36.6843C20.3828 36.6843 20.3828 36.6843 20.3828 36.6843V24.4247M20.3828 64.8092C39.7619 64.8092 68.5281 64.8092 75.9953 64.8092C77.0128 64.8092 77.8186 63.9844 77.8186 62.9669V26.267C77.8186 25.2495 76.9938 24.4247 75.9763 24.4247H20.3828M20.3828 64.8092C20.3828 66.5449 22.229 68.4484 24.6231 69.2213C24.786 69.2739 24.9568 69.2964 25.128 69.2964H78.7161C79.3143 69.2964 80.6904 69.1169 81.4084 68.399C82.3058 67.5015 83.2032 66.6041 83.2032 63.9118M20.3828 24.4247C20.3828 23.128 24.4077 20.4433 26.0402 19.9805C26.1569 19.9475 26.2772 19.9375 26.3986 19.9375H70.6391L80.5109 20.8349C82.3058 21.1939 83.0537 23.413 83.2032 24.4777M83.2032 63.9118C83.2032 63.1938 83.2032 37.3232 83.2032 24.4777M83.2032 63.9118V24.4777" stroke="#282F38"/>
<path d="M29.3606 40.13C31.4546 41.3266 36.8686 44.5667 39.2324 41.4762C40.7266 39.5225 40.6696 37.183 39.6811 34.9309C37.9776 31.0499 35.3707 40.254 34.2965 44.354C33.249 48.3522 35.4931 52.3949 34.2965 54.9377C33.0999 57.4804 29.1326 56.1719 26.6683 54.489C23.0884 52.0441 33.1836 50.962 37.4375 51.7967C40.3608 52.3702 41.4012 56.4899 44.1683 55.3864C46.1551 54.5941 45.5122 52.0593 47.3093 50.8992C50.4325 48.8833 53.1426 52.6941 56.7324 52.2454C60.3221 51.7967 59.8734 52.2454 59.8734 52.2454" stroke="#174AA4" stroke-linecap="round"/>
<path d="M63.9097 47.3094L63.5065 42.4716C63.4764 42.1106 63.5176 41.7472 63.6277 41.4022L74.3785 7.70428C74.8515 6.22155 76.4551 5.42174 77.9241 5.93589L82.4216 7.51001L82.7409 7.65988C84.0238 8.26195 84.6434 9.73689 84.1752 11.0745L72.6185 44.0937C72.4976 44.4392 72.3092 44.7573 72.0642 45.0294L68.3968 49.1043L67.1477 50.3535L64.8071 52.6941L63.9097 47.3094Z" fill="#DDEAFF"/>
<path d="M64.8071 52.6941L63.9097 47.3094M64.8071 52.6941L65.7045 48.6556M64.8071 52.6941L67.1477 50.3535M66.1532 48.2069L63.9097 47.3094M66.1532 48.2069L68.3968 49.1043M66.1532 48.2069L65.7045 48.6556M68.3968 49.1043L72.0643 45.0294C72.3092 44.7573 72.4976 44.4392 72.6185 44.0937L84.1752 11.0745C84.6434 9.73689 84.0238 8.26195 82.7409 7.65988L82.4216 7.51001M68.3968 49.1043L67.1477 50.3535M63.9097 47.3094L63.5065 42.4716C63.4764 42.1106 63.5176 41.7472 63.6277 41.4022L74.3785 7.70428C74.8515 6.22155 76.4551 5.42174 77.9241 5.93589L82.4216 7.51001M82.4216 7.51001C82.7558 7.30949 83.2759 5.03064 83.5875 3.63081C83.6313 3.434 83.6559 3.23309 83.6212 3.03448C83.5306 2.51708 83.1841 1.4769 81.8583 1.09158C80.8713 0.8047 80.0459 1.25144 79.5789 1.61102C79.2855 1.83694 79.1086 2.17099 78.9972 2.52414L77.9211 5.93483M65.7045 48.6556L67.1477 50.3535" stroke="#282F38" stroke-width="0.921158" stroke-linecap="round"/>
<path opacity="0.5" d="M81.742 10.3499L66.6495 47.6621C66.3455 48.4137 67.172 49.1203 67.8672 48.7032C67.92 48.6715 67.9764 48.6459 68.0345 48.6252C71.1176 47.5247 72.7895 43.0672 73.2901 40.7753C73.3188 40.6442 73.354 40.5152 73.3991 40.3888L80.0621 21.7325L83.2031 13.2069L83.8461 11.278C84.0123 10.7794 84.0328 10.2437 83.9054 9.73386L83.8898 9.67154C83.7358 9.0558 83.3746 8.51181 82.8669 8.131L81.9796 7.46552C81.9 7.40581 81.8032 7.37354 81.7036 7.37354C81.3618 7.37354 81.1387 7.73433 81.2742 8.04822C81.6072 8.81986 81.7641 9.40441 81.8249 9.7618C81.8588 9.96132 81.8179 10.1623 81.742 10.3499Z" fill="#174AA4"/>
<path d="M78.7167 11.8608L76.9219 17.6942" stroke="#282F38" stroke-width="0.921158" stroke-linecap="round"/>
<path d="M66.1532 48.2069L63.9097 47.3094L64.8071 52.6941L65.7045 48.6556L66.1532 48.2069Z" fill="#282F38"/>
<path d="M65.7045 48.6556L64.8071 52.6941L67.1477 50.3535L65.7045 48.6556Z" fill="#1E2D56"/>
<path d="M68.3968 49.1043L66.1532 48.2069L65.7045 48.6556L67.1477 50.3535L68.3968 49.1043Z" fill="#1E2D56"/>
<path d="M64.8071 52.6941L64.3528 52.7698L64.4999 53.6526L65.1328 53.0197L64.8071 52.6941ZM68.3968 49.1043L68.7225 49.43L68.7311 49.4214L68.7392 49.4124L68.3968 49.1043ZM63.9097 47.3094L63.4507 47.3477L63.4522 47.3665L63.4553 47.3852L63.9097 47.3094ZM77.4818 5.79625C77.4053 6.03883 77.5399 6.29753 77.7825 6.37407C78.0251 6.4506 78.2838 6.316 78.3603 6.07342L77.4818 5.79625ZM81.8583 1.09158L81.7298 1.53385L81.8583 1.09158ZM65.7045 48.6556L65.3788 48.3299L65.284 48.4248L65.2549 48.5557L65.7045 48.6556ZM78.9972 2.52414L78.558 2.38555L78.9972 2.52414ZM79.5789 1.61102L79.2979 1.24609L79.5789 1.61102ZM83.5875 3.63081L84.0371 3.73088L83.5875 3.63081ZM83.6212 3.03448L84.0749 2.95507L83.6212 3.03448ZM82.7409 7.65988L82.5453 8.07683L82.7409 7.65988ZM74.3785 7.70428L73.9397 7.56429L74.3785 7.70428ZM63.6277 41.4022L63.1889 41.2622L63.6277 41.4022ZM72.6185 44.0937L72.1838 43.9415L72.6185 44.0937ZM72.0642 45.0294L71.7219 44.7213L72.0642 45.0294ZM66.3243 47.7792L64.0807 46.8818L63.7386 47.7371L65.9822 48.6345L66.3243 47.7792ZM64.3686 47.2712L63.9655 42.4333L63.0475 42.5098L63.4507 47.3477L64.3686 47.2712ZM64.0665 41.5421L74.8172 7.84427L73.9397 7.56429L63.1889 41.2622L64.0665 41.5421ZM83.7405 10.9223L72.1838 43.9415L73.0532 44.2458L84.6099 11.2266L83.7405 10.9223ZM77.772 6.37061L82.2694 7.94473L82.5737 7.07529L78.0763 5.50117L77.772 6.37061ZM82.2259 7.92696L82.5453 8.07683L82.9366 7.24293L82.6173 7.09307L82.2259 7.92696ZM82.6586 7.90496C82.8133 7.81213 82.9073 7.65719 82.9574 7.56691C83.0194 7.45548 83.0773 7.32178 83.1312 7.18035C83.2398 6.89575 83.3506 6.53149 83.4573 6.14178C83.6713 5.35987 83.8815 4.42997 84.0371 3.73088L83.1379 3.53074C82.982 4.23148 82.7762 5.14092 82.5688 5.89852C82.4647 6.27858 82.3633 6.60912 82.2706 6.85194C82.224 6.97422 82.184 7.0624 82.1523 7.11943C82.1088 7.19763 82.1135 7.15777 82.1846 7.11507L82.6586 7.90496ZM78.558 2.38555L77.4818 5.79625L78.3603 6.07342L79.4364 2.66272L78.558 2.38555ZM84.0749 2.95507C83.9697 2.35406 83.5538 1.10472 81.9869 0.649298L81.7298 1.53385C82.8144 1.84908 83.0916 2.6801 83.1675 3.11388L84.0749 2.95507ZM81.9869 0.649298C80.7915 0.301876 79.8116 0.850592 79.2979 1.24609L79.8599 1.97595C80.2803 1.65228 80.9511 1.30752 81.7298 1.53385L81.9869 0.649298ZM68.7392 49.4124L72.4066 45.3375L71.7219 44.7213L68.0545 48.7962L68.7392 49.4124ZM65.9822 48.6345L68.2258 49.532L68.5679 48.6767L66.3243 47.7792L65.9822 48.6345ZM63.4553 47.3852L64.3528 52.7698L65.2614 52.6183L64.364 47.2337L63.4553 47.3852ZM65.2567 52.794L66.1541 48.7555L65.2549 48.5557L64.3575 52.5941L65.2567 52.794ZM66.0302 48.9813L66.4789 48.5326L65.8276 47.8812L65.3788 48.3299L66.0302 48.9813ZM65.1328 53.0197L67.4734 50.6791L66.822 50.0278L64.4814 52.3684L65.1328 53.0197ZM67.4734 50.6791L68.7225 49.43L68.0711 48.7786L66.822 50.0278L67.4734 50.6791ZM65.3536 48.9539L66.7967 50.6517L67.4986 50.0552L66.0555 48.3573L65.3536 48.9539ZM79.4364 2.66272C79.5331 2.35642 79.6703 2.12193 79.8599 1.97595L79.2979 1.24609C78.9007 1.55195 78.6842 1.98556 78.558 2.38555L79.4364 2.66272ZM84.0371 3.73088C84.0864 3.50955 84.1248 3.24018 84.0749 2.95507L83.1675 3.11388C83.1871 3.22599 83.1763 3.35844 83.1379 3.53074L84.0371 3.73088ZM84.6099 11.2266C85.1561 9.66611 84.4333 7.94535 82.9366 7.24293L82.5453 8.07683C83.6143 8.57855 84.1306 9.80767 83.7405 10.9223L84.6099 11.2266ZM74.8172 7.84427C75.2114 6.60866 76.5478 5.94216 77.772 6.37061L78.0763 5.50117C76.3624 4.90133 74.4916 5.83443 73.9397 7.56429L74.8172 7.84427ZM63.9655 42.4333C63.9404 42.1325 63.9747 41.8297 64.0665 41.5421L63.1889 41.2622C63.0605 41.6648 63.0124 42.0887 63.0475 42.5098L63.9655 42.4333ZM72.1838 43.9415C72.083 44.2295 71.926 44.4945 71.7219 44.7213L72.4066 45.3375C72.6923 45.02 72.9121 44.6489 73.0532 44.2458L72.1838 43.9415Z" fill="#282F38"/>
</svg>
