<svg width="64" height="69" viewBox="0 0 64 69" fill="none" xmlns="http://www.w3.org/2000/svg">
<path d="M3.49026 62.3907C0.677734 52.7391 0.677734 32.9477 0.677734 32.9477L36.9684 32.8052C36.9684 32.8052 36.9684 50.7302 34.8601 62.2654L3.49026 62.3907Z" fill="#282F38"/>
<path d="M18.8231 50.3283C28.8445 50.3283 36.9684 42.6879 36.9684 33.263C36.9684 23.8381 28.8445 16.1978 18.8231 16.1978C8.80168 16.1978 0.677734 23.8381 0.677734 33.263C0.677734 42.6879 8.80168 50.3283 18.8231 50.3283Z" fill="#282F38"/>
<path d="M18.9665 54.8611L18.9667 54.8611C23.6506 54.8547 28.2628 55.6778 31.6894 57.297C35.1219 58.919 37.2791 61.2905 37.2791 64.3606V68.2652H0.368132V64.3606C0.368132 61.0985 2.60776 58.7328 6.11465 57.1625C9.61944 55.593 14.3045 54.8654 18.9665 54.8611Z" fill="#174AA4" stroke="#282F38" stroke-width="0.736264"/>
<path d="M18.8018 52.3286H14.8789V56.4718C14.8789 58.3468 16.4774 59.8676 18.4475 59.8676H19.1603C21.1304 59.8676 22.7289 58.3468 22.7289 56.4718V52.3286H18.8018Z" fill="#C99C29"/>
<path d="M18.7759 19.2046C8.25595 19.2046 5.50391 27.357 5.50391 38.8145C5.50391 50.2677 13.665 53.7628 18.7759 53.7628C23.8869 53.7628 32.048 50.2677 32.048 38.8145C32.048 27.357 29.2959 19.2046 18.7759 19.2046Z" fill="#C99C29"/>
<path d="M22.7424 28.2125C21.347 29.5561 14.4085 35.8076 4.84766 37.4364V24.6223C4.84766 24.6223 8.97356 16.4353 18.8757 16.4353C28.7779 16.4353 32.9081 24.8297 32.9081 24.8297V37.4407C32.9081 37.4407 26.419 34.9522 23.1615 28.2946C23.1443 28.2565 23.1182 28.223 23.0855 28.1971C23.0527 28.1711 23.0142 28.1533 22.9732 28.1453C22.9321 28.1373 22.8898 28.1392 22.8496 28.1509C22.8095 28.1625 22.7727 28.1837 22.7424 28.2125Z" fill="#282F38"/>
<path opacity="0.54" d="M6.45117 64.9829H7.74727V68.6379H6.45117V64.9829ZM29.9019 64.9829H31.198V68.6379H29.9019V64.9829Z" fill="black"/>
<mask id="path-8-inside-1_1803_248701" fill="white">
<path d="M2.73828 40.1599C2.73828 38.3116 4.23663 36.8132 6.08493 36.8132C6.26977 36.8132 6.4196 36.9631 6.4196 37.1479V46.05C6.4196 46.2348 6.26977 46.3847 6.08493 46.3847C4.23663 46.3847 2.73828 44.8863 2.73828 43.038V40.1599Z"/>
</mask>
<path d="M2.73828 40.1599C2.73828 38.3116 4.23663 36.8132 6.08493 36.8132C6.26977 36.8132 6.4196 36.9631 6.4196 37.1479V46.05C6.4196 46.2348 6.26977 46.3847 6.08493 46.3847C4.23663 46.3847 2.73828 44.8863 2.73828 43.038V40.1599Z" fill="#DDEAFF" stroke="#282F38" stroke-width="2.20879" mask="url(#path-8-inside-1_1803_248701)"/>
<mask id="path-9-inside-2_1803_248701" fill="white">
<path d="M34.3965 40.1599C34.3965 38.3116 32.8981 36.8132 31.0498 36.8132C30.865 36.8132 30.7152 36.9631 30.7152 37.1479V46.05C30.7152 46.2348 30.865 46.3847 31.0498 46.3847C32.8981 46.3847 34.3965 44.8863 34.3965 43.038V40.1599Z"/>
</mask>
<path d="M34.3965 40.1599C34.3965 38.3116 32.8981 36.8132 31.0498 36.8132C30.865 36.8132 30.7152 36.9631 30.7152 37.1479V46.05C30.7152 46.2348 30.865 46.3847 31.0498 46.3847C32.8981 46.3847 34.3965 44.8863 34.3965 43.038V40.1599Z" fill="#DDEAFF" stroke="#282F38" stroke-width="2.20879" mask="url(#path-9-inside-2_1803_248701)"/>
<path d="M31.4511 46.0164C28.9969 47.3662 23.1313 49.8449 19.3027 48.9614" stroke="#282F38" stroke-width="1.47253" stroke-linecap="round"/>
<path d="M30.5556 2.94506C30.5556 1.52186 31.7094 0.368132 33.1326 0.368132H60.3743C61.7975 0.368132 62.9512 1.52186 62.9512 2.94505V17.6703C62.9512 19.0935 61.7975 20.2473 60.3743 20.2473H42.4851C41.5796 20.2473 40.7292 20.6821 40.199 21.4161L39.0576 22.9966C38.2892 24.0605 36.6104 23.5687 36.5376 22.2583C36.4749 21.13 35.5417 20.2473 34.4117 20.2473H33.1326C31.7094 20.2473 30.5556 19.0935 30.5556 17.6703V2.94506Z" fill="#8CC152" stroke="#282F38" stroke-width="0.736264"/>
<path d="M44.6087 15.4531L49.1037 6.62628" stroke="#DDEAFF" stroke-width="0.736264" stroke-linecap="round"/>
<path d="M40.2556 12.7017L42.0428 14.1168L41.1855 14.8607L39.4256 13.4455L40.2556 12.7017ZM42.0881 10.2251V10.5381C42.0881 11.04 42.0201 11.4906 41.884 11.8897C41.751 12.2889 41.5589 12.6291 41.308 12.9103C41.057 13.1885 40.7606 13.4017 40.4189 13.5499C40.0772 13.698 39.6977 13.7721 39.2804 13.7721C38.8662 13.7721 38.4867 13.698 38.1419 13.5499C37.7972 13.4017 37.4994 13.1885 37.2484 12.9103C36.9974 12.6291 36.8023 12.2889 36.6632 11.8897C36.5272 11.4906 36.4591 11.04 36.4591 10.5381V10.2251C36.4591 9.7201 36.5272 9.26953 36.6632 8.8734C36.8023 8.47425 36.9959 8.13406 37.2438 7.85284C37.4918 7.57162 37.7881 7.35692 38.1329 7.20875C38.4776 7.06058 38.8571 6.98649 39.2714 6.98649C39.6887 6.98649 40.0682 7.06058 40.4099 7.20875C40.7546 7.35692 41.0524 7.57162 41.3034 7.85284C41.5544 8.13406 41.7479 8.47425 41.884 8.8734C42.0201 9.26953 42.0881 9.7201 42.0881 10.2251ZM40.7138 10.5381V10.216C40.7138 9.86524 40.6805 9.5568 40.614 9.2907C40.5505 9.0246 40.4567 8.80083 40.3327 8.6194C40.2118 8.43796 40.0621 8.30189 39.8837 8.21117C39.7053 8.11743 39.5012 8.07056 39.2714 8.07056C39.0415 8.07056 38.8374 8.11743 38.659 8.21117C38.4806 8.30189 38.3309 8.43796 38.21 8.6194C38.089 8.80083 37.9968 9.0246 37.9333 9.2907C37.8698 9.5568 37.838 9.86524 37.838 10.216V10.5381C37.838 10.8858 37.8698 11.1942 37.9333 11.4634C37.9968 11.7295 38.089 11.9548 38.21 12.1392C38.334 12.3206 38.4851 12.4582 38.6636 12.552C38.845 12.6457 39.0506 12.6926 39.2804 12.6926C39.5102 12.6926 39.7128 12.6457 39.8882 12.552C40.0666 12.4582 40.2163 12.3206 40.3373 12.1392C40.4613 11.9548 40.555 11.7295 40.6185 11.4634C40.682 11.1942 40.7138 10.8858 40.7138 10.5381Z" fill="#DDEAFF"/>
<path d="M54.0776 8.20664L52.2814 13.6814H50.8345L53.2884 7.07721H54.2092L54.0776 8.20664ZM55.5699 13.6814L53.7692 8.20664L53.624 7.07721H54.5539L57.0214 13.6814H55.5699ZM55.4883 11.223V12.2889H52.0002V11.223H55.4883Z" fill="#DDEAFF"/>
</svg>
