<svg width="72" height="65" viewBox="0 0 72 65" fill="none" xmlns="http://www.w3.org/2000/svg">
<rect x="51.8379" y="11.8391" width="18.6629" height="15.5169" rx="0.747734" fill="#174AA4" stroke="#282F38"/>
<path d="M63.2207 27.1284L53.6702 26.2991L51.9161 22.5399L18.1169 19.4334L19.7156 1.02251L65.145 4.96719L63.2207 27.1284Z" fill="#E9573F"/>
<path d="M54.5612 4.04819L20.6997 1.10797C20.0131 1.04836 19.4083 1.55657 19.3487 2.24309L17.9659 18.1678C17.9063 18.8544 18.4145 19.4592 19.101 19.5188L51.4379 22.3267C51.8993 22.3667 52.3006 22.6591 52.4801 23.086L53.6207 25.7978C53.8003 26.2247 54.2015 26.517 54.6629 26.5571L61.962 27.1909C62.6485 27.2505 63.2534 26.7423 63.313 26.0558L65.0362 6.21018C65.0958 5.52366 64.5876 4.9188 63.9011 4.85919L57.9168 4.33956" stroke="#282F38" stroke-linecap="round"/>
<rect x="9.43155" y="7.83114" width="37.5393" height="15.3063" rx="0.747734" transform="rotate(-8.215 9.43155 7.83114)" fill="#8CC152" stroke="#282F38"/>
<rect x="19.6339" y="11.4197" width="37.5393" height="15.3063" rx="0.747734" transform="rotate(-5.30266 19.6339 11.4197)" fill="#174AA4" stroke="#282F38"/>
<path d="M1 12.9119H15.5506L18.6966 21.1703L70.2135 21.5635V64.0355H1V12.9119Z" fill="#DDEAFF"/>
<path d="M17.1236 64.0357H69.359C70.0481 64.0357 70.6067 63.477 70.6067 62.7879V22.8115C70.6067 22.1224 70.0481 21.5637 69.359 21.5637H19.1904C18.6593 21.5637 18.1864 21.2275 18.012 20.7259L15.4487 13.3566C15.2742 12.855 14.8013 12.5188 14.2702 12.5188H2.24773C1.55863 12.5188 1 13.0774 1 13.7665V62.7879C1 63.477 1.55863 64.0357 2.24773 64.0357H12.0112" stroke="#282F38" stroke-linecap="round"/>
<rect x="15.7801" y="45.783" width="40.4377" height="10.55" rx="1.37613" fill="#282F38" stroke="#DDEAFF" stroke-width="1.24773"/>
<rect x="22.7436" y="50.4797" width="25.3312" height="0.949167" rx="0.474584" fill="#DDEAFF" stroke="#DDEAFF" stroke-width="0.623867"/>
</svg>
