<svg width="100" height="79" viewBox="0 0 100 79" fill="none" xmlns="http://www.w3.org/2000/svg">
<path d="M9.28699 38.9028L11.2406 37.9267L21.4972 32.0701L30.0248 27.6483L38.1617 22.9435C38.6696 22.6507 39.2948 22.6507 39.8125 22.9435L86.0939 49.6693L51.2803 69.7771C50.7137 70.0992 50.03 70.0992 49.4634 69.7771L42.9676 66.0288L41.7466 65.326L40.9553 65.7848L34.3911 61.9975L35.1921 61.5388L18.01 51.6117L17.2285 52.0607L10.6643 48.2734L11.4458 47.8244L4.37363 43.7443C3.87546 43.4613 3.87546 42.7487 4.37363 42.4656L5.59465 41.7628L7.33338 40.367L9.28699 38.9028Z" fill="#B3B3B3"/>
<path d="M88.3869 47.7172L85.9253 46.2921L88.3869 44.867C88.3869 44.867 88.7678 44.7792 88.7874 44.8085C88.8069 44.8377 89.2562 45.3355 89.2562 45.3355L89.5493 45.9212L89.3637 46.4288L89.1781 46.8583L88.3869 47.7172Z" fill="#002D4D"/>
<path d="M6.29541 42.2118V41.1674C6.29541 41.1674 6.86196 41.2259 6.86196 41.265C6.86196 41.2747 6.87173 41.3431 6.8815 41.4309L41.2751 21.5671L87.4687 48.2441L88.3869 47.717C90.0182 45.6672 88.3869 44.8766 88.3869 44.8766V43.8224C88.3869 43.8224 90.6824 45.0425 89.3442 47.5023C88.9437 48.2344 88.3185 48.8298 87.5859 49.2495L53.5635 68.8986C53.0067 69.2207 52.3131 69.2207 51.7466 68.8986L6.6666 42.8463C6.4224 42.6999 6.29541 42.4558 6.29541 42.2118Z" fill="#1F4C6B"/>
<path d="M53.5732 67.8248L88.3869 47.717L41.2849 20.5129L6.6666 40.5036C6.16842 40.7867 6.16842 41.4992 6.6666 41.7921L51.7564 67.8248C52.3132 68.1469 53.0067 68.1469 53.5732 67.8248Z" fill="#002D4D"/>
<path d="M82.4578 49.5174L81.6182 49.9978L81.9147 50.5153L82.7543 50.0349L82.4578 49.5174Z" fill="#1F4C6B"/>
<path d="M83.9725 48.6749L83.1328 49.1553L83.4293 49.6729L84.269 49.1925L83.9725 48.6749Z" fill="#1F4C6B"/>
<path d="M85.4769 47.8053L84.6372 48.2856L84.9337 48.8032L85.7734 48.3229L85.4769 47.8053Z" fill="#1F4C6B"/>
<path d="M77.9154 52.1437L77.0757 52.624L77.3722 53.1416L78.2119 52.6613L77.9154 52.1437Z" fill="#1F4C6B"/>
<path d="M79.4285 51.2576L78.5889 51.738L78.8854 52.2556L79.725 51.7751L79.4285 51.2576Z" fill="#1F4C6B"/>
<path d="M80.9378 50.3965L80.0981 50.877L80.3947 51.3945L81.2343 50.9141L80.9378 50.3965Z" fill="#1F4C6B"/>
<path d="M73.387 54.7269L72.5474 55.2073L72.8439 55.7248L73.6835 55.2444L73.387 54.7269Z" fill="#1F4C6B"/>
<path d="M74.89 53.8778L74.0503 54.3582L74.3468 54.8757L75.1865 54.3954L74.89 53.8778Z" fill="#1F4C6B"/>
<path d="M76.3889 53.0025L75.5493 53.4829L75.8459 54.0004L76.6855 53.52L76.3889 53.0025Z" fill="#1F4C6B"/>
<path d="M68.8417 57.341L68.002 57.8213L68.2984 58.3389L69.1382 57.8585L68.8417 57.341Z" fill="#1F4C6B"/>
<path d="M70.3552 56.4551L69.5156 56.9355L69.8122 57.453L70.6518 56.9726L70.3552 56.4551Z" fill="#1F4C6B"/>
<path d="M71.8621 55.5967L71.0225 56.0771L71.319 56.5946L72.1586 56.1142L71.8621 55.5967Z" fill="#1F4C6B"/>
<path d="M64.303 59.9319L63.4634 60.4124L63.7599 60.9298L64.5995 60.4494L64.303 59.9319Z" fill="#1F4C6B"/>
<path d="M65.8114 59.081L64.9717 59.5613L65.2682 60.0789L66.1079 59.5985L65.8114 59.081Z" fill="#1F4C6B"/>
<path d="M67.3182 58.2223L66.4785 58.7026L66.775 59.2202L67.6147 58.7399L67.3182 58.2223Z" fill="#1F4C6B"/>
<path d="M59.7538 62.5487L58.9141 63.0291L59.2105 63.5466L60.0503 63.0663L59.7538 62.5487Z" fill="#1F4C6B"/>
<path d="M61.2757 61.6687L60.436 62.1492L60.7326 62.6667L61.5722 62.1862L61.2757 61.6687Z" fill="#1F4C6B"/>
<path d="M62.7776 60.8018L61.938 61.2822L62.2345 61.7997L63.0742 61.3193L62.7776 60.8018Z" fill="#1F4C6B"/>
<path fill-rule="evenodd" clip-rule="evenodd" d="M55.2141 65.1404L55.5071 65.6577L54.6671 66.1458L54.374 65.6284L55.2141 65.1404Z" fill="#1F4C6B"/>
<path d="M56.726 64.2858L55.8862 64.7661L56.1827 65.2837L57.0224 64.8033L56.726 64.2858Z" fill="#1F4C6B"/>
<path d="M58.2362 63.4247L57.3965 63.905L57.693 64.4226L58.5327 63.9423L58.2362 63.4247Z" fill="#1F4C6B"/>
<path d="M49.8061 64.5591L49.5127 65.0784L50.3552 65.5538L50.6486 65.0344L49.8061 64.5591Z" fill="#1F4C6B"/>
<path fill-rule="evenodd" clip-rule="evenodd" d="M52.1375 65.8533L51.9421 66.4195C51.7761 66.3511 51.61 66.2633 51.4537 66.1754L51.0239 65.9314L51.317 65.4141C51.61 65.5702 51.864 65.7362 52.1375 65.8533Z" fill="#1F4C6B"/>
<path fill-rule="evenodd" clip-rule="evenodd" d="M53.72 65.9316L53.8665 66.5075C53.5148 66.6149 53.1436 66.6442 52.7822 66.6149L52.8311 66.0195C53.1241 66.0488 53.4269 66.0097 53.72 65.9316Z" fill="#1F4C6B"/>
<path d="M45.2349 61.9905L44.9414 62.5098L45.7838 62.9853L46.0773 62.466L45.2349 61.9905Z" fill="#1F4C6B"/>
<path d="M46.7563 62.8279L46.4629 63.3472L47.3054 63.8225L47.5988 63.3032L46.7563 62.8279Z" fill="#1F4C6B"/>
<path d="M48.2686 63.7056L47.9751 64.2249L48.8175 64.7003L49.111 64.1811L48.2686 63.7056Z" fill="#1F4C6B"/>
<path d="M40.6792 59.4119L40.3857 59.9312L41.2282 60.4066L41.5217 59.8874L40.6792 59.4119Z" fill="#1F4C6B"/>
<path d="M42.1928 60.2712L41.8994 60.7905L42.7419 61.2658L43.0353 60.7465L42.1928 60.2712Z" fill="#1F4C6B"/>
<path d="M43.7285 61.1157L43.4351 61.635L44.2776 62.1104L44.571 61.5911L43.7285 61.1157Z" fill="#1F4C6B"/>
<path d="M36.1435 56.8349L35.8501 57.3542L36.6926 57.8296L36.9861 57.3103L36.1435 56.8349Z" fill="#1F4C6B"/>
<path d="M37.6376 57.6916L37.3442 58.2109L38.1868 58.6862L38.4801 58.1669L37.6376 57.6916Z" fill="#1F4C6B"/>
<path d="M39.1529 58.556L38.8594 59.0752L39.7018 59.5507L39.9953 59.0314L39.1529 58.556Z" fill="#1F4C6B"/>
<path d="M31.578 54.2444L31.2847 54.7637L32.1272 55.239L32.4206 54.7197L31.578 54.2444Z" fill="#1F4C6B"/>
<path d="M33.0946 55.1045L32.8013 55.6238L33.6438 56.0991L33.9372 55.5798L33.0946 55.1045Z" fill="#1F4C6B"/>
<path d="M34.5977 55.9766L34.3042 56.4958L35.1466 56.9713L35.4401 56.4521L34.5977 55.9766Z" fill="#1F4C6B"/>
<path d="M27.0224 51.6653L26.729 52.1846L27.5715 52.6599L27.8649 52.1406L27.0224 51.6653Z" fill="#1F4C6B"/>
<path d="M28.5493 52.5373L28.2559 53.0566L29.0984 53.532L29.3918 53.0127L28.5493 52.5373Z" fill="#1F4C6B"/>
<path d="M30.0571 53.3872L29.7637 53.9065L30.6062 54.3819L30.8996 53.8626L30.0571 53.3872Z" fill="#1F4C6B"/>
<path d="M22.4535 49.1152L22.1602 49.6345L23.0027 50.1098L23.2961 49.5905L22.4535 49.1152Z" fill="#1F4C6B"/>
<path d="M23.9781 49.9683L23.6846 50.4875L24.527 50.963L24.8205 50.4438L23.9781 49.9683Z" fill="#1F4C6B"/>
<path d="M25.4815 50.8267L25.188 51.3459L26.0304 51.8214L26.3239 51.3022L25.4815 50.8267Z" fill="#1F4C6B"/>
<path d="M17.9076 46.5159L17.6143 47.0352L18.4568 47.5104L18.7501 46.9911L17.9076 46.5159Z" fill="#1F4C6B"/>
<path d="M19.4185 47.3973L19.125 47.9165L19.9674 48.392L20.2609 47.8727L19.4185 47.3973Z" fill="#1F4C6B"/>
<path d="M20.9321 48.2507L20.6387 48.77L21.4812 49.2453L21.7746 48.726L20.9321 48.2507Z" fill="#1F4C6B"/>
<path d="M13.352 43.9372L13.0586 44.4565L13.9011 44.9318L14.1945 44.4125L13.352 43.9372Z" fill="#1F4C6B"/>
<path d="M14.8779 44.8093L14.5845 45.3286L15.427 45.804L15.7205 45.2847L14.8779 44.8093Z" fill="#1F4C6B"/>
<path d="M16.3764 45.6719L16.083 46.1912L16.9255 46.6665L17.2189 46.1471L16.3764 45.6719Z" fill="#1F4C6B"/>
<path fill-rule="evenodd" clip-rule="evenodd" d="M9.85094 41.968L9.11833 42.1339C8.98158 42.0363 8.84482 41.9582 8.7276 41.8411C8.61039 41.7239 8.52247 41.5678 8.47363 41.4018L9.21601 41.353C9.26485 41.4994 9.35277 41.6263 9.46022 41.724C9.57743 41.8313 9.71419 41.8899 9.85094 41.968Z" fill="#1F4C6B"/>
<path fill-rule="evenodd" clip-rule="evenodd" d="M11.2577 42.7683L10.6912 43.1393C10.3688 42.9636 10.0562 42.7781 9.77295 42.5829L10.4665 42.3291L11.2577 42.7683Z" fill="#1F4C6B"/>
<path fill-rule="evenodd" clip-rule="evenodd" d="M12.6741 43.5689L12.3811 44.0862L11.4434 43.5591L11.8732 43.1101L12.6741 43.5689Z" fill="#1F4C6B"/>
<path fill-rule="evenodd" clip-rule="evenodd" d="M12.0094 38.9419L11.6187 38.4929L12.5173 37.9658L12.8201 38.4734L12.0094 38.9419Z" fill="#1F4C6B"/>
<path fill-rule="evenodd" clip-rule="evenodd" d="M10.6125 39.7621L9.92871 39.4888C10.2218 39.2935 10.5441 39.1081 10.8567 38.9324L11.3842 39.3131L10.6125 39.7621Z" fill="#1F4C6B"/>
<path fill-rule="evenodd" clip-rule="evenodd" d="M9.29414 40.6601L8.55176 40.5917C8.70805 40.2794 9.01086 40.1427 9.26483 39.9377L9.99744 40.1134C9.75324 40.2794 9.44066 40.3868 9.29414 40.6601Z" fill="#1F4C6B"/>
<path d="M17.0417 35.3317L16.2061 35.8191L16.5069 36.3341L17.3426 35.8467L17.0417 35.3317Z" fill="#1F4C6B"/>
<path d="M15.5144 36.21L14.6787 36.6973L14.9795 37.2123L15.8152 36.725L15.5144 36.21Z" fill="#1F4C6B"/>
<path d="M14.0202 37.0857L13.1846 37.573L13.4853 38.0881L14.321 37.6008L14.0202 37.0857Z" fill="#1F4C6B"/>
<path d="M21.5672 32.6876L20.7314 33.1748L21.0322 33.6899L21.8679 33.2027L21.5672 32.6876Z" fill="#1F4C6B"/>
<path d="M20.0564 33.5593L19.2207 34.0466L19.5215 34.5617L20.3572 34.0744L20.0564 33.5593Z" fill="#1F4C6B"/>
<path d="M18.5359 34.4252L17.7002 34.9124L18.0009 35.4274L18.8366 34.9402L18.5359 34.4252Z" fill="#1F4C6B"/>
<path d="M26.0574 30.0331L25.2217 30.5203L25.5224 31.0353L26.3581 30.5481L26.0574 30.0331Z" fill="#1F4C6B"/>
<path d="M24.5491 30.9304L23.7134 31.4177L24.0142 31.9328L24.8498 31.4455L24.5491 30.9304Z" fill="#1F4C6B"/>
<path d="M23.0789 31.8006L22.2432 32.2878L22.5439 32.803L23.3797 32.3158L23.0789 31.8006Z" fill="#1F4C6B"/>
<path d="M30.5818 27.3949L29.7461 27.8821L30.0468 28.3971L30.8825 27.91L30.5818 27.3949Z" fill="#1F4C6B"/>
<path d="M29.074 28.2755L28.2383 28.7627L28.539 29.2777L29.3747 28.7905L29.074 28.2755Z" fill="#1F4C6B"/>
<path d="M27.5809 29.1769L26.7451 29.6641L27.0458 30.1792L27.8816 29.692L27.5809 29.1769Z" fill="#1F4C6B"/>
<path d="M35.117 24.7738L34.2812 25.261L34.582 25.7761L35.4177 25.2889L35.117 24.7738Z" fill="#1F4C6B"/>
<path d="M33.6131 25.6525L32.7773 26.1396L33.0781 26.6548L33.9138 26.1676L33.6131 25.6525Z" fill="#1F4C6B"/>
<path d="M32.1141 26.5199L31.2783 27.0071L31.579 27.5222L32.4148 27.035L32.1141 26.5199Z" fill="#1F4C6B"/>
<path d="M39.6135 22.1345L38.7778 22.6218L39.0786 23.1369L39.9143 22.6496L39.6135 22.1345Z" fill="#1F4C6B"/>
<path d="M38.1116 22.9945L37.2759 23.4817L37.5766 23.9967L38.4123 23.5095L38.1116 22.9945Z" fill="#1F4C6B"/>
<path d="M36.6311 23.8755L35.7954 24.3628L36.0962 24.8778L36.9318 24.3906L36.6311 23.8755Z" fill="#1F4C6B"/>
<path d="M6.29541 38.278V37.2335L6.86196 37.5459L41.2751 17.6724L87.4687 44.3494L88.3869 43.8223V44.8765L53.5732 64.9843C53.0165 65.3064 52.3229 65.3064 51.7564 64.9843L6.6666 38.9417C6.41263 38.7953 6.29541 38.5415 6.29541 38.278Z" fill="#1F4C6B"/>
<path d="M6.6666 37.8876L38.6964 56.3849L45.2508 60.1722L51.7466 63.9204C52.3131 64.2425 52.9969 64.2425 53.5635 63.9204L88.3771 43.8126L42.0957 17.0868C41.5877 16.794 40.9528 16.794 40.4546 17.0868L6.6666 36.6089C6.16842 36.892 6.16842 37.6046 6.6666 37.8876Z" fill="#3178A8"/>
<path d="M82.455 45.788L81.6152 46.2683L81.9117 46.7859L82.7514 46.3056L82.455 45.788Z" fill="#49B6FF"/>
<path d="M83.9725 44.9264L83.1328 45.4067L83.4293 45.9243L84.269 45.444L83.9725 44.9264Z" fill="#49B6FF"/>
<path d="M85.4793 44.0384L84.6396 44.5188L84.9362 45.0363L85.7758 44.5559L85.4793 44.0384Z" fill="#49B6FF"/>
<path d="M77.9182 48.3763L77.0786 48.8567L77.3751 49.3742L78.2148 48.8938L77.9182 48.3763Z" fill="#49B6FF"/>
<path d="M79.428 47.5088L78.5884 47.9893L78.8849 48.5068L79.7245 48.0264L79.428 47.5088Z" fill="#49B6FF"/>
<path d="M80.9344 46.6664L80.0947 47.1467L80.3912 47.6643L81.2309 47.184L80.9344 46.6664Z" fill="#49B6FF"/>
<path d="M73.3837 50.9965L72.5439 51.4768L72.8404 51.9944L73.6802 51.5141L73.3837 50.9965Z" fill="#49B6FF"/>
<path d="M74.8905 50.1291L74.0508 50.6094L74.3473 51.1269L75.187 50.6466L74.8905 50.1291Z" fill="#49B6FF"/>
<path d="M76.4007 49.2619L75.561 49.7424L75.8576 50.26L76.6973 49.7794L76.4007 49.2619Z" fill="#49B6FF"/>
<path d="M68.845 53.5735L68.0054 54.054L68.3019 54.5715L69.1415 54.0911L68.845 53.5735Z" fill="#49B6FF"/>
<path d="M70.3548 52.7066L69.5151 53.187L69.8117 53.7045L70.6513 53.2241L70.3548 52.7066Z" fill="#49B6FF"/>
<path d="M71.8578 51.8664L71.0181 52.3467L71.3145 52.8642L72.1543 52.3839L71.8578 51.8664Z" fill="#49B6FF"/>
<path d="M64.2987 56.202L63.459 56.6824L63.7555 57.1999L64.5952 56.7196L64.2987 56.202Z" fill="#49B6FF"/>
<path d="M65.8114 55.3322L64.9717 55.8125L65.2682 56.3301L66.1079 55.8498L65.8114 55.3322Z" fill="#49B6FF"/>
<path d="M67.3172 54.4468L66.4775 54.9272L66.7741 55.4447L67.6137 54.9643L67.3172 54.4468Z" fill="#49B6FF"/>
<path d="M59.7586 58.7815L58.9189 59.262L59.2155 59.7795L60.0551 59.299L59.7586 58.7815Z" fill="#49B6FF"/>
<path d="M61.2761 57.9202L60.4365 58.4006L60.7331 58.9181L61.5727 58.4377L61.2761 57.9202Z" fill="#49B6FF"/>
<path d="M62.7733 57.0717L61.9336 57.552L62.2301 58.0696L63.0698 57.5893L62.7733 57.0717Z" fill="#49B6FF"/>
<path fill-rule="evenodd" clip-rule="evenodd" d="M55.2141 61.3923L55.5071 61.9097L54.6671 62.3977L54.374 61.8804L55.2141 61.3923Z" fill="#49B6FF"/>
<path d="M56.726 60.5375L55.8862 61.0178L56.1827 61.5354L57.0224 61.0551L56.726 60.5375Z" fill="#49B6FF"/>
<path d="M58.2122 59.664L57.3726 60.1443L57.669 60.6618L58.5087 60.1815L58.2122 59.664Z" fill="#49B6FF"/>
<path d="M49.8061 60.8098L49.5127 61.3291L50.3552 61.8045L50.6486 61.2852L49.8061 60.8098Z" fill="#49B6FF"/>
<path fill-rule="evenodd" clip-rule="evenodd" d="M52.1375 62.1045L51.9421 62.6707C51.7761 62.6023 51.61 62.5145 51.4537 62.4266L51.0239 62.1826L51.317 61.6653C51.61 61.8215 51.864 61.9874 52.1375 62.1045Z" fill="#49B6FF"/>
<path fill-rule="evenodd" clip-rule="evenodd" d="M53.72 62.1826L53.8665 62.7585C53.5148 62.8659 53.1436 62.8952 52.7822 62.8659L52.8311 62.2705C53.1241 62.2997 53.4269 62.2607 53.72 62.1826Z" fill="#49B6FF"/>
<path d="M45.2349 58.2422L44.9414 58.7615L45.7838 59.237L46.0773 58.7177L45.2349 58.2422Z" fill="#49B6FF"/>
<path d="M46.7485 59.1018L46.4551 59.6211L47.2976 60.0964L47.591 59.5771L46.7485 59.1018Z" fill="#49B6FF"/>
<path d="M48.2842 59.9458L47.9907 60.4651L48.8332 60.9405L49.1267 60.4212L48.2842 59.9458Z" fill="#49B6FF"/>
<path d="M40.6948 55.6523L40.4014 56.1716L41.2439 56.647L41.5373 56.1277L40.6948 55.6523Z" fill="#49B6FF"/>
<path d="M42.1933 56.5227L41.8999 57.042L42.7424 57.5173L43.0358 56.998L42.1933 56.5227Z" fill="#49B6FF"/>
<path d="M43.7129 57.3782L43.4194 57.8975L44.2619 58.373L44.5554 57.8537L43.7129 57.3782Z" fill="#49B6FF"/>
<path d="M36.1435 53.0867L35.8501 53.606L36.6926 54.0813L36.9861 53.562L36.1435 53.0867Z" fill="#49B6FF"/>
<path d="M37.6464 53.9223L37.353 54.4417L38.1955 54.9169L38.4889 54.3976L37.6464 53.9223Z" fill="#49B6FF"/>
<path d="M39.1534 54.8074L38.8599 55.3267L39.7023 55.8021L39.9958 55.2829L39.1534 54.8074Z" fill="#49B6FF"/>
<path d="M31.578 50.4961L31.2847 51.0154L32.1272 51.4907L32.4206 50.9714L31.578 50.4961Z" fill="#49B6FF"/>
<path d="M33.0863 51.3769L32.793 51.8962L33.6355 52.3715L33.9289 51.8522L33.0863 51.3769Z" fill="#49B6FF"/>
<path d="M34.6133 52.2175L34.3198 52.7368L35.1624 53.2122L35.4558 52.6929L34.6133 52.2175Z" fill="#49B6FF"/>
<path d="M27.0141 47.9372L26.7207 48.4565L27.5632 48.9318L27.8566 48.4125L27.0141 47.9372Z" fill="#49B6FF"/>
<path d="M28.5493 48.7886L28.2559 49.3079L29.0984 49.7832L29.3918 49.2639L28.5493 48.7886Z" fill="#49B6FF"/>
<path d="M30.042 49.6485L29.7485 50.1677L30.591 50.6432L30.8844 50.124L30.042 49.6485Z" fill="#49B6FF"/>
<path d="M22.4535 45.3664L22.1602 45.8857L23.0027 46.361L23.2961 45.8417L22.4535 45.3664Z" fill="#49B6FF"/>
<path d="M23.9781 46.2193L23.6846 46.7385L24.527 47.214L24.8205 46.6948L23.9781 46.2193Z" fill="#49B6FF"/>
<path d="M25.4815 47.0777L25.188 47.5969L26.0304 48.0724L26.3239 47.5532L25.4815 47.0777Z" fill="#49B6FF"/>
<path d="M17.9076 42.7676L17.6143 43.2869L18.4568 43.7622L18.7501 43.2429L17.9076 42.7676Z" fill="#49B6FF"/>
<path d="M19.4336 43.6391L19.1401 44.1584L19.9826 44.6338L20.2761 44.1145L19.4336 43.6391Z" fill="#49B6FF"/>
<path d="M20.9321 44.5022L20.6387 45.0215L21.4812 45.4968L21.7746 44.9775L20.9321 44.5022Z" fill="#49B6FF"/>
<path d="M13.3432 40.2077L13.0498 40.7271L13.8923 41.2024L14.1857 40.683L13.3432 40.2077Z" fill="#49B6FF"/>
<path d="M14.8784 41.0605L14.585 41.5798L15.4275 42.0552L15.7209 41.5359L14.8784 41.0605Z" fill="#49B6FF"/>
<path d="M16.3769 41.9228L16.0835 42.4421L16.926 42.9174L17.2194 42.3981L16.3769 41.9228Z" fill="#49B6FF"/>
<path fill-rule="evenodd" clip-rule="evenodd" d="M9.85094 38.2194L9.11833 38.3854C8.98158 38.2878 8.84482 38.2097 8.7276 38.0925C8.61039 37.9754 8.52247 37.8192 8.47363 37.6533L9.21601 37.6045C9.26485 37.7509 9.35277 37.8778 9.46022 37.9754C9.57743 38.0828 9.71419 38.1414 9.85094 38.2194Z" fill="#49B6FF"/>
<path fill-rule="evenodd" clip-rule="evenodd" d="M11.2577 39.0198L10.6912 39.3907C10.3688 39.215 10.0562 39.0296 9.77295 38.8343L10.4665 38.5806L11.2577 39.0198Z" fill="#49B6FF"/>
<path fill-rule="evenodd" clip-rule="evenodd" d="M12.6741 39.8203L12.3811 40.3377L11.4434 39.8106L11.8732 39.3616L12.6741 39.8203Z" fill="#49B6FF"/>
<path fill-rule="evenodd" clip-rule="evenodd" d="M12.0094 35.1934L11.6187 34.7444L12.5173 34.2173L12.8201 34.7248L12.0094 35.1934Z" fill="#49B6FF"/>
<path fill-rule="evenodd" clip-rule="evenodd" d="M10.6125 36.0133L9.92871 35.74C10.2218 35.5448 10.5441 35.3593 10.8567 35.1836L11.3842 35.5643L10.6125 36.0133Z" fill="#49B6FF"/>
<path fill-rule="evenodd" clip-rule="evenodd" d="M9.29414 36.9113L8.55176 36.843C8.70805 36.5306 9.01086 36.3939 9.26483 36.189L9.99744 36.3647C9.75324 36.5306 9.44066 36.638 9.29414 36.9113Z" fill="#49B6FF"/>
<path d="M17.0334 31.573L16.1978 32.0603L16.4985 32.5753L17.3342 32.0881L17.0334 31.573Z" fill="#49B6FF"/>
<path d="M15.5144 32.4612L14.6787 32.9485L14.9795 33.4635L15.8151 32.9762L15.5144 32.4612Z" fill="#49B6FF"/>
<path d="M14.0383 33.325L13.2026 33.8123L13.5034 34.3273L14.3391 33.84L14.0383 33.325Z" fill="#49B6FF"/>
<path d="M21.5471 28.9259L20.7114 29.4131L21.0121 29.9282L21.8478 29.441L21.5471 28.9259Z" fill="#49B6FF"/>
<path d="M20.0564 29.811L19.2207 30.2983L19.5215 30.8134L20.3572 30.3261L20.0564 29.811Z" fill="#49B6FF"/>
<path d="M18.5359 30.6766L17.7002 31.1638L18.0009 31.6789L18.8366 31.1917L18.5359 30.6766Z" fill="#49B6FF"/>
<path d="M26.077 26.2975L25.2412 26.7847L25.5419 27.2998L26.3777 26.8126L26.077 26.2975Z" fill="#49B6FF"/>
<path d="M24.5661 27.1694L23.7305 27.6567L24.0312 28.1718L24.8669 27.6845L24.5661 27.1694Z" fill="#49B6FF"/>
<path d="M23.0789 28.0519L22.2432 28.5391L22.5439 29.0542L23.3797 28.567L23.0789 28.0519Z" fill="#49B6FF"/>
<path d="M30.5818 23.6471L29.7461 24.1343L30.0468 24.6493L30.8825 24.1621L30.5818 23.6471Z" fill="#49B6FF"/>
<path d="M29.0744 24.5277L28.2388 25.0149L28.5395 25.5299L29.3752 25.0428L29.0744 24.5277Z" fill="#49B6FF"/>
<path d="M27.5726 25.4192L26.7368 25.9062L27.0375 26.4214L27.8732 25.9343L27.5726 25.4192Z" fill="#49B6FF"/>
<path d="M35.0969 21.0135L34.2612 21.5007L34.5619 22.0158L35.3976 21.5286L35.0969 21.0135Z" fill="#49B6FF"/>
<path d="M33.6121 21.9039L32.7764 22.3911L33.0771 22.9062L33.9129 22.419L33.6121 21.9039Z" fill="#49B6FF"/>
<path d="M32.094 22.7596L31.2583 23.2468L31.559 23.7619L32.3947 23.2747L32.094 22.7596Z" fill="#49B6FF"/>
<path d="M39.6291 18.3728L38.7935 18.8601L39.0942 19.3752L39.9299 18.8879L39.6291 18.3728Z" fill="#49B6FF"/>
<path d="M38.112 19.246L37.2764 19.7332L37.5771 20.2482L38.4128 19.761L38.112 19.246Z" fill="#49B6FF"/>
<path d="M36.6311 20.1267L35.7954 20.614L36.0962 21.1291L36.9318 20.6418L36.6311 20.1267Z" fill="#49B6FF"/>
<path fill-rule="evenodd" clip-rule="evenodd" d="M38.6963 56.3847L45.2507 60.172L59.688 51.836C59.8736 51.7287 59.8736 51.4554 59.688 51.348L53.7783 47.9414C53.6318 47.8535 53.456 47.8535 53.3094 47.9414L38.6963 56.3847Z" fill="#969696"/>
<path d="M34.4961 58.8149L35.0333 59.1273L41.0603 62.6022L41.5487 62.1825L42.4962 60.8062L43.2484 59.9277L37.3972 56.5504L36.6842 56.1404C35.7562 56.6675 34.9161 57.6924 34.4961 58.8149Z" fill="#3178A8"/>
<path d="M34.252 60.0546C34.252 60.4158 34.3301 60.7477 34.4864 61.0307C34.6329 61.304 34.838 61.4993 35.0822 61.6164L41.5488 65.3451L40.9822 64.0664L41.0701 62.6022L35.0432 59.1273L34.5059 58.8149C34.3301 59.2542 34.252 59.6739 34.252 60.0546Z" fill="#1F4C6B"/>
<path d="M43.7174 64.2323L41.5684 63.0024L41.2852 63.1977L41.334 64.3007L41.9201 64.7009L42.9848 64.7887L43.7174 64.2323Z" fill="#3178A8"/>
<path d="M40.8066 63.8321C40.8066 64.1933 40.8848 64.5251 41.0411 64.8082C41.4709 65.6086 42.4184 65.7453 43.4733 65.1889L44.4892 64.6911L43.7175 64.2421L43.5906 64.3104C42.7603 64.7887 42.0081 64.7008 41.6858 64.0956C41.4709 63.6954 41.4709 63.2171 41.6858 62.6315C41.9691 61.8604 42.5747 61.1283 43.2389 60.7476L59.7373 51.2306C59.7959 51.1915 59.835 51.1329 59.835 51.0646V50.3618L59.0145 50.8401L43.2584 59.9375C42.3305 60.4645 41.4806 61.4797 41.0704 62.612C40.8946 63.0415 40.8066 63.4612 40.8066 63.8321Z" fill="#002D4D"/>
<path fill-rule="evenodd" clip-rule="evenodd" d="M58.9946 50.85L59.6686 51.2502L59.8249 51.0257V50.1863L59.1216 50.4303L59.0044 50.8207L58.9946 50.85Z" fill="#002D4D"/>
<path fill-rule="evenodd" clip-rule="evenodd" d="M59.6881 49.9422L53.7783 46.5356C53.6318 46.4478 53.456 46.4478 53.3095 46.5356L36.6841 56.1405L43.2483 59.9278L59.6978 50.4303C59.8737 50.3131 59.8737 50.0496 59.6881 49.9422Z" fill="#3B92CC"/>
<path fill-rule="evenodd" clip-rule="evenodd" d="M41.4611 60.6699L40.9922 60.299C41.0996 60.1428 41.2266 60.0256 41.3536 59.889C41.4708 59.7523 41.6174 59.6352 41.7541 59.5278L42.1351 59.9866C42.0081 60.0842 41.8811 60.1916 41.7834 60.3087C41.6662 60.4258 41.549 60.5332 41.4611 60.6699Z" fill="#3B92CC"/>
<path fill-rule="evenodd" clip-rule="evenodd" d="M40.7086 62.1926L40.1323 62.0461C40.1714 61.8704 40.2398 61.6947 40.2886 61.5288C40.3668 61.3629 40.4351 61.1969 40.5133 61.031L41.0408 61.3043C40.9724 61.4507 40.9138 61.5971 40.8454 61.7435C40.8063 61.89 40.7477 62.0364 40.7086 62.1926Z" fill="#3B92CC"/>
<path fill-rule="evenodd" clip-rule="evenodd" d="M40.5914 64.1642L40.0151 63.969C39.976 63.6078 39.9662 63.2467 39.9956 62.8855L40.5914 63.1198C40.5621 63.4419 40.5523 63.8518 40.5914 64.1642Z" fill="#3178A8"/>
<path fill-rule="evenodd" clip-rule="evenodd" d="M45.8863 57.8194L45.5933 57.302L46.4626 56.814L46.7557 57.3313L45.8863 57.8194Z" fill="#49B6FF"/>
<path fill-rule="evenodd" clip-rule="evenodd" d="M44.3136 58.7075L44.0303 58.1902L44.8996 57.6924L45.1927 58.2195L44.3136 58.7075Z" fill="#49B6FF"/>
<path fill-rule="evenodd" clip-rule="evenodd" d="M42.7701 59.596L42.4673 59.0884C42.7701 58.9029 43.0534 58.7565 43.3464 58.5808L43.6395 59.0981C43.3464 59.2641 43.0338 59.4203 42.7701 59.596Z" fill="#49B6FF"/>
<path fill-rule="evenodd" clip-rule="evenodd" d="M50.5845 55.1643L50.3013 54.647L51.1706 54.1492L51.4637 54.6665L50.5845 55.1643Z" fill="#49B6FF"/>
<path fill-rule="evenodd" clip-rule="evenodd" d="M49.0216 56.0525L48.7285 55.5254L49.6076 55.0374L49.9007 55.5547L49.0216 56.0525Z" fill="#49B6FF"/>
<path fill-rule="evenodd" clip-rule="evenodd" d="M47.4586 56.9309L47.1753 56.4136L48.0447 55.9158L48.3377 56.4331L47.4586 56.9309Z" fill="#49B6FF"/>
<path fill-rule="evenodd" clip-rule="evenodd" d="M55.3615 52.4117L54.873 52.0018L55.635 51.5723L56.2992 51.8846L55.3615 52.4117Z" fill="#49B6FF"/>
<path fill-rule="evenodd" clip-rule="evenodd" d="M53.7301 53.3394L53.437 52.822L54.2673 52.3438L54.619 52.8318L53.7301 53.3394Z" fill="#49B6FF"/>
<path fill-rule="evenodd" clip-rule="evenodd" d="M52.1671 54.2178L51.874 53.7005L52.7434 53.2026L53.0364 53.7297L52.1671 54.2178Z" fill="#49B6FF"/>
<path fill-rule="evenodd" clip-rule="evenodd" d="M57.4222 49.3371L56.6994 49.5324L55.9766 49.1126L56.5236 48.7808L57.4222 49.3371Z" fill="#49B6FF"/>
<path fill-rule="evenodd" clip-rule="evenodd" d="M58.5457 50.4987L57.608 50.4596C57.735 50.3815 57.7545 50.1766 57.6373 50.079C57.5201 49.9911 57.3931 49.9325 57.2759 49.8642L58.1355 49.7764C58.282 49.874 58.4481 49.952 58.575 50.0594C58.702 50.1668 58.6825 50.4011 58.5457 50.4987Z" fill="#49B6FF"/>
<path fill-rule="evenodd" clip-rule="evenodd" d="M57.0412 51.4455L56.25 51.2308L57.0119 50.7915L57.891 50.9087L57.0412 51.4455Z" fill="#49B6FF"/>
<path fill-rule="evenodd" clip-rule="evenodd" d="M52.4206 47.7266L52.6355 48.283L51.815 48.7515L51.522 48.2341L52.4206 47.7266Z" fill="#49B6FF"/>
<path fill-rule="evenodd" clip-rule="evenodd" d="M54.1594 47.385L54.052 48C53.925 47.9316 53.8078 47.834 53.6515 47.834C53.505 47.8145 53.3584 47.8633 53.2412 47.9512L53.1631 47.3265C53.3096 47.2386 53.4854 47.18 53.671 47.1996C53.8566 47.1996 54.0031 47.2972 54.1594 47.385Z" fill="#49B6FF"/>
<path fill-rule="evenodd" clip-rule="evenodd" d="M55.8006 48.3413L55.3806 48.7708L54.6479 48.3413L54.8922 47.7947C55.2047 47.9704 55.4978 48.1558 55.8006 48.3413Z" fill="#49B6FF"/>
<path d="M47.699 50.3967L46.8228 50.8918L47.1165 51.411L47.9928 50.9159L47.699 50.3967Z" fill="#49B6FF"/>
<path d="M49.2714 49.5282L48.395 50.0232L48.6887 50.5424L49.5651 50.0474L49.2714 49.5282Z" fill="#49B6FF"/>
<path d="M50.8319 48.6395L49.9556 49.1345L50.2493 49.6537L51.1256 49.1587L50.8319 48.6395Z" fill="#49B6FF"/>
<path d="M42.9975 53.0729L42.1211 53.5679L42.4148 54.0871L43.2911 53.5921L42.9975 53.0729Z" fill="#49B6FF"/>
<path d="M44.5516 52.1795L43.6753 52.6746L43.969 53.1937L44.8453 52.6986L44.5516 52.1795Z" fill="#49B6FF"/>
<path d="M46.117 51.2993L45.2407 51.7944L45.5345 52.3136L46.4107 51.8185L46.117 51.2993Z" fill="#49B6FF"/>
<path fill-rule="evenodd" clip-rule="evenodd" d="M38.2864 55.7307L38.5794 56.2481C38.2864 56.414 38.0128 56.5799 37.6807 56.7459L37.417 56.209C37.6905 56.0626 37.9933 55.8869 38.2864 55.7307Z" fill="#49B6FF"/>
<path d="M39.8538 54.8411L38.9775 55.3362L39.2713 55.8553L40.1475 55.3602L39.8538 54.8411Z" fill="#49B6FF"/>
<path d="M41.4192 53.961L40.543 54.4561L40.8367 54.9752L41.713 54.4801L41.4192 53.961Z" fill="#49B6FF"/>
<path fill-rule="evenodd" clip-rule="evenodd" d="M34.8186 59.791L35.3754 60.1034C35.3461 60.2596 35.3558 60.201 35.3558 60.3572C35.3461 60.5134 35.2875 60.9233 35.2972 61.0893L34.7405 60.8355C34.7307 60.6598 34.7502 60.4938 34.76 60.3181C34.76 60.1327 34.7795 59.957 34.8186 59.791Z" fill="#3178A8"/>
<path fill-rule="evenodd" clip-rule="evenodd" d="M35.444 58.0339L35.9519 58.3365C35.7858 58.6001 35.6686 58.8832 35.5709 59.1662L35.0044 58.9808C35.1314 58.6586 35.2584 58.3365 35.444 58.0339Z" fill="#3B92CC"/>
<path fill-rule="evenodd" clip-rule="evenodd" d="M36.694 56.6479L37.0457 57.1263C36.8015 57.3117 36.5768 57.5167 36.3717 57.751L35.9224 57.3605C36.1568 57.097 36.4108 56.8529 36.694 56.6479Z" fill="#3B92CC"/>
<path fill-rule="evenodd" clip-rule="evenodd" d="M52.1571 51.3868C52.9386 51.8358 54.2084 51.8358 54.9997 51.377C55.7909 50.9182 55.7909 50.1862 55.0094 49.7372C54.228 49.2881 52.9581 49.2882 52.1669 49.7469C51.3757 50.2057 51.3757 50.9378 52.1571 51.3868Z" fill="#969696"/>
<path fill-rule="evenodd" clip-rule="evenodd" d="M52.1571 51.1236C52.9386 51.5726 54.2084 51.5726 54.9997 51.1138C55.7909 50.6551 55.7909 49.923 55.0094 49.474C54.228 49.025 52.9581 49.025 52.1669 49.4837C51.3757 49.9327 51.3757 50.6648 52.1571 51.1236Z" fill="#FD8701"/>
<path fill-rule="evenodd" clip-rule="evenodd" d="M52.4305 50.7917C53.0557 51.1529 54.0814 51.1529 54.7163 50.7917C55.3512 50.4306 55.3512 49.8352 54.7261 49.474C54.1009 49.1128 53.0752 49.1128 52.4403 49.474C51.8054 49.8449 51.8054 50.4306 52.4305 50.7917Z" fill="#FFA601"/>
<path fill-rule="evenodd" clip-rule="evenodd" d="M53.2513 50.5867C53.6323 50.8112 54.2574 50.8112 54.6482 50.5867C55.0389 50.3622 55.0389 50.001 54.6482 49.7765C54.2672 49.552 53.642 49.552 53.2513 49.7765C52.8703 50.001 52.8606 50.3622 53.2513 50.5867Z" fill="#FFDA80"/>
<path fill-rule="evenodd" clip-rule="evenodd" d="M14.9692 42.6706L21.5237 46.4579L35.961 38.122C36.1466 38.0146 36.1466 37.7413 35.961 37.6339L30.0513 34.2273C29.9047 34.1394 29.7289 34.1394 29.5824 34.2273L14.9692 42.6706Z" fill="#969696"/>
<path d="M10.769 45.091L11.3063 45.4034L17.3332 48.8783L17.8216 48.4586L18.7692 47.0823L19.5213 46.2038L13.6702 42.8265L12.9571 42.4165C12.0291 42.9534 11.1891 43.9685 10.769 45.091Z" fill="#3178A8"/>
<path d="M10.5249 46.331C10.5249 46.6921 10.603 47.024 10.7593 47.3071C10.9059 47.5804 11.111 47.7756 11.3552 47.8927L17.8217 51.6215L17.2552 50.3428L17.3431 48.8786L11.3161 45.4037L10.7789 45.0913C10.603 45.5403 10.5249 45.9601 10.5249 46.331Z" fill="#1F4C6B"/>
<path d="M19.9899 50.5182L17.8409 49.2786L17.5576 49.4835L17.6065 50.5768L18.1925 50.9868L19.2573 51.0746L19.9899 50.5182Z" fill="#3178A8"/>
<path d="M17.0791 50.118C17.0791 50.4791 17.1572 50.811 17.3135 51.0941C17.7433 51.8945 18.6908 52.0311 19.7458 51.4748L20.7617 50.9769L19.99 50.5279L19.863 50.5963C19.0327 51.0746 18.2806 50.9867 17.9582 50.3815C17.7433 49.9813 17.7433 49.503 17.9582 48.9174C18.2415 48.1462 18.8471 47.4142 19.5114 47.0335L36.0098 37.5165C36.0684 37.4774 36.1075 37.4188 36.1075 37.3505V36.6477L35.2869 37.126L19.5309 46.2233C18.6029 46.7504 17.7629 47.7753 17.3428 48.8978C17.167 49.3176 17.0791 49.7373 17.0791 50.118Z" fill="#002D4D"/>
<path fill-rule="evenodd" clip-rule="evenodd" d="M35.2676 37.1261L35.9416 37.5361L36.0979 37.3116V36.4624L35.3946 36.7064L35.2773 37.1066L35.2676 37.1261Z" fill="#002D4D"/>
<path fill-rule="evenodd" clip-rule="evenodd" d="M35.961 36.2281L30.0513 32.8215C29.9048 32.7337 29.7289 32.7337 29.5824 32.8215L12.957 42.4264L19.5212 46.2137L35.9708 36.7162C36.1466 36.599 36.1466 36.3355 35.961 36.2281Z" fill="#3B92CC"/>
<path fill-rule="evenodd" clip-rule="evenodd" d="M17.7335 46.9553L17.2646 46.5843C17.3721 46.4282 17.4991 46.311 17.6261 46.1744C17.7433 46.0377 17.8898 45.9206 18.0266 45.8132L18.4075 46.272C18.2805 46.3696 18.1535 46.477 18.0559 46.5941C17.9387 46.7112 17.8214 46.8186 17.7335 46.9553Z" fill="#3B92CC"/>
<path fill-rule="evenodd" clip-rule="evenodd" d="M16.9816 48.478L16.4053 48.3316C16.4443 48.1559 16.5127 47.9802 16.5616 47.8142C16.6299 47.6483 16.7081 47.4823 16.7862 47.3164L17.3137 47.5897C17.2453 47.7361 17.1867 47.8826 17.1183 48.029C17.0793 48.1754 17.0207 48.3218 16.9816 48.478Z" fill="#3B92CC"/>
<path fill-rule="evenodd" clip-rule="evenodd" d="M16.8644 50.4496L16.288 50.2544C16.249 49.8932 16.2392 49.5321 16.2685 49.1709L16.8644 49.4052C16.8351 49.7175 16.8253 50.1275 16.8644 50.4496Z" fill="#3178A8"/>
<path fill-rule="evenodd" clip-rule="evenodd" d="M22.1593 44.0564L21.8662 43.5391L22.7453 43.0413L23.0286 43.5586L22.1593 44.0564Z" fill="#49B6FF"/>
<path fill-rule="evenodd" clip-rule="evenodd" d="M20.5865 44.9444L20.3032 44.427L21.1726 43.9292L21.4656 44.4465L20.5865 44.9444Z" fill="#49B6FF"/>
<path fill-rule="evenodd" clip-rule="evenodd" d="M19.043 45.8328L18.7402 45.3252C19.043 45.1398 19.3263 44.9933 19.6194 44.8176L19.9124 45.335C19.6194 45.5009 19.3068 45.6571 19.043 45.8328Z" fill="#49B6FF"/>
<path fill-rule="evenodd" clip-rule="evenodd" d="M26.8575 41.3916L26.5742 40.8743L27.4436 40.3862L27.7366 40.9036L26.8575 41.3916Z" fill="#49B6FF"/>
<path fill-rule="evenodd" clip-rule="evenodd" d="M25.2945 42.2798L25.0015 41.7624L25.8806 41.2646L26.1736 41.782L25.2945 42.2798Z" fill="#49B6FF"/>
<path fill-rule="evenodd" clip-rule="evenodd" d="M23.7315 43.1682L23.4482 42.6411L24.3176 42.1531L24.6107 42.6704L23.7315 43.1682Z" fill="#49B6FF"/>
<path fill-rule="evenodd" clip-rule="evenodd" d="M31.6339 38.6976L31.1455 38.2876L31.9074 37.8582L32.5717 38.1607L31.6339 38.6976Z" fill="#49B6FF"/>
<path fill-rule="evenodd" clip-rule="evenodd" d="M30.003 39.6153L29.71 39.0979L30.5403 38.6294L30.8919 39.1174L30.003 39.6153Z" fill="#49B6FF"/>
<path fill-rule="evenodd" clip-rule="evenodd" d="M28.44 40.5037L28.147 39.9863L29.0163 39.4885L29.3094 40.0059L28.44 40.5037Z" fill="#49B6FF"/>
<path fill-rule="evenodd" clip-rule="evenodd" d="M33.6952 35.613L32.9724 35.8083L32.2495 35.3885L32.7965 35.0664L33.6952 35.613Z" fill="#49B6FF"/>
<path fill-rule="evenodd" clip-rule="evenodd" d="M34.8187 36.7841L33.8809 36.7451C34.0079 36.667 34.0275 36.462 33.9102 36.3644C33.793 36.2765 33.666 36.2179 33.5488 36.1496L34.4084 36.0618C34.5549 36.1594 34.721 36.2375 34.848 36.3448C34.975 36.4522 34.9554 36.6865 34.8187 36.7841Z" fill="#49B6FF"/>
<path fill-rule="evenodd" clip-rule="evenodd" d="M33.3142 37.7312L32.5229 37.5066L33.2849 37.0771L34.164 37.1943L33.3142 37.7312Z" fill="#49B6FF"/>
<path fill-rule="evenodd" clip-rule="evenodd" d="M28.6936 34.0024L28.9085 34.5686L28.088 35.0371L27.7949 34.5198L28.6936 34.0024Z" fill="#49B6FF"/>
<path fill-rule="evenodd" clip-rule="evenodd" d="M30.4324 33.6609L30.3249 34.2759C30.198 34.2075 30.0807 34.1197 29.9244 34.1099C29.7779 34.0904 29.6314 34.1392 29.5142 34.227L29.436 33.6023C29.5826 33.5145 29.7584 33.4559 29.944 33.4754C30.1296 33.4852 30.2761 33.5828 30.4324 33.6609Z" fill="#49B6FF"/>
<path fill-rule="evenodd" clip-rule="evenodd" d="M32.0735 34.6269L31.6535 35.0564L30.9209 34.6269L31.1651 34.0803C31.4777 34.256 31.7707 34.4415 32.0735 34.6269Z" fill="#49B6FF"/>
<path d="M23.97 36.6841L23.0938 37.1792L23.3875 37.6983L24.2638 37.2032L23.97 36.6841Z" fill="#49B6FF"/>
<path d="M25.5399 35.8048L24.6636 36.2998L24.9573 36.819L25.8336 36.324L25.5399 35.8048Z" fill="#49B6FF"/>
<path d="M27.0975 34.918L26.2212 35.4131L26.5149 35.9322L27.3912 35.4371L27.0975 34.918Z" fill="#49B6FF"/>
<path d="M19.2704 39.3578L18.394 39.8528L18.6877 40.372L19.5641 39.877L19.2704 39.3578Z" fill="#49B6FF"/>
<path d="M20.8226 38.4666L19.9463 38.9617L20.24 39.4808L21.1163 38.9857L20.8226 38.4666Z" fill="#49B6FF"/>
<path d="M22.3909 37.5842L21.5146 38.0793L21.8084 38.5985L22.6846 38.1034L22.3909 37.5842Z" fill="#49B6FF"/>
<path fill-rule="evenodd" clip-rule="evenodd" d="M14.5593 42.0063L14.8524 42.5237C14.5593 42.6896 14.2858 42.8458 13.9537 43.0215L13.6899 42.4847C13.9634 42.348 14.2663 42.1723 14.5593 42.0063Z" fill="#49B6FF"/>
<path d="M16.134 41.1093L15.2578 41.6045L15.5516 42.1236L16.4278 41.6284L16.134 41.1093Z" fill="#49B6FF"/>
<path d="M17.6897 40.2206L16.8135 40.7156L17.1071 41.2347L17.9834 40.7397L17.6897 40.2206Z" fill="#49B6FF"/>
<path fill-rule="evenodd" clip-rule="evenodd" d="M11.0915 46.0769L11.6483 46.3893C11.619 46.5454 11.6288 46.4869 11.6288 46.643C11.619 46.7992 11.5604 47.2092 11.5702 47.3751L11.0134 47.1213C11.0036 46.9456 11.0232 46.7797 11.0329 46.604C11.0329 46.4185 11.0525 46.2428 11.0915 46.0769Z" fill="#3178A8"/>
<path fill-rule="evenodd" clip-rule="evenodd" d="M11.7169 44.3198L12.2249 44.6224C12.0588 44.886 11.9416 45.169 11.8439 45.4521L11.2773 45.2666C11.4043 44.9445 11.5313 44.6127 11.7169 44.3198Z" fill="#3B92CC"/>
<path fill-rule="evenodd" clip-rule="evenodd" d="M12.967 42.9338L13.3186 43.4121C13.0744 43.5976 12.8498 43.8026 12.6446 44.0368L12.1953 43.6464C12.4297 43.3829 12.6837 43.1388 12.967 42.9338Z" fill="#3B92CC"/>
<path fill-rule="evenodd" clip-rule="evenodd" d="M28.4301 37.6531C29.2115 38.1021 30.4814 38.1021 31.2726 37.6434C32.0638 37.1846 32.0638 36.4525 31.2824 36.0035C30.5009 35.5545 29.2311 35.5545 28.4399 36.0133C27.6486 36.4623 27.6486 37.2041 28.4301 37.6531Z" fill="#969696"/>
<path fill-rule="evenodd" clip-rule="evenodd" d="M28.4301 37.3995C29.2115 37.8485 30.4814 37.8485 31.2726 37.3897C32.0638 36.9309 32.0638 36.1989 31.2824 35.7499C30.5009 35.3009 29.2311 35.3008 28.4399 35.7596C27.6486 36.2184 27.6486 36.9504 28.4301 37.3995Z" fill="#FD8701"/>
<path fill-rule="evenodd" clip-rule="evenodd" d="M28.7035 37.0771C29.3287 37.4383 30.3543 37.4383 30.9892 37.0771C31.6242 36.716 31.6242 36.1206 30.999 35.7594C30.3738 35.3982 29.3482 35.3982 28.7133 35.7594C28.0783 36.1206 28.0783 36.716 28.7035 37.0771Z" fill="#FFA601"/>
<path fill-rule="evenodd" clip-rule="evenodd" d="M29.5243 36.8724C29.9052 37.0969 30.5304 37.0969 30.9211 36.8724C31.3118 36.6479 31.3118 36.2867 30.9211 36.0622C30.5401 35.8377 29.915 35.8377 29.5243 36.0622C29.1433 36.2867 29.1335 36.6479 29.5243 36.8724Z" fill="#FFDA80"/>
<path opacity="0.3" d="M49.8128 24.7444L20.5474 41.631L20.4595 41.5822L49.7248 24.6956L49.8128 24.7444ZM54.394 27.3896L25.1286 44.2763L25.2166 44.3251L54.4819 27.4384L54.394 27.3896ZM59.0632 30.0837L29.7978 46.9703L29.8857 47.0191L59.1511 30.1325L59.0632 30.0837ZM63.7226 32.768L34.4572 49.6546L34.5451 49.7034L63.8105 32.8168L63.7226 32.768ZM68.3918 35.462L39.1264 52.3487L39.2143 52.3975L68.4797 35.5108L68.3918 35.462ZM73.0609 38.1561L43.7956 55.0427L43.8835 55.0915L73.1489 38.2049L73.0609 38.1561ZM77.7301 40.8501L48.4648 57.7368L48.5527 57.7856L77.818 40.8989L77.7301 40.8501ZM82.3895 43.5442L53.1339 60.4211L53.2218 60.4699L82.4872 43.5832L82.3895 43.5442Z" fill="#83898E"/>
<path opacity="0.5" d="M66.4869 40.9867L70.8728 43.5148L70.9997 43.4465C71.4198 43.2025 72.1036 43.2025 72.5236 43.4465L82.6141 49.2641C82.6336 49.2543 82.6336 52.1729 82.6336 52.1729L77.2904 55.2574V52.3388C77.2709 52.3486 67.1902 46.531 67.1902 46.531C66.7701 46.287 66.7701 45.8965 67.1902 45.6525L67.3172 45.5842L62.9313 43.0561C54.4916 46.9019 42.1642 46.5798 34.3399 42.0702C25.9002 37.1994 25.8514 29.2734 34.2422 24.4027C37.6904 22.4016 42.0274 21.2401 46.5305 20.8789L47.3315 21.3474C42.7796 21.6207 38.3546 22.7628 34.8869 24.7833C26.8575 29.4491 26.8966 37.0432 34.9846 41.709C43.0726 46.3748 56.1815 46.3748 64.2207 41.709C67.6884 39.6885 69.6517 37.1311 70.1109 34.4956L70.9216 34.9641C70.4039 37.092 68.9387 39.1907 66.4869 40.9867Z" fill="white"/>
<path d="M70.2079 17.697L70.1982 22.1481C70.2079 19.0636 68.1762 15.9791 64.1028 13.6267C56.0148 8.96087 42.8962 8.96087 34.8668 13.6267C30.8716 15.94 28.8789 18.9855 28.8691 22.0309L28.8789 17.5799C28.8887 14.5344 30.8814 11.4987 34.8766 9.17561C42.9157 4.50982 56.0246 4.50982 64.1126 9.17561C68.1762 11.528 70.2177 14.6125 70.2079 17.697Z" fill="url(#paint0_linear_1177_346779)"/>
<path d="M34.8769 11.8502C42.916 7.18442 56.0249 7.18442 64.1129 11.8502C67.8444 14.0074 69.8566 16.7796 70.1594 19.6005C70.5111 16.2817 68.4988 12.8946 64.1129 10.3665C56.0249 5.70074 42.9063 5.70074 34.8769 10.3665C30.5496 12.8751 28.5764 16.2329 28.9281 19.5322C29.2113 16.7405 31.1943 13.9879 34.8769 11.8502Z" fill="#217ED2"/>
<path opacity="0.3" d="M64.1127 11.8499C56.0247 7.18414 42.9061 7.18414 34.8767 11.8499C26.8472 16.5157 26.8863 24.1098 34.9743 28.7756C43.0624 33.4414 56.1712 33.4414 64.2104 28.7756C72.2398 24.1098 72.2007 16.5157 64.1127 11.8499Z" fill="#84C7EF"/>
<path d="M71.1166 17.697L71.1069 22.148C71.0971 25.3301 69.0165 28.5025 64.8455 30.9232C56.4644 35.794 42.7695 35.794 34.32 30.9232C30.0709 28.4732 27.9512 25.2423 27.961 22.0309L27.9707 17.5798C27.961 20.801 30.0807 24.0221 34.3298 26.4722C42.7695 31.3429 56.4644 31.3429 64.8553 26.4722C69.0165 24.0514 71.1069 20.8791 71.1166 17.697Z" fill="url(#paint1_linear_1177_346779)"/>
<path d="M64.7574 8.80445C73.1971 13.6752 73.2459 21.6012 64.8551 26.472C56.474 31.3427 42.7791 31.3427 34.3296 26.472C25.89 21.6012 25.8411 13.6752 34.232 8.80445C42.613 3.93367 56.308 3.93367 64.7574 8.80445ZM34.9743 26.1011C43.0624 30.7668 56.1712 30.7668 64.2104 26.1011C72.2496 21.4353 72.2007 13.8412 64.1225 9.17537C56.0345 4.50958 42.9158 4.50958 34.8864 9.17537C26.8375 13.8412 26.8863 21.4353 34.9743 26.1011Z" fill="#EFEAE5"/>
<path d="M66.0955 26.6382C65.7829 26.4528 65.3433 26.4723 64.8549 26.7554C63.8977 27.3117 63.126 28.649 63.126 29.752C63.126 30.2986 63.3116 30.6793 63.6242 30.8648L69.2311 34.1054L71.7024 29.8789L66.0955 26.6382Z" fill="#D2CDC9"/>
<path d="M73.0604 28.6682C72.5231 28.3461 71.7808 28.3852 70.9505 28.8635C69.3192 29.8005 68.0005 32.0944 68.0005 33.9685C68.0005 34.8958 68.3228 35.5498 68.8503 35.8621L89.9398 48.0342L94.1498 40.8305L73.0604 28.6682Z" fill="url(#paint2_linear_1177_346779)"/>
<path d="M89.0996 46.1407C89.0996 48.0245 90.4183 48.7859 92.0496 47.8391C93.6809 46.902 94.9996 44.6082 94.9996 42.734C94.9996 41.4944 94.433 40.7428 93.5734 40.6452C93.1241 40.5866 92.6064 40.7135 92.0496 41.0356C90.4183 41.9727 89.0996 44.2665 89.0996 46.1407Z" fill="#261E22"/>
<path opacity="0.5" d="M89.0998 46.1407C89.8422 42.5291 92.2647 40.6257 93.5736 40.6452C91.8935 40.0596 88.7286 43.0757 89.0998 46.1407Z" fill="url(#paint3_radial_1177_346779)"/>
<defs>
<linearGradient id="paint0_linear_1177_346779" x1="28.8638" y1="13.917" x2="70.2044" y2="13.917" gradientUnits="userSpaceOnUse">
<stop stop-color="#E1DDD9"/>
<stop offset="1" stop-color="#D2CDC9"/>
</linearGradient>
<linearGradient id="paint1_linear_1177_346779" x1="27.9549" y1="26.0804" x2="71.1139" y2="26.0804" gradientUnits="userSpaceOnUse">
<stop stop-color="#D2CDC9"/>
<stop offset="1" stop-color="#E1DDD9"/>
</linearGradient>
<linearGradient id="paint2_linear_1177_346779" x1="82.557" y1="34.1472" x2="78.3871" y2="41.3749" gradientUnits="userSpaceOnUse">
<stop stop-color="#3F3434"/>
<stop offset="1" stop-color="#30262C"/>
</linearGradient>
<radialGradient id="paint3_radial_1177_346779" cx="0" cy="0" r="1" gradientUnits="userSpaceOnUse" gradientTransform="translate(92.7502 40.5759) scale(7.26056 7.2553)">
<stop stop-color="#FFB8F4"/>
<stop offset="0.00738025" stop-color="#F6B1EB"/>
<stop offset="0.0477" stop-color="#C890BF"/>
<stop offset="0.0931" stop-color="#9D7196"/>
<stop offset="0.1419" stop-color="#775672"/>
<stop offset="0.195" stop-color="#573E53"/>
<stop offset="0.2537" stop-color="#3B2B39"/>
<stop offset="0.32" stop-color="#251B24"/>
<stop offset="0.3974" stop-color="#140F14"/>
<stop offset="0.4931" stop-color="#090608"/>
<stop offset="0.6274" stop-color="#020102"/>
<stop offset="1"/>
</radialGradient>
</defs>
</svg>
