<svg width="100" height="79" viewBox="0 0 100 79" fill="none" xmlns="http://www.w3.org/2000/svg">
<path d="M59.7558 67.035H55.2324L2 36.6819L22.3503 25.4067L59.7558 67.035Z" fill="#B3B3B3"/>
<path d="M59.7557 54.9716L94.7147 34.7861L43.3996 5.15137L8.44055 25.3369L59.7557 54.9716Z" fill="#F2F2F2"/>
<path d="M59.8855 17.5739L64.8383 20.2879L86.966 33.0597L57.459 50.1022L30.1189 34.1573L59.8855 17.5739Z" fill="#33AFCB"/>
<path d="M59.7557 67.0348V54.9714L94.7147 34.7859V46.8493L59.7557 67.0348Z" fill="#E6E6E6"/>
<path d="M8.44055 25.3368V37.4002L59.7557 67.0349V54.9715L8.44055 25.3368Z" fill="#CCCCCC"/>
<path d="M66.3161 55.2709L59.7557 58.4544L53.4648 54.9716L59.7557 59.4624L66.3161 55.2709Z" fill="#B3B3B3"/>
<path d="M63.5502 62.8045L59.7458 64.6407L56.1011 62.6249L59.7458 65.2295L63.5502 62.8045Z" fill="#B3B3B3"/>
<path d="M94.7148 38.1487L90.1315 41.0028L94.7148 38.6576V38.1487Z" fill="#B3B3B3"/>
<path d="M94.7147 44.9835L88.2142 49.0153L94.7147 45.6921V44.9835Z" fill="#B3B3B3"/>
<path d="M56.8 58.7632L8.44055 31.2338V29.9467L6.43347 31.0043L56.8 58.7632Z" fill="#F2F2F2"/>
<path d="M56.8 58.7632L8.44055 32.9601V32.1119L56.8 58.7632Z" fill="#B3B3B3"/>
<path d="M68.2434 56.9973L94.7148 41.5313V39.1067L98 40.6034L68.2434 56.9973Z" fill="#F2F2F2"/>
<path d="M70.9594 55.5003L94.7147 43.0977V42.4092L70.9594 55.5003Z" fill="#B3B3B3"/>
<path d="M17.9268 22.9021L40.3741 9.94064L39.9547 9.70117L17.5074 22.6626L17.9268 22.9021Z" fill="#613942"/>
<path d="M20.2933 24.2791L42.7406 11.3077L42.3211 11.0682L19.8739 24.0297L20.2933 24.2791Z" fill="#613942"/>
<path d="M22.2305 21.7846L38.4369 12.4253L38.0175 12.1858L21.8112 21.5452L22.2305 21.7846Z" fill="#613942"/>
<path d="M50.2396 15.6187L54.5633 13.1238C53.375 12.4353 51.8173 12.0959 50.2596 12.0959L50.2396 15.6187Z" fill="#E8DBCB"/>
<path d="M43.7791 15.6286L49.8701 15.6186L45.5764 13.1337C44.3782 13.8322 43.7791 14.7304 43.7791 15.6286Z" fill="#613942"/>
<path d="M50.3594 15.7876L54.6531 18.2725C55.8414 17.5839 56.4505 16.6857 56.4505 15.7776L50.3594 15.7876Z" fill="#613942"/>
<path d="M50.1897 19.3603C51.7474 19.3603 53.3151 19.011 54.5034 18.3224L50.2097 15.8375L50.1897 19.3603Z" fill="#839973"/>
<path d="M45.7362 18.3125C46.9245 19.0011 48.4822 19.3404 50.0399 19.3304L50.0599 15.8176L45.7362 18.3125Z" fill="#E8DBCB"/>
<path d="M45.5765 18.2225L49.9002 15.7277L43.8091 15.7376C43.8091 15.7476 43.8091 15.7676 43.8091 15.7776C43.8091 15.7875 43.8091 15.8075 43.8091 15.8175C43.8091 15.8574 43.8091 15.9073 43.819 15.9472C43.819 15.9871 43.829 16.027 43.829 16.0769C43.839 16.1368 43.849 16.1867 43.859 16.2466C43.889 16.3564 43.9189 16.4661 43.9689 16.5759C44.0188 16.6857 44.0687 16.7955 44.1386 16.8953C44.2085 17.005 44.2784 17.1048 44.3583 17.2046C44.3583 17.2146 44.3682 17.2146 44.3782 17.2246C44.4082 17.2545 44.4382 17.2945 44.4681 17.3244C44.4681 17.3344 44.4681 17.3344 44.4781 17.3344C44.518 17.3743 44.558 17.4242 44.6079 17.4641C44.6578 17.504 44.6978 17.5539 44.7477 17.5938C44.7976 17.6338 44.8476 17.6737 44.8975 17.7236C44.9474 17.7635 44.9973 17.8034 45.0573 17.8433C45.1371 17.9032 45.227 17.9631 45.3169 18.023C45.3967 18.1128 45.4866 18.1727 45.5765 18.2225Z" fill="#E2B9B3"/>
<path d="M44.0487 15.678C44.0487 15.688 44.0487 15.708 44.0487 15.718C44.0587 15.708 44.0587 15.698 44.0487 15.678Z" fill="#E6E6E6"/>
<path d="M50.3794 15.6685L56.4705 15.6585C56.4705 14.7603 55.8814 13.8622 54.7031 13.1736L50.3794 15.6685Z" fill="#E2B9B3"/>
<path d="M45.7561 13.1039L50.0499 15.5888L50.0698 12.066C48.5121 12.066 46.9444 12.4153 45.7561 13.1039Z" fill="#839973"/>
<path d="M35.1017 21.1764L42.0216 17.1846L41.5623 16.9152L34.6423 20.917L35.1017 21.1764Z" fill="#839973"/>
<path d="M20.8624 29.3976L34.2728 21.6547L33.8135 21.3953L20.4031 29.1282L20.8624 29.3976Z" fill="#839973"/>
<path d="M37.0388 22.3038L43.9587 18.3019L43.4994 18.0425L36.5795 22.0343L37.0388 22.3038Z" fill="#E2B9B3"/>
<path d="M22.8096 30.5249L36.22 22.782L35.7607 22.5126L22.3502 30.2555L22.8096 30.5249Z" fill="#E2B9B3"/>
<path d="M38.9861 23.4215L45.906 19.4297L45.4466 19.1603L38.5267 23.1621L38.9861 23.4215Z" fill="#613942"/>
<path d="M24.7468 31.6427L38.1573 23.8998L37.6979 23.6304L24.2875 31.3733L24.7468 31.6427Z" fill="#613942"/>
<path d="M40.9331 24.5491L47.853 20.5473L47.3937 20.2878L40.4738 24.2797L40.9331 24.5491Z" fill="#E8DBCB"/>
<path d="M26.6939 32.7602L40.1044 25.0272L39.6451 24.7578L26.2346 32.5008L26.6939 32.7602Z" fill="#E8DBCB"/>
<path d="M74.684 42.8689L75.1133 43.1184L82.173 39.0467L81.7437 38.7972L74.684 42.8689Z" fill="#E2B9B3"/>
<path d="M67.2847 47.1394L67.7141 47.3889L75.1132 43.1177L74.6839 42.8682L67.2847 47.1394Z" fill="#839973"/>
<path d="M59.8756 51.4203L60.315 51.6698L67.7142 47.3885L67.2848 47.139L59.8756 51.4203Z" fill="#E8DBCB"/>
<path d="M81.7437 38.798L82.173 39.0474L89.9117 34.5666L89.4824 34.3171L81.7437 38.798Z" fill="#613942"/>
<path d="M86.936 33.0596L64.8183 20.2877L69.2518 32.7303L61.8825 31.1737L65.7269 39.1063L59.486 38.6074L61.3433 44.1751L43.2297 41.8802L57.439 50.102L86.936 33.0596Z" fill="#1E2D56"/>
<path d="M42.0216 38.4681C42.6307 38.1188 43.6192 38.1088 44.2184 38.4581C44.8275 38.8074 44.8175 39.3762 44.2084 39.7255C43.5993 40.0748 42.6207 40.0748 42.0116 39.7255C41.4024 39.3862 41.4124 38.8173 42.0216 38.4681ZM44.0386 39.6357C44.5578 39.3363 44.5578 38.8573 44.0386 38.5579C43.5293 38.2685 42.7006 38.2685 42.1813 38.5579C41.6721 38.8573 41.6621 39.3363 42.1713 39.6257C42.6906 39.9351 43.5293 39.9251 44.0386 39.6357Z" fill="white"/>
<path d="M42.0216 38.4681C42.6307 38.1188 43.6192 38.1088 44.2184 38.4581C44.8275 38.8074 44.8175 39.3762 44.2084 39.7255C43.5993 40.0748 42.6207 40.0748 42.0116 39.7255C41.4024 39.3862 41.4124 38.8173 42.0216 38.4681Z" fill="#613942"/>
<path d="M42.0216 38.4681C42.6307 38.1188 43.6192 38.1088 44.2184 38.4581C44.8275 38.8074 44.8175 39.3762 44.2084 39.7255C43.5993 40.0748 42.6207 40.0748 42.0116 39.7255C41.4024 39.3862 41.4124 38.8173 42.0216 38.4681ZM44.0386 39.6357C44.5578 39.3363 44.5578 38.8573 44.0386 38.5579C43.5293 38.2685 42.7006 38.2685 42.1813 38.5579C41.6721 38.8573 41.6621 39.3363 42.1713 39.6257C42.6906 39.9351 43.5293 39.9251 44.0386 39.6357Z" fill="white"/>
<path d="M54.3336 36.6719C54.9427 36.3226 55.9312 36.3126 56.5304 36.6619C57.1395 37.0112 57.1295 37.5801 56.5204 37.9293C55.9113 38.2786 54.9327 38.2786 54.3236 37.9293C53.7145 37.59 53.7244 37.0212 54.3336 36.6719Z" fill="#839973"/>
<path d="M54.3336 36.6719C54.9427 36.3226 55.9312 36.3126 56.5304 36.6619C57.1395 37.0112 57.1295 37.5801 56.5204 37.9293C55.9113 38.2786 54.9327 38.2786 54.3236 37.9293C53.7145 37.59 53.7244 37.0212 54.3336 36.6719ZM56.3506 37.8395C56.8699 37.5401 56.8699 37.0611 56.3506 36.7617C55.8414 36.4723 55.0126 36.4723 54.4933 36.7617C53.9841 37.0611 53.9741 37.5401 54.4834 37.8295C55.0026 38.1389 55.8414 38.1289 56.3506 37.8395Z" fill="white"/>
<path d="M56.2608 29.328C56.8699 28.9788 57.8585 28.9688 58.4576 29.3181C59.0667 29.6673 59.0567 30.2362 58.4476 30.5855C57.8385 30.9347 56.8599 30.9347 56.2508 30.5855C55.6417 30.2462 55.6517 29.6773 56.2608 29.328Z" fill="#E8DBCB"/>
<path d="M56.2608 29.328C56.8699 28.9788 57.8585 28.9688 58.4576 29.3181C59.0667 29.6673 59.0567 30.2362 58.4476 30.5855C57.8385 30.9347 56.8599 30.9347 56.2508 30.5855C55.6417 30.2462 55.6517 29.6773 56.2608 29.328ZM58.2779 30.4956C58.7971 30.1963 58.7971 29.7172 58.2779 29.4179C57.7686 29.1285 56.9398 29.1285 56.4206 29.4179C55.9113 29.7172 55.9013 30.1963 56.4106 30.4857C56.9298 30.795 57.7686 30.795 58.2779 30.4956Z" fill="white"/>
<path d="M60.4847 20.1684C61.0938 19.8191 62.0824 19.8091 62.6815 20.1584C63.2906 20.5077 63.2806 21.0765 62.6715 21.4258C62.0624 21.7751 61.0838 21.7751 60.4747 21.4258C59.8756 21.0865 59.8756 20.5177 60.4847 20.1684Z" fill="#E2B9B3"/>
<path d="M60.4847 20.1684C61.0938 19.8191 62.0824 19.8091 62.6815 20.1584C63.2906 20.5077 63.2806 21.0765 62.6715 21.4258C62.0624 21.7751 61.0838 21.7751 60.4747 21.4258C59.8756 21.0865 59.8756 20.5177 60.4847 20.1684ZM62.5117 21.336C63.031 21.0366 63.031 20.5576 62.5117 20.2582C62.0025 19.9688 61.1737 19.9688 60.6545 20.2582C60.1452 20.5576 60.1352 21.0366 60.6445 21.326C61.1637 21.6254 61.9925 21.6254 62.5117 21.336Z" fill="white"/>
<path d="M60.9846 21.5174L58.0476 29.2507L58.2343 29.3215L61.1713 21.5882L60.9846 21.5174Z" fill="white"/>
<path d="M56.8101 30.8083L55.6947 36.4171L55.8909 36.4561L57.0062 30.8473L56.8101 30.8083Z" fill="white"/>
<path d="M44.6077 39.1967L54.034 37.5001L53.994 37.3005L44.5778 38.9971L44.6077 39.1967Z" fill="white"/>
<path d="M20.2034 61.9563H17.8768L3.94714 53.944L8.92987 51.2599L20.2034 61.9563Z" fill="#B3B3B3"/>
<path d="M18.7855 58.364L22.2504 56.3584L9.44908 48.9547L5.98413 50.9603L18.7855 58.364Z" fill="#FFF1DF"/>
<path d="M20.2034 61.9571L18.7855 58.3644L22.2505 56.3585L23.6684 59.9512L20.2034 61.9571Z" fill="#6ABE83"/>
<path d="M5.98413 50.9604L7.03259 54.343L20.2034 61.9562L18.7855 58.3641L5.98413 50.9604Z" fill="#E8DBCB"/>
<path d="M13.9126 55.5506L18.7755 58.3648H18.7855L19.2648 58.0854L22.2504 56.3589L17.3875 53.5447L13.9126 55.5506Z" fill="#8EFFB0"/>
<path d="M13.9126 55.5504V58.3247L20.2034 61.9573L18.7855 58.3646L13.9126 55.5504Z" fill="#00991C"/>
<path d="M14.8613 53.4355L9.12964 50.1223L9.62891 49.8329L15.3605 53.1461L14.8613 53.4355Z" fill="#404040"/>
<path d="M13.0739 53.545L9.38928 51.4094L9.88855 51.12L13.5831 53.2556L13.0739 53.545Z" fill="#404040"/>
<path d="M15.8598 54.0738L15.2507 53.7245L15.8099 53.3951L16.409 53.7544L15.8598 54.0738Z" fill="#404040"/>
<path d="M2.10986 42.5191C2.10986 41.9603 2.4993 41.2818 2.98859 41.0024C3.23822 40.8627 3.45791 40.8527 3.61767 40.9425L4.88581 41.6709C4.92576 41.6809 4.95572 41.6909 4.98567 41.7108L5.27526 41.8904H5.26527L5.30522 41.9204C5.3152 41.9204 5.31519 41.9304 5.32518 41.9304L5.34514 41.9403C5.48493 42.0401 5.57481 42.2197 5.57481 42.4791C5.57481 42.529 5.56482 42.5889 5.56482 42.6388L7.07263 43.4869C7.11257 43.457 7.14251 43.437 7.18245 43.4171C7.4221 43.2774 7.64181 43.2674 7.80158 43.3672L35.6609 59.2522C35.9405 59.1225 36.1902 59.1225 36.3699 59.2322L44.7377 63.882C44.7477 63.882 44.7577 63.892 44.7677 63.902L44.7976 63.9119C44.9574 64.0217 45.0672 64.2212 45.0872 64.5006L47.7733 66.0372C47.8232 66.0572 47.8831 66.0871 47.9231 66.127C47.9331 66.127 47.933 66.137 47.943 66.137C47.953 66.137 47.953 66.147 47.963 66.147L47.983 66.157C48.0129 66.1769 48.0429 66.1969 48.0628 66.2268L51.0186 69.1504L51.8973 70.0185L50.689 69.5994L46.8846 68.2623H46.8746C46.8646 68.2623 46.8546 68.2623 46.8347 68.2524C46.8247 68.2524 46.8147 68.2424 46.8047 68.2424C46.7847 68.2324 46.7648 68.2324 46.7448 68.2224C46.7348 68.2224 46.7348 68.2125 46.7248 68.2025C46.7148 68.1925 46.7048 68.1925 46.7048 68.1825L43.9289 66.596C43.5894 66.7856 43.2898 66.7756 43.0901 66.616V66.6259L34.7523 61.9961C34.5426 61.8764 34.4228 61.627 34.4128 61.2777L6.59332 45.4227C6.43355 45.3329 6.34368 45.1433 6.34368 44.8739C6.34368 44.8639 6.34368 44.8439 6.34368 44.834L4.76599 43.9459C4.74602 43.9559 4.73602 43.9758 4.71605 43.9858C4.44644 44.1355 4.21679 44.1355 4.04704 44.0158L2.37946 43.0778C2.20971 42.988 2.10986 42.7984 2.10986 42.5191Z" fill="#B3B3B3"/>
<path d="M2.36951 41.5415C2.36951 40.9827 2.75894 40.3041 3.24823 40.0246C3.49787 39.8849 3.71752 39.8749 3.87729 39.9648L5.60478 40.9527L4.28669 43.0385L2.61914 42.1004C2.46936 42.0205 2.36951 41.821 2.36951 41.5415Z" fill="url(#paint0_linear_389_21209)"/>
<path d="M3.74744 42.3097C3.74744 42.5892 3.84727 42.7788 4.00704 42.8786L4.29662 43.0482C4.1768 42.9484 4.0969 42.7588 4.0969 42.5193C4.0969 41.9605 4.48634 41.2918 4.97563 41.0124C5.19531 40.8827 5.39503 40.8627 5.5548 40.9226L5.26521 40.743C5.10545 40.6432 4.87578 40.6531 4.63612 40.8028C4.13685 41.0723 3.74744 41.7509 3.74744 42.3097Z" fill="url(#paint1_linear_389_21209)"/>
<path d="M4.08691 42.5192C4.08691 43.0781 4.47632 43.2976 4.96561 43.0182C5.44491 42.7388 5.84433 42.0602 5.84433 41.5013C5.84433 40.9425 5.45489 40.7229 4.96561 41.0023C4.47632 41.2818 4.08691 41.9604 4.08691 42.5192Z" fill="#CC4E4B"/>
<path d="M4.46643 42.4096C4.46643 42.0603 4.71608 41.6412 5.01565 41.4615C5.17542 41.3717 5.31521 41.3617 5.41506 41.4316L7.82155 42.7788L7.00274 44.0861L4.64619 42.7589C4.52637 42.709 4.46643 42.5892 4.46643 42.4096Z" fill="url(#paint2_linear_389_21209)"/>
<path d="M6.86292 43.7566C6.86292 44.1059 7.11254 44.2456 7.4121 44.0659C7.71167 43.8863 7.96129 43.4672 7.96129 43.1179C7.96129 42.7686 7.71167 42.6289 7.4121 42.8085C7.10255 42.9782 6.86292 43.4073 6.86292 43.7566Z" fill="#9D9D9D"/>
<path d="M6.59326 43.906C6.59326 43.3672 6.97271 42.7087 7.44203 42.4393C7.68168 42.2996 7.90136 42.2896 8.06112 42.3894L43.9887 62.9142L42.7106 64.9497L6.8429 44.4548C6.68313 44.365 6.59326 44.1755 6.59326 43.906Z" fill="url(#paint3_linear_389_21209)"/>
<path d="M42.501 64.421C42.501 64.9599 42.8804 65.1795 43.3497 64.91C43.819 64.6406 44.1985 63.9819 44.1985 63.4431C44.1985 62.9042 43.819 62.6846 43.3497 62.954C42.8804 63.2235 42.501 63.8821 42.501 64.421Z" fill="#239D8E"/>
<path d="M34.6624 60.2898C34.6624 59.5614 35.1716 58.6833 35.8107 58.3141C36.1302 58.1246 36.4298 58.1146 36.6395 58.2443L45.0672 62.924L43.3497 65.648L35.0118 61.0182C34.7922 60.9084 34.6624 60.659 34.6624 60.2898Z" fill="url(#paint4_linear_389_21209)"/>
<path d="M43.0602 64.9598C43.0602 65.6883 43.5694 65.9777 44.2085 65.6085C44.8376 65.2392 45.3568 64.361 45.3568 63.6325C45.3568 62.904 44.8476 62.6146 44.2085 62.9838C43.5794 63.3531 43.0602 64.2413 43.0602 64.9598Z" fill="#F2EAE6"/>
<path d="M43.4795 64.8202C43.4795 64.2813 43.8589 63.6227 44.3283 63.3532C44.5679 63.2135 44.7876 63.2035 44.9474 63.3033L48.2426 65.1895L46.9644 67.2253L43.7391 65.3791C43.5794 65.2793 43.4795 65.0897 43.4795 64.8202Z" fill="url(#paint5_linear_389_21209)"/>
<path d="M46.7548 66.7061C46.7548 67.245 47.1342 67.4645 47.6035 67.1951C48.0728 66.9256 48.4523 66.267 48.4523 65.7281C48.4523 65.1892 48.0728 64.9696 47.6035 65.2391C47.1342 65.4986 46.7548 66.1572 46.7548 66.7061Z" fill="#239D8E"/>
<path d="M46.7546 66.706C46.7546 66.736 46.7546 66.7659 46.7646 66.7859C46.7846 67.0853 46.9344 67.2649 47.1441 67.3048L50.9485 68.6421L52.1568 69.0612L51.278 68.193L48.3324 65.2889C48.3324 65.279 48.3323 65.279 48.3224 65.279C48.1726 65.0993 47.903 65.0694 47.6034 65.239C47.4636 65.3189 47.3338 65.4386 47.214 65.5684C46.9444 65.8877 46.7546 66.3268 46.7546 66.706Z" fill="#E8DBCB"/>
<path d="M46.7646 66.7856C46.7846 67.0551 46.9144 67.2347 47.0942 67.2846C47.1141 67.2946 47.1341 67.2946 47.1441 67.2946L50.9486 68.6319L52.1568 69.051L46.7646 66.7856Z" fill="#E8CCA9"/>
<path d="M46.7646 66.7856C46.7846 67.0551 46.9146 67.2347 47.0946 67.2846C47.1446 66.9753 46.8046 66.8056 46.7646 66.7856Z" fill="#D13E3B"/>
<path d="M47.2241 65.5683L52.1569 69.0612L51.2782 68.1929L48.3225 65.2689C48.1727 65.0893 47.9131 65.0693 47.6136 65.239C47.4738 65.3188 47.3439 65.4286 47.2241 65.5683Z" fill="#FFF1DF"/>
<path d="M50.9087 68.5218C50.9087 68.5717 50.9187 68.6116 50.9486 68.6316L52.1569 69.0507L51.2781 68.1825C51.2382 68.1426 51.1783 68.1326 51.1184 68.1725C50.9986 68.2424 50.9087 68.402 50.9087 68.5218Z" fill="#727373"/>
<path d="M47.1142 65.2491C47.1541 65.1493 47.2539 65.0994 47.3538 65.0595C47.4537 65.0196 47.5935 64.9497 47.7033 64.9697C47.8131 64.9797 47.923 65.0196 48.0228 65.0595C48.0828 65.0795 48.1826 65.1194 48.2026 65.1793C48.2425 65.289 48.1926 65.4088 48.1027 65.4886C48.0128 65.5685 47.903 65.5984 47.7932 65.6184C47.5835 65.6583 47.3738 65.6782 47.194 65.5485C47.1042 65.4787 47.0742 65.3589 47.1142 65.2491Z" fill="#FF8F8C"/>
<path d="M47.2241 65.5684C47.2241 65.5684 47.8831 66.5264 46.7647 66.7859L46.4452 65.9476L47.2241 65.5684Z" fill="#F06966"/>
<defs>
<linearGradient id="paint0_linear_389_21209" x1="4.4206" y1="40.2836" x2="3.19581" y2="42.4317" gradientUnits="userSpaceOnUse">
<stop offset="0.0873" stop-color="#F2EAE6"/>
<stop offset="0.095" stop-color="#FFF7F2"/>
<stop offset="0.8894" stop-color="#FFF7F2"/>
<stop offset="0.8977" stop-color="#CCBABA"/>
</linearGradient>
<linearGradient id="paint1_linear_389_21209" x1="5.07829" y1="40.6408" x2="3.85081" y2="42.7935" gradientUnits="userSpaceOnUse">
<stop offset="0.369" stop-color="#FF8F8C"/>
<stop offset="0.375" stop-color="#F06966"/>
<stop offset="0.8894" stop-color="#F06966"/>
<stop offset="0.8898" stop-color="#D13E3B"/>
</linearGradient>
<linearGradient id="paint2_linear_389_21209" x1="6.4107" y1="41.9831" x2="5.63576" y2="43.3421" gradientUnits="userSpaceOnUse">
<stop offset="0.369" stop-color="#F2F2F2"/>
<stop offset="0.379" stop-color="#BDBDBD"/>
<stop offset="0.8894" stop-color="#BDBDBD"/>
<stop offset="0.8937" stop-color="#727373"/>
</linearGradient>
<linearGradient id="paint3_linear_389_21209" x1="25.7146" y1="52.4509" x2="24.5103" y2="54.5634" gradientUnits="userSpaceOnUse">
<stop offset="0.369" stop-color="#FF8F8C"/>
<stop offset="0.375" stop-color="#F06966"/>
<stop offset="0.8894" stop-color="#F06966"/>
<stop offset="0.8898" stop-color="#D13E3B"/>
</linearGradient>
<linearGradient id="paint4_linear_389_21209" x1="40.446" y1="60.3035" x2="38.7961" y2="63.1977" gradientUnits="userSpaceOnUse">
<stop offset="0.0873" stop-color="#F2EAE6"/>
<stop offset="0.095" stop-color="#FFF7F2"/>
<stop offset="0.8894" stop-color="#FFF7F2"/>
<stop offset="0.8977" stop-color="#CCBABA"/>
</linearGradient>
<linearGradient id="paint5_linear_389_21209" x1="46.281" y1="64.0587" x2="45.0871" y2="66.1528" gradientUnits="userSpaceOnUse">
<stop offset="0.369" stop-color="#FF8F8C"/>
<stop offset="0.375" stop-color="#F06966"/>
<stop offset="0.8894" stop-color="#F06966"/>
<stop offset="0.8898" stop-color="#D13E3B"/>
</linearGradient>
</defs>
</svg>
