<svg width="100" height="79" viewBox="0 0 100 79" fill="none" xmlns="http://www.w3.org/2000/svg">
<mask id="path-1-inside-1_280_42575" fill="white">
<path fill-rule="evenodd" clip-rule="evenodd" d="M81.856 12.9455C81.856 12.3241 81.3523 11.8203 80.7309 11.8203H16.1251C15.5037 11.8203 15 12.3241 15 12.9455V58.4495C15 59.0709 15.5038 59.5746 16.1252 59.5746H80.7309C81.3523 59.5746 81.856 59.0709 81.856 58.4495V12.9455ZM78.1001 48.7494C78.1001 49.3708 77.5963 49.8745 76.9749 49.8745H20.2567C19.6353 49.8745 19.1316 49.3708 19.1316 48.7494V16.6763C19.1316 16.0549 19.6353 15.5511 20.2567 15.5511H76.9749C77.5963 15.5511 78.1001 16.0549 78.1001 16.6763V48.7494Z"/>
<path d="M19.1316 48.7494C19.1316 49.3708 19.6353 49.8745 20.2567 49.8745H76.9749C77.5963 49.8745 78.1001 49.3708 78.1001 48.7494V16.6763C78.1001 16.0549 77.5963 15.5511 76.9749 15.5511H20.2567C19.6353 15.5511 19.1316 16.0549 19.1316 16.6763V48.7494Z"/>
</mask>
<path fill-rule="evenodd" clip-rule="evenodd" d="M81.856 12.9455C81.856 12.3241 81.3523 11.8203 80.7309 11.8203H16.1251C15.5037 11.8203 15 12.3241 15 12.9455V58.4495C15 59.0709 15.5038 59.5746 16.1252 59.5746H80.7309C81.3523 59.5746 81.856 59.0709 81.856 58.4495V12.9455ZM78.1001 48.7494C78.1001 49.3708 77.5963 49.8745 76.9749 49.8745H20.2567C19.6353 49.8745 19.1316 49.3708 19.1316 48.7494V16.6763C19.1316 16.0549 19.6353 15.5511 20.2567 15.5511H76.9749C77.5963 15.5511 78.1001 16.0549 78.1001 16.6763V48.7494Z" fill="#174AA4"/>
<path d="M19.1316 48.7494C19.1316 49.3708 19.6353 49.8745 20.2567 49.8745H76.9749C77.5963 49.8745 78.1001 49.3708 78.1001 48.7494V16.6763C78.1001 16.0549 77.5963 15.5511 76.9749 15.5511H20.2567C19.6353 15.5511 19.1316 16.0549 19.1316 16.6763V48.7494Z" fill="#E5E6ED"/>
<path d="M20.2567 50.1558H76.9749V49.5932H20.2567V50.1558ZM78.3814 48.7494V16.6763H77.8188V48.7494H78.3814ZM76.9749 15.2698H20.2567V15.8324H76.9749V15.2698ZM18.8503 16.6763V48.7494H19.4128V16.6763H18.8503ZM20.2567 15.2698C19.48 15.2698 18.8503 15.8995 18.8503 16.6763H19.4128C19.4128 16.2102 19.7907 15.8324 20.2567 15.8324V15.2698ZM78.3814 16.6763C78.3814 15.8995 77.7517 15.2698 76.9749 15.2698V15.8324C77.441 15.8324 77.8188 16.2102 77.8188 16.6763H78.3814ZM76.9749 50.1558C77.7517 50.1558 78.3814 49.5261 78.3814 48.7494H77.8188C77.8188 49.2154 77.441 49.5932 76.9749 49.5932V50.1558ZM20.2567 49.5932C19.7907 49.5932 19.4128 49.2154 19.4128 48.7494H18.8503C18.8503 49.5261 19.4799 50.1558 20.2567 50.1558V49.5932ZM16.1251 12.3829H80.7309V11.2577H16.1251V12.3829ZM81.2935 12.9455V58.4495H82.4186V12.9455H81.2935ZM80.7309 59.0121H16.1252V60.1372H80.7309V59.0121ZM15.5626 58.4495V12.9455H14.4374V58.4495H15.5626ZM16.1252 59.0121C15.8144 59.0121 15.5626 58.7602 15.5626 58.4495H14.4374C14.4374 59.3816 15.1931 60.1372 16.1252 60.1372V59.0121ZM81.2935 58.4495C81.2935 58.7602 81.0416 59.0121 80.7309 59.0121V60.1372C81.663 60.1372 82.4186 59.3816 82.4186 58.4495H81.2935ZM80.7309 12.3829C81.0416 12.3829 81.2935 12.6348 81.2935 12.9455H82.4186C82.4186 12.0134 81.663 11.2577 80.7309 11.2577V12.3829ZM16.1251 11.2577C15.193 11.2577 14.4374 12.0134 14.4374 12.9455H15.5626C15.5626 12.6348 15.8144 12.3829 16.1251 12.3829V11.2577Z" fill="#282F38" mask="url(#path-1-inside-1_280_42575)"/>
<path d="M59.2001 66.6461L57.3274 59.9043H39.3493L37.4766 66.6461H59.2001Z" fill="#174AA4" stroke="#282F38" stroke-width="1.12515" stroke-linecap="round"/>
<rect x="34.1016" y="66.2603" width="28.6526" height="3.82035" rx="1.68772" fill="#282F38"/>
<path fill-rule="evenodd" clip-rule="evenodd" d="M58.836 38.6424C58.0336 38.6424 57.3492 38.0616 57.2185 37.27C57.0982 36.6296 56.6371 36.1063 56.0169 35.9064C55.5115 35.7329 55.0173 35.5283 54.5373 35.2936C53.966 35.0014 53.2808 35.0451 52.7513 35.4074C52.1105 35.8682 51.2302 35.7968 50.672 35.2389L48.5007 33.0676C47.9164 32.4833 47.8405 31.562 48.3213 30.8898C48.692 30.3481 48.7454 29.6497 48.4613 29.0579C48.2741 28.6467 48.109 28.2259 47.9667 27.7971C47.7628 27.1215 47.2001 26.6154 46.5068 26.4839C45.6706 26.3503 45.0534 25.6322 45.0469 24.7854V22.0692C45.0424 21.0932 45.7474 20.2584 46.7103 20.0994C47.4409 19.9604 48.0509 19.46 48.33 18.7708C48.4132 18.5767 48.5007 18.3841 48.5927 18.193C48.9639 17.4782 48.9126 16.6173 48.4591 15.9517C47.892 15.1635 47.9791 14.0805 48.6649 13.3931L50.2605 11.7975C51.0474 11.0102 52.2886 10.9083 53.1934 11.5567L53.2437 11.5917C53.9194 12.0465 54.7791 12.1288 55.5288 11.8106C56.3308 11.5219 56.9219 10.8327 57.085 9.99613L57.1069 9.92171C57.2871 8.81415 58.2435 8.00045 59.3656 8H61.2917C62.4441 7.99947 63.4277 8.83297 63.6162 9.96987L63.6512 10.1231C63.8059 10.9245 64.3664 11.5878 65.1308 11.8741C65.8674 12.1903 66.7147 12.1077 67.3764 11.6552L67.4859 11.5764C68.4142 10.9074 69.6906 11.0103 70.4998 11.8194L71.9684 13.2902C72.7044 14.0303 72.797 15.1942 72.1873 16.0414C71.7096 16.7495 71.6486 17.6595 72.0275 18.425L72.1216 18.6438C72.4284 19.3912 73.0921 19.933 73.8857 20.084C74.923 20.2531 75.6858 21.1474 75.6893 22.1984V24.6344C75.689 25.5611 75.0187 26.3517 74.1046 26.5036C73.3528 26.6478 72.7403 27.1922 72.509 27.9219C72.4069 28.2137 72.2931 28.5056 72.1676 28.7974C71.8756 29.4386 71.9403 30.1859 72.3383 30.7673C72.8635 31.4979 72.782 32.5014 72.1457 33.1377L70.108 35.1776C69.5252 35.7602 68.6063 35.8353 67.9367 35.3549C67.3778 34.973 66.6538 34.9309 66.0544 35.2454C65.6274 35.457 65.189 35.6448 64.7412 35.8079C64.1152 36.0239 63.6537 36.5598 63.533 37.2109C63.4054 38.0301 62.703 38.6361 61.8739 38.6424H58.836Z" fill="#147AD6"/>
<path fill-rule="evenodd" clip-rule="evenodd" d="M65.4742 23.3213C65.4742 26.1414 63.1881 28.4276 60.3679 28.4276C57.5478 28.4276 55.2616 26.1414 55.2616 23.3213C55.2616 20.5011 57.5478 18.2149 60.3679 18.2149C63.1881 18.2149 65.4742 20.5011 65.4742 23.3213Z" fill="#E5E6ED"/>
<path d="M58.836 38.6424V38.1501H58.836L58.836 38.6424ZM57.2185 37.27L57.7043 37.1898L57.7023 37.1792L57.2185 37.27ZM56.0169 35.9064L55.857 36.3721L55.8659 36.375L56.0169 35.9064ZM54.5373 35.2936L54.3131 35.7319L54.3211 35.7358L54.5373 35.2936ZM52.7513 35.4074L52.4732 35.001L52.4639 35.0077L52.7513 35.4074ZM50.672 35.2389L50.3239 35.5869L50.324 35.587L50.672 35.2389ZM48.5007 33.0676L48.1526 33.4157L48.1527 33.4157L48.5007 33.0676ZM48.3213 30.8898L48.7217 31.1763L48.7275 31.1679L48.3213 30.8898ZM48.4613 29.0579L48.0132 29.2619L48.0176 29.2709L48.4613 29.0579ZM47.9667 27.7971L47.4952 27.9394L47.4995 27.9522L47.9667 27.7971ZM46.5068 26.4839L46.5985 26.0003L46.5915 25.9989L46.5845 25.9978L46.5068 26.4839ZM45.0469 24.7854H44.5546L44.5547 24.7892L45.0469 24.7854ZM45.0469 22.0692H45.5392L45.5391 22.067L45.0469 22.0692ZM46.7103 20.0994L46.7906 20.5852L46.8023 20.5829L46.7103 20.0994ZM48.33 18.7708L47.8775 18.5768L47.8738 18.586L48.33 18.7708ZM48.5927 18.193L48.1558 17.9661L48.1523 17.9728L48.149 17.9796L48.5927 18.193ZM48.4591 15.9517L48.8661 15.6744L48.8587 15.6642L48.4591 15.9517ZM48.6649 13.3931L48.3168 13.045L48.3164 13.0454L48.6649 13.3931ZM50.2605 11.7975L50.6086 12.1455L50.6086 12.1455L50.2605 11.7975ZM53.1934 11.5567L52.9066 11.9569L52.9123 11.9608L53.1934 11.5567ZM53.2437 11.5917L52.9626 11.9959L52.9689 12.0001L53.2437 11.5917ZM55.5288 11.8106L55.3621 11.3474L55.3491 11.3521L55.3364 11.3575L55.5288 11.8106ZM57.085 9.99613L56.6127 9.85723L56.6062 9.87933L56.6018 9.90193L57.085 9.99613ZM57.1069 9.92171L57.5791 10.0606L57.5878 10.0311L57.5927 10.0008L57.1069 9.92171ZM59.3656 8V7.50775L59.3654 7.50775L59.3656 8ZM61.2917 8V8.49225L61.2919 8.49225L61.2917 8ZM63.6162 9.96987L63.1305 10.0504L63.133 10.0651L63.1363 10.0796L63.6162 9.96987ZM63.6512 10.1231L64.1345 10.0298L64.1329 10.0216L64.1311 10.0134L63.6512 10.1231ZM65.1308 11.8741L65.3249 11.4217L65.3143 11.4171L65.3034 11.4131L65.1308 11.8741ZM67.3764 11.6552L67.6544 12.0617L67.664 12.0547L67.3764 11.6552ZM67.4859 11.5764L67.7735 11.9759L67.7737 11.9758L67.4859 11.5764ZM70.4998 11.8194L70.8481 11.4715L70.8478 11.4713L70.4998 11.8194ZM71.9684 13.2902L72.3175 12.9431L72.3167 12.9424L71.9684 13.2902ZM72.1873 16.0414L71.7877 15.7539L71.7834 15.76L71.7792 15.7662L72.1873 16.0414ZM72.0275 18.425L72.4797 18.2305L72.4745 18.2184L72.4687 18.2066L72.0275 18.425ZM72.1216 18.6438L72.577 18.4569L72.5738 18.4494L72.1216 18.6438ZM73.8857 20.084L73.7937 20.5678L73.8065 20.5699L73.8857 20.084ZM75.6893 22.1984H76.1815L76.1815 22.1967L75.6893 22.1984ZM75.6893 24.6344L76.1815 24.6346V24.6344H75.6893ZM74.1046 26.5036L74.0239 26.0179L74.0119 26.0202L74.1046 26.5036ZM72.509 27.9219L72.9736 28.0845L72.976 28.0776L72.9783 28.0706L72.509 27.9219ZM72.1676 28.7974L72.6157 29.0015L72.6198 28.9919L72.1676 28.7974ZM72.3383 30.7673L71.932 31.0454L71.9386 31.0546L72.3383 30.7673ZM72.1457 33.1377L71.7976 32.7896L71.7974 32.7898L72.1457 33.1377ZM70.108 35.1776L70.456 35.5257L70.4562 35.5255L70.108 35.1776ZM67.9367 35.3549L68.2238 34.9548L68.2144 34.9484L67.9367 35.3549ZM66.0544 35.2454L66.273 35.6866L66.2831 35.6813L66.0544 35.2454ZM64.7412 35.8079L64.9017 36.2733L64.9097 36.2704L64.7412 35.8079ZM63.533 37.2109L63.0488 37.1212L63.0466 37.1352L63.533 37.2109ZM61.8739 38.6424V39.1346L61.8776 39.1346L61.8739 38.6424ZM58.836 38.1501C58.2745 38.1501 57.7956 37.7438 57.7042 37.1898L56.7328 37.3502C56.9027 38.3795 57.7927 39.1346 58.836 39.1346L58.836 38.1501ZM57.7023 37.1792C57.5487 36.3613 56.9599 35.6931 56.1678 35.4379L55.8659 36.375C56.3143 36.5195 56.6477 36.8978 56.7347 37.3609L57.7023 37.1792ZM56.1767 35.4408C55.6906 35.274 55.2152 35.0771 54.7535 34.8513L54.3211 35.7358C54.8194 35.9794 55.3324 36.1919 55.857 36.372L56.1767 35.4408ZM54.7614 34.8553C54.0296 34.481 53.1517 34.537 52.4733 35.0011L53.0292 35.8137C53.4099 35.5532 53.9025 35.5218 54.3131 35.7318L54.7614 34.8553ZM52.4639 35.0077C52.0189 35.3277 51.4076 35.2782 51.02 34.8907L50.324 35.587C51.0528 36.3155 52.202 36.4086 53.0386 35.807L52.4639 35.0077ZM51.02 34.8908L48.8488 32.7196L48.1527 33.4157L50.3239 35.5869L51.02 34.8908ZM48.8488 32.7196C48.4347 32.3054 48.3809 31.6526 48.7216 31.1762L47.9209 30.6035C47.3 31.4714 47.3981 32.6611 48.1526 33.4157L48.8488 32.7196ZM48.7275 31.1679C49.1976 30.4809 49.2654 29.5953 48.9051 28.8448L48.0176 29.2709C48.2255 29.7041 48.1864 30.2153 47.915 30.6118L48.7275 31.1679ZM48.9093 28.8539C48.7294 28.4587 48.5707 28.0542 48.4339 27.642L47.4995 27.9522C47.6473 28.3976 47.8189 28.8348 48.0133 29.2618L48.9093 28.8539ZM48.4379 27.655C48.1811 26.8037 47.4721 26.1659 46.5985 26.0003L46.4151 26.9675C46.9282 27.0648 47.3446 27.4394 47.4954 27.9393L48.4379 27.655ZM46.5845 25.9978C45.9858 25.9021 45.5438 25.3879 45.5391 24.7817L44.5547 24.7892C44.563 25.8764 45.3555 26.7984 46.4291 26.97L46.5845 25.9978ZM45.5391 24.7854V22.0692H44.5546V24.7854H45.5391ZM45.5391 22.067C45.5358 21.3327 46.0661 20.7047 46.7906 20.585L46.6301 19.6137C45.4286 19.8122 44.5491 20.8537 44.5546 22.0715L45.5391 22.067ZM46.8023 20.5829C47.6971 20.4127 48.4443 19.7998 48.7863 18.9556L47.8738 18.586C47.6574 19.1202 47.1846 19.5081 46.6184 19.6158L46.8023 20.5829ZM48.7825 18.9647C48.8628 18.7772 48.9474 18.5911 49.0363 18.4063L48.149 17.9796C48.054 18.1772 47.9635 18.3762 47.8776 18.5769L48.7825 18.9647ZM49.0295 18.4199C49.4843 17.5444 49.4214 16.4898 48.866 15.6745L48.0523 16.2289C48.4038 16.7448 48.4436 17.4121 48.1558 17.9661L49.0295 18.4199ZM48.8587 15.6642C48.4324 15.0716 48.4978 14.2575 49.0134 13.7407L48.3164 13.0454C47.4604 13.9035 47.3517 15.2553 48.0596 16.2392L48.8587 15.6642ZM49.013 13.7411L50.6086 12.1455L49.9124 11.4494L48.3168 13.045L49.013 13.7411ZM50.6086 12.1455C51.2252 11.5286 52.1977 11.4488 52.9067 11.9568L53.4801 11.1566C52.3794 10.3679 50.8696 10.4918 49.9123 11.4494L50.6086 12.1455ZM52.9123 11.9608L52.9626 11.9958L53.5248 11.1876L53.4745 11.1526L52.9123 11.9608ZM52.9689 12.0001C53.7826 12.5478 54.8182 12.647 55.7211 12.2637L55.3364 11.3575C54.74 11.6106 54.0561 11.5451 53.5186 11.1833L52.9689 12.0001ZM55.6955 12.2738C56.6606 11.9264 57.3718 11.0971 57.5681 10.0903L56.6018 9.90193C56.4719 10.5684 56.001 11.1175 55.3621 11.3474L55.6955 12.2738ZM57.5572 10.135L57.5791 10.0606L56.6346 9.78282L56.6127 9.85723L57.5572 10.135ZM57.5927 10.0008C57.7342 9.13135 58.485 8.49261 59.3658 8.49225L59.3654 7.50775C58.002 7.5083 56.84 8.49694 56.621 9.84265L57.5927 10.0008ZM59.3656 8.49225H61.2917V7.50775H59.3656V8.49225ZM61.2919 8.49225C62.2035 8.49184 62.9814 9.15112 63.1305 10.0504L64.1018 9.88935C63.8739 8.51483 62.6848 7.50711 61.2915 7.50775L61.2919 8.49225ZM63.1363 10.0796L63.1713 10.2328L64.1311 10.0134L64.096 9.86018L63.1363 10.0796ZM63.1679 10.2164C63.355 11.1861 64.0332 11.9887 64.9581 12.3351L65.3034 11.4131C64.6995 11.1869 64.2567 10.6629 64.1345 10.0298L63.1679 10.2164ZM64.9366 12.3264C65.8281 12.7091 66.8534 12.6091 67.6543 12.0615L67.0986 11.2489C66.5759 11.6062 65.9068 11.6715 65.3249 11.4217L64.9366 12.3264ZM67.664 12.0547L67.7735 11.9759L67.1982 11.1769L67.0888 11.2557L67.664 12.0547ZM67.7737 11.9758C68.5061 11.4479 69.5133 11.5291 70.1517 12.1674L70.8478 11.4713C69.868 10.4915 68.3222 10.3669 67.1981 11.1771L67.7737 11.9758ZM70.1514 12.1672L71.6201 13.638L72.3167 12.9424L70.8481 11.4715L70.1514 12.1672ZM71.6193 13.6373C72.1855 14.2067 72.2568 15.1021 71.7877 15.7539L72.5868 16.329C73.3371 15.2863 73.2232 13.854 72.3175 12.9431L71.6193 13.6373ZM71.7792 15.7662C71.2026 16.6209 71.129 17.7193 71.5863 18.6433L72.4687 18.2066C72.1683 17.5996 72.2166 16.8782 72.5954 16.3167L71.7792 15.7662ZM71.5753 18.6194L71.6694 18.8383L72.5738 18.4494L72.4797 18.2305L71.5753 18.6194ZM71.6662 18.8308C72.0363 19.7321 72.8366 20.3854 73.7937 20.5676L73.9778 19.6005C73.3476 19.4805 72.8206 19.0503 72.577 18.4569L71.6662 18.8308ZM73.8065 20.5699C74.6062 20.7002 75.1944 21.3897 75.197 22.2L76.1815 22.1967C76.1773 20.9051 75.2397 19.806 73.9649 19.5982L73.8065 20.5699ZM75.197 22.1984V24.6344H76.1815V22.1984H75.197ZM75.197 24.6343C75.1968 25.3203 74.7006 25.9055 74.0239 26.018L74.1853 26.9892C75.3368 26.7978 76.1811 25.8019 76.1815 24.6346L75.197 24.6343ZM74.0119 26.0202C73.0827 26.1983 72.3257 26.8712 72.0398 27.7732L72.9783 28.0706C73.155 27.5131 73.6229 27.0972 74.1973 26.9871L74.0119 26.0202ZM72.0444 27.7593C71.9461 28.0401 71.8365 28.3213 71.7154 28.603L72.6198 28.9919C72.7497 28.6898 72.8676 28.3874 72.9736 28.0845L72.0444 27.7593ZM71.7196 28.5934C71.3561 29.3915 71.4367 30.3216 71.9321 31.0453L72.7445 30.4892C72.4439 30.0501 72.395 29.4857 72.6156 29.0014L71.7196 28.5934ZM71.9386 31.0546C72.323 31.5894 72.2633 32.3239 71.7976 32.7896L72.4937 33.4858C73.3006 32.679 73.404 31.4064 72.738 30.4799L71.9386 31.0546ZM71.7974 32.7898L69.7597 34.8297L70.4562 35.5255L72.4939 33.4856L71.7974 32.7898ZM69.7599 34.8295C69.3476 35.2417 68.6974 35.2948 68.2237 34.9549L67.6498 35.7548C68.5152 36.3757 69.7028 36.2787 70.456 35.5257L69.7599 34.8295ZM68.2144 34.9484C67.5052 34.4639 66.5863 34.4104 65.8257 34.8095L66.2831 35.6813C66.7213 35.4514 67.2505 35.4822 67.6591 35.7613L68.2144 34.9484ZM65.8359 34.8043C65.4251 35.0078 65.0034 35.1885 64.5726 35.3454L64.9097 36.2704C65.3745 36.1011 65.8296 35.9061 66.2729 35.6865L65.8359 34.8043ZM64.5806 35.3426C63.787 35.6164 63.202 36.2958 63.049 37.1212L64.017 37.3006C64.1054 36.8238 64.4433 36.4314 64.9017 36.2733L64.5806 35.3426ZM63.0466 37.1352C62.9561 37.716 62.4581 38.1457 61.8702 38.1501L61.8776 39.1346C62.9479 39.1266 63.8546 38.3442 64.0194 37.2867L63.0466 37.1352ZM61.8739 38.1501H58.836V39.1346H61.8739V38.1501ZM64.982 23.3213C64.982 25.8696 62.9162 27.9353 60.3679 27.9353V28.9199C63.4599 28.9199 65.9665 26.4133 65.9665 23.3213H64.982ZM60.3679 27.9353C57.8196 27.9353 55.7538 25.8696 55.7538 23.3213H54.7693C54.7693 26.4133 57.2759 28.9199 60.3679 28.9199V27.9353ZM55.7538 23.3213C55.7538 20.773 57.8196 18.7072 60.3679 18.7072V17.7227C57.2759 17.7227 54.7693 20.2293 54.7693 23.3213H55.7538ZM60.3679 18.7072C62.9162 18.7072 64.982 20.773 64.982 23.3213H65.9665C65.9665 20.2293 63.4599 17.7227 60.3679 17.7227V18.7072Z" fill="#282F38"/>
<path fill-rule="evenodd" clip-rule="evenodd" d="M73.6591 42.2238C73.1193 42.2238 72.6589 41.8331 72.571 41.3006C72.4901 40.8698 72.1799 40.5177 71.7626 40.3833C71.4226 40.2666 71.0902 40.1289 70.7673 39.971C70.383 39.7745 69.922 39.8038 69.5658 40.0476C69.1347 40.3575 68.5425 40.3096 68.167 39.9342L66.7063 38.4735C66.3132 38.0804 66.2621 37.4607 66.5856 37.0085C66.835 36.644 66.8709 36.1742 66.6798 35.7761C66.5539 35.4995 66.4428 35.2164 66.347 34.9279C66.2099 34.4734 65.8314 34.1329 65.3649 34.0445C64.8024 33.9546 64.3872 33.4715 64.3828 32.9019V31.0746C64.3798 30.418 64.8541 29.8564 65.5019 29.7494C65.9933 29.6559 66.4037 29.3193 66.5915 28.8557C66.6474 28.7251 66.7063 28.5955 66.7682 28.4669C67.0179 27.9861 66.9834 27.407 66.6783 26.9592C66.2968 26.4289 66.3554 25.7004 66.8167 25.2379L67.8901 24.1645C68.4196 23.6349 69.2545 23.5664 69.8632 24.0026L69.8971 24.0261C70.3516 24.332 70.9299 24.3874 71.4343 24.1734C71.9738 23.9792 72.3714 23.5155 72.4812 22.9527L72.4959 22.9027C72.6171 22.1576 73.2605 21.6102 74.0154 21.6099H75.3112C76.0864 21.6095 76.7481 22.1702 76.8749 22.935L76.8984 23.0381C77.0025 23.5773 77.3796 24.0235 77.8938 24.2161C78.3894 24.4288 78.9593 24.3732 79.4045 24.0688L79.4781 24.0158C80.1026 23.5657 80.9613 23.635 81.5057 24.1792L82.4937 25.1687C82.9888 25.6666 83.0511 26.4496 82.6409 27.0196C82.3196 27.4959 82.2785 28.108 82.5334 28.623L82.5967 28.7703C82.8031 29.273 83.2496 29.6375 83.7835 29.7391C84.4813 29.8529 84.9945 30.4545 84.9968 31.1615V32.8003C84.9966 33.4237 84.5457 33.9555 83.9307 34.0577C83.425 34.1547 83.0129 34.521 82.8573 35.0119C82.7886 35.2082 82.7121 35.4045 82.6276 35.6008C82.4312 36.0322 82.4748 36.5349 82.7425 36.926C83.0958 37.4175 83.041 38.0926 82.6129 38.5207L81.2421 39.893C80.8501 40.2849 80.2319 40.3354 79.7814 40.0122C79.4055 39.7554 78.9184 39.727 78.5152 39.9386C78.2279 40.0809 77.9329 40.2073 77.6317 40.317C77.2106 40.4623 76.9001 40.8228 76.8189 41.2608C76.7331 41.8119 76.2605 42.2196 75.7028 42.2238H73.6591Z" fill="#5AB063"/>
<path fill-rule="evenodd" clip-rule="evenodd" d="M78.1248 31.9167C78.1248 33.8139 76.5868 35.3519 74.6896 35.3519C72.7925 35.3519 71.2545 33.8139 71.2545 31.9167C71.2545 30.0195 72.7925 28.4815 74.6896 28.4815C76.5868 28.4815 78.1248 30.0195 78.1248 31.9167Z" fill="#E5E6ED"/>
<path d="M73.6591 42.2238V41.7316H73.6591L73.6591 42.2238ZM72.571 41.3006L73.0568 41.2204L73.0548 41.2097L72.571 41.3006ZM71.7626 40.3833L71.6028 40.8489L71.6116 40.8518L71.7626 40.3833ZM70.7673 39.971L70.5431 40.4093L70.5511 40.4132L70.7673 39.971ZM69.5658 40.0476L69.2877 39.6412L69.2784 39.6479L69.5658 40.0476ZM68.167 39.9342L67.8189 40.2823L67.819 40.2823L68.167 39.9342ZM66.7063 38.4735L66.3582 38.8216L66.3582 38.8216L66.7063 38.4735ZM66.5856 37.0085L66.986 37.2949L66.9918 37.2865L66.5856 37.0085ZM66.6798 35.7761L66.2317 35.9801L66.236 35.9891L66.6798 35.7761ZM66.347 34.9279L65.8756 35.0702L65.8799 35.083L66.347 34.9279ZM65.3649 34.0445L65.4566 33.5609L65.4496 33.5595L65.4426 33.5584L65.3649 34.0445ZM64.3828 32.9019H63.8906L63.8906 32.9057L64.3828 32.9019ZM64.3828 31.0746H64.8751L64.8751 31.0724L64.3828 31.0746ZM65.5019 29.7494L65.5821 30.2352L65.5939 30.233L65.5019 29.7494ZM66.5915 28.8557L66.1389 28.6617L66.1352 28.6709L66.5915 28.8557ZM66.7682 28.4669L66.3313 28.24L66.3278 28.2468L66.3245 28.2536L66.7682 28.4669ZM66.6783 26.9592L67.0853 26.6819L67.0779 26.6717L66.6783 26.9592ZM66.8167 25.2379L66.4687 24.8898L66.4682 24.8903L66.8167 25.2379ZM67.8901 24.1645L68.2382 24.5126L68.2383 24.5125L67.8901 24.1645ZM69.8632 24.0026L69.5764 24.4027L69.5821 24.4066L69.8632 24.0026ZM69.8971 24.0261L69.6159 24.4303L69.6222 24.4345L69.8971 24.0261ZM71.4343 24.1734L71.2676 23.7102L71.2546 23.7149L71.2419 23.7202L71.4343 24.1734ZM72.4812 22.9527L72.0089 22.8138L72.0024 22.8359L71.998 22.8585L72.4812 22.9527ZM72.4959 22.9027L72.9681 23.0416L72.9768 23.0121L72.9817 22.9817L72.4959 22.9027ZM74.0154 21.6099V21.1176L74.0152 21.1176L74.0154 21.6099ZM75.3112 21.6099V22.1021L75.3114 22.1021L75.3112 21.6099ZM76.8749 22.935L76.3893 23.0156L76.3917 23.0302L76.395 23.0447L76.8749 22.935ZM76.8984 23.0381L77.3818 22.9448L77.3802 22.9366L77.3783 22.9284L76.8984 23.0381ZM77.8938 24.2161L78.088 23.7637L78.0773 23.7591L78.0664 23.7551L77.8938 24.2161ZM79.4045 24.0688L79.6824 24.4753L79.6921 24.4683L79.4045 24.0688ZM79.4781 24.0158L79.7658 24.4153L79.7659 24.4152L79.4781 24.0158ZM81.5057 24.1792L81.854 23.8314L81.8537 23.8312L81.5057 24.1792ZM82.4937 25.1687L82.8427 24.8216L82.842 24.8209L82.4937 25.1687ZM82.6409 27.0196L82.2414 26.732L82.237 26.7381L82.2328 26.7443L82.6409 27.0196ZM82.5334 28.623L82.9856 28.4286L82.9804 28.4165L82.9746 28.4047L82.5334 28.623ZM82.5967 28.7703L83.0522 28.5833L83.0489 28.5758L82.5967 28.7703ZM83.7835 29.7391L83.6914 30.2229L83.7043 30.225L83.7835 29.7391ZM84.9968 31.1615H85.489L85.489 31.1599L84.9968 31.1615ZM84.9968 32.8003L85.489 32.8005V32.8003H84.9968ZM83.9307 34.0577L83.85 33.572L83.838 33.5743L83.9307 34.0577ZM82.8573 35.0119L83.322 35.1745L83.3244 35.1676L83.3266 35.1606L82.8573 35.0119ZM82.6276 35.6008L83.0757 35.8049L83.0799 35.7953L82.6276 35.6008ZM82.7425 36.926L82.3362 37.2042L82.3428 37.2134L82.7425 36.926ZM82.6129 38.5207L82.2649 38.1726L82.2647 38.1728L82.6129 38.5207ZM81.2421 39.893L81.5901 40.2411L81.5904 40.2409L81.2421 39.893ZM79.7814 40.0122L80.0685 39.6122L80.0591 39.6058L79.7814 40.0122ZM78.5152 39.9386L78.7337 40.3798L78.7439 40.3745L78.5152 39.9386ZM77.6317 40.317L77.7923 40.7824L77.8002 40.7795L77.6317 40.317ZM76.8189 41.2608L76.3347 41.1711L76.3325 41.1851L76.8189 41.2608ZM75.7028 42.2238V42.7161L75.7065 42.716L75.7028 42.2238ZM73.6591 41.7316C73.3603 41.7316 73.1053 41.5153 73.0567 41.2204L72.0853 41.3808C72.2125 42.151 72.8784 42.7161 73.6591 42.7161L73.6591 41.7316ZM73.0548 41.2097C72.9406 40.6015 72.5026 40.1046 71.9136 39.9148L71.6116 40.8518C71.8571 40.9309 72.0396 41.138 72.0872 41.3914L73.0548 41.2097ZM71.9225 39.9177C71.6017 39.8076 71.2881 39.6777 70.9834 39.5288L70.5511 40.4132C70.8923 40.58 71.2435 40.7255 71.6028 40.8489L71.9225 39.9177ZM70.9914 39.5327C70.4465 39.2541 69.7929 39.2957 69.2878 39.6413L69.8437 40.4538C70.0511 40.312 70.3194 40.2949 70.5431 40.4093L70.9914 39.5327ZM69.2784 39.6479C69.0431 39.8171 68.7199 39.7909 68.515 39.586L67.819 40.2823C68.3651 40.8282 69.2263 40.898 69.8531 40.4472L69.2784 39.6479ZM68.515 39.5861L67.0544 38.1255L66.3582 38.8216L67.8189 40.2823L68.515 39.5861ZM67.0544 38.1255C66.8315 37.9026 66.8026 37.5512 66.9859 37.2949L66.1852 36.7221C65.7217 37.3701 65.7949 38.2582 66.3582 38.8216L67.0544 38.1255ZM66.9918 37.2865C67.3406 36.7769 67.3909 36.1198 67.1236 35.563L66.236 35.9891C66.351 36.2286 66.3294 36.5112 66.1794 36.7304L66.9918 37.2865ZM67.1278 35.5721C67.0091 35.3114 66.9045 35.0446 66.8142 34.7728L65.8799 35.083C65.9811 35.3881 66.0986 35.6875 66.2318 35.98L67.1278 35.5721ZM66.8183 34.7858C66.6282 34.1556 66.1033 33.6835 65.4566 33.5609L65.2732 34.5281C65.5594 34.5824 65.7916 34.7913 65.8758 35.0701L66.8183 34.7858ZM65.4426 33.5584C65.1176 33.5065 64.8776 33.2273 64.8751 32.8981L63.8906 32.9057C63.8968 33.7157 64.4873 34.4027 65.2873 34.5306L65.4426 33.5584ZM64.8751 32.9019V31.0746H63.8906V32.9019H64.8751ZM64.8751 31.0724C64.8732 30.6575 65.1728 30.3027 65.5821 30.2351L65.4216 29.2638C64.5353 29.4102 63.8865 30.1785 63.8906 31.0769L64.8751 31.0724ZM65.5939 30.233C66.2496 30.1083 66.7971 29.6591 67.0477 29.0405L66.1352 28.6709C66.0102 28.9795 65.737 29.2036 65.4099 29.2658L65.5939 30.233ZM67.0439 29.0496C67.0971 28.9256 67.153 28.8025 67.2118 28.6803L66.3245 28.2536C66.2596 28.3886 66.1978 28.5246 66.139 28.6618L67.0439 29.0496ZM67.205 28.6939C67.5382 28.0523 67.4922 27.2795 67.0851 26.682L66.2715 27.2363C66.4746 27.5344 66.4976 27.92 66.3313 28.24L67.205 28.6939ZM67.0779 26.6717C66.8372 26.3371 66.8741 25.8774 67.1652 25.5856L66.4682 24.8903C65.8367 25.5234 65.7565 26.5208 66.2788 27.2467L67.0779 26.6717ZM67.1648 25.586L68.2382 24.5126L67.5421 23.8164L66.4687 24.8898L67.1648 25.586ZM68.2383 24.5125C68.5973 24.1533 69.1636 24.1069 69.5765 24.4027L70.1499 23.6024C69.3454 23.0259 68.2418 23.1165 67.542 23.8165L68.2383 24.5125ZM69.5821 24.4066L69.6159 24.4302L70.1782 23.622L70.1443 23.5985L69.5821 24.4066ZM69.6222 24.4345C70.2149 24.8334 70.969 24.9056 71.6266 24.6265L71.2419 23.7202C70.8909 23.8692 70.4883 23.8307 70.1719 23.6177L69.6222 24.4345ZM71.601 24.6365C72.3036 24.3836 72.8214 23.7799 72.9643 23.0469L71.998 22.8585C71.9214 23.2512 71.644 23.5747 71.2676 23.7102L71.601 24.6365ZM72.9534 23.0916L72.9681 23.0416L72.0236 22.7638L72.0089 22.8138L72.9534 23.0916ZM72.9817 22.9817C73.0642 22.4748 73.502 22.1023 74.0156 22.1021L74.0152 21.1176C73.0191 21.118 72.17 21.8404 72.01 22.8236L72.9817 22.9817ZM74.0154 22.1021H75.3112V21.1176H74.0154V22.1021ZM75.3114 22.1021C75.8458 22.1019 76.3018 22.4884 76.3893 23.0156L77.3605 22.8545C77.1943 21.8521 76.3271 21.1171 75.3109 21.1176L75.3114 22.1021ZM76.395 23.0447L76.4186 23.1478L77.3783 22.9284L77.3548 22.8254L76.395 23.0447ZM76.4151 23.1314C76.5517 23.8389 77.0464 24.4244 77.7212 24.677L78.0664 23.7551C77.7127 23.6226 77.4534 23.3157 77.3818 22.9448L76.4151 23.1314ZM77.6996 24.6684C78.3501 24.9476 79.0981 24.8747 79.6824 24.4752L79.1267 23.6625C78.8206 23.8718 78.4287 23.91 78.088 23.7637L77.6996 24.6684ZM79.6921 24.4683L79.7658 24.4153L79.1905 23.6163L79.1169 23.6693L79.6921 24.4683ZM79.7659 24.4152C80.1946 24.1062 80.784 24.1538 81.1576 24.5273L81.8537 23.8312C81.1387 23.1162 80.0107 23.0252 79.1903 23.6165L79.7659 24.4152ZM81.1573 24.5271L82.1453 25.5165L82.842 24.8209L81.854 23.8314L81.1573 24.5271ZM82.1446 25.5158C82.4699 25.843 82.5109 26.3575 82.2414 26.732L83.0404 27.3071C83.5912 26.5417 83.5076 25.4903 82.8427 24.8216L82.1446 25.5158ZM82.2328 26.7443C81.8126 27.3673 81.7589 28.1679 82.0922 28.8414L82.9746 28.4047C82.7982 28.0482 82.8266 27.6245 83.049 27.2948L82.2328 26.7443ZM82.0812 28.8175L82.1445 28.9647L83.0489 28.5758L82.9856 28.4286L82.0812 28.8175ZM82.1414 28.9572C82.411 29.6139 82.9941 30.09 83.6915 30.2227L83.8755 29.2555C83.5051 29.185 83.1953 28.9322 83.0521 28.5833L82.1414 28.9572ZM83.7043 30.225C84.1645 30.3 84.503 30.6968 84.5045 31.1631L85.489 31.1599C85.4859 30.2122 84.798 29.4058 83.8627 29.2533L83.7043 30.225ZM84.5045 31.1615V32.8003H85.489V31.1615H84.5045ZM84.5045 32.8001C84.5044 33.1829 84.2276 33.5094 83.85 33.5722L84.0115 34.5433C84.8638 34.4017 85.4887 33.6645 85.489 32.8005L84.5045 32.8001ZM83.838 33.5743C83.1548 33.7053 82.5983 34.2 82.3881 34.8631L83.3266 35.1606C83.4276 34.8419 83.6951 34.6041 84.0234 34.5412L83.838 33.5743ZM82.3927 34.8493C82.3279 35.0345 82.2555 35.2202 82.1754 35.4064L83.0799 35.7953C83.1687 35.5888 83.2494 35.3819 83.322 35.1745L82.3927 34.8493ZM82.1797 35.3968C81.9117 35.9851 81.9712 36.6707 82.3363 37.2041L83.1487 36.648C82.9784 36.3991 82.9506 36.0793 83.0756 35.8049L82.1797 35.3968ZM82.3428 37.2134C82.5553 37.509 82.5223 37.9151 82.2649 38.1726L82.961 38.8687C83.5596 38.2702 83.6363 37.3261 83.1422 36.6387L82.3428 37.2134ZM82.2647 38.1728L80.8938 39.5451L81.5904 40.2409L82.9612 38.8685L82.2647 38.1728ZM80.8941 39.5449C80.6724 39.7664 80.323 39.7949 80.0684 39.6123L79.4945 40.4122C80.1407 40.8759 81.0277 40.8034 81.5901 40.2411L80.8941 39.5449ZM80.0591 39.6058C79.5328 39.2462 78.8509 39.2065 78.2865 39.5027L78.7439 40.3745C78.9858 40.2475 79.2781 40.2645 79.5038 40.4187L80.0591 39.6058ZM78.2966 39.4975C78.0256 39.6318 77.7474 39.751 77.4632 39.8545L77.8002 40.7795C78.1185 40.6636 78.4301 40.5301 78.7337 40.3797L78.2966 39.4975ZM77.4712 39.8517C76.8824 40.0548 76.4484 40.5588 76.3349 41.1711L77.3029 41.3505C77.3518 41.0869 77.5387 40.8698 77.7922 40.7824L77.4712 39.8517ZM76.3325 41.1851C76.2838 41.4978 76.0157 41.7292 75.6991 41.7316L75.7065 42.716C76.5054 42.7101 77.1823 42.126 77.3053 41.3366L76.3325 41.1851ZM75.7028 41.7316H73.6591V42.7161H75.7028V41.7316ZM77.6326 31.9167C77.6326 33.542 76.315 34.8596 74.6896 34.8596V35.8441C76.8587 35.8441 78.6171 34.0858 78.6171 31.9167H77.6326ZM74.6896 34.8596C73.0643 34.8596 71.7467 33.542 71.7467 31.9167H70.7622C70.7622 34.0858 72.5206 35.8441 74.6896 35.8441V34.8596ZM71.7467 31.9167C71.7467 30.2914 73.0643 28.9738 74.6896 28.9738V27.9893C72.5206 27.9893 70.7622 29.7476 70.7622 31.9167H71.7467ZM74.6896 28.9738C76.315 28.9738 77.6326 30.2914 77.6326 31.9167H78.6171C78.6171 29.7476 76.8587 27.9893 74.6896 27.9893V28.9738Z" fill="#282F38"/>
</svg>
