<svg width="100" height="79" viewBox="0 0 100 79" fill="none" xmlns="http://www.w3.org/2000/svg">
<path d="M64.8079 7.04958L64.8079 72.1252C64.8079 72.9742 64.1197 73.6624 63.2707 73.6624L34.6581 73.6624L29.1546 73.6624L17.0524 73.6624C16.2034 73.6624 15.5152 72.9742 15.5152 72.1252L15.5152 18.8408C15.5152 17.9918 16.2034 17.3035 17.0524 17.3035L26.0098 17.3035C27.1612 17.3035 28.0946 16.3701 28.0946 15.2187L28.0946 7.04959C28.0946 6.20061 28.7828 5.51239 29.6318 5.51239L63.2707 5.51238C64.1197 5.51238 64.8079 6.20061 64.8079 7.04958Z" fill="#DDEAFF" stroke="#282F38" stroke-width="1.0248" stroke-linecap="round"/>
<path d="M38.7344 69.3782C39.5206 67.282 41.093 62.4608 41.093 59.9453C41.8792 63.8757 44.2379 70.3215 47.3827 64.6618C48.1689 67.02 52.2572 67.6489 59.1759 67.02" stroke="#282F38" stroke-width="0.703297" stroke-linecap="round"/>
<path d="M28.4297 28.1421H40.1232" stroke="#282F38" stroke-width="0.703297" stroke-linecap="round"/>
<path d="M28.4297 53.3804H42.3481" stroke="#282F38" stroke-width="0.703297" stroke-linecap="round"/>
<path d="M28.4297 31.3086H38.1389" stroke="#282F38" stroke-width="0.703297" stroke-linecap="round"/>
<path d="M28.4297 56.5469H39.9862" stroke="#282F38" stroke-width="0.703297" stroke-linecap="round"/>
<path d="M28.4297 34.4751H46.7153" stroke="#282F38" stroke-width="0.703297" stroke-linecap="round"/>
<path d="M16.8226 17.4263L28.4297 6.48599L28.4297 14.9016C28.4297 14.9016 28.4297 15.7432 27.6006 16.5847C26.7715 17.4263 25.9424 17.4263 25.9424 17.4263L16.8226 17.4263Z" fill="#F6F6F7" stroke="#282F38" stroke-width="1.0248" stroke-linecap="round"/>
<circle cx="22.94" cy="31.3087" r="2.81492" fill="#F5F5FB" stroke="#282F38" stroke-width="0.703297"/>
<circle cx="22.94" cy="54.9639" r="2.81492" fill="#F5F5FB" stroke="#282F38" stroke-width="0.703297"/>
<path d="M50.2954 42.3999C50.2954 41.0405 51.3974 39.9391 52.757 39.9391H82.1874C83.5469 39.9391 84.6489 41.0411 84.6489 42.4006V50.967C84.6489 52.3265 83.5469 53.4286 82.1874 53.4286H49.9438H43.95C43.6604 53.4286 43.4486 53.3889 43.3072 53.3327C43.1659 53.2765 43.1211 53.2157 43.1074 53.1852C43.0959 53.1597 43.081 53.1006 43.1332 52.9815C43.1874 52.858 43.3053 52.6939 43.5189 52.5003C44.5275 51.5863 46.2311 50.1278 49.1053 47.8086C49.8515 47.2066 50.2954 46.2962 50.2954 45.3336V45.3285V45.3233V45.3182V45.3131V45.308V45.3028V45.2977V45.2925V45.2874V45.2822V45.277V45.2719V45.2667V45.2615V45.2563V45.2512V45.246V45.2408V45.2356V45.2304V45.2252V45.22V45.2147V45.2095V45.2043V45.1991V45.1938V45.1886V45.1834V45.1781V45.1729V45.1676V45.1624V45.1571V45.1518V45.1466V45.1413V45.136V45.1307V45.1254V45.1201V45.1148V45.1095V45.1042V45.0989V45.0936V45.0883V45.083V45.0776V45.0723V45.067V45.0616V45.0563V45.051V45.0456V45.0403V45.0349V45.0295V45.0242V45.0188V45.0134V45.0081V45.0027V44.9973V44.9919V44.9865V44.9811V44.9757V44.9703V44.9649V44.9595V44.9541V44.9487V44.9433V44.9378V44.9324V44.927V44.9215V44.9161V44.9107V44.9052V44.8998V44.8943V44.8888V44.8834V44.8779V44.8725V44.867V44.8615V44.856V44.8505V44.8451V44.8396V44.8341V44.8286V44.8231V44.8176V44.8121V44.8066V44.8011V44.7955V44.79V44.7845V44.779V44.7734V44.7679V44.7624V44.7568V44.7513V44.7458V44.7402V44.7347V44.7291V44.7235V44.718V44.7124V44.7068V44.7013V44.6957V44.6901V44.6845V44.679V44.6734V44.6678V44.6622V44.6566V44.651V44.6454V44.6398V44.6342V44.6286V44.623V44.6174V44.6117V44.6061V44.6005V44.5949V44.5892V44.5836V44.578V44.5723V44.5667V44.561V44.5554V44.5497V44.5441V44.5384V44.5328V44.5271V44.5215V44.5158V44.5101V44.5044V44.4988V44.4931V44.4874V44.4817V44.476V44.4704V44.4647V44.459V44.4533V44.4476V44.4419V44.4362V44.4305V44.4248V44.4191V44.4134V44.4076V44.4019V44.3962V44.3905V44.3848V44.379V44.3733V44.3676V44.3618V44.3561V44.3504V44.3446V44.3389V44.3331V44.3274V44.3216V44.3159V44.3101V44.3044V44.2986V44.2929V44.2871V44.2813V44.2756V44.2698V44.264V44.2583V44.2525V44.2467V44.2409V44.2351V44.2294V44.2236V44.2178V44.212V44.2062V44.2004V44.1946V44.1888V44.183V44.1772V44.1714V44.1656V44.1598V44.154V44.1482V44.1424V44.1366V44.1308V44.1249V44.1191V44.1133V44.1075V44.1017V44.0958V44.09V44.0842V44.0783V44.0725V44.0667V44.0608V44.055V44.0492V44.0433V44.0375V44.0316V44.0258V44.0199V44.0141V44.0082V44.0024V43.9965V43.9907V43.9848V43.979V43.9731V43.9673V43.9614V43.9555V43.9497V43.9438V43.9379V43.9321V43.9262V43.9203V43.9145V43.9086V43.9027V43.8968V43.8909V43.8851V43.8792V43.8733V43.8674V43.8615V43.8557V43.8498V43.8439V43.838V43.8321V43.8262V43.8203V43.8144V43.8085V43.8026V43.7968V43.7909V43.785V43.7791V43.7732V43.7673V43.7614V43.7555V43.7496V43.7436V43.7377V43.7318V43.7259V43.72V43.7141V43.7082V43.7023V43.6964V43.6905V43.6846V43.6786V43.6727V43.6668V43.6609V43.655V43.6491V43.6431V43.6372V43.6313V43.6254V43.6195V43.6135V43.6076V43.6017V43.5958V43.5899V43.5839V43.578V43.5721V43.5662V43.5602V43.5543V43.5484V43.5424V43.5365V43.5306V43.5247V43.5187V43.5128V43.5069V43.5009V43.495V43.4891V43.4831V43.4772V43.4713V43.4654V43.4594V43.4535V43.4476V43.4416V43.4357V43.4297V43.4238V43.4179V43.4119V43.406V43.4001V43.3941V43.3882V43.3823V43.3763V43.3704V43.3645V43.3585V43.3526V43.3467V43.3407V43.3348V43.3288V43.3229V43.317V43.311V43.3051V43.2992V43.2932V43.2873V43.2814V43.2754V43.2695V43.2636V43.2576V43.2517V43.2458V43.2398V43.2339V43.228V43.222V43.2161V43.2102V43.2042V43.1983V43.1924V43.1864V43.1805V43.1746V43.1686V43.1627V43.1568V43.1508V43.1449V43.139V43.1331V43.1271V43.1212V43.1153V43.1093V43.1034V43.0975V43.0916V43.0856V43.0797V43.0738V43.0679V43.062V43.056V43.0501V43.0442V43.0383V43.0324V43.0264V43.0205V43.0146V43.0087V43.0028V42.9969V42.9909V42.985V42.9791V42.9732V42.9673V42.9614V42.9555V42.9496V42.9437V42.9378V42.9318V42.9259V42.92V42.9141V42.9082V42.9023V42.8964V42.8905V42.8846V42.8787V42.8728V42.867V42.8611V42.8552V42.8493V42.8434V42.8375V42.8316V42.8257V42.8198V42.814V42.8081V42.8022V42.7963V42.7904V42.7845V42.7787V42.7728V42.7669V42.761V42.7552V42.7493V42.7434V42.7376V42.7317V42.7258V42.72V42.7141V42.7082V42.7024V42.6965V42.6907V42.6848V42.679V42.6731V42.6672V42.6614V42.6555V42.6497V42.6439V42.638V42.6322V42.6263V42.6205V42.6147V42.6088V42.603V42.5971V42.5913V42.5855V42.5797V42.5738V42.568V42.5622V42.5564V42.5505V42.5447V42.5389V42.5331V42.5273V42.5215V42.5157V42.5099V42.5041V42.4983V42.4925V42.4867V42.4809V42.4751V42.4693V42.4635V42.4577V42.4519V42.4461V42.4403V42.4346V42.4288V42.423V42.4172V42.4114V42.4057V42.3999Z" fill="#F5F5FB" stroke="#282F38" stroke-width="0.703297"/>
<path d="M57.875 46.6841H64.9579" stroke="#282F38" stroke-width="0.703297" stroke-linecap="round"/>
<path d="M67.5625 46.6841H79.0253" stroke="#282F38" stroke-width="0.703297" stroke-linecap="round"/>
<path d="M50.2954 19.1698C50.2954 17.8104 51.3973 16.7091 52.757 16.7091H82.1874C83.5469 16.7091 84.6489 17.8111 84.6489 19.1706V29.7606C84.6489 31.1201 83.5469 32.2222 82.1874 32.2222H49.9438H44.0217C43.401 32.2222 43.1656 32.0387 43.1091 31.9235C43.0619 31.8273 43.0479 31.5649 43.4742 31.1218C44.4909 30.065 46.2442 28.3473 49.2646 25.566C49.9167 24.9656 50.2954 24.1176 50.2954 23.228V23.2212V23.2144V23.2076V23.2008V23.194V23.1871V23.1803V23.1734V23.1666V23.1597V23.1528V23.1459V23.139V23.1321V23.1252V23.1183V23.1114V23.1044V23.0975V23.0905V23.0836V23.0766V23.0696V23.0626V23.0556V23.0486V23.0416V23.0346V23.0275V23.0205V23.0134V23.0064V22.9993V22.9922V22.9852V22.9781V22.971V22.9639V22.9567V22.9496V22.9425V22.9353V22.9282V22.921V22.9139V22.9067V22.8995V22.8923V22.8851V22.8779V22.8707V22.8635V22.8563V22.849V22.8418V22.8345V22.8273V22.82V22.8127V22.8055V22.7982V22.7909V22.7836V22.7763V22.7689V22.7616V22.7543V22.7469V22.7396V22.7322V22.7249V22.7175V22.7101V22.7027V22.6954V22.688V22.6806V22.6731V22.6657V22.6583V22.6509V22.6434V22.636V22.6285V22.6211V22.6136V22.6061V22.5986V22.5911V22.5836V22.5761V22.5686V22.5611V22.5536V22.5461V22.5385V22.531V22.5234V22.5159V22.5083V22.5008V22.4932V22.4856V22.478V22.4704V22.4628V22.4552V22.4476V22.44V22.4324V22.4247V22.4171V22.4095V22.4018V22.3942V22.3865V22.3788V22.3712V22.3635V22.3558V22.3481V22.3404V22.3327V22.325V22.3173V22.3096V22.3018V22.2941V22.2864V22.2786V22.2709V22.2631V22.2554V22.2476V22.2398V22.2321V22.2243V22.2165V22.2087V22.2009V22.1931V22.1853V22.1775V22.1697V22.1618V22.154V22.1462V22.1383V22.1305V22.1227V22.1148V22.1069V22.0991V22.0912V22.0833V22.0755V22.0676V22.0597V22.0518V22.0439V22.036V22.0281V22.0202V22.0123V22.0043V21.9964V21.9885V21.9805V21.9726V21.9647V21.9567V21.9488V21.9408V21.9328V21.9249V21.9169V21.9089V21.9009V21.893V21.885V21.877V21.869V21.861V21.853V21.845V21.837V21.8289V21.8209V21.8129V21.8049V21.7968V21.7888V21.7808V21.7727V21.7647V21.7566V21.7486V21.7405V21.7324V21.7244V21.7163V21.7082V21.7001V21.6921V21.684V21.6759V21.6678V21.6597V21.6516V21.6435V21.6354V21.6273V21.6192V21.6111V21.6029V21.5948V21.5867V21.5786V21.5704V21.5623V21.5542V21.546V21.5379V21.5297V21.5216V21.5134V21.5053V21.4971V21.489V21.4808V21.4726V21.4645V21.4563V21.4481V21.4399V21.4318V21.4236V21.4154V21.4072V21.399V21.3908V21.3826V21.3744V21.3662V21.358V21.3498V21.3416V21.3334V21.3252V21.317V21.3087V21.3005V21.2923V21.2841V21.2758V21.2676V21.2594V21.2512V21.2429V21.2347V21.2264V21.2182V21.21V21.2017V21.1935V21.1852V21.177V21.1687V21.1605V21.1522V21.144V21.1357V21.1274V21.1192V21.1109V21.1026V21.0944V21.0861V21.0778V21.0696V21.0613V21.053V21.0447V21.0365V21.0282V21.0199V21.0116V21.0034V20.9951V20.9868V20.9785V20.9702V20.9619V20.9536V20.9453V20.9371V20.9288V20.9205V20.9122V20.9039V20.8956V20.8873V20.879V20.8707V20.8624V20.8541V20.8458V20.8375V20.8292V20.8209V20.8126V20.8043V20.796V20.7877V20.7794V20.7711V20.7628V20.7545V20.7462V20.7378V20.7295V20.7212V20.7129V20.7046V20.6963V20.688V20.6797V20.6714V20.6631V20.6548V20.6465V20.6381V20.6298V20.6215V20.6132V20.6049V20.5966V20.5883V20.58V20.5717V20.5634V20.5551V20.5468V20.5385V20.5301V20.5218V20.5135V20.5052V20.4969V20.4886V20.4803V20.472V20.4637V20.4554V20.4471V20.4388V20.4305V20.4222V20.4139V20.4056V20.3973V20.389V20.3807V20.3724V20.3641V20.3558V20.3475V20.3393V20.331V20.3227V20.3144V20.3061V20.2978V20.2895V20.2813V20.273V20.2647V20.2564V20.2481V20.2399V20.2316V20.2233V20.215V20.2068V20.1985V20.1902V20.182V20.1737V20.1654V20.1572V20.1489V20.1406V20.1324V20.1241V20.1159V20.1076V20.0994V20.0911V20.0829V20.0746V20.0664V20.0582V20.0499V20.0417V20.0334V20.0252V20.017V20.0088V20.0005V19.9923V19.9841V19.9759V19.9676V19.9594V19.9512V19.943V19.9348V19.9266V19.9184V19.9102V19.902V19.8938V19.8856V19.8774V19.8692V19.861V19.8528V19.8447V19.8365V19.8283V19.8201V19.812V19.8038V19.7956V19.7875V19.7793V19.7712V19.763V19.7549V19.7467V19.7386V19.7304V19.7223V19.7142V19.706V19.6979V19.6898V19.6816V19.6735V19.6654V19.6573V19.6492V19.6411V19.633V19.6249V19.6168V19.6087V19.6006V19.5925V19.5844V19.5764V19.5683V19.5602V19.5521V19.5441V19.536V19.528V19.5199V19.5119V19.5038V19.4958V19.4877V19.4797V19.4717V19.4637V19.4556V19.4476V19.4396V19.4316V19.4236V19.4156V19.4076V19.3996V19.3916V19.3836V19.3757V19.3677V19.3597V19.3517V19.3438V19.3358V19.3279V19.3199V19.312V19.304V19.2961V19.2882V19.2802V19.2723V19.2644V19.2565V19.2486V19.2407V19.2328V19.2249V19.217V19.2091V19.2012V19.1934V19.1855V19.1776V19.1698Z" fill="#F5F5FB" stroke="#282F38" stroke-width="0.703297"/>
<path d="M56.4062 20.8384H61.1104" stroke="#282F38" stroke-width="0.703297" stroke-linecap="round"/>
<path d="M56.4062 28.0928H65.4977" stroke="#282F38" stroke-width="0.703297" stroke-linecap="round"/>
<path d="M64.4844 20.8384H77.9563" stroke="#282F38" stroke-width="0.703297" stroke-linecap="round"/>
<path d="M68.7969 28.0928L77.9617 28.0928" stroke="#282F38" stroke-width="0.703297" stroke-linecap="round"/>
</svg>
