<svg width="100" height="79" viewBox="0 0 100 79" fill="none" xmlns="http://www.w3.org/2000/svg">
<path d="M18.5033 56.347C16.8666 53.5121 17.8379 49.8871 20.6728 48.2504L23.7422 46.4783C25.0651 45.7145 26.7567 46.1678 27.5205 47.4907L32.5552 56.211L37.5899 64.9313C38.3537 66.2543 37.9004 67.9459 36.5775 68.7097L33.674 70.386L33.5081 70.4818C30.6732 72.1185 27.0482 71.1472 25.4115 68.3124L18.5033 56.347Z" fill="#147AD6" stroke="#282F38" stroke-width="0.790279"/>
<circle cx="30.1932" cy="64.5726" r="3.00903" fill="#5AB063" stroke="#282F38" stroke-width="0.790279"/>
<path d="M59.5583 50.9561L52.3245 55.2113C52.6373 55.889 53.0738 56.4357 53.6011 56.8714C56.3244 56.8379 62.1115 53.4813 64.6646 51.8072C63.3029 50.1051 61.686 49.6796 59.5583 50.9561Z" fill="#D6C7AE"/>
<path fill-rule="evenodd" clip-rule="evenodd" d="M28.0698 46.2754L35.7292 42.0202C37.2894 41.0273 41.8567 39.1266 47.6438 39.467H63.388C69.3453 40.3181 68.0688 47.552 63.388 47.9775L54.4521 48.403C51.899 48.8285 50.1969 50.9561 51.899 54.3603L52.3245 55.2113C52.6373 55.889 53.0738 56.4357 53.6011 56.8714C56.5168 59.2812 61.686 59.041 65.0901 57.3389L77.8558 49.6796C82.5365 47.1264 88.0683 53.0837 82.962 57.3389L67.2177 66.2749C65.3738 67.5515 60.2392 69.7642 54.4521 68.4025L39.1333 65.4238H37.8568L27.2188 46.7009L28.0698 46.2754Z" fill="#F2E6D2"/>
<path d="M72.324 47.552L64.6646 51.8072C62.1115 53.4813 56.3244 56.8379 53.6011 56.8714C56.5168 59.2812 61.686 59.041 65.0901 57.3389L77.8558 49.6796C76.1537 47.2967 74.4516 46.7009 72.324 47.552Z" fill="#E9D9BE"/>
<path d="M28.0698 46.2754L28.2465 46.6288L28.2542 46.625L28.2617 46.6208L28.0698 46.2754ZM35.7292 42.0202L35.9211 42.3656L35.9314 42.3599L35.9413 42.3535L35.7292 42.0202ZM47.6438 39.467L47.6206 39.8615L47.6321 39.8622H47.6438V39.467ZM63.388 39.467L63.4439 39.0759L63.4161 39.0719H63.388V39.467ZM63.388 47.9775L63.4068 48.3722L63.4153 48.3718L63.4238 48.371L63.388 47.9775ZM54.4521 48.403L54.4333 48.0083L54.4101 48.0094L54.3871 48.0132L54.4521 48.403ZM59.5583 50.9561L59.7587 51.2967L59.7616 51.295L59.5583 50.9561ZM72.324 47.552L72.1772 47.1851L72.154 47.1944L72.1321 47.2066L72.324 47.552ZM65.0901 57.3389L65.2668 57.6924L65.2804 57.6856L65.2934 57.6778L65.0901 57.3389ZM53.6011 56.8714L53.3493 57.176L53.6011 56.8714ZM82.962 57.3389L83.157 57.6826L83.1878 57.6651L83.215 57.6425L82.962 57.3389ZM67.2177 66.2749L67.0227 65.9312L67.0073 65.94L66.9928 65.95L67.2177 66.2749ZM54.4521 68.4025L54.5426 68.0179L54.5351 68.0161L54.5275 68.0146L54.4521 68.4025ZM39.1333 65.4238L39.2088 65.036L39.1714 65.0287H39.1333V65.4238ZM37.8568 65.4238L37.5132 65.6191L37.6268 65.819H37.8568V65.4238ZM27.2188 46.7009L27.042 46.3475L26.6694 46.5339L26.8752 46.8961L27.2188 46.7009ZM28.2617 46.6208L35.9211 42.3656L35.5373 41.6748L27.8779 45.93L28.2617 46.6208ZM35.9413 42.3535C37.4362 41.4022 41.9218 39.5263 47.6206 39.8615L47.667 39.0726C41.7916 38.727 37.1426 40.6523 35.517 41.6868L35.9413 42.3535ZM47.6438 39.8622H63.388V39.0719H47.6438V39.8622ZM63.3322 39.8582C64.7391 40.0592 65.679 40.6294 66.2512 41.3432C66.8256 42.0596 67.0561 42.9538 66.9834 43.8499C66.8371 45.6555 65.4735 47.3911 63.3523 47.584L63.4238 48.371C65.9833 48.1383 67.5984 46.0443 67.7711 43.9138C67.8581 42.8418 67.5833 41.7414 66.8678 40.8489C66.1501 39.9536 65.0156 39.3004 63.4439 39.0759L63.3322 39.8582ZM63.3692 47.5828L54.4333 48.0083L54.4709 48.7977L63.4068 48.3722L63.3692 47.5828ZM54.3871 48.0132C53.0255 48.2402 51.835 48.9314 51.2302 50.0806C50.6213 51.2374 50.657 52.7598 51.5455 54.537L52.2524 54.1836C51.4389 52.5566 51.4745 51.3132 51.9295 50.4487C52.3885 49.5767 53.3255 48.9914 54.5171 48.7928L54.3871 48.0132ZM51.5455 54.537L51.9711 55.3881L52.6779 55.0346L52.2524 54.1836L51.5455 54.537ZM52.5248 55.5519L59.7587 51.2967L59.358 50.6156L52.1241 54.8708L52.5248 55.5519ZM59.7616 51.295C60.7728 50.6883 61.6098 50.5171 62.325 50.6529C63.0417 50.7889 63.7108 51.2474 64.356 52.054L64.9732 51.5603C64.2568 50.6649 63.4365 50.0595 62.4724 49.8765C61.5068 49.6931 60.4715 49.9474 59.355 50.6173L59.7616 51.295ZM64.8565 52.1526L72.5159 47.8974L72.1321 47.2066L64.4727 51.4618L64.8565 52.1526ZM72.4707 47.9188C73.4676 47.5201 74.3205 47.4755 75.1102 47.7728C75.9121 48.0747 76.7065 48.7505 77.5342 49.9092L78.1773 49.4499C77.3029 48.2258 76.3952 47.4122 75.3887 47.0332C74.3699 46.6497 73.308 46.7328 72.1772 47.1851L72.4707 47.9188ZM77.6525 49.3407L64.8868 57.0001L65.2934 57.6778L78.059 50.0184L77.6525 49.3407ZM64.9134 56.9855C63.2708 57.8068 61.1904 58.2796 59.1678 58.252C57.1422 58.2244 55.2193 57.6962 53.8528 56.5669L53.3493 57.176C54.8986 58.4564 57.0181 59.0131 59.157 59.0422C61.299 59.0715 63.5052 58.5732 65.2668 57.6924L64.9134 56.9855ZM53.8528 56.5669C53.3696 56.1675 52.9704 55.6678 52.6833 55.0458L51.9657 55.3769C52.3042 56.1103 52.778 56.7039 53.3493 57.176L53.8528 56.5669ZM64.4479 51.4767C63.1814 52.3072 61.1098 53.5567 59.02 54.601C57.9751 55.1232 56.9319 55.591 55.9864 55.9294C55.0335 56.2705 54.2106 56.4688 53.5962 56.4763L53.6059 57.2666C54.3531 57.2573 55.2749 57.0234 56.2528 56.6734C57.2381 56.3207 58.3119 55.8384 59.3733 55.308C61.4961 54.2471 63.5946 52.9813 64.8813 52.1376L64.4479 51.4767ZM78.045 50.0265C80.1955 48.8534 82.5423 49.631 83.7676 51.1994C84.3768 51.9792 84.6972 52.9417 84.5839 53.9436C84.471 54.9421 83.9219 56.0247 82.709 57.0354L83.215 57.6425C84.5553 56.5256 85.2295 55.2678 85.3692 54.0324C85.5086 52.8002 85.1109 51.6351 84.3904 50.7129C82.9562 48.8771 80.1967 47.9526 77.6665 49.3327L78.045 50.0265ZM82.767 56.9953L67.0227 65.9312L67.4128 66.6185L83.157 57.6826L82.767 56.9953ZM66.9928 65.95C65.2155 67.1805 60.194 69.3476 54.5426 68.0179L54.3616 68.7871C60.2843 70.1807 65.5321 67.9224 67.4426 66.5998L66.9928 65.95ZM54.5275 68.0146L39.2088 65.036L39.0579 65.8117L54.3767 68.7904L54.5275 68.0146ZM39.1333 65.0287H37.8568V65.819H39.1333V65.0287ZM38.2003 65.2286L27.5623 46.5057L26.8752 46.8961L37.5132 65.6191L38.2003 65.2286ZM27.3955 47.0543L28.2465 46.6288L27.8931 45.922L27.042 46.3475L27.3955 47.0543Z" fill="#282F38"/>
<path d="M52.596 14.0578C52.596 12.0278 54.2417 10.3821 56.2717 10.3821H72.5313C74.5614 10.3821 76.207 12.0278 76.207 14.0578V24.9018C76.207 26.9319 74.5613 28.5776 72.5313 28.5776H69.7431C68.4667 28.5776 67.2648 29.1781 66.4984 30.1987C65.1898 31.9413 62.6254 32.0807 61.1355 30.4903L60.5964 29.9148C59.7972 29.0617 58.6804 28.5776 57.5115 28.5776H56.2717C54.2417 28.5776 52.596 26.9319 52.596 24.9018V14.0578Z" fill="#5AB063" stroke="#282F38" stroke-width="0.551353"/>
<path d="M58.6328 17.1016H69.591" stroke="#F5F5FB" stroke-width="0.551353" stroke-linecap="round"/>
<path d="M58.6328 22.0361H67.4978" stroke="#F5F5FB" stroke-width="0.551353" stroke-linecap="round"/>
<rect x="57.4297" y="10.1064" width="3.40417" height="18.7229" rx="1.70208" fill="black" fill-opacity="0.2"/>
<path d="M25.4811 8.95139C25.4811 6.98733 27.0733 5.39514 29.0373 5.39514H55.7676C57.7317 5.39514 59.3239 6.98733 59.3239 8.95139V27.9192C59.3239 29.8833 57.7317 31.4755 55.7676 31.4755H49.3245C47.9574 31.4755 46.6699 32.1188 45.8489 33.212L44.3569 35.1988C43.0297 36.9662 40.4289 37.1076 38.9178 35.4946L36.441 32.8505C35.6193 31.9733 34.4709 31.4755 33.2689 31.4755H29.0373C27.0733 31.4755 25.4811 29.8833 25.4811 27.9192V8.95139Z" fill="#147AD6" stroke="#282F38" stroke-width="0.790279"/>
<path d="M34.1328 15.0273H49.8397" stroke="#F5F5FB" stroke-width="0.790279" stroke-linecap="round"/>
<path d="M34.1328 22.0996H46.8395" stroke="#F5F5FB" stroke-width="0.790279" stroke-linecap="round"/>
</svg>
