<svg width="100" height="79" viewBox="0 0 100 79" fill="none" xmlns="http://www.w3.org/2000/svg">
<rect x="15" y="11" width="70" height="43.96" fill="#F5F5FB"/>
<path d="M39.4609 40.6256V42.9898H60.2922V40.6256C60.2922 36.9991 55.1788 35.1584 49.9554 35.1655C44.7632 35.1727 39.4609 36.7863 39.4609 40.6256Z" fill="#364A69"/>
<path d="M49.9837 35.1655C47.9063 35.1655 46.5078 35.4189 46.5078 35.4189L48.0378 42.9898H49.9837V35.1655Z" fill="#B6BCCD"/>
<path d="M49.875 35.1655C51.8831 35.1655 53.2505 35.4165 53.2505 35.4165L51.7133 42.9898H49.875V35.1655Z" fill="#B6BCCD"/>
<path d="M50.5529 39.6645H49.2047L48.7815 37.8716H50.9617L50.5529 39.6645ZM51.031 44.0368H48.7266L49.2047 39.6645H50.5529L51.031 44.0368Z" fill="#E9573F"/>
<path d="M49.8725 33.9697H47.7019V36.2622C47.7019 37.2997 48.4716 37.8352 49.5617 37.8352L50.4391 37.7946C51.5291 37.7946 52.0455 37.2973 52.0455 36.2622V33.9697H49.8725ZM57.5557 24.9717C57.5557 24.9717 58.9637 25.2155 58.9637 26.7335C58.9637 28.0722 57.9358 28.6005 56.9079 28.6005V24.9717H57.5557ZM42.1893 24.9717C42.1893 24.9717 40.7812 25.2155 40.7812 26.7335C40.7812 28.0722 41.8092 28.6005 42.8371 28.6005V24.9717H42.1893Z" fill="#C99C29"/>
<path d="M49.8781 15.0342C43.8061 15.0342 42.2188 19.7412 42.2188 26.3534C42.2188 33.2095 46.6245 34.9833 49.8781 34.9833C53.0838 34.9833 57.5374 33.2621 57.5374 26.3534C57.5374 19.7412 55.95 15.0342 49.8781 15.0342Z" fill="#C99C29"/>
<path d="M50.0618 14.1715C50.0618 14.1715 49.9423 14.1667 49.8921 14.1691C49.8419 14.1691 49.7224 14.1715 49.7224 14.1715C43.1699 14.2982 41.1953 18.2402 41.1953 20.9726C41.1953 23.6285 41.1977 25.5816 41.1977 25.5816C41.1977 25.5816 41.3029 25.474 41.4941 25.3234C41.6997 25.1632 41.9268 25.0748 41.9268 25.0748L42.2567 27.2932L44.4393 22.7321C44.4536 22.7034 44.4823 22.6866 44.5134 22.6914L45.8067 22.8349C47.1071 22.9783 48.4148 23.05 49.72 23.0524V23.0548C49.7774 23.0548 49.8324 23.0524 49.8897 23.0524C49.9471 23.0524 50.0021 23.0548 50.0595 23.0548V23.0524C51.3647 23.0476 52.6723 22.9783 53.9728 22.8349L55.2661 22.6914C55.2971 22.689 55.3258 22.7058 55.3402 22.7321L57.5227 27.2932L57.8526 25.0748C57.8526 25.0748 58.0797 25.1656 58.2853 25.3234C58.479 25.474 58.5818 25.5816 58.5818 25.5816C58.5818 25.5816 58.5841 23.6309 58.5841 20.9726C58.5865 18.2402 56.6119 14.2982 50.0618 14.1715Z" fill="#282F38"/>
<path d="M52.0697 35.2607C52.0697 35.6265 51.7565 36.3174 51.2569 36.8911C50.7501 37.4744 49.9062 37.8354 49.9062 37.8354L52.39 40.4841L53.2793 35.4185C53.2793 35.4209 52.5406 35.3062 52.0697 35.2607Z" fill="white"/>
<path d="M52.8581 35.3569L51.3281 42.9899H53.0637L55.808 40.1237L54.6725 38.5459L56.3746 37.42L55.416 35.902C55.416 35.902 54.2087 35.5338 52.8581 35.3569Z" fill="#282F38"/>
<path d="M47.7354 35.2588C47.7354 35.6245 48.0486 36.3154 48.5482 36.8891C49.055 37.4724 49.8989 37.8334 49.8989 37.8334L47.4175 40.4845L46.5234 35.4142C46.5258 35.4142 47.2502 35.2994 47.7354 35.2588Z" fill="white"/>
<path d="M46.9516 35.3521L48.4816 42.9898H46.7388L44.0041 40.1116L45.1396 38.5339L43.4375 37.4079L44.4081 35.8684C44.4081 35.8684 45.5986 35.529 46.9516 35.3521Z" fill="#282F38"/>
<path d="M15.4453 24.6398V11.4805H83.9926V54.3225H15.4453V29.9827" stroke="#282F38" stroke-width="1.13763" stroke-linecap="round"/>
<path d="M20.4062 15.9741V28.3069H31.259" stroke="#282F38" stroke-width="1.13763" stroke-linecap="round"/>
<path d="M25.0391 20.8086V28.1096" stroke="#282F38" stroke-width="1.13763" stroke-linecap="round"/>
<path d="M20.4062 34.7051L20.4063 48.5337" stroke="#282F38" stroke-width="1.13763" stroke-linecap="round"/>
<path d="M80.9844 36.8672L69.8524 36.8672" stroke="#282F38" stroke-width="1.13763" stroke-linecap="round"/>
<path d="M25.0391 41.4282L25.0391 48.5334" stroke="#282F38" stroke-width="1.13763" stroke-linecap="round"/>
<path d="M75.5703 41.5044L69.8507 41.5044" stroke="#282F38" stroke-width="1.13763" stroke-linecap="round"/>
<path d="M29.9062 38.2905L29.9063 48.5339" stroke="#282F38" stroke-width="1.13763" stroke-linecap="round"/>
<path d="M78.0938 46.3711L69.8479 46.3711" stroke="#282F38" stroke-width="1.13763" stroke-linecap="round"/>
<path d="M29.9062 23.2544L29.9063 28.1098" stroke="#282F38" stroke-width="1.13763" stroke-linecap="round"/>
<rect x="34.0923" y="43.2436" width="31.5642" height="5.7635" rx="1.8255" fill="#7C828A" stroke="#282F38" stroke-width="1.13763"/>
<path d="M36.0247 49.6574C35.9972 49.5158 36.1056 49.3842 36.2498 49.3842H62.9308C63.0675 49.3842 63.1739 49.5031 63.1587 49.639L61.6219 63.3842C61.6089 63.5002 61.5108 63.588 61.394 63.588H38.9268C38.817 63.588 38.7227 63.5103 38.7017 63.4025L36.0247 49.6574Z" fill="#7C828A" stroke="#282F38" stroke-width="1.13763"/>
<path d="M36.2876 67.346C36.2876 65.4562 37.8195 63.9243 39.7093 63.9243H60.3273C62.2171 63.9243 63.749 65.4562 63.749 67.346V68.367H36.2876V67.346Z" fill="#7C828A" stroke="#282F38" stroke-width="1.13763"/>
<path d="M39.4618 30.4023L37.6045 31.9131C37.3043 32.1205 36.7152 32.8374 36.7603 34.046V42.844" stroke="#282F38" stroke-width="1.13763" stroke-linecap="round"/>
<path d="M61.6164 29.5972L63.4736 31.2058C63.7738 31.4266 64.3629 32.19 64.3179 33.4769V42.8448" stroke="#282F38" stroke-width="1.13763" stroke-linecap="round"/>
<circle cx="72.7119" cy="23.2539" r="8.05566" fill="#282F38"/>
<path d="M72.4534 30.4023C70.5576 30.4023 68.7394 29.6492 67.3989 28.3087C66.0583 26.9681 65.3052 25.1499 65.3052 23.2541C65.3052 21.3583 66.0583 19.5402 67.3989 18.1996C68.7394 16.8591 70.5576 16.106 72.4534 16.106L72.4534 23.2541L72.4534 30.4023Z" fill="#D36377"/>
<path d="M79.8655 23.6564C79.8655 24.5422 79.691 25.4193 79.352 26.2377C79.0131 27.056 78.5162 27.7996 77.8898 28.426C77.2635 29.0523 76.5199 29.5492 75.7015 29.8882C74.8832 30.2271 74.006 30.4016 73.1202 30.4016L73.1202 23.6564H79.8655Z" fill="#147AD6"/>
<path d="M73.1202 16.1057C74.006 16.1057 74.8832 16.2802 75.7015 16.6192C76.5199 16.9581 77.2635 17.455 77.8898 18.0813C78.5162 18.7077 79.013 19.4513 79.352 20.2697C79.691 21.088 79.8655 21.9652 79.8655 22.851L73.1202 22.851L73.1202 16.1057Z" fill="#5AB063"/>
</svg>
