<svg width="100" height="79" viewBox="0 0 100 79" fill="none" xmlns="http://www.w3.org/2000/svg">
<mask id="path-1-inside-1_280_46215" fill="white">
<path fill-rule="evenodd" clip-rule="evenodd" d="M83.1232 17.5932C83.1232 16.9706 82.6184 16.4658 81.9957 16.4658H17.1274C16.5048 16.4658 16 16.9706 16 17.5932V63.2835C16 63.9062 16.5048 64.4109 17.1274 64.4109H81.9957C82.6184 64.4109 83.1232 63.9062 83.1232 63.2835V17.5932ZM79.3522 53.5447C79.3522 54.1673 78.8474 54.6721 78.2248 54.6721H21.2755C20.6528 54.6721 20.1481 54.1673 20.1481 53.5447V21.3389C20.1481 20.7163 20.6528 20.2115 21.2755 20.2115H78.2248C78.8474 20.2115 79.3522 20.7163 79.3522 21.3389V53.5447Z"/>
<path d="M20.1481 53.5447C20.1481 54.1673 20.6528 54.6721 21.2755 54.6721H78.2248C78.8474 54.6721 79.3522 54.1673 79.3522 53.5447V21.3389C79.3522 20.7163 78.8474 20.2115 78.2248 20.2115H21.2755C20.6528 20.2115 20.1481 20.7163 20.1481 21.3389V53.5447Z"/>
</mask>
<path fill-rule="evenodd" clip-rule="evenodd" d="M83.1232 17.5932C83.1232 16.9706 82.6184 16.4658 81.9957 16.4658H17.1274C16.5048 16.4658 16 16.9706 16 17.5932V63.2835C16 63.9062 16.5048 64.4109 17.1274 64.4109H81.9957C82.6184 64.4109 83.1232 63.9062 83.1232 63.2835V17.5932ZM79.3522 53.5447C79.3522 54.1673 78.8474 54.6721 78.2248 54.6721H21.2755C20.6528 54.6721 20.1481 54.1673 20.1481 53.5447V21.3389C20.1481 20.7163 20.6528 20.2115 21.2755 20.2115H78.2248C78.8474 20.2115 79.3522 20.7163 79.3522 21.3389V53.5447Z" fill="#147AD6"/>
<path d="M20.1481 53.5447C20.1481 54.1673 20.6528 54.6721 21.2755 54.6721H78.2248C78.8474 54.6721 79.3522 54.1673 79.3522 53.5447V21.3389C79.3522 20.7163 78.8474 20.2115 78.2248 20.2115H21.2755C20.6528 20.2115 20.1481 20.7163 20.1481 21.3389V53.5447Z" fill="#E5E6ED"/>
<path d="M21.2755 54.9539H78.2248V54.3902H21.2755V54.9539ZM79.634 53.5447V21.3389H79.0703V53.5447H79.634ZM78.2248 19.9297H21.2755V20.4934H78.2248V19.9297ZM19.8662 21.3389V53.5447H20.4299V21.3389H19.8662ZM21.2755 19.9297C20.4972 19.9297 19.8662 20.5606 19.8662 21.3389H20.4299C20.4299 20.872 20.8085 20.4934 21.2755 20.4934V19.9297ZM79.634 21.3389C79.634 20.5606 79.0031 19.9297 78.2248 19.9297V20.4934C78.6918 20.4934 79.0703 20.872 79.0703 21.3389H79.634ZM78.2248 54.9539C79.0031 54.9539 79.634 54.323 79.634 53.5447H79.0703C79.0703 54.0117 78.6918 54.3902 78.2248 54.3902V54.9539ZM21.2755 54.3902C20.8085 54.3902 20.4299 54.0117 20.4299 53.5447H19.8662C19.8662 54.323 20.4972 54.9539 21.2755 54.9539V54.3902ZM17.1274 17.0295H81.9957V15.9021H17.1274V17.0295ZM82.5594 17.5932V63.2835H83.6869V17.5932H82.5594ZM81.9957 63.8472H17.1274V64.9746H81.9957V63.8472ZM16.5637 63.2835V17.5932H15.4363V63.2835H16.5637ZM17.1274 63.8472C16.8161 63.8472 16.5637 63.5948 16.5637 63.2835H15.4363C15.4363 64.2175 16.1934 64.9746 17.1274 64.9746V63.8472ZM82.5594 63.2835C82.5594 63.5948 82.3071 63.8472 81.9957 63.8472V64.9746C82.9297 64.9746 83.6869 64.2175 83.6869 63.2835H82.5594ZM81.9957 17.0295C82.3071 17.0295 82.5594 17.2819 82.5594 17.5932H83.6869C83.6869 16.6593 82.9297 15.9021 81.9957 15.9021V17.0295ZM17.1274 15.9021C16.1934 15.9021 15.4363 16.6593 15.4363 17.5932H16.5637C16.5637 17.2819 16.8161 17.0295 17.1274 17.0295V15.9021Z" fill="#282F38" mask="url(#path-1-inside-1_280_46215)"/>
<path d="M60.2786 71.0165L58.4139 64.3037H40.5131L38.6484 71.0165H60.2786Z" fill="#147AD6" stroke="#282F38" stroke-width="1.12741" stroke-linecap="round"/>
<rect x="34.9219" y="71.0166" width="29.0888" height="2.98347" rx="1.49173" fill="#282F38"/>
<g clip-path="url(#clip0_280_46215)">
<rect x="30.3533" y="4.72195" width="39.7" height="53.3009" rx="1.57117" fill="#DDEAFF" stroke="#282F38" stroke-width="0.628468"/>
<rect x="35.7283" y="19.5584" width="29.1038" height="9.04837" rx="0.942701" fill="#7C828A" stroke="#282F38" stroke-width="0.628468"/>
<rect x="35.7283" y="30.971" width="14.3728" height="10.9682" rx="0.942701" fill="#7C828A" stroke="#282F38" stroke-width="0.628468"/>
<rect x="52.8125" y="32.7734" width="12.338" height="2.57709" rx="1.28854" fill="#282F38"/>
<rect x="35.4141" y="46.395" width="29.7322" height="2.57709" rx="1.28854" fill="#282F38"/>
<rect x="35.4141" y="51.457" width="29.7322" height="2.57709" rx="1.28854" fill="#282F38"/>
<rect x="57.5078" y="37.8354" width="7.64413" height="2.57709" rx="1.28854" fill="#282F38"/>
<rect x="52.8125" y="37.8354" width="2.57698" height="2.57709" rx="1.28849" fill="#282F38"/>
<path d="M43.7273 8.38097V15.5298H42.7748L39.1758 10.016V15.5298H38.2282V8.38097H39.1758L42.7895 13.9095V8.38097H43.7273ZM47.4736 15.628C47.1037 15.628 46.7682 15.5658 46.467 15.4414C46.1692 15.3137 45.9122 15.1354 45.6962 14.9062C45.4834 14.6771 45.3197 14.4054 45.2052 14.0912C45.0906 13.7769 45.0333 13.4333 45.0333 13.0601V12.8539C45.0333 12.4218 45.0972 12.0372 45.2248 11.7001C45.3525 11.3596 45.526 11.0716 45.7453 10.8359C45.9646 10.6002 46.2133 10.4218 46.4916 10.3007C46.7698 10.1796 47.0579 10.1191 47.3557 10.1191C47.7354 10.1191 48.0627 10.1845 48.3377 10.3155C48.6159 10.4464 48.8434 10.6297 49.0202 10.8654C49.1969 11.0978 49.3279 11.3727 49.413 11.6902C49.4981 12.0045 49.5406 12.3482 49.5406 12.7213V13.1288H45.5734V12.3874H48.6323V12.3187C48.6192 12.083 48.5701 11.8539 48.485 11.6313C48.4032 11.4087 48.2722 11.2254 48.0922 11.0814C47.9122 10.9374 47.6667 10.8654 47.3557 10.8654C47.1495 10.8654 46.9597 10.9096 46.7862 10.9979C46.6127 11.083 46.4638 11.2107 46.3394 11.3809C46.215 11.5511 46.1184 11.759 46.0497 12.0045C45.9809 12.25 45.9466 12.5331 45.9466 12.8539V13.0601C45.9466 13.3121 45.9809 13.5495 46.0497 13.772C46.1217 13.9913 46.2248 14.1845 46.359 14.3514C46.4965 14.5183 46.6618 14.6493 46.8549 14.7442C47.0513 14.8391 47.2739 14.8866 47.5227 14.8866C47.8434 14.8866 48.1151 14.8211 48.3377 14.6902C48.5603 14.5593 48.755 14.3841 48.922 14.1648L49.4719 14.6018C49.3573 14.7753 49.2117 14.9406 49.0349 15.0977C48.8582 15.2548 48.6405 15.3825 48.3819 15.4807C48.1266 15.5789 47.8238 15.628 47.4736 15.628ZM51.9465 14.5871L53.3114 10.2173H53.9104L53.7926 11.0863L52.4031 15.5298H51.8188L51.9465 14.5871ZM51.0283 10.2173L52.192 14.6362L52.2754 15.5298H51.6617L50.12 10.2173H51.0283ZM55.2165 14.6018L56.3261 10.2173H57.2295L55.6878 15.5298H55.079L55.2165 14.6018ZM54.043 10.2173L55.3785 14.5134L55.5307 15.5298H54.9513L53.5226 11.0765L53.4047 10.2173H54.043ZM61.2557 14.1206C61.2557 13.9897 61.2262 13.8686 61.1673 13.7573C61.1116 13.6427 60.9954 13.5396 60.8187 13.448C60.6452 13.3531 60.3833 13.2712 60.0331 13.2025C59.7385 13.1403 59.4717 13.0667 59.2328 12.9815C58.9971 12.8964 58.7958 12.7933 58.6289 12.6722C58.4652 12.5511 58.3392 12.4087 58.2508 12.2451C58.1624 12.0814 58.1182 11.8899 58.1182 11.6706C58.1182 11.4611 58.1641 11.2631 58.2557 11.0765C58.3506 10.8899 58.4832 10.7246 58.6534 10.5806C58.8269 10.4366 59.0347 10.3237 59.277 10.2418C59.5192 10.16 59.7892 10.1191 60.0871 10.1191C60.5126 10.1191 60.876 10.1944 61.1771 10.3449C61.4782 10.4955 61.709 10.6968 61.8694 10.9488C62.0298 11.1976 62.11 11.4742 62.11 11.7786H61.2016C61.2016 11.6313 61.1575 11.4889 61.0691 11.3515C60.984 11.2107 60.858 11.0945 60.691 11.0029C60.5274 10.9112 60.326 10.8654 60.0871 10.8654C59.8351 10.8654 59.6305 10.9047 59.4734 10.9832C59.3195 11.0585 59.2066 11.1551 59.1346 11.2729C59.0658 11.3907 59.0315 11.5151 59.0315 11.6461C59.0315 11.7443 59.0478 11.8326 59.0806 11.9112C59.1166 11.9865 59.1788 12.0568 59.2671 12.1223C59.3555 12.1845 59.4799 12.2434 59.6403 12.2991C59.8007 12.3547 60.0053 12.4104 60.254 12.466C60.6894 12.5642 61.0478 12.682 61.3293 12.8195C61.6108 12.957 61.8203 13.1256 61.9578 13.3252C62.0952 13.5249 62.164 13.7671 62.164 14.0519C62.164 14.2843 62.1149 14.4971 62.0167 14.6902C61.9218 14.8833 61.7827 15.0503 61.5993 15.191C61.4193 15.3285 61.2033 15.4365 60.9512 15.5151C60.7025 15.5903 60.4226 15.628 60.1116 15.628C59.6436 15.628 59.2475 15.5445 58.9235 15.3776C58.5994 15.2106 58.3539 14.9946 58.187 14.7295C58.02 14.4643 57.9366 14.1845 57.9366 13.8899H58.8498C58.8629 14.1386 58.9349 14.3367 59.0658 14.484C59.1968 14.628 59.3572 14.7311 59.547 14.7933C59.7369 14.8522 59.9251 14.8817 60.1116 14.8817C60.3604 14.8817 60.5683 14.8489 60.7352 14.7835C60.9054 14.718 61.0347 14.628 61.1231 14.5134C61.2115 14.3989 61.2557 14.2679 61.2557 14.1206Z" fill="#282F38"/>
</g>
<defs>
<clipPath id="clip0_280_46215">
<rect width="38.9903" height="50.402" fill="white" transform="translate(29.5547 4)"/>
</clipPath>
</defs>
</svg>
