<svg width="100" height="79" viewBox="0 0 100 79" fill="none" xmlns="http://www.w3.org/2000/svg">
<rect x="15.5" y="19.3442" width="25.9184" height="51.7601" rx="0.896906" fill="#F5F5FB" stroke="#282F38"/>
<rect x="58.3984" y="7.5" width="26.1006" height="48.9252" rx="0.896906" fill="#F5F5FB" stroke="#282F38"/>
<path d="M41.6408 70.4461L40.9567 19.7849L58.1218 8.21752L58.5828 56.4745L41.6408 70.4461Z" fill="#F5F5FB" stroke="#282F38"/>
<path d="M39.4927 49.5175C32.1518 53.4518 22.6418 51.2314 17.0823 48.8887C16.116 48.4815 15 49.1703 15 50.219V70.2073C15 70.9788 15.6254 71.6042 16.3969 71.6042H40.5215C41.293 71.6042 41.9184 70.9788 41.9184 70.2073V50.826C41.9184 49.654 40.5256 48.9639 39.4927 49.5175Z" fill="#147AD6" stroke="#282F38" stroke-linecap="round"/>
<path d="M67.25 46.9224H75.6494" stroke="#282F38" stroke-linecap="round"/>
<path d="M20.1875 63.001L35.7473 63.001" stroke="#F5F5FD" stroke-linecap="round"/>
<path d="M67.25 41.4575H75.6494" stroke="#282F38" stroke-linecap="round"/>
<path d="M24.5469 57.5361L32.1501 57.5361" stroke="#F5F5FD" stroke-linecap="round"/>
<path d="M45.8125 24.8668L53.5849 18.6777" stroke="#282F38" stroke-linecap="round"/>
<path d="M45.8125 30.3366L53.5849 24.1475" stroke="#282F38" stroke-linecap="round"/>
<path d="M45.8125 35.8781L53.5849 29.689" stroke="#282F38" stroke-linecap="round"/>
<path d="M45.8125 47.8961L53.5849 41.707" stroke="#282F38" stroke-linecap="round"/>
<path d="M45.8125 54.0851L53.5849 47.896" stroke="#282F38" stroke-linecap="round"/>
<circle cx="64.8942" cy="38.7394" r="0.706655" fill="#D9D9D9"/>
<circle cx="64.8942" cy="44.2042" r="0.706655" fill="#D9D9D9"/>
<rect x="64.2578" y="25.3574" width="14.38" height="8.14345" rx="0.896906" fill="#D36377" stroke="#282F38"/>
<rect x="64.2578" y="13.2061" width="14.38" height="8.14345" rx="0.896906" fill="#D36377" stroke="#282F38"/>
<path d="M26.6774 30.6677C27.1788 29.1247 29.3617 29.1247 29.8631 30.6677C30.2212 31.7698 31.2482 32.516 32.407 32.516C34.0294 32.516 34.704 34.5921 33.3914 35.5457C32.4539 36.2269 32.0616 37.4342 32.4197 38.5363C32.9211 40.0793 31.155 41.3624 29.8425 40.4088C28.905 39.7276 27.6355 39.7276 26.698 40.4088C25.3855 41.3624 23.6194 40.0793 24.1208 38.5363C24.4789 37.4342 24.0866 36.2269 23.1491 35.5457C21.8365 34.5921 22.5111 32.516 24.1335 32.516C25.2923 32.516 26.3193 31.7698 26.6774 30.6677Z" fill="#FFD15B" stroke="#282F38"/>
</svg>
