<svg width="22" height="22" viewBox="0 0 22 22" fill="none" xmlns="http://www.w3.org/2000/svg">
<path d="M13.7 18.348L13.1035 17.8933L13.1006 17.8971L13.7 18.348ZM12.2 20.342L12.7994 20.7928L12.2 20.342ZM9.8 20.342L9.20065 20.7928L9.8 20.342ZM8.3 18.348L7.69401 18.79L7.70065 18.7988L8.3 18.348ZM14.9965 9.22308C14.5822 9.22308 14.2465 9.55887 14.2465 9.97308C14.2465 10.3873 14.5822 10.7231 14.9965 10.7231V9.22308ZM15.0054 10.7231C15.4197 10.7231 15.7554 10.3873 15.7554 9.97308C15.7554 9.55887 15.4197 9.22308 15.0054 9.22308V10.7231ZM10.9955 9.22308C10.5813 9.22308 10.2455 9.55887 10.2455 9.97308C10.2455 10.3873 10.5813 10.7231 10.9955 10.7231V9.22308ZM11.0045 10.7231C11.4187 10.7231 11.7545 10.3873 11.7545 9.97308C11.7545 9.55887 11.4187 9.22308 11.0045 9.22308V10.7231ZM6.99451 9.22308C6.58029 9.22308 6.24451 9.55887 6.24451 9.97308C6.24451 10.3873 6.58029 10.7231 6.99451 10.7231V9.22308ZM7.00349 10.7231C7.4177 10.7231 7.75349 10.3873 7.75349 9.97308C7.75349 9.55887 7.4177 9.22308 7.00349 9.22308V10.7231ZM7.5 17.1992H7V18.6992H7.5V17.1992ZM7 17.1992C5.013 17.1992 3.76814 16.9385 2.99304 16.2624C2.24343 15.6084 1.75 14.3944 1.75 11.9671H0.25C0.25 14.5248 0.756567 16.3019 2.00696 17.3927C3.23186 18.4613 4.987 18.6992 7 18.6992V17.1992ZM1.75 11.9671V6.98205H0.25V11.9671H1.75ZM1.75 6.98205C1.75 5.10421 2.22029 3.83347 3.02954 3.02664C3.8392 2.2194 5.11504 1.75 7 1.75V0.25C4.88496 0.25 3.1608 0.777612 1.97046 1.96439C0.779715 3.15158 0.25 4.87186 0.25 6.98205H1.75ZM7 1.75H15V0.25H7V1.75ZM15 1.75C16.885 1.75 18.1608 2.2194 18.9705 3.02664C19.7797 3.83347 20.25 5.10421 20.25 6.98205H21.75C21.75 4.87186 21.2203 3.15158 20.0295 1.96439C18.8392 0.777612 17.115 0.25 15 0.25V1.75ZM20.25 6.98205V11.9671H21.75V6.98205H20.25ZM20.25 11.9671C20.25 13.8449 19.7797 15.1157 18.9705 15.9225C18.1608 16.7298 16.885 17.1992 15 17.1992V18.6992C17.115 18.6992 18.8392 18.1715 20.0295 16.9848C21.2203 15.7976 21.75 14.0773 21.75 11.9671H20.25ZM15 17.1992H14.5V18.6992H15V17.1992ZM14.5 17.1992C13.953 17.1992 13.4336 17.4603 13.1035 17.8933L14.2965 18.8026C14.3464 18.7371 14.427 18.6992 14.5 18.6992V17.1992ZM13.1006 17.8971L11.6006 19.8911L12.7994 20.7928L14.2994 18.7988L13.1006 17.8971ZM11.6006 19.8911C11.3919 20.1686 11.1672 20.25 11 20.25C10.8328 20.25 10.6081 20.1686 10.3994 19.8911L9.20065 20.7928C9.65187 21.3927 10.2972 21.75 11 21.75C11.7028 21.75 12.3481 21.3927 12.7994 20.7928L11.6006 19.8911ZM10.3994 19.8911L8.89935 17.8971L7.70065 18.7988L9.20065 20.7928L10.3994 19.8911ZM8.90592 17.906C8.7325 17.6682 8.48868 17.5003 8.27356 17.3939C8.05723 17.287 7.78236 17.1992 7.5 17.1992V18.6992C7.48782 18.6992 7.49489 18.6977 7.52127 18.7048C7.54599 18.7115 7.57673 18.7227 7.60894 18.7387C7.64123 18.7546 7.66749 18.7715 7.68556 18.7855C7.70504 18.8007 7.70448 18.8042 7.69408 18.7899L8.90592 17.906ZM14.9965 10.7231H15.0054V9.22308H14.9965V10.7231ZM10.9955 10.7231H11.0045V9.22308H10.9955V10.7231ZM6.99451 10.7231H7.00349V9.22308H6.99451V10.7231Z" fill="#282F38"/>
</svg>
