<svg width="100" height="79" viewBox="0 0 100 79" fill="none" xmlns="http://www.w3.org/2000/svg">
<path d="M73.0608 60.6044L65.1157 54.5382L51.6564 53.5182L22 70.6356L36.3565 78.9259L37.4839 78.2817H49.0566L49.7315 72.2231L63.7966 64.1015H73.613L73.0608 60.6044Z" fill="#D8D2C9"/>
<path d="M32.8135 39.0922L33.1969 39.2839L33.7031 38.9925L33.3196 38.8008L32.8135 39.0922Z" fill="#373737"/>
<path d="M37.2616 45.7566V46.1938L37.7678 45.9023L37.7754 45.4652L37.2616 45.7566Z" fill="#373737"/>
<path d="M35.4593 44.1308C35.3212 44.0542 35.1908 43.9391 35.0758 43.8087C34.9378 43.6554 34.8227 43.4713 34.7384 43.2796C34.6924 43.1722 34.654 43.0572 34.6233 42.9498L33.6954 38.9926L33.1892 39.284L34.1172 43.2412C34.1402 43.3563 34.1785 43.4636 34.2322 43.571C34.3166 43.7627 34.4316 43.9468 34.5696 44.1002C34.6847 44.2305 34.8151 44.3456 34.9531 44.4223L37.2615 45.7567L37.7677 45.4653L35.4593 44.1308Z" fill="#2D2A29"/>
<path d="M34.9532 44.4299C34.5697 44.2074 34.2323 43.732 34.1249 43.2411L33.1969 39.2839L32.8135 39.0922L33.8871 43.5479C34.0022 44.0311 34.3396 44.5065 34.7154 44.7213L37.2616 46.1861V45.7489L34.9532 44.4299Z" fill="#232120"/>
<path d="M40.2832 34.782L40.6667 34.9738L41.1728 34.6747L40.7894 34.4906L40.2832 34.782Z" fill="#373737"/>
<path d="M44.7312 41.4463V41.8835L45.2374 41.592V41.1549L44.7312 41.4463Z" fill="#373737"/>
<path d="M42.929 39.8205C42.791 39.7438 42.6606 39.6288 42.5456 39.4984C42.4075 39.345 42.2925 39.161 42.2081 38.9693C42.1621 38.8619 42.1238 38.7468 42.0931 38.6395L41.1728 34.6746L40.6666 34.966L41.5946 38.9232C41.6176 39.0383 41.6559 39.1456 41.7096 39.253C41.794 39.4447 41.909 39.6288 42.0471 39.7822C42.1621 39.9126 42.2925 40.0276 42.4305 40.1043L44.7389 41.4387L45.2451 41.1473L42.929 39.8205Z" fill="#2D2A29"/>
<path d="M42.4229 40.1121C42.0394 39.8897 41.702 39.4142 41.5946 38.9234L40.6667 34.9661L40.2832 34.7744L41.3569 39.2302C41.4719 39.7133 41.8094 40.1888 42.1851 40.4035L44.7313 41.8683V41.4312L42.4229 40.1121Z" fill="#232120"/>
<path d="M45.5363 40.135C45.4366 40.1963 45.3599 40.3037 45.3369 40.4494L43.2586 50.9254C43.2509 50.9791 43.2203 51.0098 43.1896 51.0328L43.6497 50.7644C43.6804 50.7414 43.7111 50.7107 43.7187 50.657L45.7971 40.181C45.8277 40.0276 45.8968 39.9203 45.9965 39.8666L45.5363 40.135Z" fill="#2D2A29"/>
<path d="M54.977 45.9098C54.8619 45.1736 54.3481 44.3913 53.7576 44.0462L46.0731 39.6058C45.4826 39.2684 44.9688 39.4524 44.8461 40.0506L42.7678 50.5189C42.7371 50.657 42.8291 50.8641 42.9595 50.9714C42.9748 50.9868 42.9902 50.9944 43.0132 51.0098C43.1282 51.0788 43.2356 51.0404 43.2586 50.9177L45.3369 40.4418C45.4059 40.0813 45.7204 39.9739 46.0731 40.1733L53.7576 44.6137C54.1104 44.8208 54.4248 45.2886 54.4938 45.7334L56.5031 58.5715C56.5261 58.7249 56.6335 58.8783 56.7485 58.9473L56.8022 58.9703C56.9403 59.0163 57.0246 58.9166 57.0016 58.7479L54.977 45.9098Z" fill="#232120"/>
<path d="M55.4371 45.6414C55.4064 45.4267 55.3374 45.2119 55.2453 45.0048C55.1226 44.7288 54.9539 44.4603 54.7622 44.2379C54.5935 44.0462 54.4094 43.8928 54.2177 43.7778L46.5332 39.3374C46.1958 39.138 45.8737 39.1227 45.6436 39.253L45.1835 39.5214C45.4135 39.3911 45.728 39.4064 46.0731 39.6058L53.7575 44.0462C53.9492 44.1612 54.1333 44.3146 54.302 44.5064C54.4938 44.7288 54.6625 44.9895 54.7852 45.2733C54.8772 45.4803 54.9462 45.7027 54.9769 45.9098L56.9939 58.7479C57.0092 58.8552 56.9785 58.9396 56.9249 58.9703L57.385 58.7019C57.4387 58.6712 57.4694 58.5868 57.454 58.4795L55.4371 45.6414Z" fill="#2D2A29"/>
<path d="M56.0047 47.0297C55.9971 47.0143 55.9894 46.9913 55.9741 46.976L55.1381 45.5265C55.0384 45.3578 54.9234 45.1968 54.8007 45.0587C54.632 44.867 54.4479 44.7059 54.2562 44.5986L45.5824 39.5907C45.5134 39.5523 45.4521 39.5446 45.406 39.5753L33.657 46.3701C33.703 46.3471 33.7644 46.3471 33.8334 46.3855L42.5071 51.3934C42.6988 51.5008 42.8829 51.6618 43.0516 51.8535C43.1743 51.9916 43.2894 52.1526 43.3891 52.3214L44.225 53.7708C44.2327 53.7862 44.248 53.8092 44.2557 53.8245C44.3247 53.9702 44.3094 54.1236 44.225 54.1696L55.9741 47.3748C56.0584 47.3288 56.0737 47.1754 56.0047 47.0297Z" fill="#473B37"/>
<path d="M44.2249 53.7708L43.389 52.3213C43.1513 51.9149 42.8368 51.5851 42.507 51.3934L33.8333 46.3854C33.6953 46.3087 33.5879 46.3701 33.5879 46.5235C33.5879 46.6845 33.6953 46.8686 33.8333 46.9529L42.507 51.9609C42.7064 52.0759 42.8982 52.283 43.0439 52.5284L43.8798 53.9778C43.9258 54.0622 43.9872 54.1235 44.0562 54.1619C44.1176 54.2002 44.1789 54.2079 44.2326 54.1772C44.3246 54.1159 44.3246 53.9318 44.2249 53.7708Z" fill="#23201E"/>
<path d="M33.2275 47.2367C33.1278 47.298 33.0511 47.4054 33.0281 47.5511L30.9498 58.0271C30.9421 58.0808 30.9114 58.1115 30.8807 58.1345L31.3409 57.866C31.3716 57.843 31.4022 57.8124 31.4099 57.7587L33.4882 47.2827C33.5189 47.1293 33.5879 47.0219 33.6876 46.9683L33.2275 47.2367Z" fill="#1D1B1A"/>
<path d="M42.6758 53.0115C42.5608 52.2753 42.047 51.493 41.4564 51.1479L33.772 46.7075C33.1815 46.3701 32.6677 46.5541 32.5449 47.1523L30.4666 57.6206C30.4359 57.7587 30.528 57.9657 30.6583 58.0731C30.6737 58.0884 30.689 58.0961 30.712 58.1115C30.8271 58.1805 30.9344 58.1421 30.9574 58.0194L33.0358 47.5434C33.1048 47.183 33.4192 47.0756 33.772 47.275L41.4564 51.7154C41.8092 51.9225 42.1236 52.3903 42.1927 52.8351L44.2096 65.6732C44.2326 65.8266 44.34 65.9799 44.4551 66.049L44.5087 66.072C44.6468 66.118 44.7311 66.0183 44.7081 65.8496L42.6758 53.0115Z" fill="#232120"/>
<path d="M43.1282 52.7432C43.0975 52.5285 43.0285 52.3137 42.9365 52.1067C42.8138 51.8306 42.6451 51.5621 42.4533 51.3397C42.2846 51.148 42.1006 50.9946 41.9088 50.8796L34.2244 46.4392C33.887 46.2398 33.5649 46.2245 33.3348 46.3548L32.8746 46.6233C33.1047 46.4929 33.4191 46.5082 33.7642 46.7076L41.4487 51.148C41.6404 51.2631 41.8245 51.4164 41.9932 51.6082C42.1849 51.8306 42.3536 52.0913 42.4763 52.3751C42.5684 52.5821 42.6374 52.8045 42.6681 53.0116L44.685 65.8497C44.7004 65.957 44.6697 66.0414 44.616 66.0721L45.0762 65.8037C45.1298 65.773 45.1605 65.6886 45.1452 65.5813L43.1282 52.7432Z" fill="#2D2A29"/>
<path d="M41.5562 26.6071C41.3952 26.5611 41.2188 26.5841 41.0424 26.6838L30.5511 32.7424C30.1139 32.9954 29.8532 33.6396 29.9682 34.1841L31.7628 42.5358C31.8318 42.8579 32.0235 43.0726 32.2536 43.1417L32.6064 43.2414L41.909 26.7068L41.5562 26.6071Z" fill="#2D2A29"/>
<path d="M44.1944 35.6719L42.3998 27.3202C42.2848 26.7757 41.84 26.5456 41.3952 26.7987L30.9038 32.8573C30.4667 33.1104 30.206 33.7546 30.321 34.2991L32.1156 42.6507C32.2306 43.1953 32.6831 43.4253 33.1202 43.1722L43.6115 37.1137C44.0563 36.8529 44.3094 36.2164 44.1944 35.6719Z" fill="#473B37"/>
<path d="M44.3401 23.9692L44.5702 29.4066C44.5702 29.4066 47.0549 32.4743 49.1103 33.0418C50.5904 33.4482 49.3403 29.4296 47.1546 26.6151C46.311 25.5261 45.3984 24.1456 44.3401 23.9692Z" fill="url(#paint0_linear_389_98765)"/>
<path d="M49.1257 25.917C48.9263 25.1961 46.5565 25.7099 46.7176 26.4078C46.7636 26.5919 47.5228 30.7409 47.7069 31.3314C48.3587 33.4327 50.2377 33.5708 50.5214 32.0139C50.6441 31.3774 49.4094 26.937 49.1257 25.917Z" fill="#8691C7"/>
<path d="M46.8172 26.3235C46.9169 26.73 49.095 26.2928 48.9876 25.8173C48.9646 25.7023 48.9262 25.6026 48.9109 25.5259C48.7345 24.8817 46.6025 25.3418 46.7482 25.963C46.7559 26.0014 46.7636 26.0551 46.8172 26.3235Z" fill="#EFEFEF"/>
<path d="M46.7405 25.4952C46.7941 25.6103 46.9475 25.8403 46.9552 25.8864C47.0012 26.2928 48.8801 26.1088 48.7037 25.3725C48.604 24.9584 48.5427 24.736 48.5043 24.3142C48.4737 23.9844 48.4353 23.6546 48.3203 23.3402C48.2053 23.0258 47.9828 22.5426 47.8065 22.5043C47.6301 22.4736 47.3847 22.4046 47.2926 22.2589C47.2313 22.1668 47.2159 22.0518 47.1853 21.9444C47.1546 21.8371 47.0856 21.7297 46.9782 21.699C46.8402 21.6607 46.7021 21.7604 46.6331 21.8831C46.5641 22.0058 46.5334 22.1438 46.4567 22.2665C46.265 22.2205 46.2113 21.9828 46.1269 21.8064C46.0732 21.699 46.0196 20.8401 45.5748 20.8938C45.1606 20.9398 45.6744 22.1668 45.7281 22.3816C45.7895 22.6193 46.0119 23.831 45.5134 23.7697C45.4827 23.762 45.452 23.7543 45.4214 23.7467C45.337 23.716 45.2526 23.693 45.1683 23.6623C45.0149 23.6086 44.6084 23.4246 44.4934 23.5396C44.409 23.624 44.409 23.762 44.4627 23.8617C44.6698 24.2682 45.6361 24.4599 45.7511 24.5213C46.0656 24.6823 46.6944 25.3955 46.7405 25.4952Z" fill="#FCBE9F"/>
<path d="M48.2896 23.7315C48.259 23.6779 48.2283 23.6395 48.1976 23.6088L45.6438 21.3388C45.6208 21.3158 45.5978 21.3004 45.5748 21.2928C45.5288 21.2698 45.4904 21.2698 45.4521 21.2851L45.291 21.3388L47.5534 25.8022L47.7144 25.7485C47.7605 25.7332 47.7988 25.6948 47.8141 25.6335L48.3203 24.0536C48.3587 23.9539 48.3356 23.8312 48.2896 23.7315Z" fill="#3D3D3D"/>
<path d="M48.0366 23.6624L45.4828 21.3924C45.4597 21.3694 45.4367 21.354 45.4137 21.3464C45.314 21.3004 45.222 21.3464 45.1913 21.4537L44.6852 23.0336C44.6392 23.1716 44.7005 23.371 44.8155 23.4784L47.3694 25.7484C47.3924 25.7638 47.4154 25.7791 47.4384 25.7945C47.5381 25.8405 47.6301 25.8021 47.6684 25.6871L48.1746 24.1073C48.213 23.9615 48.1516 23.7698 48.0366 23.6624Z" fill="#232323"/>
<path d="M46.38 22.5426C46.3416 22.9798 46.7098 22.9261 46.8325 22.7573C47.3693 22.0058 47.1085 21.5916 46.7941 21.7297C46.4797 21.8601 46.403 22.2358 46.38 22.5426Z" fill="#FCBE9F"/>
<path d="M47.5073 23.1638C47.8678 23.1101 47.9445 22.9337 47.9598 22.834C47.9751 22.6653 47.8908 22.4889 47.6914 22.4966C47.1929 22.5042 47.0088 23.2405 47.5073 23.1638Z" fill="#FCBE9F"/>
<path d="M46.242 64.0247C47.0242 64.5385 48.7728 64.5616 49.1026 63.5416C49.2559 63.0661 48.236 60.1288 48.0902 59.2622C48.0442 59.0168 47.9752 58.5797 47.9752 58.5797C47.8985 58.503 47.6301 58.4723 47.5304 58.4416C47.0856 58.3036 46.3647 58.5797 45.9045 58.6257C45.6668 58.6487 45.6898 60.2285 45.6898 60.3896C45.6975 61.3559 45.6285 63.6259 46.242 64.0247Z" fill="#8E5B1E"/>
<path d="M46.1576 63.5186C46.9399 64.0324 48.6884 64.0554 49.0182 63.0355C49.1716 62.56 48.2206 59.615 48.0749 58.7561C48.0289 58.5107 47.9599 58.0736 47.9599 58.0736C47.8832 57.9969 47.5534 57.9739 47.446 57.9355C47.0012 57.7975 46.2803 58.0736 45.8202 58.1196C45.5825 58.1426 45.6055 59.7224 45.6055 59.8835C45.6131 60.8421 45.5441 63.1121 46.1576 63.5186Z" fill="#3A302E"/>
<path d="M52.5229 56.5244C52.5076 56.4554 52.661 56.0566 52.776 55.8572L50.1609 54.9752C49.9538 55.6808 49.3326 55.9722 49.1485 56.5857C48.9722 57.1916 49.5243 57.6364 52.3005 59.684C53.7193 60.727 54.3329 60.9111 54.9004 60.7807C55.2455 60.6964 55.5983 60.4893 55.6059 59.9064C55.6289 58.8481 52.6457 57.0459 52.5229 56.5244Z" fill="#3A302E"/>
<path d="M55.5983 59.9678C55.4603 60.1902 55.2379 60.2899 55.0231 60.3436C54.4556 60.4817 53.8421 60.2976 52.4233 59.2469C49.9538 57.4294 49.2636 56.9539 49.2483 56.348C49.2099 56.4247 49.0949 56.6241 49.0719 56.7161C48.9799 57.0382 49.1256 57.2376 49.6931 57.7515C50.1763 58.1886 51.0429 58.7715 52.3159 59.7148C53.7347 60.7578 54.3329 60.9188 54.9004 60.7808C55.2302 60.6964 55.5676 60.497 55.5983 59.9678Z" fill="#8E5B1E"/>
<path d="M46.7328 40.0971L45.8355 38.594L37.5989 40.3042C38.036 44.7753 38.013 45.6266 38.5805 46.6772C39.2631 47.9503 44.1406 51.8615 44.1406 52.36C44.2326 54.2083 44.9842 55.8188 45.36 58.6487C45.7281 59.8757 48.1822 59.2699 48.1822 58.4186C48.1822 55.4583 47.9598 50.9259 47.8525 50.4427C47.7528 49.9596 45.498 45.7339 45.498 45.7339C47.5534 47.2371 51.9554 49.3384 51.9554 49.3384C50.9661 50.6421 50.8971 52.5211 49.9615 55.3586C49.7314 56.1562 52.3465 57.3449 52.6917 56.5397C53.0674 55.6501 54.931 51.5624 56.1121 48.1727C56.4495 47.2064 55.813 46.6159 55.3145 46.2017C53.727 44.8673 48.9261 41.6463 46.7328 40.0971Z" fill="#191C26"/>
<path d="M35.9654 28.4939C34.5159 29.9203 36.9547 35.6031 37.2691 37.6124C37.6603 40.1432 37.2231 44.0545 37.3382 44.7907C37.5145 45.941 42.6989 47.3522 45.1069 45.2968L44.3017 41.4776C45.7895 43.4333 46.8248 44.2845 46.8248 44.2845C47.515 44.1695 49.3326 42.2292 49.1639 41.5006C49.1639 41.5006 46.8785 39.2076 46.2573 38.5864C45.9199 38.2489 45.6898 33.4634 46.1193 29.7056C46.4874 27.5812 45.9582 24.0151 44.4934 24.1685C43.5578 24.2759 38.013 26.4846 35.9654 28.4939Z" fill="#8691C7"/>
<path d="M38.1127 27.7728C38.2048 27.2666 38.4578 26.8832 38.849 26.6301C40.2831 25.7405 41.2877 25.288 42.1083 25.1806C42.1543 25.173 42.2004 25.173 42.2464 25.173C42.6452 25.173 43.0516 25.4337 43.4197 25.9245C43.8262 26.4614 44.0639 27.1286 44.1253 27.8572C44.3554 30.8865 43.7035 33.1948 43.1207 37.1598C41.4334 34.9434 37.6142 30.5107 38.1127 27.7728Z" fill="#94A2D6"/>
<path d="M43.1206 37.1293C43.1206 37.1293 42.9672 36.8532 42.7218 36.4084C41.4871 34.2074 37.944 27.635 39.3551 26.7684C40.7508 25.9094 41.4181 25.6487 42.162 25.549C42.8062 25.4646 43.1819 26.9984 43.2816 28.3099C43.4427 30.3959 43.1513 33.6399 43.1206 37.1293Z" fill="#EFEFEF"/>
<path d="M40.168 28.4017C40.4978 28.7851 40.9656 29.0689 41.4717 29.1149C41.9779 29.1609 42.5147 28.9308 42.7755 28.5014C43.0516 28.0489 43.3737 26.0549 43.3277 24.9276C43.32 24.6668 43.2893 24.4061 43.1666 24.176C43.0132 23.8922 42.7371 23.7005 42.4534 23.5471C42.0469 23.3324 41.6021 23.1713 41.142 23.1867C40.9349 23.1943 40.7125 23.248 40.5898 23.4091C40.4978 23.5241 40.4671 23.6698 40.4441 23.8155C40.2677 24.7205 39.9993 25.5948 39.6848 26.4614C39.4088 27.1823 39.6695 27.8188 40.168 28.4017Z" fill="#F3A984"/>
<path d="M43.182 34.6827L42.4534 29.368L41.9933 29.5674V35.1199L43.1283 37.1598L43.182 34.6827Z" fill="#191C26"/>
<path d="M42.2004 30.0584C42.7066 29.9203 42.9136 28.885 42.7219 28.7009C42.6146 28.5936 42.1161 28.6319 41.9627 28.7009C41.5639 28.885 41.2341 29.1304 41.2955 29.3528C41.3722 29.6212 41.9013 30.1427 42.2004 30.0584Z" fill="#191C26"/>
<path d="M42.162 28.6319L40.5055 30.0507C40.5055 30.0507 38.3658 27.4892 39.6695 26.4615C39.6082 27.4048 40.1987 28.0414 40.8582 28.3558C41.4718 28.6396 42.162 28.6319 42.162 28.6319Z" fill="white"/>
<path d="M42.116 28.6395L43.5808 29.138C43.5808 29.138 43.4964 27.8573 42.8292 26.9216C43.1129 28.4861 42.116 28.6395 42.116 28.6395Z" fill="white"/>
<path d="M39.4241 22.4276C39.3858 25.0964 39.1097 24.0534 40.8659 26.6149C41.5868 27.6732 42.8906 28.4478 43.4197 28.5398C43.7188 28.5935 44.0563 28.5168 44.2556 28.2868C44.4857 28.0107 44.7005 26.7913 44.8462 26.055C45.0072 25.2114 45.0686 24.3832 45.0993 23.5319C45.1683 21.4919 44.294 20.633 43.0669 20.1575C41.8015 19.659 39.4625 19.6744 39.4241 22.4276Z" fill="#FCBE9F"/>
<path d="M41.1574 24.92C41.6328 24.9584 41.5101 24.1761 41.6942 23.9077C42.3231 22.9797 44.248 23.6163 45.0533 22.6653C45.5441 22.0824 45.2297 19.659 42.5531 19.3983C41.2341 19.2679 40.1681 19.613 39.5315 20.4873C38.7876 21.4996 38.9257 22.8647 39.1711 24.1914C39.2554 24.6439 39.4472 25.0811 39.7769 25.4032C40.053 25.6792 40.3291 25.848 40.5055 25.871C40.076 24.9814 40.007 24.9353 39.892 24.4829C39.7693 24.0227 40.122 23.7236 40.3828 23.8387C40.6052 23.9384 40.7432 24.1454 40.8199 24.3678C40.912 24.6363 40.8659 24.897 41.1574 24.92Z" fill="#D1A352"/>
<path d="M75.0012 46.8306L59.732 38.0111L58.3516 38.8164L73.6131 47.6282L75.0012 46.8306Z" fill="#CFCBC7"/>
<path d="M73.6131 64.1015L58.3516 55.2897V38.8165L73.6131 47.6283V64.1015Z" fill="#B6B2AE"/>
<path d="M75.0011 63.3039L73.613 64.1015V47.6283L75.0011 46.8307V63.3039Z" fill="#CFCBC7"/>
<path d="M50.4371 61.0031L35.1756 52.1913L33.7952 52.9889L49.0567 61.8007L50.4371 61.0031Z" fill="#CFCBC7"/>
<path d="M49.0567 78.2817L33.7952 69.4699V52.989L49.0567 61.8008V78.2817Z" fill="#B6B2AE"/>
<path d="M50.4371 77.4841L49.0566 78.2816V61.8008L50.4371 61.0032V77.4841Z" fill="#CFCBC7"/>
<path d="M48.6809 64.5537L30.8885 54.2771V53.1727L48.6809 63.4417V64.5537Z" fill="url(#paint1_linear_389_98765)"/>
<path d="M78.9125 47.0987L48.6809 64.5536V63.4416L78.9125 45.9867V47.0987Z" fill="#CFCBC7"/>
<path d="M48.6809 63.4418L30.8885 53.1729L61.1201 35.7103L78.9124 45.9869L48.6809 63.4418Z" fill="#473B37"/>
<path d="M40.5746 55.1134L45.1147 52.4906L51.434 56.1411L46.8939 58.7639L40.5746 55.1134Z" fill="#EAEAEA"/>
<path d="M40.9657 54.5688L44.8233 51.6085L51.9709 54.7145L48.1056 57.6748L40.9657 54.5688Z" fill="#F4F4F4"/>
<path d="M38.1434 54.7683L43.4811 52.7053L48.4507 56.9923L43.113 59.0553L38.1434 54.7683Z" fill="#F4F4F4"/>
<path d="M38.1511 54.2237L42.8523 51.7006L48.9415 55.4814L44.2404 58.0046L38.1511 54.2237Z" fill="white"/>
<path d="M42.7142 50.7343L47.4154 48.2112L53.497 51.9844L48.7958 54.5152L42.7142 50.7343Z" fill="white"/>
<path d="M61.7488 42.8962L66.4499 40.3654L72.5392 44.1462L67.838 46.6694L61.7488 42.8962Z" fill="#EAEAEA"/>
<path d="M58.1674 43.4715L62.6998 40.8486L69.0268 44.4991L64.4867 47.122L58.1674 43.4715Z" fill="#EAEAEA"/>
<path d="M58.0907 41.2474L61.9559 38.2871L69.0958 41.3931L65.2383 44.3534L58.0907 41.2474Z" fill="#F4F4F4"/>
<path d="M55.0537 41.5082L60.3914 39.4452L65.3686 43.7322L60.031 45.7952L55.0537 41.5082Z" fill="#F4F4F4"/>
<path d="M55.0691 40.9636L59.7702 38.4404L65.8595 42.2213L61.1584 44.7444L55.0691 40.9636Z" fill="white"/>
<path d="M49.302 50.9566L58.6966 45.5039V45.665L49.302 51.1254V50.9566Z" fill="#C9C6C1"/>
<path d="M42.7219 46.9687L52.1089 41.516L58.689 45.3122L49.2943 50.7726L42.7219 46.9687Z" fill="#ECE7E2"/>
<path opacity="0.2" d="M51.6564 44.7907L48.6425 46.5316C48.5734 46.5699 48.4661 46.5699 48.397 46.5316L46.4031 45.3812C46.3341 45.3429 46.3341 45.2815 46.4031 45.2432L49.417 43.5023C49.4861 43.4639 49.5934 43.4639 49.6625 43.5023L51.6564 44.6526C51.7254 44.691 51.7254 44.7523 51.6564 44.7907Z" fill="#C9C6C1"/>
<path d="M46.4031 45.2738L49.4171 43.5329C49.4861 43.4946 49.5935 43.4946 49.6625 43.5329L51.6564 44.6833C51.6795 44.6986 51.6948 44.714 51.7025 44.737C51.7101 44.7063 51.6948 44.6756 51.6564 44.6449L49.6625 43.4946C49.5935 43.4562 49.4861 43.4562 49.4171 43.4946L46.4031 45.2355C46.3648 45.2585 46.3418 45.2968 46.3571 45.3275C46.3571 45.3045 46.3724 45.2891 46.4031 45.2738Z" fill="#C9C6C1"/>
<path d="M47.101 48.4642L46.6945 48.6942C46.6562 48.7172 46.5948 48.7172 46.5488 48.6942L46.2037 48.4948C46.1653 48.4718 46.1653 48.4335 46.2037 48.4105L46.6101 48.1727C46.6485 48.1497 46.7098 48.1497 46.7559 48.1727L47.101 48.3721C47.147 48.4028 47.147 48.4412 47.101 48.4642ZM47.7605 48.004L47.4154 47.8046C47.3771 47.7816 47.3157 47.7816 47.2697 47.8046L46.8632 48.0424C46.8249 48.0654 46.8249 48.1037 46.8632 48.1267L47.2083 48.3261C47.2467 48.3491 47.308 48.3491 47.3541 48.3261L47.7605 48.0884C47.7989 48.0654 47.7989 48.027 47.7605 48.004ZM48.4201 47.6206L48.0749 47.4288C48.0366 47.4058 47.9676 47.4058 47.9292 47.4288L47.5228 47.6666C47.4844 47.6896 47.4844 47.7279 47.5228 47.7509L47.8679 47.9503C47.9062 47.9733 47.9676 47.9733 48.0136 47.9503L48.4201 47.7126C48.4584 47.6819 48.4584 47.6436 48.4201 47.6206ZM49.0719 47.2448L48.7268 47.0454C48.6885 47.0224 48.6271 47.0224 48.5811 47.0454L48.1746 47.2831C48.1363 47.3061 48.1363 47.3445 48.1746 47.3675L48.5198 47.5669C48.5581 47.5899 48.6195 47.5899 48.6655 47.5669L49.0719 47.3291C49.1103 47.3061 49.1103 47.2678 49.0719 47.2448ZM49.7315 46.869L49.3864 46.6696C49.348 46.6466 49.2867 46.6466 49.2406 46.6696L48.8342 46.9073C48.7958 46.9303 48.7958 46.9687 48.8342 46.9917L49.1793 47.1911C49.2176 47.2141 49.279 47.2141 49.325 47.1911L49.7315 46.9534C49.7698 46.9227 49.7698 46.892 49.7315 46.869ZM50.3833 46.4855L50.0382 46.2861C49.9999 46.2631 49.9385 46.2631 49.8925 46.2861L49.4861 46.5239C49.4477 46.5469 49.4477 46.5852 49.4861 46.6082L49.8312 46.8076C49.8695 46.8306 49.9309 46.8306 49.9769 46.8076L50.3833 46.5699C50.4217 46.5469 50.4217 46.5085 50.3833 46.4855ZM51.0429 46.1098L50.6978 45.9104C50.6594 45.8873 50.5981 45.8873 50.5521 45.9104L50.1456 46.1481C50.1073 46.1711 50.1073 46.2095 50.1456 46.2325L50.4907 46.4319C50.5291 46.4549 50.5904 46.4549 50.6364 46.4319L51.0429 46.1941C51.0812 46.1711 51.0812 46.1328 51.0429 46.1098ZM51.6948 45.7263L51.3496 45.5269C51.3113 45.5039 51.25 45.5039 51.2039 45.5269L50.7975 45.7646C50.7591 45.7877 50.7591 45.826 50.7975 45.849L51.1426 46.0484C51.1809 46.0714 51.2423 46.0714 51.2883 46.0484L51.6948 45.8107C51.7331 45.7877 51.7331 45.7493 51.6948 45.7263ZM52.3543 45.3505L52.0092 45.1511C51.9708 45.1281 51.9095 45.1281 51.8635 45.1511L51.457 45.3889C51.4187 45.4119 51.4187 45.4502 51.457 45.4732L51.8021 45.6726C51.8405 45.6956 51.9018 45.6956 51.9478 45.6726L52.3543 45.4349C52.3926 45.4119 52.3926 45.3735 52.3543 45.3505ZM53.2209 44.852L52.8758 44.6526C52.8375 44.6296 52.7761 44.6296 52.7301 44.6526L52.1089 45.0131C52.0705 45.0361 52.0705 45.0744 52.1089 45.0974L52.454 45.2968C52.4923 45.3198 52.5537 45.3198 52.5997 45.2968L53.2209 44.9364C53.2593 44.9134 53.2593 44.875 53.2209 44.852ZM55.6827 45.5039L55.3376 45.3045C55.2992 45.2815 55.2379 45.2815 55.1919 45.3045L54.7854 45.5422C54.7471 45.5652 54.7471 45.6036 54.7854 45.6266L55.1305 45.826C55.1689 45.849 55.2302 45.849 55.2762 45.826L55.6827 45.5883C55.721 45.5652 55.721 45.5269 55.6827 45.5039ZM56.3422 45.1281L55.9971 44.9287C55.9588 44.9057 55.8974 44.9057 55.8514 44.9287L55.4449 45.1665C55.4066 45.1895 55.4066 45.2278 55.4449 45.2508L55.7901 45.4502C55.8284 45.4732 55.8898 45.4732 55.9358 45.4502L56.3422 45.2125C56.3806 45.1895 56.3806 45.1511 56.3422 45.1281ZM56.9941 44.7447L56.649 44.5453C56.6107 44.5223 56.5493 44.5223 56.5033 44.5453L56.0968 44.783C56.0585 44.806 56.0585 44.8444 56.0968 44.8674L56.4419 45.0668C56.4803 45.0898 56.5416 45.0898 56.5876 45.0668L56.9941 44.829C57.0325 44.806 57.0325 44.7677 56.9941 44.7447ZM56.2809 45.849L55.9358 45.6496C55.8974 45.6266 55.8361 45.6266 55.7901 45.6496L55.3836 45.8873C55.3452 45.9104 55.3452 45.9487 55.3836 45.9717L55.7287 46.1711C55.767 46.1941 55.8284 46.1941 55.8744 46.1711L56.2809 45.9334C56.3192 45.9104 56.3192 45.872 56.2809 45.849ZM56.9404 45.4732L56.5953 45.2738C56.557 45.2508 56.4956 45.2508 56.4496 45.2738L56.0431 45.5116C56.0048 45.5346 56.0048 45.5729 56.0431 45.5959L56.3882 45.7953C56.4266 45.8183 56.4879 45.8183 56.534 45.7953L56.9404 45.5576C56.9788 45.5346 56.9788 45.4962 56.9404 45.4732ZM57.5923 45.0898L57.2472 44.8904C57.2088 44.8674 57.1475 44.8674 57.1015 44.8904L56.695 45.1281C56.6567 45.1511 56.6567 45.1895 56.695 45.2125L57.0401 45.4119C57.0785 45.4349 57.1475 45.4349 57.1858 45.4119L57.5923 45.1741C57.6383 45.1511 57.6383 45.1128 57.5923 45.0898ZM47.9292 48.6022L47.5841 48.4028C47.5458 48.3798 47.4844 48.3798 47.4384 48.4028L46.8172 48.7633C46.7789 48.7863 46.7789 48.8246 46.8172 48.8476L47.1623 49.047C47.2007 49.07 47.262 49.07 47.308 49.047L47.9292 48.6866C47.9676 48.6636 47.9676 48.6252 47.9292 48.6022ZM48.5811 48.2188L48.236 48.0194C48.1977 47.9964 48.1363 47.9964 48.0903 48.0194L47.6838 48.2571C47.6455 48.2801 47.6455 48.3185 47.6838 48.3415L48.0289 48.5409C48.0673 48.5639 48.1286 48.5639 48.1746 48.5409L48.5811 48.3031C48.6195 48.2801 48.6195 48.2418 48.5811 48.2188ZM49.2406 47.843L48.8955 47.6436C48.8572 47.6206 48.7958 47.6206 48.7498 47.6436L48.3434 47.8813C48.305 47.9043 48.305 47.9427 48.3434 47.9657L48.6885 48.1651C48.7268 48.1881 48.7882 48.1881 48.8342 48.1651L49.2406 47.9273C49.279 47.9043 49.279 47.866 49.2406 47.843ZM49.8925 47.4672L49.5474 47.2678C49.5091 47.2448 49.4477 47.2448 49.4017 47.2678L48.9952 47.5055C48.9569 47.5285 48.9569 47.5669 48.9952 47.5899L49.3403 47.7893C49.3787 47.8123 49.44 47.8123 49.4861 47.7893L49.8925 47.5439C49.9309 47.5209 49.9309 47.4902 49.8925 47.4672ZM50.5521 47.0837L50.207 46.8843C50.1686 46.8613 50.1073 46.8613 50.0612 46.8843L49.6548 47.1221C49.6164 47.1451 49.6164 47.1834 49.6548 47.2064L49.9999 47.4058C50.0382 47.4288 50.0996 47.4288 50.1456 47.4058L50.5521 47.1681C50.5904 47.1451 50.5904 47.1067 50.5521 47.0837ZM51.2039 46.7079L50.8588 46.5085C50.8205 46.4855 50.7591 46.4855 50.7131 46.5085L50.3067 46.7463C50.2683 46.7693 50.2683 46.8076 50.3067 46.8306L50.6518 47.03C50.6901 47.0531 50.7515 47.0531 50.7975 47.03L51.2039 46.7923C51.25 46.7693 51.25 46.731 51.2039 46.7079ZM51.8635 46.3322L51.5184 46.1328C51.48 46.1098 51.4187 46.1098 51.3727 46.1328L50.9662 46.3705C50.9278 46.3935 50.9278 46.4319 50.9662 46.4549L51.3113 46.6543C51.3497 46.6773 51.411 46.6773 51.457 46.6543L51.8635 46.4165C51.9018 46.3858 51.9018 46.3552 51.8635 46.3322ZM52.5154 45.9487L52.1702 45.7493C52.1319 45.7263 52.0705 45.7263 52.0245 45.7493L51.6181 45.987C51.5797 46.0101 51.5797 46.0484 51.6181 46.0714L51.9632 46.2708C52.0015 46.2938 52.0629 46.2938 52.1089 46.2708L52.5154 46.0331C52.5614 46.0101 52.5614 45.9717 52.5154 45.9487ZM53.1749 45.5729L52.8298 45.3735C52.7914 45.3505 52.7301 45.3505 52.6841 45.3735L52.2776 45.6113C52.2393 45.6343 52.2393 45.6726 52.2776 45.6956L52.6227 45.895C52.6611 45.918 52.7224 45.918 52.7684 45.895L53.1749 45.6573C53.2132 45.6343 53.2132 45.5959 53.1749 45.5729ZM53.8344 45.1895L53.4893 44.9901C53.451 44.9671 53.382 44.9671 53.3436 44.9901L52.9372 45.2278C52.8988 45.2508 52.8988 45.2892 52.9372 45.3122L53.2823 45.5116C53.3206 45.5346 53.382 45.5346 53.428 45.5116L53.8344 45.2738C53.8728 45.2508 53.8728 45.2125 53.8344 45.1895ZM48.2974 49.07L47.9522 48.8706C47.9139 48.8476 47.8525 48.8476 47.8065 48.8706L47.4001 49.1084C47.3617 49.1314 47.3617 49.1697 47.4001 49.1927L47.7452 49.3921C47.7835 49.4151 47.8525 49.4151 47.8909 49.3921L48.2974 49.1544C48.3357 49.1314 48.3357 49.093 48.2974 49.07ZM48.9492 48.6866L48.6041 48.4872C48.5658 48.4642 48.5044 48.4642 48.4584 48.4872L48.0519 48.7249C48.0136 48.7479 48.0136 48.7863 48.0519 48.8093L48.397 49.0087C48.4354 49.0317 48.4967 49.0317 48.5428 49.0087L48.9492 48.7709C48.9952 48.7479 48.9952 48.7096 48.9492 48.6866ZM49.6088 48.3108L49.2637 48.1114C49.2253 48.0884 49.164 48.0884 49.1179 48.1114L48.7115 48.3491C48.6731 48.3721 48.6731 48.4105 48.7115 48.4335L49.0566 48.6329C49.0949 48.6559 49.1563 48.6559 49.2023 48.6329L49.6088 48.3951C49.6471 48.3721 49.6471 48.3338 49.6088 48.3108ZM50.2683 47.935L49.9232 47.7356C49.8849 47.7126 49.8235 47.7126 49.7775 47.7356L49.371 47.9733C49.3327 47.9964 49.3327 48.0347 49.371 48.0577L49.7161 48.2571C49.7545 48.2801 49.8158 48.2801 49.8618 48.2571L50.2683 48.0194C50.3067 47.9887 50.3067 47.958 50.2683 47.935ZM49.4861 49.7526L49.1409 49.5532C49.1026 49.5302 49.0413 49.5302 48.9952 49.5532L48.5888 49.7909C48.5504 49.8139 48.5504 49.8523 48.5888 49.8753L48.9339 50.0747C48.9722 50.0977 49.0336 50.0977 49.0796 50.0747L49.4861 49.8369C49.5244 49.8139 49.5244 49.7756 49.4861 49.7526ZM50.1456 49.3768L49.8005 49.1774C49.7621 49.1544 49.7008 49.1544 49.6548 49.1774L49.2483 49.4151C49.21 49.4381 49.21 49.4765 49.2483 49.4995L49.5934 49.6989C49.6318 49.7219 49.6931 49.7219 49.7391 49.6989L50.1456 49.4611C50.1839 49.4381 50.1839 49.3998 50.1456 49.3768ZM50.7975 49.001L50.4524 48.8016C50.414 48.7786 50.3527 48.7786 50.3067 48.8016L49.9002 49.0393C49.8618 49.0624 49.8618 49.1007 49.9002 49.1237L50.2453 49.3231C50.2836 49.3461 50.345 49.3461 50.391 49.3231L50.7975 49.0777C50.8358 49.0547 50.8358 49.024 50.7975 49.001ZM51.457 48.6175L51.1119 48.4182C51.0736 48.3951 51.0122 48.3951 50.9662 48.4182L50.5597 48.6559C50.5214 48.6789 50.5214 48.7172 50.5597 48.7403L50.9048 48.9396C50.9432 48.9627 51.0045 48.9627 51.0506 48.9396L51.457 48.7019C51.4954 48.6789 51.4954 48.6406 51.457 48.6175ZM55.5983 46.2248L55.2532 46.0254C55.2149 46.0024 55.1535 46.0024 55.1075 46.0254L54.4863 46.3858C54.448 46.4088 54.448 46.4472 54.4863 46.4702L54.8314 46.6696C54.8698 46.6926 54.9311 46.6926 54.9771 46.6696L55.5983 46.3091C55.6367 46.2861 55.6367 46.2478 55.5983 46.2248ZM50.9202 47.5515L50.5751 47.3521C50.5367 47.3291 50.4754 47.3291 50.4294 47.3521L50.0229 47.5899C49.9846 47.6129 49.9846 47.6512 50.0229 47.6742L50.368 47.8736C50.4064 47.8967 50.4754 47.8967 50.5137 47.8736L50.9202 47.6359C50.9585 47.6129 50.9585 47.5745 50.9202 47.5515ZM51.5797 47.1758L51.2346 46.9764C51.1963 46.9534 51.1349 46.9534 51.0889 46.9764L50.6824 47.2141C50.6441 47.2371 50.6441 47.2755 50.6824 47.2985L51.0275 47.4979C51.0659 47.5209 51.1272 47.5209 51.1733 47.4979L51.5797 47.2601C51.6181 47.2371 51.6181 47.1988 51.5797 47.1758ZM52.2316 46.8L51.8865 46.6006C51.8481 46.5776 51.7868 46.5776 51.7408 46.6006L51.3343 46.8383C51.296 46.8613 51.296 46.8997 51.3343 46.9227L51.6794 47.1221C51.7178 47.1451 51.7791 47.1451 51.8251 47.1221L52.2316 46.8843C52.2699 46.8537 52.2699 46.823 52.2316 46.8ZM52.8911 46.4165L52.546 46.2171C52.5077 46.1941 52.4463 46.1941 52.4003 46.2171L51.9939 46.4549C51.9555 46.4779 51.9555 46.5162 51.9939 46.5392L52.339 46.7386C52.3773 46.7616 52.4387 46.7616 52.4847 46.7386L52.8911 46.5009C52.9295 46.4779 52.9295 46.4395 52.8911 46.4165ZM53.543 46.0407L53.1979 45.8413C53.1596 45.8183 53.0982 45.8183 53.0522 45.8413L52.6457 46.0791C52.6074 46.1021 52.6074 46.1404 52.6457 46.1634L52.9908 46.3628C53.0292 46.3858 53.0905 46.3858 53.1365 46.3628L53.543 46.1251C53.5814 46.1021 53.5814 46.0637 53.543 46.0407ZM54.4096 45.5346L54.0645 45.3352C54.0262 45.3122 53.9648 45.3122 53.9188 45.3352L53.2976 45.6956C53.2593 45.7186 53.2593 45.757 53.2976 45.78L53.6427 45.9794C53.6811 46.0024 53.7424 46.0024 53.7884 45.9794L54.4096 45.6189C54.448 45.5959 54.448 45.5576 54.4096 45.5346ZM49.1179 49.2924L48.7728 49.093C48.7345 49.07 48.6731 49.07 48.6271 49.093L48.0059 49.4535C47.9676 49.4765 47.9676 49.5148 48.0059 49.5378L48.351 49.7372C48.3894 49.7602 48.4507 49.7602 48.4967 49.7372L49.1179 49.3768C49.1563 49.3461 49.1563 49.3154 49.1179 49.2924ZM49.7775 48.909L49.4324 48.7096C49.394 48.6866 49.3327 48.6866 49.2867 48.7096L48.8802 48.9473C48.8419 48.9703 48.8419 49.0087 48.8802 49.0317L49.2253 49.2311C49.2637 49.2541 49.325 49.2541 49.371 49.2311L49.7775 48.9933C49.8158 48.9703 49.8158 48.932 49.7775 48.909ZM50.4294 48.5332L50.0842 48.3338C50.0459 48.3108 49.9846 48.3108 49.9385 48.3338L49.5321 48.5715C49.4937 48.5945 49.4937 48.6329 49.5321 48.6559L49.8772 48.8553C49.9155 48.8783 49.9769 48.8783 50.0229 48.8553L50.4294 48.6175C50.4677 48.5945 50.4677 48.5562 50.4294 48.5332ZM51.0889 48.1497L50.7438 47.9503C50.7054 47.9273 50.6441 47.9273 50.5981 47.9503L50.1916 48.1881C50.1533 48.2111 50.1533 48.2494 50.1916 48.2724L50.5367 48.4718C50.5751 48.4948 50.6364 48.4948 50.6824 48.4718L51.0889 48.2341C51.1272 48.2111 51.1272 48.1727 51.0889 48.1497ZM51.7408 47.7739L51.3957 47.5746C51.3573 47.5515 51.296 47.5515 51.25 47.5746L50.8435 47.8123C50.8051 47.8353 50.8051 47.8736 50.8435 47.8967L51.1886 48.0961C51.2269 48.1191 51.2883 48.1191 51.3343 48.0961L51.7408 47.8583C51.7791 47.8353 51.7791 47.797 51.7408 47.7739ZM54.7471 46.7233L54.4019 46.5239C54.3636 46.5009 54.2946 46.5009 54.2562 46.5239L51.2193 48.2801C51.1809 48.3031 51.1809 48.3415 51.2193 48.3645L51.5644 48.5639C51.6027 48.5869 51.6641 48.5869 51.7101 48.5639L54.7471 46.8076C54.7854 46.7846 54.7854 46.7463 54.7471 46.7233ZM52.4003 47.3982L52.0552 47.1988C52.0169 47.1758 51.9555 47.1758 51.9095 47.1988L51.503 47.4365C51.4647 47.4595 51.4647 47.4979 51.503 47.5209L51.8481 47.7203C51.8865 47.7433 51.9478 47.7433 51.9939 47.7203L52.4003 47.4825C52.4387 47.4518 52.4387 47.4212 52.4003 47.3982ZM53.0522 47.0147L52.7071 46.8153C52.6687 46.7923 52.6074 46.7923 52.5614 46.8153L52.1549 47.0531C52.1166 47.0761 52.1166 47.1144 52.1549 47.1374L52.5 47.3368C52.5384 47.3598 52.5997 47.3598 52.6457 47.3368L53.0522 47.0991C53.0905 47.0761 53.0905 47.0377 53.0522 47.0147ZM53.7117 46.6389L53.3666 46.4395C53.3283 46.4165 53.2669 46.4165 53.2209 46.4395L52.8144 46.6773C52.7761 46.7003 52.7761 46.7386 52.8144 46.7616L53.1596 46.961C53.1979 46.984 53.2593 46.984 53.3053 46.961L53.7117 46.7233C53.7501 46.7003 53.7501 46.6619 53.7117 46.6389ZM54.3636 46.2631L54.0185 46.0637C53.9801 46.0407 53.9188 46.0407 53.8728 46.0637L53.4663 46.3015C53.428 46.3245 53.428 46.3628 53.4663 46.3858L53.8114 46.5852C53.8498 46.6082 53.9111 46.6082 53.9571 46.5852L54.3636 46.3475C54.4096 46.3168 54.4096 46.2785 54.3636 46.2631ZM55.0231 45.8797L54.678 45.6803C54.6397 45.6573 54.5783 45.6573 54.5323 45.6803L54.1259 45.918C54.0875 45.941 54.0875 45.9794 54.1259 46.0024L54.471 46.2018C54.5093 46.2248 54.5707 46.2248 54.6167 46.2018L55.0231 45.964C55.0615 45.941 55.0615 45.9027 55.0231 45.8797ZM53.8881 44.4686L53.543 44.2692C53.5047 44.2462 53.4433 44.2462 53.3973 44.2692L52.9908 44.5069C52.9525 44.5299 52.9525 44.5683 52.9908 44.5913L53.3359 44.7907C53.3743 44.8137 53.4356 44.8137 53.4817 44.7907L53.8881 44.5529C53.9265 44.5299 53.9265 44.4916 53.8881 44.4686ZM54.5477 44.0928L54.2026 43.8934C54.1642 43.8704 54.1029 43.8704 54.0568 43.8934L53.6504 44.1311C53.612 44.1541 53.612 44.1925 53.6504 44.2155L53.9955 44.4149C54.0338 44.4379 54.0952 44.4379 54.1412 44.4149L54.5477 44.1771C54.586 44.1465 54.586 44.1158 54.5477 44.0928ZM55.1995 43.7093L54.8544 43.5099C54.8161 43.4869 54.7547 43.4869 54.7087 43.5099L54.3023 43.7477C54.2639 43.7707 54.2639 43.809 54.3023 43.832L54.6474 44.0314C54.6857 44.0544 54.7471 44.0544 54.7931 44.0314L55.1995 43.7937C55.2379 43.7707 55.2379 43.7323 55.1995 43.7093ZM55.7977 44.0544L55.4526 43.855C55.4143 43.832 55.3529 43.832 55.3069 43.855L54.9004 44.0928C54.8621 44.1158 54.8621 44.1541 54.9004 44.1771L55.2455 44.3765C55.2839 44.3995 55.3453 44.3995 55.3913 44.3765L55.7977 44.1388C55.8361 44.1158 55.8361 44.0774 55.7977 44.0544ZM56.3806 44.3765L56.0431 44.1848C56.0125 44.1695 55.9588 44.1695 55.9281 44.1848L55.3529 44.5146C55.3222 44.5299 55.2839 44.5299 55.2532 44.5146L54.8007 44.2538C54.7547 44.2232 54.6704 44.2232 54.6244 44.2538L53.5967 44.852C53.5507 44.8827 53.5507 44.9287 53.5967 44.9517L54.494 45.4732C54.54 45.5039 54.6244 45.5039 54.6704 45.4732L56.3806 44.4762C56.4266 44.4456 56.4266 44.3995 56.3806 44.3765Z" fill="#FBFFFB"/>
<path d="M52.2239 45.7877L61.6109 40.3273L58.781 45.5499L49.3864 51.0027L52.2239 45.7877Z" fill="#C9C6C1"/>
<path d="M52.0858 45.6344L61.4805 40.1816L61.6108 40.3274L52.2239 45.7877L52.0858 45.6344Z" fill="#ECE7E2"/>
<path d="M52.0859 45.6344L52.2239 45.7878L49.3863 51.0028L49.302 50.9568V51.1255L42.7142 47.3216L42.7219 46.9688L49.2943 50.7727L52.0859 45.6344Z" fill="url(#paint2_linear_389_98765)"/>
<path d="M34.6157 33.172C34.5007 35.2427 34.539 39.1539 34.6771 39.4147C35.2906 40.5804 41.4412 44.1925 41.5179 44.2308C42.2311 44.6143 43.4658 42.674 42.998 42.2752C41.3722 40.9331 37.8521 37.8195 37.8521 37.8195C37.9058 35.7028 38.0668 34.4067 38.2279 32.2901C38.3506 30.6412 38.1435 27.842 36.5023 28.1488C35.1986 28.4018 34.7077 31.5845 34.6157 33.172Z" fill="#8691C7"/>
<path d="M37.8597 37.8196C37.8981 35.9713 38.0975 34.1384 38.2278 32.2979C38.2202 32.2979 38.0668 33.6706 38.0668 33.6706C38.0131 34.1308 37.9747 34.5909 37.9364 35.0511C37.852 35.9713 37.7907 36.8916 37.76 37.8196C37.76 37.8426 37.7677 37.8733 37.7907 37.8886C38.642 38.6479 39.5162 39.3611 40.3752 40.105L41.6712 41.2093L42.9903 42.2907C42.998 42.2753 37.8597 37.8196 37.8597 37.8196Z" fill="#94A2D6"/>
<path d="M42.9367 42.3673C42.5993 42.1142 41.2035 43.8474 41.587 44.1465C41.679 44.2156 41.771 44.2693 41.8324 44.3153C42.3845 44.6987 43.7266 42.9808 43.2128 42.5974C43.1821 42.5744 43.1438 42.536 42.9367 42.3673Z" fill="#EFEFEF"/>
<path d="M46.4721 42.9577C46.4031 42.904 45.8126 42.7813 45.5748 42.7276C45.3831 42.6816 45.176 42.7199 44.9766 42.7506C44.3018 42.8503 43.8416 42.881 43.1744 42.7429C42.6452 42.6202 41.5869 44.1234 42.001 44.2844C42.3231 44.4071 42.6529 44.6909 42.8063 44.7906C43.0057 44.921 43.2588 44.944 43.4965 44.9516C43.7879 44.9593 44.0717 44.9516 44.3631 44.9286C44.5932 44.9056 44.7542 44.9056 44.8999 45.0897C44.9843 45.197 45.0533 45.2814 45.1147 45.3964C45.176 45.5192 45.2681 45.6112 45.3908 45.6572C45.7205 45.7799 46.7482 44.9133 46.8632 44.6602C47.0166 44.3688 46.8326 43.2414 46.4721 42.9577Z" fill="#FCBE9F"/>
<path d="M28.9789 61.3018L28.4268 61.2405V65.5812L28.5955 65.6809V68.6948L37.8904 74.0632V66.5015L28.9789 61.3018Z" fill="#302928"/>
<path d="M37.898 66.5015L37.714 66.6012V70.9419L37.8904 70.8422V74.0632L39.0254 73.4037V65.8496L37.898 66.5015Z" fill="#3A302E"/>
<path d="M29.7382 60.4812L28.4268 61.2404L37.714 66.6011L39.0254 65.8496L29.7382 60.4812Z" fill="#473B37"/>
<path d="M30.5818 66.4095L29.347 65.6963V64.6763L30.5818 65.3818V66.4095Z" fill="#5A5352"/>
<path d="M30.7812 66.2868L30.5818 66.4095V65.3819L30.7812 65.2668V66.2868Z" fill="#786E6D"/>
<path d="M30.5818 65.382L29.347 64.6764L29.5541 64.5537L30.7812 65.2669L30.5818 65.382Z" fill="#9C9292"/>
<path d="M36.2108 69.6611L34.9838 68.9478V67.9279L36.2108 68.6334V69.6611Z" fill="#5A5352"/>
<path d="M36.4102 69.5384L36.2108 69.6611V68.6335L36.4102 68.5184V69.5384Z" fill="#786E6D"/>
<path d="M36.2108 68.6336L34.9838 67.928L35.1832 67.8053L36.4102 68.5185L36.2108 68.6336Z" fill="#9C9292"/>
<path d="M35.7507 64.2546L35.0221 62.9892L32.5527 61.5627L31.8165 61.9845L31.2489 61.6548L30.7811 61.9309V62.0919L31.8701 62.7208L32.2766 62.4984L34.3549 63.6948L34.7537 64.385L35.8427 65.0062L36.3105 64.7377V64.5767L35.7507 64.2546Z" fill="#302928"/>
<path d="M38.9488 49.6144C38.8107 49.6067 38.665 49.5607 38.5116 49.4687C38.3812 49.3997 38.2202 49.0699 38.1665 48.5407C38.1128 47.9886 38.1435 47.7278 38.2202 47.6588L38.7264 47.9579C38.8261 48.0729 39.0024 48.0806 39.1175 47.9809L39.0101 47.352C38.4426 47.0069 38.1742 46.9763 38.0822 47.0146C37.9594 47.0606 37.8597 47.145 37.7831 47.2753C37.4379 47.8735 37.599 49.5071 38.2355 49.9519C38.6803 50.2663 38.7033 50.1589 38.9258 50.1666C39.0868 50.1666 39.2095 50.0516 39.2172 49.8982C39.2248 49.7448 39.1021 49.6221 38.9488 49.6144Z" fill="#ECE7E2"/>
<path d="M38.4119 47.9884V50.9563C38.4119 51.1941 38.5652 51.4395 38.8797 51.6159C39.5085 51.9763 40.5209 51.9763 41.1497 51.6159C41.4565 51.4395 41.6175 51.2018 41.6175 50.9717V48.0037L38.4119 47.9884Z" fill="#ECE7E2"/>
<path d="M41.1498 48.648C41.7786 48.2876 41.7786 47.6971 41.1498 47.3366C40.5209 46.9762 39.5086 46.9762 38.8797 47.3366C38.2509 47.6971 38.2509 48.2876 38.8797 48.648C39.5086 49.0085 40.5286 49.0085 41.1498 48.648Z" fill="#F9F5F2"/>
<path d="M41.027 48.579C41.5869 48.2569 41.5869 47.7354 41.027 47.4056C40.4672 47.0835 39.5622 47.0835 39.0024 47.4056C38.4426 47.7277 38.4426 48.2492 39.0024 48.579C39.5622 48.9011 40.4672 48.9011 41.027 48.579Z" fill="#ECE7E2"/>
<path d="M41.0271 47.7507C40.4673 47.4286 39.5623 47.4286 39.0025 47.7507C38.7954 47.8658 38.6727 48.0115 38.619 48.1649C38.6727 48.3182 38.8031 48.4563 39.0025 48.579C39.5623 48.9011 40.4673 48.9011 41.0271 48.579C41.2342 48.464 41.3569 48.3182 41.4106 48.1649C41.3569 48.0115 41.2342 47.8734 41.0271 47.7507Z" fill="#51321D"/>
<path d="M64.6172 53.0809L58.4896 49.5454V47.7509L64.6172 51.2863V53.0809Z" fill="#C9C9C9"/>
<path d="M69.1114 50.4888L64.6173 53.0809V51.2864L69.1114 48.6942V50.4888Z" fill="#DDDDDD"/>
<path d="M64.6172 51.2863L58.4896 47.7508L62.976 45.1587L69.1113 48.6941L64.6172 51.2863Z" fill="white"/>
<path opacity="0.5" d="M66.9103 50.3738L65.3841 51.2557C65.3535 51.271 65.3304 51.3094 65.3304 51.3324C65.3304 51.3631 65.3535 51.3707 65.3841 51.3554L66.9103 50.4735C66.941 50.4581 66.964 50.4198 66.964 50.3968C66.964 50.3661 66.941 50.3584 66.9103 50.3738Z" fill="#C9C9C9"/>
<path opacity="0.5" d="M68.4441 49.9059L66.9179 50.7878C66.8873 50.8031 66.8643 50.8415 66.8643 50.8645C66.8643 50.8952 66.8873 50.9028 66.9179 50.8875L68.4441 50.0056C68.4748 49.9902 68.4978 49.9519 68.4978 49.9289C68.4978 49.8982 68.4748 49.8905 68.4441 49.9059Z" fill="#C9C9C9"/>
<path opacity="0.5" d="M67.3857 50.9872L65.8596 51.8691C65.8289 51.8844 65.8059 51.9228 65.8059 51.9458C65.8059 51.9765 65.8289 51.9841 65.8596 51.9688L67.3857 51.0869C67.4164 51.0715 67.4394 51.0332 67.4394 51.0102C67.4394 50.9795 67.4164 50.9718 67.3857 50.9872Z" fill="#C9C9C9"/>
<path opacity="0.5" d="M61.6416 49.9826L63.1677 50.8646C63.1984 50.8799 63.2214 50.9183 63.2214 50.9413C63.2214 50.972 63.1984 50.9796 63.1677 50.9643L61.6416 50.0823C61.6109 50.067 61.5879 50.0287 61.5879 50.0057C61.5956 49.975 61.6186 49.9673 61.6416 49.9826Z" fill="#C9C9C9"/>
<path opacity="0.5" d="M59.5019 49.162L61.0281 50.0439C61.0588 50.0593 61.0818 50.0976 61.0818 50.1206C61.0818 50.1513 61.0588 50.1589 61.0281 50.1436L59.5019 49.2617C59.4712 49.2463 59.4482 49.208 59.4482 49.185C59.4482 49.1543 59.4712 49.1466 59.5019 49.162Z" fill="#C9C9C9"/>
<path opacity="0.5" d="M62.4929 51.3631L64.019 52.2451C64.0497 52.2604 64.0727 52.2988 64.0727 52.3218C64.0727 52.3525 64.0497 52.3601 64.019 52.3448L62.4929 51.4628C62.4622 51.4475 62.4392 51.4092 62.4392 51.3861C62.4392 51.3555 62.4622 51.3478 62.4929 51.3631Z" fill="#C9C9C9"/>
<path d="M46.8095 19.9811C47.0243 19.8584 47.2083 19.9505 47.2083 20.1959C47.2083 20.4336 47.0243 20.7404 46.8172 20.8631C46.5948 20.9858 46.4184 20.8938 46.4184 20.656C46.4107 20.4029 46.5871 20.1038 46.8095 19.9811ZM45.5211 11.5221C45.5288 13.7231 46.4568 15.1496 47.8986 15.6021C47.7758 15.6328 47.6455 15.6864 47.5074 15.7631C46.7022 16.2233 46.058 17.32 46.0656 18.2019C46.0656 19.0915 46.7175 19.4366 47.5151 18.9765C48.3127 18.5163 48.9646 17.4196 48.9569 16.53C48.9569 16.1696 48.8419 15.9012 48.6578 15.7401C49.5858 15.8091 50.6824 15.5331 51.8405 14.8658C55.3222 12.8565 58.1368 8.1017 58.1291 4.24414C58.1215 0.378917 55.2839 -1.11656 51.8021 0.892746C48.3204 2.90205 45.5135 7.65689 45.5211 11.5221Z" fill="#EDE8E4"/>
<path d="M55.5216 2.02779C54.6167 1.49863 53.359 1.57532 51.9785 2.3729C49.2253 3.96041 47.009 7.81029 47.0166 10.97C47.0243 12.5421 47.5765 13.6465 48.4661 14.1603L49.8388 14.9579L56.8944 2.81771L55.5216 2.02779Z" fill="#2580D0"/>
<path d="M53.3513 3.1705C54.5553 2.47261 55.6597 2.3269 56.5263 2.649C57.6383 3.06313 58.3439 4.24417 58.3515 6.0234C58.3592 9.18307 56.1352 13.033 53.3896 14.6205C50.6364 16.208 48.4047 14.9349 48.3971 11.7752C48.3817 8.60789 50.6058 4.76567 53.3513 3.1705Z" fill="#3DA6E8"/>
<path d="M53.3283 3.73788C54.4096 3.10901 55.4066 2.97863 56.1889 3.27006C57.1858 3.63818 57.83 4.70418 57.83 6.30702C57.8377 9.15226 55.8361 12.6187 53.359 14.0528C50.8818 15.4869 48.8649 14.3366 48.8572 11.4913C48.8495 8.63843 50.8512 5.172 53.3283 3.73788Z" fill="#FFFBF8"/>
<path opacity="0.4" d="M57.4772 6.33773C57.5539 6.3454 57.5846 6.44509 57.5386 6.56013C57.5079 6.63682 57.4542 6.70584 57.4005 6.73652C57.3699 6.75186 57.3469 6.75953 57.3239 6.75953C57.2472 6.75186 57.2165 6.65216 57.2625 6.53712C57.2932 6.46043 57.3469 6.39908 57.4005 6.36073C57.4236 6.3454 57.4542 6.33773 57.4772 6.33773ZM56.6873 4.64286C56.6873 4.75022 56.764 4.78857 56.8484 4.73489C56.9404 4.6812 57.0094 4.5585 57.0094 4.45113C57.0094 4.35143 56.9327 4.30542 56.8484 4.3591C56.764 4.41278 56.6873 4.53549 56.6873 4.64286ZM56.7793 9.06026C56.7027 9.15995 56.6797 9.28266 56.718 9.35168C56.7487 9.39003 56.8024 9.3977 56.856 9.35935C56.8867 9.34401 56.9097 9.321 56.9404 9.29033C57.0171 9.19063 57.0401 9.06792 57.0018 8.9989C56.9711 8.96056 56.9174 8.95289 56.8637 8.99123C56.833 9.00657 56.81 9.02958 56.7793 9.06026ZM55.2302 11.8135C55.2302 11.9132 55.2992 11.9592 55.3912 11.9055C55.4833 11.8518 55.5523 11.7291 55.5523 11.6294C55.5523 11.522 55.4756 11.4837 55.3912 11.5374C55.3069 11.5834 55.2302 11.7061 55.2302 11.8135ZM55.4526 3.81459C55.5293 3.7149 55.5523 3.58452 55.514 3.52317C55.4833 3.47715 55.4296 3.47715 55.3759 3.50783C55.3452 3.52317 55.3222 3.54618 55.2992 3.57685C55.2225 3.67655 55.1995 3.79926 55.2379 3.86828C55.2685 3.91429 55.3222 3.91429 55.3759 3.88362C55.3989 3.87595 55.4296 3.85294 55.4526 3.81459ZM53.3589 4.06C53.3052 4.09068 53.2516 4.1597 53.2209 4.23639C53.1749 4.35143 53.2056 4.45113 53.2822 4.4588C53.3053 4.4588 53.3359 4.45113 53.3666 4.43579C53.4203 4.40511 53.474 4.33609 53.5046 4.2594C53.5507 4.14436 53.52 4.04467 53.4433 4.037C53.4126 4.037 53.3819 4.04467 53.3589 4.06ZM53.3819 13.3166C53.3283 13.3473 53.2746 13.4163 53.2439 13.493C53.1979 13.608 53.2286 13.7077 53.3052 13.7154C53.3283 13.7154 53.3589 13.7077 53.3896 13.6924C53.4433 13.6617 53.497 13.5927 53.5277 13.516C53.5737 13.401 53.543 13.3013 53.4663 13.2936C53.4356 13.2936 53.4126 13.3013 53.3819 13.3166ZM51.2883 13.9301C51.2116 14.0298 51.1886 14.1525 51.2269 14.2216C51.2576 14.2676 51.3113 14.2676 51.365 14.2369C51.3956 14.2216 51.4187 14.1985 51.4493 14.1679C51.526 14.0682 51.549 13.9455 51.5107 13.8764C51.48 13.8381 51.4263 13.8304 51.3726 13.8688C51.342 13.8764 51.3113 13.8995 51.2883 13.9301ZM49.7928 8.4544C49.7161 8.55409 49.6854 8.68447 49.7315 8.74582C49.7621 8.79184 49.8158 8.79184 49.8695 8.76116C49.9002 8.74582 49.9232 8.72282 49.9462 8.69214C50.0229 8.59244 50.0459 8.46973 50.0075 8.40071C49.9769 8.3547 49.9232 8.3547 49.8695 8.38537C49.8465 8.40071 49.8235 8.42372 49.7928 8.4544ZM49.7238 13.2936C49.7238 13.401 49.8005 13.4393 49.8848 13.3856C49.9769 13.3319 50.0459 13.2092 50.0459 13.1095C50.0459 13.0098 49.9692 12.9638 49.8848 13.0175C49.8005 13.0635 49.7238 13.1939 49.7238 13.2936ZM49.3403 11.0159C49.2866 11.0466 49.233 11.1156 49.2023 11.1923C49.1563 11.3073 49.1869 11.407 49.2636 11.4147C49.2866 11.4147 49.3173 11.407 49.3403 11.3917C49.394 11.361 49.4477 11.292 49.4784 11.2153C49.5244 11.1002 49.4937 11.0005 49.417 10.9929C49.394 10.9929 49.371 11.0005 49.3403 11.0159ZM51.503 5.93893C51.503 5.83157 51.434 5.79322 51.342 5.8469C51.2499 5.90059 51.1809 6.02329 51.1809 6.12299C51.1809 6.22269 51.2576 6.2687 51.342 6.21502C51.434 6.16134 51.503 6.03863 51.503 5.93893Z" fill="#564D4C"/>
<path d="M53.589 8.73811C53.566 8.73044 53.5354 8.73811 53.5277 8.76111L51.5184 13.6387C51.5107 13.6617 51.5184 13.6923 51.5414 13.7C51.5874 13.7 51.5951 13.6923 51.6027 13.677L53.612 8.79946C53.6197 8.77645 53.612 8.74577 53.589 8.73811Z" fill="#CE2E2E"/>
<path d="M53.5353 8.84559L53.6657 9.25972C55.3222 7.96364 55.8667 7.32711 55.8744 7.15072C55.8744 6.95132 55.2455 7.3041 53.5353 8.84559Z" fill="#443D3C"/>
<path d="M53.6121 8.52346C53.543 8.48511 53.4433 8.48511 53.336 8.54646C53.1212 8.66917 52.9525 8.96826 52.9525 9.21368C52.9525 9.33638 52.9909 9.42074 53.0599 9.45909L53.2823 9.58946L53.8345 8.64616L53.6121 8.52346Z" fill="#443D3C"/>
<path d="M53.1749 9.34399C53.1749 9.5894 53.3436 9.6891 53.5584 9.56639C53.7731 9.44369 53.9418 9.14459 53.9418 8.89918C53.9418 8.65377 53.7731 8.55407 53.5584 8.67678C53.3436 8.79948 53.1749 9.09858 53.1749 9.34399Z" fill="#564D4C"/>
<path d="M53.5813 8.62312C53.704 2.47251 53.0521 2.83296 53.1825 8.93756C53.2975 8.81485 53.5046 8.66147 53.5813 8.62312Z" fill="#443D3C"/>
<defs>
<linearGradient id="paint0_linear_389_98765" x1="46.5066" y1="28.4042" x2="49.0728" y2="29.5001" gradientUnits="userSpaceOnUse">
<stop stop-color="#8691C7"/>
<stop offset="1" stop-color="#7580BA"/>
</linearGradient>
<linearGradient id="paint1_linear_389_98765" x1="37.6239" y1="61.0195" x2="41.9399" y2="56.7036" gradientUnits="userSpaceOnUse">
<stop stop-color="#B6B2AE"/>
<stop offset="1" stop-color="#BCB8B4"/>
</linearGradient>
<linearGradient id="paint2_linear_389_98765" x1="45.2279" y1="49.8331" x2="50.756" y2="44.305" gradientUnits="userSpaceOnUse">
<stop stop-color="#B6B2AE"/>
<stop offset="1" stop-color="#BCB8B4"/>
</linearGradient>
</defs>
</svg>
