<svg width="100" height="79" viewBox="0 0 100 79" fill="none" xmlns="http://www.w3.org/2000/svg">
<path d="M72.4711 74.6099L60.3604 70.2019C65.2262 65.0309 63.8706 58.4323 56.3025 54.0603C47.0826 48.7366 32.1349 48.7366 22.915 54.0603C13.695 59.384 13.695 68.0114 22.915 73.3351C32.1349 78.6588 47.0826 78.6588 56.3025 73.3351C56.3743 73.2902 56.4462 73.2453 56.518 73.2004L58.098 74.1161H59.3369L61.4467 75.3371H62.6856L64.7953 76.558H66.0342L68.1439 77.779H69.3828L71.4926 78.9999H73.2522L72.4711 74.6099Z" fill="#D8D2C9"/>
<path d="M65.5944 17.4235C61.6083 15.1073 56.0961 15.4305 50.0003 18.9497C37.8986 25.9432 28.122 42.8839 28.1579 56.7901C28.1759 63.7029 30.6178 68.5597 34.55 70.849L40.5829 74.3503L71.6273 20.9338L65.5944 17.4235Z" fill="url(#paint0_linear_389_93927)"/>
<path d="M56.0422 22.451C61.3389 19.3987 66.1958 18.7523 69.9933 20.1528C74.8771 21.9573 78.0013 27.1553 78.0192 34.9837C78.0551 48.89 68.2786 65.8306 56.1768 72.8152C44.0751 79.8087 34.2357 74.1887 34.1908 60.2825C34.1549 46.3852 43.9314 29.4446 56.0422 22.451Z" fill="#247DCE"/>
<path d="M55.9166 24.9467C60.6836 22.1906 65.0647 21.6071 68.4851 22.8819C72.8841 24.5068 75.7031 29.1931 75.7211 36.2405C75.757 48.7642 66.95 64.0261 56.0422 70.3193C45.1345 76.6126 36.2736 71.5582 36.2377 59.0345C36.2108 46.5019 45.0178 31.249 55.9166 24.9467Z" fill="#FFF7F0"/>
<path d="M35.295 50.9814C34.7474 52.8936 34.2626 55.8472 34.1908 60.2911C34.4691 56.0717 35.0706 52.9834 35.6631 51.0802C39.3349 36.4467 55.5484 15.8163 69.9933 20.1614C56.2576 15.1968 38.9579 34.7141 35.295 50.9814Z" fill="url(#paint1_linear_389_93927)"/>
<path d="M74.1858 36.3928C74.5269 36.4198 74.6437 36.8507 74.4461 37.3534C74.3115 37.6946 74.0781 37.9819 73.8267 38.1255C73.71 38.1973 73.5843 38.2332 73.4766 38.2243C73.1354 38.1883 73.0187 37.7664 73.2162 37.2547C73.3509 36.9135 73.5843 36.6352 73.8267 36.4916C73.9434 36.4198 74.0691 36.3839 74.1858 36.3928Z" fill="#AFAAA5"/>
<path d="M71.4208 27.6846C71.8158 27.4511 72.139 27.6397 72.139 28.0885C72.139 28.5464 71.8248 29.094 71.4298 29.3274C71.0347 29.5519 70.7205 29.3723 70.7205 28.9145C70.7115 28.4566 71.0258 27.909 71.4208 27.6846Z" fill="#AFAAA5"/>
<path d="M71.4836 48.0367C71.726 47.8931 71.9684 47.9021 72.1031 48.0906C72.3006 48.3689 72.1839 48.9345 71.8517 49.3564C71.735 49.5001 71.6183 49.5988 71.4926 49.6707C71.2502 49.8143 71.0078 49.8053 70.8732 49.6168C70.6757 49.3385 70.7924 48.7729 71.1245 48.351C71.2323 48.2163 71.358 48.1086 71.4836 48.0367Z" fill="#AFAAA5"/>
<path d="M65.0109 59.2406C65.4059 59.0072 65.7291 59.1957 65.7291 59.6536C65.7291 60.1024 65.4148 60.6501 65.0198 60.8835C64.6248 61.1079 64.3106 60.9284 64.3106 60.4795C64.3016 60.0127 64.6248 59.465 65.0109 59.2406Z" fill="#AFAAA5"/>
<path d="M64.921 25.6018C64.6696 25.7454 64.4272 25.7365 64.3016 25.5479C64.1041 25.2696 64.2118 24.704 64.5529 24.2821C64.6607 24.1474 64.7863 24.0397 64.9031 23.9679C65.1454 23.8242 65.3878 23.8332 65.5225 24.0218C65.72 24.2911 65.6033 24.8656 65.2711 25.2876C65.1634 25.4312 65.0467 25.53 64.921 25.6018Z" fill="#AFAAA5"/>
<path d="M56.4013 26.2571C56.7425 26.284 56.8592 26.7149 56.6706 27.2267C56.536 27.5678 56.3026 27.8461 56.0602 27.9898C55.9345 28.0616 55.8178 28.0975 55.7011 28.0885C55.3599 28.0616 55.2432 27.6307 55.4407 27.1279C55.5664 26.7868 55.8088 26.4995 56.0602 26.3648C56.1679 26.284 56.2936 26.2481 56.4013 26.2571Z" fill="#AFAAA5"/>
<path d="M56.518 66.988C56.8592 67.0149 56.9759 67.4458 56.7873 67.9575C56.6527 68.2987 56.4193 68.577 56.1769 68.7206C56.0512 68.7925 55.9345 68.8284 55.8178 68.8194C55.4766 68.7925 55.3599 68.3615 55.5574 67.8498C55.6831 67.5177 55.9255 67.2304 56.1679 67.0867C56.2846 67.0059 56.4103 66.979 56.518 66.988Z" fill="#AFAAA5"/>
<path d="M47.289 69.4661C47.5314 69.3224 47.7738 69.3314 47.9085 69.5109C48.106 69.7892 47.9893 70.3548 47.6481 70.7858C47.5404 70.9294 47.4147 71.0371 47.289 71.1C47.0466 71.2436 46.8043 71.2346 46.6696 71.0461C46.4721 70.7678 46.5888 70.2022 46.9299 69.7713C47.0556 69.6456 47.1723 69.5379 47.289 69.4661Z" fill="#AFAAA5"/>
<path d="M40.7265 45.3973C40.9689 45.2537 41.2113 45.2627 41.3459 45.4512C41.5434 45.7295 41.4357 46.2951 41.0945 46.717C40.9868 46.8517 40.8611 46.9594 40.7444 47.0312C40.502 47.1749 40.2596 47.1659 40.125 46.9774C39.9275 46.7081 40.0442 46.1335 40.3853 45.7026C40.4841 45.5679 40.6098 45.4692 40.7265 45.3973Z" fill="#AFAAA5"/>
<path d="M40.7893 65.758C41.1843 65.5336 41.4985 65.7131 41.4985 66.162C41.4985 66.6198 41.1843 67.1675 40.7893 67.3919C40.3943 67.6253 40.0711 67.4368 40.0711 66.979C40.0711 66.539 40.3943 65.9914 40.7893 65.758Z" fill="#AFAAA5"/>
<path d="M38.7425 56.8527C39.0836 56.8796 39.2003 57.3105 39.0028 57.8133C38.8771 58.1544 38.6347 58.4417 38.3834 58.5854C38.2666 58.6572 38.141 58.6931 38.0332 58.6751C37.6921 58.6482 37.5664 58.2173 37.7639 57.7055C37.8986 57.3644 38.132 57.0861 38.3744 56.9425C38.5001 56.8796 38.6257 56.8437 38.7425 56.8527Z" fill="#AFAAA5"/>
<path d="M47.1993 35.8363C46.8043 36.0607 46.4901 35.8812 46.4901 35.4323C46.4901 34.9744 46.8043 34.4268 47.1993 34.2024C47.5943 33.9779 47.9085 34.1575 47.9085 34.6153C47.9085 35.0552 47.5943 35.6029 47.1993 35.8363Z" fill="#AFAAA5"/>
<path d="M57.0656 46.9236C56.9579 46.8787 56.8412 46.9326 56.7963 47.0403L47.9713 68.4967C47.9264 68.6044 47.9803 68.7211 48.088 68.766C48.1329 68.784 48.1778 68.784 48.2137 68.775C48.2766 68.757 48.3304 68.7121 48.3574 68.6493L57.1823 47.1929C57.2182 47.0942 57.1733 46.9685 57.0656 46.9236Z" fill="#CE2E2E"/>
<path d="M56.8322 47.4081L57.3888 49.2216C64.6876 43.5209 67.0846 40.7199 67.1025 39.9298C67.1295 39.0859 64.3734 40.6121 56.8322 47.4081Z" fill="#2D2727"/>
<path d="M57.1734 45.9897C56.8682 45.8012 56.4373 45.8281 55.9615 46.0974C55.0278 46.6361 54.2647 47.9468 54.2647 49.0331C54.2647 49.5628 54.4532 49.9398 54.7495 50.1194L55.7191 50.676L58.134 46.5374L57.1734 45.9897Z" fill="#2D2727"/>
<path d="M57.3888 46.1156C57.0836 45.927 56.6527 45.954 56.1769 46.2233C55.2432 46.762 54.4801 48.0727 54.4801 49.159C54.4801 49.6886 54.6686 50.0657 54.9649 50.2453L55.1714 50.362C54.8751 50.1824 54.6866 49.8054 54.6866 49.2757C54.6866 48.1984 55.4407 46.8787 56.3833 46.34C56.8592 46.0707 57.2811 46.0438 57.5953 46.2233L57.3888 46.1156Z" fill="#CE2E2E"/>
<path d="M55.2432 49.599C55.2432 50.6763 55.9973 51.1162 56.94 50.5775C57.8737 50.0389 58.6367 48.7281 58.6367 47.6418C58.6367 46.5645 57.8826 46.1246 56.94 46.6633C55.9973 47.2019 55.2432 48.5216 55.2432 49.599Z" fill="#443D3C"/>
<path d="M57.0476 46.4297C57.5863 19.3444 54.7045 20.9424 55.2791 47.8033C55.7998 47.2646 56.6975 46.6003 57.0476 46.4297Z" fill="#2D2727"/>
<path d="M55.1625 5.03393C54.9829 5.69827 54.2378 8.95712 54.7495 10.2948C55.0188 11.004 57.8198 14.1462 58.1879 14.8464C58.4123 15.2773 60.1181 14.4245 59.8577 13.8948L57.1106 9.62146C57.1106 9.62146 57.748 6.64091 57.5954 5.13268C57.5415 4.61198 57.0298 3.75911 56.3026 3.81298C55.746 3.85787 55.2881 4.55812 55.1625 5.03393Z" fill="#8691C7"/>
<path d="M56.6976 33.0168C57.2722 33.3938 58.556 33.4118 58.7984 32.6577C58.9151 32.3075 58.161 30.1529 58.0532 29.5155C58.0173 29.336 57.9635 29.0128 57.9635 29.0128C57.9096 28.9589 57.7121 28.932 57.6403 28.914C57.3171 28.8153 56.7784 29.0217 56.4462 29.0487C56.2757 29.0666 56.2846 30.2247 56.2936 30.3414C56.3026 31.0596 56.2487 32.7295 56.6976 33.0168Z" fill="#E08C38"/>
<path d="M56.6348 32.649C57.2093 33.026 58.4931 33.044 58.7355 32.2899C58.8522 31.9397 58.152 29.7851 58.0442 29.1477C58.0083 28.9682 57.9545 28.645 57.9545 28.645C57.9006 28.5911 57.6582 28.5731 57.5774 28.5462C57.2542 28.4475 56.7156 28.6539 56.3834 28.6809C56.2128 28.6988 56.2218 29.8569 56.2308 29.9736C56.2397 30.6829 56.1949 32.3527 56.6348 32.649Z" fill="#211D1D"/>
<path d="M61.3121 27.5137C61.3031 27.4599 61.4108 27.1726 61.5006 27.029L59.5794 26.3826C59.4268 26.9033 58.9689 27.1098 58.8343 27.5676C58.7086 28.0075 59.1126 28.3397 61.1505 29.8389C62.1919 30.611 62.6408 30.7457 63.0537 30.6469C63.3051 30.5841 63.5655 30.4314 63.5744 30.0005C63.5924 29.2195 61.4019 27.8998 61.3121 27.5137Z" fill="#211D1D"/>
<path d="M63.5744 30.0366C63.4757 30.1982 63.3141 30.279 63.1525 30.3149C62.7395 30.4137 62.2906 30.279 61.2492 29.507C59.4357 28.1693 58.933 27.8282 58.9151 27.3793C58.8881 27.4331 58.8073 27.5858 58.7894 27.6486C58.7175 27.891 58.8343 28.0346 59.2472 28.4027C59.5973 28.7259 60.2348 29.1568 61.1774 29.8481C62.2188 30.6202 62.6587 30.7279 63.0717 30.6291C63.2961 30.5753 63.5475 30.4316 63.5744 30.0366Z" fill="#E08C38"/>
<path d="M57.0657 15.4481L56.4103 14.3439L50.3595 15.6007C50.3056 18.3658 50.4672 19.0212 50.8802 19.7933C51.3829 20.7269 55.1625 24.0845 55.1625 24.4526C55.2253 25.8082 55.7819 26.9933 56.0602 29.0671C56.3295 29.9648 58.134 29.5249 58.134 28.8965C58.134 26.7239 57.9724 23.3933 57.8916 23.0431C57.8198 22.693 56.159 19.5868 56.159 19.5868C57.6672 20.691 60.8991 22.2352 60.8991 22.2352C60.1719 23.1958 60.1181 24.5693 59.4358 26.6521C59.2652 27.2357 61.1864 28.1155 61.4378 27.514C61.7161 26.8676 63.0807 23.8601 63.9515 21.3643C64.1939 20.6551 63.736 20.2242 63.3679 19.9189C62.2009 18.9583 58.6727 16.5883 57.0657 15.4481Z" fill="#3A3338"/>
<path d="M49.8207 6.56909C48.6716 7.52969 50.6557 11.6235 50.6557 13.1137C50.6557 14.6758 50.2876 15.7711 50.3414 16.3187C50.4761 17.6923 56.8951 16.9382 56.6886 14.8105C56.6886 14.8105 56.3923 11.2105 56.931 8.49029C57.326 6.9641 57.3978 3.89378 56.3205 3.92071C55.6292 3.93866 51.4367 5.22246 49.8207 6.56909Z" fill="#8691C7"/>
<path d="M54.6058 4.47725C54.0492 4.50418 53.5465 4.6568 52.4782 5.20443C51.3919 5.75206 52.7385 8.84932 55.0278 9.32513C56.4732 6.12014 55.0816 4.45032 54.6058 4.47725Z" fill="#EEEEEE"/>
<path d="M52.972 6.44343C53.1874 6.74867 53.6902 7.00004 54.0582 7.06289L54.6777 8.05042L54.9111 6.79356C55.351 6.79356 55.4587 4.91725 55.4947 4.09131C55.5036 3.90278 55.4947 3.70528 55.4228 3.5347C55.3331 3.31924 55.1356 3.15765 54.938 3.03196C54.6597 2.85241 54.3365 2.70877 54.0044 2.69081C53.8518 2.68184 53.6902 2.70877 53.5824 2.8165C53.5106 2.8973 53.4747 3.00503 53.4478 3.10378C53.2682 3.75914 53.0168 4.3786 52.7296 4.99805C52.4872 5.50079 52.6398 5.98558 52.972 6.44343Z" fill="#F2A883"/>
<path d="M54.0493 7.05385L52.9181 7.78104C52.9181 7.78104 51.7061 5.66233 52.7296 4.98901C52.55 5.69824 53.4478 6.91919 54.0493 7.05385Z" fill="white"/>
<path d="M54.9111 6.79367L55.8538 6.84753C55.8538 6.84753 55.6114 6.25501 55.3061 5.52783C55.369 6.49741 54.9111 6.79367 54.9111 6.79367Z" fill="white"/>
<path d="M56.7335 3.22944C56.7694 2.90625 56.8323 2.41248 56.5809 2.21497C56.1859 1.90076 55.1714 1.46984 53.4118 2.25088C53.1605 2.35862 52.9809 2.59203 52.8014 2.79852C52.5949 3.04091 52.5769 3.18455 52.5859 3.48081C52.5949 4.02844 52.4961 4.25288 53.2054 5.21348C53.7979 6.01248 54.6777 6.6858 54.8842 6.81149C55.1445 6.97308 55.4049 7.02695 55.6742 6.97308C55.9256 6.92819 56.1949 6.70376 56.3116 6.12021C56.3924 5.68031 56.6078 4.41448 56.7335 3.22944Z" fill="#FBBD9E"/>
<path d="M53.6721 4.20798C53.744 4.37856 53.9235 4.45936 53.9594 4.32469C54.0672 3.85786 54.0761 3.45387 55.0996 3.35512C55.6652 3.30125 56.518 3.17557 56.7694 2.78953C56.9938 2.4394 57.0208 2.08928 56.922 1.46085C56.8143 0.778556 55.8896 -0.164088 54.4532 0.0244405C54.0941 0.0693283 53.7888 0.150126 53.4297 0.509229C53.4297 0.509229 53.1155 0.347633 52.6846 0.697758C51.8946 1.35312 52.0652 3.43591 52.3255 3.98355C52.4871 4.32469 52.8193 4.80948 53.0258 4.98903C52.936 4.61198 52.5499 3.82195 52.9629 3.59751C53.1155 3.51671 53.3041 3.52569 53.4387 3.6424C53.5554 3.74115 53.6183 4.0823 53.6721 4.20798Z" fill="#724A2F"/>
<path d="M59.7589 14.0113C59.6063 13.742 58.152 14.4872 58.3225 14.8014C58.3674 14.8822 58.4033 14.936 58.4392 14.9899C58.6906 15.4118 60.1091 14.6667 59.8846 14.2537C59.8577 14.2268 59.8397 14.1909 59.7589 14.0113Z" fill="#EEEEEE"/>
<path d="M58.4033 22.2081L64.7415 18.5183V18.635L58.4033 22.3248V22.2081Z" fill="#C9C6C1"/>
<path d="M53.9504 19.5151L60.2975 15.8253L64.7414 18.3929L58.3943 22.0827L53.9504 19.5151Z" fill="#ECE7E2"/>
<path opacity="0.1" d="M59.9923 18.0429L57.9544 19.219C57.9095 19.2459 57.8377 19.2459 57.7928 19.219L56.4461 18.438C56.4013 18.411 56.4013 18.3661 56.4461 18.3392L58.484 17.1631C58.5289 17.1362 58.6008 17.1362 58.6456 17.1631L59.9923 17.9442C60.0372 17.9711 60.0372 18.016 59.9923 18.0429Z" fill="#C9C6C1"/>
<path d="M56.4372 18.3661L58.4751 17.1901C58.52 17.1631 58.5918 17.1631 58.6367 17.1901L59.9834 17.9711C60.0013 17.9801 60.0103 17.9981 60.0193 18.007C60.0282 17.9891 60.0193 17.9621 59.9834 17.9442L58.6367 17.1631C58.5918 17.1362 58.52 17.1362 58.4751 17.1631L56.4372 18.3392C56.4103 18.3572 56.4013 18.3751 56.4013 18.402C56.4103 18.3931 56.4193 18.3751 56.4372 18.3661Z" fill="#C9C6C1"/>
<path d="M56.8861 20.5028L56.6078 20.6644C56.5809 20.6823 56.536 20.6823 56.5091 20.6644L56.2756 20.5297C56.2487 20.5118 56.2487 20.4848 56.2756 20.4758L56.5539 20.3142C56.5809 20.2963 56.6258 20.2963 56.6527 20.3142L56.8861 20.4489C56.913 20.4669 56.913 20.4938 56.8861 20.5028ZM57.326 20.1975L57.0926 20.0629C57.0657 20.0449 57.0208 20.0449 56.9938 20.0629L56.7155 20.2245C56.6886 20.2424 56.6886 20.2694 56.7155 20.2783L56.9489 20.413C56.9759 20.431 57.0208 20.431 57.0477 20.413L57.326 20.2514C57.3529 20.2334 57.3529 20.2065 57.326 20.1975ZM57.7659 19.9372L57.5325 19.8025C57.5056 19.7846 57.4607 19.7846 57.4337 19.8025L57.1554 19.9641C57.1285 19.9821 57.1285 20.009 57.1554 20.018L57.3889 20.1527C57.4158 20.1706 57.4607 20.1706 57.4876 20.1527L57.7659 19.9911C57.7928 19.9821 57.7928 19.9551 57.7659 19.9372ZM58.2148 19.6858L57.9814 19.5512C57.9544 19.5332 57.9095 19.5332 57.8826 19.5512L57.6043 19.7128C57.5774 19.7307 57.5774 19.7487 57.6043 19.7666L57.8377 19.9013C57.8647 19.9192 57.9096 19.9192 57.9365 19.9013L58.2148 19.7397C58.2417 19.7217 58.2417 19.6948 58.2148 19.6858ZM58.6547 19.4255L58.4213 19.2908C58.3943 19.2729 58.3495 19.2729 58.3225 19.2908L58.0442 19.4524C58.0173 19.4704 58.0173 19.4883 58.0442 19.5063L58.2776 19.6409C58.3046 19.6589 58.3494 19.6589 58.3764 19.6409L58.6547 19.4793C58.6816 19.4704 58.6816 19.4434 58.6547 19.4255ZM59.1036 19.1741L58.8701 19.0394C58.8432 19.0215 58.7983 19.0215 58.7714 19.0394L58.4931 19.201C58.4662 19.219 58.4662 19.2369 58.4931 19.2549L58.7265 19.3896C58.7534 19.4075 58.7983 19.4075 58.8253 19.3896L59.1036 19.228C59.1305 19.21 59.1305 19.1831 59.1036 19.1741ZM59.5435 18.9137L59.31 18.7791C59.2831 18.7611 59.2382 18.7611 59.2113 18.7791L58.933 18.9407C58.9061 18.9586 58.9061 18.9856 58.933 18.9945L59.1664 19.1292C59.1933 19.1472 59.2382 19.1472 59.2652 19.1292L59.5435 18.9676C59.5704 18.9586 59.5704 18.9317 59.5435 18.9137ZM59.9834 18.6624L59.75 18.5277C59.723 18.5098 59.6781 18.5098 59.6512 18.5277L59.3729 18.6893C59.346 18.7073 59.346 18.7252 59.3729 18.7432L59.6063 18.8778C59.6332 18.8958 59.6781 18.8958 59.7051 18.8778L59.9834 18.7162C60.0103 18.6983 60.0103 18.6803 59.9834 18.6624ZM60.4322 18.402L60.1988 18.2674C60.1719 18.2494 60.127 18.2494 60.1001 18.2674L59.8218 18.429C59.7948 18.4469 59.7948 18.4649 59.8218 18.4828L60.0552 18.6175C60.0821 18.6354 60.127 18.6354 60.1539 18.6175L60.4322 18.4559C60.4592 18.4469 60.4592 18.42 60.4322 18.402ZM61.0158 18.0699L60.7824 17.9352C60.7554 17.9172 60.7105 17.9172 60.6836 17.9352L60.2706 18.1776C60.2437 18.1955 60.2437 18.2135 60.2706 18.2315L60.5041 18.3661C60.531 18.3841 60.5759 18.3841 60.6028 18.3661L61.0158 18.1237C61.0427 18.1058 61.0427 18.0788 61.0158 18.0699ZM62.6766 18.5098L62.4432 18.3751C62.4163 18.3571 62.3714 18.3571 62.3445 18.3751L62.0662 18.5367C62.0392 18.5546 62.0392 18.5816 62.0662 18.5906L62.2996 18.7252C62.3265 18.7432 62.3714 18.7432 62.3983 18.7252L62.6766 18.5636C62.7036 18.5457 62.7036 18.5277 62.6766 18.5098ZM63.1255 18.2494L62.8921 18.1147C62.8652 18.0968 62.8203 18.0968 62.7933 18.1147L62.515 18.2763C62.4881 18.2943 62.4881 18.3212 62.515 18.3302L62.7485 18.4649C62.7754 18.4828 62.8203 18.4828 62.8472 18.4649L63.1255 18.3033C63.1524 18.2943 63.1524 18.2674 63.1255 18.2494ZM63.5654 17.998L63.332 17.8634C63.3051 17.8454 63.2602 17.8454 63.2332 17.8634L62.9549 18.025C62.928 18.0429 62.928 18.0609 62.9549 18.0788L63.1884 18.2135C63.2153 18.2315 63.2602 18.2315 63.2871 18.2135L63.5654 18.0519C63.5923 18.0339 63.5923 18.016 63.5654 17.998ZM63.0806 18.7432L62.8472 18.6085C62.8203 18.5906 62.7754 18.5906 62.7485 18.6085L62.4702 18.7701C62.4432 18.7881 62.4432 18.815 62.4702 18.824L62.7036 18.9586C62.7305 18.9766 62.7754 18.9766 62.8023 18.9586L63.0806 18.797C63.1076 18.7791 63.1076 18.7611 63.0806 18.7432ZM63.5295 18.4828L63.2961 18.3482C63.2692 18.3302 63.2243 18.3302 63.1973 18.3482L62.919 18.5098C62.8921 18.5277 62.8921 18.5457 62.919 18.5636L63.1524 18.6983C63.1794 18.7162 63.2243 18.7162 63.2512 18.6983L63.5295 18.5367C63.5564 18.5277 63.5564 18.5008 63.5295 18.4828ZM63.9694 18.2315L63.736 18.0968C63.7091 18.0788 63.6642 18.0788 63.6372 18.0968L63.3589 18.2584C63.332 18.2763 63.332 18.2943 63.3589 18.3123L63.5923 18.4469C63.6193 18.4649 63.6642 18.4649 63.6911 18.4469L63.9694 18.2853C63.9963 18.2674 63.9963 18.2494 63.9694 18.2315ZM57.4427 20.6015L57.2093 20.4669C57.1824 20.4489 57.1375 20.4489 57.1105 20.4669L56.6976 20.7093C56.6706 20.7272 56.6706 20.7452 56.6976 20.7631L56.931 20.8978C56.9579 20.9157 57.0028 20.9157 57.0297 20.8978L57.4427 20.6554C57.4696 20.6374 57.4696 20.6195 57.4427 20.6015ZM57.8826 20.3412L57.6492 20.2065C57.6223 20.1886 57.5774 20.1886 57.5504 20.2065L57.2721 20.3681C57.2452 20.3861 57.2452 20.404 57.2721 20.422L57.5056 20.5566C57.5325 20.5746 57.5774 20.5746 57.6043 20.5566L57.8826 20.395C57.9095 20.3861 57.9095 20.3591 57.8826 20.3412ZM58.3225 20.0898L58.0891 19.9551C58.0622 19.9372 58.0173 19.9372 57.9903 19.9551L57.712 20.1167C57.6851 20.1347 57.6851 20.1527 57.712 20.1706L57.9455 20.3053C57.9724 20.3232 58.0173 20.3232 58.0442 20.3053L58.3225 20.1437C58.3495 20.1257 58.3495 20.1078 58.3225 20.0898ZM58.7714 19.8295L58.538 19.6948C58.511 19.6768 58.4662 19.6768 58.4392 19.6948L58.1609 19.8564C58.134 19.8743 58.134 19.9013 58.1609 19.9103L58.3943 20.0449C58.4213 20.0629 58.4662 20.0629 58.4931 20.0449L58.7714 19.8833C58.7983 19.8743 58.7983 19.8474 58.7714 19.8295ZM59.2113 19.5781L58.9779 19.4434C58.9509 19.4255 58.9061 19.4255 58.8791 19.4434L58.6008 19.605C58.5739 19.623 58.5739 19.6499 58.6008 19.6589L58.8342 19.7935C58.8612 19.8115 58.9061 19.8115 58.933 19.7935L59.2113 19.632C59.2382 19.614 59.2382 19.596 59.2113 19.5781ZM59.6512 19.3177L59.4178 19.1831C59.3908 19.1651 59.346 19.1651 59.319 19.1831L59.0407 19.3447C59.0138 19.3626 59.0138 19.3806 59.0407 19.3985L59.2741 19.5332C59.3011 19.5512 59.346 19.5512 59.3729 19.5332L59.6512 19.3716C59.6781 19.3626 59.6781 19.3357 59.6512 19.3177ZM60.1001 19.0664L59.8667 18.9317C59.8397 18.9137 59.7948 18.9137 59.7679 18.9317L59.4896 19.0933C59.4627 19.1113 59.4627 19.1292 59.4896 19.1472L59.723 19.2818C59.7499 19.2998 59.7948 19.2998 59.8218 19.2818L60.1001 19.1202C60.127 19.1023 60.127 19.0843 60.1001 19.0664ZM60.54 18.806L60.3066 18.6714C60.2796 18.6534 60.2347 18.6534 60.2078 18.6714L59.9295 18.8329C59.9026 18.8509 59.9026 18.8689 59.9295 18.8868L60.1629 19.0215C60.1899 19.0394 60.2347 19.0394 60.2617 19.0215L60.54 18.8599C60.5669 18.8509 60.5669 18.824 60.54 18.806ZM60.9799 18.5546L60.7465 18.42C60.7195 18.402 60.6746 18.402 60.6477 18.42L60.3694 18.5816C60.3425 18.5995 60.3425 18.6265 60.3694 18.6354L60.6028 18.7701C60.6297 18.7881 60.6746 18.7881 60.7016 18.7701L60.9799 18.6085C61.0068 18.5906 61.0068 18.5726 60.9799 18.5546ZM61.4288 18.2943L61.1953 18.1596C61.1684 18.1417 61.1235 18.1417 61.0966 18.1596L60.8183 18.3212C60.7913 18.3392 60.7913 18.3661 60.8183 18.3751L61.0517 18.5098C61.0786 18.5277 61.1235 18.5277 61.1504 18.5098L61.4288 18.3482C61.4557 18.3392 61.4557 18.3123 61.4288 18.2943ZM57.6851 20.9157L57.4517 20.7811C57.4248 20.7631 57.3799 20.7631 57.3529 20.7811L57.0746 20.9427C57.0477 20.9606 57.0477 20.9876 57.0746 20.9965L57.3081 21.1312C57.335 21.1492 57.3799 21.1492 57.4068 21.1312L57.6851 20.9696C57.712 20.9606 57.712 20.9337 57.6851 20.9157ZM58.134 20.6644L57.9006 20.5297C57.8736 20.5118 57.8288 20.5118 57.8018 20.5297L57.5235 20.6913C57.4966 20.7093 57.4966 20.7272 57.5235 20.7452L57.7569 20.8798C57.7839 20.8978 57.8288 20.8978 57.8557 20.8798L58.134 20.7182C58.1609 20.7003 58.1609 20.6734 58.134 20.6644ZM58.5739 20.404L58.3405 20.2694C58.3135 20.2514 58.2687 20.2514 58.2417 20.2694L57.9634 20.431C57.9365 20.4489 57.9365 20.4669 57.9634 20.4848L58.1968 20.6195C58.2238 20.6374 58.2687 20.6374 58.2956 20.6195L58.5739 20.4579C58.6008 20.4489 58.6008 20.422 58.5739 20.404ZM59.0228 20.1527L58.7893 20.018C58.7624 20 58.7175 20 58.6906 20.018L58.4123 20.1796C58.3854 20.1975 58.3854 20.2245 58.4123 20.2335L58.6457 20.3681C58.6726 20.3861 58.7175 20.3861 58.7445 20.3681L59.0228 20.2065C59.0407 20.1886 59.0407 20.1616 59.0228 20.1527ZM58.4931 21.3826L58.2597 21.2479C58.2327 21.23 58.1879 21.23 58.1609 21.2479L57.8826 21.4095C57.8557 21.4275 57.8557 21.4454 57.8826 21.4634L58.116 21.598C58.143 21.616 58.1879 21.616 58.2148 21.598L58.4931 21.4364C58.52 21.4185 58.52 21.3916 58.4931 21.3826ZM58.933 21.1222L58.6996 20.9876C58.6726 20.9696 58.6278 20.9696 58.6008 20.9876L58.3225 21.1492C58.2956 21.1671 58.2956 21.1851 58.3225 21.203L58.5559 21.3377C58.5829 21.3556 58.6278 21.3556 58.6547 21.3377L58.933 21.1761C58.9599 21.1671 58.9599 21.1402 58.933 21.1222ZM59.3819 20.8709L59.1485 20.7362C59.1215 20.7182 59.0766 20.7182 59.0497 20.7362L58.7714 20.8978C58.7445 20.9157 58.7445 20.9337 58.7714 20.9517L59.0048 21.0863C59.0317 21.1043 59.0766 21.1043 59.1036 21.0863L59.3819 20.9247C59.4088 20.9068 59.4088 20.8798 59.3819 20.8709ZM59.8218 20.6105L59.5884 20.4758C59.5614 20.4579 59.5165 20.4579 59.4896 20.4758L59.2113 20.6374C59.1844 20.6554 59.1844 20.6823 59.2113 20.6913L59.4447 20.826C59.4716 20.8439 59.5165 20.8439 59.5435 20.826L59.8218 20.6644C59.8487 20.6554 59.8487 20.6285 59.8218 20.6105ZM62.6228 18.9945L62.3894 18.8599C62.3624 18.8419 62.3175 18.8419 62.2906 18.8599L61.8776 19.1023C61.8507 19.1202 61.8507 19.1382 61.8776 19.1561L62.111 19.2908C62.138 19.3088 62.1829 19.3088 62.2098 19.2908L62.6228 19.0484C62.6497 19.0394 62.6497 19.0125 62.6228 18.9945ZM59.4627 19.8923L59.2293 19.7576C59.2023 19.7397 59.1574 19.7397 59.1305 19.7576L58.8522 19.9192C58.8253 19.9372 58.8253 19.9641 58.8522 19.9731L59.0856 20.1078C59.1125 20.1257 59.1574 20.1257 59.1844 20.1078L59.4627 19.9462C59.4896 19.9372 59.4896 19.9103 59.4627 19.8923ZM59.9026 19.6409L59.6692 19.5063C59.6422 19.4883 59.5973 19.4883 59.5704 19.5063L59.2921 19.6679C59.2652 19.6858 59.2652 19.7038 59.2921 19.7217L59.5255 19.8564C59.5524 19.8743 59.5973 19.8743 59.6243 19.8564L59.9026 19.6948C59.9295 19.6768 59.9295 19.6499 59.9026 19.6409ZM60.3514 19.3806L60.118 19.2459C60.0911 19.228 60.0462 19.228 60.0193 19.2459L59.741 19.4075C59.714 19.4255 59.714 19.4434 59.741 19.4614L59.9744 19.596C60.0013 19.614 60.0462 19.614 60.0731 19.596L60.3514 19.4344C60.3784 19.4255 60.3784 19.3985 60.3514 19.3806ZM60.7913 19.1292L60.5579 18.9945C60.531 18.9766 60.4861 18.9766 60.4592 18.9945L60.1809 19.1561C60.1539 19.1741 60.1539 19.1921 60.1809 19.21L60.4143 19.3447C60.4412 19.3626 60.4861 19.3626 60.513 19.3447L60.7913 19.1831C60.8183 19.1651 60.8183 19.1382 60.7913 19.1292ZM61.2312 18.8689L60.9978 18.7342C60.9709 18.7162 60.926 18.7162 60.8991 18.7342L60.6208 18.8958C60.5938 18.9137 60.5938 18.9407 60.6208 18.9497L60.8542 19.0843C60.8811 19.1023 60.926 19.1023 60.9529 19.0843L61.2312 18.9227C61.2582 18.9137 61.2582 18.8868 61.2312 18.8689ZM61.8238 18.5277L61.5904 18.393C61.5634 18.3751 61.5185 18.3751 61.4916 18.393L61.0786 18.6354C61.0517 18.6534 61.0517 18.6803 61.0786 18.6893L61.312 18.824C61.339 18.8419 61.3839 18.8419 61.4108 18.824L61.8238 18.5816C61.8417 18.5726 61.8417 18.5457 61.8238 18.5277ZM58.2417 21.0684L58.0083 20.9337C57.9814 20.9157 57.9365 20.9157 57.9095 20.9337L57.4966 21.1761C57.4696 21.194 57.4696 21.221 57.4966 21.23L57.73 21.3646C57.7569 21.3826 57.8018 21.3826 57.8287 21.3646L58.2417 21.1222C58.2687 21.1043 58.2687 21.0773 58.2417 21.0684ZM58.6906 20.808L58.4572 20.6734C58.4302 20.6554 58.3854 20.6554 58.3584 20.6734L58.0801 20.8349C58.0532 20.8529 58.0532 20.8798 58.0801 20.8888L58.3135 21.0235C58.3405 21.0414 58.3854 21.0414 58.4123 21.0235L58.6906 20.8619C58.7175 20.8529 58.7175 20.826 58.6906 20.808ZM59.1305 20.5566L58.8971 20.422C58.8701 20.404 58.8253 20.404 58.7983 20.422L58.52 20.5836C58.4931 20.6015 58.4931 20.6285 58.52 20.6374L58.7534 20.7721C58.7804 20.7901 58.8253 20.7901 58.8522 20.7721L59.1305 20.6105C59.1574 20.5926 59.1574 20.5656 59.1305 20.5566ZM59.5704 20.2963L59.337 20.1616C59.31 20.1437 59.2652 20.1437 59.2382 20.1616L58.9599 20.3232C58.933 20.3412 58.933 20.3591 58.9599 20.3771L59.1933 20.5118C59.2203 20.5297 59.2652 20.5297 59.2921 20.5118L59.5704 20.3502C59.5973 20.3412 59.5973 20.3142 59.5704 20.2963ZM60.0193 20.0449L59.7859 19.9103C59.7589 19.8923 59.714 19.8923 59.6871 19.9103L59.4088 20.0719C59.3819 20.0898 59.3819 20.1078 59.4088 20.1257L59.6422 20.2604C59.6692 20.2783 59.714 20.2783 59.741 20.2604L60.0193 20.0988C60.0462 20.0808 60.0462 20.0539 60.0193 20.0449ZM62.0482 19.3357L61.8148 19.201C61.7879 19.1831 61.743 19.1831 61.716 19.201L59.6602 20.3861C59.6332 20.404 59.6332 20.431 59.6602 20.4399L59.8936 20.5746C59.9205 20.5926 59.9654 20.5926 59.9923 20.5746L62.0482 19.3896C62.0751 19.3716 62.0751 19.3537 62.0482 19.3357ZM60.4592 19.7846L60.2258 19.6499C60.1988 19.632 60.1539 19.632 60.127 19.6499L59.8487 19.8115C59.8218 19.8295 59.8218 19.8474 59.8487 19.8654L60.0821 20C60.1091 20.018 60.1539 20.018 60.1809 20L60.4592 19.8384C60.4861 19.8295 60.4861 19.8025 60.4592 19.7846ZM60.8991 19.5332L60.6657 19.3985C60.6387 19.3806 60.5938 19.3806 60.5669 19.3985L60.2886 19.5601C60.2617 19.5781 60.2617 19.605 60.2886 19.614L60.531 19.7487C60.5579 19.7666 60.6028 19.7666 60.6298 19.7487L60.9081 19.5871C60.926 19.5691 60.926 19.5422 60.8991 19.5332ZM61.348 19.2729L61.1145 19.1382C61.0876 19.1202 61.0427 19.1202 61.0158 19.1382L60.7375 19.2998C60.7105 19.3177 60.7105 19.3357 60.7375 19.3536L60.9709 19.4883C60.9978 19.5063 61.0427 19.5063 61.0697 19.4883L61.348 19.3267C61.3749 19.3177 61.3749 19.2908 61.348 19.2729ZM61.7879 19.0215L61.5544 18.8868C61.5275 18.8689 61.4826 18.8689 61.4557 18.8868L61.1774 19.0484C61.1505 19.0664 61.1505 19.0843 61.1774 19.1023L61.4108 19.2369C61.4377 19.2549 61.4826 19.2549 61.5096 19.2369L61.7879 19.0753C61.8148 19.0574 61.8148 19.0305 61.7879 19.0215ZM62.2278 18.7611L61.9943 18.6265C61.9674 18.6085 61.9225 18.6085 61.8956 18.6265L61.6173 18.7881C61.5903 18.806 61.5903 18.824 61.6173 18.8419L61.8507 18.9766C61.8776 18.9945 61.9225 18.9945 61.9495 18.9766L62.2278 18.815C62.2547 18.806 62.2547 18.7791 62.2278 18.7611ZM61.4647 17.8095L61.2312 17.6748C61.2043 17.6569 61.1594 17.6569 61.1325 17.6748L60.8542 17.8364C60.8273 17.8544 60.8273 17.8813 60.8542 17.8903L61.0876 18.025C61.1145 18.0429 61.1594 18.0429 61.1864 18.025L61.4647 17.8634C61.4916 17.8454 61.4916 17.8275 61.4647 17.8095ZM61.9046 17.5492L61.6711 17.4145C61.6442 17.3965 61.5993 17.3965 61.5724 17.4145L61.2941 17.5761C61.2672 17.594 61.2672 17.612 61.2941 17.63L61.5275 17.7646C61.5544 17.7826 61.5993 17.7826 61.6263 17.7646L61.9046 17.603C61.9315 17.594 61.9315 17.5671 61.9046 17.5492ZM62.3534 17.2978L62.12 17.1631C62.0931 17.1452 62.0482 17.1452 62.0213 17.1631L61.743 17.3247C61.716 17.3427 61.716 17.3606 61.743 17.3786L61.9764 17.5132C62.0033 17.5312 62.0482 17.5312 62.0751 17.5132L62.3534 17.3517C62.3804 17.3337 62.3804 17.3157 62.3534 17.2978ZM62.7574 17.5312L62.524 17.3965C62.4971 17.3786 62.4522 17.3786 62.4253 17.3965L62.147 17.5581C62.12 17.5761 62.12 17.594 62.147 17.612L62.3804 17.7467C62.4073 17.7646 62.4522 17.7646 62.4791 17.7467L62.7574 17.5851C62.7844 17.5671 62.7844 17.5492 62.7574 17.5312ZM63.1524 17.7467L62.928 17.612C62.9101 17.603 62.8741 17.603 62.8472 17.612L62.4612 17.8364C62.4432 17.8454 62.4163 17.8454 62.3894 17.8364L62.0841 17.6569C62.0482 17.6389 61.9943 17.6389 61.9674 17.6569L61.2761 18.0609C61.2402 18.0788 61.2402 18.1147 61.2761 18.1327L61.8776 18.4828C61.9135 18.5008 61.9674 18.5008 61.9943 18.4828L63.1435 17.8185C63.1794 17.7916 63.1794 17.7646 63.1524 17.7467Z" fill="#FBFFFB"/>
<path d="M60.3694 18.716L66.7166 15.0262L64.8044 18.5544L58.4572 22.2442L60.3694 18.716Z" fill="#C9C6C1"/>
<path d="M60.2796 18.6173L66.6267 14.9275L66.7165 15.0262L60.3694 18.716L60.2796 18.6173Z" fill="#ECE7E2"/>
<path d="M60.2796 18.6172L60.3693 18.7159L58.4571 22.2441L58.4033 22.2082V22.3249L53.9504 19.7484V19.5149L58.3943 22.0825L60.2796 18.6172Z" fill="url(#paint2_linear_389_93927)"/>
<path d="M59.1215 17.2703C59.2561 17.6115 59.8307 17.5666 59.9384 17.5486C60.1898 17.5038 60.6925 17.2973 60.7105 17.0998C60.8003 16.2289 60.6746 15.7262 60.4412 15.1696C60.3694 14.999 60.0821 14.5322 59.8127 14.2988C59.4896 14.0115 58.4482 14.6848 58.493 14.9631C58.511 15.0439 58.6995 15.5377 58.7983 15.9596C58.924 16.4444 58.9419 16.8125 59.1215 17.2703Z" fill="#FBBD9E"/>
<path d="M48.4472 9.73822C48.1509 11.2285 47.7739 14.0834 47.8457 14.2809C48.1689 15.1966 52.2716 18.4465 52.3255 18.4913C52.8013 18.8415 53.9056 17.5577 53.6003 17.2255C52.5589 16.0854 50.3145 13.4549 50.3145 13.4549C50.5749 11.9198 50.8263 10.9951 51.1494 9.47787C51.4098 8.29283 51.5445 6.23697 50.3145 6.29083C49.3629 6.32674 48.6716 8.59807 48.4472 9.73822Z" fill="#8691C7"/>
<path d="M50.3325 13.4459C50.548 12.1083 50.8801 10.7976 51.1674 9.46887C51.1584 9.46887 50.9071 10.4564 50.9071 10.4564C50.8263 10.7886 50.7455 11.1118 50.6647 11.4439C50.5121 12.1083 50.3684 12.7726 50.2517 13.437C50.2517 13.4549 50.2517 13.4729 50.2697 13.4908C50.8083 14.1282 51.3739 14.7387 51.9215 15.3671L52.7475 16.3008L53.5914 17.2165C53.6093 17.2165 50.3325 13.4459 50.3325 13.4459Z" fill="#939ED7"/>
<path d="M53.5554 17.279C53.34 17.0635 52.1459 18.1767 52.3973 18.4371C52.4602 18.4999 52.514 18.5448 52.5589 18.5897C52.918 18.9219 54.0671 17.8176 53.735 17.4765C53.708 17.4495 53.6811 17.4226 53.5554 17.279Z" fill="#EEEEEE"/>
<path d="M56.0692 18.0693C56.0243 18.0244 55.6114 17.8718 55.4408 17.8089C55.3061 17.7551 54.166 17.7461 53.6991 17.5755C53.3311 17.4319 52.4064 18.4194 52.6847 18.572C52.9091 18.6977 53.1156 18.9311 53.2143 19.0209C53.349 19.1376 53.5286 19.1825 53.6991 19.2094C53.9056 19.2453 54.1211 19.2723 54.3276 19.2812C54.4981 19.2902 54.6148 19.3082 54.6956 19.4518C54.7405 19.5326 54.7854 19.6134 54.8213 19.7032C54.8572 19.793 54.9111 19.8738 54.9919 19.9187C55.2163 20.0443 56.0513 19.5147 56.168 19.3441C56.3206 19.1466 56.2937 18.3117 56.0692 18.0693Z" fill="#FBBD9E"/>
<path d="M70.4601 57.7593L73.2521 76.1543L73.2432 78.9733L60.0372 71.3513V60.4256L70.4601 57.7593Z" fill="url(#paint3_linear_389_93927)"/>
<path d="M62.9549 62.1134L74.2666 55.5328L74.2576 57.7144L62.9549 64.2949V62.1134Z" fill="#CFCBC7"/>
<path d="M60.0372 60.4256L71.3489 53.8451L74.2666 55.5329L62.9549 62.1134L60.0372 60.4256Z" fill="#EDE8E4"/>
<path d="M65.5314 65.7853L76.8342 59.2047V61.3863L65.5225 67.9668L65.5314 65.7853Z" fill="#CFCBC7"/>
<path d="M62.9549 64.295L74.2576 57.7145L76.8342 59.2047L65.5315 65.7853L62.9549 64.295Z" fill="#EDE8E4"/>
<path d="M68.108 69.4571L79.4107 62.8766V65.0581L68.099 71.6477L68.108 69.4571Z" fill="#CFCBC7"/>
<path d="M65.5225 67.9667L76.8342 61.3861L79.4108 62.8764L68.108 69.4569L65.5225 67.9667Z" fill="#EDE8E4"/>
<path d="M70.6756 73.1289L81.9873 66.5483L81.9784 68.7389L70.6666 75.3194L70.6756 73.1289Z" fill="#CFCBC7"/>
<path d="M68.099 71.6476L79.4107 65.0581L81.9873 66.5484L70.6756 73.1289L68.099 71.6476Z" fill="#EDE8E4"/>
<path d="M70.6666 75.3197L81.9784 68.7391L84.5549 70.2204L73.2432 76.801L70.6666 75.3197Z" fill="#EDE8E4"/>
<path d="M73.2432 76.8008L84.5549 70.2202L84.5459 72.4107L73.2432 78.9913V76.8008Z" fill="#CFCBC7"/>
<defs>
<linearGradient id="paint0_linear_389_93927" x1="60.8305" y1="14.676" x2="29.9311" y2="68.1954" gradientUnits="userSpaceOnUse">
<stop stop-color="#2AA0EB"/>
<stop offset="0.0102" stop-color="#2A9EE9"/>
<stop offset="0.1273" stop-color="#278CDA"/>
<stop offset="0.2496" stop-color="#2581D1"/>
<stop offset="0.3842" stop-color="#247DCE"/>
<stop offset="0.5986" stop-color="#1F76C7"/>
<stop offset="0.9184" stop-color="#1261B2"/>
<stop offset="1" stop-color="#0E5BAC"/>
</linearGradient>
<linearGradient id="paint1_linear_389_93927" x1="63.2777" y1="17.8823" x2="33.6021" y2="59.1601" gradientUnits="userSpaceOnUse">
<stop stop-color="#2AA0EB"/>
<stop offset="0.3884" stop-color="#2896E3"/>
<stop offset="1" stop-color="#247DCE"/>
</linearGradient>
<linearGradient id="paint2_linear_389_93927" x1="55.6483" y1="21.4477" x2="59.3819" y2="17.7141" gradientUnits="userSpaceOnUse">
<stop stop-color="#B6B2AE"/>
<stop offset="1" stop-color="#BCB8B4"/>
</linearGradient>
<linearGradient id="paint3_linear_389_93927" x1="62.5161" y1="73.8273" x2="74.5209" y2="61.8225" gradientUnits="userSpaceOnUse">
<stop stop-color="#B6B2AE"/>
<stop offset="1" stop-color="#BCB8B4"/>
</linearGradient>
</defs>
</svg>
