<svg width="100" height="79" viewBox="0 0 100 79" fill="none" xmlns="http://www.w3.org/2000/svg">
<path opacity="0.4" d="M22.8962 33.9802L9.38956 41.8114C8.4419 42.3622 8.55163 43.7542 9.55914 44.1647L57.1916 63.0517L22.8962 33.9802Z" fill="#ADA6A3"/>
<path d="M54.3986 72.0141C53.3013 72.0141 52.3237 71.8839 51.6154 71.7037C47.9146 70.7523 46.119 68.8797 44.5329 67.2373C42.7074 65.3546 41.1413 63.7223 36.8618 63.7223C36.3431 63.7023 35.8344 63.6923 35.3356 63.6822C32.3928 63.6322 29.0511 63.5621 26.7967 61.3489C25.041 59.6265 24.3527 56.8525 24.9911 54.1086C25.1806 53.2774 25.6196 50.5035 23.0459 49.6022C22.4773 49.4019 21.799 49.3418 21.0409 49.4219C18.148 49.7324 15.0756 49.9827 12.053 49.4019C7.87334 48.6007 5.10018 46.7681 4.25227 44.2145C3.6338 42.3418 4.16249 40.2889 5.72863 38.5664C8.55166 35.442 15.1753 32.9484 25.2505 35.2918C25.6994 35.3919 25.9687 35.8426 25.8689 36.2832C25.7692 36.7338 25.3203 37.0042 24.8814 36.9041C15.4846 34.721 9.35967 37.0342 6.9556 39.688C5.78848 40.9699 5.38947 42.3919 5.82838 43.6937C6.46681 45.6165 8.85093 47.1086 12.3722 47.7796C15.1653 48.3103 18.1081 48.07 20.8713 47.7796C21.8788 47.6694 22.7965 47.7595 23.5946 48.0399C26.6769 49.1215 27.1458 52.1859 26.5971 54.4891C26.0884 56.6322 26.6171 58.8654 27.9438 60.1672C29.7394 61.9197 32.5924 61.9798 35.3655 62.0299C35.8842 62.0399 36.393 62.0499 36.8918 62.0699C41.8395 62.0699 43.8047 64.1129 45.71 66.0957C47.2163 67.6579 48.7724 69.2702 52.0244 70.1114C54.4385 70.7323 59.9549 70.4018 61.7404 66.8267C61.9998 66.296 62.1893 65.7051 62.3789 65.0742C62.6582 64.1729 62.9475 63.2316 63.5161 62.3904C63.8951 61.8396 64.354 61.379 64.8029 60.9483C65.3416 60.4176 65.8503 59.9169 66.1097 59.326C67.1671 56.9727 64.4238 52.9169 62.309 50.7638C61.9898 50.4334 61.9898 49.9126 62.319 49.5922C62.6382 49.2717 63.1669 49.2717 63.4861 49.6022C65.7306 51.8954 69.1123 56.6622 67.606 60.007C67.207 60.8782 66.5685 61.5192 65.9401 62.13C65.5311 62.5306 65.152 62.9111 64.8627 63.3317C64.4338 63.9727 64.1944 64.7438 63.935 65.5749C63.7355 66.2359 63.526 66.9169 63.1969 67.5778C61.4911 71.0427 57.461 72.0141 54.3986 72.0141Z" fill="#A5A3A0"/>
<path d="M17.0607 28.4822L17.0308 39.7783L57.1318 63.0214C57.1618 63.0414 57.1917 63.0014 57.1618 62.9713L17.0607 28.4822Z" fill="#A5A3A0"/>
<path d="M95.6269 37.5952C95.4174 37.1246 95.1381 36.6739 94.799 36.2934C94.6493 36.1231 94.4897 35.9629 94.3102 35.8127L55.6156 3.72694C55.476 3.60677 55.3263 3.50663 55.1867 3.42651C54.648 3.11607 54.1293 3.07601 53.7602 3.28631L15.9834 25.3277C16.3525 25.1074 57.8302 63.0415 57.7304 63.1016L95.5172 41.0602C95.6169 41.0001 95.6868 40.8899 95.7267 40.7397L95.9561 39.6982C96.0758 39.0874 95.9461 38.3263 95.6269 37.5952Z" fill="url(#paint0_linear_389_181540)"/>
<path d="M17.4099 25.468C17.5495 25.5481 17.6892 25.6483 17.8388 25.7684L56.5333 57.8542C57.6905 58.8155 58.4187 60.558 58.1693 61.7497L57.9399 62.7912C57.8601 63.1617 57.5409 63.2619 57.1917 63.0616C57.1418 63.0316 57.082 62.9915 57.0321 62.9414L15.6342 28.6125C15.3051 28.3321 15.0956 27.8414 15.1654 27.4909L15.4547 26.159C15.6542 25.1876 16.4822 24.9272 17.4099 25.468Z" fill="#B6B5B3"/>
<path d="M94.7989 36.2936L57.0121 58.325C57.3512 58.7155 57.6306 59.1662 57.84 59.6268L95.6268 37.5854C95.4173 37.1248 95.138 36.6741 94.7989 36.2936Z" fill="#F3F2EF"/>
<path d="M70.5686 20.7212C70.7382 20.8614 70.7382 21.0617 70.5586 21.1719L68.8529 22.1633C68.6733 22.2734 68.394 22.2334 68.2144 22.0932L67.586 21.5724C67.4164 21.4322 67.4064 21.2319 67.596 21.1218L69.3017 20.1304C69.4813 20.0302 69.7606 20.0603 69.9402 20.2005L70.5686 20.7212Z" fill="#92A3AD"/>
<path d="M67.6658 23.6854C67.8852 23.8657 67.8752 24.106 67.6558 24.2362L65.541 25.4679C65.3215 25.5981 64.9724 25.5581 64.7529 25.3778L63.1868 24.086C62.9674 23.9057 62.9674 23.6554 63.1868 23.5252L65.3016 22.2934C65.5211 22.1632 65.8802 22.2133 66.0896 22.3936L67.6658 23.6854Z" fill="#92A3AD"/>
<path d="M63.4762 26.129C63.6956 26.3093 63.6857 26.5496 63.4662 26.6798L61.3514 27.9115C61.132 28.0417 60.7828 28.0017 60.5634 27.8214L58.9972 26.5296C58.7778 26.3493 58.7778 26.099 58.9972 25.9688L61.112 24.737C61.3315 24.6068 61.6906 24.6569 61.9001 24.8372L63.4762 26.129Z" fill="#92A3AD"/>
<path d="M59.2865 28.5724C59.5059 28.7526 59.496 28.993 59.2765 29.1231L57.1617 30.3549C56.9423 30.4851 56.5931 30.445 56.3737 30.2648L54.8075 28.9729C54.5881 28.7927 54.5881 28.5423 54.8075 28.4121L56.9223 27.1804C57.1418 27.0502 57.5009 27.1003 57.7104 27.2805L59.2865 28.5724Z" fill="#92A3AD"/>
<path d="M73.3019 22.9843C73.4715 23.1245 73.4715 23.3348 73.2919 23.4349L71.5861 24.4263C71.4066 24.5365 71.1272 24.4964 70.9477 24.3562L70.3192 23.8355C70.1397 23.6853 70.1397 23.485 70.3192 23.3849L72.025 22.3934C72.2046 22.2933 72.4839 22.3233 72.6635 22.4736L73.3019 22.9843Z" fill="#92A3AD"/>
<path d="M71.0076 26.4495C71.227 26.6298 71.227 26.8801 71.0076 27.0103L68.8928 28.2421C68.6733 28.3722 68.3142 28.3222 68.1047 28.1419L66.5386 26.8501C66.3191 26.6698 66.3291 26.4295 66.5486 26.2993L68.6634 25.0675C68.8828 24.9373 69.232 24.9774 69.4514 25.1577L71.0076 26.4495Z" fill="#92A3AD"/>
<path d="M66.8179 28.8927C67.0373 29.073 67.0373 29.3233 66.8179 29.4535L64.7031 30.6853C64.4836 30.8155 64.1245 30.7654 63.915 30.5851L62.3489 29.2933C62.1294 29.113 62.1394 28.8727 62.3589 28.7425L64.4737 27.5108C64.6931 27.3806 65.0423 27.4206 65.2617 27.6009L66.8179 28.8927Z" fill="#92A3AD"/>
<path d="M62.6282 31.3465C62.8476 31.5267 62.8476 31.7771 62.6282 31.9073L60.5134 33.139C60.2939 33.2692 59.9348 33.2191 59.7253 33.0389L58.1592 31.747C57.9397 31.5668 57.9497 31.3264 58.1692 31.1963L60.284 29.9645C60.5034 29.8343 60.8526 29.8744 61.072 30.0546L62.6282 31.3465Z" fill="#92A3AD"/>
<path d="M74.3492 29.2235C74.5687 29.4037 74.5587 29.6441 74.3393 29.7743L72.2245 31.006C72.005 31.1362 71.6559 31.0961 71.4364 30.9159L69.8703 29.6241C69.6508 29.4438 69.6508 29.1934 69.8703 29.0633L71.9851 27.8315C72.2045 27.7013 72.5636 27.7514 72.7731 27.9316L74.3492 29.2235Z" fill="#92A3AD"/>
<path d="M70.1597 31.6668C70.3791 31.8471 70.3691 32.0874 70.1497 32.2176L68.0349 33.4494C67.8154 33.5796 67.4663 33.5395 67.2468 33.3593L65.6807 32.0674C65.4612 31.8872 65.4612 31.6368 65.6807 31.5066L67.7955 30.2749C68.0149 30.1447 68.3741 30.1947 68.5835 30.375L70.1597 31.6668Z" fill="#92A3AD"/>
<path d="M65.97 34.1104C66.1894 34.2907 66.1794 34.531 65.96 34.6612L63.8452 35.893C63.6257 36.0232 63.2766 35.9831 63.0571 35.8029L61.491 34.511C61.2716 34.3308 61.2716 34.0804 61.491 33.9502L63.6058 32.7185C63.8253 32.5883 64.1844 32.6383 64.3938 32.8186L65.97 34.1104Z" fill="#92A3AD"/>
<path d="M77.6812 31.9872C77.9006 32.1675 77.9006 32.4178 77.6812 32.548L75.5664 33.7798C75.3469 33.91 74.9878 33.8599 74.7783 33.6796L73.2122 32.3878C72.9927 32.2075 73.0027 31.9672 73.2222 31.837L75.3369 30.6052C75.5564 30.4751 75.9055 30.5151 76.125 30.6954L77.6812 31.9872Z" fill="#92A3AD"/>
<path d="M73.4915 34.4307C73.7109 34.611 73.7109 34.8613 73.4915 34.9915L71.3767 36.2233C71.1572 36.3534 70.7981 36.3034 70.5886 36.1231L69.0225 34.8313C68.803 34.651 68.813 34.4107 69.0325 34.2805L71.1472 33.0487C71.3667 32.9185 71.7158 32.9586 71.9353 33.1389L73.4915 34.4307Z" fill="#92A3AD"/>
<path d="M69.3018 36.8742C69.5212 37.0544 69.5212 37.3048 69.3018 37.435L67.187 38.6667C66.9675 38.7969 66.6084 38.7468 66.3989 38.5666L64.8328 37.2747C64.6133 37.0945 64.6233 36.8541 64.8428 36.724L66.9575 35.4922C67.177 35.362 67.5261 35.4021 67.7456 35.5823L69.3018 36.8742Z" fill="#92A3AD"/>
<path d="M76.0351 25.2477C76.2047 25.3879 76.2047 25.5882 76.0252 25.6984L74.3194 26.6898C74.1398 26.7999 73.8605 26.7599 73.6809 26.6197L73.0425 26.0889C72.8729 25.9487 72.863 25.7484 73.0525 25.6383L74.7583 24.6469C74.9378 24.5467 75.2172 24.5768 75.3967 24.717L76.0351 25.2477Z" fill="#92A3AD"/>
<path d="M78.7585 27.5109C78.938 27.6611 78.938 27.8614 78.7585 27.9615L77.0527 28.953C76.8731 29.0631 76.5938 29.0231 76.4143 28.8728L75.7858 28.3521C75.6162 28.2119 75.6063 28.0116 75.7958 27.9015L77.5016 26.91C77.6811 26.8099 77.9604 26.8399 78.14 26.9801L78.7585 27.5109Z" fill="#92A3AD"/>
<path d="M68.1545 22.4438C68.3241 22.584 68.6034 22.624 68.793 22.5139L70.4988 21.5224C70.5686 21.4824 70.6185 21.4223 70.6285 21.3622L70.7083 21.0117C70.6983 21.0718 70.6484 21.1319 70.5786 21.1719L68.8728 22.1634C68.6932 22.2735 68.4139 22.2335 68.2344 22.0933L67.6059 21.5725C67.5062 21.4924 67.4563 21.3822 67.4762 21.2921L67.3964 21.6426C67.3765 21.7327 67.4164 21.8429 67.5261 21.923L68.1545 22.4438Z" fill="#717F89"/>
<path d="M64.6931 25.7284C64.9126 25.9087 65.2617 25.9488 65.4812 25.8186L67.596 24.5868C67.6857 24.5367 67.7356 24.4666 67.7556 24.3865L67.8354 24.036C67.8154 24.1161 67.7655 24.1862 67.6758 24.2363L65.561 25.4681C65.3415 25.5983 64.9924 25.5582 64.7729 25.3779L63.2068 24.0861C63.0771 23.9759 63.0272 23.8458 63.0472 23.7256L62.9674 24.0761C62.9474 24.1963 62.9973 24.3264 63.127 24.4366L64.6931 25.7284Z" fill="#717F89"/>
<path d="M60.5035 28.1819C60.7229 28.3622 61.0721 28.4022 61.2915 28.2721L63.4063 27.0403C63.4961 26.9902 63.546 26.9101 63.5659 26.84L63.6457 26.4895C63.6258 26.5696 63.5759 26.6397 63.4861 26.6898L61.3713 27.9216C61.1519 28.0517 60.8027 28.0117 60.5833 27.8314L59.0171 26.5396C58.8874 26.4294 58.8376 26.2992 58.8575 26.1791L58.7777 26.5296C58.7478 26.6497 58.8076 26.7799 58.9373 26.8901L60.5035 28.1819Z" fill="#717F89"/>
<path d="M59.3663 29.2735L59.4461 28.923C59.4261 29.0031 59.3763 29.0732 59.2865 29.1233L57.1717 30.355C56.9522 30.4852 56.6031 30.4452 56.3836 30.2649L54.8175 28.9731C54.6878 28.8629 54.6379 28.7327 54.6579 28.6125L54.5781 28.963C54.5581 29.0832 54.608 29.2134 54.7377 29.3236L56.3038 30.6154C56.5233 30.7957 56.8724 30.8357 57.0919 30.7055L59.2067 29.4738C59.2965 29.4337 59.3463 29.3536 59.3663 29.2735Z" fill="#717F89"/>
<path d="M70.1995 23.5453L70.1197 23.8958C70.0997 23.9859 70.1396 24.0961 70.2494 24.1862L70.8778 24.7069C71.0474 24.8471 71.3267 24.8872 71.5162 24.777L73.222 23.7856C73.2919 23.7456 73.3417 23.6855 73.3517 23.6154L73.4315 23.2649C73.4215 23.325 73.3717 23.3851 73.3018 23.4251L71.596 24.4165C71.4165 24.5267 71.1372 24.4866 70.9576 24.3464L70.3292 23.8257C70.2194 23.7456 70.1795 23.6354 70.1995 23.5453Z" fill="#717F89"/>
<path d="M68.8229 28.5924L70.9377 27.3606C71.0275 27.3105 71.0774 27.2404 71.0973 27.1603L71.1771 26.8098C71.1572 26.8899 71.1073 26.96 71.0175 27.0101L68.9027 28.2419C68.6833 28.3721 68.3241 28.322 68.1147 28.1417L66.5485 26.8499C66.4188 26.7397 66.369 26.6196 66.3989 26.4994L66.3191 26.8499C66.2991 26.96 66.349 27.0902 66.4687 27.2004L68.0349 28.4922C68.2443 28.6825 68.6035 28.7226 68.8229 28.5924Z" fill="#717F89"/>
<path d="M63.9151 30.5952L62.3489 29.3034C62.2193 29.1932 62.1694 29.0731 62.1993 28.9529L62.1195 29.3034C62.0996 29.4135 62.1494 29.5437 62.2691 29.6539L63.8353 30.9457C64.0547 31.126 64.4039 31.166 64.6233 31.0459L66.7381 29.8141C66.8279 29.764 66.8778 29.6939 66.8977 29.6138L66.9775 29.2633C66.9576 29.3434 66.9077 29.4135 66.8179 29.4636L64.7031 30.6954C64.4837 30.8155 64.1246 30.7655 63.9151 30.5952Z" fill="#717F89"/>
<path d="M62.708 32.0475L62.7878 31.697C62.7679 31.7772 62.718 31.8473 62.6282 31.8973L60.5134 33.1291C60.294 33.2593 59.9349 33.2092 59.7254 33.0289L58.1592 31.7371C58.0296 31.6269 57.9797 31.5068 58.0096 31.3866L57.9298 31.7371C57.9099 31.8473 57.9597 31.9774 58.0794 32.0876L59.6456 33.3794C59.865 33.5597 60.2142 33.5998 60.4336 33.4796L62.5484 32.2478C62.6382 32.1978 62.6881 32.1277 62.708 32.0475Z" fill="#717F89"/>
<path d="M72.1548 31.3665L74.2695 30.1348C74.3593 30.0847 74.4092 30.0046 74.4291 29.9345L74.509 29.584C74.489 29.6641 74.4391 29.7342 74.3493 29.7843L72.2346 31.016C72.0151 31.1462 71.666 31.1062 71.4465 30.9259L69.8804 29.6341C69.7507 29.5239 69.7008 29.3937 69.7208 29.2736L69.641 29.6241C69.621 29.7442 69.6709 29.8744 69.8006 29.9846L71.3667 31.2764C71.5862 31.4467 71.9353 31.4867 72.1548 31.3665Z" fill="#717F89"/>
<path d="M67.177 33.7096C67.3965 33.8899 67.7456 33.93 67.9651 33.7998L70.0799 32.568C70.1697 32.5179 70.2195 32.4378 70.2395 32.3677L70.3193 32.0172C70.2993 32.0973 70.2495 32.1674 70.1597 32.2175L68.0449 33.4493C67.8254 33.5795 67.4763 33.5394 67.2568 33.3591L65.6907 32.0673C65.561 31.9571 65.5112 31.827 65.5311 31.7068L65.4513 32.0573C65.4214 32.1775 65.4812 32.3076 65.6109 32.4178L67.177 33.7096Z" fill="#717F89"/>
<path d="M66.0498 34.8115L66.1296 34.461C66.1096 34.5411 66.0597 34.6112 65.97 34.6612L63.8552 35.893C63.6357 36.0232 63.2866 35.9831 63.0671 35.8029L61.501 34.511C61.3713 34.4009 61.3214 34.2707 61.3414 34.1505L61.2616 34.501C61.2416 34.6212 61.2915 34.7514 61.4212 34.8615L62.9873 36.1534C63.2068 36.3336 63.5559 36.3737 63.7754 36.2435L65.8902 35.0117C65.97 34.9717 66.0298 34.8916 66.0498 34.8115Z" fill="#717F89"/>
<path d="M75.5763 33.7798C75.3568 33.91 74.9977 33.86 74.7882 33.6797L73.2221 32.3879C73.0924 32.2777 73.0425 32.1575 73.0725 32.0374L72.9927 32.3879C72.9727 32.498 73.0226 32.6282 73.1423 32.7384L74.7084 34.0302C74.9279 34.2105 75.277 34.2505 75.4965 34.1303L77.6113 32.8986C77.7011 32.8485 77.7509 32.7784 77.7709 32.6983L77.8507 32.3478C77.8307 32.4279 77.7809 32.498 77.6911 32.5481L75.5763 33.7798Z" fill="#717F89"/>
<path d="M71.3866 36.2233C71.1672 36.3535 70.808 36.3034 70.5986 36.1232L69.0324 34.8313C68.9027 34.7212 68.8529 34.601 68.8828 34.4808L68.803 34.8313C68.783 34.9415 68.8329 35.0717 68.9526 35.1818L70.5187 36.4737C70.7382 36.6539 71.0873 36.694 71.3068 36.5738L73.4216 35.3421C73.5114 35.292 73.5612 35.2219 73.5812 35.1418L73.661 34.7913C73.641 34.8714 73.5912 34.9415 73.5014 34.9916L71.3866 36.2233Z" fill="#717F89"/>
<path d="M67.187 38.6668C66.9676 38.797 66.6084 38.7469 66.399 38.5667L64.8328 37.2748C64.7031 37.1647 64.6533 37.0445 64.6832 36.9243L64.6034 37.2748C64.5834 37.385 64.6333 37.5152 64.753 37.6253L66.3192 38.9172C66.5386 39.0974 66.8878 39.1375 67.1072 39.0173L69.222 37.7855C69.3118 37.7355 69.3617 37.6654 69.3816 37.5853L69.4614 37.2348C69.4415 37.3149 69.3916 37.385 69.3018 37.435L67.187 38.6668Z" fill="#717F89"/>
<path d="M72.9229 25.8086L72.8431 26.1591C72.8231 26.2492 72.863 26.3594 72.9728 26.4395L73.6112 26.9703C73.7808 27.1104 74.0601 27.1505 74.2496 27.0403L75.9554 26.0489C76.0252 26.0089 76.0751 25.9488 76.0851 25.8887L76.1649 25.5382C76.1549 25.5983 76.105 25.6584 76.0352 25.7085L74.3294 26.6999C74.1499 26.81 73.8705 26.77 73.691 26.6298L73.0526 26.099C72.9528 25.9989 72.9029 25.8987 72.9229 25.8086Z" fill="#717F89"/>
<path d="M75.656 28.0718L75.5762 28.4223C75.5563 28.5124 75.5962 28.6226 75.7059 28.7027L76.3344 29.2234C76.5139 29.3736 76.7932 29.4137 76.9728 29.3035L78.6786 28.3121C78.7484 28.2721 78.7883 28.212 78.8083 28.1519L78.8881 27.8014C78.8781 27.8615 78.8282 27.9216 78.7584 27.9616L77.0526 28.953C76.873 29.0632 76.5937 29.0231 76.4142 28.8729L75.7857 28.3522C75.676 28.2721 75.6361 28.1619 75.656 28.0718Z" fill="#717F89"/>
<path d="M81.4818 30.2149L79.776 31.2063C79.5964 31.3165 79.3171 31.2764 79.1375 31.1362L78.5091 30.6155C78.4093 30.5354 78.3595 30.4252 78.3794 30.3351L78.2996 30.6856C78.2797 30.7757 78.3196 30.8859 78.4293 30.966L79.0577 31.4867C79.2273 31.6269 79.5066 31.667 79.6962 31.5568L81.402 30.5654C81.4718 30.5254 81.5217 30.4653 81.5316 30.4052L81.6114 30.0547C81.5915 30.1148 81.5516 30.1749 81.4818 30.2149Z" fill="#717F89"/>
<path d="M81.4817 29.7741C81.6513 29.9143 81.6513 30.1146 81.4717 30.2247L79.7659 31.2161C79.5864 31.3263 79.3071 31.2862 79.1275 31.146L78.4991 30.6253C78.3295 30.4851 78.3195 30.2848 78.509 30.1746L80.2148 29.1832C80.3944 29.0831 80.6737 29.1131 80.8533 29.2533L81.4817 29.7741Z" fill="#92A3AD"/>
<path d="M59.3064 11.0376L43.4456 20.2307L50.5181 26.0891L66.379 16.906L59.3064 11.0376Z" fill="#788EFF"/>
<path opacity="0.4" d="M59.3063 11.7586L65.8701 17.1964L66.3888 16.896L59.3163 11.0276L43.4753 20.2107C43.6349 20.3509 43.8045 20.5011 43.9741 20.6513L59.3063 11.7586Z" fill="#4A62AF"/>
<path d="M43.6053 30.6052L29.4901 18.9886L19.8539 24.5165L56.4835 54.8798L61.3415 52.0458L43.6053 30.6052Z" fill="#A5A3A0"/>
<path d="M30.1983 31.2765C30.0387 31.3666 29.919 31.5468 29.8591 31.7972L29.7793 32.1477L40.7822 25.7285L40.862 25.378C40.9118 25.1277 41.0315 24.9574 41.2011 24.8573L30.1983 31.2765Z" fill="#B6B5B3"/>
<path d="M57.5308 51.6953L56.9124 54.6295L67.9252 48.2103L68.5437 45.2761L57.5308 51.6953Z" fill="#D2D1CE"/>
<path d="M68.3341 44.4352C68.0249 43.8143 67.3965 42.9731 66.5186 41.9817C60.3139 34.9316 41.5502 19.8801 34.5475 15.8244C33.2008 15.0433 32.2831 14.6727 31.9838 14.843L20.981 21.2621C21.2802 21.0919 22.188 21.4624 23.5446 22.2435C30.5374 26.2993 49.3011 41.3508 55.5158 48.4008C56.3936 49.3922 57.022 50.2334 57.3313 50.8543C57.5108 51.2048 57.5807 51.4952 57.5308 51.6955L68.5336 45.2764C68.5835 45.0661 68.5137 44.7857 68.3341 44.4352Z" fill="url(#paint1_linear_389_181540)"/>
<path d="M23.5547 22.2334C21.9686 21.3121 20.981 20.9616 20.8912 21.3922L20.2927 24.2563L29.7893 32.1275L29.8691 31.777C29.9988 31.1761 30.5075 31.0159 31.0761 31.3464C31.1559 31.3864 31.2357 31.4465 31.3155 31.5066C37.5601 36.5037 44.3534 42.1217 47.745 47.0187L56.9224 54.6196L57.5408 51.6854C58.1992 48.5509 32.1036 27.1905 23.5547 22.2334Z" fill="#B6B5B3"/>
<path d="M66.5286 41.9816L55.5258 48.4007C56.4036 49.3921 57.032 50.2333 57.3413 50.8542L68.3441 44.4351C68.0349 43.8042 67.4064 42.973 66.5286 41.9816Z" fill="#F3F2EF"/>
<path d="M66.8679 60.4878C66.7581 60.4878 66.6384 60.4678 66.5287 60.4177C66.1097 60.2274 65.9302 59.7367 66.1197 59.3262C67.1871 56.9528 64.5735 53.0272 62.5585 50.9642C62.2393 50.6338 62.2393 50.113 62.5685 49.7926C62.8977 49.4721 63.4164 49.4721 63.7356 49.8026C64.3341 50.4135 69.4914 55.8612 67.626 60.0071C67.4764 60.3076 67.1771 60.4878 66.8679 60.4878Z" fill="#A5A3A0"/>
<defs>
<linearGradient id="paint0_linear_389_181540" x1="15.9812" y1="33.1309" x2="95.9964" y2="33.1309" gradientUnits="userSpaceOnUse">
<stop stop-color="#F0EFEC"/>
<stop offset="1" stop-color="#F7F6F3"/>
</linearGradient>
<linearGradient id="paint1_linear_389_181540" x1="20.9916" y1="33.2451" x2="68.5542" y2="33.2451" gradientUnits="userSpaceOnUse">
<stop stop-color="#F0EFEC"/>
<stop offset="1" stop-color="#F7F6F3"/>
</linearGradient>
</defs>
</svg>
