<svg width="100" height="79" viewBox="0 0 100 79" fill="none" xmlns="http://www.w3.org/2000/svg">
<path d="M9.28699 38.9027L11.2406 37.9266L21.4972 32.0699L30.0248 27.6482L38.1617 22.9434C38.6696 22.6505 39.2948 22.6505 39.8125 22.9434L86.0939 49.6692L51.2803 69.777C50.7137 70.0991 50.03 70.0991 49.4634 69.777L42.9676 66.0287L41.7466 65.3259L40.9553 65.7847L34.3911 61.9974L35.1921 61.5386L18.01 51.6116L17.2285 52.0606L10.6643 48.2733L11.4458 47.8243L4.37363 43.7442C3.87546 43.4611 3.87546 42.7486 4.37363 42.4655L5.59465 41.7627L7.33338 40.3669L9.28699 38.9027Z" fill="#B3B3B3"/>
<path d="M88.387 47.7171L85.9254 46.292L88.387 44.8669C88.387 44.8669 88.7679 44.7791 88.7875 44.8083C88.807 44.8376 89.2563 45.3354 89.2563 45.3354L89.5494 45.9211L89.3638 46.4287L89.1782 46.8581L88.387 47.7171Z" fill="#002D4D"/>
<path d="M6.29541 42.2117V41.1672C6.29541 41.1672 6.86196 41.2258 6.86196 41.2649C6.86196 41.2746 6.87173 41.3429 6.8815 41.4308L41.2751 21.567L87.4687 48.244L88.3869 47.7169C90.0182 45.6671 88.3869 44.8764 88.3869 44.8764V43.8223C88.3869 43.8223 90.6824 45.0424 89.3442 47.5022C88.9437 48.2342 88.3185 48.8297 87.5859 49.2494L53.5635 68.8984C53.0067 69.2205 52.3131 69.2205 51.7466 68.8984L6.6666 42.8461C6.4224 42.6997 6.29541 42.4557 6.29541 42.2117Z" fill="#1E2D56"/>
<path d="M53.5734 67.825L88.387 47.7171L41.285 20.5131L6.66672 40.5037C6.16855 40.7868 6.16855 41.4993 6.66672 41.7922L51.7565 67.825C52.3133 68.1471 53.0068 68.1471 53.5734 67.825Z" fill="#002D4D"/>
<path d="M82.4582 49.5174L81.6185 49.9978L81.9151 50.5153L82.7547 50.0349L82.4582 49.5174Z" fill="#1E2D56"/>
<path d="M83.9728 48.6749L83.1331 49.1553L83.4295 49.6729L84.2693 49.1925L83.9728 48.6749Z" fill="#1E2D56"/>
<path d="M85.4772 47.8054L84.6375 48.2858L84.9339 48.8033L85.7737 48.323L85.4772 47.8054Z" fill="#1E2D56"/>
<path d="M77.9154 52.1437L77.0757 52.624L77.3722 53.1416L78.2119 52.6613L77.9154 52.1437Z" fill="#1E2D56"/>
<path d="M79.4286 51.2575L78.589 51.7379L78.8855 52.2554L79.7252 51.775L79.4286 51.2575Z" fill="#1E2D56"/>
<path d="M80.9378 50.3965L80.0981 50.877L80.3947 51.3945L81.2343 50.9141L80.9378 50.3965Z" fill="#1E2D56"/>
<path d="M73.3872 54.7269L72.5476 55.2073L72.8442 55.7248L73.6838 55.2444L73.3872 54.7269Z" fill="#1E2D56"/>
<path d="M74.8904 53.8778L74.0507 54.3582L74.3471 54.8757L75.1869 54.3954L74.8904 53.8778Z" fill="#1E2D56"/>
<path d="M76.3894 53.0024L75.5498 53.4828L75.8464 54.0003L76.686 53.5199L76.3894 53.0024Z" fill="#1E2D56"/>
<path d="M68.8417 57.3408L68.002 57.8212L68.2984 58.3387L69.1382 57.8584L68.8417 57.3408Z" fill="#1E2D56"/>
<path d="M70.3552 56.4549L69.5156 56.9353L69.8122 57.4528L70.6518 56.9724L70.3552 56.4549Z" fill="#1E2D56"/>
<path d="M71.8621 55.5966L71.0225 56.077L71.319 56.5945L72.1586 56.1141L71.8621 55.5966Z" fill="#1E2D56"/>
<path d="M64.303 59.9319L63.4634 60.4124L63.7599 60.9298L64.5995 60.4494L64.303 59.9319Z" fill="#1E2D56"/>
<path d="M65.8114 59.081L64.9717 59.5613L65.2682 60.0789L66.1079 59.5985L65.8114 59.081Z" fill="#1E2D56"/>
<path d="M67.3182 58.2224L66.4785 58.7028L66.775 59.2203L67.6147 58.74L67.3182 58.2224Z" fill="#1E2D56"/>
<path d="M59.754 62.5489L58.9143 63.0292L59.2108 63.5467L60.0505 63.0664L59.754 62.5489Z" fill="#1E2D56"/>
<path d="M61.2759 61.6687L60.4363 62.1492L60.7328 62.6667L61.5724 62.1862L61.2759 61.6687Z" fill="#1E2D56"/>
<path d="M62.7779 60.8019L61.9382 61.2823L62.2348 61.7999L63.0744 61.3195L62.7779 60.8019Z" fill="#1E2D56"/>
<path fill-rule="evenodd" clip-rule="evenodd" d="M55.2143 65.1404L55.5074 65.6577L54.6673 66.1458L54.3743 65.6284L55.2143 65.1404Z" fill="#1E2D56"/>
<path d="M56.7264 64.2858L55.8867 64.7661L56.1832 65.2837L57.0229 64.8033L56.7264 64.2858Z" fill="#1E2D56"/>
<path d="M58.2362 63.4248L57.3965 63.9052L57.693 64.4227L58.5327 63.9424L58.2362 63.4248Z" fill="#1E2D56"/>
<path d="M49.8061 64.5591L49.5127 65.0784L50.3552 65.5538L50.6486 65.0344L49.8061 64.5591Z" fill="#1E2D56"/>
<path fill-rule="evenodd" clip-rule="evenodd" d="M52.1375 65.8534L51.9421 66.4196C51.7761 66.3512 51.61 66.2634 51.4537 66.1755L51.0239 65.9315L51.317 65.4142C51.61 65.5704 51.864 65.7363 52.1375 65.8534Z" fill="#1E2D56"/>
<path fill-rule="evenodd" clip-rule="evenodd" d="M53.7197 65.9316L53.8662 66.5075C53.5146 66.6149 53.1434 66.6442 52.782 66.6149L52.8308 66.0195C53.1239 66.0488 53.4267 66.0097 53.7197 65.9316Z" fill="#1E2D56"/>
<path d="M45.2349 61.9905L44.9414 62.5098L45.7838 62.9853L46.0773 62.466L45.2349 61.9905Z" fill="#1E2D56"/>
<path d="M46.7565 62.8279L46.4631 63.3472L47.3057 63.8225L47.5991 63.3032L46.7565 62.8279Z" fill="#1E2D56"/>
<path d="M48.2686 63.7057L47.9751 64.225L48.8175 64.7005L49.111 64.1812L48.2686 63.7057Z" fill="#1E2D56"/>
<path d="M40.6796 59.412L40.3861 59.9313L41.2285 60.4068L41.522 59.8875L40.6796 59.412Z" fill="#1E2D56"/>
<path d="M42.1933 60.2712L41.8999 60.7905L42.7424 61.2658L43.0358 60.7465L42.1933 60.2712Z" fill="#1E2D56"/>
<path d="M43.729 61.1157L43.4355 61.635L44.2781 62.1104L44.5715 61.5911L43.729 61.1157Z" fill="#1E2D56"/>
<path d="M36.1435 56.8351L35.8501 57.3544L36.6926 57.8298L36.9861 57.3104L36.1435 56.8351Z" fill="#1E2D56"/>
<path d="M37.6379 57.6918L37.3445 58.2111L38.187 58.6863L38.4804 58.167L37.6379 57.6918Z" fill="#1E2D56"/>
<path d="M39.153 58.556L38.8595 59.0752L39.7019 59.5507L39.9954 59.0314L39.153 58.556Z" fill="#1E2D56"/>
<path d="M31.578 54.2444L31.2847 54.7637L32.1272 55.239L32.4206 54.7197L31.578 54.2444Z" fill="#1E2D56"/>
<path d="M33.0948 55.1045L32.8014 55.6238L33.6439 56.0991L33.9373 55.5798L33.0948 55.1045Z" fill="#1E2D56"/>
<path d="M34.5974 55.9765L34.304 56.4957L35.1464 56.9712L35.4399 56.452L34.5974 55.9765Z" fill="#1E2D56"/>
<path d="M27.0226 51.6653L26.7292 52.1846L27.5718 52.6599L27.8651 52.1406L27.0226 51.6653Z" fill="#1E2D56"/>
<path d="M28.5493 52.5372L28.2559 53.0565L29.0984 53.5319L29.3918 53.0126L28.5493 52.5372Z" fill="#1E2D56"/>
<path d="M30.0576 53.3871L29.7642 53.9064L30.6067 54.3818L30.9001 53.8625L30.0576 53.3871Z" fill="#1E2D56"/>
<path d="M22.4538 49.1152L22.1604 49.6345L23.0029 50.1098L23.2963 49.5905L22.4538 49.1152Z" fill="#1E2D56"/>
<path d="M23.9783 49.9683L23.6848 50.4875L24.5273 50.963L24.8208 50.4438L23.9783 49.9683Z" fill="#1E2D56"/>
<path d="M25.4817 50.8266L25.1882 51.3458L26.0307 51.8213L26.3242 51.3021L25.4817 50.8266Z" fill="#1E2D56"/>
<path d="M17.9076 46.5157L17.6143 47.035L18.4568 47.5103L18.7501 46.991L17.9076 46.5157Z" fill="#1E2D56"/>
<path d="M19.4183 47.397L19.1248 47.9163L19.9672 48.3917L20.2607 47.8725L19.4183 47.397Z" fill="#1E2D56"/>
<path d="M20.9321 48.2507L20.6387 48.77L21.4812 49.2453L21.7746 48.726L20.9321 48.2507Z" fill="#1E2D56"/>
<path d="M13.3523 43.9372L13.059 44.4565L13.9015 44.9318L14.1949 44.4125L13.3523 43.9372Z" fill="#1E2D56"/>
<path d="M14.8782 44.8092L14.5847 45.3285L15.4273 45.8039L15.7207 45.2846L14.8782 44.8092Z" fill="#1E2D56"/>
<path d="M16.3765 45.6717L16.0831 46.191L16.9256 46.6663L17.219 46.147L16.3765 45.6717Z" fill="#1E2D56"/>
<path fill-rule="evenodd" clip-rule="evenodd" d="M9.85106 41.968L9.11845 42.1339C8.9817 42.0363 8.84494 41.9582 8.72773 41.8411C8.61051 41.7239 8.5226 41.5678 8.47375 41.4018L9.21613 41.353C9.26498 41.4994 9.35289 41.6263 9.46034 41.724C9.57756 41.8313 9.71431 41.8899 9.85106 41.968Z" fill="#1E2D56"/>
<path fill-rule="evenodd" clip-rule="evenodd" d="M11.2577 42.7683L10.6912 43.1393C10.3688 42.9636 10.0562 42.7781 9.77295 42.5829L10.4665 42.3291L11.2577 42.7683Z" fill="#1E2D56"/>
<path fill-rule="evenodd" clip-rule="evenodd" d="M12.6741 43.5689L12.3811 44.0862L11.4434 43.5591L11.8732 43.1101L12.6741 43.5689Z" fill="#1E2D56"/>
<path fill-rule="evenodd" clip-rule="evenodd" d="M12.0099 38.9419L11.6191 38.4929L12.5178 37.9658L12.8206 38.4734L12.0099 38.9419Z" fill="#1E2D56"/>
<path fill-rule="evenodd" clip-rule="evenodd" d="M10.613 39.7622L9.9292 39.4889C10.2222 39.2937 10.5446 39.1082 10.8572 38.9325L11.3847 39.3132L10.613 39.7622Z" fill="#1E2D56"/>
<path fill-rule="evenodd" clip-rule="evenodd" d="M9.29438 40.6601L8.552 40.5917C8.70829 40.2794 9.01111 40.1427 9.26508 39.9377L9.99769 40.1134C9.75348 40.2794 9.4409 40.3868 9.29438 40.6601Z" fill="#1E2D56"/>
<path d="M17.0416 35.3318L16.2059 35.8192L16.5068 36.3343L17.3424 35.8469L17.0416 35.3318Z" fill="#1E2D56"/>
<path d="M15.5144 36.21L14.6787 36.6973L14.9795 37.2123L15.8152 36.725L15.5144 36.21Z" fill="#1E2D56"/>
<path d="M14.0204 37.0856L13.1847 37.5729L13.4855 38.0879L14.3211 37.6007L14.0204 37.0856Z" fill="#1E2D56"/>
<path d="M21.5671 32.6875L20.7313 33.1747L21.032 33.6898L21.8678 33.2026L21.5671 32.6875Z" fill="#1E2D56"/>
<path d="M20.0561 33.5593L19.2205 34.0466L19.5212 34.5617L20.3569 34.0744L20.0561 33.5593Z" fill="#1E2D56"/>
<path d="M18.5357 34.4252L17.7001 34.9124L18.0008 35.4274L18.8364 34.9402L18.5357 34.4252Z" fill="#1E2D56"/>
<path d="M26.0576 30.0329L25.2219 30.5201L25.5226 31.0352L26.3583 30.548L26.0576 30.0329Z" fill="#1E2D56"/>
<path d="M24.5495 30.9304L23.7139 31.4177L24.0146 31.9328L24.8503 31.4455L24.5495 30.9304Z" fill="#1E2D56"/>
<path d="M23.0792 31.8005L22.2434 32.2877L22.5441 32.8028L23.3799 32.3157L23.0792 31.8005Z" fill="#1E2D56"/>
<path d="M30.5816 27.3949L29.746 27.8821L30.0467 28.3971L30.8824 27.91L30.5816 27.3949Z" fill="#1E2D56"/>
<path d="M29.0743 28.2756L28.2386 28.7628L28.5394 29.2779L29.375 28.7907L29.0743 28.2756Z" fill="#1E2D56"/>
<path d="M27.581 29.1769L26.7452 29.6641L27.0459 30.1792L27.8817 29.692L27.581 29.1769Z" fill="#1E2D56"/>
<path d="M35.1171 24.7738L34.2814 25.261L34.5821 25.7761L35.4179 25.2889L35.1171 24.7738Z" fill="#1E2D56"/>
<path d="M33.6127 25.6526L32.777 26.1398L33.0777 26.6549L33.9135 26.1677L33.6127 25.6526Z" fill="#1E2D56"/>
<path d="M32.114 26.52L31.2782 27.0072L31.5789 27.5223L32.4147 27.0351L32.114 26.52Z" fill="#1E2D56"/>
<path d="M39.6136 22.1345L38.778 22.6218L39.0787 23.1369L39.9144 22.6496L39.6136 22.1345Z" fill="#1E2D56"/>
<path d="M38.1118 22.9944L37.2761 23.4816L37.5768 23.9966L38.4125 23.5094L38.1118 22.9944Z" fill="#1E2D56"/>
<path d="M36.6313 23.8756L35.7957 24.3629L36.0964 24.878L36.9321 24.3907L36.6313 23.8756Z" fill="#1E2D56"/>
<path d="M6.29541 38.278V37.2335L6.86196 37.5459L41.2751 17.6724L87.4687 44.3494L88.3869 43.8223V44.8765L53.5732 64.9843C53.0165 65.3064 52.3229 65.3064 51.7564 64.9843L6.6666 38.9417C6.41263 38.7953 6.29541 38.5415 6.29541 38.278Z" fill="#1E2D56"/>
<path d="M6.66672 37.8876L38.6965 56.3849L45.2509 60.1722L51.7467 63.9204C52.3133 64.2425 52.997 64.2425 53.5636 63.9204L88.3773 43.8126L42.0958 17.0868C41.5878 16.794 40.9529 16.794 40.4547 17.0868L6.66672 36.6089C6.16855 36.892 6.16855 37.6046 6.66672 37.8876Z" fill="#3178A8"/>
<path d="M82.4553 45.788L81.6156 46.2683L81.9121 46.7859L82.7518 46.3056L82.4553 45.788Z" fill="#49B6FF"/>
<path d="M83.9728 44.9265L83.1331 45.4069L83.4295 45.9244L84.2693 45.4441L83.9728 44.9265Z" fill="#49B6FF"/>
<path d="M85.4796 44.0384L84.64 44.5188L84.9365 45.0363L85.7762 44.5559L85.4796 44.0384Z" fill="#49B6FF"/>
<path d="M77.9185 48.3761L77.0789 48.8566L77.3754 49.3741L78.215 48.8936L77.9185 48.3761Z" fill="#49B6FF"/>
<path d="M79.4285 47.5088L78.5889 47.9893L78.8854 48.5068L79.725 48.0264L79.4285 47.5088Z" fill="#49B6FF"/>
<path d="M80.9348 46.6664L80.0951 47.1467L80.3916 47.6643L81.2313 47.184L80.9348 46.6664Z" fill="#49B6FF"/>
<path d="M73.3837 50.9964L72.5439 51.4767L72.8404 51.9943L73.6802 51.5139L73.3837 50.9964Z" fill="#49B6FF"/>
<path d="M74.8903 50.1291L74.0505 50.6094L74.347 51.1269L75.1867 50.6466L74.8903 50.1291Z" fill="#49B6FF"/>
<path d="M76.4005 49.2619L75.5609 49.7424L75.8575 50.26L76.6972 49.7794L76.4005 49.2619Z" fill="#49B6FF"/>
<path d="M68.8452 53.5735L68.0056 54.054L68.3022 54.5715L69.1418 54.0911L68.8452 53.5735Z" fill="#49B6FF"/>
<path d="M70.355 52.7067L69.5154 53.1871L69.8119 53.7046L70.6515 53.2242L70.355 52.7067Z" fill="#49B6FF"/>
<path d="M71.8582 51.8665L71.0184 52.3468L71.3149 52.8644L72.1546 52.384L71.8582 51.8665Z" fill="#49B6FF"/>
<path d="M64.2988 56.2019L63.4591 56.6823L63.7556 57.1998L64.5953 56.7195L64.2988 56.2019Z" fill="#49B6FF"/>
<path d="M65.8114 55.3322L64.9717 55.8125L65.2682 56.3301L66.1079 55.8498L65.8114 55.3322Z" fill="#49B6FF"/>
<path d="M67.3174 54.4467L66.4778 54.9271L66.7743 55.4446L67.6139 54.9642L67.3174 54.4467Z" fill="#49B6FF"/>
<path d="M59.7585 58.7817L58.9188 59.2621L59.2154 59.7796L60.055 59.2992L59.7585 58.7817Z" fill="#49B6FF"/>
<path d="M61.2758 57.9205L60.4362 58.4009L60.7327 58.9184L61.5723 58.438L61.2758 57.9205Z" fill="#49B6FF"/>
<path d="M62.7733 57.0719L61.9336 57.5522L62.2301 58.0698L63.0698 57.5895L62.7733 57.0719Z" fill="#49B6FF"/>
<path fill-rule="evenodd" clip-rule="evenodd" d="M55.2143 61.3925L55.5074 61.9098L54.6673 62.3978L54.3743 61.8805L55.2143 61.3925Z" fill="#49B6FF"/>
<path d="M56.7264 60.5376L55.8867 61.0179L56.1832 61.5355L57.0229 61.0552L56.7264 60.5376Z" fill="#49B6FF"/>
<path d="M58.2124 59.6642L57.3728 60.1445L57.6693 60.662L58.5089 60.1817L58.2124 59.6642Z" fill="#49B6FF"/>
<path d="M49.8061 60.8098L49.5127 61.3291L50.3552 61.8045L50.6486 61.2852L49.8061 60.8098Z" fill="#49B6FF"/>
<path fill-rule="evenodd" clip-rule="evenodd" d="M52.1375 62.1045L51.9421 62.6707C51.7761 62.6023 51.61 62.5145 51.4537 62.4266L51.0239 62.1826L51.317 61.6653C51.61 61.8215 51.864 61.9874 52.1375 62.1045Z" fill="#49B6FF"/>
<path fill-rule="evenodd" clip-rule="evenodd" d="M53.7198 62.1826L53.8664 62.7585C53.5147 62.8659 53.1435 62.8952 52.7821 62.8659L52.8309 62.2705C53.124 62.2997 53.4268 62.2607 53.7198 62.1826Z" fill="#49B6FF"/>
<path d="M45.2351 58.2424L44.9417 58.7616L45.7841 59.2371L46.0776 58.7178L45.2351 58.2424Z" fill="#49B6FF"/>
<path d="M46.7488 59.1018L46.4554 59.6211L47.298 60.0964L47.5913 59.5771L46.7488 59.1018Z" fill="#49B6FF"/>
<path d="M48.2843 59.9458L47.9908 60.4651L48.8334 60.9405L49.1268 60.4212L48.2843 59.9458Z" fill="#49B6FF"/>
<path d="M40.6952 55.6522L40.4017 56.1715L41.2442 56.6469L41.5377 56.1276L40.6952 55.6522Z" fill="#49B6FF"/>
<path d="M42.1935 56.5226L41.9001 57.0419L42.7427 57.5172L43.036 56.9979L42.1935 56.5226Z" fill="#49B6FF"/>
<path d="M43.7134 57.378L43.4199 57.8972L44.2624 58.3727L44.5559 57.8535L43.7134 57.378Z" fill="#49B6FF"/>
<path d="M36.1435 53.0867L35.8501 53.606L36.6926 54.0813L36.9861 53.562L36.1435 53.0867Z" fill="#49B6FF"/>
<path d="M37.6464 53.9223L37.353 54.4417L38.1955 54.9169L38.4889 54.3976L37.6464 53.9223Z" fill="#49B6FF"/>
<path d="M39.1531 54.8073L38.8596 55.3265L39.702 55.802L39.9955 55.2828L39.1531 54.8073Z" fill="#49B6FF"/>
<path d="M31.578 50.4961L31.2847 51.0154L32.1272 51.4907L32.4206 50.9714L31.578 50.4961Z" fill="#49B6FF"/>
<path d="M33.0863 51.3768L32.793 51.8961L33.6355 52.3714L33.9289 51.8521L33.0863 51.3768Z" fill="#49B6FF"/>
<path d="M34.6133 52.2174L34.3198 52.7367L35.1624 53.2121L35.4558 52.6928L34.6133 52.2174Z" fill="#49B6FF"/>
<path d="M27.0143 47.9372L26.7209 48.4565L27.5635 48.9318L27.8568 48.4125L27.0143 47.9372Z" fill="#49B6FF"/>
<path d="M28.5495 48.7886L28.2561 49.3079L29.0986 49.7832L29.3921 49.2639L28.5495 48.7886Z" fill="#49B6FF"/>
<path d="M30.0424 49.6484L29.7489 50.1676L30.5913 50.6431L30.8848 50.1238L30.0424 49.6484Z" fill="#49B6FF"/>
<path d="M22.4539 45.3666L22.1605 45.8859L23.0031 46.3612L23.2964 45.8419L22.4539 45.3666Z" fill="#49B6FF"/>
<path d="M23.9784 46.2194L23.6849 46.7386L24.5274 47.2141L24.8209 46.6949L23.9784 46.2194Z" fill="#49B6FF"/>
<path d="M25.4819 47.0777L25.1884 47.5969L26.0308 48.0724L26.3243 47.5532L25.4819 47.0777Z" fill="#49B6FF"/>
<path d="M17.9076 42.7676L17.6143 43.2869L18.4568 43.7622L18.7501 43.2429L17.9076 42.7676Z" fill="#49B6FF"/>
<path d="M19.4336 43.639L19.1401 44.1583L19.9826 44.6337L20.2761 44.1144L19.4336 43.639Z" fill="#49B6FF"/>
<path d="M20.9321 44.5021L20.6387 45.0214L21.4812 45.4967L21.7746 44.9774L20.9321 44.5021Z" fill="#49B6FF"/>
<path d="M13.3432 40.2077L13.0498 40.7271L13.8923 41.2024L14.1857 40.683L13.3432 40.2077Z" fill="#49B6FF"/>
<path d="M14.8783 41.0605L14.5848 41.5798L15.4274 42.0552L15.7208 41.5359L14.8783 41.0605Z" fill="#49B6FF"/>
<path d="M16.3769 41.9227L16.0835 42.442L16.926 42.9173L17.2194 42.398L16.3769 41.9227Z" fill="#49B6FF"/>
<path fill-rule="evenodd" clip-rule="evenodd" d="M9.85106 38.2193L9.11845 38.3852C8.9817 38.2876 8.84494 38.2096 8.72773 38.0924C8.61051 37.9753 8.5226 37.8191 8.47375 37.6532L9.21613 37.6044C9.26498 37.7508 9.35289 37.8777 9.46034 37.9753C9.57756 38.0827 9.71431 38.1412 9.85106 38.2193Z" fill="#49B6FF"/>
<path fill-rule="evenodd" clip-rule="evenodd" d="M11.2577 39.0197L10.6912 39.3906C10.3688 39.2149 10.0562 39.0294 9.77295 38.8342L10.4665 38.5804L11.2577 39.0197Z" fill="#49B6FF"/>
<path fill-rule="evenodd" clip-rule="evenodd" d="M12.6741 39.8201L12.3811 40.3374L11.4434 39.8103L11.8732 39.3613L12.6741 39.8201Z" fill="#49B6FF"/>
<path fill-rule="evenodd" clip-rule="evenodd" d="M12.0099 35.1934L11.6191 34.7444L12.5178 34.2173L12.8206 34.7248L12.0099 35.1934Z" fill="#49B6FF"/>
<path fill-rule="evenodd" clip-rule="evenodd" d="M10.613 36.0132L9.9292 35.7399C10.2222 35.5446 10.5446 35.3592 10.8572 35.1835L11.3847 35.5642L10.613 36.0132Z" fill="#49B6FF"/>
<path fill-rule="evenodd" clip-rule="evenodd" d="M9.29438 36.9114L8.552 36.8431C8.70829 36.5307 9.01111 36.3941 9.26508 36.1891L9.99769 36.3648C9.75348 36.5307 9.4409 36.6381 9.29438 36.9114Z" fill="#49B6FF"/>
<path d="M17.0334 31.573L16.1978 32.0603L16.4985 32.5753L17.3342 32.0881L17.0334 31.573Z" fill="#49B6FF"/>
<path d="M15.5146 32.4613L14.679 32.9486L14.9797 33.4637L15.8154 32.9764L15.5146 32.4613Z" fill="#49B6FF"/>
<path d="M14.0384 33.325L13.2028 33.8123L13.5035 34.3273L14.3392 33.84L14.0384 33.325Z" fill="#49B6FF"/>
<path d="M21.5472 28.9256L20.7115 29.4128L21.0123 29.9279L21.8479 29.4407L21.5472 28.9256Z" fill="#49B6FF"/>
<path d="M20.0561 29.8109L19.2205 30.2982L19.5212 30.8133L20.3569 30.326L20.0561 29.8109Z" fill="#49B6FF"/>
<path d="M18.5359 30.6765L17.7002 31.1637L18.0009 31.6787L18.8366 31.1915L18.5359 30.6765Z" fill="#49B6FF"/>
<path d="M26.0773 26.2974L25.2416 26.7845L25.5423 27.2996L26.3781 26.8125L26.0773 26.2974Z" fill="#49B6FF"/>
<path d="M24.5666 27.1694L23.731 27.6567L24.0317 28.1718L24.8674 27.6845L24.5666 27.1694Z" fill="#49B6FF"/>
<path d="M23.0792 28.0519L22.2434 28.5391L22.5441 29.0542L23.3799 28.567L23.0792 28.0519Z" fill="#49B6FF"/>
<path d="M30.5818 23.647L29.7461 24.1342L30.0468 24.6492L30.8825 24.162L30.5818 23.647Z" fill="#49B6FF"/>
<path d="M29.0746 24.5277L28.2389 25.0149L28.5396 25.5299L29.3753 25.0428L29.0746 24.5277Z" fill="#49B6FF"/>
<path d="M27.5728 25.419L26.7371 25.9061L27.0377 26.4212L27.8735 25.9341L27.5728 25.419Z" fill="#49B6FF"/>
<path d="M35.0971 21.0134L34.2615 21.5006L34.5622 22.0157L35.3979 21.5285L35.0971 21.0134Z" fill="#49B6FF"/>
<path d="M33.6126 21.9039L32.7769 22.3911L33.0776 22.9062L33.9133 22.419L33.6126 21.9039Z" fill="#49B6FF"/>
<path d="M32.0942 22.7596L31.2585 23.2468L31.5593 23.7619L32.3949 23.2747L32.0942 22.7596Z" fill="#49B6FF"/>
<path d="M39.6294 18.3728L38.7937 18.8601L39.0945 19.3752L39.9301 18.8879L39.6294 18.3728Z" fill="#49B6FF"/>
<path d="M38.1119 19.2458L37.2762 19.733L37.577 20.2481L38.4126 19.7609L38.1119 19.2458Z" fill="#49B6FF"/>
<path d="M36.6312 20.1267L35.7955 20.614L36.0963 21.1291L36.932 20.6418L36.6312 20.1267Z" fill="#49B6FF"/>
<path fill-rule="evenodd" clip-rule="evenodd" d="M38.6965 56.3846L45.251 60.1719L59.6883 51.8359C59.8739 51.7285 59.8739 51.4552 59.6883 51.3479L53.7786 47.9413C53.632 47.8534 53.4562 47.8534 53.3097 47.9413L38.6965 56.3846Z" fill="#969696"/>
<path d="M34.4961 58.8148L35.0333 59.1271L41.0603 62.6021L41.5487 62.1824L42.4962 60.806L43.2484 59.9276L37.3972 56.5502L36.6842 56.1403C35.7562 56.6674 34.9161 57.6923 34.4961 58.8148Z" fill="#3178A8"/>
<path d="M34.252 60.0546C34.252 60.4158 34.3301 60.7477 34.4864 61.0307C34.6329 61.304 34.838 61.4993 35.0822 61.6164L41.5488 65.3451L40.9822 64.0664L41.0701 62.6022L35.0432 59.1273L34.5059 58.8149C34.3301 59.2542 34.252 59.6739 34.252 60.0546Z" fill="#1E2D56"/>
<path d="M43.7173 64.2323L41.5683 63.0024L41.285 63.1977L41.3339 64.3007L41.92 64.7009L42.9847 64.7887L43.7173 64.2323Z" fill="#3178A8"/>
<path d="M40.8064 63.8321C40.8064 64.1933 40.8845 64.5251 41.0408 64.8082C41.4706 65.6086 42.4181 65.7453 43.4731 65.1889L44.489 64.6911L43.7173 64.2421L43.5903 64.3104C42.76 64.7887 42.0079 64.7008 41.6855 64.0956C41.4706 63.6954 41.4706 63.2171 41.6855 62.6315C41.9688 61.8604 42.5744 61.1283 43.2387 60.7476L59.7371 51.2306C59.7957 51.1915 59.8348 51.1329 59.8348 51.0646V50.3618L59.0142 50.8401L43.2582 59.9375C42.3302 60.4645 41.4804 61.4797 41.0701 62.612C40.8943 63.0415 40.8064 63.4612 40.8064 63.8321Z" fill="#002D4D"/>
<path fill-rule="evenodd" clip-rule="evenodd" d="M58.9946 50.8499L59.6686 51.2501L59.8249 51.0256V50.1862L59.1216 50.4302L59.0044 50.8206L58.9946 50.8499Z" fill="#002D4D"/>
<path fill-rule="evenodd" clip-rule="evenodd" d="M59.6882 49.9421L53.7785 46.5355C53.6319 46.4476 53.4561 46.4476 53.3096 46.5355L36.6842 56.1404L43.2484 59.9277L59.698 50.4301C59.8738 50.313 59.8738 50.0495 59.6882 49.9421Z" fill="#3B92CC"/>
<path fill-rule="evenodd" clip-rule="evenodd" d="M41.4608 60.6698L40.9919 60.2988C41.0994 60.1427 41.2264 60.0255 41.3534 59.8889C41.4706 59.7522 41.6171 59.6351 41.7539 59.5277L42.1348 59.9865C42.0078 60.0841 41.8808 60.1915 41.7832 60.3086C41.6659 60.4257 41.5487 60.5331 41.4608 60.6698Z" fill="#3B92CC"/>
<path fill-rule="evenodd" clip-rule="evenodd" d="M40.7086 62.1926L40.1323 62.0461C40.1714 61.8704 40.2398 61.6947 40.2886 61.5288C40.3668 61.3629 40.4351 61.1969 40.5133 61.031L41.0408 61.3043C40.9724 61.4507 40.9138 61.5971 40.8454 61.7435C40.8063 61.89 40.7477 62.0364 40.7086 62.1926Z" fill="#3B92CC"/>
<path fill-rule="evenodd" clip-rule="evenodd" d="M40.5914 64.1641L40.0151 63.9688C39.976 63.6077 39.9662 63.2465 39.9956 62.8854L40.5914 63.1196C40.5621 63.4417 40.5523 63.8517 40.5914 64.1641Z" fill="#3178A8"/>
<path fill-rule="evenodd" clip-rule="evenodd" d="M45.8859 57.8192L45.5929 57.3019L46.4623 56.8138L46.7553 57.3312L45.8859 57.8192Z" fill="#49B6FF"/>
<path fill-rule="evenodd" clip-rule="evenodd" d="M44.3132 58.7074L44.0299 58.1901L44.8993 57.6923L45.1923 58.2194L44.3132 58.7074Z" fill="#49B6FF"/>
<path fill-rule="evenodd" clip-rule="evenodd" d="M42.7699 59.596L42.467 59.0884C42.7699 58.9029 43.0531 58.7565 43.3462 58.5808L43.6392 59.0981C43.3462 59.2641 43.0336 59.4203 42.7699 59.596Z" fill="#49B6FF"/>
<path fill-rule="evenodd" clip-rule="evenodd" d="M50.5843 55.1642L50.301 54.6469L51.1704 54.149L51.4634 54.6664L50.5843 55.1642Z" fill="#49B6FF"/>
<path fill-rule="evenodd" clip-rule="evenodd" d="M49.0214 56.0523L48.7284 55.5252L49.6075 55.0371L49.9006 55.5544L49.0214 56.0523Z" fill="#49B6FF"/>
<path fill-rule="evenodd" clip-rule="evenodd" d="M47.4586 56.9308L47.1753 56.4135L48.0447 55.9156L48.3377 56.433L47.4586 56.9308Z" fill="#49B6FF"/>
<path fill-rule="evenodd" clip-rule="evenodd" d="M55.361 52.4116L54.8726 52.0016L55.6345 51.5721L56.2987 51.8845L55.361 52.4116Z" fill="#49B6FF"/>
<path fill-rule="evenodd" clip-rule="evenodd" d="M53.7297 53.3391L53.4366 52.8218L54.2669 52.3435L54.6186 52.8316L53.7297 53.3391Z" fill="#49B6FF"/>
<path fill-rule="evenodd" clip-rule="evenodd" d="M52.1668 54.2176L51.8738 53.7002L52.7431 53.2024L53.0362 53.7295L52.1668 54.2176Z" fill="#49B6FF"/>
<path fill-rule="evenodd" clip-rule="evenodd" d="M57.422 49.3369L56.6992 49.5321L55.9763 49.1124L56.5233 48.7805L57.422 49.3369Z" fill="#49B6FF"/>
<path fill-rule="evenodd" clip-rule="evenodd" d="M58.5454 50.4984L57.6076 50.4594C57.7346 50.3813 57.7542 50.1763 57.6369 50.0787C57.5197 49.9909 57.3927 49.9323 57.2755 49.864L58.1351 49.7761C58.2816 49.8737 58.4477 49.9518 58.5747 50.0592C58.7017 50.1665 58.6821 50.4008 58.5454 50.4984Z" fill="#49B6FF"/>
<path fill-rule="evenodd" clip-rule="evenodd" d="M57.0411 51.4451L56.2499 51.2304L57.0118 50.7911L57.8909 50.9083L57.0411 51.4451Z" fill="#49B6FF"/>
<path fill-rule="evenodd" clip-rule="evenodd" d="M52.4206 47.7266L52.6355 48.283L51.815 48.7515L51.522 48.2341L52.4206 47.7266Z" fill="#49B6FF"/>
<path fill-rule="evenodd" clip-rule="evenodd" d="M54.1594 47.3849L54.052 47.9999C53.925 47.9315 53.8078 47.8339 53.6515 47.8339C53.505 47.8144 53.3584 47.8632 53.2412 47.9511L53.1631 47.3263C53.3096 47.2385 53.4854 47.1799 53.671 47.1994C53.8566 47.1994 54.0031 47.2971 54.1594 47.3849Z" fill="#49B6FF"/>
<path fill-rule="evenodd" clip-rule="evenodd" d="M55.8005 48.3412L55.3804 48.7707L54.6478 48.3412L54.892 47.7946C55.2046 47.9703 55.4977 48.1557 55.8005 48.3412Z" fill="#49B6FF"/>
<path d="M47.699 50.3966L46.8228 50.8917L47.1165 51.4109L47.9928 50.9158L47.699 50.3966Z" fill="#49B6FF"/>
<path d="M49.2714 49.5281L48.395 50.0231L48.6887 50.5423L49.5651 50.0473L49.2714 49.5281Z" fill="#49B6FF"/>
<path d="M50.8319 48.6393L49.9556 49.1343L50.2493 49.6535L51.1256 49.1585L50.8319 48.6393Z" fill="#49B6FF"/>
<path d="M42.9976 53.0728L42.1212 53.5677L42.4149 54.0869L43.2913 53.5919L42.9976 53.0728Z" fill="#49B6FF"/>
<path d="M44.5518 52.1792L43.6755 52.6743L43.9693 53.1935L44.8455 52.6984L44.5518 52.1792Z" fill="#49B6FF"/>
<path d="M46.117 51.2992L45.2407 51.7943L45.5345 52.3134L46.4107 51.8183L46.117 51.2992Z" fill="#49B6FF"/>
<path fill-rule="evenodd" clip-rule="evenodd" d="M38.2862 55.7306L38.5793 56.248C38.2862 56.4139 38.0127 56.5798 37.6806 56.7458L37.4169 56.2089C37.6904 56.0625 37.9932 55.8868 38.2862 55.7306Z" fill="#49B6FF"/>
<path d="M39.8537 54.8408L38.9774 55.3359L39.2711 55.855L40.1474 55.36L39.8537 54.8408Z" fill="#49B6FF"/>
<path d="M41.4189 53.9608L40.5426 54.4559L40.8363 54.975L41.7126 54.4799L41.4189 53.9608Z" fill="#49B6FF"/>
<path fill-rule="evenodd" clip-rule="evenodd" d="M34.8185 59.7908L35.3753 60.1031C35.346 60.2593 35.3557 60.2008 35.3557 60.3569C35.346 60.5131 35.2873 60.9231 35.2971 61.089L34.7403 60.8352C34.7306 60.6595 34.7501 60.4936 34.7599 60.3179C34.7599 60.1324 34.7794 59.9567 34.8185 59.7908Z" fill="#3178A8"/>
<path fill-rule="evenodd" clip-rule="evenodd" d="M35.4437 58.0339L35.9517 58.3365C35.7856 58.6001 35.6684 58.8832 35.5707 59.1662L35.0042 58.9808C35.1311 58.6586 35.2581 58.3365 35.4437 58.0339Z" fill="#3B92CC"/>
<path fill-rule="evenodd" clip-rule="evenodd" d="M36.694 56.6478L37.0457 57.1261C36.8015 57.3116 36.5768 57.5166 36.3717 57.7508L35.9224 57.3604C36.1568 57.0968 36.4108 56.8528 36.694 56.6478Z" fill="#3B92CC"/>
<path fill-rule="evenodd" clip-rule="evenodd" d="M52.157 51.3867C52.9385 51.8357 54.2083 51.8357 54.9995 51.3769C55.7908 50.9181 55.7908 50.186 55.0093 49.737C54.2279 49.288 52.958 49.288 52.1668 49.7468C51.3756 50.2056 51.3756 50.9376 52.157 51.3867Z" fill="#969696"/>
<path fill-rule="evenodd" clip-rule="evenodd" d="M52.157 51.1234C52.9385 51.5724 54.2083 51.5724 54.9995 51.1136C55.7908 50.6548 55.7908 49.9227 55.0093 49.4737C54.2279 49.0247 52.958 49.0247 52.1668 49.4835C51.3756 49.9325 51.3756 50.6646 52.157 51.1234Z" fill="#FD8701"/>
<path fill-rule="evenodd" clip-rule="evenodd" d="M52.4305 50.7915C53.0557 51.1526 54.0814 51.1526 54.7163 50.7915C55.3512 50.4303 55.3512 49.8349 54.7261 49.4738C54.1009 49.1126 53.0752 49.1126 52.4403 49.4738C51.8054 49.8447 51.8054 50.4303 52.4305 50.7915Z" fill="#FFA601"/>
<path fill-rule="evenodd" clip-rule="evenodd" d="M53.2511 50.5863C53.632 50.8108 54.2572 50.8108 54.6479 50.5863C55.0386 50.3618 55.0386 50.0007 54.6479 49.7762C54.267 49.5517 53.6418 49.5517 53.2511 49.7762C52.8701 50.0007 52.8603 50.3618 53.2511 50.5863Z" fill="#FFDA80"/>
<path fill-rule="evenodd" clip-rule="evenodd" d="M14.9696 42.6706L21.524 46.4579L35.9614 38.122C36.1469 38.0146 36.1469 37.7413 35.9614 37.6339L30.0516 34.2273C29.9051 34.1394 29.7293 34.1394 29.5828 34.2273L14.9696 42.6706Z" fill="#969696"/>
<path d="M10.7693 45.0909L11.3065 45.4033L17.3335 48.8782L17.8219 48.4585L18.7694 47.0822L19.5215 46.2037L13.6704 42.8264L12.9574 42.4164C12.0294 42.9532 11.1893 43.9684 10.7693 45.0909Z" fill="#3178A8"/>
<path d="M10.5251 46.3307C10.5251 46.6919 10.6033 47.0238 10.7596 47.3068C10.9061 47.5802 11.1112 47.7754 11.3554 47.8925L17.822 51.6212L17.2554 50.3425L17.3433 48.8784L11.3164 45.4034L10.7791 45.0911C10.6033 45.5401 10.5251 45.9598 10.5251 46.3307Z" fill="#1E2D56"/>
<path d="M19.9904 50.5182L17.8414 49.2786L17.5581 49.4835L17.6069 50.5768L18.193 50.9868L19.2578 51.0746L19.9904 50.5182Z" fill="#3178A8"/>
<path d="M17.0795 50.118C17.0795 50.4791 17.1576 50.811 17.3139 51.0941C17.7437 51.8945 18.6912 52.0311 19.7462 51.4748L20.7621 50.9769L19.9904 50.5279L19.8634 50.5963C19.0331 51.0746 18.281 50.9867 17.9586 50.3815C17.7437 49.9813 17.7437 49.503 17.9586 48.9174C18.2419 48.1462 18.8475 47.4142 19.5117 47.0335L36.0101 37.5165C36.0687 37.4774 36.1078 37.4188 36.1078 37.3505V36.6477L35.2873 37.126L19.5313 46.2233C18.6033 46.7504 17.7632 47.7753 17.3432 48.8978C17.1674 49.3176 17.0795 49.7373 17.0795 50.118Z" fill="#002D4D"/>
<path fill-rule="evenodd" clip-rule="evenodd" d="M35.2678 37.126L35.9418 37.536L36.0981 37.3115V36.4623L35.3948 36.7063L35.2776 37.1065L35.2678 37.126Z" fill="#002D4D"/>
<path fill-rule="evenodd" clip-rule="evenodd" d="M35.9614 36.228L30.0517 32.8214C29.9051 32.7335 29.7293 32.7335 29.5828 32.8214L12.9574 42.4263L19.5216 46.2135L35.9712 36.716C36.147 36.5989 36.147 36.3354 35.9614 36.228Z" fill="#3B92CC"/>
<path fill-rule="evenodd" clip-rule="evenodd" d="M17.734 46.9551L17.2651 46.5842C17.3726 46.428 17.4996 46.3109 17.6266 46.1743C17.7438 46.0376 17.8903 45.9205 18.0271 45.8131L18.408 46.2719C18.281 46.3695 18.154 46.4769 18.0564 46.594C17.9391 46.7111 17.8219 46.8185 17.734 46.9551Z" fill="#3B92CC"/>
<path fill-rule="evenodd" clip-rule="evenodd" d="M16.982 48.478L16.4056 48.3316C16.4447 48.1559 16.5131 47.9802 16.5619 47.8142C16.6303 47.6483 16.7085 47.4823 16.7866 47.3164L17.3141 47.5897C17.2457 47.7361 17.1871 47.8826 17.1187 48.029C17.0796 48.1754 17.021 48.3218 16.982 48.478Z" fill="#3B92CC"/>
<path fill-rule="evenodd" clip-rule="evenodd" d="M16.8646 50.4495L16.2883 50.2542C16.2492 49.8931 16.2394 49.5319 16.2687 49.1708L16.8646 49.405C16.8353 49.7174 16.8255 50.1274 16.8646 50.4495Z" fill="#3178A8"/>
<path fill-rule="evenodd" clip-rule="evenodd" d="M22.1589 44.0563L21.8658 43.539L22.745 43.0411L23.0283 43.5585L22.1589 44.0563Z" fill="#49B6FF"/>
<path fill-rule="evenodd" clip-rule="evenodd" d="M20.5864 44.9444L20.3031 44.427L21.1725 43.9292L21.4655 44.4465L20.5864 44.9444Z" fill="#49B6FF"/>
<path fill-rule="evenodd" clip-rule="evenodd" d="M19.0429 45.8327L18.7401 45.3251C19.0429 45.1396 19.3262 44.9932 19.6192 44.8175L19.9123 45.3348C19.6192 45.5008 19.3067 45.657 19.0429 45.8327Z" fill="#49B6FF"/>
<path fill-rule="evenodd" clip-rule="evenodd" d="M26.8574 41.3915L26.5741 40.8742L27.4435 40.3861L27.7365 40.9034L26.8574 41.3915Z" fill="#49B6FF"/>
<path fill-rule="evenodd" clip-rule="evenodd" d="M25.2945 42.2795L25.0015 41.7622L25.8806 41.2644L26.1736 41.7817L25.2945 42.2795Z" fill="#49B6FF"/>
<path fill-rule="evenodd" clip-rule="evenodd" d="M23.7315 43.1681L23.4482 42.641L24.3176 42.153L24.6107 42.6703L23.7315 43.1681Z" fill="#49B6FF"/>
<path fill-rule="evenodd" clip-rule="evenodd" d="M31.6342 38.6976L31.1458 38.2876L31.9077 37.8582L32.5719 38.1607L31.6342 38.6976Z" fill="#49B6FF"/>
<path fill-rule="evenodd" clip-rule="evenodd" d="M30.0029 39.6153L29.7098 39.0979L30.5401 38.6294L30.8918 39.1174L30.0029 39.6153Z" fill="#49B6FF"/>
<path fill-rule="evenodd" clip-rule="evenodd" d="M28.44 40.5036L28.147 39.9862L29.0163 39.4884L29.3094 40.0057L28.44 40.5036Z" fill="#49B6FF"/>
<path fill-rule="evenodd" clip-rule="evenodd" d="M33.6952 35.6128L32.9724 35.808L32.2495 35.3883L32.7965 35.0662L33.6952 35.6128Z" fill="#49B6FF"/>
<path fill-rule="evenodd" clip-rule="evenodd" d="M34.8186 36.784L33.8808 36.7449C34.0078 36.6668 34.0273 36.4618 33.9101 36.3642C33.7929 36.2764 33.6659 36.2178 33.5487 36.1495L34.4083 36.0616C34.5548 36.1593 34.7209 36.2374 34.8479 36.3447C34.9749 36.4521 34.9553 36.6864 34.8186 36.784Z" fill="#49B6FF"/>
<path fill-rule="evenodd" clip-rule="evenodd" d="M33.3143 37.7309L32.5231 37.5064L33.285 37.0769L34.1641 37.194L33.3143 37.7309Z" fill="#49B6FF"/>
<path fill-rule="evenodd" clip-rule="evenodd" d="M28.694 34.0022L28.9089 34.5683L28.0883 35.0369L27.7953 34.5195L28.694 34.0022Z" fill="#49B6FF"/>
<path fill-rule="evenodd" clip-rule="evenodd" d="M30.4326 33.6608L30.3252 34.2757C30.1982 34.2074 30.081 34.1195 29.9247 34.1098C29.7782 34.0903 29.6316 34.1391 29.5144 34.2269L29.4363 33.6022C29.5828 33.5144 29.7586 33.4558 29.9442 33.4753C30.1298 33.4851 30.2763 33.5827 30.4326 33.6608Z" fill="#49B6FF"/>
<path fill-rule="evenodd" clip-rule="evenodd" d="M32.0738 34.6268L31.6538 35.0563L30.9211 34.6268L31.1653 34.0802C31.4779 34.2559 31.771 34.4414 32.0738 34.6268Z" fill="#49B6FF"/>
<path d="M23.9703 36.684L23.094 37.1791L23.3877 37.6982L24.264 37.2031L23.9703 36.684Z" fill="#49B6FF"/>
<path d="M25.5399 35.8048L24.6636 36.2998L24.9573 36.819L25.8336 36.324L25.5399 35.8048Z" fill="#49B6FF"/>
<path d="M27.0979 34.9179L26.2217 35.413L26.5154 35.9321L27.3917 35.437L27.0979 34.9179Z" fill="#49B6FF"/>
<path d="M19.2706 39.3577L18.3943 39.8527L18.688 40.3718L19.5643 39.8768L19.2706 39.3577Z" fill="#49B6FF"/>
<path d="M20.8229 38.4663L19.9467 38.9614L20.2404 39.4805L21.1166 38.9854L20.8229 38.4663Z" fill="#49B6FF"/>
<path d="M22.3913 37.5841L21.515 38.0792L21.8087 38.5983L22.685 38.1032L22.3913 37.5841Z" fill="#49B6FF"/>
<path fill-rule="evenodd" clip-rule="evenodd" d="M14.5593 42.0062L14.8524 42.5236C14.5593 42.6895 14.2858 42.8457 13.9537 43.0214L13.6899 42.4845C13.9634 42.3479 14.2663 42.1722 14.5593 42.0062Z" fill="#49B6FF"/>
<path d="M16.1342 41.1093L15.2581 41.6045L15.5519 42.1236L16.428 41.6284L16.1342 41.1093Z" fill="#49B6FF"/>
<path d="M17.6899 40.2205L16.8136 40.7155L17.1073 41.2346L17.9835 40.7396L17.6899 40.2205Z" fill="#49B6FF"/>
<path fill-rule="evenodd" clip-rule="evenodd" d="M11.0917 46.0768L11.6485 46.3891C11.6192 46.5453 11.6289 46.4867 11.6289 46.6429C11.6192 46.7991 11.5605 47.2091 11.5703 47.375L11.0135 47.1212C11.0038 46.9455 11.0233 46.7796 11.0331 46.6039C11.0331 46.4184 11.0526 46.2427 11.0917 46.0768Z" fill="#3178A8"/>
<path fill-rule="evenodd" clip-rule="evenodd" d="M11.7169 44.3196L12.2249 44.6222C12.0588 44.8857 11.9416 45.1688 11.8439 45.4518L11.2773 45.2664C11.4043 44.9443 11.5313 44.6124 11.7169 44.3196Z" fill="#3B92CC"/>
<path fill-rule="evenodd" clip-rule="evenodd" d="M12.9672 42.9336L13.3189 43.4119C13.0747 43.5973 12.85 43.8023 12.6449 44.0366L12.1956 43.6462C12.43 43.3826 12.684 43.1386 12.9672 42.9336Z" fill="#3B92CC"/>
<path fill-rule="evenodd" clip-rule="evenodd" d="M28.4301 37.6529C29.2115 38.1019 30.4814 38.1019 31.2726 37.6431C32.0638 37.1843 32.0638 36.4523 31.2824 36.0033C30.5009 35.5543 29.2311 35.5543 28.4399 36.013C27.6486 36.462 27.6486 37.2039 28.4301 37.6529Z" fill="#969696"/>
<path fill-rule="evenodd" clip-rule="evenodd" d="M28.4301 37.3993C29.2115 37.8483 30.4814 37.8484 31.2726 37.3896C32.0638 36.9308 32.0638 36.1988 31.2824 35.7497C30.5009 35.3007 29.2311 35.3007 28.4399 35.7595C27.6486 36.2183 27.6486 36.9503 28.4301 37.3993Z" fill="#FD8701"/>
<path fill-rule="evenodd" clip-rule="evenodd" d="M28.7036 37.077C29.3288 37.4382 30.3544 37.4382 30.9894 37.077C31.6243 36.7159 31.6243 36.1204 30.9991 35.7593C30.374 35.3981 29.3483 35.3981 28.7134 35.7593C28.0785 36.1204 28.0785 36.7159 28.7036 37.077Z" fill="#FFA601"/>
<path fill-rule="evenodd" clip-rule="evenodd" d="M29.5241 36.8722C29.9051 37.0967 30.5303 37.0967 30.921 36.8722C31.3117 36.6477 31.3117 36.2866 30.921 36.0621C30.54 35.8376 29.9149 35.8376 29.5241 36.0621C29.1432 36.2866 29.1334 36.6477 29.5241 36.8722Z" fill="#FFDA80"/>
<path opacity="0.3" d="M49.8126 24.7442L20.5473 41.6309L20.4594 41.5821L49.7247 24.6954L49.8126 24.7442ZM54.3939 27.3895L25.1285 44.2761L25.2164 44.3249L54.4818 27.4383L54.3939 27.3895ZM59.0631 30.0835L29.7977 46.9702L29.8856 47.019L59.151 30.1323L59.0631 30.0835ZM63.7225 32.7678L34.4571 49.6545L34.545 49.7033L63.8104 32.8166L63.7225 32.7678ZM68.3916 35.4619L39.1263 52.3485L39.2142 52.3973L68.4796 35.5107L68.3916 35.4619ZM73.0608 38.1559L43.7955 55.0426L43.8834 55.0914L73.1487 38.2048L73.0608 38.1559ZM77.73 40.85L48.4646 57.7366L48.5525 57.7854L77.8179 40.8988L77.73 40.85ZM82.3894 43.5441L53.1338 60.4209L53.2217 60.4697L82.4871 43.5831L82.3894 43.5441Z" fill="#83898E"/>
<path opacity="0.5" d="M66.4869 40.9867L70.8728 43.5148L70.9997 43.4465C71.4198 43.2025 72.1036 43.2025 72.5236 43.4465L82.6141 49.2641C82.6336 49.2543 82.6336 52.1729 82.6336 52.1729L77.2904 55.2574V52.3388C77.2709 52.3486 67.1902 46.531 67.1902 46.531C66.7701 46.287 66.7701 45.8965 67.1902 45.6525L67.3172 45.5842L62.9313 43.0561C54.4916 46.9019 42.1642 46.5798 34.3399 42.0702C25.9002 37.1994 25.8514 29.2734 34.2422 24.4027C37.6904 22.4016 42.0274 21.2401 46.5305 20.8789L47.3315 21.3474C42.7796 21.6207 38.3546 22.7628 34.8869 24.7833C26.8575 29.4491 26.8966 37.0432 34.9846 41.709C43.0726 46.3748 56.1815 46.3748 64.2207 41.709C67.6884 39.6885 69.6517 37.1311 70.1109 34.4956L70.9216 34.9641C70.4039 37.092 68.9387 39.1907 66.4869 40.9867Z" fill="white"/>
<path d="M70.2084 17.6968L70.1987 22.1478C70.2084 19.0633 68.1767 15.9788 64.1033 13.6264C56.0153 8.96062 42.8967 8.96062 34.8673 13.6264C30.8721 15.9398 28.8794 18.9852 28.8696 22.0307L28.8794 17.5796C28.8892 14.5342 30.8819 11.4985 34.877 9.17537C42.9162 4.50958 56.0251 4.50958 64.1131 9.17537C68.1767 11.5278 70.2182 14.6123 70.2084 17.6968Z" fill="url(#paint0_linear_389_152415)"/>
<path d="M34.8771 11.85C42.9163 7.18418 56.0252 7.18418 64.1132 11.85C67.8446 14.0072 69.8568 16.7793 70.1597 19.6003C70.5113 16.2815 68.4991 12.8944 64.1132 10.3663C56.0252 5.7005 42.9065 5.7005 34.8771 10.3663C30.5498 12.8749 28.5767 16.2327 28.9283 19.5319C29.2116 16.7403 31.1945 13.9876 34.8771 11.85Z" fill="#217ED2"/>
<path opacity="0.3" d="M64.1132 11.8498C56.0252 7.18402 42.9066 7.18402 34.8771 11.8498C26.8477 16.5156 26.8868 24.1097 34.9748 28.7755C43.0629 33.4413 56.1717 33.4413 64.2109 28.7755C72.2403 24.1097 72.2012 16.5156 64.1132 11.8498Z" fill="#84C7EF"/>
<path d="M71.1169 17.6967L71.1071 22.1478C71.0974 25.3299 69.0167 28.5022 64.8457 30.923C56.4647 35.7937 42.7697 35.7937 34.3203 30.923C30.0711 28.4729 27.9514 25.242 27.9612 22.0306L27.971 17.5796C27.9612 20.8007 30.0809 24.0219 34.33 26.4719C42.7697 31.3427 56.4647 31.3427 64.8555 26.4719C69.0167 24.0512 71.1071 20.8788 71.1169 17.6967Z" fill="url(#paint1_linear_389_152415)"/>
<path d="M64.7578 8.80432C73.1975 13.6751 73.2463 21.6011 64.8555 26.4719C56.4744 31.3426 42.7795 31.3426 34.33 26.4719C25.8903 21.6011 25.8415 13.6751 34.2323 8.80432C42.6134 3.93355 56.3083 3.93355 64.7578 8.80432ZM34.9747 26.1009C43.0627 30.7667 56.1716 30.7667 64.2108 26.1009C72.25 21.4351 72.2011 13.841 64.1229 9.17524C56.0348 4.50945 42.9162 4.50945 34.8868 9.17524C26.8378 13.841 26.8867 21.4351 34.9747 26.1009Z" fill="#EFEAE5"/>
<path d="M66.096 26.638C65.7834 26.4525 65.3438 26.472 64.8554 26.7551C63.8981 27.3115 63.1265 28.6488 63.1265 29.7518C63.1265 30.2984 63.3121 30.6791 63.6246 30.8645L69.2316 34.1052L71.7029 29.8787L66.096 26.638Z" fill="#D2CDC9"/>
<path d="M73.0608 28.6682C72.5235 28.3461 71.7811 28.3852 70.9508 28.8635C69.3196 29.8005 68.0009 32.0944 68.0009 33.9685C68.0009 34.8958 68.3232 35.5498 68.8507 35.8621L89.9401 48.0342L94.1502 40.8305L73.0608 28.6682Z" fill="url(#paint2_linear_389_152415)"/>
<path d="M89.1001 46.1407C89.1001 48.0245 90.4188 48.7859 92.0501 47.8391C93.6814 46.902 95.0001 44.6082 95.0001 42.734C95.0001 41.4944 94.4335 40.7428 93.5739 40.6452C93.1246 40.5866 92.6069 40.7135 92.0501 41.0356C90.4188 41.9727 89.1001 44.2665 89.1001 46.1407Z" fill="#261E22"/>
<path opacity="0.5" d="M89.1001 46.1405C89.8424 42.5289 92.2649 40.6255 93.5739 40.645C91.8937 40.0593 88.7289 43.0755 89.1001 46.1405Z" fill="url(#paint3_radial_389_152415)"/>
<defs>
<linearGradient id="paint0_linear_389_152415" x1="28.8643" y1="13.9168" x2="70.2049" y2="13.9168" gradientUnits="userSpaceOnUse">
<stop stop-color="#E1DDD9"/>
<stop offset="1" stop-color="#D2CDC9"/>
</linearGradient>
<linearGradient id="paint1_linear_389_152415" x1="27.9552" y1="26.0801" x2="71.1142" y2="26.0801" gradientUnits="userSpaceOnUse">
<stop stop-color="#D2CDC9"/>
<stop offset="1" stop-color="#E1DDD9"/>
</linearGradient>
<linearGradient id="paint2_linear_389_152415" x1="82.5573" y1="34.1472" x2="78.3875" y2="41.3749" gradientUnits="userSpaceOnUse">
<stop stop-color="#3F3434"/>
<stop offset="1" stop-color="#30262C"/>
</linearGradient>
<radialGradient id="paint3_radial_389_152415" cx="0" cy="0" r="1" gradientUnits="userSpaceOnUse" gradientTransform="translate(92.7504 40.5757) scale(7.26056 7.2553)">
<stop stop-color="#FFB8F4"/>
<stop offset="0.00738025" stop-color="#F6B1EB"/>
<stop offset="0.0477" stop-color="#C890BF"/>
<stop offset="0.0931" stop-color="#9D7196"/>
<stop offset="0.1419" stop-color="#775672"/>
<stop offset="0.195" stop-color="#573E53"/>
<stop offset="0.2537" stop-color="#3B2B39"/>
<stop offset="0.32" stop-color="#251B24"/>
<stop offset="0.3974" stop-color="#140F14"/>
<stop offset="0.4931" stop-color="#090608"/>
<stop offset="0.6274" stop-color="#020102"/>
<stop offset="1"/>
</radialGradient>
</defs>
</svg>
