<svg width="100" height="79" viewBox="0 0 100 79" fill="none" xmlns="http://www.w3.org/2000/svg">
<path opacity="0.4" d="M74.8865 41.4679L45.1268 41.5021L7 62.4571L8.54549 62.8542H35.9905L49.483 55.4402L50.2377 55.269C51.4885 54.9883 52.7968 55.1732 53.9038 55.7825L57.4045 57.7061C57.4907 57.754 57.5842 57.7746 57.6776 57.7746H58.3102L59.525 54.8583L58.1089 50.696L74.8865 41.4679Z" fill="#ADA6A3"/>
<path opacity="0.4" d="M55.3486 73.7802C55.2695 73.8212 55.1905 73.8486 55.097 73.8486C54.831 73.8623 54.256 73.876 54.1194 73.8007L45.8025 69.2277C45.5797 69.1045 45.5797 68.9059 45.8025 68.7827L71.738 54.5229C72.1117 54.3176 72.7299 54.3176 73.1109 54.5229L81.4278 59.0959C81.6435 59.2123 57.2247 72.7396 55.3486 73.7802Z" fill="#ADA6A3"/>
<path opacity="0.4" d="M88.7815 52.6608C87.0779 52.12 83.8791 51.9626 82.5277 52.7567C80.3496 54.0368 81.7801 55.2417 83.5484 56.2686C87.9261 58.8152 89.371 58.9247 91.8078 57.8568C92.5266 57.5419 92.9579 57.0353 92.9579 56.5424C92.9579 56.0427 91.7934 53.6124 88.7815 52.6608Z" fill="#ADA6A3"/>
<path d="M64.1831 49.2375L54.026 54.8511L58.2743 57.1855L68.4314 51.572L64.1831 49.2375Z" fill="url(#paint0_linear_389_183151)"/>
<path d="M68.4817 51.6404C68.4745 51.6198 68.4601 51.6062 68.4529 51.5925C68.4242 51.5719 58.2743 57.1855 58.2743 57.1855C58.3102 57.2197 58.3246 57.2334 58.3318 57.2539C58.4037 57.4045 58.3965 57.7195 58.3174 57.7674L68.4745 52.1538C68.5464 52.1127 68.5536 51.791 68.4817 51.6404Z" fill="#D2D1CE"/>
<path d="M63.3565 48.3063C63.1696 47.9024 63.1336 47.5053 63.263 47.2384L66.0233 41.4194L55.8663 47.033L53.1059 52.8519C52.9694 53.1189 53.0053 53.516 53.1994 53.9199C53.3 54.1389 53.4366 54.3375 53.5876 54.5086C53.7169 54.6524 53.8679 54.7687 54.026 54.8577L64.1831 49.2442C64.025 49.1552 63.8812 49.0388 63.7446 48.895C63.5937 48.7239 63.4571 48.5254 63.3565 48.3063Z" fill="url(#paint1_linear_389_183151)"/>
<path d="M58.2742 57.1855L54.0259 54.8511C53.6881 54.6662 53.3934 54.3239 53.1993 53.92C53.0124 53.5161 52.9765 53.1191 53.1058 52.8521L55.8662 47.0332L55.8877 46.9305L55.9021 41.269C55.9021 41.1047 55.7871 40.913 55.6361 40.8309C55.4924 40.7556 55.3774 40.8172 55.3774 40.9815L55.363 46.595L52.6098 52.3661C52.4158 52.7836 52.4733 53.3929 52.7536 54.0022C53.0268 54.6115 53.5012 55.1523 54.0116 55.433L58.2599 57.7674C58.4108 57.8427 58.418 57.2608 58.2742 57.1855Z" fill="#B6B5B3"/>
<path d="M66.0162 35.457C65.9946 35.4022 65.9587 35.3543 65.9155 35.3132C65.8796 35.2721 65.8365 35.2379 65.7933 35.2174C65.7215 35.1763 65.6568 35.1763 65.6136 35.1968L55.4565 40.8104C55.4997 40.783 55.5644 40.7899 55.6363 40.8309C55.6794 40.8583 55.7225 40.8857 55.7585 40.9268C55.8016 40.9678 55.8303 41.0226 55.8591 41.0705C55.8878 41.1321 55.9022 41.2006 55.9022 41.2622L55.8878 46.9237L55.8663 47.0264L66.0234 41.4128L66.0449 41.3101L66.0593 35.6487C66.0665 35.5871 66.0449 35.5186 66.0162 35.457Z" fill="#B6B5B3"/>
<path d="M39.5631 58.9243L38.7508 58.4793L38.7365 28.2415L39.5487 28.6864L39.5631 58.9243Z" fill="#B6B5B3"/>
<path d="M39.5487 28.6865L38.7365 28.2415L81.0038 5L81.816 5.45182L39.5487 28.6865Z" fill="#FFFEFB"/>
<path d="M81.816 5.4519L81.8304 35.6898L39.5631 58.9244L39.5487 28.6865L81.816 5.4519Z" fill="#D2D1CE"/>
<path d="M39.7356 28.8302L81.6219 5.79407L81.6147 31.9929L39.7284 55.0222L39.7356 28.8302Z" fill="#017CA8"/>
<path d="M63.457 44.172L61.969 44.9935C61.7677 45.103 61.5952 45.0414 61.5952 44.8428C61.5952 44.6512 61.7605 44.3979 61.969 44.2883L63.457 43.4668C63.6583 43.3573 63.8308 43.4189 63.8308 43.6174C63.8236 43.8091 63.6583 44.0556 63.457 44.172Z" fill="#2280D6"/>
<path d="M46.1692 68.5426V68.9671C46.1692 69.0492 46.2267 69.1314 46.3345 69.193L54.6514 73.766C54.8742 73.8892 55.2408 73.8892 55.4637 73.766L81.3991 59.4925C81.5142 59.4309 81.5645 59.3487 81.5645 59.2666V58.8558L46.1692 68.5426Z" fill="url(#paint2_linear_389_183151)"/>
<path d="M81.3991 59.0816L55.4636 73.3482C55.2408 73.4714 54.8742 73.4714 54.6514 73.3482L46.3345 68.7752C46.1116 68.652 46.1116 68.4535 46.3345 68.3303L72.2699 54.0636C72.4928 53.9404 72.8594 53.9404 73.0822 54.0636L81.3991 58.6366C81.6219 58.7598 81.6219 58.9584 81.3991 59.0816Z" fill="url(#paint3_linear_389_183151)"/>
<path d="M68.5895 56.966C68.5895 56.9524 68.5895 56.9455 68.5895 56.9318C68.5895 56.9181 68.5895 56.9113 68.5895 56.8976C68.5823 56.8565 68.6038 56.8086 68.6614 56.7744L69.7252 56.1856C69.8259 56.1309 69.9984 56.1309 70.099 56.1856L70.9976 56.6785C71.0551 56.7127 71.0766 56.7538 71.0694 56.8017C71.0694 56.8154 71.0694 56.8223 71.0694 56.836C71.0694 56.8497 71.0694 56.8565 71.0694 56.8702C71.0766 56.9113 71.0551 56.9592 70.9976 56.9934L69.9337 57.5822C69.8331 57.6369 69.6605 57.6369 69.5599 57.5822L68.6614 57.0893C68.6038 57.055 68.5823 57.014 68.5895 56.966ZM70.3794 56.1445L71.2779 56.6374C71.3785 56.6922 71.5511 56.6922 71.6517 56.6374L72.7156 56.0487C72.7731 56.0145 72.7946 55.9734 72.7874 55.9255C72.7874 55.9118 72.7874 55.9049 72.7874 55.8913C72.7874 55.8776 72.7874 55.8707 72.7874 55.857C72.7946 55.816 72.7731 55.768 72.7156 55.7338L71.817 55.2409C71.7164 55.1861 71.5439 55.1861 71.4432 55.2409L70.3794 55.8296C70.3219 55.8639 70.3003 55.9049 70.3075 55.9529C70.3075 55.9666 70.3075 55.9734 70.3075 55.9871C70.3075 56.0008 70.3075 56.0076 70.3075 56.0213C70.3003 56.0624 70.3219 56.1103 70.3794 56.1445ZM66.9433 58.034L67.8419 58.5269C67.9425 58.5817 68.115 58.5817 68.2157 58.5269L69.2796 57.9381C69.3371 57.9039 69.3586 57.8628 69.3514 57.8149C69.3514 57.8012 69.3514 57.7944 69.3514 57.7807C69.3514 57.767 69.3514 57.7602 69.3514 57.7465C69.3586 57.7054 69.3371 57.6575 69.2796 57.6232L68.381 57.1303C68.2804 57.0756 68.1079 57.0756 68.0072 57.1303L66.9433 57.7191C66.8858 57.7533 66.8643 57.7944 66.8715 57.8423C66.8715 57.856 66.8715 57.8628 66.8715 57.8765C66.8715 57.8902 66.8715 57.8971 66.8715 57.9108C66.8571 57.9587 66.8787 57.9998 66.9433 58.034ZM53.0771 69.0831L53.9756 69.576C54.0763 69.6308 54.2488 69.6308 54.3494 69.576L55.4133 68.9873C55.4708 68.953 55.4924 68.912 55.4852 68.864C55.4852 68.8503 55.4852 68.8435 55.4852 68.8298C55.4852 68.8161 55.4852 68.8093 55.4852 68.7956C55.4924 68.7545 55.4708 68.7066 55.4133 68.6724L54.5147 68.1863C54.4141 68.1315 54.2416 68.1315 54.141 68.1863L53.0771 68.775C53.0196 68.8093 52.998 68.8503 53.0052 68.8983C53.0052 68.912 53.0052 68.9188 53.0052 68.9325C53.0052 68.9462 53.0052 68.953 53.0052 68.9667C52.998 69.0078 53.0196 69.0489 53.0771 69.0831ZM56.8294 63.5791L57.7279 64.072C57.8286 64.1267 58.0011 64.1267 58.1017 64.072L59.1656 63.4832C59.2231 63.449 59.2447 63.4079 59.2375 63.36C59.2375 63.3463 59.2375 63.3395 59.2375 63.3258C59.2375 63.3121 59.2375 63.3053 59.2375 63.2916C59.2447 63.2505 59.2231 63.2026 59.1656 63.1683L58.267 62.6754C58.1664 62.6207 57.9939 62.6207 57.8933 62.6754L56.8294 63.2642C56.7719 63.2984 56.7503 63.3395 56.7575 63.3874C56.7575 63.4011 56.7575 63.4079 56.7575 63.4216C56.7575 63.4353 56.7575 63.4422 56.7575 63.4559C56.7503 63.5038 56.7719 63.5517 56.8294 63.5791ZM60.2726 61.6896L61.1711 62.1825C61.2718 62.2373 61.4443 62.2373 61.5449 62.1825L62.6088 61.5938C62.6663 61.5596 62.6879 61.5185 62.6807 61.4706C62.6807 61.4569 62.6807 61.45 62.6807 61.4364C62.6807 61.4227 62.6807 61.4158 62.6807 61.4021C62.6879 61.361 62.6663 61.3131 62.6088 61.2789L61.7103 60.786C61.6096 60.7312 61.4371 60.7312 61.3365 60.786L60.2726 61.3747C60.2151 61.409 60.1935 61.45 60.2007 61.498C60.2007 61.5117 60.2007 61.5185 60.2007 61.5322C60.2007 61.5459 60.2007 61.5527 60.2007 61.5664C60.1935 61.6143 60.2079 61.6554 60.2726 61.6896ZM63.7086 59.8002L64.6071 60.2931C64.7078 60.3479 64.8803 60.3479 64.9809 60.2931L66.5983 59.4031C66.6558 59.3689 66.6774 59.3278 66.6702 59.2799C66.6702 59.2662 66.6702 59.2594 66.6702 59.2457C66.6702 59.232 66.6702 59.2252 66.6702 59.2115C66.6774 59.1704 66.6558 59.1225 66.5983 59.0882L65.6998 58.5953C65.5991 58.5406 65.4266 58.5406 65.326 58.5953L63.7086 59.4853C63.6511 59.5195 63.6295 59.5606 63.6367 59.6085C63.6367 59.6222 63.6367 59.6291 63.6367 59.6428C63.6367 59.6564 63.6367 59.6633 63.6367 59.677C63.6295 59.7249 63.6511 59.766 63.7086 59.8002ZM61.9906 60.7449L62.8891 61.2378C62.9898 61.2926 63.1623 61.2926 63.2629 61.2378L64.3268 60.6491C64.3843 60.6149 64.4059 60.5738 64.3987 60.5259C64.3987 60.5122 64.3987 60.5053 64.3987 60.4916C64.3987 60.4779 64.3987 60.4711 64.3987 60.4574C64.4059 60.4163 64.3843 60.3684 64.3268 60.3342L63.4283 59.8413C63.3276 59.7865 63.1551 59.7865 63.0545 59.8413L61.9906 60.43C61.9331 60.4642 61.9115 60.5053 61.9187 60.5532C61.9187 60.5669 61.9187 60.5738 61.9187 60.5875C61.9187 60.6012 61.9187 60.608 61.9187 60.6217C61.9115 60.6696 61.9331 60.7107 61.9906 60.7449ZM58.5546 62.6344L59.4531 63.1273C59.5538 63.182 59.7263 63.182 59.8269 63.1273L60.8908 62.5385C60.9483 62.5043 60.9699 62.4632 60.9627 62.4153C60.9627 62.4016 60.9627 62.3948 60.9627 62.3811C60.9627 62.3674 60.9627 62.3605 60.9627 62.3468C60.9699 62.3058 60.9483 62.2578 60.8908 62.2236L59.9922 61.7307C59.8916 61.676 59.7191 61.676 59.6184 61.7307L58.5546 62.3195C58.4971 62.3537 58.4755 62.3948 58.4827 62.4427C58.4827 62.4564 58.4827 62.4632 58.4827 62.4769C58.4827 62.4906 58.4827 62.4974 58.4827 62.5111C58.4683 62.5591 58.4899 62.607 58.5546 62.6344ZM65.8651 60.3479L66.7636 60.8408C66.8643 60.8955 67.0368 60.8955 67.1374 60.8408L68.2013 60.252C68.2588 60.2178 68.2804 60.1767 68.2732 60.1288C68.2732 60.1151 68.2732 60.1083 68.2732 60.0946C68.2732 60.0809 68.2732 60.074 68.2732 60.0603C68.2804 60.0193 68.2588 59.9713 68.2013 59.9371L67.3028 59.4442C67.2021 59.3895 67.0296 59.3895 66.929 59.4442L65.8651 60.033C65.8076 60.0672 65.786 60.1083 65.7932 60.1562C65.7932 60.1699 65.7932 60.1767 65.7932 60.1904C65.7932 60.2041 65.7932 60.211 65.7932 60.2246C65.786 60.2726 65.8076 60.3205 65.8651 60.3479ZM52.1067 67.9125L53.0052 68.4054C53.1058 68.4601 53.2784 68.4601 53.379 68.4054L54.4429 67.8235C54.5004 67.7892 54.5219 67.7482 54.5147 67.7003C54.5147 67.6866 54.5147 67.6797 54.5147 67.666C54.5147 67.6523 54.5147 67.6455 54.5147 67.6318C54.5219 67.5907 54.5004 67.5428 54.4429 67.5086L53.5443 67.0157C53.4437 66.9609 53.2712 66.9609 53.1705 67.0157L52.1067 67.6044C52.0492 67.6386 52.0276 67.6797 52.0348 67.7276C52.0348 67.7413 52.0348 67.7482 52.0348 67.7619C52.0348 67.7756 52.0348 67.7824 52.0348 67.7961C52.0276 67.8372 52.0492 67.8851 52.1067 67.9125ZM64.1471 61.2994L65.0456 61.7923C65.1463 61.8471 65.3188 61.8471 65.4194 61.7923L66.4833 61.2036C66.5408 61.1694 66.5624 61.1283 66.5552 61.0804C66.5552 61.0667 66.5552 61.0598 66.5552 61.0461C66.5552 61.0325 66.5552 61.0256 66.5552 61.0119C66.5624 60.9708 66.5408 60.9229 66.4833 60.8887L65.5848 60.3958C65.4841 60.341 65.3116 60.341 65.211 60.3958L64.1471 60.9845C64.0896 61.0188 64.068 61.0598 64.0752 61.1078C64.0752 61.1214 64.0752 61.1283 64.0752 61.142C64.0752 61.1557 64.0752 61.1625 64.0752 61.1762C64.068 61.2173 64.0896 61.2652 64.1471 61.2994ZM62.4291 62.2442L63.3276 62.737C63.4283 62.7918 63.6008 62.7918 63.7014 62.737L64.7653 62.1483C64.8228 62.1141 64.8444 62.073 64.8372 62.0251C64.8372 62.0114 64.8372 62.0046 64.8372 61.9909C64.8372 61.9772 64.8372 61.9703 64.8372 61.9566C64.8444 61.9156 64.8228 61.8676 64.7653 61.8334L63.8667 61.3405C63.7661 61.2857 63.5936 61.2857 63.493 61.3405L62.4291 61.9292C62.3716 61.9635 62.35 62.0045 62.3572 62.0525C62.3572 62.0662 62.3572 62.073 62.3572 62.0867C62.3572 62.1004 62.3572 62.1072 62.3572 62.1209C62.3428 62.162 62.3644 62.2099 62.4291 62.2442ZM60.7111 63.1889L61.6096 63.6818C61.7103 63.7365 61.8828 63.7365 61.9834 63.6818L63.0473 63.093C63.1048 63.0588 63.1264 63.0177 63.1192 62.9698C63.1192 62.9561 63.1192 62.9493 63.1192 62.9356C63.1192 62.9219 63.1192 62.915 63.1192 62.9014C63.1264 62.8603 63.1048 62.8124 63.0473 62.7781L62.1487 62.2852C62.0481 62.2305 61.8756 62.2305 61.7749 62.2852L60.7111 62.874C60.6536 62.9082 60.632 62.9493 60.6392 62.9972C60.6392 63.0109 60.6392 63.0177 60.6392 63.0314C60.6392 63.0451 60.6392 63.052 60.6392 63.0656C60.6248 63.1067 60.6464 63.1546 60.7111 63.1889ZM53.8319 66.9678L54.7304 67.4606C54.831 67.5154 55.0035 67.5154 55.1042 67.4606L56.1681 66.8719C56.2256 66.8377 56.2471 66.7966 56.2399 66.7487C56.2399 66.735 56.2399 66.7282 56.2399 66.7145C56.2399 66.7008 56.2399 66.6939 56.2399 66.6802C56.2471 66.6392 56.2256 66.5912 56.1681 66.557L55.2695 66.0641C55.1689 66.0093 54.9964 66.0093 54.8957 66.0641L53.8319 66.6528C53.7743 66.6871 53.7528 66.7281 53.76 66.7761C53.76 66.7898 53.76 66.7966 53.76 66.8103C53.76 66.824 53.76 66.8308 53.76 66.8445C53.7456 66.8924 53.7672 66.9335 53.8319 66.9678ZM55.5499 66.023L56.4484 66.5159C56.549 66.5707 56.7216 66.5707 56.8222 66.5159L57.8861 65.9272C57.9436 65.893 57.9651 65.8519 57.9579 65.804C57.9579 65.7903 57.9579 65.7834 57.9579 65.7697C57.9579 65.756 57.9579 65.7492 57.9579 65.7355C57.9651 65.6944 57.9436 65.6465 57.8861 65.6123C56.5706 64.8866 57.0163 64.9003 55.5499 65.7081C55.4924 65.7424 55.4708 65.7834 55.478 65.8314C55.478 65.845 55.478 65.8519 55.478 65.8656C55.478 65.8793 55.478 65.8861 55.478 65.8998C55.4708 65.9477 55.4852 65.9888 55.5499 66.023ZM57.2679 65.0783L58.1664 65.5712C58.267 65.626 58.4396 65.626 58.5402 65.5712L59.6041 64.9825C59.6616 64.9482 59.6831 64.9072 59.676 64.8593C59.676 64.8456 59.676 64.8387 59.676 64.825C59.676 64.8113 59.676 64.8045 59.676 64.7908C59.6831 64.7497 59.6616 64.7018 59.6041 64.6676L58.7055 64.1747C58.6049 64.1199 58.4324 64.1199 58.3317 64.1747L57.2679 64.7634C57.2104 64.7976 57.1888 64.8387 57.196 64.8866C57.196 64.9003 57.196 64.9072 57.196 64.9209C57.196 64.9346 57.196 64.9414 57.196 64.9551C57.1888 65.003 57.2104 65.0441 57.2679 65.0783ZM58.9859 64.1336C59.8629 64.6196 60.021 64.7566 60.2582 64.6265L61.3221 64.0378C61.3796 64.0035 61.4012 63.9624 61.394 63.9145C61.394 63.9008 61.394 63.894 61.394 63.8803C61.394 63.8666 61.394 63.8598 61.394 63.8461C61.4012 63.805 61.3796 63.7571 61.3221 63.7228L60.4235 63.2299C60.3229 63.1752 60.1504 63.1752 60.0498 63.2299L58.9859 63.8187C58.9284 63.8529 58.9068 63.894 58.914 63.9419C58.914 63.9556 58.914 63.9625 58.914 63.9761C58.914 63.9898 58.914 63.9967 58.914 64.0104C58.9068 64.0583 58.9284 64.0994 58.9859 64.1336ZM55.9237 70.3633C55.9237 70.3496 55.9237 70.3427 55.9237 70.329C55.9237 70.3153 55.9237 70.3085 55.9237 70.2948C55.9308 70.2537 55.9093 70.2058 55.8518 70.1716L54.9532 69.6787C54.8526 69.6239 54.6801 69.6239 54.5794 69.6787L52.9621 70.5686C52.9046 70.6029 52.883 70.6439 52.8902 70.6919C52.8902 70.7056 52.8902 70.7124 52.8902 70.7261C52.8902 70.7398 52.8902 70.7466 52.8902 70.7603C52.883 70.8014 52.9046 70.8493 52.9621 70.8835L53.8606 71.3764C53.9612 71.4312 54.1338 71.4312 54.2344 71.3764L55.8518 70.4865C55.9093 70.4523 55.9308 70.4112 55.9237 70.3633ZM53.7672 69.8156C53.7672 69.8019 53.7672 69.7951 53.7672 69.7814C53.7672 69.7677 53.7672 69.7608 53.7672 69.7471C53.7743 69.7061 53.7528 69.6582 53.6953 69.6239L52.7967 69.131C52.6961 69.0763 52.5236 69.0763 52.4229 69.131L51.3591 69.7198C51.3016 69.754 51.28 69.7951 51.2872 69.843C51.2872 69.8567 51.2872 69.8635 51.2872 69.8772C51.2872 69.8909 51.2872 69.8978 51.2872 69.9114C51.28 69.9525 51.3016 70.0004 51.3591 70.0347L52.2576 70.5276C52.3582 70.5823 52.5308 70.5823 52.6314 70.5276L53.6953 69.9388C53.7528 69.9046 53.7743 69.8567 53.7672 69.8156ZM55.1114 64.5306C56.4053 65.2426 55.9524 65.2563 57.4476 64.4348C57.5051 64.4006 57.5266 64.3595 57.5195 64.3116C57.5195 64.2979 57.5195 64.291 57.5195 64.2774C57.5195 64.2637 57.5195 64.2568 57.5195 64.2431C57.5266 64.2021 57.5051 64.1541 57.4476 64.1199L56.549 63.627C56.4484 63.5722 56.2759 63.5722 56.1752 63.627L55.1114 64.2157C55.0539 64.25 55.0323 64.291 55.0395 64.339C55.0395 64.3527 55.0395 64.3595 55.0395 64.3732C55.0395 64.3869 55.0395 64.3937 55.0395 64.4074C55.0323 64.4485 55.0539 64.4964 55.1114 64.5306ZM74.0526 60.4095C74.0526 60.3958 74.0526 60.3889 74.0526 60.3753C74.0526 60.3616 74.0526 60.3547 74.0526 60.341C74.0598 60.2999 74.0382 60.252 73.9807 60.2178L73.0822 59.7249C72.9815 59.6701 72.809 59.6701 72.7084 59.7249L71.6445 60.3136C71.587 60.3479 71.5654 60.3889 71.5726 60.4369C71.5726 60.4506 71.5726 60.4574 71.5726 60.4711C71.5726 60.4848 71.5726 60.4916 71.5726 60.5053C71.5654 60.5464 71.587 60.5943 71.6445 60.6285L72.543 61.1214C72.6437 61.1762 72.8162 61.1762 72.9168 61.1214L73.9807 60.5327C74.0454 60.4985 74.067 60.4506 74.0526 60.4095ZM52.7967 68.645C52.7967 68.6313 52.7967 68.6244 52.7967 68.6107C52.7967 68.5971 52.7967 68.5902 52.7967 68.5765C52.8039 68.5354 52.7824 68.4875 52.7249 68.4533L51.8263 67.9604C51.7257 67.9056 51.5532 67.9056 51.4525 67.9604L49.8351 68.8503C49.7776 68.8846 49.7561 68.9256 49.7633 68.9736C49.7633 68.9873 49.7633 68.9941 49.7633 69.0078C49.7633 69.0215 49.7633 69.0283 49.7633 69.042C49.7561 69.0831 49.7776 69.131 49.8351 69.1653L50.7337 69.6581C50.8343 69.7129 51.0068 69.7129 51.1075 69.6581L52.7249 68.7682C52.7824 68.734 52.8039 68.6929 52.7967 68.645ZM53.3934 65.4754L54.2919 65.9683C54.3925 66.023 54.5651 66.023 54.6657 65.9683L55.7296 65.3795C55.7871 65.3453 55.8086 65.3042 55.8015 65.2563C55.8015 65.2426 55.8015 65.2358 55.8015 65.2221C55.8015 65.2084 55.8015 65.2015 55.8015 65.1878C55.8086 65.1468 55.7871 65.0988 55.7296 65.0646L54.831 64.5717C54.7304 64.517 54.5579 64.517 54.4572 64.5717L53.3934 65.1605C53.3359 65.1947 53.3143 65.2358 53.3215 65.2837C53.3215 65.2974 53.3215 65.3042 53.3215 65.3179C53.3215 65.3316 53.3215 65.3385 53.3215 65.3521C53.3143 65.3932 53.3359 65.4411 53.3934 65.4754ZM51.6754 66.4201L52.5739 66.913C52.6745 66.9678 52.8471 66.9678 52.9477 66.913L54.0116 66.3242C54.0691 66.29 54.0906 66.2489 54.0834 66.201C54.0834 66.1873 54.0834 66.1805 54.0834 66.1668C54.0834 66.1531 54.0834 66.1463 54.0834 66.1326C54.0906 66.0915 54.0691 66.0436 54.0116 66.0093L53.113 65.5164C53.0124 65.4617 52.8399 65.4617 52.7392 65.5164L51.6754 66.1052C51.6179 66.1394 51.5963 66.1805 51.6035 66.2284C51.6035 66.2421 51.6035 66.2489 51.6035 66.2626C51.6035 66.2763 51.6035 66.2832 51.6035 66.2969C51.5891 66.3448 51.6107 66.3859 51.6754 66.4201ZM50.6402 68.0973C50.6402 68.0836 50.6402 68.0768 50.6402 68.0631C50.6402 68.0494 50.6402 68.0425 50.6402 68.0289C50.6474 67.9878 50.6259 67.9399 50.5684 67.9056L49.6698 67.4127C49.5692 67.358 49.3967 67.358 49.296 67.4127L48.2322 68.0015C48.1746 68.0357 48.1531 68.0768 48.1603 68.1247C48.1603 68.1384 48.1603 68.1452 48.1603 68.1589C48.1603 68.1726 48.1603 68.1795 48.1603 68.1931C48.1531 68.2342 48.1746 68.2821 48.2322 68.3164L49.1307 68.8093C49.2313 68.864 49.4039 68.864 49.5045 68.8093L50.5684 68.2205C50.6259 68.1863 50.6474 68.1384 50.6402 68.0973ZM49.9502 67.3648L50.8487 67.8577C50.9493 67.9125 51.1219 67.9125 51.2225 67.8577L52.2864 67.269C52.3439 67.2347 52.3654 67.1937 52.3582 67.1457C52.3582 67.1321 52.3582 67.1252 52.3582 67.1115C52.3582 67.0978 52.3582 67.091 52.3582 67.0773C52.3654 67.0362 52.3439 66.9883 52.2864 66.9541L51.3878 66.4612C51.2872 66.4064 51.1147 66.4064 51.014 66.4612L49.9502 67.0499C49.8927 67.0841 49.8711 67.1252 49.8783 67.1731C49.8783 67.1868 49.8783 67.1937 49.8783 67.2074C49.8783 67.221 49.8783 67.2279 49.8783 67.2416C49.8711 67.2895 49.8927 67.3306 49.9502 67.3648ZM79.07 59.3142C79.0772 59.2731 79.0557 59.2252 78.9982 59.1909L78.0996 58.698C77.999 58.6433 77.8265 58.6433 77.7258 58.698L76.662 59.2868C76.6045 59.321 76.5829 59.3621 76.5901 59.41C76.5901 59.4237 76.5901 59.4305 76.5901 59.4442C76.5901 59.4579 76.5901 59.4648 76.5901 59.4785C76.5829 59.5195 76.6045 59.5674 76.662 59.6017L77.5605 60.0946C77.6611 60.1493 77.8337 60.1493 77.9343 60.0946L78.9982 59.5058C79.0557 59.4716 79.0772 59.4305 79.07 59.3826C79.07 59.3689 79.07 59.3621 79.07 59.3484C79.07 59.3347 79.07 59.3278 79.07 59.3142ZM72.8593 57.7328L71.6805 57.0824C71.5511 57.014 71.3426 57.014 71.2132 57.0824L68.5176 58.568C68.4457 58.609 68.417 58.6638 68.4241 58.7117C68.4241 58.7254 68.4241 58.7323 68.4241 58.746C68.4241 58.7596 68.4241 58.7665 68.4241 58.7802C68.417 58.8349 68.4385 58.8829 68.5176 58.9239L70.8682 60.2178C70.9976 60.2863 71.206 60.2863 71.3354 60.2178L75.8137 57.7533C75.8856 57.7122 75.9144 57.6575 75.9072 57.6095C75.9072 57.5959 75.9072 57.589 75.9072 57.5753C75.9072 57.5616 75.9072 57.5548 75.9072 57.5411C75.9144 57.4863 75.8928 57.4384 75.8137 57.3973L74.9368 56.9181C74.8505 56.8702 74.7139 56.8702 74.6277 56.9181L73.1253 57.7328C73.0462 57.7738 72.9312 57.767 72.8593 57.7328ZM71.3282 61.6691L70.4297 61.1762C70.329 61.1214 70.1565 61.1214 70.0559 61.1762L68.992 61.7649C68.9345 61.7992 68.9129 61.8403 68.9201 61.8882C68.9201 61.9019 68.9201 61.9087 68.9201 61.9224C68.9201 61.9361 68.9201 61.9429 68.9201 61.9566C68.9129 61.9977 68.9345 62.0456 68.992 62.0799L69.8906 62.5728C69.9912 62.6275 70.1637 62.6275 70.2644 62.5728L71.3282 61.984C71.3857 61.9498 71.4073 61.9087 71.4001 61.8608C71.4001 61.8471 71.4001 61.8403 71.4001 61.8266C71.4001 61.8129 71.4001 61.806 71.4001 61.7923C71.4073 61.7444 71.3857 61.6965 71.3282 61.6691ZM75.7059 59.2731L74.8074 58.7802C74.7067 58.7254 74.5342 58.7254 74.4336 58.7802L73.3697 59.3689C73.3122 59.4031 73.2906 59.4442 73.2978 59.4921C73.2978 59.5058 73.2978 59.5127 73.2978 59.5264C73.2978 59.5401 73.2978 59.5469 73.2978 59.5606C73.2906 59.6017 73.3122 59.6496 73.3697 59.6838L74.2682 60.1767C74.3689 60.2315 74.5414 60.2315 74.642 60.1767L75.7059 59.588C75.7634 59.5538 75.785 59.5127 75.7778 59.4648C75.7778 59.4511 75.7778 59.4442 75.7778 59.4305C75.7778 59.4168 75.7778 59.41 75.7778 59.3963C75.785 59.3484 75.7634 59.3073 75.7059 59.2731ZM67.885 63.5585L66.9865 63.0656C66.8858 63.0109 66.7133 63.0109 66.6127 63.0656L65.5488 63.6544C65.4913 63.6886 65.4697 63.7297 65.4769 63.7776C65.4769 63.7913 65.4769 63.7982 65.4769 63.8118C65.4769 63.8255 65.4769 63.8324 65.4769 63.8461C65.4697 63.8871 65.4913 63.9351 65.5488 63.9693L66.4474 64.4622C66.548 64.517 66.7205 64.517 66.8211 64.4622L67.885 63.8735C67.9425 63.8392 67.9641 63.7981 67.9569 63.7502C67.9569 63.7365 67.9569 63.7297 67.9569 63.716C67.9569 63.7023 67.9569 63.6955 67.9569 63.6818C67.9713 63.6339 67.9497 63.5928 67.885 63.5585ZM75.0158 58.5406C75.0158 58.5543 75.0158 58.5611 75.0158 58.5748C75.0158 58.5885 75.0158 58.5953 75.0158 58.609C75.0086 58.6501 75.0302 58.698 75.0877 58.7323L75.9863 59.2252C76.0869 59.2799 76.2594 59.2799 76.36 59.2252L77.4239 58.6364C77.4814 58.6022 77.503 58.5611 77.4958 58.5132C77.4958 58.4995 77.4958 58.4927 77.4958 58.479C77.4958 58.4653 77.4958 58.4584 77.4958 58.4447C77.503 58.4037 77.4814 58.3557 77.4239 58.3215L76.5254 57.8286C76.4247 57.7738 76.2522 57.7738 76.1516 57.8286L75.0877 58.4174C75.0302 58.4516 75.0086 58.4995 75.0158 58.5406ZM61.0058 67.3374L60.1073 66.8445C60.0066 66.7898 59.8341 66.7898 59.7335 66.8445L58.6696 67.4333C58.6121 67.4675 58.5905 67.5086 58.5977 67.5565C58.5977 67.5702 58.5977 67.577 58.5977 67.5907C58.5977 67.6044 58.5977 67.6113 58.5977 67.625C58.5905 67.666 58.6121 67.7139 58.6696 67.7482L59.5681 68.2411C59.6688 68.2958 59.8413 68.2958 59.9419 68.2411L61.0058 67.6523C61.0633 67.6181 61.0849 67.577 61.0777 67.5291C61.0777 67.5154 61.0777 67.5086 61.0777 67.4949C61.0777 67.4812 61.0777 67.4743 61.0777 67.4606C61.0921 67.4196 61.0705 67.3717 61.0058 67.3374ZM64.449 65.448L63.5505 64.9551C63.4498 64.9003 63.2773 64.9003 63.1767 64.9551L62.1128 65.5438C62.0553 65.5781 62.0337 65.6191 62.0409 65.6671C62.0409 65.6807 62.0409 65.6876 62.0409 65.7013C62.0409 65.715 62.0409 65.7218 62.0409 65.7355C62.0337 65.7766 62.0553 65.8245 62.1128 65.8587L63.0113 66.3516C63.112 66.4064 63.2845 66.4064 63.3851 66.3516L64.449 65.7629C64.5065 65.7287 64.5281 65.6876 64.5209 65.6397C64.5209 65.626 64.5209 65.6191 64.5209 65.6054C64.5209 65.5917 64.5209 65.5849 64.5209 65.5712C64.5281 65.5233 64.5065 65.4822 64.449 65.448ZM62.731 66.3927L61.8325 65.8998C61.7318 65.845 61.5593 65.845 61.4587 65.8998L60.3948 66.4885C60.3373 66.5228 60.3157 66.5639 60.3229 66.6118C60.3229 66.6255 60.3229 66.6323 60.3229 66.646C60.3229 66.6597 60.3229 66.6665 60.3229 66.6802C60.3157 66.7213 60.3373 66.7692 60.3948 66.8035L61.2933 67.2964C61.394 67.3511 61.5665 67.3511 61.6671 67.2964L62.731 66.7076C62.7885 66.6734 62.8101 66.6323 62.8029 66.5844C62.8029 66.5707 62.8029 66.5639 62.8029 66.5502C62.8029 66.5365 62.8029 66.5296 62.8029 66.5159C62.8101 66.468 62.7885 66.4269 62.731 66.3927ZM59.2878 68.2821L58.3892 67.7892C58.2886 67.7345 58.1161 67.7345 58.0155 67.7892L56.9516 68.378C56.8941 68.4122 56.8725 68.4533 56.8797 68.5012C56.8797 68.5149 56.8797 68.5217 56.8797 68.5354C56.8797 68.5491 56.8797 68.556 56.8797 68.5697C56.8725 68.6107 56.8941 68.6587 56.9516 68.6929L57.8501 69.1858C57.9508 69.2406 58.1233 69.2406 58.2239 69.1858L59.2878 68.5971C59.3453 68.5628 59.3669 68.5217 59.3597 68.4738C59.3597 68.4601 59.3597 68.4533 59.3597 68.4396C59.3597 68.4259 59.3597 68.4191 59.3597 68.4054C59.3669 68.3643 59.3525 68.3164 59.2878 68.2821ZM57.5698 69.2269L56.6712 68.734C56.5706 68.6792 56.3981 68.6792 56.2974 68.734L55.2336 69.3227C55.1761 69.3569 55.1545 69.398 55.1617 69.4459C55.1617 69.4596 55.1617 69.4665 55.1617 69.4802C55.1617 69.4939 55.1617 69.5007 55.1617 69.5144C55.1545 69.5555 55.1761 69.6034 55.2336 69.6376L56.1321 70.1305C56.2328 70.1853 56.4053 70.1853 56.5059 70.1305L57.5698 69.5418C57.6273 69.5075 57.6488 69.4665 57.6417 69.4185C57.6417 69.4049 57.6417 69.398 57.6417 69.3843C57.6417 69.3706 57.6417 69.3638 57.6417 69.3501C57.6488 69.309 57.6273 69.2611 57.5698 69.2269ZM66.167 64.5033L65.2685 64.0104C65.1678 63.9556 64.9953 63.9556 64.8947 64.0104L63.8308 64.5991C63.7733 64.6333 63.7517 64.6744 63.7589 64.7223C63.7589 64.736 63.7589 64.7429 63.7589 64.7566C63.7589 64.7703 63.7589 64.7771 63.7589 64.7908C63.7517 64.8319 63.7733 64.8798 63.8308 64.914L64.7293 65.4069C64.83 65.4617 65.0025 65.4617 65.1031 65.4069L66.167 64.8182C66.2245 64.7839 66.2461 64.7429 66.2389 64.6949C66.2389 64.6813 66.2389 64.6744 66.2389 64.6607C66.2389 64.647 66.2389 64.6402 66.2389 64.6265C66.2461 64.5786 66.2245 64.5375 66.167 64.5033ZM69.6102 62.6138L68.7117 62.1209C68.611 62.0662 68.4385 62.0662 68.3379 62.1209L67.274 62.7097C67.2165 62.7439 67.1949 62.785 67.2021 62.8329C67.2021 62.8466 67.2021 62.8534 67.2021 62.8671C67.2021 62.8808 67.2021 62.8877 67.2021 62.9014C67.1949 62.9424 67.2165 62.9903 67.274 63.0246L68.1726 63.5175C68.2732 63.5722 68.4457 63.5722 68.5463 63.5175L69.6102 62.9287C69.6677 62.8945 69.6893 62.8534 69.6821 62.8055C69.6821 62.7918 69.6821 62.785 69.6821 62.7713C69.6821 62.7576 69.6821 62.7507 69.6821 62.737C69.6893 62.6891 69.6677 62.6412 69.6102 62.6138ZM60.251 69.4459L59.3525 68.953C59.2518 68.8983 59.0793 68.8983 58.9787 68.953L57.9148 69.5418C57.8573 69.576 57.8358 69.6171 57.8429 69.665C57.8429 69.6787 57.8429 69.6855 57.8429 69.6992C57.8429 69.7129 57.8429 69.7198 57.8429 69.7335C57.8358 69.7745 57.8573 69.8224 57.9148 69.8567L58.8134 70.3496C58.914 70.4043 59.0865 70.4043 59.1872 70.3496L60.251 69.7608C60.3085 69.7266 60.3301 69.6855 60.3229 69.6376C60.3229 69.6239 60.3229 69.6171 60.3229 69.6034C60.3229 69.5897 60.3229 69.5828 60.3229 69.5692C60.3301 69.5281 60.3085 69.4802 60.251 69.4459ZM61.969 68.5012L61.0705 68.0083C60.9699 67.9535 60.7973 67.9535 60.6967 68.0083L59.6328 68.5971C59.5753 68.6313 59.5538 68.6724 59.5609 68.7203C59.5609 68.734 59.5609 68.7408 59.5609 68.7545C59.5609 68.7682 59.5609 68.775 59.5609 68.7887C59.5538 68.8298 59.5753 68.8777 59.6328 68.912L60.5314 69.4049C60.632 69.4596 60.8045 69.4596 60.9052 69.4049L61.969 68.8161C62.0265 68.7819 62.0481 68.7408 62.0409 68.6929C62.0409 68.6792 62.0409 68.6724 62.0409 68.6587C62.0409 68.645 62.0409 68.6381 62.0409 68.6244C62.0553 68.5834 62.0337 68.5354 61.969 68.5012ZM58.533 70.3975L57.6345 69.9046C57.5338 69.8498 57.3613 69.8498 57.2607 69.9046L56.1968 70.4933C56.1393 70.5276 56.1177 70.5686 56.1249 70.6166C56.1249 70.6303 56.1249 70.6371 56.1249 70.6508C56.1249 70.6645 56.1249 70.6713 56.1249 70.685C56.1177 70.7261 56.1393 70.774 56.1968 70.8082L57.0954 71.3011C57.196 71.3559 57.3685 71.3559 57.4691 71.3011L58.533 70.7124C58.5905 70.6782 58.6121 70.6371 58.6049 70.5892C58.6049 70.5755 58.6049 70.5686 58.6049 70.555C58.6049 70.5413 58.6049 70.5344 58.6049 70.5207C58.6121 70.4728 58.5905 70.4249 58.533 70.3975ZM56.815 71.3422L55.9165 70.8493C55.8158 70.7946 55.6433 70.7946 55.5427 70.8493L54.4788 71.4381C54.4213 71.4723 54.3997 71.5134 54.4069 71.5613C54.4069 71.575 54.4069 71.5818 54.4069 71.5955C54.4069 71.6092 54.4069 71.616 54.4069 71.6297C54.3997 71.6708 54.4213 71.7187 54.4788 71.753L55.3773 72.2459C55.478 72.3006 55.6505 72.3006 55.7511 72.2459L56.815 71.6571C56.8725 71.6229 56.8941 71.5818 56.8869 71.5339C56.8869 71.5202 56.8869 71.5134 56.8869 71.4997C56.8869 71.486 56.8869 71.4791 56.8869 71.4654C56.8941 71.4175 56.8725 71.3696 56.815 71.3422ZM69.7252 60.8134L68.8267 60.3205C68.7261 60.2657 68.5535 60.2657 68.4529 60.3205L66.8355 61.2104C66.778 61.2447 66.7565 61.2857 66.7636 61.3337C66.7636 61.3474 66.7636 61.3542 66.7636 61.3679C66.7636 61.3816 66.7636 61.3884 66.7636 61.4021C66.7565 61.4432 66.778 61.4911 66.8355 61.5253L67.7341 62.0182C67.8347 62.073 68.0072 62.073 68.1079 62.0182L69.7252 61.1283C69.7827 61.0941 69.8043 61.053 69.7971 61.0051C69.7971 60.9914 69.7971 60.9845 69.7971 60.9708C69.7971 60.9571 69.7971 60.9503 69.7971 60.9366C69.8043 60.8887 69.7827 60.8408 69.7252 60.8134ZM72.8306 62.5317L71.932 62.0388C71.8314 61.984 71.6589 61.984 71.5582 62.0388L69.9409 62.9287C69.8834 62.963 69.8618 63.004 69.869 63.052C69.869 63.0657 69.869 63.0725 69.869 63.0862C69.869 63.0999 69.869 63.1067 69.869 63.1204C69.8618 63.1615 69.8834 63.2094 69.9409 63.2436L70.8394 63.7365C70.9401 63.7913 71.1126 63.7913 71.2132 63.7365L72.8306 62.8466C72.8881 62.8124 72.9097 62.7713 72.9025 62.7234C72.9025 62.7097 72.9025 62.7028 72.9025 62.6891C72.9025 62.6754 72.9025 62.6686 72.9025 62.6549C72.9168 62.607 72.8953 62.5659 72.8306 62.5317ZM77.273 60.1356L76.3744 59.6428C76.2738 59.588 76.1013 59.588 76.0006 59.6428L74.9368 60.2315C74.8793 60.2657 74.8577 60.3068 74.8649 60.3547C74.8649 60.3684 74.8649 60.3753 74.8649 60.3889C74.8649 60.4026 74.8649 60.4095 74.8649 60.4232C74.8577 60.4642 74.8793 60.5122 74.9368 60.5464L75.8353 61.0393C75.9359 61.0941 76.1085 61.0941 76.2091 61.0393L77.273 60.4506C77.3305 60.4163 77.352 60.3753 77.3448 60.3273C77.3448 60.3136 77.3448 60.3068 77.3448 60.2931C77.3448 60.2794 77.3448 60.2726 77.3448 60.2589C77.3592 60.2178 77.3377 60.1699 77.273 60.1356ZM75.555 61.0804L74.6564 60.5875C74.5558 60.5327 74.3833 60.5327 74.2826 60.5875L73.2188 61.1762C73.1612 61.2104 73.1397 61.2515 73.1469 61.2994C73.1469 61.3131 73.1469 61.32 73.1469 61.3337C73.1469 61.3474 73.1469 61.3542 73.1469 61.3679C73.1397 61.409 73.1612 61.4569 73.2188 61.4911L74.1173 61.984C74.2179 62.0388 74.3904 62.0388 74.4911 61.984L75.555 61.3953C75.6125 61.361 75.634 61.32 75.6268 61.272C75.6268 61.2584 75.6268 61.2515 75.6268 61.2378C75.6268 61.2241 75.6268 61.2173 75.6268 61.2036C75.634 61.1625 75.6125 61.1146 75.555 61.0804ZM70.595 63.7776L69.6965 63.2847C69.5958 63.2299 69.4233 63.2299 69.3227 63.2847L61.358 67.666C61.3005 67.7003 61.279 67.7413 61.2861 67.7892C61.2861 67.8029 61.2861 67.8098 61.2861 67.8235C61.2861 67.8372 61.2861 67.844 61.2861 67.8577C61.279 67.8988 61.3005 67.9467 61.358 67.9809L62.2566 68.4738C62.3572 68.5286 62.5297 68.5286 62.6304 68.4738L70.595 64.0925C70.6525 64.0583 70.6741 64.0172 70.6669 63.9693C70.6669 63.9556 70.6669 63.9488 70.6669 63.9351C70.6669 63.9214 70.6669 63.9145 70.6669 63.9008C70.6813 63.8529 70.6597 63.8118 70.595 63.7776ZM64.0105 63.9488L63.112 63.4559C63.0113 63.4011 62.8388 63.4011 62.7382 63.4559L61.6743 64.0446C61.6168 64.0788 61.5952 64.1199 61.6024 64.1678C61.6024 64.1815 61.6024 64.1884 61.6024 64.2021C61.6024 64.2157 61.6024 64.2226 61.6024 64.2363C61.5952 64.2774 61.6168 64.3253 61.6743 64.3595L62.5728 64.8524C62.6735 64.9072 62.846 64.9072 62.9466 64.8524L64.0105 64.2637C64.068 64.2294 64.0896 64.1884 64.0824 64.1404C64.0824 64.1267 64.0824 64.1199 64.0824 64.1062C64.0824 64.0925 64.0824 64.0857 64.0824 64.072C64.0896 64.0309 64.0752 63.983 64.0105 63.9488ZM62.2925 64.9003L61.394 64.4074C61.2933 64.3527 61.1208 64.3527 61.0202 64.4074L59.9563 64.9962C59.8988 65.0304 59.8772 65.0715 59.8844 65.1194C59.8844 65.1331 59.8844 65.1399 59.8844 65.1536C59.8844 65.1673 59.8844 65.1742 59.8844 65.1878C59.8772 65.2289 59.8988 65.2768 59.9563 65.3111L60.8548 65.804C60.9555 65.8587 61.128 65.8587 61.2286 65.804L62.2925 65.2152C62.35 65.181 62.3716 65.1399 62.3644 65.092C62.3644 65.0783 62.3644 65.0715 62.3644 65.0578C62.3644 65.0441 62.3644 65.0372 62.3644 65.0235C62.3716 64.9756 62.35 64.9277 62.2925 64.9003ZM65.7285 63.004L64.83 62.5111C64.7293 62.4564 64.5568 62.4564 64.4562 62.5111L63.3923 63.0999C63.3348 63.1341 63.3132 63.1752 63.3204 63.2231C63.3204 63.2368 63.3204 63.2436 63.3204 63.2573C63.3204 63.271 63.3204 63.2779 63.3204 63.2916C63.3132 63.3326 63.3348 63.3806 63.3923 63.4148L64.2909 63.9077C64.3915 63.9625 64.564 63.9625 64.6647 63.9077L65.7285 63.3189C65.786 63.2847 65.8076 63.2436 65.8004 63.1957C65.8004 63.182 65.8004 63.1752 65.8004 63.1615C65.8004 63.1478 65.8004 63.141 65.8004 63.1273C65.8148 63.0862 65.7932 63.0383 65.7285 63.004ZM71.8745 56.8154C71.8745 56.8291 71.8745 56.836 71.8745 56.8497C71.8745 56.8634 71.8745 56.8702 71.8745 56.8839C71.8673 56.925 71.8889 56.9729 71.9464 57.0071L72.845 57.5C72.9456 57.5548 73.1181 57.5548 73.2188 57.5L74.2826 56.9113C74.3401 56.8771 74.3617 56.836 74.3545 56.7881C74.3545 56.7744 74.3545 56.7675 74.3545 56.7538C74.3545 56.7401 74.3545 56.7333 74.3545 56.7196C74.3617 56.6785 74.3401 56.6306 74.2826 56.5964L73.3841 56.1035C73.2834 56.0487 73.1109 56.0487 73.0103 56.1035L71.9464 56.6922C71.8889 56.7264 71.8673 56.7744 71.8745 56.8154ZM67.4537 62.0593L66.5552 61.5664C66.4545 61.5117 66.282 61.5117 66.1814 61.5664L65.1175 62.1552C65.06 62.1894 65.0384 62.2305 65.0456 62.2784C65.0456 62.2921 65.0456 62.2989 65.0456 62.3126C65.0456 62.3263 65.0456 62.3331 65.0456 62.3468C65.0384 62.3879 65.06 62.4358 65.1175 62.4701L66.0161 62.963C66.1167 63.0177 66.2892 63.0177 66.3899 62.963L67.4537 62.3742C67.5112 62.34 67.5328 62.2989 67.5256 62.251C67.5256 62.2373 67.5256 62.2305 67.5256 62.2168C67.5256 62.2031 67.5256 62.1962 67.5256 62.1825C67.5328 62.1415 67.5112 62.0935 67.4537 62.0593ZM60.5745 65.845L59.676 65.3521C59.5753 65.2974 59.4028 65.2974 59.3022 65.3521L58.2383 65.9409C58.1808 65.9751 58.1592 66.0162 58.1664 66.0641C58.1664 66.0778 58.1664 66.0846 58.1664 66.0983C58.1664 66.112 58.1664 66.1189 58.1664 66.1326C58.1592 66.1736 58.1808 66.2216 58.2383 66.2558L59.1368 66.7487C59.2375 66.8035 59.41 66.8035 59.5106 66.7487L60.5745 66.1599C60.632 66.1257 60.6536 66.0846 60.6464 66.0367C60.6464 66.023 60.6464 66.0162 60.6464 66.0025C60.6464 65.9888 60.6464 65.982 60.6464 65.9683C60.6536 65.9203 60.632 65.8793 60.5745 65.845ZM57.1313 67.7345L56.2328 67.2416C56.1321 67.1868 55.9596 67.1868 55.859 67.2416L54.7951 67.8303C54.7376 67.8646 54.716 67.9056 54.7232 67.9535C54.7232 67.9672 54.7232 67.9741 54.7232 67.9878C54.7232 68.0015 54.7232 68.0083 54.7232 68.022C54.716 68.0631 54.7376 68.111 54.7951 68.1452L55.6936 68.6381C55.7943 68.6929 55.9668 68.6929 56.0674 68.6381L57.1313 68.0494C57.1888 68.0152 57.2104 67.9741 57.2032 67.9262C57.2032 67.9125 57.2032 67.9056 57.2032 67.8919C57.2032 67.8782 57.2032 67.8714 57.2032 67.8577C57.2176 67.8098 57.196 67.7687 57.1313 67.7345ZM58.8565 66.7898L57.9579 66.2969C57.8573 66.2421 57.6848 66.2421 57.5842 66.2969L56.5203 66.8856C56.4628 66.9198 56.4412 66.9609 56.4484 67.0088C56.4484 67.0225 56.4484 67.0294 56.4484 67.0431C56.4484 67.0567 56.4484 67.0636 56.4484 67.0773C56.4412 67.1184 56.4628 67.1663 56.5203 67.2005L57.4188 67.6934C57.5195 67.7482 57.692 67.7482 57.7926 67.6934L58.8565 67.1047C58.914 67.0704 58.9356 67.0294 58.9284 66.9814C58.9284 66.9678 58.9284 66.9609 58.9284 66.9472C58.9284 66.9335 58.9284 66.9267 58.9284 66.913C58.9356 66.8651 58.914 66.824 58.8565 66.7898Z" fill="#D2D1CE"/>
<path d="M50.5684 68.0703L49.5045 68.6591C49.4039 68.7139 49.2314 68.7139 49.1308 68.6591L48.2322 68.1662C48.1316 68.1114 48.1316 68.0156 48.2322 67.9608L49.2961 67.3721C49.3967 67.3173 49.5692 67.3173 49.6699 67.3721L50.5684 67.865C50.6762 67.9197 50.6762 68.0087 50.5684 68.0703ZM52.2864 66.9203L51.3879 66.4274C51.2873 66.3726 51.1147 66.3726 51.0141 66.4274L49.9502 67.0161C49.8496 67.0709 49.8496 67.1667 49.9502 67.2215L50.8488 67.7075C50.9494 67.7623 51.1219 67.7623 51.2226 67.7075L52.2864 67.1256C52.3943 67.064 52.3943 66.975 52.2864 66.9203ZM54.0116 65.9687L53.1131 65.4758C53.0124 65.421 52.8399 65.421 52.7393 65.4758L51.6754 66.0645C51.5748 66.1193 51.5748 66.2151 51.6754 66.2699L52.574 66.7628C52.6746 66.8176 52.8471 66.8176 52.9478 66.7628L54.0116 66.1741C54.1123 66.1193 54.1123 66.0303 54.0116 65.9687ZM55.7296 65.024L54.8311 64.5311C54.7305 64.4763 54.5579 64.4763 54.4573 64.5311L53.3934 65.1198C53.2928 65.1746 53.2928 65.2704 53.3934 65.3252L54.292 65.8181C54.3926 65.8728 54.5651 65.8728 54.6658 65.8181L55.7296 65.2293C55.8303 65.1746 55.8303 65.0856 55.7296 65.024ZM57.4476 64.0793L56.5491 63.5864C56.4485 63.5316 56.2759 63.5316 56.1753 63.5864L55.1114 64.1751C55.0108 64.2299 55.0108 64.3257 55.1114 64.3805L56.01 64.8734C56.1106 64.9281 56.2831 64.9281 56.3838 64.8734L57.4476 64.2846C57.5483 64.2299 57.5483 64.134 57.4476 64.0793ZM59.1656 63.1345L58.2671 62.6416C58.1665 62.5869 57.994 62.5869 57.8933 62.6416L56.8294 63.2304C56.7288 63.2851 56.7288 63.381 56.8294 63.4357L57.728 63.9286C57.8286 63.9834 58.0011 63.9834 58.1018 63.9286L59.1656 63.3399C59.2735 63.2851 59.2735 63.1893 59.1656 63.1345ZM60.8908 62.1898L59.9923 61.6969C59.8917 61.6421 59.7191 61.6421 59.6185 61.6969L58.5546 62.2857C58.454 62.3404 58.454 62.4363 58.5546 62.491L59.4532 62.9839C59.5538 63.0387 59.7263 63.0387 59.827 62.9839L60.8908 62.3952C60.9915 62.3404 60.9915 62.2446 60.8908 62.1898ZM62.6089 61.2451L61.7103 60.7522C61.6097 60.6974 61.4372 60.6974 61.3365 60.7522L60.2726 61.3409C60.172 61.3957 60.172 61.4915 60.2726 61.5463L61.1712 62.0392C61.2718 62.094 61.4443 62.094 61.545 62.0392L62.6089 61.4505C62.7095 61.3957 62.7095 61.2999 62.6089 61.2451ZM64.3269 60.3004L63.4283 59.8075C63.3277 59.7527 63.1552 59.7527 63.0545 59.8075L61.9907 60.3962C61.89 60.451 61.89 60.5468 61.9907 60.6016L62.8892 61.0945C62.9898 61.1493 63.1624 61.1493 63.263 61.0945L64.3269 60.5057C64.4275 60.4441 64.4275 60.3551 64.3269 60.3004ZM66.5984 59.0476L65.6998 58.5547C65.5992 58.4999 65.4267 58.4999 65.326 58.5547L63.7087 59.4446C63.608 59.4994 63.608 59.5953 63.7087 59.65L64.6072 60.1429C64.7078 60.1977 64.8804 60.1977 64.981 60.1429L66.5984 59.253C66.7062 59.1982 66.7062 59.1024 66.5984 59.0476ZM73.9808 60.1771L73.0822 59.6842C72.9816 59.6295 72.8091 59.6295 72.7084 59.6842L71.6446 60.273C71.5439 60.3278 71.5439 60.4236 71.6446 60.4784L72.5431 60.9713C72.6437 61.026 72.8163 61.026 72.9169 60.9713L73.9808 60.3825C74.0886 60.3209 74.0886 60.2319 73.9808 60.1771ZM75.706 59.2256L74.8074 58.7327C74.7068 58.6779 74.5343 58.6779 74.4336 58.7327L73.3698 59.3214C73.2691 59.3762 73.2691 59.472 73.3698 59.5268L74.2683 60.0197C74.3689 60.0745 74.5415 60.0745 74.6421 60.0197L75.706 59.431C75.8066 59.3762 75.8066 59.2872 75.706 59.2256ZM77.424 58.2809L76.5254 57.788C76.4248 57.7332 76.2523 57.7332 76.1516 57.788L75.0878 58.3767C74.9871 58.4315 74.9871 58.5273 75.0878 58.5821L75.9863 59.075C76.087 59.1297 76.2595 59.1297 76.3601 59.075L77.424 58.4862C77.5246 58.4315 77.5246 58.3425 77.424 58.2809ZM75.555 61.0397L74.6565 60.5468C74.5558 60.4921 74.3833 60.4921 74.2827 60.5468L73.2188 61.1356C73.1182 61.1903 73.1182 61.2862 73.2188 61.3409L74.1174 61.8338C74.218 61.8886 74.3905 61.8886 74.4911 61.8338L75.555 61.2451C75.6557 61.1903 75.6557 61.0945 75.555 61.0397ZM77.273 60.095L76.3745 59.6021C76.2738 59.5473 76.1013 59.5473 76.0007 59.6021L74.9368 60.1908C74.8362 60.2456 74.8362 60.3414 74.9368 60.3962L75.8354 60.8891C75.936 60.9439 76.1085 60.9439 76.2092 60.8891L77.273 60.3004C77.3808 60.2456 77.3808 60.1498 77.273 60.095ZM78.9982 59.1503L78.0997 58.6574C77.999 58.6026 77.8265 58.6026 77.7259 58.6574L76.662 59.2461C76.5614 59.3009 76.5614 59.3967 76.662 59.4515L77.5606 59.9444C77.6612 59.9992 77.8337 59.9992 77.9343 59.9444L78.9982 59.3557C79.0989 59.294 79.0989 59.205 78.9982 59.1503ZM52.7249 68.4126L51.8264 67.9197C51.7257 67.865 51.5532 67.865 51.4526 67.9197L49.8352 68.8097C49.7346 68.8645 49.7346 68.9603 49.8352 69.0151L50.7338 69.508C50.8344 69.5627 51.0069 69.5627 51.1075 69.508L52.7249 68.618C52.8256 68.5632 52.8256 68.4674 52.7249 68.4126ZM54.4429 67.4679L53.5444 66.975C53.4437 66.9203 53.2712 66.9203 53.1706 66.975L52.1067 67.5638C52.0061 67.6185 52.0061 67.7144 52.1067 67.7691L53.0053 68.262C53.1059 68.3168 53.2784 68.3168 53.379 68.262L54.4429 67.6733C54.5507 67.6185 54.5507 67.5227 54.4429 67.4679ZM56.1681 66.5232L55.2696 66.0303C55.1689 65.9755 54.9964 65.9755 54.8958 66.0303L53.8319 66.6122C53.7313 66.667 53.7313 66.7628 53.8319 66.8176L54.7305 67.3105C54.8311 67.3652 55.0036 67.3652 55.1042 67.3105L56.1681 66.7217C56.2688 66.6738 56.2688 66.578 56.1681 66.5232ZM57.8861 65.5785L56.9876 65.0856C56.887 65.0308 56.7144 65.0308 56.6138 65.0856L55.5499 65.6743C55.4493 65.7291 55.4493 65.8249 55.5499 65.8797L56.4485 66.3726C56.5491 66.4274 56.7216 66.4274 56.8223 66.3726L57.8861 65.7839C57.9868 65.7222 57.9868 65.6332 57.8861 65.5785ZM59.6041 64.6338L58.7056 64.1409C58.605 64.0861 58.4324 64.0861 58.3318 64.1409L57.2679 64.7296C57.1673 64.7844 57.1673 64.8802 57.2679 64.935L58.1665 65.4279C58.2671 65.4826 58.4396 65.4826 58.5403 65.4279L59.6041 64.8391C59.7048 64.7775 59.7048 64.6885 59.6041 64.6338ZM61.3221 63.6822L60.4308 63.1893C60.3302 63.1345 60.1576 63.1345 60.057 63.1893L58.9931 63.778C58.8925 63.8328 58.8925 63.9286 58.9931 63.9834L59.8917 64.4763C59.9923 64.5311 60.1648 64.5311 60.2655 64.4763L61.3293 63.8876C61.43 63.8328 61.43 63.7438 61.3221 63.6822ZM63.0402 62.7375L62.1416 62.2446C62.041 62.1898 61.8685 62.1898 61.7678 62.2446L60.7039 62.8333C60.6033 62.8881 60.6033 62.9839 60.7039 63.0387L61.6025 63.5316C61.7031 63.5864 61.8756 63.5864 61.9763 63.5316L63.0402 62.9428C63.148 62.8881 63.148 62.7991 63.0402 62.7375ZM64.7653 61.7928L63.8668 61.2999C63.7662 61.2451 63.5936 61.2451 63.493 61.2999L62.4291 61.8886C62.3285 61.9434 62.3285 62.0392 62.4291 62.094L63.3277 62.5869C63.4283 62.6416 63.6008 62.6416 63.7015 62.5869L64.7653 61.9981C64.866 61.9434 64.866 61.8475 64.7653 61.7928ZM66.4834 60.848L65.5848 60.3551C65.4842 60.3004 65.3117 60.3004 65.211 60.3551L64.1472 60.9439C64.0465 60.9986 64.0465 61.0945 64.1472 61.1492L65.0457 61.6421C65.1463 61.6969 65.3188 61.6969 65.4195 61.6421L66.4834 61.0534C66.584 60.9986 66.584 60.9028 66.4834 60.848ZM68.2014 59.9033L67.3028 59.4104C67.2022 59.3557 67.0297 59.3557 66.929 59.4104L65.8652 59.9992C65.7645 60.0539 65.7645 60.1498 65.8652 60.2045L66.7637 60.6974C66.8643 60.7522 67.0369 60.7522 67.1375 60.6974L68.2014 60.1087C68.3092 60.0539 68.3092 59.9581 68.2014 59.9033ZM53.6953 69.5833L52.7968 69.0904C52.6962 69.0356 52.5236 69.0356 52.423 69.0904L51.3591 69.6791C51.2585 69.7339 51.2585 69.8297 51.3591 69.8845L52.2577 70.3774C52.3583 70.4321 52.5308 70.4321 52.6315 70.3774L53.6953 69.7886C53.796 69.727 53.796 69.638 53.6953 69.5833ZM55.4133 68.6385L54.5148 68.1457C54.4142 68.0909 54.2417 68.0909 54.141 68.1457L53.0771 68.7344C52.9765 68.7892 52.9765 68.885 53.0771 68.9398L53.9757 69.4327C54.0763 69.4874 54.2488 69.4874 54.3495 69.4327L55.4133 68.8439C55.514 68.7823 55.514 68.6933 55.4133 68.6385ZM57.1314 67.687L56.2328 67.1941C56.1322 67.1393 55.9597 67.1393 55.859 67.1941L54.7951 67.7828C54.6945 67.8376 54.6945 67.9334 54.7951 67.9882L55.6937 68.4811C55.7943 68.5359 55.9668 68.5359 56.0675 68.4811L57.1314 67.8924C57.2392 67.8376 57.2392 67.7486 57.1314 67.687ZM58.8566 66.7423L57.958 66.2494C57.8574 66.1946 57.6849 66.1946 57.5842 66.2494L56.5203 66.8381C56.4197 66.8929 56.4197 66.9887 56.5203 67.0435L57.4189 67.5364C57.5195 67.5911 57.692 67.5911 57.7927 67.5364L58.8566 66.9476C58.9572 66.8929 58.9572 66.8039 58.8566 66.7423ZM56.8151 71.2947L55.9165 70.8018C55.8159 70.7471 55.6434 70.7471 55.5427 70.8018L54.4789 71.3906C54.3782 71.4453 54.3782 71.5412 54.4789 71.5959L55.3702 72.0888C55.4709 72.1436 55.6434 72.1436 55.744 72.0888L56.8079 71.5001C56.9157 71.4453 56.9157 71.3495 56.8151 71.2947ZM58.5331 70.35L57.6345 69.8571C57.5339 69.8023 57.3614 69.8023 57.2607 69.8571L56.1969 70.4458C56.0962 70.5006 56.0962 70.5964 56.1969 70.6512L57.0954 71.1441C57.1961 71.1989 57.3686 71.1989 57.4692 71.1441L58.5331 70.5554C58.6337 70.5006 58.6337 70.4048 58.5331 70.35ZM60.2511 69.4053L59.3525 68.9124C59.2519 68.8576 59.0794 68.8576 58.9788 68.9124L57.9149 69.5011C57.8142 69.5559 57.8142 69.6517 57.9149 69.7065L58.8134 70.1994C58.9141 70.2542 59.0866 70.2542 59.1872 70.1994L60.2511 69.6107C60.3589 69.5559 60.3589 69.46 60.2511 69.4053ZM61.9691 68.4606L61.0706 67.9677C60.9699 67.9129 60.7974 67.9129 60.6968 67.9677L59.6329 68.5564C59.5323 68.6112 59.5323 68.707 59.6329 68.7618L60.5314 69.2547C60.6321 69.3094 60.8046 69.3094 60.9052 69.2547L61.9691 68.6659C62.0769 68.6112 62.0769 68.5153 61.9691 68.4606ZM72.8306 62.4842L71.9321 61.9913C71.8315 61.9365 71.6589 61.9365 71.5583 61.9913L69.9409 62.8812C69.8403 62.936 69.8403 63.0318 69.9409 63.0866L70.8395 63.5795C70.9401 63.6343 71.1126 63.6343 71.2133 63.5795L72.8306 62.6896C72.9385 62.6348 72.9385 62.5458 72.8306 62.4842ZM60.5746 65.7975L59.676 65.3046C59.5754 65.2499 59.4029 65.2499 59.3022 65.3046L58.2384 65.8934C58.1377 65.9482 58.1377 66.044 58.2384 66.0988L59.1369 66.5917C59.2375 66.6464 59.4101 66.6464 59.5107 66.5917L60.5746 66.0029C60.6752 65.9482 60.6752 65.8523 60.5746 65.7975ZM62.2926 64.8528L61.394 64.3599C61.2934 64.3052 61.1209 64.3052 61.0202 64.3599L59.9564 64.9487C59.8557 65.0034 59.8557 65.0993 59.9564 65.154L60.8549 65.6469C60.9555 65.7017 61.1281 65.7017 61.2287 65.6469L62.2926 65.0582C62.3932 65.0034 62.3932 64.9076 62.2926 64.8528ZM64.0106 63.9081L63.112 63.4152C63.0114 63.3604 62.8389 63.3604 62.7382 63.4152L61.6744 64.0039C61.5737 64.0587 61.5737 64.1546 61.6744 64.2093L62.5729 64.7022C62.6735 64.757 62.8461 64.757 62.9467 64.7022L64.0106 64.1135C64.1184 64.0587 64.1184 63.9629 64.0106 63.9081ZM65.7286 62.9634L64.83 62.4705C64.7294 62.4157 64.5569 62.4157 64.4563 62.4705L63.3924 63.0592C63.2917 63.114 63.2917 63.2098 63.3924 63.2646L64.2909 63.7575C64.3916 63.8123 64.5641 63.8123 64.6647 63.7575L65.7286 63.1688C65.8364 63.114 65.8364 63.0182 65.7286 62.9634ZM67.4538 62.0187L66.5552 61.5258C66.4546 61.471 66.2821 61.471 66.1814 61.5258L65.1176 62.1145C65.0169 62.1693 65.0169 62.2651 65.1176 62.3199L66.0161 62.8128C66.1168 62.8675 66.2893 62.8675 66.3899 62.8128L67.4538 62.224C67.5544 62.1624 67.5544 62.0734 67.4538 62.0187ZM69.7253 60.7659L68.8267 60.273C68.7261 60.2182 68.5536 60.2182 68.453 60.273L66.8356 61.1629C66.7349 61.2177 66.7349 61.3135 66.8356 61.3683L67.7341 61.8612C67.8348 61.916 68.0073 61.916 68.1079 61.8612L69.7253 60.9713C69.8259 60.9165 69.8259 60.8207 69.7253 60.7659ZM55.8518 70.1309L54.9533 69.638C54.8527 69.5833 54.6801 69.5833 54.5795 69.638L52.9621 70.528C52.8615 70.5828 52.8615 70.6786 52.9621 70.7334L53.8607 71.2263C53.9613 71.281 54.1338 71.281 54.2345 71.2263L55.8518 70.3363C55.9525 70.2815 55.9525 70.1857 55.8518 70.1309ZM57.5698 69.1862L56.6713 68.6933C56.5707 68.6386 56.3981 68.6386 56.2975 68.6933L55.2336 69.2821C55.133 69.3368 55.133 69.4327 55.2336 69.4874L56.1322 69.9803C56.2328 70.0351 56.4053 70.0351 56.506 69.9803L57.5698 69.3916C57.6705 69.3368 57.6705 69.241 57.5698 69.1862ZM59.2878 68.2415L58.3893 67.7486C58.2887 67.6938 58.1162 67.6938 58.0155 67.7486L56.9516 68.3373C56.851 68.3921 56.851 68.4879 56.9516 68.5427L57.8502 69.0356C57.9508 69.0904 58.1233 69.0904 58.224 69.0356L59.2878 68.4469C59.3957 68.3921 59.3957 68.2963 59.2878 68.2415ZM61.0059 67.2968L60.1073 66.8039C60.0067 66.7491 59.8342 66.7491 59.7335 66.8039L58.6697 67.3926C58.569 67.4474 58.569 67.5432 58.6697 67.598L59.5682 68.0909C59.6688 68.1457 59.8414 68.1457 59.942 68.0909L61.0059 67.5022C61.1137 67.4405 61.1137 67.3515 61.0059 67.2968ZM62.7311 66.3521L61.8325 65.8592C61.7319 65.8044 61.5594 65.8044 61.4587 65.8592L60.3948 66.4479C60.2942 66.5027 60.2942 66.5985 60.3948 66.6533L61.2934 67.1462C61.394 67.2009 61.5665 67.2009 61.6672 67.1462L62.7311 66.5574C62.8317 66.4958 62.8317 66.4068 62.7311 66.3521ZM70.5951 63.7301L69.6965 63.2372C69.5959 63.1825 69.4234 63.1825 69.3227 63.2372L61.3581 67.6185C61.2575 67.6733 61.2575 67.7691 61.3581 67.8239L62.2566 68.3168C62.3573 68.3716 62.5298 68.3716 62.6304 68.3168L70.5951 63.9355C70.7029 63.8807 70.7029 63.7917 70.5951 63.7301ZM64.4491 65.4005L63.5505 64.9076C63.4499 64.8528 63.2774 64.8528 63.1767 64.9076L62.1129 65.4963C62.0122 65.5511 62.0122 65.6469 62.1129 65.7017L63.0114 66.1946C63.112 66.2494 63.2846 66.2494 63.3852 66.1946L64.4491 65.6059C64.5497 65.5511 64.5497 65.4621 64.4491 65.4005ZM66.1671 64.4558L65.2685 63.9629C65.1679 63.9081 64.9954 63.9081 64.8947 63.9629L63.8309 64.5516C63.7302 64.6064 63.7302 64.7022 63.8309 64.757L64.7294 65.2499C64.83 65.3047 65.0026 65.3047 65.1032 65.2499L66.1671 64.6611C66.2749 64.6064 66.2749 64.5174 66.1671 64.4558ZM67.8851 63.5111L66.9865 63.0182C66.8859 62.9634 66.7134 62.9634 66.6127 63.0182L65.5489 63.6069C65.4482 63.6617 65.4482 63.7575 65.5489 63.8123L66.4474 64.3052C66.548 64.3599 66.7206 64.3599 66.8212 64.3052L67.8851 63.7164C67.9929 63.6617 67.9929 63.5658 67.8851 63.5111ZM69.6103 62.5663L68.7117 62.0734C68.6111 62.0187 68.4386 62.0187 68.3379 62.0734L67.2741 62.6622C67.1734 62.7169 67.1734 62.8128 67.2741 62.8675L68.1726 63.3604C68.2732 63.4152 68.4458 63.4152 68.5464 63.3604L69.6103 62.7717C69.7109 62.7169 69.7109 62.6211 69.6103 62.5663ZM71.3283 61.6216L70.4297 61.1287C70.3291 61.0739 70.1566 61.0739 70.056 61.1287L68.9921 61.7175C68.8914 61.7722 68.8914 61.8681 68.9921 61.9228L69.8906 62.4157C69.9913 62.4705 70.1638 62.4705 70.2644 62.4157L71.3283 61.827C71.4289 61.7722 71.4289 61.6764 71.3283 61.6216ZM69.2796 57.5894L68.3811 57.0965C68.2804 57.0418 68.1079 57.0418 68.0073 57.0965L66.9434 57.6853C66.8428 57.74 66.8428 57.8359 66.9434 57.8907L67.8419 58.3836C67.9426 58.4383 68.1151 58.4383 68.2157 58.3836L69.2796 57.7948C69.3802 57.7332 69.3802 57.6442 69.2796 57.5894ZM70.9976 56.6379L70.0991 56.145C69.9984 56.0902 69.8259 56.0902 69.7253 56.145L68.6614 56.7337C68.5608 56.7885 68.5608 56.8843 68.6614 56.9391L69.56 57.432C69.6606 57.4867 69.8331 57.4867 69.9338 57.432L70.9976 56.8432C71.0983 56.7885 71.0983 56.6995 70.9976 56.6379ZM72.7156 55.6932L71.8171 55.2003C71.7165 55.1455 71.5439 55.1455 71.4433 55.2003L70.3794 55.789C70.2788 55.8438 70.2788 55.9396 70.3794 55.9944L71.278 56.4873C71.3786 56.542 71.5511 56.542 71.6518 56.4873L72.7156 55.8985C72.8163 55.8438 72.8163 55.7548 72.7156 55.6932ZM74.2827 56.5557L73.3841 56.0628C73.2835 56.0081 73.111 56.0081 73.0104 56.0628L71.9465 56.6516C71.8458 56.7063 71.8458 56.8022 71.9465 56.8569L72.845 57.3498C72.9457 57.4046 73.1182 57.4046 73.2188 57.3498L74.2827 56.7611C74.3905 56.7063 74.3905 56.6173 74.2827 56.5557ZM75.8066 57.3567L74.9296 56.8775C74.8434 56.8296 74.7068 56.8296 74.6205 56.8775L73.1182 57.6921C73.0463 57.7332 72.9313 57.7332 72.8594 57.6921L71.6805 57.0418C71.5511 56.9733 71.3427 56.9733 71.2133 57.0418L68.5177 58.5273C68.3883 58.5958 68.3883 58.7121 68.5177 58.7806L70.8682 60.0745C70.9976 60.1429 71.2061 60.1429 71.3355 60.0745L75.8138 57.61C75.936 57.5415 75.936 57.4251 75.8066 57.3567Z" fill="#FFFEFB"/>
<path d="M92.9076 55.8029C92.541 54.9061 91.1537 53.1809 89.0547 52.421C87.3726 51.8118 85.2521 51.1888 82.7362 52.5785C82.6355 52.6333 82.5493 52.688 82.463 52.7496C81.5501 53.3863 81.5788 54.4542 82.5565 55.1046C84.3392 56.2958 86.51 57.4185 86.51 57.4185C87.0492 57.6923 87.617 57.9182 88.2065 58.062C89.6513 58.4111 90.9308 58.2879 92.0163 57.6855C92.6992 57.3089 93.0442 56.8092 93.037 56.3095C93.0442 56.2068 93.0011 56.0288 92.9076 55.8029Z" fill="url(#paint4_radial_389_183151)"/>
<path opacity="0.6" d="M85.8487 52.825L85.1371 52.4553C84.9286 52.3595 84.6195 52.3389 84.3392 52.5717C84.1666 52.7154 84.2457 52.7771 84.447 52.8729L85.1586 53.1947C85.3671 53.2905 85.7121 53.3179 85.899 53.1947C86.0931 53.0646 86.0572 52.9208 85.8487 52.825Z" fill="#D2D1CE"/>
<path d="M85.3886 52.277C85.1513 52.147 84.9141 52.1401 84.6913 52.2565L85.712 53.8105C86.2152 53.4408 85.9636 52.6056 85.3886 52.277Z" fill="#FFFEFB"/>
<path d="M85.6977 53.0369C85.5683 52.7288 85.3454 52.4687 85.1082 52.3386C84.9932 52.277 84.871 52.2428 84.7632 52.2496C84.7057 52.2565 84.6626 52.2702 84.6194 52.2907C84.5547 52.325 84.3966 52.4208 84.3247 52.6672C84.1522 53.256 84.8638 54.2486 85.5898 53.8789C85.8055 53.7626 85.8558 53.4271 85.6977 53.0369Z" fill="#B6B5B3"/>
<path opacity="0.5" d="M85.1946 53.2149C85.1155 53.0232 84.9717 52.8589 84.8208 52.7768C84.7489 52.7357 84.677 52.7152 84.6051 52.722C84.4039 52.7357 84.332 52.989 84.447 53.2765C84.5261 53.4682 84.6698 53.6325 84.8208 53.7146C84.8927 53.7557 84.9645 53.7763 85.0364 53.7694C85.2377 53.7489 85.3096 53.5024 85.1946 53.2149Z" fill="#CCCECE"/>
<path d="M85.7696 52.9962C85.7624 52.9756 85.7481 52.9551 85.7409 52.9277C85.669 52.7771 85.5827 52.647 85.4749 52.5306C85.3815 52.4279 85.2808 52.3458 85.173 52.291C85.058 52.2294 84.9358 52.1952 84.828 52.202C84.7704 52.2089 84.7273 52.2226 84.6842 52.2431L84.6123 52.2842C84.6554 52.2636 84.7058 52.2431 84.7561 52.2431C84.8639 52.2363 84.9789 52.2636 85.1011 52.3321C85.2089 52.3869 85.3096 52.469 85.403 52.5717C85.5037 52.6812 85.5971 52.8182 85.669 52.9688C85.6762 52.9893 85.6906 53.0098 85.6977 53.0372C85.8559 53.4206 85.7984 53.7629 85.5899 53.8793L85.6618 53.8382C85.8774 53.7286 85.9278 53.3864 85.7696 52.9962Z" fill="#F0EFEC"/>
<path opacity="0.6" d="M92.1456 57.2404C91.0602 57.8428 89.7735 57.966 88.3358 57.6169C87.7464 57.4731 87.1785 57.2472 86.6394 56.9734C86.6394 56.9734 84.4685 55.8575 82.6858 54.6595C82.1467 54.2967 81.8951 53.8106 81.9382 53.3383C81.6363 53.927 81.8448 54.6321 82.5564 55.1045C84.3391 56.2956 86.51 57.4184 86.51 57.4184C87.0491 57.6922 87.617 57.9181 88.2064 58.0619C89.6513 58.411 90.9308 58.2878 92.0162 57.6853C92.656 57.3294 92.9938 56.8707 93.0298 56.412C92.8788 56.7132 92.5841 57.0008 92.1456 57.2404Z" fill="#D2D1CE"/>
<path opacity="0.6" d="M92.081 57.4527C90.9956 58.0551 89.7089 58.1783 88.2712 57.8292C87.6818 57.6854 87.1139 57.4595 86.5748 57.1857C86.5748 57.1857 84.4039 56.0698 82.6212 54.8718C82.0461 54.4884 81.8017 53.9545 81.888 53.4479C81.6652 54.0161 81.888 54.6527 82.5565 55.1046C84.3392 56.2957 86.5101 57.4184 86.5101 57.4184C87.0492 57.6923 87.6171 57.9182 88.2065 58.0619C89.6514 58.4111 90.9309 58.2879 92.0163 57.6854C92.613 57.3568 92.9365 56.9392 93.0155 56.5079C92.879 56.8571 92.5698 57.1857 92.081 57.4527Z" fill="#D2D1CE"/>
<path d="M59.4233 19.0001L41 29.3176V54.0733L59.4233 43.7558V19.0001Z" fill="#1D2342"/>
<path d="M57.7637 42.0543C57.0445 42.2086 53.3376 42.8552 53.1716 42.4507C53.0056 42.0468 52.5076 39.964 52.7293 39.5294C52.9505 39.0945 53.8908 37.8845 54.1125 36.9525C54.3337 36.0207 54.6657 33.2866 54.6657 33.2866C54.6657 33.2866 54.9977 33.3491 55.3292 32.915C55.6612 32.4806 56.2696 29.2807 55.6332 29.4506C54.9972 29.6203 54.61 30.272 54.61 30.272C54.61 30.272 54.632 27.7706 54.5549 27.1953C54.112 23.9007 50.2116 26.2096 50.2116 26.2096C50.2116 26.2096 46.3112 28.27 45.8688 32.0597C45.7912 32.7217 45.8136 35.1983 45.8136 35.1983C45.8136 35.1983 45.4265 34.9802 44.7905 35.5228C44.1541 36.0657 44.7624 38.5836 45.0944 38.6467C45.4259 38.7095 45.758 38.2751 45.758 38.2751C45.758 38.2751 46.09 40.6374 46.3112 41.3214C46.5323 42.0055 47.4732 42.1625 47.6944 42.3491C47.9156 42.5356 47.418 45.176 47.252 45.7659C47.086 46.3563 43.3792 49.8615 42.66 50.5128C41.9408 51.164 41.83 52.8419 41.83 52.8419L58.5937 43.4537C58.5932 43.454 58.4829 41.9 57.7637 42.0543Z" fill="#017CA8"/>
<path d="M65.0595 18.5781L61 20.8516V25.4111L65.0595 23.1377V18.5781ZM64.405 22.769L61.655 24.309V21.2199L64.405 19.6799V22.769Z" fill="white"/>
<path d="M63.8315 20.6043L62.155 21.5432V23.4264L63.8315 22.4876V20.6043Z" fill="white"/>
<path d="M67.7659 17.0625L66.413 17.8202V19.34L67.7659 18.5823V17.0625Z" fill="white"/>
<path d="M62.3536 27.6933L61.0006 28.451V29.9709V31.4907L62.3536 30.733V29.2132V27.6933Z" fill="white"/>
<path d="M65.0595 26.178L63.7065 26.9357V28.4555L65.0595 27.6978V26.178Z" fill="white"/>
<path d="M63.7065 25.4153L62.3535 26.173V27.6928L63.7065 26.9351V25.4153Z" fill="white"/>
<path d="M75.8848 20.1154V18.5949L74.5313 19.3529L73.1784 20.1106V21.6311L74.5313 20.8734V22.3932L75.8848 21.6352V23.1551L74.5313 23.9131L73.1784 24.6708V23.1509V21.6311L71.8254 22.3888V20.8683L73.1784 20.1106V18.5914V17.071L71.8254 17.8287V16.3088L73.1784 15.5511V14.0313L71.8254 14.789L70.4719 15.547L69.1189 16.3047V17.8245L70.4719 17.0668V18.5867V20.1071L69.1189 20.8648V22.3841L70.4719 21.6263V23.1468V24.6666L69.1189 25.4243V26.9442L70.4719 26.1865V27.7063V29.2268L69.1189 29.9845V31.5043L70.4719 30.7466V32.2658V33.7863L69.1189 34.544V36.0638L70.4719 35.3061L71.8254 34.5481L73.1784 33.7904V32.2706L71.8254 33.0283V31.5078L73.1784 30.7501V29.2309V27.7111L71.8254 28.4688V26.9483L73.1784 26.1906L74.5313 25.4329V26.9534L75.8848 26.1954V24.6749L77.2378 23.9172V25.4376L78.5913 24.6796V23.1592V21.6394L77.2378 22.3974V20.8775L78.5913 20.1195V18.5997L77.2378 19.3577L75.8848 20.1154Z" fill="white"/>
<path d="M74.5314 13.2737V17.8332L78.5908 15.5598V11.0003L74.5314 13.2737ZM77.9363 15.1911L75.1864 16.7312V13.6421L77.9363 12.102V15.1911Z" fill="white"/>
<path d="M77.3629 13.0263L75.6864 13.9652V15.8484L77.3629 14.9096V13.0263Z" fill="white"/>
<path d="M61.0006 40.6104L65.0601 38.337V33.7775L61.0006 36.0509V40.6104ZM61.6551 36.4196L64.405 34.8795V37.9686L61.6551 39.5087V36.4196Z" fill="white"/>
<path d="M63.8315 35.8039L62.155 36.7428V38.6254L63.8315 37.6866V35.8039Z" fill="white"/>
<path d="M69.1189 31.5044L67.7659 32.2621V30.7422L69.1189 29.9845V28.4641V26.9442L67.7659 27.7019V26.1821L69.1189 25.4244V23.9046L67.7659 24.6623V23.1418V21.6226L69.1189 20.8649V19.3444V17.8246L67.7659 18.5823V20.1021L66.413 20.8598V22.3803V23.8995L65.0595 24.6575V26.178L66.413 25.42V26.9398L65.0595 27.6978V29.2176L66.413 28.4596V29.9795L65.0595 30.7375V29.2176L63.7065 29.9753L62.3535 30.733V32.2529L63.7065 31.4952V33.0156L65.0595 32.2579L66.413 31.4999V33.0198V34.539L67.7659 33.7813V35.3017L69.1189 34.544V33.0236V31.5044Z" fill="white"/>
<path d="M67.7659 35.3017L66.413 36.0594V37.5793L67.7659 36.8216V35.3017Z" fill="white"/>
<path d="M62.3536 32.2529L61.0006 33.0106V34.5305L62.3536 33.7728V32.2529Z" fill="white"/>
<path d="M74.5314 33.0328L78.5908 30.7594V26.1999L74.5314 28.4733V33.0328ZM75.1864 28.8416L77.9363 27.3016V30.3907L75.1864 31.9307V28.8416Z" fill="white"/>
<path d="M77.3629 28.226L75.6864 29.1649V31.0475L77.3629 30.1087V28.226Z" fill="white"/>
<defs>
<linearGradient id="paint0_linear_389_183151" x1="54.0254" y1="53.2109" x2="68.4279" y2="53.2109" gradientUnits="userSpaceOnUse">
<stop stop-color="#F0EFEC"/>
<stop offset="1" stop-color="#FFFEFB"/>
</linearGradient>
<linearGradient id="paint1_linear_389_183151" x1="59.7819" y1="47.9589" x2="61.2764" y2="50.677" gradientUnits="userSpaceOnUse">
<stop stop-color="#C2C1BF"/>
<stop offset="1" stop-color="#E3E2DF"/>
</linearGradient>
<linearGradient id="paint2_linear_389_183151" x1="55.9348" y1="66.3561" x2="54.4201" y2="66.3561" gradientUnits="userSpaceOnUse">
<stop stop-color="#D2D1CE"/>
<stop offset="1" stop-color="#B6B5B3"/>
</linearGradient>
<linearGradient id="paint3_linear_389_183151" x1="46.166" y1="63.7059" x2="81.5649" y2="63.7059" gradientUnits="userSpaceOnUse">
<stop stop-color="#F0EFEC"/>
<stop offset="1" stop-color="#F6F5F2"/>
</linearGradient>
<radialGradient id="paint4_radial_389_183151" cx="0" cy="0" r="1" gradientUnits="userSpaceOnUse" gradientTransform="translate(87.0603 51.8739) scale(8.86413 8.44176)">
<stop stop-color="#FDFCF9"/>
<stop offset="1" stop-color="#D2D1CE"/>
</radialGradient>
</defs>
</svg>
