<svg width="100" height="79" viewBox="0 0 100 79" fill="none" xmlns="http://www.w3.org/2000/svg">
<rect x="23.6094" y="5" width="46.1311" height="62.6065" rx="2.63158" fill="#DDEAFF"/>
<path d="M23 8.43992V7.63158C23 6.1782 24.1782 5 25.6316 5H67.4953C68.9487 5 70.1269 6.1782 70.1269 7.63158V58.6627" stroke="#282F38" stroke-linecap="round"/>
<path d="M70.4688 64.1665V64.9749C70.4688 66.4282 69.2906 67.6064 67.8372 67.6064H25.9735C24.5201 67.6064 23.3419 66.4282 23.3419 64.9749V13.9437" stroke="#282F38" stroke-linecap="round"/>
<path d="M36.8828 24C40.7489 24 43.8828 20.8661 43.8828 17C43.8828 13.1339 40.7489 10 36.8828 10C33.0167 10 29.8828 13.1339 29.8828 17C29.8828 20.8661 33.0167 24 36.8828 24Z" stroke="#282F38" stroke-width="0.736842" stroke-linecap="round" stroke-linejoin="round"/>
<path d="M29.8828 17H43.8828" stroke="#282F38" stroke-width="0.736842" stroke-linecap="round" stroke-linejoin="round"/>
<path d="M36.8859 24C38.4322 24 39.6859 20.8661 39.6859 17C39.6859 13.1339 38.4322 10 36.8859 10C35.3396 10 34.0859 13.1339 34.0859 17C34.0859 20.8661 35.3396 24 36.8859 24Z" stroke="#282F38" stroke-width="0.736842" stroke-linecap="round" stroke-linejoin="round"/>
<path d="M31.9375 12.1499C32.5868 12.8009 33.3583 13.3172 34.2077 13.669C35.0572 14.0209 35.9678 14.2014 36.8872 14.2002C37.8066 14.2014 38.7172 14.0209 39.5667 13.669C40.4161 13.3172 41.1876 12.8009 41.8369 12.1499M41.8369 21.8505C41.1876 21.1995 40.4161 20.6833 39.5667 20.3314C38.7172 19.9795 37.8066 19.799 36.8872 19.8002C35.9678 19.799 35.0572 19.9795 34.2077 20.3314C33.3583 20.6833 32.5868 21.1995 31.9375 21.8505" stroke="#282F38" stroke-width="0.736842" stroke-linecap="round" stroke-linejoin="round"/>
<path d="M30 53H50" stroke="#282F38" stroke-width="1.31579" stroke-linecap="round"/>
<path d="M29.8828 41.6958H59.4661" stroke="#282F38" stroke-width="1.31579" stroke-linecap="round"/>
<path d="M29.8828 30H59.4661" stroke="#282F38" stroke-width="1.31579" stroke-linecap="round"/>
<path fill-rule="evenodd" clip-rule="evenodd" d="M61 62.4858V75.0002L68 70.0002L75 75.0002V62.4858C73.0981 64.0565 70.6593 65.0002 68 65.0002C65.3407 65.0002 62.9019 64.0565 61 62.4858Z" fill="#E9573F"/>
<circle cx="68" cy="54" r="9.5" fill="#C0E8F4" stroke="#282F38"/>
</svg>
