<svg width="100" height="79" viewBox="0 0 100 79" fill="none" xmlns="http://www.w3.org/2000/svg">
<rect x="15.5" y="6.5" width="48.4805" height="66.4082" rx="1.19362" fill="#DDEAFF" stroke="#282F38"/>
<rect x="17.2422" y="8.21973" width="39.3474" height="63.7543" rx="0.423404" fill="#F6F6F7"/>
<path d="M30.7734 10.3027H43.6814" stroke="#282F38" stroke-width="0.846808" stroke-linecap="round"/>
<path d="M25.0391 43.2896L55.1576 43.2896" stroke="#282F38" stroke-width="0.846808" stroke-linecap="round"/>
<path d="M25.0391 51.1777L55.1576 51.1777" stroke="#282F38" stroke-width="0.846808" stroke-linecap="round"/>
<path d="M32.2109 58.3491L47.2702 58.3491" stroke="#282F38" stroke-width="0.846808" stroke-linecap="round"/>
<path d="M47.2734 10.3027L50.1419 10.3027" stroke="#282F38" stroke-width="0.846808" stroke-linecap="round"/>
<circle cx="63.4092" cy="22.852" r="8.54045" fill="#8CC152" stroke="#8CC152" stroke-width="0.846808"/>
<path d="M61.8319 25.6423L61.83 25.6416C61.8249 25.6399 61.8117 25.6345 61.7905 25.6142L59.194 23.1308C59.1792 23.1166 59.164 23.0996 59.1657 23.0376C59.1679 22.9686 59.1869 22.9409 59.209 22.9197C59.2315 22.8983 59.2632 22.8783 59.3391 22.8783C59.415 22.8783 59.4467 22.8983 59.4691 22.9197L61.6279 24.9844L61.9205 25.2643L62.2132 24.9844L67.3307 20.0898C67.3507 20.0707 67.3836 20.0484 67.4686 20.0484C67.5529 20.0484 67.5857 20.0705 67.6059 20.0898C67.6244 20.1075 67.6412 20.1298 67.6412 20.195C67.6412 20.261 67.6242 20.2833 67.6059 20.3008L62.0505 25.6142C62.0293 25.6345 62.0161 25.6399 62.0111 25.6416L62.0111 25.6416L62.0091 25.6423C61.9864 25.6501 61.9579 25.6556 61.9205 25.6556C61.8831 25.6556 61.8546 25.6501 61.8319 25.6423Z" fill="#111111" stroke="#F6F6F7" stroke-width="0.846808"/>
<path fill-rule="evenodd" clip-rule="evenodd" d="M43.0856 28.9473H37.4015C35.7286 29.0303 34.2464 30.0522 33.5739 31.5862C32.7627 33.1788 34.3816 34.6841 36.2645 34.6841H44.2226C46.1066 34.6841 47.7256 33.1788 46.9132 31.5862C46.2407 30.0522 44.7585 29.0303 43.0856 28.9473Z" stroke="#282F38" stroke-width="1.27021" stroke-linecap="round" stroke-linejoin="round"/>
<path fill-rule="evenodd" clip-rule="evenodd" d="M43.6889 22.0632C43.6889 23.9642 42.1478 25.5053 40.2468 25.5053C38.3458 25.5053 36.8047 23.9642 36.8047 22.0632C36.8047 20.1622 38.3458 18.6211 40.2468 18.6211C41.1597 18.6211 42.0352 18.9837 42.6808 19.6293C43.3263 20.2748 43.6889 21.1503 43.6889 22.0632Z" stroke="#282F38" stroke-width="1.27021" stroke-linecap="round" stroke-linejoin="round"/>
<path d="M76.0703 59.3418C76.9075 58.679 78.0703 57.4418 78.0703 55.8418V55.3418H76.5703H74.5703V55.8418C74.5703 57.0418 75.4075 58.679 76.0703 59.3418Z" fill="#F6F6F7" stroke="#282F38"/>
<path d="M73.9062 37.6792C73.9062 37.1269 74.354 36.6792 74.9062 36.6792H77.9062C78.4585 36.6792 78.9062 37.1269 78.9062 37.6792V53.6709C78.9062 54.0116 78.7328 54.3289 78.4459 54.5127L77.6529 55.0211C77.4919 55.1243 77.3046 55.1792 77.1133 55.1792H75.309C75.0506 55.1792 74.8022 55.0792 74.6159 54.9L74.2131 54.5127C74.0171 54.3242 73.9062 54.0639 73.9062 53.7919V37.6792Z" fill="#174AA4"/>
<path d="M73.5691 34.342H78.5691L78.5691 32.342C78.5691 31.342 78.0691 31.342 76.0691 31.342H74.5691C73.0691 31.342 73.5691 32.842 73.5691 34.342Z" fill="#F6F6F7"/>
<path d="M77.569 36.842C78.769 36.842 79.069 36.842 79.069 37.842L79.0691 45.342C80.6691 45.742 81.4024 44.842 81.5691 44.342V35.342C81.5691 34.542 80.5691 34.342 80.0691 34.342H78.5691H73.5691H73.069C71.469 34.342 71.5691 36.842 73.069 36.842H73.5691H77.569Z" fill="#F5F5FB"/>
<path d="M76.0691 31.342C76.7138 31.342 77.2026 31.342 77.5691 31.3755V28.842C77.5691 27.242 74.5691 27.342 74.5691 28.842V31.342H76.0691Z" fill="#147AD6"/>
<path d="M79.069 51.342L78.569 51.342V51.342L79.069 51.342ZM79.069 37.842H78.569V37.842L79.069 37.842ZM81.5691 44.342L82.0434 44.5001L82.0691 44.4231V44.342H81.5691ZM78.5691 32.342L79.0691 32.342V32.342L78.5691 32.342ZM77.5691 31.3755L77.5236 31.8734L78.0691 31.9233V31.3755H77.5691ZM73.5691 51.342L73.0691 51.342L73.5691 51.342ZM73.5691 47.342L74.0691 47.342V47.342H73.5691ZM75.5691 55.842C77.3024 55.842 78.4406 55.6118 79.0412 54.7538C79.3314 54.3392 79.4535 53.8336 79.5116 53.2854C79.5697 52.7376 79.5691 52.0827 79.569 51.342L78.569 51.342C78.5691 52.1013 78.5684 52.6964 78.5172 53.1799C78.4659 53.663 78.3693 53.9699 78.222 54.1803C77.9476 54.5723 77.3358 54.842 75.5691 54.842V55.842ZM79.569 37.842C79.569 37.3506 79.5113 36.8074 79.0119 36.5299C78.8033 36.414 78.5655 36.3763 78.3492 36.3592C78.1281 36.3416 77.8617 36.342 77.569 36.342V37.342C77.8764 37.342 78.0974 37.3423 78.2701 37.356C78.4476 37.3701 78.5098 37.3949 78.5262 37.4041C78.5287 37.4054 78.5237 37.4026 78.5189 37.3966C78.5151 37.3918 78.5205 37.3963 78.5291 37.422C78.5498 37.484 78.569 37.6058 78.569 37.842H79.569ZM73.069 36.342C72.8479 36.342 72.6992 36.2559 72.5954 36.1313C72.4826 35.9959 72.4108 35.7974 72.4065 35.582C72.4021 35.3665 72.4659 35.1763 72.5697 35.0496C72.6633 34.9356 72.8129 34.842 73.069 34.842V33.842C72.5251 33.842 72.0873 34.0609 71.7965 34.4156C71.5159 34.7577 71.3985 35.1925 71.4067 35.602C71.4148 36.0116 71.5493 36.4381 71.8271 36.7715C72.1139 37.1156 72.5402 37.342 73.069 37.342V36.342ZM73.069 34.842H73.5691V33.842H73.069V34.842ZM73.5691 34.842H78.5691V33.842H73.5691V34.842ZM78.5691 34.842H80.0691V33.842H78.5691V34.842ZM80.0691 34.842C80.2704 34.842 80.5654 34.8849 80.7902 34.9927C81.0034 35.0951 81.0691 35.2046 81.0691 35.342H82.0691C82.0691 34.6793 81.6348 34.2889 81.2229 34.0912C80.8227 33.8991 80.3678 33.842 80.0691 33.842V34.842ZM81.0691 35.342C81.0691 35.3435 81.0691 35.3451 81.0691 35.3467C81.0691 35.3483 81.0691 35.3499 81.0691 35.3516C81.0691 35.3532 81.0691 35.3549 81.0691 35.3565C81.0691 35.3582 81.0691 35.3599 81.0691 35.3616C81.0691 35.3633 81.0691 35.365 81.0691 35.3668C81.0691 35.3685 81.0691 35.3703 81.0691 35.372C81.0691 35.3738 81.0691 35.3756 81.0691 35.3774C81.0691 35.3792 81.0691 35.3811 81.0691 35.3829C81.0691 35.3848 81.0691 35.3866 81.0691 35.3885C81.0691 35.3904 81.0691 35.3923 81.0691 35.3942C81.0691 35.3961 81.0691 35.3981 81.0691 35.4C81.0691 35.402 81.0691 35.404 81.0691 35.4059C81.0691 35.4079 81.0691 35.4099 81.0691 35.412C81.0691 35.414 81.0691 35.416 81.0691 35.4181C81.0691 35.4201 81.0691 35.4222 81.0691 35.4243C81.0691 35.4264 81.0691 35.4285 81.0691 35.4306C81.0691 35.4327 81.0691 35.4349 81.0691 35.4371C81.0691 35.4392 81.0691 35.4414 81.0691 35.4436C81.0691 35.4458 81.0691 35.448 81.0691 35.4502C81.0691 35.4524 81.0691 35.4547 81.0691 35.457C81.0691 35.4592 81.0691 35.4615 81.0691 35.4638C81.0691 35.4661 81.0691 35.4684 81.0691 35.4707C81.0691 35.4731 81.0691 35.4754 81.0691 35.4778C81.0691 35.4801 81.0691 35.4825 81.0691 35.4849C81.0691 35.4873 81.0691 35.4897 81.0691 35.4921C81.0691 35.4946 81.0691 35.497 81.0691 35.4995C81.0691 35.5019 81.0691 35.5044 81.0691 35.5069C81.0691 35.5094 81.0691 35.5119 81.0691 35.5145C81.0691 35.517 81.0691 35.5195 81.0691 35.5221C81.0691 35.5247 81.0691 35.5272 81.0691 35.5298C81.0691 35.5324 81.0691 35.535 81.0691 35.5377C81.0691 35.5403 81.0691 35.5429 81.0691 35.5456C81.0691 35.5483 81.0691 35.5509 81.0691 35.5536C81.0691 35.5563 81.0691 35.559 81.0691 35.5618C81.0691 35.5645 81.0691 35.5672 81.0691 35.57C81.0691 35.5727 81.0691 35.5755 81.0691 35.5783C81.0691 35.5811 81.0691 35.5839 81.0691 35.5867C81.0691 35.5895 81.0691 35.5924 81.0691 35.5952C81.0691 35.5981 81.0691 35.6009 81.0691 35.6038C81.0691 35.6067 81.0691 35.6096 81.0691 35.6125C81.0691 35.6154 81.0691 35.6184 81.0691 35.6213C81.0691 35.6243 81.0691 35.6272 81.0691 35.6302C81.0691 35.6332 81.0691 35.6362 81.0691 35.6392C81.0691 35.6422 81.0691 35.6452 81.0691 35.6483C81.0691 35.6513 81.0691 35.6544 81.0691 35.6575C81.0691 35.6605 81.0691 35.6636 81.0691 35.6667C81.0691 35.6698 81.0691 35.6729 81.0691 35.6761C81.0691 35.6792 81.0691 35.6824 81.0691 35.6855C81.0691 35.6887 81.0691 35.6919 81.0691 35.6951C81.0691 35.6983 81.0691 35.7015 81.0691 35.7047C81.0691 35.7079 81.0691 35.7112 81.0691 35.7144C81.0691 35.7177 81.0691 35.721 81.0691 35.7242C81.0691 35.7275 81.0691 35.7308 81.0691 35.7342C81.0691 35.7375 81.0691 35.7408 81.0691 35.7442C81.0691 35.7475 81.0691 35.7509 81.0691 35.7542C81.0691 35.7576 81.0691 35.761 81.0691 35.7644C81.0691 35.7678 81.0691 35.7712 81.0691 35.7747C81.0691 35.7781 81.0691 35.7816 81.0691 35.785C81.0691 35.7885 81.0691 35.792 81.0691 35.7955C81.0691 35.799 81.0691 35.8025 81.0691 35.806C81.0691 35.8095 81.0691 35.8131 81.0691 35.8166C81.0691 35.8202 81.0691 35.8238 81.0691 35.8273C81.0691 35.8309 81.0691 35.8345 81.0691 35.8381C81.0691 35.8417 81.0691 35.8454 81.0691 35.849C81.0691 35.8527 81.0691 35.8563 81.0691 35.86C81.0691 35.8637 81.0691 35.8673 81.0691 35.871C81.0691 35.8747 81.0691 35.8785 81.0691 35.8822C81.0691 35.8859 81.0691 35.8897 81.0691 35.8934C81.0691 35.8972 81.0691 35.9009 81.0691 35.9047C81.0691 35.9085 81.0691 35.9123 81.0691 35.9161C81.0691 35.9199 81.0691 35.9238 81.0691 35.9276C81.0691 35.9314 81.0691 35.9353 81.0691 35.9392C81.0691 35.943 81.0691 35.9469 81.0691 35.9508C81.0691 35.9547 81.0691 35.9586 81.0691 35.9625C81.0691 35.9665 81.0691 35.9704 81.0691 35.9744C81.0691 35.9783 81.0691 35.9823 81.0691 35.9863C81.0691 35.9902 81.0691 35.9942 81.0691 35.9982C81.0691 36.0022 81.0691 36.0063 81.0691 36.0103C81.0691 36.0143 81.0691 36.0184 81.0691 36.0224C81.0691 36.0265 81.0691 36.0306 81.0691 36.0347C81.0691 36.0388 81.0691 36.0429 81.0691 36.047C81.0691 36.0511 81.0691 36.0552 81.0691 36.0594C81.0691 36.0635 81.0691 36.0677 81.0691 36.0718C81.0691 36.076 81.0691 36.0802 81.0691 36.0844C81.0691 36.0886 81.0691 36.0928 81.0691 36.097C81.0691 36.1012 81.0691 36.1055 81.0691 36.1097C81.0691 36.114 81.0691 36.1182 81.0691 36.1225C81.0691 36.1268 81.0691 36.1311 81.0691 36.1354C81.0691 36.1397 81.0691 36.144 81.0691 36.1483C81.0691 36.1527 81.0691 36.157 81.0691 36.1613C81.0691 36.1657 81.0691 36.1701 81.0691 36.1744C81.0691 36.1788 81.0691 36.1832 81.0691 36.1876C81.0691 36.192 81.0691 36.1965 81.0691 36.2009C81.0691 36.2053 81.0691 36.2098 81.0691 36.2142C81.0691 36.2187 81.0691 36.2231 81.0691 36.2276C81.0691 36.2321 81.0691 36.2366 81.0691 36.2411C81.0691 36.2456 81.0691 36.2501 81.0691 36.2547C81.0691 36.2592 81.0691 36.2637 81.0691 36.2683C81.0691 36.2729 81.0691 36.2774 81.0691 36.282C81.0691 36.2866 81.0691 36.2912 81.0691 36.2958C81.0691 36.3004 81.0691 36.305 81.0691 36.3097C81.0691 36.3143 81.0691 36.3189 81.0691 36.3236C81.0691 36.3282 81.0691 36.3329 81.0691 36.3376C81.0691 36.3423 81.0691 36.347 81.0691 36.3517C81.0691 36.3564 81.0691 36.3611 81.0691 36.3658C81.0691 36.3706 81.0691 36.3753 81.0691 36.3801C81.0691 36.3848 81.0691 36.3896 81.0691 36.3944C81.0691 36.3991 81.0691 36.4039 81.0691 36.4087C81.0691 36.4135 81.0691 36.4183 81.0691 36.4232C81.0691 36.428 81.0691 36.4328 81.0691 36.4377C81.0691 36.4425 81.0691 36.4474 81.0691 36.4523C81.0691 36.4571 81.0691 36.462 81.0691 36.4669C81.0691 36.4718 81.0691 36.4767 81.0691 36.4817C81.0691 36.4866 81.0691 36.4915 81.0691 36.4964C81.0691 36.5014 81.0691 36.5063 81.0691 36.5113C81.0691 36.5163 81.0691 36.5213 81.0691 36.5262C81.0691 36.5312 81.0691 36.5362 81.0691 36.5412C81.0691 36.5463 81.0691 36.5513 81.0691 36.5563C81.0691 36.5614 81.0691 36.5664 81.0691 36.5715C81.0691 36.5765 81.0691 36.5816 81.0691 36.5867C81.0691 36.5917 81.0691 36.5968 81.0691 36.6019C81.0691 36.607 81.0691 36.6122 81.0691 36.6173C81.0691 36.6224 81.0691 36.6275 81.0691 36.6327C81.0691 36.6378 81.0691 36.643 81.0691 36.6482C81.0691 36.6533 81.0691 36.6585 81.0691 36.6637C81.0691 36.6689 81.0691 36.6741 81.0691 36.6793C81.0691 36.6845 81.0691 36.6898 81.0691 36.695C81.0691 36.7002 81.0691 36.7055 81.0691 36.7107C81.0691 36.716 81.0691 36.7213 81.0691 36.7265C81.0691 36.7318 81.0691 36.7371 81.0691 36.7424C81.0691 36.7477 81.0691 36.753 81.0691 36.7583C81.0691 36.7637 81.0691 36.769 81.0691 36.7743C81.0691 36.7797 81.0691 36.785 81.0691 36.7904C81.0691 36.7958 81.0691 36.8011 81.0691 36.8065C81.0691 36.8119 81.0691 36.8173 81.0691 36.8227C81.0691 36.8281 81.0691 36.8335 81.0691 36.839C81.0691 36.8444 81.0691 36.8498 81.0691 36.8553C81.0691 36.8607 81.0691 36.8662 81.0691 36.8716C81.0691 36.8771 81.0691 36.8826 81.0691 36.8881C81.0691 36.8936 81.0691 36.8991 81.0691 36.9046C81.0691 36.9101 81.0691 36.9156 81.0691 36.9211C81.0691 36.9267 81.0691 36.9322 81.0691 36.9377C81.0691 36.9433 81.0691 36.9488 81.0691 36.9544C81.0691 36.96 81.0691 36.9656 81.0691 36.9711C81.0691 36.9767 81.0691 36.9823 81.0691 36.9879C81.0691 36.9936 81.0691 36.9992 81.0691 37.0048C81.0691 37.0104 81.0691 37.0161 81.0691 37.0217C81.0691 37.0274 81.0691 37.033 81.0691 37.0387C81.0691 37.0443 81.0691 37.05 81.0691 37.0557C81.0691 37.0614 81.0691 37.0671 81.0691 37.0728C81.0691 37.0785 81.0691 37.0842 81.0691 37.0899C81.0691 37.0957 81.0691 37.1014 81.0691 37.1071C81.0691 37.1129 81.0691 37.1186 81.0691 37.1244C81.0691 37.1302 81.0691 37.1359 81.0691 37.1417C81.0691 37.1475 81.0691 37.1533 81.0691 37.1591C81.0691 37.1649 81.0691 37.1707 81.0691 37.1765C81.0691 37.1823 81.0691 37.1882 81.0691 37.194C81.0691 37.1998 81.0691 37.2057 81.0691 37.2115C81.0691 37.2174 81.0691 37.2233 81.0691 37.2291C81.0691 37.235 81.0691 37.2409 81.0691 37.2468C81.0691 37.2527 81.0691 37.2586 81.0691 37.2645C81.0691 37.2704 81.0691 37.2763 81.0691 37.2822C81.0691 37.2882 81.0691 37.2941 81.0691 37.3C81.0691 37.306 81.0691 37.3119 81.0691 37.3179C81.0691 37.3239 81.0691 37.3298 81.0691 37.3358C81.0691 37.3418 81.0691 37.3478 81.0691 37.3538C81.0691 37.3598 81.0691 37.3658 81.0691 37.3718C81.0691 37.3778 81.0691 37.3838 81.0691 37.3899C81.0691 37.3959 81.0691 37.4019 81.0691 37.408C81.0691 37.414 81.0691 37.4201 81.0691 37.4261C81.0691 37.4322 81.0691 37.4383 81.0691 37.4444C81.0691 37.4504 81.0691 37.4565 81.0691 37.4626C81.0691 37.4687 81.0691 37.4748 81.0691 37.481C81.0691 37.4871 81.0691 37.4932 81.0691 37.4993C81.0691 37.5055 81.0691 37.5116 81.0691 37.5177C81.0691 37.5239 81.0691 37.53 81.0691 37.5362C81.0691 37.5424 81.0691 37.5485 81.0691 37.5547C81.0691 37.5609 81.0691 37.5671 81.0691 37.5733C81.0691 37.5795 81.0691 37.5857 81.0691 37.5919C81.0691 37.5981 81.0691 37.6043 81.0691 37.6106C81.0691 37.6168 81.0691 37.623 81.0691 37.6293C81.0691 37.6355 81.0691 37.6418 81.0691 37.648C81.0691 37.6543 81.0691 37.6606 81.0691 37.6668C81.0691 37.6731 81.0691 37.6794 81.0691 37.6857C81.0691 37.692 81.0691 37.6983 81.0691 37.7046C81.0691 37.7109 81.0691 37.7172 81.0691 37.7235C81.0691 37.7298 81.0691 37.7362 81.0691 37.7425C81.0691 37.7488 81.0691 37.7552 81.0691 37.7615C81.0691 37.7679 81.0691 37.7742 81.0691 37.7806C81.0691 37.787 81.0691 37.7933 81.0691 37.7997C81.0691 37.8061 81.0691 37.8125 81.0691 37.8189C81.0691 37.8253 81.0691 37.8317 81.0691 37.8381C81.0691 37.8445 81.0691 37.8509 81.0691 37.8573C81.0691 37.8638 81.0691 37.8702 81.0691 37.8766C81.0691 37.8831 81.0691 37.8895 81.0691 37.896C81.0691 37.9024 81.0691 37.9089 81.0691 37.9153C81.0691 37.9218 81.0691 37.9283 81.0691 37.9347C81.0691 37.9412 81.0691 37.9477 81.0691 37.9542C81.0691 37.9607 81.0691 37.9672 81.0691 37.9737C81.0691 37.9802 81.0691 37.9867 81.0691 37.9932C81.0691 37.9998 81.0691 38.0063 81.0691 38.0128C81.0691 38.0194 81.0691 38.0259 81.0691 38.0324C81.0691 38.039 81.0691 38.0455 81.0691 38.0521C81.0691 38.0587 81.0691 38.0652 81.0691 38.0718C81.0691 38.0784 81.0691 38.085 81.0691 38.0915C81.0691 38.0981 81.0691 38.1047 81.0691 38.1113C81.0691 38.1179 81.0691 38.1245 81.0691 38.1311C81.0691 38.1377 81.0691 38.1444 81.0691 38.151C81.0691 38.1576 81.0691 38.1642 81.0691 38.1709C81.0691 38.1775 81.0691 38.1842 81.0691 38.1908C81.0691 38.1975 81.0691 38.2041 81.0691 38.2108C81.0691 38.2174 81.0691 38.2241 81.0691 38.2308C81.0691 38.2374 81.0691 38.2441 81.0691 38.2508C81.0691 38.2575 81.0691 38.2642 81.0691 38.2709C81.0691 38.2776 81.0691 38.2843 81.0691 38.291C81.0691 38.2977 81.0691 38.3044 81.0691 38.3111C81.0691 38.3179 81.0691 38.3246 81.0691 38.3313C81.0691 38.3381 81.0691 38.3448 81.0691 38.3515C81.0691 38.3583 81.0691 38.365 81.0691 38.3718C81.0691 38.3785 81.0691 38.3853 81.0691 38.3921C81.0691 38.3988 81.0691 38.4056 81.0691 38.4124C81.0691 38.4192 81.0691 38.4259 81.0691 38.4327C81.0691 38.4395 81.0691 38.4463 81.0691 38.4531C81.0691 38.4599 81.0691 38.4667 81.0691 38.4735C81.0691 38.4803 81.0691 38.4872 81.0691 38.494C81.0691 38.5008 81.0691 38.5076 81.0691 38.5145C81.0691 38.5213 81.0691 38.5281 81.0691 38.535C81.0691 38.5418 81.0691 38.5487 81.0691 38.5555C81.0691 38.5624 81.0691 38.5692 81.0691 38.5761C81.0691 38.5829 81.0691 38.5898 81.0691 38.5967C81.0691 38.6036 81.0691 38.6104 81.0691 38.6173C81.0691 38.6242 81.0691 38.6311 81.0691 38.638C81.0691 38.6449 81.0691 38.6518 81.0691 38.6587C81.0691 38.6656 81.0691 38.6725 81.0691 38.6794C81.0691 38.6863 81.0691 38.6932 81.0691 38.7002C81.0691 38.7071 81.0691 38.714 81.0691 38.7209C81.0691 38.7279 81.0691 38.7348 81.0691 38.7417C81.0691 38.7487 81.0691 38.7556 81.0691 38.7626C81.0691 38.7695 81.0691 38.7765 81.0691 38.7834C81.0691 38.7904 81.0691 38.7974 81.0691 38.8043C81.0691 38.8113 81.0691 38.8183 81.0691 38.8252C81.0691 38.8322 81.0691 38.8392 81.0691 38.8462C81.0691 38.8532 81.0691 38.8602 81.0691 38.8672C81.0691 38.8742 81.0691 38.8812 81.0691 38.8882C81.0691 38.8952 81.0691 38.9022 81.0691 38.9092C81.0691 38.9162 81.0691 38.9232 81.0691 38.9302C81.0691 38.9372 81.0691 38.9443 81.0691 38.9513C81.0691 38.9583 81.0691 38.9654 81.0691 38.9724C81.0691 38.9794 81.0691 38.9865 81.0691 38.9935C81.0691 39.0006 81.0691 39.0076 81.0691 39.0146C81.0691 39.0217 81.0691 39.0288 81.0691 39.0358C81.0691 39.0429 81.0691 39.0499 81.0691 39.057C81.0691 39.0641 81.0691 39.0711 81.0691 39.0782C81.0691 39.0853 81.0691 39.0924 81.0691 39.0995C81.0691 39.1065 81.0691 39.1136 81.0691 39.1207C81.0691 39.1278 81.0691 39.1349 81.0691 39.142C81.0691 39.1491 81.0691 39.1562 81.0691 39.1633C81.0691 39.1704 81.0691 39.1775 81.0691 39.1846C81.0691 39.1917 81.0691 39.1988 81.0691 39.2059C81.0691 39.2131 81.0691 39.2202 81.0691 39.2273C81.0691 39.2344 81.0691 39.2416 81.0691 39.2487C81.0691 39.2558 81.0691 39.263 81.0691 39.2701C81.0691 39.2772 81.0691 39.2844 81.0691 39.2915C81.0691 39.2987 81.0691 39.3058 81.0691 39.313C81.0691 39.3201 81.0691 39.3273 81.0691 39.3344C81.0691 39.3416 81.0691 39.3487 81.0691 39.3559C81.0691 39.3631 81.0691 39.3702 81.0691 39.3774C81.0691 39.3846 81.0691 39.3917 81.0691 39.3989C81.0691 39.4061 81.0691 39.4132 81.0691 39.4204C81.0691 39.4276 81.0691 39.4348 81.0691 39.442C81.0691 39.4492 81.0691 39.4563 81.0691 39.4635C81.0691 39.4707 81.0691 39.4779 81.0691 39.4851C81.0691 39.4923 81.0691 39.4995 81.0691 39.5067C81.0691 39.5139 81.0691 39.5211 81.0691 39.5283C81.0691 39.5355 81.0691 39.5427 81.0691 39.5499C81.0691 39.5572 81.0691 39.5644 81.0691 39.5716C81.0691 39.5788 81.0691 39.586 81.0691 39.5932C81.0691 39.6005 81.0691 39.6077 81.0691 39.6149C81.0691 39.6221 81.0691 39.6294 81.0691 39.6366C81.0691 39.6438 81.0691 39.6511 81.0691 39.6583C81.0691 39.6655 81.0691 39.6728 81.0691 39.68C81.0691 39.6872 81.0691 39.6945 81.0691 39.7017C81.0691 39.709 81.0691 39.7162 81.0691 39.7235C81.0691 39.7307 81.0691 39.738 81.0691 39.7452C81.0691 39.7525 81.0691 39.7597 81.0691 39.767C81.0691 39.7742 81.0691 39.7815 81.0691 39.7887C81.0691 39.796 81.0691 39.8033 81.0691 39.8105C81.0691 39.8178 81.0691 39.8251 81.0691 39.8323C81.0691 39.8396 81.0691 39.8469 81.0691 39.8541C81.0691 39.8614 81.0691 39.8687 81.0691 39.8759C81.0691 39.8832 81.0691 39.8905 81.0691 39.8978C81.0691 39.905 81.0691 39.9123 81.0691 39.9196C81.0691 39.9269 81.0691 39.9342 81.0691 39.9414C81.0691 39.9487 81.0691 39.956 81.0691 39.9633C81.0691 39.9706 81.0691 39.9779 81.0691 39.9851C81.0691 39.9924 81.0691 39.9997 81.0691 40.007C81.0691 40.0143 81.0691 40.0216 81.0691 40.0289C81.0691 40.0362 81.0691 40.0435 81.0691 40.0508C81.0691 40.0581 81.0691 40.0654 81.0691 40.0727C81.0691 40.08 81.0691 40.0873 81.0691 40.0946C81.0691 40.1019 81.0691 40.1092 81.0691 40.1165C81.0691 40.1238 81.0691 40.1311 81.0691 40.1384C81.0691 40.1457 81.0691 40.153 81.0691 40.1603C81.0691 40.1676 81.0691 40.1749 81.0691 40.1822C81.0691 40.1895 81.0691 40.1968 81.0691 40.2041C81.0691 40.2114 81.0691 40.2188 81.0691 40.2261C81.0691 40.2334 81.0691 40.2407 81.0691 40.248C81.0691 40.2553 81.0691 40.2626 81.0691 40.2699C81.0691 40.2773 81.0691 40.2846 81.0691 40.2919C81.0691 40.2992 81.0691 40.3065 81.0691 40.3138C81.0691 40.3211 81.0691 40.3285 81.0691 40.3358C81.0691 40.3431 81.0691 40.3504 81.0691 40.3577C81.0691 40.365 81.0691 40.3724 81.0691 40.3797C81.0691 40.387 81.0691 40.3943 81.0691 40.4016C81.0691 40.409 81.0691 40.4163 81.0691 40.4236C81.0691 40.4309 81.0691 40.4382 81.0691 40.4456C81.0691 40.4529 81.0691 40.4602 81.0691 40.4675C81.0691 40.4748 81.0691 40.4822 81.0691 40.4895C81.0691 40.4968 81.0691 40.5041 81.0691 40.5114C81.0691 40.5188 81.0691 40.5261 81.0691 40.5334C81.0691 40.5407 81.0691 40.548 81.0691 40.5554C81.0691 40.5627 81.0691 40.57 81.0691 40.5773C81.0691 40.5846 81.0691 40.592 81.0691 40.5993C81.0691 40.6066 81.0691 40.6139 81.0691 40.6212C81.0691 40.6285 81.0691 40.6359 81.0691 40.6432C81.0691 40.6505 81.0691 40.6578 81.0691 40.6651C81.0691 40.6725 81.0691 40.6798 81.0691 40.6871C81.0691 40.6944 81.0691 40.7017 81.0691 40.709C81.0691 40.7164 81.0691 40.7237 81.0691 40.731C81.0691 40.7383 81.0691 40.7456 81.0691 40.7529C81.0691 40.7602 81.0691 40.7675 81.0691 40.7749C81.0691 40.7822 81.0691 40.7895 81.0691 40.7968C81.0691 40.8041 81.0691 40.8114 81.0691 40.8187C81.0691 40.826 81.0691 40.8333 81.0691 40.8406C81.0691 40.848 81.0691 40.8553 81.0691 40.8626C81.0691 40.8699 81.0691 40.8772 81.0691 40.8845C81.0691 40.8918 81.0691 40.8991 81.0691 40.9064C81.0691 40.9137 81.0691 40.921 81.0691 40.9283C81.0691 40.9356 81.0691 40.9429 81.0691 40.9502C81.0691 40.9575 81.0691 40.9648 81.0691 40.9721C81.0691 40.9794 81.0691 40.9867 81.0691 40.994C81.0691 41.0012 81.0691 41.0085 81.0691 41.0158C81.0691 41.0231 81.0691 41.0304 81.0691 41.0377C81.0691 41.045 81.0691 41.0523 81.0691 41.0596C81.0691 41.0668 81.0691 41.0741 81.0691 41.0814C81.0691 41.0887 81.0691 41.096 81.0691 41.1032C81.0691 41.1105 81.0691 41.1178 81.0691 41.1251C81.0691 41.1323 81.0691 41.1396 81.0691 41.1469C81.0691 41.1542 81.0691 41.1614 81.0691 41.1687C81.0691 41.176 81.0691 41.1832 81.0691 41.1905C81.0691 41.1978 81.0691 41.205 81.0691 41.2123C81.0691 41.2196 81.0691 41.2268 81.0691 41.2341C81.0691 41.2413 81.0691 41.2486 81.0691 41.2558C81.0691 41.2631 81.0691 41.2704 81.0691 41.2776C81.0691 41.2849 81.0691 41.2921 81.0691 41.2993C81.0691 41.3066 81.0691 41.3138 81.0691 41.3211C81.0691 41.3283 81.0691 41.3356 81.0691 41.3428C81.0691 41.35 81.0691 41.3573 81.0691 41.3645C81.0691 41.3717 81.0691 41.379 81.0691 41.3862C81.0691 41.3934 81.0691 41.4007 81.0691 41.4079C81.0691 41.4151 81.0691 41.4223 81.0691 41.4295C81.0691 41.4368 81.0691 41.444 81.0691 41.4512C81.0691 41.4584 81.0691 41.4656 81.0691 41.4728C81.0691 41.48 81.0691 41.4873 81.0691 41.4945C81.0691 41.5017 81.0691 41.5089 81.0691 41.5161C81.0691 41.5233 81.0691 41.5305 81.0691 41.5377C81.0691 41.5449 81.0691 41.552 81.0691 41.5592C81.0691 41.5664 81.0691 41.5736 81.0691 41.5808C81.0691 41.588 81.0691 41.5952 81.0691 41.6023C81.0691 41.6095 81.0691 41.6167 81.0691 41.6239C81.0691 41.631 81.0691 41.6382 81.0691 41.6454C81.0691 41.6525 81.0691 41.6597 81.0691 41.6669C81.0691 41.674 81.0691 41.6812 81.0691 41.6883C81.0691 41.6955 81.0691 41.7026 81.0691 41.7098C81.0691 41.7169 81.0691 41.7241 81.0691 41.7312C81.0691 41.7384 81.0691 41.7455 81.0691 41.7526C81.0691 41.7598 81.0691 41.7669 81.0691 41.774C81.0691 41.7812 81.0691 41.7883 81.0691 41.7954C81.0691 41.8025 81.0691 41.8097 81.0691 41.8168C81.0691 41.8239 81.0691 41.831 81.0691 41.8381C81.0691 41.8452 81.0691 41.8523 81.0691 41.8594C81.0691 41.8665 81.0691 41.8736 81.0691 41.8807C81.0691 41.8878 81.0691 41.8949 81.0691 41.902C81.0691 41.9091 81.0691 41.9162 81.0691 41.9232C81.0691 41.9303 81.0691 41.9374 81.0691 41.9445C81.0691 41.9515 81.0691 41.9586 81.0691 41.9657C81.0691 41.9727 81.0691 41.9798 81.0691 41.9869C81.0691 41.9939 81.0691 42.001 81.0691 42.008C81.0691 42.0151 81.0691 42.0221 81.0691 42.0292C81.0691 42.0362 81.0691 42.0432 81.0691 42.0503C81.0691 42.0573 81.0691 42.0643 81.0691 42.0714C81.0691 42.0784 81.0691 42.0854 81.0691 42.0924C81.0691 42.0994 81.0691 42.1065 81.0691 42.1135C81.0691 42.1205 81.0691 42.1275 81.0691 42.1345C81.0691 42.1415 81.0691 42.1485 81.0691 42.1555C81.0691 42.1625 81.0691 42.1694 81.0691 42.1764C81.0691 42.1834 81.0691 42.1904 81.0691 42.1974C81.0691 42.2043 81.0691 42.2113 81.0691 42.2183C81.0691 42.2252 81.0691 42.2322 81.0691 42.2392C81.0691 42.2461 81.0691 42.2531 81.0691 42.26C81.0691 42.267 81.0691 42.2739 81.0691 42.2808C81.0691 42.2878 81.0691 42.2947 81.0691 42.3016C81.0691 42.3086 81.0691 42.3155 81.0691 42.3224C81.0691 42.3293 81.0691 42.3363 81.0691 42.3432C81.0691 42.3501 81.0691 42.357 81.0691 42.3639C81.0691 42.3708 81.0691 42.3777 81.0691 42.3846C81.0691 42.3915 81.0691 42.3983 81.0691 42.4052C81.0691 42.4121 81.0691 42.419 81.0691 42.4258C81.0691 42.4327 81.0691 42.4396 81.0691 42.4464C81.0691 42.4533 81.0691 42.4602 81.0691 42.467C81.0691 42.4739 81.0691 42.4807 81.0691 42.4875C81.0691 42.4944 81.0691 42.5012 81.0691 42.508C81.0691 42.5149 81.0691 42.5217 81.0691 42.5285C81.0691 42.5353 81.0691 42.5422 81.0691 42.549C81.0691 42.5558 81.0691 42.5626 81.0691 42.5694C81.0691 42.5762 81.0691 42.583 81.0691 42.5897C81.0691 42.5965 81.0691 42.6033 81.0691 42.6101C81.0691 42.6169 81.0691 42.6236 81.0691 42.6304C81.0691 42.6372 81.0691 42.6439 81.0691 42.6507C81.0691 42.6574 81.0691 42.6642 81.0691 42.6709C81.0691 42.6776 81.0691 42.6844 81.0691 42.6911C81.0691 42.6978 81.0691 42.7046 81.0691 42.7113C81.0691 42.718 81.0691 42.7247 81.0691 42.7314C81.0691 42.7381 81.0691 42.7448 81.0691 42.7515C81.0691 42.7582 81.0691 42.7649 81.0691 42.7716C81.0691 42.7783 81.0691 42.7849 81.0691 42.7916C81.0691 42.7983 81.0691 42.805 81.0691 42.8116C81.0691 42.8183 81.0691 42.8249 81.0691 42.8316C81.0691 42.8382 81.0691 42.8449 81.0691 42.8515C81.0691 42.8581 81.0691 42.8647 81.0691 42.8714C81.0691 42.878 81.0691 42.8846 81.0691 42.8912C81.0691 42.8978 81.0691 42.9044 81.0691 42.911C81.0691 42.9176 81.0691 42.9242 81.0691 42.9308C81.0691 42.9374 81.0691 42.9439 81.0691 42.9505C81.0691 42.9571 81.0691 42.9636 81.0691 42.9702C81.0691 42.9768 81.0691 42.9833 81.0691 42.9899C81.0691 42.9964 81.0691 43.0029 81.0691 43.0095C81.0691 43.016 81.0691 43.0225 81.0691 43.029C81.0691 43.0356 81.0691 43.0421 81.0691 43.0486C81.0691 43.0551 81.0691 43.0616 81.0691 43.0681C81.0691 43.0745 81.0691 43.081 81.0691 43.0875C81.0691 43.094 81.0691 43.1004 81.0691 43.1069C81.0691 43.1134 81.0691 43.1198 81.0691 43.1263C81.0691 43.1327 81.0691 43.1392 81.0691 43.1456C81.0691 43.152 81.0691 43.1585 81.0691 43.1649C81.0691 43.1713 81.0691 43.1777 81.0691 43.1841C81.0691 43.1905 81.0691 43.1969 81.0691 43.2033C81.0691 43.2097 81.0691 43.2161 81.0691 43.2225C81.0691 43.2288 81.0691 43.2352 81.0691 43.2416C81.0691 43.2479 81.0691 43.2543 81.0691 43.2606C81.0691 43.267 81.0691 43.2733 81.0691 43.2796C81.0691 43.286 81.0691 43.2923 81.0691 43.2986C81.0691 43.3049 81.0691 43.3112 81.0691 43.3175C81.0691 43.3238 81.0691 43.3301 81.0691 43.3364C81.0691 43.3427 81.0691 43.349 81.0691 43.3553C81.0691 43.3615 81.0691 43.3678 81.0691 43.3741C81.0691 43.3803 81.0691 43.3866 81.0691 43.3928C81.0691 43.399 81.0691 43.4053 81.0691 43.4115C81.0691 43.4177 81.0691 43.4239 81.0691 43.4301C81.0691 43.4363 81.0691 43.4425 81.0691 43.4487C81.0691 43.4549 81.0691 43.4611 81.0691 43.4673C81.0691 43.4735 81.0691 43.4796 81.0691 43.4858C81.0691 43.492 81.0691 43.4981 81.0691 43.5043C81.0691 43.5104 81.0691 43.5165 81.0691 43.5227C81.0691 43.5288 81.0691 43.5349 81.0691 43.541C81.0691 43.5471 81.0691 43.5532 81.0691 43.5593C81.0691 43.5654 81.0691 43.5715 81.0691 43.5776C81.0691 43.5837 81.0691 43.5897 81.0691 43.5958C81.0691 43.6019 81.0691 43.6079 81.0691 43.614C81.0691 43.62 81.0691 43.626 81.0691 43.6321C81.0691 43.6381 81.0691 43.6441 81.0691 43.6501C81.0691 43.6561 81.0691 43.6621 81.0691 43.6681C81.0691 43.6741 81.0691 43.6801 81.0691 43.6861C81.0691 43.692 81.0691 43.698 81.0691 43.704C81.0691 43.7099 81.0691 43.7159 81.0691 43.7218C81.0691 43.7278 81.0691 43.7337 81.0691 43.7396C81.0691 43.7455 81.0691 43.7514 81.0691 43.7574C81.0691 43.7633 81.0691 43.7692 81.0691 43.775C81.0691 43.7809 81.0691 43.7868 81.0691 43.7927C81.0691 43.7985 81.0691 43.8044 81.0691 43.8102C81.0691 43.8161 81.0691 43.8219 81.0691 43.8278C81.0691 43.8336 81.0691 43.8394 81.0691 43.8452C81.0691 43.8511 81.0691 43.8569 81.0691 43.8627C81.0691 43.8684 81.0691 43.8742 81.0691 43.88C81.0691 43.8858 81.0691 43.8916 81.0691 43.8973C81.0691 43.9031 81.0691 43.9088 81.0691 43.9146C81.0691 43.9203 81.0691 43.926 81.0691 43.9317C81.0691 43.9375 81.0691 43.9432 81.0691 43.9489C81.0691 43.9546 81.0691 43.9603 81.0691 43.9659C81.0691 43.9716 81.0691 43.9773 81.0691 43.983C81.0691 43.9886 81.0691 43.9943 81.0691 43.9999C81.0691 44.0056 81.0691 44.0112 81.0691 44.0168C81.0691 44.0224 81.0691 44.0281 81.0691 44.0337C81.0691 44.0393 81.0691 44.0449 81.0691 44.0504C81.0691 44.056 81.0691 44.0616 81.0691 44.0672C81.0691 44.0727 81.0691 44.0783 81.0691 44.0838C81.0691 44.0894 81.0691 44.0949 81.0691 44.1004C81.0691 44.1059 81.0691 44.1115 81.0691 44.117C81.0691 44.1225 81.0691 44.128 81.0691 44.1334C81.0691 44.1389 81.0691 44.1444 81.0691 44.1499C81.0691 44.1553 81.0691 44.1608 81.0691 44.1662C81.0691 44.1717 81.0691 44.1771 81.0691 44.1825C81.0691 44.1879 81.0691 44.1933 81.0691 44.1987C81.0691 44.2041 81.0691 44.2095 81.0691 44.2149C81.0691 44.2203 81.0691 44.2257 81.0691 44.231C81.0691 44.2364 81.0691 44.2417 81.0691 44.2471C81.0691 44.2524 81.0691 44.2577 81.0691 44.2631C81.0691 44.2684 81.0691 44.2737 81.0691 44.279C81.0691 44.2843 81.0691 44.2895 81.0691 44.2948C81.0691 44.3001 81.0691 44.3054 81.0691 44.3106C81.0691 44.3159 81.0691 44.3211 81.0691 44.3263C81.0691 44.3316 81.0691 44.3368 81.0691 44.342H82.0691C82.0691 44.3368 82.0691 44.3316 82.0691 44.3263C82.0691 44.3211 82.0691 44.3159 82.0691 44.3106C82.0691 44.3054 82.0691 44.3001 82.0691 44.2948C82.0691 44.2895 82.0691 44.2843 82.0691 44.279C82.0691 44.2737 82.0691 44.2684 82.0691 44.2631C82.0691 44.2577 82.0691 44.2524 82.0691 44.2471C82.0691 44.2417 82.0691 44.2364 82.0691 44.231C82.0691 44.2257 82.0691 44.2203 82.0691 44.2149C82.0691 44.2095 82.0691 44.2041 82.0691 44.1987C82.0691 44.1933 82.0691 44.1879 82.0691 44.1825C82.0691 44.1771 82.0691 44.1717 82.0691 44.1662C82.0691 44.1608 82.0691 44.1553 82.0691 44.1499C82.0691 44.1444 82.0691 44.1389 82.0691 44.1334C82.0691 44.128 82.0691 44.1225 82.0691 44.117C82.0691 44.1115 82.0691 44.1059 82.0691 44.1004C82.0691 44.0949 82.0691 44.0894 82.0691 44.0838C82.0691 44.0783 82.0691 44.0727 82.0691 44.0672C82.0691 44.0616 82.0691 44.056 82.0691 44.0504C82.0691 44.0449 82.0691 44.0393 82.0691 44.0337C82.0691 44.0281 82.0691 44.0224 82.0691 44.0168C82.0691 44.0112 82.0691 44.0056 82.0691 43.9999C82.0691 43.9943 82.0691 43.9886 82.0691 43.983C82.0691 43.9773 82.0691 43.9716 82.0691 43.9659C82.0691 43.9603 82.0691 43.9546 82.0691 43.9489C82.0691 43.9432 82.0691 43.9375 82.0691 43.9317C82.0691 43.926 82.0691 43.9203 82.0691 43.9146C82.0691 43.9088 82.0691 43.9031 82.0691 43.8973C82.0691 43.8916 82.0691 43.8858 82.0691 43.88C82.0691 43.8742 82.0691 43.8684 82.0691 43.8627C82.0691 43.8569 82.0691 43.8511 82.0691 43.8452C82.0691 43.8394 82.0691 43.8336 82.0691 43.8278C82.0691 43.8219 82.0691 43.8161 82.0691 43.8102C82.0691 43.8044 82.0691 43.7985 82.0691 43.7927C82.0691 43.7868 82.0691 43.7809 82.0691 43.775C82.0691 43.7692 82.0691 43.7633 82.0691 43.7574C82.0691 43.7514 82.0691 43.7455 82.0691 43.7396C82.0691 43.7337 82.0691 43.7278 82.0691 43.7218C82.0691 43.7159 82.0691 43.7099 82.0691 43.704C82.0691 43.698 82.0691 43.692 82.0691 43.6861C82.0691 43.6801 82.0691 43.6741 82.0691 43.6681C82.0691 43.6621 82.0691 43.6561 82.0691 43.6501C82.0691 43.6441 82.0691 43.6381 82.0691 43.6321C82.0691 43.626 82.0691 43.62 82.0691 43.614C82.0691 43.6079 82.0691 43.6019 82.0691 43.5958C82.0691 43.5897 82.0691 43.5837 82.0691 43.5776C82.0691 43.5715 82.0691 43.5654 82.0691 43.5593C82.0691 43.5532 82.0691 43.5471 82.0691 43.541C82.0691 43.5349 82.0691 43.5288 82.0691 43.5227C82.0691 43.5165 82.0691 43.5104 82.0691 43.5043C82.0691 43.4981 82.0691 43.492 82.0691 43.4858C82.0691 43.4796 82.0691 43.4735 82.0691 43.4673C82.0691 43.4611 82.0691 43.4549 82.0691 43.4487C82.0691 43.4425 82.0691 43.4363 82.0691 43.4301C82.0691 43.4239 82.0691 43.4177 82.0691 43.4115C82.0691 43.4053 82.0691 43.399 82.0691 43.3928C82.0691 43.3866 82.0691 43.3803 82.0691 43.3741C82.0691 43.3678 82.0691 43.3615 82.0691 43.3553C82.0691 43.349 82.0691 43.3427 82.0691 43.3364C82.0691 43.3301 82.0691 43.3238 82.0691 43.3175C82.0691 43.3112 82.0691 43.3049 82.0691 43.2986C82.0691 43.2923 82.0691 43.286 82.0691 43.2796C82.0691 43.2733 82.0691 43.267 82.0691 43.2606C82.0691 43.2543 82.0691 43.2479 82.0691 43.2416C82.0691 43.2352 82.0691 43.2288 82.0691 43.2225C82.0691 43.2161 82.0691 43.2097 82.0691 43.2033C82.0691 43.1969 82.0691 43.1905 82.0691 43.1841C82.0691 43.1777 82.0691 43.1713 82.0691 43.1649C82.0691 43.1585 82.0691 43.152 82.0691 43.1456C82.0691 43.1392 82.0691 43.1327 82.0691 43.1263C82.0691 43.1198 82.0691 43.1134 82.0691 43.1069C82.0691 43.1004 82.0691 43.094 82.0691 43.0875C82.0691 43.081 82.0691 43.0745 82.0691 43.0681C82.0691 43.0616 82.0691 43.0551 82.0691 43.0486C82.0691 43.0421 82.0691 43.0356 82.0691 43.029C82.0691 43.0225 82.0691 43.016 82.0691 43.0095C82.0691 43.0029 82.0691 42.9964 82.0691 42.9899C82.0691 42.9833 82.0691 42.9768 82.0691 42.9702C82.0691 42.9636 82.0691 42.9571 82.0691 42.9505C82.0691 42.9439 82.0691 42.9374 82.0691 42.9308C82.0691 42.9242 82.0691 42.9176 82.0691 42.911C82.0691 42.9044 82.0691 42.8978 82.0691 42.8912C82.0691 42.8846 82.0691 42.878 82.0691 42.8714C82.0691 42.8647 82.0691 42.8581 82.0691 42.8515C82.0691 42.8449 82.0691 42.8382 82.0691 42.8316C82.0691 42.8249 82.0691 42.8183 82.0691 42.8116C82.0691 42.805 82.0691 42.7983 82.0691 42.7916C82.0691 42.7849 82.0691 42.7783 82.0691 42.7716C82.0691 42.7649 82.0691 42.7582 82.0691 42.7515C82.0691 42.7448 82.0691 42.7381 82.0691 42.7314C82.0691 42.7247 82.0691 42.718 82.0691 42.7113C82.0691 42.7046 82.0691 42.6978 82.0691 42.6911C82.0691 42.6844 82.0691 42.6776 82.0691 42.6709C82.0691 42.6642 82.0691 42.6574 82.0691 42.6507C82.0691 42.6439 82.0691 42.6372 82.0691 42.6304C82.0691 42.6236 82.0691 42.6169 82.0691 42.6101C82.0691 42.6033 82.0691 42.5965 82.0691 42.5897C82.0691 42.583 82.0691 42.5762 82.0691 42.5694C82.0691 42.5626 82.0691 42.5558 82.0691 42.549C82.0691 42.5422 82.0691 42.5353 82.0691 42.5285C82.0691 42.5217 82.0691 42.5149 82.0691 42.508C82.0691 42.5012 82.0691 42.4944 82.0691 42.4875C82.0691 42.4807 82.0691 42.4739 82.0691 42.467C82.0691 42.4602 82.0691 42.4533 82.0691 42.4464C82.0691 42.4396 82.0691 42.4327 82.0691 42.4258C82.0691 42.419 82.0691 42.4121 82.0691 42.4052C82.0691 42.3983 82.0691 42.3915 82.0691 42.3846C82.0691 42.3777 82.0691 42.3708 82.0691 42.3639C82.0691 42.357 82.0691 42.3501 82.0691 42.3432C82.0691 42.3363 82.0691 42.3293 82.0691 42.3224C82.0691 42.3155 82.0691 42.3086 82.0691 42.3016C82.0691 42.2947 82.0691 42.2878 82.0691 42.2808C82.0691 42.2739 82.0691 42.267 82.0691 42.26C82.0691 42.2531 82.0691 42.2461 82.0691 42.2392C82.0691 42.2322 82.0691 42.2252 82.0691 42.2183C82.0691 42.2113 82.0691 42.2043 82.0691 42.1974C82.0691 42.1904 82.0691 42.1834 82.0691 42.1764C82.0691 42.1694 82.0691 42.1625 82.0691 42.1555C82.0691 42.1485 82.0691 42.1415 82.0691 42.1345C82.0691 42.1275 82.0691 42.1205 82.0691 42.1135C82.0691 42.1065 82.0691 42.0994 82.0691 42.0924C82.0691 42.0854 82.0691 42.0784 82.0691 42.0714C82.0691 42.0643 82.0691 42.0573 82.0691 42.0503C82.0691 42.0432 82.0691 42.0362 82.0691 42.0292C82.0691 42.0221 82.0691 42.0151 82.0691 42.008C82.0691 42.001 82.0691 41.9939 82.0691 41.9869C82.0691 41.9798 82.0691 41.9727 82.0691 41.9657C82.0691 41.9586 82.0691 41.9515 82.0691 41.9445C82.0691 41.9374 82.0691 41.9303 82.0691 41.9232C82.0691 41.9162 82.0691 41.9091 82.0691 41.902C82.0691 41.8949 82.0691 41.8878 82.0691 41.8807C82.0691 41.8736 82.0691 41.8665 82.0691 41.8594C82.0691 41.8523 82.0691 41.8452 82.0691 41.8381C82.0691 41.831 82.0691 41.8239 82.0691 41.8168C82.0691 41.8097 82.0691 41.8025 82.0691 41.7954C82.0691 41.7883 82.0691 41.7812 82.0691 41.774C82.0691 41.7669 82.0691 41.7598 82.0691 41.7526C82.0691 41.7455 82.0691 41.7384 82.0691 41.7312C82.0691 41.7241 82.0691 41.7169 82.0691 41.7098C82.0691 41.7026 82.0691 41.6955 82.0691 41.6883C82.0691 41.6812 82.0691 41.674 82.0691 41.6669C82.0691 41.6597 82.0691 41.6525 82.0691 41.6454C82.0691 41.6382 82.0691 41.631 82.0691 41.6239C82.0691 41.6167 82.0691 41.6095 82.0691 41.6023C82.0691 41.5952 82.0691 41.588 82.0691 41.5808C82.0691 41.5736 82.0691 41.5664 82.0691 41.5592C82.0691 41.552 82.0691 41.5449 82.0691 41.5377C82.0691 41.5305 82.0691 41.5233 82.0691 41.5161C82.0691 41.5089 82.0691 41.5017 82.0691 41.4945C82.0691 41.4873 82.0691 41.48 82.0691 41.4728C82.0691 41.4656 82.0691 41.4584 82.0691 41.4512C82.0691 41.444 82.0691 41.4368 82.0691 41.4295C82.0691 41.4223 82.0691 41.4151 82.0691 41.4079C82.0691 41.4007 82.0691 41.3934 82.0691 41.3862C82.0691 41.379 82.0691 41.3717 82.0691 41.3645C82.0691 41.3573 82.0691 41.35 82.0691 41.3428C82.0691 41.3356 82.0691 41.3283 82.0691 41.3211C82.0691 41.3138 82.0691 41.3066 82.0691 41.2993C82.0691 41.2921 82.0691 41.2849 82.0691 41.2776C82.0691 41.2704 82.0691 41.2631 82.0691 41.2558C82.0691 41.2486 82.0691 41.2413 82.0691 41.2341C82.0691 41.2268 82.0691 41.2196 82.0691 41.2123C82.0691 41.205 82.0691 41.1978 82.0691 41.1905C82.0691 41.1832 82.0691 41.176 82.0691 41.1687C82.0691 41.1614 82.0691 41.1542 82.0691 41.1469C82.0691 41.1396 82.0691 41.1323 82.0691 41.1251C82.0691 41.1178 82.0691 41.1105 82.0691 41.1032C82.0691 41.096 82.0691 41.0887 82.0691 41.0814C82.0691 41.0741 82.0691 41.0668 82.0691 41.0596C82.0691 41.0523 82.0691 41.045 82.0691 41.0377C82.0691 41.0304 82.0691 41.0231 82.0691 41.0158C82.0691 41.0085 82.0691 41.0012 82.0691 40.994C82.0691 40.9867 82.0691 40.9794 82.0691 40.9721C82.0691 40.9648 82.0691 40.9575 82.0691 40.9502C82.0691 40.9429 82.0691 40.9356 82.0691 40.9283C82.0691 40.921 82.0691 40.9137 82.0691 40.9064C82.0691 40.8991 82.0691 40.8918 82.0691 40.8845C82.0691 40.8772 82.0691 40.8699 82.0691 40.8626C82.0691 40.8553 82.0691 40.848 82.0691 40.8406C82.0691 40.8333 82.0691 40.826 82.0691 40.8187C82.0691 40.8114 82.0691 40.8041 82.0691 40.7968C82.0691 40.7895 82.0691 40.7822 82.0691 40.7749C82.0691 40.7675 82.0691 40.7602 82.0691 40.7529C82.0691 40.7456 82.0691 40.7383 82.0691 40.731C82.0691 40.7237 82.0691 40.7164 82.0691 40.709C82.0691 40.7017 82.0691 40.6944 82.0691 40.6871C82.0691 40.6798 82.0691 40.6725 82.0691 40.6651C82.0691 40.6578 82.0691 40.6505 82.0691 40.6432C82.0691 40.6359 82.0691 40.6285 82.0691 40.6212C82.0691 40.6139 82.0691 40.6066 82.0691 40.5993C82.0691 40.592 82.0691 40.5846 82.0691 40.5773C82.0691 40.57 82.0691 40.5627 82.0691 40.5554C82.0691 40.548 82.0691 40.5407 82.0691 40.5334C82.0691 40.5261 82.0691 40.5188 82.0691 40.5114C82.0691 40.5041 82.0691 40.4968 82.0691 40.4895C82.0691 40.4822 82.0691 40.4748 82.0691 40.4675C82.0691 40.4602 82.0691 40.4529 82.0691 40.4456C82.0691 40.4382 82.0691 40.4309 82.0691 40.4236C82.0691 40.4163 82.0691 40.409 82.0691 40.4016C82.0691 40.3943 82.0691 40.387 82.0691 40.3797C82.0691 40.3724 82.0691 40.365 82.0691 40.3577C82.0691 40.3504 82.0691 40.3431 82.0691 40.3358C82.0691 40.3285 82.0691 40.3211 82.0691 40.3138C82.0691 40.3065 82.0691 40.2992 82.0691 40.2919C82.0691 40.2846 82.0691 40.2773 82.0691 40.2699C82.0691 40.2626 82.0691 40.2553 82.0691 40.248C82.0691 40.2407 82.0691 40.2334 82.0691 40.2261C82.0691 40.2188 82.0691 40.2114 82.0691 40.2041C82.0691 40.1968 82.0691 40.1895 82.0691 40.1822C82.0691 40.1749 82.0691 40.1676 82.0691 40.1603C82.0691 40.153 82.0691 40.1457 82.0691 40.1384C82.0691 40.1311 82.0691 40.1238 82.0691 40.1165C82.0691 40.1092 82.0691 40.1019 82.0691 40.0946C82.0691 40.0873 82.0691 40.08 82.0691 40.0727C82.0691 40.0654 82.0691 40.0581 82.0691 40.0508C82.0691 40.0435 82.0691 40.0362 82.0691 40.0289C82.0691 40.0216 82.0691 40.0143 82.0691 40.007C82.0691 39.9997 82.0691 39.9924 82.0691 39.9851C82.0691 39.9779 82.0691 39.9706 82.0691 39.9633C82.0691 39.956 82.0691 39.9487 82.0691 39.9414C82.0691 39.9342 82.0691 39.9269 82.0691 39.9196C82.0691 39.9123 82.0691 39.905 82.0691 39.8978C82.0691 39.8905 82.0691 39.8832 82.0691 39.8759C82.0691 39.8687 82.0691 39.8614 82.0691 39.8541C82.0691 39.8469 82.0691 39.8396 82.0691 39.8323C82.0691 39.8251 82.0691 39.8178 82.0691 39.8105C82.0691 39.8033 82.0691 39.796 82.0691 39.7887C82.0691 39.7815 82.0691 39.7742 82.0691 39.767C82.0691 39.7597 82.0691 39.7525 82.0691 39.7452C82.0691 39.738 82.0691 39.7307 82.0691 39.7235C82.0691 39.7162 82.0691 39.709 82.0691 39.7017C82.0691 39.6945 82.0691 39.6872 82.0691 39.68C82.0691 39.6728 82.0691 39.6655 82.0691 39.6583C82.0691 39.6511 82.0691 39.6438 82.0691 39.6366C82.0691 39.6294 82.0691 39.6221 82.0691 39.6149C82.0691 39.6077 82.0691 39.6005 82.0691 39.5932C82.0691 39.586 82.0691 39.5788 82.0691 39.5716C82.0691 39.5644 82.0691 39.5572 82.0691 39.5499C82.0691 39.5427 82.0691 39.5355 82.0691 39.5283C82.0691 39.5211 82.0691 39.5139 82.0691 39.5067C82.0691 39.4995 82.0691 39.4923 82.0691 39.4851C82.0691 39.4779 82.0691 39.4707 82.0691 39.4635C82.0691 39.4563 82.0691 39.4492 82.0691 39.442C82.0691 39.4348 82.0691 39.4276 82.0691 39.4204C82.0691 39.4132 82.0691 39.4061 82.0691 39.3989C82.0691 39.3917 82.0691 39.3846 82.0691 39.3774C82.0691 39.3702 82.0691 39.3631 82.0691 39.3559C82.0691 39.3487 82.0691 39.3416 82.0691 39.3344C82.0691 39.3273 82.0691 39.3201 82.0691 39.313C82.0691 39.3058 82.0691 39.2987 82.0691 39.2915C82.0691 39.2844 82.0691 39.2772 82.0691 39.2701C82.0691 39.263 82.0691 39.2558 82.0691 39.2487C82.0691 39.2416 82.0691 39.2344 82.0691 39.2273C82.0691 39.2202 82.0691 39.2131 82.0691 39.2059C82.0691 39.1988 82.0691 39.1917 82.0691 39.1846C82.0691 39.1775 82.0691 39.1704 82.0691 39.1633C82.0691 39.1562 82.0691 39.1491 82.0691 39.142C82.0691 39.1349 82.0691 39.1278 82.0691 39.1207C82.0691 39.1136 82.0691 39.1065 82.0691 39.0995C82.0691 39.0924 82.0691 39.0853 82.0691 39.0782C82.0691 39.0711 82.0691 39.0641 82.0691 39.057C82.0691 39.0499 82.0691 39.0429 82.0691 39.0358C82.0691 39.0288 82.0691 39.0217 82.0691 39.0146C82.0691 39.0076 82.0691 39.0006 82.0691 38.9935C82.0691 38.9865 82.0691 38.9794 82.0691 38.9724C82.0691 38.9654 82.0691 38.9583 82.0691 38.9513C82.0691 38.9443 82.0691 38.9372 82.0691 38.9302C82.0691 38.9232 82.0691 38.9162 82.0691 38.9092C82.0691 38.9022 82.0691 38.8952 82.0691 38.8882C82.0691 38.8812 82.0691 38.8742 82.0691 38.8672C82.0691 38.8602 82.0691 38.8532 82.0691 38.8462C82.0691 38.8392 82.0691 38.8322 82.0691 38.8252C82.0691 38.8183 82.0691 38.8113 82.0691 38.8043C82.0691 38.7974 82.0691 38.7904 82.0691 38.7834C82.0691 38.7765 82.0691 38.7695 82.0691 38.7626C82.0691 38.7556 82.0691 38.7487 82.0691 38.7417C82.0691 38.7348 82.0691 38.7279 82.0691 38.7209C82.0691 38.714 82.0691 38.7071 82.0691 38.7002C82.0691 38.6932 82.0691 38.6863 82.0691 38.6794C82.0691 38.6725 82.0691 38.6656 82.0691 38.6587C82.0691 38.6518 82.0691 38.6449 82.0691 38.638C82.0691 38.6311 82.0691 38.6242 82.0691 38.6173C82.0691 38.6104 82.0691 38.6036 82.0691 38.5967C82.0691 38.5898 82.0691 38.5829 82.0691 38.5761C82.0691 38.5692 82.0691 38.5624 82.0691 38.5555C82.0691 38.5487 82.0691 38.5418 82.0691 38.535C82.0691 38.5281 82.0691 38.5213 82.0691 38.5145C82.0691 38.5076 82.0691 38.5008 82.0691 38.494C82.0691 38.4872 82.0691 38.4803 82.0691 38.4735C82.0691 38.4667 82.0691 38.4599 82.0691 38.4531C82.0691 38.4463 82.0691 38.4395 82.0691 38.4327C82.0691 38.4259 82.0691 38.4192 82.0691 38.4124C82.0691 38.4056 82.0691 38.3988 82.0691 38.3921C82.0691 38.3853 82.0691 38.3785 82.0691 38.3718C82.0691 38.365 82.0691 38.3583 82.0691 38.3515C82.0691 38.3448 82.0691 38.3381 82.0691 38.3313C82.0691 38.3246 82.0691 38.3179 82.0691 38.3111C82.0691 38.3044 82.0691 38.2977 82.0691 38.291C82.0691 38.2843 82.0691 38.2776 82.0691 38.2709C82.0691 38.2642 82.0691 38.2575 82.0691 38.2508C82.0691 38.2441 82.0691 38.2374 82.0691 38.2308C82.0691 38.2241 82.0691 38.2174 82.0691 38.2108C82.0691 38.2041 82.0691 38.1975 82.0691 38.1908C82.0691 38.1842 82.0691 38.1775 82.0691 38.1709C82.0691 38.1642 82.0691 38.1576 82.0691 38.151C82.0691 38.1444 82.0691 38.1377 82.0691 38.1311C82.0691 38.1245 82.0691 38.1179 82.0691 38.1113C82.0691 38.1047 82.0691 38.0981 82.0691 38.0915C82.0691 38.085 82.0691 38.0784 82.0691 38.0718C82.0691 38.0652 82.0691 38.0587 82.0691 38.0521C82.0691 38.0455 82.0691 38.039 82.0691 38.0324C82.0691 38.0259 82.0691 38.0194 82.0691 38.0128C82.0691 38.0063 82.0691 37.9998 82.0691 37.9932C82.0691 37.9867 82.0691 37.9802 82.0691 37.9737C82.0691 37.9672 82.0691 37.9607 82.0691 37.9542C82.0691 37.9477 82.0691 37.9412 82.0691 37.9347C82.0691 37.9283 82.0691 37.9218 82.0691 37.9153C82.0691 37.9089 82.0691 37.9024 82.0691 37.896C82.0691 37.8895 82.0691 37.8831 82.0691 37.8766C82.0691 37.8702 82.0691 37.8638 82.0691 37.8573C82.0691 37.8509 82.0691 37.8445 82.0691 37.8381C82.0691 37.8317 82.0691 37.8253 82.0691 37.8189C82.0691 37.8125 82.0691 37.8061 82.0691 37.7997C82.0691 37.7933 82.0691 37.787 82.0691 37.7806C82.0691 37.7742 82.0691 37.7679 82.0691 37.7615C82.0691 37.7552 82.0691 37.7488 82.0691 37.7425C82.0691 37.7362 82.0691 37.7298 82.0691 37.7235C82.0691 37.7172 82.0691 37.7109 82.0691 37.7046C82.0691 37.6983 82.0691 37.692 82.0691 37.6857C82.0691 37.6794 82.0691 37.6731 82.0691 37.6668C82.0691 37.6606 82.0691 37.6543 82.0691 37.648C82.0691 37.6418 82.0691 37.6355 82.0691 37.6293C82.0691 37.623 82.0691 37.6168 82.0691 37.6106C82.0691 37.6043 82.0691 37.5981 82.0691 37.5919C82.0691 37.5857 82.0691 37.5795 82.0691 37.5733C82.0691 37.5671 82.0691 37.5609 82.0691 37.5547C82.0691 37.5485 82.0691 37.5424 82.0691 37.5362C82.0691 37.53 82.0691 37.5239 82.0691 37.5177C82.0691 37.5116 82.0691 37.5055 82.0691 37.4993C82.0691 37.4932 82.0691 37.4871 82.0691 37.481C82.0691 37.4748 82.0691 37.4687 82.0691 37.4626C82.0691 37.4565 82.0691 37.4504 82.0691 37.4444C82.0691 37.4383 82.0691 37.4322 82.0691 37.4261C82.0691 37.4201 82.0691 37.414 82.0691 37.408C82.0691 37.4019 82.0691 37.3959 82.0691 37.3899C82.0691 37.3838 82.0691 37.3778 82.0691 37.3718C82.0691 37.3658 82.0691 37.3598 82.0691 37.3538C82.0691 37.3478 82.0691 37.3418 82.0691 37.3358C82.0691 37.3298 82.0691 37.3239 82.0691 37.3179C82.0691 37.3119 82.0691 37.306 82.0691 37.3C82.0691 37.2941 82.0691 37.2882 82.0691 37.2822C82.0691 37.2763 82.0691 37.2704 82.0691 37.2645C82.0691 37.2586 82.0691 37.2527 82.0691 37.2468C82.0691 37.2409 82.0691 37.235 82.0691 37.2291C82.0691 37.2233 82.0691 37.2174 82.0691 37.2115C82.0691 37.2057 82.0691 37.1998 82.0691 37.194C82.0691 37.1882 82.0691 37.1823 82.0691 37.1765C82.0691 37.1707 82.0691 37.1649 82.0691 37.1591C82.0691 37.1533 82.0691 37.1475 82.0691 37.1417C82.0691 37.1359 82.0691 37.1302 82.0691 37.1244C82.0691 37.1186 82.0691 37.1129 82.0691 37.1071C82.0691 37.1014 82.0691 37.0957 82.0691 37.0899C82.0691 37.0842 82.0691 37.0785 82.0691 37.0728C82.0691 37.0671 82.0691 37.0614 82.0691 37.0557C82.0691 37.05 82.0691 37.0443 82.0691 37.0387C82.0691 37.033 82.0691 37.0274 82.0691 37.0217C82.0691 37.0161 82.0691 37.0104 82.0691 37.0048C82.0691 36.9992 82.0691 36.9936 82.0691 36.9879C82.0691 36.9823 82.0691 36.9767 82.0691 36.9711C82.0691 36.9656 82.0691 36.96 82.0691 36.9544C82.0691 36.9488 82.0691 36.9433 82.0691 36.9377C82.0691 36.9322 82.0691 36.9267 82.0691 36.9211C82.0691 36.9156 82.0691 36.9101 82.0691 36.9046C82.0691 36.8991 82.0691 36.8936 82.0691 36.8881C82.0691 36.8826 82.0691 36.8771 82.0691 36.8716C82.0691 36.8662 82.0691 36.8607 82.0691 36.8553C82.0691 36.8498 82.0691 36.8444 82.0691 36.839C82.0691 36.8335 82.0691 36.8281 82.0691 36.8227C82.0691 36.8173 82.0691 36.8119 82.0691 36.8065C82.0691 36.8011 82.0691 36.7958 82.0691 36.7904C82.0691 36.785 82.0691 36.7797 82.0691 36.7743C82.0691 36.769 82.0691 36.7637 82.0691 36.7583C82.0691 36.753 82.0691 36.7477 82.0691 36.7424C82.0691 36.7371 82.0691 36.7318 82.0691 36.7265C82.0691 36.7213 82.0691 36.716 82.0691 36.7107C82.0691 36.7055 82.0691 36.7002 82.0691 36.695C82.0691 36.6898 82.0691 36.6845 82.0691 36.6793C82.0691 36.6741 82.0691 36.6689 82.0691 36.6637C82.0691 36.6585 82.0691 36.6533 82.0691 36.6482C82.0691 36.643 82.0691 36.6378 82.0691 36.6327C82.0691 36.6275 82.0691 36.6224 82.0691 36.6173C82.0691 36.6122 82.0691 36.607 82.0691 36.6019C82.0691 36.5968 82.0691 36.5917 82.0691 36.5867C82.0691 36.5816 82.0691 36.5765 82.0691 36.5715C82.0691 36.5664 82.0691 36.5614 82.0691 36.5563C82.0691 36.5513 82.0691 36.5463 82.0691 36.5412C82.0691 36.5362 82.0691 36.5312 82.0691 36.5262C82.0691 36.5213 82.0691 36.5163 82.0691 36.5113C82.0691 36.5063 82.0691 36.5014 82.0691 36.4964C82.0691 36.4915 82.0691 36.4866 82.0691 36.4817C82.0691 36.4767 82.0691 36.4718 82.0691 36.4669C82.0691 36.462 82.0691 36.4571 82.0691 36.4523C82.0691 36.4474 82.0691 36.4425 82.0691 36.4377C82.0691 36.4328 82.0691 36.428 82.0691 36.4232C82.0691 36.4183 82.0691 36.4135 82.0691 36.4087C82.0691 36.4039 82.0691 36.3991 82.0691 36.3944C82.0691 36.3896 82.0691 36.3848 82.0691 36.3801C82.0691 36.3753 82.0691 36.3706 82.0691 36.3658C82.0691 36.3611 82.0691 36.3564 82.0691 36.3517C82.0691 36.347 82.0691 36.3423 82.0691 36.3376C82.0691 36.3329 82.0691 36.3282 82.0691 36.3236C82.0691 36.3189 82.0691 36.3143 82.0691 36.3097C82.0691 36.305 82.0691 36.3004 82.0691 36.2958C82.0691 36.2912 82.0691 36.2866 82.0691 36.282C82.0691 36.2774 82.0691 36.2729 82.0691 36.2683C82.0691 36.2637 82.0691 36.2592 82.0691 36.2547C82.0691 36.2501 82.0691 36.2456 82.0691 36.2411C82.0691 36.2366 82.0691 36.2321 82.0691 36.2276C82.0691 36.2231 82.0691 36.2187 82.0691 36.2142C82.0691 36.2098 82.0691 36.2053 82.0691 36.2009C82.0691 36.1965 82.0691 36.192 82.0691 36.1876C82.0691 36.1832 82.0691 36.1788 82.0691 36.1744C82.0691 36.1701 82.0691 36.1657 82.0691 36.1613C82.0691 36.157 82.0691 36.1527 82.0691 36.1483C82.0691 36.144 82.0691 36.1397 82.0691 36.1354C82.0691 36.1311 82.0691 36.1268 82.0691 36.1225C82.0691 36.1182 82.0691 36.114 82.0691 36.1097C82.0691 36.1055 82.0691 36.1012 82.0691 36.097C82.0691 36.0928 82.0691 36.0886 82.0691 36.0844C82.0691 36.0802 82.0691 36.076 82.0691 36.0718C82.0691 36.0677 82.0691 36.0635 82.0691 36.0594C82.0691 36.0552 82.0691 36.0511 82.0691 36.047C82.0691 36.0429 82.0691 36.0388 82.0691 36.0347C82.0691 36.0306 82.0691 36.0265 82.0691 36.0224C82.0691 36.0184 82.0691 36.0143 82.0691 36.0103C82.0691 36.0063 82.0691 36.0022 82.0691 35.9982C82.0691 35.9942 82.0691 35.9902 82.0691 35.9863C82.0691 35.9823 82.0691 35.9783 82.0691 35.9744C82.0691 35.9704 82.0691 35.9665 82.0691 35.9625C82.0691 35.9586 82.0691 35.9547 82.0691 35.9508C82.0691 35.9469 82.0691 35.943 82.0691 35.9392C82.0691 35.9353 82.0691 35.9314 82.0691 35.9276C82.0691 35.9238 82.0691 35.9199 82.0691 35.9161C82.0691 35.9123 82.0691 35.9085 82.0691 35.9047C82.0691 35.9009 82.0691 35.8972 82.0691 35.8934C82.0691 35.8897 82.0691 35.8859 82.0691 35.8822C82.0691 35.8785 82.0691 35.8747 82.0691 35.871C82.0691 35.8673 82.0691 35.8637 82.0691 35.86C82.0691 35.8563 82.0691 35.8527 82.0691 35.849C82.0691 35.8454 82.0691 35.8417 82.0691 35.8381C82.0691 35.8345 82.0691 35.8309 82.0691 35.8273C82.0691 35.8238 82.0691 35.8202 82.0691 35.8166C82.0691 35.8131 82.0691 35.8095 82.0691 35.806C82.0691 35.8025 82.0691 35.799 82.0691 35.7955C82.0691 35.792 82.0691 35.7885 82.0691 35.785C82.0691 35.7816 82.0691 35.7781 82.0691 35.7747C82.0691 35.7712 82.0691 35.7678 82.0691 35.7644C82.0691 35.761 82.0691 35.7576 82.0691 35.7542C82.0691 35.7509 82.0691 35.7475 82.0691 35.7442C82.0691 35.7408 82.0691 35.7375 82.0691 35.7342C82.0691 35.7308 82.0691 35.7275 82.0691 35.7242C82.0691 35.721 82.0691 35.7177 82.0691 35.7144C82.0691 35.7112 82.0691 35.7079 82.0691 35.7047C82.0691 35.7015 82.0691 35.6983 82.0691 35.6951C82.0691 35.6919 82.0691 35.6887 82.0691 35.6855C82.0691 35.6824 82.0691 35.6792 82.0691 35.6761C82.0691 35.6729 82.0691 35.6698 82.0691 35.6667C82.0691 35.6636 82.0691 35.6605 82.0691 35.6575C82.0691 35.6544 82.0691 35.6513 82.0691 35.6483C82.0691 35.6452 82.0691 35.6422 82.0691 35.6392C82.0691 35.6362 82.0691 35.6332 82.0691 35.6302C82.0691 35.6272 82.0691 35.6243 82.0691 35.6213C82.0691 35.6184 82.0691 35.6154 82.0691 35.6125C82.0691 35.6096 82.0691 35.6067 82.0691 35.6038C82.0691 35.6009 82.0691 35.5981 82.0691 35.5952C82.0691 35.5924 82.0691 35.5895 82.0691 35.5867C82.0691 35.5839 82.0691 35.5811 82.0691 35.5783C82.0691 35.5755 82.0691 35.5727 82.0691 35.57C82.0691 35.5672 82.0691 35.5645 82.0691 35.5618C82.0691 35.559 82.0691 35.5563 82.0691 35.5536C82.0691 35.5509 82.0691 35.5483 82.0691 35.5456C82.0691 35.5429 82.0691 35.5403 82.0691 35.5377C82.0691 35.535 82.0691 35.5324 82.0691 35.5298C82.0691 35.5272 82.0691 35.5247 82.0691 35.5221C82.0691 35.5195 82.0691 35.517 82.0691 35.5145C82.0691 35.5119 82.0691 35.5094 82.0691 35.5069C82.0691 35.5044 82.0691 35.5019 82.0691 35.4995C82.0691 35.497 82.0691 35.4946 82.0691 35.4921C82.0691 35.4897 82.0691 35.4873 82.0691 35.4849C82.0691 35.4825 82.0691 35.4801 82.0691 35.4778C82.0691 35.4754 82.0691 35.4731 82.0691 35.4707C82.0691 35.4684 82.0691 35.4661 82.0691 35.4638C82.0691 35.4615 82.0691 35.4592 82.0691 35.457C82.0691 35.4547 82.0691 35.4524 82.0691 35.4502C82.0691 35.448 82.0691 35.4458 82.0691 35.4436C82.0691 35.4414 82.0691 35.4392 82.0691 35.4371C82.0691 35.4349 82.0691 35.4327 82.0691 35.4306C82.0691 35.4285 82.0691 35.4264 82.0691 35.4243C82.0691 35.4222 82.0691 35.4201 82.0691 35.4181C82.0691 35.416 82.0691 35.414 82.0691 35.412C82.0691 35.4099 82.0691 35.4079 82.0691 35.4059C82.0691 35.404 82.0691 35.402 82.0691 35.4C82.0691 35.3981 82.0691 35.3961 82.0691 35.3942C82.0691 35.3923 82.0691 35.3904 82.0691 35.3885C82.0691 35.3866 82.0691 35.3848 82.0691 35.3829C82.0691 35.3811 82.0691 35.3792 82.0691 35.3774C82.0691 35.3756 82.0691 35.3738 82.0691 35.372C82.0691 35.3703 82.0691 35.3685 82.0691 35.3668C82.0691 35.365 82.0691 35.3633 82.0691 35.3616C82.0691 35.3599 82.0691 35.3582 82.0691 35.3565C82.0691 35.3549 82.0691 35.3532 82.0691 35.3516C82.0691 35.3499 82.0691 35.3483 82.0691 35.3467C82.0691 35.3451 82.0691 35.3435 82.0691 35.342H81.0691ZM79.569 51.342L79.5691 45.342L78.5691 45.342L78.569 51.342L79.569 51.342ZM79.5691 45.342L79.569 37.842L78.569 37.842L78.5691 45.342L79.5691 45.342ZM81.0948 44.1839C81.0468 44.3276 80.8957 44.5766 80.6033 44.7484C80.3256 44.9116 79.8794 45.0292 79.1904 44.8569L78.9478 45.8271C79.8588 46.0548 80.5792 45.9224 81.1099 45.6106C81.6258 45.3074 81.9247 44.8563 82.0434 44.5001L81.0948 44.1839ZM79.0691 34.342L79.0691 32.342L78.0691 32.342L78.0691 34.342L79.0691 34.342ZM79.0691 32.342C79.0691 32.0633 79.0369 31.7732 78.8968 31.521C78.7434 31.2449 78.5015 31.0841 78.2272 30.9926C77.9714 30.9074 77.664 30.8742 77.3272 30.8582C76.9845 30.8419 76.5647 30.842 76.0691 30.842V31.842C76.5735 31.842 76.9661 31.8421 77.2797 31.857C77.5991 31.8723 77.7918 31.9016 77.911 31.9413C78.0116 31.9749 78.0198 32.0016 78.0226 32.0067C78.0388 32.0358 78.0691 32.1206 78.0691 32.342L79.0691 32.342ZM76.0691 30.842H74.5691V31.842H76.0691V30.842ZM74.5691 30.842C74.1132 30.842 73.7155 30.9573 73.4265 31.2462C73.1464 31.5263 73.0464 31.8934 73.0096 32.2243C72.9728 32.5556 72.9923 32.9256 73.0155 33.2737C73.0397 33.6369 73.0691 33.9885 73.0691 34.342L74.0691 34.342C74.0691 33.9455 74.036 33.5471 74.0133 33.2072C73.9896 32.8522 73.9778 32.5659 74.0035 32.3347C74.0293 32.103 74.0855 32.0014 74.1336 31.9534C74.1727 31.9142 74.2749 31.842 74.5691 31.842V30.842ZM75.0691 31.342V28.842H74.0691V31.342H75.0691ZM75.0691 28.842C75.0691 28.6587 75.1517 28.5138 75.323 28.3949C75.5068 28.2673 75.7799 28.1844 76.0774 28.1794C76.3755 28.1745 76.6421 28.2485 76.8182 28.3689C76.9771 28.4774 77.0691 28.6234 77.0691 28.842H78.0691C78.0691 28.2606 77.7861 27.819 77.3824 27.5432C76.9961 27.2793 76.5127 27.172 76.0608 27.1796C75.6083 27.1871 75.1314 27.3105 74.7526 27.5735C74.3614 27.8452 74.0691 28.2753 74.0691 28.842H75.0691ZM77.0691 28.842V31.3755H78.0691V28.842H77.0691ZM77.569 36.342H73.5691V37.342H77.569V36.342ZM73.5691 36.342H73.069V37.342H73.5691V36.342ZM82.0691 44.342V35.342H81.0691V44.342H82.0691ZM76.0691 31.842C76.7238 31.842 77.1853 31.8425 77.5236 31.8734L77.6146 30.8776C77.2199 30.8415 76.7038 30.842 76.0691 30.842V31.842ZM75.5691 54.842C75.3484 54.842 75.1706 54.8191 75.0204 54.759C74.8801 54.7029 74.7398 54.6048 74.6072 54.4103C74.3219 53.9918 74.0691 53.1231 74.0691 51.342L73.0691 51.342C73.0691 53.1609 73.3163 54.2921 73.781 54.9737C74.0234 55.3292 74.3206 55.5561 74.649 55.6875C74.9676 55.815 75.2898 55.842 75.5691 55.842V54.842ZM73.0691 36.842L73.0691 47.342H74.0691L74.0691 36.842L73.0691 36.842ZM74.0691 51.342L74.0691 47.342L73.0691 47.342L73.0691 51.342L74.0691 51.342Z" fill="#282F38"/>
</svg>
