<svg width="100" height="79" viewBox="0 0 100 79" fill="none" xmlns="http://www.w3.org/2000/svg">
<g opacity="0.4">
<path opacity="0.4" d="M10.5084 27.9817L0 34.0946L54.5236 65.7672H60.4383L10.5084 27.9817Z" fill="#ADA6A3"/>
</g>
<path d="M60.5785 65.7674L4.82385 33.3698V28.0625L60.5785 39.1101V65.7674Z" fill="#D2CFCC"/>
<path d="M99.9999 42.8664L60.5784 65.7673V39.11L99.9999 37.5389V42.8664Z" fill="#E9E6E6"/>
<path d="M100 37.5389L60.5785 60.4499L4.82385 28.0624L44.2454 5.15137L100 37.5389Z" fill="#F8F5F4"/>
<path d="M16.5332 30.6201L16.1629 30.8315L13.2706 29.1497L13.6409 28.9382L16.5332 30.6201Z" fill="#7B9FE1"/>
<path d="M16.9134 30.3986L16.5231 30.6201L14.1012 29.2203L14.4915 28.9886L16.9134 30.3986Z" fill="#2D6AD8"/>
<path d="M17.9843 29.774L17.624 29.9855L14.9719 28.4446L15.3322 28.2332L17.9843 29.774Z" fill="#7B9FE1"/>
<path d="M18.3746 29.5527L17.9843 29.7742L14.9619 28.0219L15.3522 27.7903L18.3746 29.5527Z" fill="#2D6AD8"/>
<path d="M19.4556 28.9181L19.0853 29.1296L15.3223 26.9443L15.6826 26.7328L19.4556 28.9181Z" fill="#7B9FE1"/>
<path d="M19.8359 28.6966L19.4456 28.9283L16.7034 27.327L17.0937 27.1055L19.8359 28.6966Z" fill="#2D6AD8"/>
<path d="M20.9168 28.0722L20.5465 28.2837L17.2039 26.34L17.5742 26.1285L20.9168 28.0722Z" fill="#7B9FE1"/>
<path d="M21.2971 27.8506L20.9068 28.0722L17.9845 26.3702L18.3748 26.1487L21.2971 27.8506Z" fill="#2D6AD8"/>
<path d="M25.3102 25.5145L24.9399 25.726L21.5072 23.732L21.8675 23.5205L25.3102 25.5145Z" fill="#7B9FE1"/>
<path d="M25.6905 25.2928L25.3002 25.5245L22.1377 23.6815L22.528 23.46L25.6905 25.2928Z" fill="#2D6AD8"/>
<path d="M26.7715 24.6685L26.4112 24.88L23.9392 23.4499L24.2995 23.2284L26.7715 24.6685Z" fill="#7B9FE1"/>
<path d="M27.1517 24.4469L26.7614 24.6684L23.3787 22.7046L23.769 22.473L27.1517 24.4469Z" fill="#2D6AD8"/>
<path d="M28.2325 23.8123L27.8722 24.0339L23.2085 21.3148L23.5688 21.1033L28.2325 23.8123Z" fill="#7B9FE1"/>
<path d="M28.6228 23.5908L28.2325 23.8224L24.3293 21.5565L24.7297 21.335L28.6228 23.5908Z" fill="#2D6AD8"/>
<path d="M29.7038 22.9662L29.3335 23.1777L25.2603 20.8111L25.6205 20.5996L29.7038 22.9662Z" fill="#7B9FE1"/>
<path d="M30.0841 22.7446L29.6937 22.9763L26.3311 21.0225L26.7214 20.7909L30.0841 22.7446Z" fill="#2D6AD8"/>
<path d="M31.165 22.1205L30.7947 22.332L28.3127 20.8818L28.683 20.6703L31.165 22.1205Z" fill="#7B9FE1"/>
<path d="M31.5453 21.8888L31.155 22.1204L28.1226 20.358L28.5129 20.1365L31.5453 21.8888Z" fill="#2D6AD8"/>
<path d="M22.3779 27.2161L22.0176 27.4275L20.2462 26.4003L20.6165 26.1888L22.3779 27.2161Z" fill="#7B9FE1"/>
<path d="M22.7682 26.9946L22.3679 27.2262L19.2654 25.4235L19.6657 25.1919L22.7682 26.9946Z" fill="#2D6AD8"/>
<path d="M23.8391 26.3704L23.4788 26.5818L21.7074 25.5546L22.0777 25.3431L23.8391 26.3704Z" fill="#7B9FE1"/>
<path d="M24.2294 26.1489L23.8391 26.3705L22.5581 25.6353L22.9484 25.4037L24.2294 26.1489Z" fill="#2D6AD8"/>
<path d="M32.2559 21.8384L15.9728 31.2949L15.6426 31.1035L31.9256 21.6471L32.2559 21.8384Z" fill="#7B9FE1"/>
<path d="M34.5177 20.1669L34.1474 20.3784L31.6854 18.9483L32.0557 18.7368L34.5177 20.1669Z" fill="#7B9FE1"/>
<path d="M34.898 19.9454L34.5077 20.177L32.5161 19.0189L32.9064 18.7872L34.898 19.9454Z" fill="#2D6AD8"/>
<path d="M35.9788 19.3208L35.6085 19.5323L34.6777 18.9885L35.048 18.777L35.9788 19.3208Z" fill="#7B9FE1"/>
<path d="M36.3591 19.0993L35.9688 19.3209L34.6677 18.5756L35.068 18.344L36.3591 19.0993Z" fill="#2D6AD8"/>
<path d="M37.4401 18.4646L37.0798 18.6862L34.2275 17.0245L34.5978 16.813L37.4401 18.4646Z" fill="#7B9FE1"/>
<path d="M37.8305 18.243L37.4302 18.4747L36.0491 17.669L36.4394 17.4374L37.8305 18.243Z" fill="#2D6AD8"/>
<path d="M38.9011 17.6192L38.5408 17.8307L37.5601 17.2567L37.9203 17.0452L38.9011 17.6192Z" fill="#7B9FE1"/>
<path d="M39.2915 17.3975L38.8912 17.6291L37.2899 16.6926L37.6802 16.4609L39.2915 17.3975Z" fill="#2D6AD8"/>
<path d="M43.2948 15.071L42.9345 15.2825L39.3317 13.1878L39.692 12.9763L43.2948 15.071Z" fill="#7B9FE1"/>
<path d="M43.6852 14.8495L43.2849 15.071L40.1724 13.2684L40.5627 13.0367L43.6852 14.8495Z" fill="#2D6AD8"/>
<path d="M44.7559 14.215L44.3956 14.4265L39.3816 11.5161L39.7519 11.3046L44.7559 14.215Z" fill="#7B9FE1"/>
<path d="M45.1462 13.9933L44.7559 14.225L40.0521 11.4958L40.4424 11.2642L45.1462 13.9933Z" fill="#2D6AD8"/>
<path d="M46.227 13.3688L45.8567 13.5803L42.6041 11.6869L42.9744 11.4755L46.227 13.3688Z" fill="#7B9FE1"/>
<path d="M46.6074 13.147L46.2171 13.3686L43.575 11.8378L43.9653 11.6062L46.6074 13.147Z" fill="#2D6AD8"/>
<path d="M47.6882 12.5129L47.3179 12.7244L43.575 10.5491L43.9352 10.3376L47.6882 12.5129Z" fill="#7B9FE1"/>
<path d="M48.0685 12.2913L47.6782 12.5229L44.6458 10.7606L45.0361 10.5289L48.0685 12.2913Z" fill="#2D6AD8"/>
<path d="M49.1494 11.667L48.7891 11.8785L46.9276 10.8009L47.2879 10.5793L49.1494 11.667Z" fill="#7B9FE1"/>
<path d="M49.5397 11.4452L49.1394 11.6668L47.498 10.7101L47.8884 10.4885L49.5397 11.4452Z" fill="#2D6AD8"/>
<path d="M40.3724 16.7729L40.0021 16.9844L36.8997 15.1817L37.27 14.9702L40.3724 16.7729Z" fill="#7B9FE1"/>
<path d="M40.7527 16.5514L40.3624 16.7729L36.7595 14.6883L37.1498 14.4567L40.7527 16.5514Z" fill="#2D6AD8"/>
<path d="M41.8335 15.917L41.4632 16.1285L38.4808 14.3963L38.8411 14.1848L41.8335 15.917Z" fill="#7B9FE1"/>
<path d="M42.2138 15.6954L41.8235 15.9271L39.3215 14.4769L39.7118 14.2452L42.2138 15.6954Z" fill="#2D6AD8"/>
<path d="M50.2402 11.3852L33.9572 20.8517L33.627 20.6604L49.91 11.1938L50.2402 11.3852Z" fill="#7B9FE1"/>
<path d="M31.2951 26.159L19.2054 33.1884L17.484 32.1914L29.5737 25.162L31.2951 26.159Z" fill="#2D6AD8"/>
<path d="M20.3263 32.5339L19.2054 33.1885L17.484 32.1915L18.6049 31.5369L20.3263 32.5339Z" fill="#F25A5A"/>
<path d="M42.3239 19.754L30.2342 26.7834L28.5128 25.7864L40.6025 18.757L42.3239 19.754Z" fill="#2D6AD8"/>
<path d="M31.3551 26.1288L30.2342 26.7834L28.5128 25.7864L29.6337 25.1318L31.3551 26.1288Z" fill="#97CC66"/>
<path d="M53.3427 13.3489L41.253 20.3783L39.5316 19.3813L51.6213 12.3519L53.3427 13.3489Z" fill="#2D6AD8"/>
<path d="M42.3739 19.7239L41.253 20.3785L39.5316 19.3815L40.6525 18.7269L42.3739 19.7239Z" fill="#44BFE5"/>
<path d="M43.5748 17.6691L41.7534 18.7266L41.5632 18.6158L43.3747 17.5583L43.5748 17.6691Z" fill="#E1E9F4"/>
<path d="M44.6248 17.0651L43.8748 17.4981L43.6748 17.3873L44.4348 16.9442L44.6248 17.0651Z" fill="#E1E9F4"/>
<path d="M43.5739 18.6362L42.5839 19.2102L42.3839 19.0994L43.3839 18.5254L43.5739 18.6362Z" fill="#E1E9F4"/>
<path d="M46.1068 17.1656L43.875 18.4648L43.6748 18.3439L45.9166 17.0448L46.1068 17.1656Z" fill="#E1E9F4"/>
<path d="M47.6481 16.2693L46.4071 16.9844L46.2169 16.8736L47.4479 16.1586L47.6481 16.2693Z" fill="#E1E9F4"/>
<path d="M32.6561 24.0238L30.8347 25.0812L30.6345 24.9604L32.456 23.903L32.6561 24.0238Z" fill="#E1E9F4"/>
<path d="M33.7061 23.4095L32.9461 23.8426L32.7561 23.7318L33.5161 23.2887L33.7061 23.4095Z" fill="#E1E9F4"/>
<path d="M32.6551 24.9808L31.6551 25.5548L31.4651 25.444L32.4551 24.87L32.6551 24.9808Z" fill="#E1E9F4"/>
<path d="M35.188 23.5101L32.9463 24.8093L32.7561 24.6884L34.9879 23.3893L35.188 23.5101Z" fill="#E1E9F4"/>
<path d="M36.7194 22.614L35.4884 23.329L35.2882 23.2182L36.5292 22.5032L36.7194 22.614Z" fill="#E1E9F4"/>
<path d="M21.7273 30.3682L19.9058 31.4256L19.7157 31.3047L21.5372 30.2473L21.7273 30.3682Z" fill="#E1E9F4"/>
<path d="M22.7874 29.7538L22.0274 30.1869L21.8374 30.0761L22.5874 29.6431L22.7874 29.7538Z" fill="#E1E9F4"/>
<path d="M21.7264 31.3251L20.7364 31.8992L20.5464 31.7884L21.5364 31.2144L21.7264 31.3251Z" fill="#E1E9F4"/>
<path d="M24.2693 29.8546L22.0276 31.1537L21.8374 31.0429L24.0692 29.7438L24.2693 29.8546Z" fill="#E1E9F4"/>
<path d="M25.8007 28.9584L24.5697 29.6735L24.3695 29.5627L25.6005 28.8477L25.8007 28.9584Z" fill="#E1E9F4"/>
<path d="M66.8533 31.5266C61.9894 34.3564 54.1031 34.3564 49.2492 31.5266C44.3853 28.6967 44.3853 24.1245 49.2492 21.2947C54.1131 18.4648 61.9994 18.4648 66.8533 21.2947C71.7072 24.1245 71.7172 28.6967 66.8533 31.5266Z" fill="#4188EF"/>
<path d="M66.8534 31.5267C61.9895 34.3565 54.1032 34.3565 49.2493 31.5267V32.5337C54.1132 35.3636 61.9995 35.3636 66.8534 32.5337C69.3153 31.1037 70.5263 29.2305 70.4963 27.3473V26.3402C70.5263 28.2134 69.3153 30.0966 66.8534 31.5267Z" fill="#2D6AD8"/>
<path d="M58.2365 23.0671L58.1564 26.2797L57.9462 26.3502L49.2393 21.2947L49.2493 17.8907L58.2365 23.0671Z" fill="#2D6AD8"/>
<path d="M58.1664 23.0673V26.441L66.9634 21.3251L66.9734 17.9211L58.1664 23.0673Z" fill="#2D6AD8"/>
<path opacity="0.4" d="M66.9736 17.9209L58.1665 23.0772L49.2494 17.9008C54.1533 15.0709 62.0596 15.081 66.9736 17.9209Z" fill="#4188EF"/>
<path d="M45.5564 24.3057V26.058L58.1665 26.3097V24.3057H45.5564Z" fill="#2D6AD8"/>
<path opacity="0.4" d="M49.2393 19.0991C46.7974 20.5392 45.5564 22.4124 45.5564 24.2956H58.1665L49.2393 19.0991Z" fill="#4188EF"/>
<path d="M49.2293 30.4792C47.4679 29.452 46.2069 28.1227 45.7265 26.5818C45.6164 26.179 45.5564 25.7863 45.5564 25.3834V25.6855C45.5464 26.3099 45.5564 27.8205 45.7265 28.4449L45.7466 28.5154C46.1269 30.026 47.3178 31.4158 49.3194 32.5739C49.3995 32.6243 49.4795 32.6646 49.5596 32.7049V30.6605C49.4495 30.6001 49.3394 30.5397 49.2293 30.4792Z" fill="#2D6AD8"/>
<path d="M58.1665 25.4037V26.441L49.5596 31.708V30.6606L58.1665 25.4037Z" fill="#2D6AD8"/>
<path opacity="0.4" d="M58.1665 25.4036L49.5596 30.6706C49.4495 30.6101 49.3394 30.5497 49.2293 30.4893C47.4679 29.4621 46.2069 28.1327 45.7265 26.5919C45.6164 26.2294 45.5664 25.8265 45.5564 25.3834L58.1665 25.4036Z" fill="#4188EF"/>
<path d="M32.436 33.0272L26.3611 36.5621L25.7406 36.1995L31.8155 32.6647L32.436 33.0272Z" fill="#F25A5A"/>
<path d="M30.4745 35.5248L27.5221 37.2368L26.9016 36.8743L29.844 35.1622L30.4745 35.5248Z" fill="#F25A5A"/>
<path d="M38.2507 32.3523L28.683 37.9114L28.0625 37.5488L37.6201 31.9897L38.2507 32.3523Z" fill="#97CC66"/>
<path d="M43.8951 30.4288L29.8439 38.5862L29.2234 38.2236L43.2646 30.0663L43.8951 30.4288Z" fill="#97CC66"/>
<path d="M43.9852 31.7279L31.0148 39.2608L30.3843 38.8983L43.3547 31.3654L43.9852 31.7279Z" fill="#97CC66"/>
<path d="M43.2946 33.4701L32.1757 39.9355L31.5452 39.573L42.6741 33.1075L43.2946 33.4701Z" fill="#2D6AD8"/>
<path d="M42.2639 35.4238L33.3368 40.6103L32.7063 40.2477L41.6434 35.0613L42.2639 35.4238Z" fill="#2D6AD8"/>
<path d="M41.5533 37.1862L34.4977 41.285L33.8672 40.9224L40.9328 36.8236L41.5533 37.1862Z" fill="#44BFE5"/>
<path d="M46.7775 35.4945L35.6586 41.9599L35.0281 41.5974L46.157 35.132L46.7775 35.4945Z" fill="#44BFE5"/>
<path d="M48.4388 35.8871L36.8195 42.6345L36.189 42.2719L47.8083 35.5245L48.4388 35.8871Z" fill="#86B1FF"/>
<path d="M47.588 37.7302L37.9804 43.3094L37.3499 42.9469L46.9575 37.3677L47.588 37.7302Z" fill="#86B1FF"/>
<path d="M47.0477 39.3916L39.1414 43.9839L38.5209 43.6213L46.4272 39.0291L47.0477 39.3916Z" fill="#2D6AD8"/>
<path d="M51.4712 38.1731L40.3023 44.6587L39.6818 44.2961L50.8507 37.8105L51.4712 38.1731Z" fill="#F25A5A"/>
<path d="M53.3228 38.4451L41.4633 45.3335L40.8428 44.9709L52.6923 38.0825L53.3228 38.4451Z" fill="#F25A5A"/>
<path d="M41.8435 45.4041L41.4632 45.6156L25.2502 36.1995L25.6205 35.9779L41.8435 45.4041Z" fill="#86B1FF"/>
<path d="M46.2369 48.9288C46.773 48.9288 47.2077 48.6763 47.2077 48.3649C47.2077 48.0534 46.773 47.8009 46.2369 47.8009C45.7007 47.8009 45.2661 48.0534 45.2661 48.3649C45.2661 48.6763 45.7007 48.9288 46.2369 48.9288Z" fill="#2D6AD8"/>
<path d="M50.2801 49.9159C50.6604 50.1375 50.6604 50.49 50.2801 50.7115C49.8998 50.9331 49.2793 50.9331 48.899 50.7115C48.5187 50.49 48.5187 50.1375 48.899 49.9159C49.2793 49.6944 49.8998 49.6944 50.2801 49.9159Z" fill="#2D6AD8"/>
<path d="M53.5828 51.8293C53.9631 52.0508 53.9631 52.4033 53.5828 52.6248C53.2025 52.8464 52.582 52.8464 52.2017 52.6248C51.8214 52.4033 51.8214 52.0508 52.2017 51.8293C52.582 51.6077 53.2025 51.6077 53.5828 51.8293Z" fill="#2D6AD8"/>
<path d="M56.2249 54.7296C56.7611 54.7296 57.1957 54.4771 57.1957 54.1656C57.1957 53.8542 56.7611 53.6017 56.2249 53.6017C55.6888 53.6017 55.2542 53.8542 55.2542 54.1656C55.2542 54.4771 55.6888 54.7296 56.2249 54.7296Z" fill="#2D6AD8"/>
<path d="M59.5277 56.6532C60.0638 56.6532 60.4984 56.4007 60.4984 56.0892C60.4984 55.7778 60.0638 55.5253 59.5277 55.5253C58.9915 55.5253 58.5569 55.7778 58.5569 56.0892C58.5569 56.4007 58.9915 56.6532 59.5277 56.6532Z" fill="#2D6AD8"/>
<path d="M64.8217 38.4151L66.8133 37.2569L66.5531 37.1059L64.5615 38.264L64.8217 38.4151ZM55.9146 43.5814L60.3782 40.9831L60.118 40.8321L55.6544 43.4303L55.9146 43.5814ZM60.7385 40.7817L64.4715 38.6165L64.2113 38.4654L60.4783 40.6307L60.7385 40.7817ZM55.5643 43.7929L55.3041 43.6418L48.9691 47.3176L49.2293 47.4687L55.5643 43.7929ZM67.1636 37.0555L69.9959 35.4039L69.7357 35.2529L66.9034 36.9045L67.1636 37.0555ZM48.2485 46.8544L50.3402 45.6358L50.08 45.4848L47.9883 46.7033L48.2485 46.8544ZM66.5231 35.9377L66.7833 36.0887L69.2653 34.6486L69.0051 34.4976L66.5231 35.9377ZM61.9294 38.8985L66.423 36.2902L66.1628 36.1391L61.6692 38.7474L61.9294 38.8985ZM59.5876 40.2681L61.5792 39.11L61.3189 38.9589L59.3274 40.117L59.5876 40.2681ZM56.7553 41.9096L59.2373 40.4695L58.9771 40.3185L56.4951 41.7586L56.7553 41.9096ZM50.6904 45.4344L56.405 42.1111L56.1448 41.96L50.4302 45.2833L50.6904 45.4344Z" fill="#86B1FF"/>
<path d="M62.6401 41.8594L62.9003 42.0104L66.6333 39.8452L66.373 39.6941L62.6401 41.8594ZM62.55 42.2118L62.2898 42.0608L57.8262 44.659L58.0864 44.8101L62.55 42.2118ZM63.3406 42.6348L63.6008 42.7859L66.0828 41.3457L65.8226 41.1947L63.3406 42.6348ZM66.1729 40.9933L66.4331 41.1443L68.4247 39.9862L68.1645 39.8351L66.1729 40.9933ZM73.0184 37.0153L68.5248 39.6236L68.785 39.7747L73.2786 37.1664L73.0184 37.0153ZM57.1857 46.512L56.9255 46.361L52.1317 49.1506L52.3919 49.3016L57.1857 46.512ZM70.8166 37.106L66.7233 39.4827L66.9835 39.6337L71.0768 37.257L70.8166 37.106ZM57.7261 45.0115L57.4659 44.8604L51.0908 48.5665L51.351 48.7175L57.7261 45.0115ZM71.1669 36.9045L71.4271 37.0556L73.819 35.6658L73.5588 35.5148L71.1669 36.9045ZM63.2505 42.9974L62.9903 42.8463L57.2758 46.1696L57.536 46.3207L63.2505 42.9974Z" fill="#86B1FF"/>
<path d="M64.2212 44.9106L64.4814 45.0617L66.9634 43.6216L66.7032 43.4705L64.2212 44.9106ZM64.8417 46.0385L64.5815 45.8875L60.168 48.4555L60.4282 48.6066L64.8417 46.0385ZM69.0551 42.1009L67.0535 43.259L67.3137 43.4101L69.3053 42.2519L69.0551 42.1009ZM69.4054 41.8995L69.6656 42.0505L74.1592 39.4422L73.8989 39.2911L69.4054 41.8995ZM74.0891 40.6708L76.7012 39.1501L76.441 38.9991L73.8289 40.5198L74.0891 40.6708ZM58.0663 48.7879L57.8061 48.6368L54.5735 50.52L54.8337 50.6711L58.0663 48.7879ZM63.8709 45.112L58.1564 48.4354L58.4166 48.5865L64.1311 45.2631L63.8709 45.112ZM64.9318 45.6861L65.192 45.8371L69.6556 43.2389L69.3953 43.0878L64.9318 45.6861ZM73.4786 40.7212L69.7456 42.8864L70.0058 43.0375L73.7388 40.8722L73.4786 40.7212ZM75.5903 38.3042L74.2492 39.0796L74.5094 39.2307L75.8505 38.4553L75.5903 38.3042ZM60.0779 48.808L59.8177 48.6569L55.5843 51.1142L55.8445 51.2653L60.0779 48.808Z" fill="#86B1FF"/>
<path d="M65.8226 49.3319L70.2862 46.7336L70.0259 46.5826L65.5624 49.1808L65.8226 49.3319ZM70.6364 46.5423L74.3694 44.3771L74.1092 44.226L70.3762 46.3912L70.6364 46.5423ZM65.4723 49.5434L65.2121 49.3923L58.877 53.0681L59.1372 53.2192L65.4723 49.5434ZM58.1464 52.6049L60.2381 51.3863L59.9779 51.2353L57.8862 52.4538L58.1464 52.6049ZM76.4211 41.6882L76.6813 41.8392L79.1632 40.3991L78.903 40.248L76.4211 41.6882ZM71.8274 44.649L76.321 42.0406L76.0608 41.8896L71.5672 44.4979L71.8274 44.649ZM69.4855 46.0186L71.4771 44.8605L71.2169 44.7094L69.2253 45.8675L69.4855 46.0186ZM66.6532 47.6601L69.1352 46.22L68.875 46.069L66.393 47.5091L66.6532 47.6601ZM60.5884 51.1849L66.303 47.8615L66.0428 47.7105L60.3282 51.0338L60.5884 51.1849Z" fill="#86B1FF"/>
<path d="M75.3202 46.1595L75.5804 46.3105L79.3134 44.1453L79.0532 43.9943L75.3202 46.1595Z" fill="#86B1FF"/>
<path d="M71.8774 49.3521L72.1377 49.5032L74.6196 48.0631L74.3594 47.912L71.8774 49.3521Z" fill="#86B1FF"/>
<path d="M74.9699 46.361L70.5063 48.9592L70.7666 49.1103L75.2301 46.512L74.9699 46.361Z" fill="#86B1FF"/>
<path d="M78.5628 45.4646L74.7097 47.7104L74.9699 47.8614L78.823 45.6157L78.5628 45.4646Z" fill="#86B1FF"/>
<path d="M70.4162 49.3117L70.156 49.1606L61.1488 54.3974L61.409 54.5485L70.4162 49.3117Z" fill="#86B1FF"/>
<path d="M79.4034 43.7928L79.6637 43.9438L81.6552 42.7857L81.395 42.6346L79.4034 43.7928Z" fill="#86B1FF"/>
<path d="M65.7225 53.2292L65.4623 53.0781L62.2297 54.9614L62.4899 55.1124L65.7225 53.2292Z" fill="#86B1FF"/>
<path d="M71.5272 49.5634L65.8126 52.8766L66.0728 53.0277L71.7874 49.7043L71.5272 49.5634Z" fill="#86B1FF"/>
<path d="M81.7454 42.4331L82.0056 42.5741L83.6969 41.5972L83.4467 41.4462L81.7454 42.4331Z" fill="#86B1FF"/>
<path d="M11.6393 45.2333V43.9744L6.90552 41.1848V42.4437C6.90552 42.7256 7.0056 42.917 7.16573 43.0076L11.8995 45.7972C11.7294 45.7066 11.6393 45.5152 11.6393 45.2333Z" fill="#5169CE"/>
<path d="M12.7202 37.0859C12.5601 36.9953 12.3399 37.0053 12.0997 37.1463L7.77625 39.664L12.51 42.4536L16.8335 39.9359C17.0737 39.7949 17.2939 39.7849 17.454 39.8755L12.7202 37.0859Z" fill="#788EFF"/>
<path d="M11.6293 43.9742L6.89551 41.1846C6.89551 40.6207 7.28582 39.9459 7.7662 39.6639L12.5 42.4535C12.0196 42.7355 11.6293 43.4103 11.6293 43.9742Z" fill="#788EFF"/>
<path d="M16.8334 39.9358C17.3138 39.6538 17.7141 39.8754 17.7141 40.4394V41.6982C17.7141 42.2622 17.3238 42.9369 16.8434 43.2189L12.52 45.7366C12.0396 46.0186 11.6393 45.7869 11.6393 45.2331V43.9742C11.6393 43.4102 12.0296 42.7355 12.51 42.4535L16.8334 39.9358Z" fill="#252321"/>
<path d="M36.7894 50.9026L14.3314 37.8006C14.6116 37.6394 14.8719 37.6193 15.052 37.7301L37.51 50.8321C37.3298 50.7214 37.0696 50.7314 36.7894 50.9026Z" fill="#373431"/>
<path d="M30.7946 57.0056V55.5454L8.33667 42.4534V43.9136C8.33667 44.2359 8.44676 44.4574 8.63691 44.5682L31.0949 57.6703C30.9147 57.5595 30.7946 57.3279 30.7946 57.0056Z" fill="#1E1B19"/>
<path d="M31.7954 53.8034L9.3374 40.7013L14.3314 37.8009L36.7894 50.903L31.7954 53.8034Z" fill="#2D2B29"/>
<path d="M30.7946 55.5556L8.33667 42.4535C8.33667 41.809 8.78703 41.0234 9.34748 40.7012L31.8054 53.8032C31.245 54.1255 30.7946 54.911 30.7946 55.5556Z" fill="#373431"/>
<path d="M36.7893 50.9028C37.3498 50.5805 37.8002 50.8323 37.8002 51.4869V52.9472C37.8002 53.5917 37.3498 54.3772 36.7893 54.7095L31.7954 57.6099C31.2349 57.9322 30.7845 57.6704 30.7845 57.0258V55.5656C30.7845 54.921 31.2349 54.1355 31.7954 53.8132L36.7893 50.9028Z" fill="#252321"/>
<path d="M37.2097 51.7892C37.0796 51.7087 36.8895 51.7187 36.6893 51.8396L32.4359 54.317C32.0356 54.5486 31.7053 55.1227 31.7053 55.5859V56.6434C31.7053 56.875 31.7854 57.0361 31.9155 57.1167L37.8602 58.305C37.8402 58.295 38.1505 58.3856 38.3807 58.2547L39.4315 57.6504C39.8318 57.4188 39.9019 55.7269 39.9019 55.7269L37.2097 51.7892Z" fill="#1E1B19"/>
<path d="M41.9336 57.0762L39.0513 55.3743C39.2014 55.2836 39.3315 55.2836 39.4316 55.334L42.3139 57.036C42.2138 56.9755 42.0737 56.9856 41.9336 57.0762Z" fill="#373431"/>
<path d="M40.2221 59.4529V58.6876L37.3398 56.9856V57.751C37.3398 57.9222 37.3999 58.043 37.5 58.0934L40.3823 59.7953C40.2822 59.7349 40.2221 59.6241 40.2221 59.4529Z" fill="#1E1B19"/>
<path d="M40.7425 57.761L37.8702 56.0591L39.0512 55.3743L41.9335 57.0762L40.7425 57.761Z" fill="#2D2B29"/>
<path d="M40.2121 58.6876L37.3298 56.9856C37.3298 56.6432 37.57 56.2303 37.8603 56.0591L40.7426 57.761C40.4523 57.9322 40.2121 58.3451 40.2121 58.6876Z" fill="#373431"/>
<path d="M41.9335 57.0761C42.2238 56.9049 42.464 57.0458 42.464 57.3782V58.1436C42.464 58.486 42.2238 58.8989 41.9335 59.0701L40.7526 59.7549C40.4624 59.9261 40.2222 59.7851 40.2222 59.4427V58.6773C40.2222 58.3349 40.4624 57.922 40.7526 57.7508L41.9335 57.0761Z" fill="#252321"/>
<path d="M42.1138 57.4491L40.6526 58.3051V59.3323L42.3339 60.3092C42.434 60.3696 42.5541 60.3193 42.5841 60.2085L42.9444 59.0302C42.9544 58.9899 42.9644 58.9396 42.9644 58.8993V58.1138C42.9644 58.003 42.9044 57.9023 42.8143 57.8419L42.1138 57.4491Z" fill="#788EFF"/>
<path d="M18.4948 43.9846L13.0104 40.8022L14.7017 39.8153L20.1861 42.9977L18.4948 43.9846Z" fill="#3F474F"/>
<path d="M21.8276 44.8705L22.4881 45.2532L22.358 45.3338L21.6975 44.9511L21.8276 44.8705ZM21.2371 45.2834L21.3672 45.2029L20.8568 44.9008L20.5165 44.7094L20.3864 44.79L20.7267 44.9813L21.2371 45.2834ZM20.2763 44.5785L19.4356 44.0951L19.3055 44.1757L20.1462 44.6591L20.2763 44.5785ZM21.097 44.5986L21.4473 44.8L21.5774 44.7195L20.9669 44.367L19.9561 43.7728L19.826 43.8534L21.097 44.5986ZM20.6266 43.7225L21.4573 44.2059L21.5874 44.1253L20.7567 43.6419L20.4865 43.4908L20.3564 43.5714L20.6266 43.7225ZM22.2779 44.6792L22.5481 44.8303L22.6782 44.7497L22.328 44.5483L21.8276 44.2562L21.6975 44.3368L22.2779 44.6792ZM24.6098 45.8877L24.2395 45.6762L24.1094 45.7568L24.4797 45.9683L24.6098 45.8877ZM24.0093 45.5352L23.689 45.3539L23.5589 45.4345L23.8792 45.6158L24.0093 45.5352ZM24.0994 46.1898L23.4989 45.8373L23.3688 45.9179L23.9693 46.2704L24.0994 46.1898ZM22.6782 45.9683L22.418 45.8172L22.2879 45.8978L22.5481 46.0488L22.6782 45.9683ZM22.9184 46.1092L22.7883 46.1898L23.4589 46.5826L23.589 46.502L22.9184 46.1092Z" fill="#3F474F"/>
<path d="M6.87551 54.921V53.6622L2.14172 50.8726V52.1314C2.14172 52.4134 2.2418 52.6047 2.40193 52.6954L7.13572 55.485C6.97559 55.3943 6.87551 55.203 6.87551 54.921Z" fill="#CE307C"/>
<path d="M7.96642 46.7738C7.80629 46.6831 7.58611 46.6932 7.34592 46.8342L3.02246 49.3519L7.75625 52.1415L12.0797 49.6238C12.3199 49.4828 12.5401 49.4727 12.7002 49.5634L7.96642 46.7738Z" fill="#FF398F"/>
<path d="M6.87551 53.6621L2.14172 50.8725C2.14172 50.3085 2.53204 49.6338 3.01242 49.3518L7.74621 52.1414C7.26582 52.4234 6.87551 53.0981 6.87551 53.6621Z" fill="#FF398F"/>
<path d="M12.0696 49.6237C12.55 49.3417 12.9503 49.5633 12.9503 50.1272V51.3861C12.9503 51.95 12.56 52.6248 12.0797 52.9068L7.75619 55.4245C7.27581 55.7064 6.87549 55.4748 6.87549 54.9209V53.6621C6.87549 53.0981 7.2658 52.4234 7.74618 52.1414L12.0696 49.6237Z" fill="#252321"/>
<path d="M32.0357 60.5909L9.57776 47.4888C9.85798 47.3277 10.1182 47.3075 10.2983 47.4183L32.7563 60.5204C32.5661 60.4096 32.3159 60.4197 32.0357 60.5909Z" fill="#373431"/>
<path d="M26.0409 66.7037V65.2434L3.57288 52.1414V53.6016C3.57288 53.9239 3.68296 54.1454 3.86311 54.2562L26.3211 67.3583C26.1509 67.2475 26.0409 67.0159 26.0409 66.7037Z" fill="#1E1B19"/>
<path d="M27.0417 63.4913L4.58374 50.3893L9.57773 47.4889L32.0357 60.591L27.0417 63.4913Z" fill="#2D2B29"/>
<path d="M26.0308 65.2434L3.57288 52.1414C3.57288 51.4968 4.02324 50.7113 4.58368 50.389L27.0417 63.4911C26.4812 63.8134 26.0308 64.5989 26.0308 65.2434Z" fill="#373431"/>
<path d="M32.0357 60.5907C32.5961 60.2684 33.0465 60.5202 33.0465 61.1748V62.635C33.0465 63.2796 32.5961 64.0651 32.0357 64.3974L27.0417 67.2978C26.4812 67.6201 26.0309 67.3582 26.0309 66.7137V65.2534C26.0309 64.6089 26.4812 63.8234 27.0417 63.5011L32.0357 60.5907Z" fill="#252321"/>
<path d="M32.4461 61.4871C32.3159 61.4066 32.1258 61.4166 31.9256 61.5375L27.6722 64.0149C27.2719 64.2465 26.9417 64.8205 26.9417 65.2838V66.3412C26.9417 66.5729 27.0217 66.734 27.1518 66.8146L33.0966 68.0029C33.0766 67.9928 33.3868 68.0835 33.617 67.9526L34.6678 67.3483C35.0682 67.1167 35.1382 65.4248 35.1382 65.4248L32.4461 61.4871Z" fill="#1E1B19"/>
<path d="M37.1699 66.7641L34.2876 65.0621C34.4377 64.9715 34.5678 64.9715 34.6679 65.0219L37.5502 66.7238C37.4501 66.6634 37.32 66.6735 37.1699 66.7641Z" fill="#373431"/>
<path d="M35.4585 69.1408V68.3754L32.5762 66.6735V67.4388C32.5762 67.61 32.6362 67.7309 32.7363 67.7812L35.6186 69.4832C35.5185 69.4329 35.4585 69.312 35.4585 69.1408Z" fill="#1E1B19"/>
<path d="M35.989 67.4488L33.1067 65.7468L34.2976 65.062L37.1699 66.764L35.989 67.4488Z" fill="#2D2B29"/>
<path d="M35.4585 68.3755L32.5762 66.6736C32.5762 66.3312 32.8164 65.9183 33.1066 65.7471L35.9889 67.449C35.6987 67.6202 35.4585 68.0331 35.4585 68.3755Z" fill="#373431"/>
<path d="M37.1699 66.7642C37.4601 66.593 37.7003 66.734 37.7003 67.0663V67.8317C37.7003 68.1741 37.4601 68.587 37.1699 68.7582L35.9889 69.443C35.6987 69.6142 35.4585 69.4732 35.4585 69.1308V68.3654C35.4585 68.023 35.6987 67.6101 35.9889 67.4389L37.1699 66.7642Z" fill="#252321"/>
<path d="M37.3498 67.1368L35.8887 67.9929V69.0201L37.57 69.9969C37.6701 70.0473 37.7902 70.007 37.8202 69.8962L38.1805 68.718C38.1905 68.6777 38.2005 68.6273 38.2005 68.587V67.8015C38.2005 67.6907 38.1405 67.59 38.0504 67.5296L37.3498 67.1368Z" fill="#FF398F"/>
<path d="M13.741 53.6722L8.25659 50.4899L9.94794 49.5029L15.4323 52.6853L13.741 53.6722Z" fill="#3F474F"/>
<path d="M17.0636 54.5582L17.7242 54.9409L17.5941 55.0214L16.9335 54.6387L17.0636 54.5582ZM16.4732 54.9711L16.6033 54.8905L16.0929 54.5884L15.7526 54.397L15.6225 54.4776L15.9628 54.6689L16.4732 54.9711ZM15.5224 54.2661L14.6817 53.7827L14.5516 53.8633L15.3923 54.3467L15.5224 54.2661ZM16.3431 54.2963L16.6933 54.4977L16.8235 54.4172L16.213 54.0647L15.2022 53.4705L15.0721 53.5511L16.3431 54.2963ZM15.8627 53.4101L16.6933 53.8935L16.8235 53.8129L15.9928 53.3295L15.7226 53.1785L15.5925 53.259L15.8627 53.4101ZM17.514 54.3668L17.7842 54.5179L17.9143 54.4373L17.564 54.2359L17.0636 53.9438L16.9335 54.0244L17.514 54.3668ZM19.8559 55.5753L19.4856 55.3638L19.3555 55.4444L19.7258 55.6559L19.8559 55.5753ZM19.2454 55.2228L18.9251 55.0416L18.795 55.1221L19.1153 55.3034L19.2454 55.2228ZM19.3455 55.8875L18.745 55.535L18.6149 55.6156L19.2154 55.9681L19.3455 55.8875ZM17.9143 55.6559L17.6541 55.5048L17.524 55.5854L17.7842 55.7364L17.9143 55.6559ZM18.1545 55.7969L18.0244 55.8774L18.695 56.2702L18.8251 56.1896L18.1545 55.7969Z" fill="#3F474F"/>
</svg>
