<svg width="101" height="79" viewBox="0 0 101 79" fill="none" xmlns="http://www.w3.org/2000/svg">
<path d="M0 46.5301C0 46.0301 0.350001 45.4201 0.790001 45.1701C1.01 45.0401 1.21 45.0301 1.36 45.1201L2.87 45.9701C2.91 45.9401 2.94 45.9201 2.98 45.8901C3.3 45.7101 3.58 45.6901 3.79 45.8201L5.42001 46.7401C5.45001 46.7501 5.47 46.7601 5.5 46.7701L7.45 47.8801L8.65 48.5501C8.66 48.5501 8.67001 48.5601 8.67001 48.5601L8.7 48.5701L8.71001 48.5801L38.19 65.3601C38.21 65.3701 38.22 65.3801 38.24 65.3901C38.25 65.4001 38.26 65.4001 38.27 65.4101H38.28C38.31 65.4301 38.34 65.4601 38.37 65.4901C38.38 65.5001 38.38 65.5001 38.39 65.5101L42.28 69.3601L42.32 69.4001C42.35 69.4201 42.37 69.4501 42.4 69.4701C42.49 69.5601 42.58 69.6501 42.67 69.7401C42.78 69.8501 42.89 69.9601 43 70.0701C43.05 70.1201 43.1 70.1701 43.16 70.2201C43.19 70.2501 43.25 70.3101 43.21 70.3601C43.2 70.3801 43.18 70.3801 43.16 70.3801C43.12 70.3801 43.07 70.3601 43.03 70.3501C42.89 70.3001 42.74 70.2501 42.6 70.2001C42.46 70.1501 42.32 70.1001 42.18 70.0501C42.09 70.0201 42 69.9901 41.9 69.9501C41.89 69.9401 41.87 69.9401 41.86 69.9301L36.86 68.1701C36.85 68.1701 36.85 68.1701 36.84 68.1601C36.82 68.1601 36.81 68.1601 36.79 68.1501C36.78 68.1501 36.76 68.1401 36.75 68.1301C36.72 68.1201 36.7 68.1101 36.67 68.1001C36.66 68.0901 36.65 68.0901 36.64 68.0801C36.63 68.0701 36.62 68.0701 36.61 68.0601L4.68 49.9001L2.22 48.5201C2.04 48.4201 1.93 48.2101 1.9 47.9201L0.270004 47.0101C0.0900043 46.9601 0 46.7801 0 46.5301Z" fill="#B3B3B3"/>
<path d="M0.529785 45.5201C0.529785 45.0201 0.879786 44.4101 1.31979 44.1601C1.53979 44.0301 1.73979 44.0201 1.88979 44.1101L5.33978 46.0501L4.15978 47.9301L0.769783 46.0301C0.619783 45.9401 0.529785 45.7701 0.529785 45.5201Z" fill="url(#paint0_linear_1177_360766)"/>
<path d="M3.95996 47.44C3.95996 47.94 4.30995 48.14 4.74995 47.89C5.17995 47.64 5.53996 47.0301 5.53996 46.53C5.53996 46.03 5.18995 45.83 4.74995 46.08C4.31995 46.34 3.95996 46.94 3.95996 47.44Z" fill="#9D9D9D"/>
<path d="M2.37988 46.81C2.37988 46.1 2.87988 45.23 3.49988 44.88C3.81988 44.7 4.09988 44.68 4.30988 44.81L9.21988 47.57L7.53988 50.24L2.71988 47.54C2.50988 47.42 2.37988 47.17 2.37988 46.81Z" fill="url(#paint1_linear_1177_360766)"/>
<path d="M7.27002 49.5599C7.27002 50.2699 7.77002 50.5599 8.39002 50.1999C9.01002 49.8399 9.51002 48.9799 9.51002 48.2699C9.51002 47.5599 9.01002 47.2699 8.39002 47.6299C7.77002 47.9799 7.27002 48.8499 7.27002 49.5599Z" fill="#9D9D9D"/>
<path d="M4.08984 47.77C4.08984 47.06 4.58985 46.19 5.20985 45.83C5.52985 45.65 5.80984 45.63 6.01984 45.76L38.7898 64.41L37.1098 67.09L4.41985 48.5C4.21985 48.37 4.08984 48.12 4.08984 47.77Z" fill="url(#paint2_linear_1177_360766)"/>
<path d="M36.8496 66.4C36.8496 67.11 37.3496 67.4 37.9696 67.04C38.5896 66.68 39.0896 65.81 39.0896 65.1C39.0896 64.39 38.5896 64.1 37.9696 64.46C37.3496 64.82 36.8496 65.69 36.8496 66.4Z" fill="#239D8E"/>
<path d="M36.8496 66.4C36.8496 66.44 36.8496 66.47 36.8596 66.51C36.8896 66.9 37.0796 67.14 37.3596 67.19L42.3596 68.95L43.6696 69.35L42.7896 68.36L38.9196 64.53C38.9196 64.52 38.9196 64.52 38.9096 64.52C38.7096 64.28 38.3596 64.24 37.9696 64.47C37.7896 64.58 37.6096 64.73 37.4596 64.9C37.0996 65.33 36.8496 65.9 36.8496 66.4Z" fill="#BDBDBD"/>
<path d="M36.8599 66.51C36.8799 66.87 37.0499 67.1 37.2899 67.17C37.3099 67.18 37.3399 67.18 37.3599 67.19L42.3599 68.95L43.6699 69.35L36.8599 66.51Z" fill="#727373"/>
<path d="M37.46 64.9L43.67 69.34L42.79 68.35C42.79 68.35 38.91 64.4999 38.9 64.4999C38.7 64.2599 38.36 64.23 37.97 64.46C37.79 64.57 37.61 64.73 37.46 64.9Z" fill="#F2F2F2"/>
<path d="M42.3096 68.8001C42.3096 68.8701 42.3296 68.9101 42.3696 68.9501C42.3796 68.9601 42.3996 68.9601 42.4096 68.9701C42.4996 69.0001 42.5896 69.0301 42.6896 69.0701C42.8296 69.1201 42.9696 69.1701 43.1096 69.2201C43.2496 69.2701 43.3996 69.3202 43.5396 69.3702C43.5796 69.3802 43.6296 69.4002 43.6696 69.4002C43.6896 69.4002 43.7096 69.3901 43.7196 69.3801C43.7596 69.3301 43.6996 69.2701 43.6696 69.2401C43.6196 69.1901 43.5696 69.1402 43.5096 69.0902C43.3996 68.9802 43.2896 68.8701 43.1796 68.7601C43.0896 68.6701 42.9996 68.5801 42.9096 68.4901C42.8696 68.4501 42.8296 68.4201 42.7896 68.3801C42.7396 68.3201 42.6696 68.3102 42.5696 68.3702C42.4296 68.4302 42.3096 68.6301 42.3096 68.8001Z" fill="#8D8E93"/>
<path d="M3.81957 45.68V45.46L3.92957 45.5C3.94957 45.49 3.95957 45.47 3.97957 45.46L4.65957 45.07C4.86957 44.95 5.21957 44.94 5.43957 45.06C11.0896 46.88 14.3496 50.16 14.4596 50.27L14.6196 50.25V50.51C14.6196 50.59 14.5596 50.67 14.4496 50.74L13.7696 51.13C13.5596 51.25 13.2196 51.26 12.9896 51.14L3.94957 45.92C3.84957 45.86 3.80957 45.78 3.80957 45.7V45.68H3.81957Z" fill="#BDBDBD"/>
<path d="M3.98975 45.23L4.66975 44.84C4.87975 44.72 5.22975 44.71 5.44975 44.83C11.1997 46.68 14.4797 50.05 14.4797 50.05C14.6797 50.18 14.6798 50.38 14.4598 50.5L13.7798 50.89C13.5698 51.01 13.2297 51.02 12.9997 50.9L3.95975 45.68C3.75975 45.55 3.76975 45.35 3.98975 45.23Z" fill="#F5F5F5"/>
<path d="M13.7994 50.0599C13.7894 50.0599 13.7894 50.0499 13.7994 50.0599C13.7494 50.0099 13.7094 49.9699 13.6694 49.9299C13.5894 49.8499 13.4994 49.7699 13.4094 49.6899C13.2794 49.5699 13.1494 49.4599 13.0194 49.3499C12.8494 49.2099 12.6694 49.0699 12.4994 48.9299C12.2894 48.7599 12.0694 48.5999 11.8494 48.4499C11.5994 48.2699 11.3394 48.0899 11.0694 47.9199C10.7794 47.7299 10.4794 47.5399 10.1694 47.3599C9.83937 47.1599 9.49936 46.9799 9.14936 46.7999C8.77936 46.6099 8.39936 46.4199 8.01936 46.2499C7.60936 46.0599 7.19937 45.8899 6.77937 45.7299C6.55937 45.6499 6.33936 45.5599 6.11936 45.4899C6.00936 45.4499 5.88937 45.4099 5.77937 45.3699C5.69937 45.3399 5.59936 45.3299 5.53936 45.2799C5.49936 45.2499 5.47937 45.1999 5.48937 45.1599C5.49937 45.1199 5.53937 45.0999 5.56937 45.0899C5.67937 45.0499 5.79936 45.0799 5.90936 45.1199C5.95936 45.1399 6.19936 45.2299 6.26936 45.2499C6.70936 45.3999 7.13937 45.5599 7.56937 45.7399C7.96937 45.9099 8.36936 46.0799 8.75936 46.2699C9.11936 46.4499 9.47936 46.6299 9.83936 46.8299C10.1694 47.0099 10.4894 47.1899 10.7994 47.3899C11.0894 47.5699 11.3694 47.7499 11.6494 47.9299C11.8894 48.0999 12.1394 48.2699 12.3694 48.4399C12.5694 48.5899 12.7694 48.7399 12.9694 48.8999C13.1294 49.0299 13.2894 49.1599 13.4394 49.2899C13.5494 49.3899 13.6694 49.4899 13.7794 49.5899C13.8694 49.6699 13.9594 49.7399 14.0394 49.8299C14.0994 49.8899 14.1994 49.9599 14.1894 50.0499C14.1794 50.1199 14.1194 50.1599 14.0594 50.1699C13.9394 50.1799 13.8694 50.1299 13.7994 50.0599Z" fill="white"/>
<path d="M47.2398 66.45H44.7398L2.50977 42.05L19.3998 32.2L47.2398 66.45Z" fill="#B3B3B3"/>
<path d="M24.2799 50.25L77.9999 19.2L56.3299 9L2.60986 40.05L24.2799 50.25Z" fill="#255B80"/>
<path d="M75.63 19.3L56.39 10.24L4.97998 39.95L24.23 49.01L75.63 19.3Z" fill="#F2F2F2"/>
<path d="M74.0501 19.3701L56.4201 11.0701L6.56006 39.8901L24.1901 48.1801L74.0501 19.3701Z" fill="#282F39"/>
<path d="M73.2601 19.4L56.4401 11.48L7.3501 39.85L24.1801 47.77L73.2601 19.4Z" fill="#F2F2F2"/>
<path d="M24.2798 50.84V50.2499L77.9998 19.2V19.7899L24.2798 50.84Z" fill="#4D1F1F"/>
<path d="M2.60986 40.05V40.64L24.2799 50.8401V50.25L2.60986 40.05Z" fill="#002640"/>
<path d="M25.1898 50.7599L78.9098 19.71L77.9998 19.2L24.2798 50.2499L25.1898 50.7599Z" fill="#255B80"/>
<path d="M25.1899 53.7199V50.7599L78.9099 19.71V22.67L25.1899 53.7199Z" fill="#1F4C6B"/>
<path d="M24.2798 50.25V53.22L25.1898 53.72V50.76L24.2798 50.25Z" fill="#002640"/>
<path d="M47.2399 65.8701L100.97 34.8201L78.9099 22.0901L25.1899 53.1401L47.2399 65.8701Z" fill="#255B80"/>
<path d="M47.2397 66.4501V65.8701L100.97 34.8201V35.4001L47.2397 66.4501Z" fill="#1F4C6B"/>
<path d="M25.1899 53.1401V53.7201L47.2399 66.4501V65.8701L25.1899 53.1401Z" fill="#002640"/>
<path d="M47.46 64.3001L100.08 33.8901L78.41 21.3901L25.79 51.8001L47.46 64.3001Z" fill="#F2F2F2"/>
<path d="M98.81 33.8902L79.82 22.9202L28.48 52.6002L47.46 63.5702L98.81 33.8902Z" fill="#E6D1D1"/>
<path d="M97.5502 33.9001L79.8202 23.6501L29.7402 52.5901L47.4702 62.8401L97.5502 33.9001Z" fill="#F2F2F2"/>
<path d="M46.71 62.4002L96.79 33.4602L97.09 33.6302L47.01 62.5702L46.71 62.4002Z" fill="#E6D1D1"/>
<path d="M45.6299 61.7703L95.7099 32.8303L95.9999 33.0003L45.9199 61.9403L45.6299 61.7703Z" fill="#E6D1D1"/>
<path d="M44.54 61.1502L94.62 32.2002L94.91 32.3702L44.83 61.3202L44.54 61.1502Z" fill="#E6D1D1"/>
<path d="M43.4497 60.5203L93.5297 31.5803L93.8197 31.7503L43.7397 60.6903L43.4497 60.5203Z" fill="#E6D1D1"/>
<path d="M42.3599 59.8902L92.4399 30.9502L92.7399 31.1202L42.6599 60.0602L42.3599 59.8902Z" fill="#E6D1D1"/>
<path d="M41.27 59.2603L91.35 30.3203L91.65 30.4903L41.57 59.4303L41.27 59.2603Z" fill="#E6D1D1"/>
<path d="M40.1899 58.6302L90.2699 29.6902L90.5599 29.8602L40.4799 58.8002L40.1899 58.6302Z" fill="#E6D1D1"/>
<path d="M39.1001 58.0003L89.1801 29.0603L89.4701 29.2303L39.3901 58.1703L39.1001 58.0003Z" fill="#E6D1D1"/>
<path d="M38.0098 57.3702L88.0898 28.4302L88.3798 28.6002L38.2998 57.5402L38.0098 57.3702Z" fill="#E6D1D1"/>
<path d="M36.9199 56.7503L86.9999 27.8003L87.2999 27.9703L37.2199 56.9103L36.9199 56.7503Z" fill="#E6D1D1"/>
<path d="M35.8398 56.1202L85.9198 27.1802L86.2099 27.3402L36.1299 56.2902L35.8398 56.1202Z" fill="#E6D1D1"/>
<path d="M34.75 55.4903L84.83 26.5503L85.12 26.7203L35.04 55.6603L34.75 55.4903Z" fill="#E6D1D1"/>
<path d="M33.6597 54.8602L83.7397 25.9202L84.0297 26.0902L33.9497 55.0302L33.6597 54.8602Z" fill="#E6D1D1"/>
<path d="M32.5698 54.2303L82.6498 25.2903L82.9498 25.4603L32.8698 54.4003L32.5698 54.2303Z" fill="#E6D1D1"/>
<path d="M31.48 53.6002L81.56 24.6602L81.86 24.8302L31.78 53.7702L31.48 53.6002Z" fill="#E6D1D1"/>
<path d="M30.3999 52.9702L80.4799 24.0303L80.7699 24.2003L30.6899 53.1403L30.3999 52.9702Z" fill="#E6D1D1"/>
<path d="M35.5203 50.9701C35.6203 50.9801 35.7303 50.9601 35.8203 50.9201L35.7503 50.8801C35.6203 50.9501 35.4903 50.9401 35.3603 50.9001L35.3003 50.9401L36.5503 51.6601L36.6303 51.6101L35.5203 50.9701Z" fill="black"/>
<path d="M35.43 51.2201C35.25 51.1101 35.03 51.0901 34.84 51.2001C34.65 51.3101 34.7 51.4401 34.88 51.5401L35.52 51.9101C35.7 52.0101 35.92 52.0401 36.11 51.9301C36.3 51.8201 36.25 51.6902 36.07 51.5902L35.43 51.2201ZM35.99 51.6301C36.13 51.7101 36.17 51.8001 36.03 51.8801C35.89 51.9601 35.74 51.9301 35.6 51.8501L34.95 51.4801C34.82 51.4001 34.77 51.3101 34.91 51.2301C35.05 51.1501 35.21 51.1801 35.34 51.2501L35.99 51.6301Z" fill="black"/>
<path d="M34.7503 51.6103C34.5703 51.5003 34.3503 51.4803 34.1603 51.5903C33.9703 51.7003 34.0203 51.8303 34.2003 51.9303L34.8403 52.3003C35.0203 52.4103 35.2403 52.4303 35.4303 52.3203C35.6203 52.2103 35.5703 52.0803 35.3903 51.9803L34.7503 51.6103ZM35.3103 52.0303C35.4503 52.1103 35.4903 52.2003 35.3503 52.2803C35.2103 52.3603 35.0603 52.3302 34.9203 52.2502L34.2703 51.8803C34.1303 51.8003 34.0903 51.7103 34.2303 51.6303C34.3703 51.5503 34.5203 51.5803 34.6603 51.6503L35.3103 52.0303Z" fill="black"/>
<path d="M34.0702 52.0002C33.8902 51.8902 33.6702 51.8702 33.4802 51.9802C33.2902 52.0902 33.3401 52.2202 33.5201 52.3202L34.1601 52.6902C34.3401 52.8002 34.5601 52.8202 34.7501 52.7102C34.9401 52.6002 34.8902 52.4702 34.7102 52.3702L34.0702 52.0002ZM34.6301 52.4202C34.7701 52.5002 34.8101 52.5902 34.6701 52.6702C34.5301 52.7502 34.3802 52.7202 34.2402 52.6402L33.5901 52.2702C33.4501 52.1902 33.4101 52.1002 33.5501 52.0202C33.6901 51.9402 33.8402 51.9702 33.9802 52.0402L34.6301 52.4202Z" fill="black"/>
<path d="M93.9501 34.3701C94.0101 34.3701 94.0801 34.3701 94.1301 34.3401L94.0901 34.3201C94.0101 34.3601 93.9301 34.3601 93.8501 34.3301L93.8101 34.3501L94.5701 34.7901L94.6201 34.7601L93.9501 34.3701Z" fill="black"/>
<path d="M93.3898 34.8102C93.6098 34.9402 93.9598 34.8202 94.1898 34.9502H94.1998L93.9298 35.1102L93.9698 35.1402L94.2898 34.9502L94.2498 34.9302C93.9798 34.7802 93.6498 34.9002 93.4398 34.7802C93.3498 34.7302 93.3198 34.6802 93.4098 34.6302C93.4898 34.5802 93.5898 34.6002 93.6698 34.6502L93.7198 34.6802L93.7698 34.6502L93.7198 34.6202C93.6098 34.5602 93.4798 34.5402 93.3598 34.6002C93.2398 34.6802 93.2798 34.7502 93.3898 34.8102Z" fill="black"/>
<path d="M92.8098 35.1501L92.8298 35.1601C92.8998 35.2001 92.9998 35.2201 93.0898 35.1901C93.0398 35.2401 93.0698 35.2901 93.1398 35.3401L93.1998 35.3701C93.3098 35.4301 93.4398 35.4501 93.5598 35.3801C93.6798 35.3101 93.6398 35.2401 93.5298 35.1701L93.4898 35.1401L93.4398 35.1701L93.4798 35.2001C93.5598 35.2501 93.5898 35.3001 93.5098 35.3501C93.4298 35.4001 93.3298 35.3801 93.2498 35.3301L93.1898 35.3001C93.1098 35.2601 93.0998 35.2101 93.1798 35.1601L93.2298 35.1301L93.1798 35.1001L93.1298 35.1301C93.0598 35.1701 92.9698 35.1601 92.8898 35.1201L92.8598 35.1001C92.7698 35.0501 92.7398 35.0001 92.8298 34.9501C92.9098 34.9001 93.0098 34.9201 93.0898 34.9701L93.1198 34.9901L93.1698 34.9601L93.1398 34.9401C93.0298 34.8801 92.8998 34.8601 92.7798 34.9301C92.6598 35.0101 92.6998 35.0901 92.8098 35.1501Z" fill="black"/>
<path d="M92.6601 35.7001L92.8301 35.8001L92.8801 35.7701L92.7101 35.6701L92.9701 35.5201L92.9201 35.4901L92.1201 35.3201L92.0601 35.3501L92.6101 35.6701L92.5501 35.7101L92.5901 35.7401L92.6601 35.7001ZM92.8801 35.5201L92.6601 35.6401L92.2101 35.3901L92.8801 35.5201Z" fill="black"/>
<path d="M92.0199 35.7601C91.9499 35.7501 91.8899 35.7601 91.8399 35.8001C91.7299 35.8601 91.7699 35.9301 91.8799 35.9901L92.0099 36.0701C92.1199 36.1301 92.2499 36.1501 92.3699 36.0801C92.4899 36.0101 92.4499 35.9401 92.3399 35.8701L92.2999 35.8501L92.2499 35.8801L92.2899 35.9101C92.3699 35.9601 92.3999 36.0101 92.3199 36.0601C92.2399 36.1101 92.1399 36.0901 92.0599 36.0501L91.9299 35.9801C91.8499 35.9301 91.8199 35.8801 91.8999 35.8301C91.9599 35.8001 92.0199 35.7901 92.0999 35.8201L92.1099 35.8301L92.1599 35.8001L91.7299 35.5801L91.4399 35.7501L91.4899 35.7801L91.7299 35.6401L92.0199 35.7601Z" fill="black"/>
<path d="M91.0299 36.1801L91.0899 36.1601L91.0799 36.1501C90.9999 36.1001 90.9699 36.0501 91.0599 36.0001C91.1499 35.9501 91.2399 35.9701 91.3299 36.0201L91.4999 36.1202C91.4299 36.1102 91.3599 36.1201 91.2899 36.1601C91.1799 36.2201 91.2199 36.2901 91.3299 36.3501L91.4199 36.4001C91.5299 36.4601 91.6599 36.4801 91.7799 36.4101C91.8999 36.3401 91.8699 36.2601 91.7599 36.2001L91.3699 35.9801C91.2599 35.9101 91.1299 35.9001 91.0099 35.9701C90.8899 36.0401 90.9199 36.1101 91.0299 36.1801ZM91.6099 36.1801L91.6999 36.2301C91.7799 36.2801 91.8099 36.3301 91.7199 36.3801C91.6399 36.4301 91.5399 36.4102 91.4599 36.3702L91.3699 36.3201C91.2899 36.2701 91.2599 36.2201 91.3499 36.1701C91.4399 36.1201 91.5299 36.1401 91.6099 36.1801Z" fill="black"/>
<path d="M90.3598 36.4L90.6398 36.24L90.5898 36.21L90.2598 36.4L90.3098 36.43L91.2398 36.7199L91.2898 36.6899L90.3598 36.4Z" fill="black"/>
<path d="M89.8396 36.8602L89.8596 36.8702C89.9396 36.9102 90.0296 36.9302 90.1196 36.9002C90.0696 36.9602 90.0996 37.0102 90.1796 37.0502L90.2296 37.0802C90.3396 37.1402 90.4696 37.1602 90.5896 37.0902C90.7096 37.0202 90.6896 36.9402 90.5796 36.8802L90.5296 36.8502C90.4496 36.8002 90.3596 36.7902 90.2596 36.8202C90.3096 36.7702 90.2796 36.7102 90.1996 36.6702L90.1796 36.6602C90.0696 36.5902 89.9396 36.5902 89.8196 36.6602C89.7196 36.7202 89.7296 36.7902 89.8396 36.8602ZM90.4796 36.8802L90.5396 36.9102C90.6296 36.9602 90.6396 37.0202 90.5596 37.0602C90.4796 37.1102 90.3796 37.1002 90.2896 37.0502L90.2296 37.0202C90.1396 36.9702 90.1396 36.9202 90.2196 36.8702C90.3096 36.8302 90.3896 36.8302 90.4796 36.8802ZM90.1396 36.6802L90.1696 36.7002C90.2596 36.7502 90.2596 36.8002 90.1696 36.8502C90.0896 36.9002 89.9996 36.9002 89.9196 36.8502L89.8896 36.8302C89.7996 36.7802 89.7896 36.7202 89.8696 36.6802C89.9596 36.6302 90.0496 36.6302 90.1396 36.6802Z" fill="black"/>
<path d="M89.5999 37.0002C89.4899 36.9402 89.3599 36.9202 89.2399 36.9902C89.1199 37.0602 89.1499 37.1302 89.2599 37.2002L89.6499 37.4202C89.7599 37.4802 89.8899 37.5002 90.0099 37.4302C90.1299 37.3602 90.0999 37.2902 89.9899 37.2202L89.5999 37.0002ZM89.9399 37.2602C90.0199 37.3102 90.0498 37.3602 89.9698 37.4102C89.8898 37.4602 89.7899 37.4402 89.7099 37.4002L89.3199 37.1702C89.2399 37.1202 89.2099 37.0702 89.2999 37.0202C89.3799 36.9702 89.4798 36.9902 89.5598 37.0302L89.9399 37.2602Z" fill="black"/>
<path d="M78.6004 43.2502C78.6604 43.2502 78.7304 43.2502 78.7804 43.2202L78.7404 43.2002C78.6604 43.2402 78.5804 43.2402 78.5004 43.2102L78.4604 43.2302L79.2204 43.6702L79.2704 43.6402L78.6004 43.2502Z" fill="black"/>
<path d="M78.0402 43.6901C78.2602 43.8201 78.6102 43.7001 78.8402 43.8301H78.8502L78.5802 43.9901L78.6202 44.0201L78.9502 43.8301L78.9102 43.8101C78.6402 43.6601 78.3002 43.7801 78.1002 43.6601C78.0102 43.6101 77.9802 43.5601 78.0702 43.5101C78.1502 43.4601 78.2502 43.4801 78.3302 43.5301L78.3802 43.5601L78.4302 43.5301L78.3802 43.5001C78.2702 43.4401 78.1402 43.4201 78.0202 43.4801C77.8902 43.5501 77.9202 43.6201 78.0402 43.6901Z" fill="black"/>
<path d="M77.4501 44.0202L77.4701 44.0303C77.5401 44.0703 77.6401 44.0903 77.7301 44.0603C77.6801 44.1103 77.7101 44.1602 77.7801 44.2102L77.8401 44.2402C77.9501 44.3002 78.0801 44.3202 78.2001 44.2502C78.3201 44.1802 78.2801 44.1102 78.1701 44.0402L78.1301 44.0102L78.0801 44.0402L78.1201 44.0702C78.2001 44.1202 78.2301 44.1702 78.1501 44.2202C78.0701 44.2702 77.9701 44.2502 77.8901 44.2002L77.8301 44.1702C77.7501 44.1302 77.7401 44.0803 77.8201 44.0303L77.8701 44.0002L77.8201 43.9702L77.7701 44.0002C77.7001 44.0402 77.6101 44.0302 77.5301 43.9902L77.5001 43.9702C77.4101 43.9202 77.3801 43.8702 77.4701 43.8202C77.5501 43.7702 77.6501 43.7903 77.7301 43.8403L77.7601 43.8602L77.8101 43.8302L77.7801 43.8103C77.6701 43.7503 77.5401 43.7302 77.4201 43.8002C77.3101 43.8802 77.3401 43.9602 77.4501 44.0202Z" fill="black"/>
<path d="M77.3002 44.5802L77.4702 44.6802L77.5202 44.6502L77.3502 44.5502L77.6102 44.4002L77.5602 44.3702L76.7602 44.2002L76.7002 44.2302L77.2502 44.5502L77.1902 44.5902L77.2302 44.6202L77.3002 44.5802ZM77.5202 44.4002L77.3002 44.5202L76.8502 44.2602L77.5202 44.4002Z" fill="black"/>
<path d="M76.6601 44.6302C76.5901 44.6202 76.5401 44.6302 76.4801 44.6702C76.3701 44.7302 76.4101 44.8002 76.5201 44.8602L76.6501 44.9402C76.7601 45.0002 76.8901 45.0202 77.0101 44.9502C77.1301 44.8802 77.0901 44.8102 76.9801 44.7402L76.9401 44.7202L76.8901 44.7502L76.9301 44.7802C77.0101 44.8302 77.0401 44.8802 76.9601 44.9302C76.8801 44.9802 76.7801 44.9602 76.7001 44.9202L76.5701 44.8502C76.4901 44.8002 76.4601 44.7502 76.5401 44.7002C76.6001 44.6702 76.6601 44.6602 76.7401 44.6902L76.7501 44.7002L76.8001 44.6702L76.3701 44.4502L76.0801 44.6202L76.1301 44.6502L76.3701 44.5102L76.6601 44.6302Z" fill="black"/>
<path d="M75.6705 45.0502L75.7305 45.0303L75.7205 45.0202C75.6405 44.9702 75.6105 44.9203 75.7005 44.8703C75.7905 44.8203 75.8805 44.8402 75.9705 44.8902L76.1405 44.9903C76.0705 44.9803 76.0005 44.9903 75.9405 45.0303C75.8305 45.0903 75.8705 45.1602 75.9705 45.2202L76.0605 45.2702C76.1705 45.3302 76.3005 45.3503 76.4205 45.2803C76.5405 45.2103 76.5105 45.1302 76.4005 45.0702L76.0105 44.8502C75.9005 44.7802 75.7705 44.7703 75.6505 44.8403C75.5305 44.9103 75.5605 44.9802 75.6705 45.0502ZM76.2605 45.0603L76.3505 45.1102C76.4305 45.1602 76.4605 45.2102 76.3705 45.2602C76.2805 45.3102 76.1905 45.2902 76.1105 45.2502L76.0205 45.2002C75.9405 45.1502 75.9105 45.1002 76.0005 45.0502C76.0805 45.0002 76.1805 45.0103 76.2605 45.0603Z" fill="black"/>
<path d="M75.0004 45.2803L75.2804 45.1203L75.2304 45.0903L74.9004 45.2803L74.9404 45.3103L75.8704 45.6003L75.9204 45.5703L75.0004 45.2803Z" fill="black"/>
<path d="M74.4902 45.7303L74.5102 45.7403C74.5902 45.7903 74.6802 45.8003 74.7702 45.7703C74.7202 45.8303 74.7502 45.8803 74.8302 45.9203L74.8802 45.9503C74.9902 46.0103 75.1202 46.0303 75.2402 45.9603C75.3602 45.8903 75.3402 45.8103 75.2302 45.7503L75.1802 45.7203C75.1002 45.6703 75.0102 45.6603 74.9102 45.6903C74.9602 45.6403 74.9302 45.5803 74.8502 45.5403L74.8302 45.5303C74.7202 45.4603 74.5902 45.4603 74.4702 45.5303C74.3602 45.5903 74.3702 45.6603 74.4902 45.7303ZM75.1302 45.7503L75.1902 45.7803C75.2802 45.8303 75.2902 45.8903 75.2102 45.9303C75.1302 45.9803 75.0302 45.9703 74.9402 45.9203L74.8802 45.8903C74.7902 45.8403 74.7902 45.7903 74.8702 45.7403C74.9502 45.7003 75.0402 45.7003 75.1302 45.7503ZM74.7902 45.5603L74.8202 45.5803C74.9102 45.6303 74.9102 45.6803 74.8302 45.7303C74.7502 45.7803 74.6602 45.7803 74.5802 45.7303L74.5502 45.7103C74.4602 45.6603 74.4502 45.6003 74.5302 45.5603C74.6102 45.5003 74.7002 45.5103 74.7902 45.5603Z" fill="black"/>
<path d="M74.2502 45.8801C74.1402 45.8201 74.0102 45.8001 73.8902 45.8701C73.7702 45.9401 73.8002 46.0101 73.9102 46.0801L74.3002 46.3001C74.4102 46.3601 74.5402 46.3801 74.6602 46.3101C74.7802 46.2401 74.7502 46.1701 74.6402 46.1001L74.2502 45.8801ZM74.5902 46.1301C74.6702 46.1801 74.7003 46.2301 74.6203 46.2801C74.5403 46.3301 74.4402 46.3101 74.3602 46.2701L73.9702 46.0401C73.8902 45.9901 73.8602 45.9401 73.9502 45.8901C74.0302 45.8401 74.1303 45.8601 74.2103 45.9001L74.5902 46.1301Z" fill="black"/>
<path d="M70.2699 48.06C70.3299 48.06 70.3999 48.06 70.4499 48.03L70.4099 48C70.3299 48.04 70.2499 48.04 70.1699 48.01L70.1299 48.03L70.8899 48.47L70.9399 48.44L70.2699 48.06Z" fill="black"/>
<path d="M69.7103 48.5001C69.9303 48.6301 70.2803 48.5101 70.5103 48.6401H70.5203L70.2503 48.8001L70.3003 48.8301L70.6203 48.6401L70.5803 48.6201C70.3103 48.4701 69.9703 48.5901 69.7703 48.4701C69.6803 48.4201 69.6503 48.3701 69.7403 48.3201C69.8203 48.2701 69.9203 48.2901 70.0003 48.3401L70.0503 48.3701L70.1003 48.3401L70.0503 48.3101C69.9403 48.2501 69.8103 48.2301 69.6903 48.2901C69.5603 48.3601 69.6003 48.4401 69.7103 48.5001Z" fill="black"/>
<path d="M69.1301 48.83L69.1501 48.84C69.2301 48.88 69.3201 48.9 69.4101 48.87C69.3601 48.92 69.3901 48.97 69.4601 49.02L69.5201 49.05C69.6301 49.11 69.7601 49.13 69.8801 49.07C70.0001 49 69.9601 48.93 69.8501 48.86L69.8101 48.84L69.7601 48.87L69.8001 48.9C69.8801 48.95 69.9101 49 69.8301 49.05C69.7501 49.1 69.6501 49.08 69.5701 49.03L69.5101 48.9999C69.4301 48.9499 69.4201 48.91 69.5001 48.86L69.5501 48.83L69.5001 48.8L69.4501 48.83C69.3801 48.87 69.2801 48.86 69.2101 48.82L69.1801 48.8C69.0901 48.75 69.0601 48.7 69.1501 48.65C69.2301 48.6 69.3301 48.62 69.4101 48.66L69.4401 48.68L69.4901 48.65L69.4601 48.63C69.3501 48.57 69.2201 48.55 69.1001 48.61C68.9801 48.7 69.0201 48.77 69.1301 48.83Z" fill="black"/>
<path d="M45.7101 51.6701C45.5601 51.7801 45.6201 51.8901 45.7901 51.9801L45.8201 52.0001L45.9001 51.9601L45.8701 51.9401C45.7401 51.8601 45.6901 51.7801 45.8301 51.7001C45.9701 51.6201 46.1101 51.6501 46.2501 51.7301C46.5501 51.9001 46.0901 52.1601 46.4401 52.3601C46.6101 52.4601 46.8001 52.4901 46.9801 52.4001L47.0801 52.4601L47.1501 52.4201L47.0501 52.3601C47.2101 52.2601 47.1401 52.1401 46.9801 52.0501L46.9101 52.0101L46.8301 52.0601L46.9001 52.1001C47.0401 52.1801 47.0801 52.2601 46.9401 52.3401C46.8001 52.4201 46.6501 52.3901 46.5201 52.3201C46.2201 52.1501 46.6801 51.8901 46.3401 51.6901C46.1601 51.5901 45.9801 51.5601 45.8001 51.6501L45.6901 51.5901L45.6201 51.6301L45.7101 51.6701Z" fill="black"/>
<path d="M43.0703 51.3001C42.8803 51.4101 42.9203 51.5301 43.1003 51.6401L43.7303 52.0001C43.9103 52.1101 44.1203 52.1301 44.3203 52.0201L44.6003 51.8601L43.3503 51.1401L43.0703 51.3001ZM44.2403 51.9801C44.1003 52.0601 43.9503 52.0401 43.8103 51.9601L43.1703 51.5901C43.0303 51.5101 43.0003 51.4201 43.1403 51.3401L43.3303 51.2301L44.4303 51.8601L44.2403 51.9801Z" fill="black"/>
<path d="M43.51 52.1702L43.85 52.2902L43.93 52.2502L42.41 51.6902L42.29 51.7602L43.26 52.6402L43.34 52.5902L43.13 52.3902L43.51 52.1702ZM43.43 52.1302L43.06 52.3402L42.44 51.7702L43.43 52.1302Z" fill="black"/>
<path d="M42.9799 52.7902L41.8099 52.1102L42.0699 51.9602L41.9899 51.9202L41.3999 52.2602L41.4799 52.3002L41.7399 52.1502L42.9099 52.8302L42.9799 52.7902Z" fill="black"/>
<path d="M41.4501 52.9001L41.5301 52.94L41.8701 52.7401L42.3901 53.04L41.9801 53.2801L42.0601 53.32L42.5601 53.0301L41.3101 52.3101L40.8101 52.6L40.8901 52.64L41.3001 52.4001L41.8001 52.69L41.4501 52.9001Z" fill="black"/>
<path d="M79.6901 26.1801L79.2101 25.5701L79.1201 25.6201L79.5401 26.1401L78.6401 25.9001L78.5601 25.9501L79.6101 26.2301L80.0901 26.5101L80.1701 26.4601L79.6901 26.1801Z" fill="black"/>
<path d="M78.7703 26.1701C78.5903 26.0601 78.3704 26.0401 78.1804 26.1501C77.9904 26.2601 78.0403 26.3901 78.2203 26.4901L78.8603 26.8601C79.0403 26.9701 79.2603 26.9901 79.4503 26.8801C79.6403 26.7701 79.5903 26.6401 79.4103 26.5401L78.7703 26.1701ZM79.3403 26.5901C79.4803 26.6701 79.5203 26.7601 79.3803 26.8401C79.2403 26.9201 79.0903 26.9001 78.9503 26.8201L78.3003 26.4401C78.1603 26.3601 78.1204 26.2701 78.2604 26.1901C78.4004 26.1101 78.5503 26.1401 78.6903 26.2101L79.3403 26.5901Z" fill="black"/>
<path d="M78.6502 26.9801C78.7802 27.0601 78.8402 27.1501 78.7002 27.2301C78.5602 27.3101 78.4102 27.2801 78.2702 27.2001L77.3202 26.6501L77.2402 26.6901L78.1802 27.2301C78.3602 27.3301 78.5702 27.3701 78.7602 27.2601C78.9502 27.1501 78.8902 27.0301 78.7102 26.9201L77.7702 26.3801L77.6902 26.4301L78.6502 26.9801Z" fill="black"/>
<path d="M76.8501 26.93C76.6601 27.04 76.6901 27.15 76.8601 27.25L76.9701 27.31C77.1201 27.39 77.2601 27.41 77.4101 27.35C77.3101 27.44 77.3501 27.52 77.4801 27.6L77.6701 27.71C77.7201 27.74 77.7801 27.78 77.7901 27.81L77.8801 27.76C77.8601 27.73 77.8301 27.7 77.7601 27.66L77.5601 27.55C77.3901 27.45 77.4401 27.38 77.5801 27.29L77.7101 27.21L78.2701 27.53L78.3501 27.48L77.1001 26.76L76.8501 26.93ZM77.5101 27.26C77.3601 27.34 77.2401 27.37 77.0701 27.27L76.9501 27.2C76.8201 27.12 76.7901 27.05 76.9201 26.97L77.1001 26.87L77.6401 27.18L77.5101 27.26Z" fill="black"/>
<path d="M77.3203 28.1001L77.4003 28.0601L76.1503 27.3401L76.0403 27.4001L76.7203 28.2301L75.6703 27.6201L75.5903 27.6601L76.8403 28.3801L76.9303 28.3301L76.2103 27.4601L77.3203 28.1001Z" fill="black"/>
<path d="M76.2903 28.3701L76.6303 28.4901L76.7103 28.4501L75.1903 27.8901L75.0703 27.9601L76.0403 28.8401L76.1203 28.7901L75.9103 28.5901L76.2903 28.3701ZM76.2103 28.3401L75.8403 28.5501L75.2203 27.9801L76.2103 28.3401Z" fill="black"/>
<path d="M75.4904 29.1602L75.5704 29.1102L74.7304 28.3202L75.8404 28.9602L75.9104 28.9202L74.6604 28.2002L74.5404 28.2702L75.3804 29.0602L74.0204 28.5702L73.9004 28.6402L75.1504 29.3602L75.2304 29.3102L74.1204 28.6702L75.4904 29.1602Z" fill="black"/>
<path d="M73.9102 29.2902L73.9803 29.3302L74.3203 29.1302L74.8402 29.4302L74.4303 29.6702L74.5103 29.7102L75.0103 29.4202L73.7603 28.7002L73.2603 28.9902L73.3402 29.0302L73.7502 28.7902L74.2502 29.0802L73.9102 29.2902Z" fill="black"/>
<path d="M46.8801 54.2101C46.7501 54.2901 46.7701 54.3701 46.9001 54.4501L47.3401 54.7001C47.4701 54.7701 47.6101 54.7901 47.7501 54.7101L47.9401 54.6001L47.0701 54.1001L46.8801 54.2101ZM47.7001 54.6801C47.6001 54.7401 47.5001 54.7201 47.4001 54.6701L46.9601 54.4201C46.8601 54.3601 46.8401 54.3001 46.9401 54.2501L47.0701 54.1701L47.8301 54.6101L47.7001 54.6801Z" fill="black"/>
<path d="M46.8102 54.4901C46.6802 54.4201 46.5302 54.4001 46.4002 54.4701C46.2702 54.5501 46.3002 54.6401 46.4302 54.7101L46.8702 54.9701C47.0002 55.0401 47.1502 55.0601 47.2802 54.9901C47.4102 54.9101 47.3802 54.8301 47.2502 54.7501L46.8102 54.4901ZM47.2002 54.7801C47.2902 54.8301 47.3302 54.9001 47.2302 54.9501C47.1302 55.0101 47.0302 54.9901 46.9302 54.9301L46.4802 54.6701C46.3902 54.6201 46.3502 54.5501 46.4502 54.5001C46.5502 54.4401 46.6502 54.4601 46.7502 54.5201L47.2002 54.7801Z" fill="black"/>
<path d="M46.9901 55.1501L46.1201 54.6501L46.0601 54.6801L46.8801 55.1501L46.6101 55.3102L46.6601 55.3401L46.9901 55.1501Z" fill="black"/>
<path d="M46.5701 55.3901L45.7001 54.8901L45.6401 54.9201L46.4601 55.3901L46.1901 55.5501L46.2401 55.5801L46.5701 55.3901Z" fill="black"/>
<path d="M45.8803 55.56L46.1203 55.65L46.1703 55.62L45.1103 55.23L45.0303 55.28L45.7103 55.9L45.7703 55.87L45.6203 55.73L45.8803 55.56ZM45.8203 55.54L45.5703 55.69L45.1403 55.29L45.8203 55.54Z" fill="black"/>
<path d="M44.57 55.5402C44.44 55.6202 44.46 55.6902 44.58 55.7602L44.66 55.8002C44.76 55.8602 44.86 55.8702 44.97 55.8302C44.9 55.8902 44.93 55.9502 45.02 56.0002L45.15 56.0802C45.19 56.1002 45.22 56.1202 45.23 56.1502L45.29 56.1202C45.28 56.1002 45.25 56.0802 45.2 56.0502L45.06 55.9702C44.94 55.9002 44.98 55.8502 45.07 55.7902L45.16 55.7402L45.55 55.9602L45.61 55.9302L44.74 55.4302L44.57 55.5402ZM45.02 55.7702C44.92 55.8302 44.83 55.8502 44.71 55.7802L44.63 55.7302C44.54 55.6802 44.52 55.6202 44.61 55.5702L44.73 55.5002L45.11 55.7202L45.02 55.7702Z" fill="black"/>
<path d="M44.1102 56.05L44.1302 56.06L44.1802 56.03L44.1602 56.02C44.0702 55.97 44.0302 55.91 44.1302 55.85C44.2202 55.8 44.3302 55.81 44.4202 55.87C44.6302 55.99 44.3202 56.18 44.5602 56.31C44.6802 56.38 44.8302 56.4 44.9602 56.33C45.0902 56.25 45.0602 56.17 44.9302 56.1L44.8902 56.07L44.8402 56.1L44.8902 56.13C44.9802 56.18 45.0102 56.24 44.9202 56.3C44.8202 56.35 44.7202 56.34 44.6302 56.28C44.4202 56.16 44.7302 55.98 44.4902 55.84C44.3602 55.76 44.2202 55.75 44.0902 55.82C43.9502 55.89 43.9802 55.98 44.1102 56.05Z" fill="black"/>
<path d="M40.4701 52.3702L55.4301 43.7302L55.3501 43.6802L40.3901 52.3302L40.4701 52.3702Z" fill="black"/>
<path d="M73.35 45.6002L93.48 33.9702L93.4 33.9202L73.27 45.5602L73.35 45.6002Z" fill="black"/>
<path d="M47.8798 60.3301L69.8598 47.6201L69.7798 47.5701L47.7998 60.2801L47.8798 60.3301Z" fill="black"/>
<path d="M46.48 51.3003L47.65 51.9803L47.73 51.9303L46.56 51.2603L46.48 51.3003Z" fill="black"/>
<path d="M47.6498 51.9802L86.1998 29.7002L86.1198 29.6602L47.5698 51.9302L47.6498 51.9802Z" fill="black"/>
<path d="M44.9701 56.5001L88.7701 31.1901L88.6901 31.1401L44.8901 56.4501L44.9701 56.5001Z" fill="black"/>
<path d="M92.5702 33.8402L92.6102 33.8602L92.8002 33.7502L93.1302 33.9402L93.1802 33.9102L92.4602 33.4902L92.1802 33.6502L92.2202 33.6702L92.4502 33.5402L92.7602 33.7202L92.5702 33.8402Z" fill="black"/>
<path d="M92.28 33.8002C92.17 33.7402 92.05 33.7202 91.94 33.7902C91.83 33.8602 91.86 33.9302 91.96 33.9902L92.33 34.2002C92.44 34.2602 92.56 34.2802 92.67 34.2102C92.78 34.1502 92.75 34.0702 92.65 34.0102L92.28 33.8002ZM92.61 34.0402C92.69 34.0902 92.71 34.1402 92.63 34.1802C92.55 34.2302 92.46 34.2102 92.38 34.1702L92 33.9502C91.92 33.9102 91.9 33.8503 91.98 33.8103C92.06 33.7603 92.15 33.7802 92.23 33.8202L92.61 34.0402Z" fill="black"/>
<path d="M91.5601 34.0202C91.4501 34.0802 91.4601 34.1502 91.5701 34.2002L91.6301 34.2402C91.7101 34.2902 91.8001 34.3002 91.8901 34.2702C91.8301 34.3202 91.8501 34.3702 91.9301 34.4202L92.0401 34.4802C92.0701 34.5002 92.1001 34.5202 92.1101 34.5402L92.1601 34.5102C92.1501 34.4902 92.1301 34.4702 92.0901 34.4502L91.9801 34.3802C91.8801 34.3202 91.9101 34.2802 91.9901 34.2302L92.0701 34.1902L92.3901 34.3802L92.4401 34.3502L91.7201 33.9302L91.5601 34.0202ZM91.9401 34.2102C91.8501 34.2602 91.7801 34.2702 91.6801 34.2202L91.6101 34.1802C91.5301 34.1302 91.5201 34.0902 91.6001 34.0502L91.7001 33.9902L92.0101 34.1702L91.9401 34.2102Z" fill="black"/>
<path d="M84.0703 28.8302C83.9603 28.9002 83.9802 28.9602 84.0902 29.0202L84.1702 29.0702C84.2802 29.1402 84.3903 29.1402 84.5103 29.0702L84.6003 29.0202L84.9003 29.1902L84.9502 29.1602L84.2303 28.7402L84.0703 28.8302ZM84.4603 29.0402C84.3803 29.0902 84.3002 29.0902 84.2202 29.0402L84.1402 28.9902C84.0602 28.9502 84.0403 28.9002 84.1203 28.8502L84.2202 28.7902L84.5602 28.9902L84.4603 29.0402Z" fill="black"/>
<path d="M84.3501 29.3203L84.5501 29.3903L84.5901 29.3603L83.7101 29.0403L83.6401 29.0803L84.2001 29.5903L84.2501 29.5603L84.1301 29.4503L84.3501 29.3203ZM84.3001 29.3003L84.0901 29.4203L83.7301 29.0903L84.3001 29.3003Z" fill="black"/>
<path d="M83.7498 29.5302L83.4698 29.1802L83.4198 29.2102L83.6599 29.5102L83.1398 29.3702L83.0898 29.4002L83.6998 29.5602L83.9799 29.7202L84.0298 29.6902L83.7498 29.5302Z" fill="black"/>
<path d="M83.46 30.0103L82.78 29.6203L82.93 29.5403L82.89 29.5103L82.54 29.7103L82.58 29.7403L82.73 29.6503L83.41 30.0403L83.46 30.0103Z" fill="black"/>
<path d="M82.6701 29.8403C82.5601 29.7803 82.4401 29.7603 82.3301 29.8303C82.2201 29.8903 82.2501 29.9703 82.3501 30.0303L82.7201 30.2403C82.8301 30.3003 82.9501 30.3203 83.0601 30.2503C83.1701 30.1903 83.1401 30.1103 83.0401 30.0503L82.6701 29.8403ZM82.9901 30.0903C83.0701 30.1303 83.0901 30.1903 83.0101 30.2303C82.9301 30.2803 82.8401 30.2603 82.7601 30.2203L82.3901 30.0003C82.3101 29.9503 82.2901 29.9003 82.3701 29.8603C82.4501 29.8103 82.5401 29.8303 82.6201 29.8703L82.9901 30.0903Z" fill="black"/>
<path d="M82.5299 30.5503L81.8499 30.1603L81.9999 30.0803L81.9599 30.0503L81.6099 30.2503L81.6499 30.2803L81.7999 30.1903L82.4799 30.5803L82.5299 30.5503Z" fill="black"/>
<path d="M81.89 30.5303L82.23 30.7303L82.28 30.7003L81.56 30.2803L81.51 30.3103L81.85 30.5103L81.62 30.6403L81.28 30.4402L81.23 30.4702L81.95 30.8903L82 30.8603L81.66 30.6602L81.89 30.5303Z" fill="black"/>
<path d="M81.2301 30.8603L81.2701 30.8802L81.4701 30.7603L81.7701 30.9303L81.5301 31.0703L81.5701 31.1003L81.8601 30.9303L81.1401 30.5103L80.8501 30.6803L80.8901 30.7103L81.1301 30.5703L81.4201 30.7403L81.2301 30.8603Z" fill="black"/>
<path d="M85.2702 29.3503C85.1602 29.2903 85.0402 29.2703 84.9302 29.3403C84.8202 29.4003 84.8502 29.4803 84.9502 29.5403L85.3202 29.7503C85.4202 29.8103 85.5502 29.8303 85.6602 29.7603C85.7702 29.7003 85.7402 29.6203 85.6402 29.5603L85.2702 29.3503ZM85.6002 29.5903C85.6802 29.6403 85.7002 29.6903 85.6202 29.7303C85.5402 29.7803 85.4502 29.7603 85.3702 29.7203L85.0002 29.5003C84.9202 29.4503 84.9002 29.4003 84.9802 29.3603C85.0602 29.3103 85.1502 29.3303 85.2302 29.3703L85.6002 29.5903Z" fill="black"/>
<path d="M84.5502 29.5602C84.4402 29.6202 84.4602 29.6802 84.5602 29.7402L84.6202 29.7802C84.7002 29.8302 84.7902 29.8402 84.8802 29.8102C84.8202 29.8602 84.8402 29.9102 84.9202 29.9602L85.0302 30.0302C85.0602 30.0502 85.0902 30.0702 85.1002 30.0902L85.1502 30.0602C85.1402 30.0402 85.1202 30.0202 85.0802 30.0002L84.9702 29.9302C84.8702 29.8802 84.9002 29.8302 84.9902 29.7802L85.0702 29.7402L85.3902 29.9302L85.4402 29.9002L84.7202 29.4802L84.5502 29.5602ZM84.9302 29.7502C84.8402 29.8002 84.7702 29.8102 84.6702 29.7602L84.6002 29.7202C84.5202 29.6702 84.5102 29.6302 84.5902 29.5902L84.6902 29.5302L85.0002 29.7102L84.9302 29.7502Z" fill="black"/>
<path d="M84.1401 29.8002C84.0301 29.8702 84.0501 29.9402 84.1601 30.0002L84.5201 30.2102C84.6301 30.2702 84.7501 30.2902 84.8601 30.2202L85.0201 30.1302L84.3001 29.7102L84.1401 29.8002ZM84.8201 30.1902C84.7401 30.2402 84.6501 30.2302 84.5701 30.1802L84.2001 29.9702C84.1201 29.9202 84.1001 29.8702 84.1801 29.8302L84.2901 29.7702L84.9301 30.1402L84.8201 30.1902Z" fill="black"/>
<path d="M83.9801 30.2702L84.0201 30.3002L84.2201 30.1802L84.5201 30.3502L84.2801 30.4902L84.3201 30.5202L84.6101 30.3502L83.8901 29.9302L83.6001 30.1002L83.6401 30.1302L83.8801 29.9902L84.1701 30.1602L83.9801 30.2702Z" fill="black"/>
<path d="M83.3803 30.2301C83.2703 30.2901 83.2903 30.3601 83.3903 30.4101L83.4503 30.4501C83.5303 30.5001 83.6203 30.5101 83.7103 30.4801C83.6503 30.5301 83.6703 30.5801 83.7503 30.6301L83.8603 30.6901C83.8903 30.7101 83.9203 30.7301 83.9303 30.7501L83.9803 30.7201C83.9703 30.7001 83.9503 30.6801 83.9103 30.6601L83.8003 30.5901C83.7003 30.5301 83.7303 30.4901 83.8103 30.4401L83.8903 30.4001L84.2103 30.5901L84.2603 30.5602L83.5403 30.1401L83.3803 30.2301ZM83.7603 30.4201C83.6703 30.4701 83.6003 30.4901 83.5003 30.4301L83.4303 30.3901C83.3503 30.3501 83.3403 30.3001 83.4203 30.2601L83.5203 30.2001L83.8303 30.3801L83.7603 30.4201Z" fill="black"/>
<path d="M83.1501 30.5702C83.0401 30.5102 82.9201 30.4903 82.8101 30.5603C82.7001 30.6203 82.7301 30.7002 82.8301 30.7602L83.2001 30.9702C83.3001 31.0302 83.4301 31.0503 83.5401 30.9803C83.6501 30.9203 83.6201 30.8403 83.5201 30.7803L83.1501 30.5702ZM83.4801 30.8103C83.5601 30.8603 83.5801 30.9103 83.5001 30.9503C83.4201 30.9903 83.3301 30.9802 83.2501 30.9402L82.8701 30.7202C82.7901 30.6702 82.7701 30.6203 82.8501 30.5803C82.9301 30.5303 83.0201 30.5503 83.1001 30.5903L83.4801 30.8103Z" fill="black"/>
<path d="M82.6903 31.0402L82.7303 31.0602L82.9203 30.9502L83.2503 31.1402L83.3003 31.1102L82.5803 30.6902L82.3003 30.8502L82.3403 30.8702L82.5703 30.7402L82.8803 30.9202L82.6903 31.0402Z" fill="black"/>
<path d="M38.9103 57.0501L46.3803 52.7401L45.2503 52.0801L37.7803 56.4001L38.9103 57.0501Z" fill="white"/>
<path d="M47.46 65.2901V64.3001L100.08 33.8901V34.8901L47.46 65.2901Z" fill="#F2EAE6"/>
<path d="M25.79 51.8V52.79L47.46 65.29V64.3L25.79 51.8Z" fill="#E6D1D1"/>
<path d="M27.19 51.5999L79.81 21.1999L78.41 20.4099L25.79 50.8199L27.19 51.5999Z" fill="#F2F2F2"/>
<path d="M27.1899 52.5999V51.5999L79.8099 21.2V22.1899L27.1899 52.5999Z" fill="#F2EAE6"/>
<path d="M25.79 50.8198V51.8098L27.19 52.5998V51.5998L25.79 50.8198Z" fill="#E6D1D1"/>
<path d="M8.86963 40.8L58.3696 12.22L58.7296 12.43L9.23963 41.02L8.86963 40.8Z" fill="#282F39"/>
<path d="M9.95996 41.32L59.45 12.74L59.82 12.96L10.32 41.54L9.95996 41.32Z" fill="#282F39"/>
<path d="M14.0996 43.1501L63.5896 14.5701L63.9596 14.7901L14.4696 43.3701L14.0996 43.1501Z" fill="#282F39"/>
<path d="M15.1797 43.6801L64.6797 15.0901L65.0397 15.3101L15.5497 43.8901L15.1797 43.6801Z" fill="#282F39"/>
<path d="M18.73 45.4101L68.22 16.8301L68.59 17.0401L19.09 45.6201L18.73 45.4101Z" fill="#282F39"/>
<path d="M19.8096 45.9301L69.2996 17.3501L69.6696 17.5601L20.1796 46.1401L19.8096 45.9301Z" fill="#282F39"/>
<path d="M32.4399 25.0501L32.8799 24.8601L50.1099 32.9601L49.8599 33.2701L32.4399 25.0501Z" fill="#282F39"/>
<path d="M42.7598 21.39L43.1998 21.2L58.2698 28.28L58.0198 28.59L42.7598 21.39Z" fill="#282F39"/>
<path d="M50.7798 16.75L51.2198 16.55L66.2898 23.64L66.0398 23.94L50.7798 16.75Z" fill="#282F39"/>
<path d="M17.7397 35.8499L18.1797 35.6599L33.2497 42.7399L32.9997 43.0399L17.7397 35.8499Z" fill="#282F39"/>
<path d="M26 31.0699L26.44 30.8799L41.52 37.9599L41.27 38.2599L26 31.0699Z" fill="#282F39"/>
<path d="M46.7797 17.6599C47.1197 17.8599 47.6297 17.6999 47.8897 17.8499L47.9097 17.8599L47.5397 18.0799L47.6497 18.1499L48.1497 17.8599L48.0497 17.7999C47.6897 17.5899 47.2297 17.7699 46.9097 17.5899C46.7897 17.5199 46.7697 17.4699 46.8597 17.4099C46.9497 17.3599 47.0597 17.3699 47.1597 17.4299L47.2597 17.4899L47.3797 17.4199L47.2897 17.3699C47.1197 17.2699 46.9197 17.2499 46.7497 17.3499C46.5797 17.4499 46.6097 17.5599 46.7797 17.6599Z" fill="#282F39"/>
<path d="M46.68 17.7198C46.51 17.6198 46.31 17.6098 46.14 17.7098C45.96 17.8098 45.99 17.9198 46.16 18.0198L46.74 18.3598C46.91 18.4598 47.11 18.4798 47.29 18.3698C47.46 18.2698 47.44 18.1599 47.26 18.0599L46.68 17.7198ZM47.14 18.1398C47.24 18.1998 47.26 18.2599 47.17 18.3099C47.08 18.3599 46.97 18.3498 46.87 18.2898L46.27 17.9498C46.17 17.8898 46.15 17.8299 46.24 17.7799C46.33 17.7299 46.44 17.7398 46.54 17.7998L47.14 18.1398Z" fill="#282F39"/>
<path d="M45.7297 18.1898C45.7997 18.1798 45.8697 18.1598 45.9397 18.1298L45.8397 18.0698C45.7097 18.1398 45.5997 18.1198 45.4997 18.0998L45.4097 18.1498L46.5397 18.7998L46.6597 18.7298L45.7297 18.1898Z" fill="#282F39"/>
<path d="M44.9598 18.71L44.9998 18.73C45.1098 18.8 45.2398 18.82 45.3598 18.79C45.2998 18.87 45.3598 18.94 45.4698 19L45.5498 19.05C45.7198 19.15 45.9198 19.16 46.0998 19.06C46.2798 18.96 46.2598 18.84 46.0898 18.74L46.0098 18.69C45.8898 18.62 45.7698 18.6 45.6398 18.63C45.6998 18.56 45.6498 18.49 45.5398 18.42L45.4998 18.4C45.3298 18.3 45.1298 18.29 44.9498 18.39C44.7798 18.49 44.7898 18.61 44.9598 18.71ZM45.8598 18.76L45.9498 18.81C46.0698 18.88 46.0698 18.94 45.9798 18.99C45.8898 19.04 45.7798 19.04 45.6698 18.97L45.5798 18.92C45.4698 18.86 45.4698 18.8 45.5598 18.74C45.6498 18.69 45.7498 18.69 45.8598 18.76ZM45.3698 18.47L45.4198 18.5C45.5298 18.56 45.5298 18.62 45.4398 18.67C45.3498 18.72 45.2498 18.72 45.1398 18.66L45.0898 18.63C44.9698 18.56 44.9698 18.5 45.0598 18.45C45.1498 18.41 45.2598 18.41 45.3698 18.47Z" fill="#282F39"/>
<path d="M21.6899 32.1699C22.0299 32.3699 22.5399 32.2099 22.7999 32.3599L22.8199 32.3699L22.4499 32.59L22.5599 32.6599L23.0599 32.3699L22.9599 32.31C22.5999 32.1 22.1399 32.2799 21.8199 32.0999C21.6999 32.0299 21.6799 31.9799 21.7799 31.9199C21.8699 31.8699 21.9799 31.8799 22.0799 31.9399L22.1799 31.9999L22.2999 31.9299L22.2099 31.8799C22.0399 31.7799 21.8399 31.7599 21.6699 31.8599C21.4799 31.9599 21.5099 32.0699 21.6899 32.1699Z" fill="#282F39"/>
<path d="M21.5798 32.2299C21.4098 32.1299 21.2098 32.1198 21.0398 32.2198C20.8698 32.3198 20.8898 32.4299 21.0598 32.5299L21.6398 32.8699C21.8098 32.9699 22.0098 32.9898 22.1898 32.8798C22.3598 32.7798 22.3398 32.6599 22.1598 32.5599L21.5798 32.2299ZM22.0398 32.6499C22.1398 32.7099 22.1598 32.7698 22.0698 32.8198C21.9798 32.8698 21.8698 32.8599 21.7698 32.7999L21.1698 32.4599C21.0698 32.3999 21.0498 32.3398 21.1398 32.2898C21.2298 32.2398 21.3398 32.2499 21.4398 32.3099L22.0398 32.6499Z" fill="#282F39"/>
<path d="M20.6398 32.6998C20.7098 32.6898 20.7798 32.6698 20.8498 32.6398L20.7498 32.5798C20.6198 32.6498 20.5098 32.6298 20.4098 32.6098L20.3198 32.6598L21.4498 33.3098L21.5698 33.2398L20.6398 32.6998Z" fill="#282F39"/>
<path d="M19.8797 33.2098L20.4497 33.5398C20.6297 33.6398 20.8197 33.6598 20.9997 33.5598C21.1697 33.4598 21.1497 33.3498 20.9697 33.2498L20.9497 33.2398L20.8297 33.3098L20.8597 33.3298C20.9597 33.3898 20.9797 33.4498 20.8897 33.4998C20.7897 33.5598 20.6897 33.5398 20.5697 33.4798L20.3197 33.3298C20.4297 33.3598 20.5297 33.3498 20.6197 33.2898C20.7697 33.2098 20.7297 33.1098 20.5697 33.0098L20.3997 32.9098C20.2297 32.8098 20.0297 32.7898 19.8597 32.8998C19.6797 32.9998 19.7097 33.1098 19.8797 33.2098ZM20.2697 32.9798L20.4397 33.0798C20.5397 33.1398 20.5597 33.1998 20.4697 33.2498C20.3797 33.2998 20.2697 33.2898 20.1697 33.2298L19.9997 33.1298C19.8997 33.0698 19.8797 33.0098 19.9697 32.9598C20.0597 32.9098 20.1697 32.9198 20.2697 32.9798Z" fill="#282F39"/>
<defs>
<linearGradient id="paint0_linear_1177_360766" x1="3.3138" y1="44.9005" x2="2.20138" y2="46.8503" gradientUnits="userSpaceOnUse">
<stop offset="0.369" stop-color="#F2F2F2"/>
<stop offset="0.379" stop-color="#BDBDBD"/>
<stop offset="0.8894" stop-color="#BDBDBD"/>
<stop offset="0.8937" stop-color="#727373"/>
</linearGradient>
<linearGradient id="paint1_linear_1177_360766" x1="6.35016" y1="45.9377" x2="4.76593" y2="48.7145" gradientUnits="userSpaceOnUse">
<stop offset="0.369" stop-color="#F2F2F2"/>
<stop offset="0.379" stop-color="#BDBDBD"/>
<stop offset="0.8894" stop-color="#BDBDBD"/>
<stop offset="0.8937" stop-color="#727373"/>
</linearGradient>
<linearGradient id="paint2_linear_1177_360766" x1="21.9977" y1="54.8276" x2="20.4077" y2="57.6145" gradientUnits="userSpaceOnUse">
<stop offset="0.369" stop-color="#93E66A"/>
<stop offset="0.375" stop-color="#549433"/>
<stop offset="0.8894" stop-color="#549433"/>
<stop offset="0.8898" stop-color="#2C5C12"/>
</linearGradient>
</defs>
</svg>
