<svg width="100" height="79" viewBox="0 0 100 79" fill="none" xmlns="http://www.w3.org/2000/svg">
<mask id="path-1-inside-1_77_37318" fill="white">
<path fill-rule="evenodd" clip-rule="evenodd" d="M84.8038 15.7508C84.8038 15.1196 84.2922 14.6079 83.661 14.6079H16.1429C15.5117 14.6079 15 15.1196 15 15.7508V63.6611C15 64.2922 15.5117 64.8039 16.1429 64.8039H83.661C84.2922 64.8039 84.8038 64.2922 84.8038 63.6611V15.7508ZM80.8823 53.465C80.8823 54.0962 80.3706 54.6079 79.7394 54.6079H20.4566C19.8254 54.6079 19.3137 54.0962 19.3137 53.465V19.6723C19.3137 19.0411 19.8254 18.5295 20.4566 18.5295H79.7394C80.3706 18.5295 80.8823 19.0411 80.8823 19.6723V53.465Z"/>
<path d="M19.3137 53.465C19.3137 54.0962 19.8254 54.6079 20.4566 54.6079H79.7394C80.3706 54.6079 80.8823 54.0962 80.8823 53.465V19.6723C80.8823 19.0411 80.3706 18.5295 79.7394 18.5295H20.4566C19.8254 18.5295 19.3137 19.0411 19.3137 19.6723V53.465Z"/>
</mask>
<path fill-rule="evenodd" clip-rule="evenodd" d="M84.8038 15.7508C84.8038 15.1196 84.2922 14.6079 83.661 14.6079H16.1429C15.5117 14.6079 15 15.1196 15 15.7508V63.6611C15 64.2922 15.5117 64.8039 16.1429 64.8039H83.661C84.2922 64.8039 84.8038 64.2922 84.8038 63.6611V15.7508ZM80.8823 53.465C80.8823 54.0962 80.3706 54.6079 79.7394 54.6079H20.4566C19.8254 54.6079 19.3137 54.0962 19.3137 53.465V19.6723C19.3137 19.0411 19.8254 18.5295 20.4566 18.5295H79.7394C80.3706 18.5295 80.8823 19.0411 80.8823 19.6723V53.465Z" fill="#174AA4"/>
<path d="M19.3137 53.465C19.3137 54.0962 19.8254 54.6079 20.4566 54.6079H79.7394C80.3706 54.6079 80.8823 54.0962 80.8823 53.465V19.6723C80.8823 19.0411 80.3706 18.5295 79.7394 18.5295H20.4566C19.8254 18.5295 19.3137 19.0411 19.3137 19.6723V53.465Z" fill="#E5E6ED"/>
<path d="M20.4566 54.8936H79.7394V54.3221H20.4566V54.8936ZM81.168 53.465V19.6723H80.5966V53.465H81.168ZM79.7394 18.2438H20.4566V18.8152H79.7394V18.2438ZM19.028 19.6723V53.465H19.5994V19.6723H19.028ZM20.4566 18.2438C19.6676 18.2438 19.028 18.8834 19.028 19.6723H19.5994C19.5994 19.1989 19.9832 18.8152 20.4566 18.8152V18.2438ZM81.168 19.6723C81.168 18.8834 80.5284 18.2438 79.7394 18.2438V18.8152C80.2128 18.8152 80.5966 19.1989 80.5966 19.6723H81.168ZM79.7394 54.8936C80.5284 54.8936 81.168 54.254 81.168 53.465H80.5966C80.5966 53.9384 80.2128 54.3221 79.7394 54.3221V54.8936ZM20.4566 54.3221C19.9832 54.3221 19.5994 53.9384 19.5994 53.465H19.028C19.028 54.254 19.6676 54.8936 20.4566 54.8936V54.3221ZM16.1429 15.1793H83.661V14.0365H16.1429V15.1793ZM84.2324 15.7508V63.6611H85.3753V15.7508H84.2324ZM83.661 64.2325H16.1429V65.3753H83.661V64.2325ZM15.5714 63.6611V15.7508H14.4286V63.6611H15.5714ZM16.1429 64.2325C15.8273 64.2325 15.5714 63.9766 15.5714 63.6611H14.4286C14.4286 64.6078 15.1961 65.3753 16.1429 65.3753V64.2325ZM84.2324 63.6611C84.2324 63.9767 83.9766 64.2325 83.661 64.2325V65.3753C84.6077 65.3753 85.3753 64.6078 85.3753 63.6611H84.2324ZM83.661 15.1793C83.9766 15.1793 84.2324 15.4352 84.2324 15.7508H85.3753C85.3753 14.804 84.6077 14.0365 83.661 14.0365V15.1793ZM16.1429 14.0365C15.1961 14.0365 14.4286 14.804 14.4286 15.7508H15.5714C15.5714 15.4352 15.8273 15.1793 16.1429 15.1793V14.0365Z" fill="#282F38" mask="url(#path-1-inside-1_77_37318)"/>
<g clip-path="url(#clip0_77_37318)">
<path d="M64.6519 10.4088L64.657 10.4142L64.6622 10.4195L71.1469 16.9042V57.6538C71.1469 59.1438 69.939 60.3518 68.449 60.3518H32.1C30.61 60.3518 29.402 59.1438 29.402 57.6538V8.1C29.402 6.60996 30.61 5.40205 32.1 5.40205H60.0028L64.6519 10.4088Z" fill="#DDEAFF" stroke="#282F38" stroke-width="0.804096"/>
<path d="M59.9453 16.9505V5.42801C59.9453 5.3723 60.0131 5.34486 60.0518 5.38487L71.2143 16.9074C71.2524 16.9467 71.2245 17.0125 71.1698 17.0125H60.0073C59.9731 17.0125 59.9453 16.9848 59.9453 16.9505Z" fill="#DDEAFF" stroke="#282F38" stroke-width="0.804096" stroke-linecap="round"/>
<path d="M35.3828 38.6138H43.0416" stroke="#282F38" stroke-width="0.804096" stroke-linecap="round"/>
<path d="M47.7188 38.1885H65.5893" stroke="#282F38" stroke-width="0.804096" stroke-linecap="round"/>
<path d="M34.9531 46.6978H55.3766" stroke="#282F38" stroke-width="0.804096" stroke-linecap="round"/>
<path d="M59.6328 46.6978H65.5897" stroke="#282F38" stroke-width="0.804096" stroke-linecap="round"/>
<path d="M50.2734 54.3564L65.5911 54.3564" stroke="#282F38" stroke-width="0.804096" stroke-linecap="round"/>
<path d="M34.9531 54.3564L46.0159 54.3564" stroke="#282F38" stroke-width="0.804096" stroke-linecap="round"/>
<path d="M47.8267 29.2842L47.8267 22.7711L45.0324 22.7711L49.5033 17.7357L53.9713 22.7711L51.177 22.7711L51.177 29.2842C54.3798 28.5255 56.7656 25.6497 56.7656 22.2113C56.7656 18.1932 53.5146 14.9366 49.5033 14.9366C45.492 14.9366 42.2409 18.1932 42.2409 22.2113C42.2409 25.6497 44.6267 28.5255 47.8267 29.2842Z" fill="#8CC152"/>
</g>
<path d="M61.2763 71.8625L59.3155 64.8037H40.492L38.5312 71.8625H61.2763Z" fill="#174AA4" stroke="#282F38" stroke-width="1.14286" stroke-linecap="round"/>
<rect x="34.6094" y="71.8628" width="30.5882" height="3.13725" rx="1.56863" fill="#282F38"/>
<defs>
<clipPath id="clip0_77_37318">
<rect width="42" height="49" fill="white" transform="translate(29 5)"/>
</clipPath>
</defs>
</svg>
