<svg width="100" height="79" viewBox="0 0 100 79" fill="none" xmlns="http://www.w3.org/2000/svg">
<mask id="path-1-inside-1_77_24803" fill="white">
<path fill-rule="evenodd" clip-rule="evenodd" d="M84.8038 15.7508C84.8038 15.1196 84.2922 14.6079 83.661 14.6079H16.1429C15.5117 14.6079 15 15.1196 15 15.7508V63.6611C15 64.2922 15.5117 64.8039 16.1429 64.8039H83.661C84.2922 64.8039 84.8038 64.2922 84.8038 63.6611V15.7508ZM80.8823 53.465C80.8823 54.0962 80.3706 54.6079 79.7394 54.6079H20.4566C19.8254 54.6079 19.3137 54.0962 19.3137 53.465V19.6723C19.3137 19.0411 19.8254 18.5295 20.4566 18.5295H79.7394C80.3706 18.5295 80.8823 19.0411 80.8823 19.6723V53.465Z"/>
<path d="M19.3137 53.465C19.3137 54.0962 19.8254 54.6079 20.4566 54.6079H79.7394C80.3706 54.6079 80.8823 54.0962 80.8823 53.465V19.6723C80.8823 19.0411 80.3706 18.5295 79.7394 18.5295H20.4566C19.8254 18.5295 19.3137 19.0411 19.3137 19.6723V53.465Z"/>
</mask>
<path fill-rule="evenodd" clip-rule="evenodd" d="M84.8038 15.7508C84.8038 15.1196 84.2922 14.6079 83.661 14.6079H16.1429C15.5117 14.6079 15 15.1196 15 15.7508V63.6611C15 64.2922 15.5117 64.8039 16.1429 64.8039H83.661C84.2922 64.8039 84.8038 64.2922 84.8038 63.6611V15.7508ZM80.8823 53.465C80.8823 54.0962 80.3706 54.6079 79.7394 54.6079H20.4566C19.8254 54.6079 19.3137 54.0962 19.3137 53.465V19.6723C19.3137 19.0411 19.8254 18.5295 20.4566 18.5295H79.7394C80.3706 18.5295 80.8823 19.0411 80.8823 19.6723V53.465Z" fill="#174AA4"/>
<path d="M19.3137 53.465C19.3137 54.0962 19.8254 54.6079 20.4566 54.6079H79.7394C80.3706 54.6079 80.8823 54.0962 80.8823 53.465V19.6723C80.8823 19.0411 80.3706 18.5295 79.7394 18.5295H20.4566C19.8254 18.5295 19.3137 19.0411 19.3137 19.6723V53.465Z" fill="#E5E6ED"/>
<path d="M20.4566 54.8936H79.7394V54.3221H20.4566V54.8936ZM81.168 53.465V19.6723H80.5966V53.465H81.168ZM79.7394 18.2438H20.4566V18.8152H79.7394V18.2438ZM19.028 19.6723V53.465H19.5994V19.6723H19.028ZM20.4566 18.2438C19.6676 18.2438 19.028 18.8834 19.028 19.6723H19.5994C19.5994 19.1989 19.9832 18.8152 20.4566 18.8152V18.2438ZM81.168 19.6723C81.168 18.8834 80.5284 18.2438 79.7394 18.2438V18.8152C80.2128 18.8152 80.5966 19.1989 80.5966 19.6723H81.168ZM79.7394 54.8936C80.5284 54.8936 81.168 54.254 81.168 53.465H80.5966C80.5966 53.9384 80.2128 54.3221 79.7394 54.3221V54.8936ZM20.4566 54.3221C19.9832 54.3221 19.5994 53.9384 19.5994 53.465H19.028C19.028 54.254 19.6676 54.8936 20.4566 54.8936V54.3221ZM16.1429 15.1793H83.661V14.0365H16.1429V15.1793ZM84.2324 15.7508V63.6611H85.3753V15.7508H84.2324ZM83.661 64.2325H16.1429V65.3753H83.661V64.2325ZM15.5714 63.6611V15.7508H14.4286V63.6611H15.5714ZM16.1429 64.2325C15.8273 64.2325 15.5714 63.9766 15.5714 63.6611H14.4286C14.4286 64.6078 15.1961 65.3753 16.1429 65.3753V64.2325ZM84.2324 63.6611C84.2324 63.9767 83.9766 64.2325 83.661 64.2325V65.3753C84.6077 65.3753 85.3753 64.6078 85.3753 63.6611H84.2324ZM83.661 15.1793C83.9766 15.1793 84.2324 15.4352 84.2324 15.7508H85.3753C85.3753 14.804 84.6077 14.0365 83.661 14.0365V15.1793ZM16.1429 14.0365C15.1961 14.0365 14.4286 14.804 14.4286 15.7508H15.5714C15.5714 15.4352 15.8273 15.1793 16.1429 15.1793V14.0365Z" fill="#282F38" mask="url(#path-1-inside-1_77_24803)"/>
<g clip-path="url(#clip0_77_24803)">
<path d="M64.3785 10.4088L64.3835 10.4142L64.3888 10.4195L70.8735 16.9042V57.6538C70.8735 59.1438 69.6656 60.3518 68.1755 60.3518H31.8266C30.3365 60.3518 29.1286 59.1438 29.1286 57.6538V8.1C29.1286 6.60996 30.3365 5.40205 31.8266 5.40205H59.7294L64.3785 10.4088Z" fill="#DDEAFF" stroke="#282F38" stroke-width="0.804096"/>
<path d="M59.6719 16.9505V5.42801C59.6719 5.3723 59.7396 5.34486 59.7784 5.38487L70.9409 16.9074C70.979 16.9467 70.9511 17.0125 70.8963 17.0125H59.7339C59.6996 17.0125 59.6719 16.9848 59.6719 16.9505Z" fill="#DDEAFF" stroke="#282F38" stroke-width="0.804096" stroke-linecap="round"/>
<path d="M35.1094 38.6138H42.7682" stroke="#282F38" stroke-width="0.804096" stroke-linecap="round"/>
<path d="M47.4453 38.1885H65.3159" stroke="#282F38" stroke-width="0.804096" stroke-linecap="round"/>
<path d="M34.6797 46.6978H55.1032" stroke="#282F38" stroke-width="0.804096" stroke-linecap="round"/>
<path d="M59.3594 46.6978H65.3162" stroke="#282F38" stroke-width="0.804096" stroke-linecap="round"/>
<path d="M50 54.3564L65.3176 54.3564" stroke="#282F38" stroke-width="0.804096" stroke-linecap="round"/>
<path d="M34.6797 54.3564L45.7424 54.3564" stroke="#282F38" stroke-width="0.804096" stroke-linecap="round"/>
<circle cx="48.6271" cy="22.1569" r="7.04901" fill="#8CC152" stroke="#8CC152"/>
<path d="M48.003 25.0869L45.7134 22.4509C45.7133 22.4509 45.7133 22.4508 45.7133 22.4508C45.7124 22.45 45.6936 22.4326 45.6954 22.3533C45.6974 22.2791 45.7136 22.2488 45.7228 22.2364L47.6255 24.427L48.003 24.8616L48.3805 24.427L52.8983 19.2257C52.9 19.2256 52.9019 19.2256 52.9041 19.2256C52.906 19.2256 52.9077 19.2256 52.9092 19.2257C52.9159 19.2346 52.9306 19.2609 52.9306 19.3317C52.9306 19.4142 52.9109 19.4367 52.9067 19.4414L52.9064 19.4417L48.003 25.0869ZM52.9038 19.2196C52.9035 19.2193 52.9035 19.2193 52.9038 19.2196C52.9037 19.2197 52.9034 19.2199 52.9031 19.2202C52.9024 19.2207 52.9016 19.2213 52.9007 19.2218L52.9013 19.2224C52.9026 19.2208 52.9035 19.2199 52.9038 19.2196L52.9038 19.2196Z" fill="#DDEAFF" stroke="#DDEAFF"/>
</g>
<path d="M61.2763 71.8625L59.3155 64.8037H40.492L38.5312 71.8625H61.2763Z" fill="#174AA4" stroke="#282F38" stroke-width="1.14286" stroke-linecap="round"/>
<rect x="34.6094" y="71.8628" width="30.5882" height="3.13725" rx="1.56863" fill="#282F38"/>
<defs>
<clipPath id="clip0_77_24803">
<rect width="42.549" height="49.4117" fill="white" transform="translate(28.7266 5)"/>
</clipPath>
</defs>
</svg>
