<svg width="13" height="12" viewBox="0 0 13 12" fill="none" xmlns="http://www.w3.org/2000/svg">
    <path d="M1.02969 0.534948C0.870558 0.534948 0.717945 0.598163 0.605423 0.710684C0.492902 0.823206 0.429688 0.975819 0.429688 1.13495V4.43495C0.429688 5.44895 1.04769 6.31295 1.92969 6.66695V10.4349C1.92969 10.6736 2.02451 10.9026 2.19329 11.0713C2.36207 11.2401 2.59099 11.3349 2.82969 11.3349C3.06838 11.3349 3.2973 11.2401 3.46608 11.0713C3.63487 10.9026 3.72969 10.6736 3.72969 10.4349V6.66695C4.61169 6.31295 5.22969 5.44895 5.22969 4.43495V1.13495C5.22969 0.975819 5.16647 0.823206 5.05395 0.710684C4.94143 0.598163 4.78882 0.534948 4.62969 0.534948C4.47056 0.534948 4.31795 0.598163 4.20542 0.710684C4.0929 0.823206 4.02969 0.975819 4.02969 1.13495V3.53495C4.02969 3.61451 3.99808 3.69082 3.94182 3.74708C3.88556 3.80334 3.80925 3.83495 3.72969 3.83495C3.65012 3.83495 3.57382 3.80334 3.51756 3.74708C3.4613 3.69082 3.42969 3.61451 3.42969 3.53495V1.13495C3.42969 0.975819 3.36647 0.823206 3.25395 0.710684C3.14143 0.598163 2.98882 0.534948 2.82969 0.534948C2.67056 0.534948 2.51795 0.598163 2.40542 0.710684C2.2929 0.823206 2.22969 0.975819 2.22969 1.13495V3.53495C2.22969 3.61451 2.19808 3.69082 2.14182 3.74708C2.08556 3.80334 2.00925 3.83495 1.92969 3.83495C1.85012 3.83495 1.77382 3.80334 1.71756 3.74708C1.66129 3.69082 1.62969 3.61451 1.62969 3.53495V1.13495C1.62969 0.975819 1.56647 0.823206 1.45395 0.710684C1.34143 0.598163 1.18882 0.534948 1.02969 0.534948V0.534948ZM11.1577 0.534948C11.0797 0.534948 11.0017 0.588949 10.9297 0.630949L8.82969 1.88495V4.13495H6.42969V5.33495H7.02969L7.62969 11.3349H11.2297L11.8297 5.33495H12.4297V4.13495H10.0297V2.53895L11.5297 1.63895C11.8297 1.47095 11.9077 1.13495 11.7337 0.834949C11.6077 0.618949 11.3857 0.504948 11.1577 0.534948Z" fill="white" />
</svg>
    