<svg width="12" height="12" viewBox="0 0 12 12" fill="none" xmlns="http://www.w3.org/2000/svg">
    <path d="M2.04049 2.04C-0.146311 4.22681 -0.146311 7.77322 2.04049 9.9604C4.2273 12.1476 7.77297 12.1465 9.95978 9.95965C12.1466 7.77285 12.1477 4.22718 9.96052 2.04037C7.77371 -0.146433 4.22804 -0.146433 2.04049 2.04037V2.04ZM9.69803 2.30286C9.99848 2.60722 10.2607 2.9471 10.4788 3.31496L8.96402 4.82976C8.80457 4.42357 8.56289 4.05473 8.25414 3.74638C7.94566 3.43734 7.57654 3.19552 7.17002 3.03613L8.68482 1.52133C9.05327 1.73956 9.39365 2.00202 9.6984 2.30286H9.69803ZM4.01011 7.99079C3.48236 7.46264 3.18585 6.74661 3.18571 5.99998C3.18557 5.25336 3.48182 4.53721 4.00936 4.00887C4.5378 3.48159 5.25382 3.18546 6.00032 3.18546C6.74683 3.18546 7.46285 3.48159 7.99128 4.00887C8.51818 4.53743 8.81405 5.25332 8.81405 5.99964C8.81405 6.74597 8.51818 7.46185 7.99128 7.99042C7.46306 8.51787 6.74713 8.81418 6.00066 8.81432C5.25419 8.81446 4.53815 8.51841 4.00973 7.99116L4.01011 7.99079ZM2.30261 9.69791C2.00188 9.39306 1.73943 9.05269 1.52108 8.68433L3.03588 7.16953C3.19613 7.57547 3.43805 7.94416 3.74664 8.25276C4.05524 8.56136 4.42394 8.80328 4.82988 8.96353L3.31434 10.4783C2.9542 10.263 2.61263 10.0068 2.30224 9.69753L2.30261 9.69791ZM3.31545 1.52022L4.83099 3.03576C4.42481 3.19548 4.05588 3.43717 3.74722 3.74576C3.43857 4.05436 3.1968 4.42323 3.037 4.82939L1.52145 3.31459C1.73679 2.95445 1.99297 2.61288 2.30299 2.30175C2.60764 2.00112 2.94776 1.73868 3.31582 1.52022H3.31545ZM8.68556 10.4783L7.17002 8.96278C7.57627 8.80328 7.94527 8.56171 8.25394 8.25316C8.56262 7.94461 8.80435 7.57572 8.96402 7.16953L10.4796 8.68433C10.2642 9.04446 10.008 9.38678 9.69803 9.69791C9.39336 9.99831 9.05324 10.2605 8.68519 10.4787L8.68556 10.4783Z" fill="white" />
</svg>
    