<svg width="16" height="14" viewBox="0 0 16 14" fill="none" xmlns="http://www.w3.org/2000/svg">
    <path d="M1.50401 13.3117H14.4976C15.0375 13.3117 15.3741 12.7297 15.1076 12.2599L8.60733 1.04045C8.54627 0.93347 8.458 0.844545 8.35147 0.782693C8.24495 0.720841 8.12396 0.688263 8.00078 0.688263C7.8776 0.688263 7.75661 0.720841 7.65009 0.782693C7.54357 0.844545 7.45529 0.93347 7.39423 1.04045L0.893953 12.2599C0.627491 12.7297 0.964075 13.3117 1.50401 13.3117ZM8.7055 11.2081H7.30307V9.80565H8.7055V11.2081ZM8.00429 8.40322C7.61862 8.40322 7.30307 8.08767 7.30307 7.702V6.29957C7.30307 5.9139 7.61862 5.59835 8.00429 5.59835C8.38996 5.59835 8.7055 5.9139 8.7055 6.29957V7.702C8.7055 8.08767 8.38996 8.40322 8.00429 8.40322Z" fill="white" />
</svg>
    