<svg width="14" height="13" viewBox="0 0 14 13" fill="none" xmlns="http://www.w3.org/2000/svg">
    <path d="M1.20448 0.549568C1.42426 0.329851 1.72231 0.206421 2.03308 0.206421C2.34386 0.206421 2.64191 0.329851 2.86169 0.549568L7.0059 4.69378L11.1501 0.549568C11.3712 0.336078 11.6672 0.217946 11.9745 0.220617C12.2818 0.223287 12.5758 0.346546 12.7931 0.563845C13.0104 0.781144 13.1336 1.0751 13.1363 1.38239C13.139 1.68969 13.0208 1.98574 12.8073 2.20678L8.66312 6.351L12.8073 10.4952C13.0208 10.7163 13.139 11.0123 13.1363 11.3196C13.1336 11.6269 13.0104 11.9208 12.7931 12.1381C12.5758 12.3554 12.2818 12.4787 11.9745 12.4814C11.6672 12.484 11.3712 12.3659 11.1501 12.1524L7.0059 8.00821L2.86169 12.1524C2.64065 12.3659 2.3446 12.484 2.0373 12.4814C1.73001 12.4787 1.43605 12.3554 1.21875 12.1381C1.00145 11.9208 0.878194 11.6269 0.875524 11.3196C0.872854 11.0123 0.990985 10.7163 1.20448 10.4952L5.34869 6.351L1.20448 2.20678C0.984758 1.987 0.861328 1.68895 0.861328 1.37818C0.861328 1.0674 0.984758 0.769352 1.20448 0.549568V0.549568Z" fill="white" />
</svg>
    